%TF.GenerationSoftware,KiCad,Pcbnew,8.0.7*%
%TF.CreationDate,2025-02-10T22:10:37-06:00*%
%TF.ProjectId,Project63_BMS_DaughterBoard,50726f6a-6563-4743-9633-5f424d535f44,rev?*%
%TF.SameCoordinates,Original*%
%TF.FileFunction,Copper,L1,Top*%
%TF.FilePolarity,Positive*%
%FSLAX46Y46*%
G04 Gerber Fmt 4.6, Leading zero omitted, Abs format (unit mm)*
G04 Created by KiCad (PCBNEW 8.0.7) date 2025-02-10 22:10:37*
%MOMM*%
%LPD*%
G01*
G04 APERTURE LIST*
G04 Aperture macros list*
%AMRoundRect*
0 Rectangle with rounded corners*
0 $1 Rounding radius*
0 $2 $3 $4 $5 $6 $7 $8 $9 X,Y pos of 4 corners*
0 Add a 4 corners polygon primitive as box body*
4,1,4,$2,$3,$4,$5,$6,$7,$8,$9,$2,$3,0*
0 Add four circle primitives for the rounded corners*
1,1,$1+$1,$2,$3*
1,1,$1+$1,$4,$5*
1,1,$1+$1,$6,$7*
1,1,$1+$1,$8,$9*
0 Add four rect primitives between the rounded corners*
20,1,$1+$1,$2,$3,$4,$5,0*
20,1,$1+$1,$4,$5,$6,$7,0*
20,1,$1+$1,$6,$7,$8,$9,0*
20,1,$1+$1,$8,$9,$2,$3,0*%
G04 Aperture macros list end*
%TA.AperFunction,SMDPad,CuDef*%
%ADD10RoundRect,0.250000X-1.425000X0.362500X-1.425000X-0.362500X1.425000X-0.362500X1.425000X0.362500X0*%
%TD*%
%TA.AperFunction,SMDPad,CuDef*%
%ADD11RoundRect,0.200000X-0.200000X-0.275000X0.200000X-0.275000X0.200000X0.275000X-0.200000X0.275000X0*%
%TD*%
%TA.AperFunction,SMDPad,CuDef*%
%ADD12RoundRect,0.200000X0.200000X0.275000X-0.200000X0.275000X-0.200000X-0.275000X0.200000X-0.275000X0*%
%TD*%
%TA.AperFunction,SMDPad,CuDef*%
%ADD13RoundRect,0.218750X-0.218750X-0.256250X0.218750X-0.256250X0.218750X0.256250X-0.218750X0.256250X0*%
%TD*%
%TA.AperFunction,ComponentPad*%
%ADD14C,2.400000*%
%TD*%
%TA.AperFunction,SMDPad,CuDef*%
%ADD15R,1.346200X0.787400*%
%TD*%
%TA.AperFunction,SMDPad,CuDef*%
%ADD16R,1.143000X0.228600*%
%TD*%
%TA.AperFunction,SMDPad,CuDef*%
%ADD17R,0.228600X1.143000*%
%TD*%
%TA.AperFunction,SMDPad,CuDef*%
%ADD18R,6.502400X6.502400*%
%TD*%
%TA.AperFunction,SMDPad,CuDef*%
%ADD19R,0.552399X0.749198*%
%TD*%
%TA.AperFunction,SMDPad,CuDef*%
%ADD20RoundRect,0.250000X-1.450000X0.312500X-1.450000X-0.312500X1.450000X-0.312500X1.450000X0.312500X0*%
%TD*%
%TA.AperFunction,SMDPad,CuDef*%
%ADD21R,0.749198X0.552399*%
%TD*%
%TA.AperFunction,SMDPad,CuDef*%
%ADD22R,0.600000X1.850000*%
%TD*%
%TA.AperFunction,SMDPad,CuDef*%
%ADD23R,0.762000X0.558800*%
%TD*%
%TA.AperFunction,SMDPad,CuDef*%
%ADD24R,0.920000X0.990000*%
%TD*%
%TA.AperFunction,SMDPad,CuDef*%
%ADD25R,0.762000X0.660400*%
%TD*%
%TA.AperFunction,SMDPad,CuDef*%
%ADD26R,0.749200X0.452400*%
%TD*%
%TA.AperFunction,SMDPad,CuDef*%
%ADD27R,0.660400X0.762000*%
%TD*%
%TA.AperFunction,SMDPad,CuDef*%
%ADD28R,2.600000X1.060000*%
%TD*%
%TA.AperFunction,SMDPad,CuDef*%
%ADD29R,5.700000X5.632000*%
%TD*%
%TA.AperFunction,SMDPad,CuDef*%
%ADD30R,0.930000X0.890000*%
%TD*%
%TA.AperFunction,ComponentPad*%
%ADD31R,1.520000X1.520000*%
%TD*%
%TA.AperFunction,ComponentPad*%
%ADD32C,1.520000*%
%TD*%
%TA.AperFunction,SMDPad,CuDef*%
%ADD33R,0.508000X0.508000*%
%TD*%
%TA.AperFunction,SMDPad,CuDef*%
%ADD34R,1.820000X1.240000*%
%TD*%
%TA.AperFunction,ComponentPad*%
%ADD35C,1.981200*%
%TD*%
%TA.AperFunction,SMDPad,CuDef*%
%ADD36R,0.899198X0.852399*%
%TD*%
%TA.AperFunction,SMDPad,CuDef*%
%ADD37R,0.355600X1.397000*%
%TD*%
%TA.AperFunction,SMDPad,CuDef*%
%ADD38RoundRect,0.150000X-0.150000X0.587500X-0.150000X-0.587500X0.150000X-0.587500X0.150000X0.587500X0*%
%TD*%
%TA.AperFunction,SMDPad,CuDef*%
%ADD39RoundRect,0.150000X0.150000X-0.587500X0.150000X0.587500X-0.150000X0.587500X-0.150000X-0.587500X0*%
%TD*%
%TA.AperFunction,SMDPad,CuDef*%
%ADD40RoundRect,0.250000X1.450000X-0.312500X1.450000X0.312500X-1.450000X0.312500X-1.450000X-0.312500X0*%
%TD*%
%TA.AperFunction,SMDPad,CuDef*%
%ADD41R,0.863600X1.549400*%
%TD*%
%TA.AperFunction,SMDPad,CuDef*%
%ADD42R,2.590800X0.965200*%
%TD*%
%TA.AperFunction,ViaPad*%
%ADD43C,0.700000*%
%TD*%
%TA.AperFunction,Conductor*%
%ADD44C,0.500000*%
%TD*%
%TA.AperFunction,Conductor*%
%ADD45C,0.300000*%
%TD*%
%TA.AperFunction,Conductor*%
%ADD46C,0.200000*%
%TD*%
G04 APERTURE END LIST*
D10*
%TO.P,R602,1*%
%TO.N,Net-(R601-Pad1)*%
X158000000Y-70537500D03*
%TO.P,R602,2*%
%TO.N,BAT*%
X158000000Y-76462500D03*
%TD*%
D11*
%TO.P,R330,1*%
%TO.N,Net-(BAT_POSITIVE301-PadTP)*%
X133781775Y-55266895D03*
%TO.P,R330,2*%
%TO.N,VC14*%
X135431775Y-55266895D03*
%TD*%
D12*
%TO.P,R329,1*%
%TO.N,VC11*%
X135362196Y-70591895D03*
%TO.P,R329,2*%
%TO.N,Net-(F330-Pad2)*%
X133712196Y-70591895D03*
%TD*%
%TO.P,R328,1*%
%TO.N,VC12*%
X135431775Y-65474117D03*
%TO.P,R328,2*%
%TO.N,Net-(F329-Pad2)*%
X133781775Y-65474117D03*
%TD*%
%TO.P,R327,1*%
%TO.N,VC13*%
X135314641Y-60450783D03*
%TO.P,R327,2*%
%TO.N,Net-(F328-Pad2)*%
X133664641Y-60450783D03*
%TD*%
D11*
%TO.P,R322,1*%
%TO.N,Net-(F322-Pad2)*%
X133781775Y-126471895D03*
%TO.P,R322,2*%
%TO.N,VC0*%
X135431775Y-126471895D03*
%TD*%
D12*
%TO.P,R321,1*%
%TO.N,VC1*%
X135431775Y-121391895D03*
%TO.P,R321,2*%
%TO.N,Net-(F317-Pad2)*%
X133781775Y-121391895D03*
%TD*%
%TO.P,R320,1*%
%TO.N,VC2*%
X135431775Y-116311895D03*
%TO.P,R320,2*%
%TO.N,Net-(F321-Pad2)*%
X133781775Y-116311895D03*
%TD*%
%TO.P,R319,1*%
%TO.N,VC3*%
X135431775Y-111231895D03*
%TO.P,R319,2*%
%TO.N,Net-(F320-Pad2)*%
X133781775Y-111231895D03*
%TD*%
%TO.P,R318,1*%
%TO.N,VC4*%
X135431775Y-106151895D03*
%TO.P,R318,2*%
%TO.N,Net-(F319-Pad2)*%
X133781775Y-106151895D03*
%TD*%
%TO.P,R317,1*%
%TO.N,VC5*%
X135431775Y-101071895D03*
%TO.P,R317,2*%
%TO.N,Net-(F318-Pad2)*%
X133781775Y-101071895D03*
%TD*%
%TO.P,R316,1*%
%TO.N,VC6*%
X135431775Y-96138566D03*
%TO.P,R316,2*%
%TO.N,Net-(F316-Pad2)*%
X133781775Y-96138566D03*
%TD*%
%TO.P,R315,1*%
%TO.N,VC7*%
X135302048Y-90924487D03*
%TO.P,R315,2*%
%TO.N,Net-(F315-Pad2)*%
X133652048Y-90924487D03*
%TD*%
%TO.P,R314,1*%
%TO.N,VC8*%
X135201308Y-85957820D03*
%TO.P,R314,2*%
%TO.N,Net-(F314-Pad2)*%
X133551308Y-85957820D03*
%TD*%
%TO.P,R313,1*%
%TO.N,VC9*%
X135239085Y-80726709D03*
%TO.P,R313,2*%
%TO.N,Net-(F313-Pad2)*%
X133589085Y-80726709D03*
%TD*%
%TO.P,R312,1*%
%TO.N,VC10*%
X135311999Y-75800971D03*
%TO.P,R312,2*%
%TO.N,Net-(F312-Pad2)*%
X133661999Y-75800971D03*
%TD*%
D13*
%TO.P,F308,1,1*%
%TO.N,Cell 3*%
X97976059Y-100550732D03*
%TO.P,F308,2,2*%
%TO.N,Net-(F308-Pad2)*%
X99551059Y-100550732D03*
%TD*%
D14*
%TO.P,TP502,TP*%
%TO.N,TSREF*%
X162389472Y-72626439D03*
%TD*%
D15*
%TO.P,R705,1*%
%TO.N,Net-(FL701-N1-)*%
X192605440Y-112583972D03*
%TO.P,R705,2*%
%TO.N,Net-(FL701-N1+)*%
X192605440Y-114158772D03*
%TD*%
D16*
%TO.P,U201,1,1*%
%TO.N,Net-(C201-Pad2)*%
X157232429Y-82243727D03*
%TO.P,U201,2,2*%
X157232429Y-82743853D03*
%TO.P,U201,3,3*%
X157232429Y-83243979D03*
%TO.P,U201,4,4*%
X157232429Y-83744105D03*
%TO.P,U201,5,5*%
X157232429Y-84244231D03*
%TO.P,U201,6,6*%
%TO.N,CB14*%
X157232429Y-84744357D03*
%TO.P,U201,7,7*%
%TO.N,VC14*%
X157232429Y-85244483D03*
%TO.P,U201,8,8*%
%TO.N,CB13*%
X157232429Y-85744609D03*
%TO.P,U201,9,9*%
%TO.N,VC13*%
X157232429Y-86244735D03*
%TO.P,U201,10,10*%
%TO.N,CB12*%
X157232429Y-86744861D03*
%TO.P,U201,11,11*%
%TO.N,VC12*%
X157232429Y-87244987D03*
%TO.P,U201,12,12*%
%TO.N,CB11*%
X157232429Y-87745113D03*
%TO.P,U201,13,13*%
%TO.N,VC11*%
X157232429Y-88245239D03*
%TO.P,U201,14,14*%
%TO.N,CB10*%
X157232429Y-88745365D03*
%TO.P,U201,15,15*%
%TO.N,VC10*%
X157232429Y-89245491D03*
%TO.P,U201,16,16*%
%TO.N,CB9*%
X157232429Y-89745617D03*
D17*
%TO.P,U201,17,17*%
%TO.N,VC9*%
X159158384Y-91671572D03*
%TO.P,U201,18,18*%
%TO.N,CB8*%
X159658510Y-91671572D03*
%TO.P,U201,19,19*%
%TO.N,VC8*%
X160158636Y-91671572D03*
%TO.P,U201,20,20*%
%TO.N,CB7*%
X160658762Y-91671572D03*
%TO.P,U201,21,21*%
%TO.N,VC7*%
X161158888Y-91671572D03*
%TO.P,U201,22,22*%
%TO.N,CB6*%
X161659014Y-91671572D03*
%TO.P,U201,23,23*%
%TO.N,VC6*%
X162159140Y-91671572D03*
%TO.P,U201,24,24*%
%TO.N,CB5*%
X162659266Y-91671572D03*
%TO.P,U201,25,25*%
%TO.N,VC5*%
X163159392Y-91671572D03*
%TO.P,U201,26,26*%
%TO.N,CB4*%
X163659518Y-91671572D03*
%TO.P,U201,27,27*%
%TO.N,VC4*%
X164159644Y-91671572D03*
%TO.P,U201,28,28*%
%TO.N,CB3*%
X164659770Y-91671572D03*
%TO.P,U201,29,29*%
%TO.N,VC3*%
X165159896Y-91671572D03*
%TO.P,U201,30,30*%
%TO.N,CB2*%
X165660022Y-91671572D03*
%TO.P,U201,31,31*%
%TO.N,VC2*%
X166160148Y-91671572D03*
%TO.P,U201,32,32*%
%TO.N,CB1*%
X166660274Y-91671572D03*
D16*
%TO.P,U201,33,33*%
%TO.N,VC1*%
X168586229Y-89745617D03*
%TO.P,U201,34,34*%
%TO.N,CB0*%
X168586229Y-89245491D03*
%TO.P,U201,35,35*%
%TO.N,VC0*%
X168586229Y-88745365D03*
%TO.P,U201,36,36*%
%TO.N,AVSS*%
X168586229Y-88245239D03*
%TO.P,U201,37,37*%
%TO.N,REFHP*%
X168586229Y-87745113D03*
%TO.P,U201,38,38*%
%TO.N,AVDD*%
X168586229Y-87244987D03*
%TO.P,U201,39,39*%
%TO.N,AVSS*%
X168586229Y-86744861D03*
%TO.P,U201,40,40*%
%TO.N,COMLP*%
X168586229Y-86244735D03*
%TO.P,U201,41,41*%
%TO.N,COMLN*%
X168586229Y-85744609D03*
%TO.P,U201,42,42*%
%TO.N,COMHN*%
X168586229Y-85244483D03*
%TO.P,U201,43,43*%
%TO.N,COMHP*%
X168586229Y-84744357D03*
%TO.P,U201,44,44*%
%TO.N,NEG5V*%
X168586229Y-84244231D03*
%TO.P,U201,45,45*%
%TO.N,CVDD*%
X168586229Y-83744105D03*
%TO.P,U201,46,46*%
%TO.N,AVSS*%
X168586229Y-83243979D03*
%TO.P,U201,47,47*%
%TO.N,LDOIN*%
X168586229Y-82743853D03*
%TO.P,U201,48,48*%
%TO.N,NPNB*%
X168586229Y-82243727D03*
D17*
%TO.P,U201,49,49*%
%TO.N,DVDD*%
X166660274Y-80317772D03*
%TO.P,U201,50,50*%
%TO.N,AVSS*%
X166160148Y-80317772D03*
%TO.P,U201,51,51*%
%TO.N,TSREF*%
X165660022Y-80317772D03*
%TO.P,U201,52,52*%
%TO.N,CVDD*%
X165159896Y-80317772D03*
%TO.P,U201,53,53*%
%TO.N,unconnected-(U201-Pad53)*%
X164659770Y-80317772D03*
%TO.P,U201,54,54*%
%TO.N,unconnected-(U201-Pad54)*%
X164159644Y-80317772D03*
%TO.P,U201,55,55*%
%TO.N,unconnected-(U201-Pad55)*%
X163659518Y-80317772D03*
%TO.P,U201,56,56*%
%TO.N,unconnected-(U201-Pad56)*%
X163159392Y-80317772D03*
%TO.P,U201,57,57*%
%TO.N,unconnected-(U201-Pad57)*%
X162659266Y-80317772D03*
%TO.P,U201,58,58*%
%TO.N,unconnected-(U201-Pad58)*%
X162159140Y-80317772D03*
%TO.P,U201,59,59*%
%TO.N,unconnected-(U201-Pad59)*%
X161659014Y-80317772D03*
%TO.P,U201,60,60*%
%TO.N,unconnected-(U201-Pad60)*%
X161158888Y-80317772D03*
%TO.P,U201,61,61*%
%TO.N,unconnected-(U201-Pad61)*%
X160658762Y-80317772D03*
%TO.P,U201,62,62*%
%TO.N,NFAULT*%
X160158636Y-80317772D03*
%TO.P,U201,63,63*%
%TO.N,unconnected-(U201-Pad63)*%
X159658510Y-80317772D03*
%TO.P,U201,64,64*%
%TO.N,unconnected-(U201-Pad64)*%
X159158384Y-80317772D03*
D18*
%TO.P,U201,EPAD,EPAD*%
%TO.N,AVSS*%
X162909329Y-85994672D03*
%TD*%
D14*
%TO.P,TP306,TP*%
%TO.N,Net-(F316-Pad2)*%
X113640259Y-95970732D03*
%TD*%
D19*
%TO.P,R712,1*%
%TO.N,COMHN*%
X198180732Y-81114593D03*
%TO.P,R712,2*%
%TO.N,COMHP*%
X196828334Y-81114593D03*
%TD*%
D20*
%TO.P,R309,1*%
%TO.N,Net-(F321-Pad2)*%
X130839232Y-116362500D03*
%TO.P,R309,2*%
%TO.N,CB2*%
X130839232Y-120637500D03*
%TD*%
D21*
%TO.P,R707,1*%
%TO.N,COMLP*%
X195052328Y-92494905D03*
%TO.P,R707,2*%
%TO.N,Net-(D701-Pad2)*%
X195052328Y-93847303D03*
%TD*%
D22*
%TO.P,FL702,1,N1+*%
%TO.N,Net-(FL702-N1+)*%
X198271715Y-55379388D03*
%TO.P,FL702,2,N2+*%
%TO.N,Net-(FL702-N2+)*%
X197001715Y-55379388D03*
%TO.P,FL702,3,N2-*%
%TO.N,Net-(FL702-N2-)*%
X197001715Y-59929388D03*
%TO.P,FL702,4,N1-*%
%TO.N,Net-(FL702-N1-)*%
X198271715Y-59929388D03*
%TD*%
D14*
%TO.P,TP312,TP*%
%TO.N,Net-(F328-Pad2)*%
X113640259Y-60410732D03*
%TD*%
D20*
%TO.P,R305,1*%
%TO.N,Net-(F316-Pad2)*%
X130500000Y-96112500D03*
%TO.P,R305,2*%
%TO.N,CB6*%
X130500000Y-100387500D03*
%TD*%
D23*
%TO.P,R719,1*%
%TO.N,COMMH_P_OPT+*%
X194899468Y-72090122D03*
%TO.P,R719,2*%
%TO.N,Net-(D702-Pad1)*%
X194899468Y-73436322D03*
%TD*%
D13*
%TO.P,F301,1,1*%
%TO.N,Cell 10*%
X97919359Y-82739146D03*
%TO.P,F301,2,2*%
%TO.N,Net-(F301-Pad2)*%
X99494359Y-82739146D03*
%TD*%
D15*
%TO.P,R716,1*%
%TO.N,Net-(FL702-N2-)*%
X192383946Y-58317957D03*
%TO.P,R716,2*%
%TO.N,Net-(FL702-N2+)*%
X192383946Y-56743157D03*
%TD*%
D24*
%TO.P,F321,1*%
%TO.N,Net-(F309-Pad2)*%
X104113559Y-103111715D03*
%TO.P,F321,2*%
%TO.N,Net-(F321-Pad2)*%
X105663559Y-103111715D03*
%TD*%
D14*
%TO.P,TP304,TP*%
%TO.N,Net-(F314-Pad2)*%
X113640259Y-85810732D03*
%TD*%
%TO.P,TP501,TP*%
%TO.N,DVDD*%
X174750000Y-65000000D03*
%TD*%
%TO.P,TP509,TP*%
%TO.N,NPNB*%
X168789472Y-67826439D03*
%TD*%
D21*
%TO.P,R201,1*%
%TO.N,Net-(C201-Pad2)*%
X158078886Y-79783300D03*
%TO.P,R201,2*%
%TO.N,BAT*%
X158078886Y-78430902D03*
%TD*%
D25*
%TO.P,C328,1*%
%TO.N,VC12*%
X153265915Y-87578788D03*
%TO.P,C328,2*%
%TO.N,VC13*%
X153265915Y-86334188D03*
%TD*%
D26*
%TO.P,C703,1*%
%TO.N,AVSS*%
X200132328Y-89824357D03*
%TO.P,C703,2*%
%TO.N,COMLN*%
X200132328Y-91276757D03*
%TD*%
D13*
%TO.P,F310,1,1*%
%TO.N,Cell 1*%
X97976059Y-105630732D03*
%TO.P,F310,2,2*%
%TO.N,Net-(F310-Pad2)*%
X99551059Y-105630732D03*
%TD*%
D27*
%TO.P,C319,1*%
%TO.N,VC2*%
X167870617Y-94485994D03*
%TO.P,C319,2*%
%TO.N,VC3*%
X166626017Y-94485994D03*
%TD*%
D24*
%TO.P,F317,1*%
%TO.N,Net-(F310-Pad2)*%
X104113559Y-105678193D03*
%TO.P,F317,2*%
%TO.N,Net-(F317-Pad2)*%
X105663559Y-105678193D03*
%TD*%
D27*
%TO.P,C313,1*%
%TO.N,VC8*%
X158047849Y-94429745D03*
%TO.P,C313,2*%
%TO.N,VC9*%
X156803249Y-94429745D03*
%TD*%
D28*
%TO.P,Q601,1,B*%
%TO.N,NPNB*%
X163549000Y-59786000D03*
D29*
%TO.P,Q601,2,C*%
%TO.N,Net-(Q601-C)*%
X157000000Y-57500000D03*
D28*
%TO.P,Q601,3,E*%
%TO.N,LDOIN*%
X163549000Y-55214000D03*
%TD*%
D15*
%TO.P,R721,1*%
%TO.N,Net-(FL702-N1+)*%
X200132328Y-52117556D03*
%TO.P,R721,2*%
%TO.N,ISO_COMMH_N*%
X200132328Y-50542756D03*
%TD*%
D14*
%TO.P,TP506,TP*%
%TO.N,NEG5V*%
X184389472Y-78926439D03*
%TD*%
D21*
%TO.P,R718,1*%
%TO.N,COMHN*%
X199982706Y-78551909D03*
%TO.P,R718,2*%
%TO.N,Net-(D702-Pad2)*%
X199982706Y-77199511D03*
%TD*%
D25*
%TO.P,C322,1*%
%TO.N,AVSS*%
X173989472Y-88904139D03*
%TO.P,C322,2*%
%TO.N,VC0*%
X173989472Y-90148739D03*
%TD*%
D30*
%TO.P,C201,1*%
%TO.N,AVSS*%
X156639472Y-78356439D03*
%TO.P,C201,2*%
%TO.N,Net-(C201-Pad2)*%
X156639472Y-79896439D03*
%TD*%
D27*
%TO.P,C316,1*%
%TO.N,VC5*%
X162498789Y-95818424D03*
%TO.P,C316,2*%
%TO.N,VC6*%
X161254189Y-95818424D03*
%TD*%
D14*
%TO.P,TP314,TP*%
%TO.N,Net-(F330-Pad2)*%
X113640259Y-70570732D03*
%TD*%
%TO.P,TP303,TP*%
%TO.N,Net-(F313-Pad2)*%
X113640259Y-80730732D03*
%TD*%
D24*
%TO.P,F327,1*%
%TO.N,Net-(F323-Pad2)*%
X103825893Y-72610732D03*
%TO.P,F327,2*%
%TO.N,Net-(BAT_POSITIVE301-PadTP)*%
X105375893Y-72610732D03*
%TD*%
%TO.P,F319,1*%
%TO.N,Net-(F307-Pad2)*%
X104080472Y-98010732D03*
%TO.P,F319,2*%
%TO.N,Net-(F319-Pad2)*%
X105630472Y-98010732D03*
%TD*%
D31*
%TO.P,J702,1,1*%
%TO.N,ISO_COMMH_P*%
X197592328Y-42403162D03*
D32*
%TO.P,J702,2,2*%
%TO.N,ISO_COMMH_N*%
X197592328Y-45403161D03*
%TD*%
D15*
%TO.P,R715,1*%
%TO.N,Net-(FL702-N1-)*%
X202543946Y-58317957D03*
%TO.P,R715,2*%
%TO.N,Net-(FL702-N1+)*%
X202543946Y-56743157D03*
%TD*%
D25*
%TO.P,C329,1*%
%TO.N,VC11*%
X151765915Y-89126141D03*
%TO.P,C329,2*%
%TO.N,VC12*%
X151765915Y-87881541D03*
%TD*%
D24*
%TO.P,F328,1*%
%TO.N,Net-(F324-Pad2)*%
X103832843Y-75144045D03*
%TO.P,F328,2*%
%TO.N,Net-(F328-Pad2)*%
X105382843Y-75144045D03*
%TD*%
D33*
%TO.P,C208,1*%
%TO.N,AVSS*%
X172108572Y-81326439D03*
%TO.P,C208,2*%
%TO.N,LDOIN*%
X171270372Y-81326439D03*
%TD*%
D14*
%TO.P,TP308,TP*%
%TO.N,Net-(F319-Pad2)*%
X113640259Y-106130732D03*
%TD*%
D15*
%TO.P,R714,1*%
%TO.N,COMMH_P_OPT+*%
X194907627Y-70861282D03*
%TO.P,R714,2*%
%TO.N,Net-(C708-Pad2)*%
X194907627Y-69286482D03*
%TD*%
D26*
%TO.P,C706,1*%
%TO.N,AVSS*%
X194918733Y-80861036D03*
%TO.P,C706,2*%
%TO.N,COMHP*%
X194918733Y-79408636D03*
%TD*%
D34*
%TO.P,C702,1*%
%TO.N,Net-(FL701-N2-)*%
X200058341Y-107289132D03*
%TO.P,C702,2*%
%TO.N,Net-(C702-Pad2)*%
X200058341Y-104319132D03*
%TD*%
D23*
%TO.P,R703,1*%
%TO.N,COMML_N_OPT-*%
X200015344Y-98888469D03*
%TO.P,R703,2*%
%TO.N,Net-(D701-Pad1)*%
X200015344Y-97542269D03*
%TD*%
D14*
%TO.P,TP505,TP*%
%TO.N,AVDD*%
X179689472Y-96326439D03*
%TD*%
D13*
%TO.P,F325,1,1*%
%TO.N,Cell 12*%
X97976059Y-77690732D03*
%TO.P,F325,2,2*%
%TO.N,Net-(F325-Pad2)*%
X99551059Y-77690732D03*
%TD*%
D34*
%TO.P,C701,1*%
%TO.N,Net-(FL701-N1-)*%
X194912547Y-107310890D03*
%TO.P,C701,2*%
%TO.N,Net-(C701-Pad2)*%
X194912547Y-104340890D03*
%TD*%
D20*
%TO.P,R323,1*%
%TO.N,Net-(BAT_POSITIVE301-PadTP)*%
X130650000Y-54362500D03*
%TO.P,R323,2*%
%TO.N,CB14*%
X130650000Y-58637500D03*
%TD*%
D14*
%TO.P,BAT_POSITIVE301,TP*%
%TO.N,Net-(BAT_POSITIVE301-PadTP)*%
X113640259Y-55330732D03*
%TD*%
D20*
%TO.P,R301,1*%
%TO.N,Net-(F312-Pad2)*%
X130780694Y-75862500D03*
%TO.P,R301,2*%
%TO.N,CB10*%
X130780694Y-80137500D03*
%TD*%
D35*
%TO.P,J401,1,1*%
%TO.N,AVSS*%
X79812428Y-108644354D03*
%TO.P,J401,2,2*%
%TO.N,BAT*%
X79812428Y-104504355D03*
%TO.P,J401,3,3*%
%TO.N,AVSS*%
X79812428Y-100364356D03*
%TO.P,J401,4,4*%
%TO.N,Cell 0S*%
X79812428Y-96224357D03*
%TO.P,J401,5,5*%
%TO.N,Cell 1*%
X79812428Y-92084357D03*
%TO.P,J401,6,6*%
%TO.N,Cell 2*%
X79812428Y-87944358D03*
%TO.P,J401,7,7*%
%TO.N,Cell 3*%
X79812428Y-83804359D03*
%TO.P,J401,8,8*%
%TO.N,Cell 4*%
X79812428Y-79664359D03*
%TO.P,J401,9,9*%
%TO.N,Cell 5*%
X79812428Y-75524360D03*
%TO.P,J401,10,10*%
%TO.N,Cell 6*%
X79812428Y-71384361D03*
%TO.P,J401,11,11*%
%TO.N,Cell 7*%
X75672430Y-108644354D03*
%TO.P,J401,12,12*%
%TO.N,Cell 8*%
X75672430Y-104504355D03*
%TO.P,J401,13,13*%
%TO.N,Cell 9*%
X75672430Y-100364356D03*
%TO.P,J401,14,14*%
%TO.N,Cell 10*%
X75672430Y-96224357D03*
%TO.P,J401,15,15*%
%TO.N,Cell 11*%
X75672430Y-92084357D03*
%TO.P,J401,16,16*%
%TO.N,Cell 12*%
X75672430Y-87944358D03*
%TO.P,J401,17,17*%
%TO.N,Cell 13*%
X75672430Y-83804359D03*
%TO.P,J401,18,18*%
%TO.N,Cell 14S*%
X75672430Y-79664359D03*
%TO.P,J401,19,19*%
%TO.N,BAT*%
X75672430Y-75524360D03*
%TO.P,J401,20,20*%
%TO.N,AVSS*%
X75672430Y-71384361D03*
%TD*%
D23*
%TO.P,R704,1*%
%TO.N,COMML_P_OPT+*%
X194923946Y-98790557D03*
%TO.P,R704,2*%
%TO.N,Net-(D701-Pad2)*%
X194923946Y-97444357D03*
%TD*%
D20*
%TO.P,R307,1*%
%TO.N,Net-(F319-Pad2)*%
X130780694Y-106362500D03*
%TO.P,R307,2*%
%TO.N,CB4*%
X130780694Y-110637500D03*
%TD*%
D25*
%TO.P,C320,1*%
%TO.N,VC1*%
X172389472Y-93504139D03*
%TO.P,C320,2*%
%TO.N,VC2*%
X172389472Y-94748739D03*
%TD*%
D36*
%TO.P,C207,1*%
%TO.N,AVSS*%
X167689472Y-78800240D03*
%TO.P,C207,2*%
%TO.N,DVDD*%
X167689472Y-80052638D03*
%TD*%
D15*
%TO.P,R722,1*%
%TO.N,Net-(FL702-N2+)*%
X195052328Y-52092998D03*
%TO.P,R722,2*%
%TO.N,ISO_COMMH_P*%
X195052328Y-50518198D03*
%TD*%
D14*
%TO.P,TP508,TP*%
%TO.N,NFAULT*%
X166389472Y-72626439D03*
%TD*%
D15*
%TO.P,R702,1*%
%TO.N,Net-(FL701-N2+)*%
X200132328Y-118335356D03*
%TO.P,R702,2*%
%TO.N,ISO_COMML_N*%
X200132328Y-119910156D03*
%TD*%
D34*
%TO.P,C707,1*%
%TO.N,Net-(FL702-N1-)*%
X199976488Y-63870186D03*
%TO.P,C707,2*%
%TO.N,Net-(C707-Pad2)*%
X199976488Y-66840186D03*
%TD*%
D27*
%TO.P,C315,1*%
%TO.N,VC6*%
X161646484Y-94508899D03*
%TO.P,C315,2*%
%TO.N,VC7*%
X160401884Y-94508899D03*
%TD*%
D14*
%TO.P,TP302,TP*%
%TO.N,Net-(F312-Pad2)*%
X113640259Y-75650732D03*
%TD*%
D15*
%TO.P,R701,1*%
%TO.N,Net-(FL701-N1+)*%
X195052328Y-118335356D03*
%TO.P,R701,2*%
%TO.N,ISO_COMML_P*%
X195052328Y-119910156D03*
%TD*%
D20*
%TO.P,R306,1*%
%TO.N,Net-(F318-Pad2)*%
X126000000Y-101062500D03*
%TO.P,R306,2*%
%TO.N,CB5*%
X126000000Y-105337500D03*
%TD*%
D37*
%TO.P,C206,1*%
%TO.N,AVSS*%
X173068972Y-78326439D03*
%TO.P,C206,2*%
%TO.N,CVDD*%
X170909972Y-78326439D03*
%TD*%
D13*
%TO.P,F309,1,1*%
%TO.N,Cell 2*%
X97976059Y-103090732D03*
%TO.P,F309,2,2*%
%TO.N,Net-(F309-Pad2)*%
X99551059Y-103090732D03*
%TD*%
D24*
%TO.P,F320,1*%
%TO.N,Net-(F308-Pad2)*%
X104113559Y-100550732D03*
%TO.P,F320,2*%
%TO.N,Net-(F320-Pad2)*%
X105663559Y-100550732D03*
%TD*%
D38*
%TO.P,D701,1,1*%
%TO.N,Net-(D701-Pad1)*%
X198350000Y-93962500D03*
%TO.P,D701,2,2*%
%TO.N,Net-(D701-Pad2)*%
X196450000Y-93962500D03*
%TO.P,D701,3,3*%
%TO.N,AVSS*%
X197400000Y-95837500D03*
%TD*%
D14*
%TO.P,TP313,TP*%
%TO.N,Net-(F329-Pad2)*%
X113640259Y-65490732D03*
%TD*%
D39*
%TO.P,D702,1,1*%
%TO.N,Net-(D702-Pad1)*%
X196550000Y-77137500D03*
%TO.P,D702,2,2*%
%TO.N,Net-(D702-Pad2)*%
X198450000Y-77137500D03*
%TO.P,D702,3,3*%
%TO.N,AVSS*%
X197500000Y-75262500D03*
%TD*%
D14*
%TO.P,TP310,TP*%
%TO.N,Net-(F321-Pad2)*%
X113640259Y-116290732D03*
%TD*%
D31*
%TO.P,J701,1,1*%
%TO.N,ISO_COMML_N*%
X197592328Y-127202755D03*
D32*
%TO.P,J701,2,2*%
%TO.N,ISO_COMML_P*%
X197592328Y-124202756D03*
%TD*%
D25*
%TO.P,C327,1*%
%TO.N,VC13*%
X153265915Y-85116888D03*
%TO.P,C327,2*%
%TO.N,VC14*%
X153265915Y-83872288D03*
%TD*%
D13*
%TO.P,F326,1,1*%
%TO.N,Cell 11*%
X97976059Y-80230732D03*
%TO.P,F326,2,2*%
%TO.N,Net-(F326-Pad2)*%
X99551059Y-80230732D03*
%TD*%
D20*
%TO.P,R308,1*%
%TO.N,Net-(F320-Pad2)*%
X126300000Y-111212500D03*
%TO.P,R308,2*%
%TO.N,CB3*%
X126300000Y-115487500D03*
%TD*%
D14*
%TO.P,TP311,TP*%
%TO.N,Net-(F317-Pad2)*%
X113640259Y-121370732D03*
%TD*%
%TO.P,TP507,TP*%
%TO.N,REFHP*%
X179789472Y-91926439D03*
%TD*%
D13*
%TO.P,F302,1,1*%
%TO.N,Cell 9*%
X97929887Y-85310732D03*
%TO.P,F302,2,2*%
%TO.N,Net-(F302-Pad2)*%
X99504887Y-85310732D03*
%TD*%
D15*
%TO.P,R709,1*%
%TO.N,COMML_P_OPT+*%
X194945704Y-100259959D03*
%TO.P,R709,2*%
%TO.N,Net-(C701-Pad2)*%
X194945704Y-101834759D03*
%TD*%
D13*
%TO.P,F311,1,1*%
%TO.N,Cell 0S*%
X97925000Y-110750000D03*
%TO.P,F311,2,2*%
%TO.N,Net-(F311-Pad2)*%
X99500000Y-110750000D03*
%TD*%
D27*
%TO.P,C318,1*%
%TO.N,VC3*%
X166184941Y-95881706D03*
%TO.P,C318,2*%
%TO.N,VC4*%
X164940341Y-95881706D03*
%TD*%
D24*
%TO.P,F329,1*%
%TO.N,Net-(F325-Pad2)*%
X103843977Y-77684941D03*
%TO.P,F329,2*%
%TO.N,Net-(F329-Pad2)*%
X105393977Y-77684941D03*
%TD*%
D20*
%TO.P,R310,1*%
%TO.N,Net-(F317-Pad2)*%
X126000000Y-121362500D03*
%TO.P,R310,2*%
%TO.N,CB1*%
X126000000Y-125637500D03*
%TD*%
D24*
%TO.P,F313,1*%
%TO.N,Net-(F302-Pad2)*%
X103990801Y-85310732D03*
%TO.P,F313,2*%
%TO.N,Net-(F313-Pad2)*%
X105540801Y-85310732D03*
%TD*%
D34*
%TO.P,C708,1*%
%TO.N,Net-(FL702-N2-)*%
X194912547Y-63863831D03*
%TO.P,C708,2*%
%TO.N,Net-(C708-Pad2)*%
X194912547Y-66833831D03*
%TD*%
D20*
%TO.P,R324,1*%
%TO.N,Net-(F328-Pad2)*%
X126350000Y-60412500D03*
%TO.P,R324,2*%
%TO.N,CB13*%
X126350000Y-64687500D03*
%TD*%
D26*
%TO.P,C705,1*%
%TO.N,AVSS*%
X200009385Y-80889161D03*
%TO.P,C705,2*%
%TO.N,COMHN*%
X200009385Y-79436761D03*
%TD*%
D24*
%TO.P,F315,1*%
%TO.N,Net-(F304-Pad2)*%
X103986902Y-90406561D03*
%TO.P,F315,2*%
%TO.N,Net-(F315-Pad2)*%
X105536902Y-90406561D03*
%TD*%
D14*
%TO.P,TP504,TP*%
%TO.N,LDOIN*%
X178989472Y-78826439D03*
%TD*%
%TO.P,TP301,TP*%
%TO.N,Net-(F322-Pad2)*%
X113640259Y-126450732D03*
%TD*%
D13*
%TO.P,F306,1,1*%
%TO.N,Cell 5*%
X97976059Y-95470732D03*
%TO.P,F306,2,2*%
%TO.N,Net-(F306-Pad2)*%
X99551059Y-95470732D03*
%TD*%
D20*
%TO.P,R325,1*%
%TO.N,Net-(F329-Pad2)*%
X130950000Y-65462500D03*
%TO.P,R325,2*%
%TO.N,CB12*%
X130950000Y-69737500D03*
%TD*%
D15*
%TO.P,R713,1*%
%TO.N,COMMH_N_OPT-*%
X199977357Y-70911873D03*
%TO.P,R713,2*%
%TO.N,Net-(C707-Pad2)*%
X199977357Y-69337073D03*
%TD*%
D24*
%TO.P,F318,1*%
%TO.N,Net-(F306-Pad2)*%
X104061206Y-95470732D03*
%TO.P,F318,2*%
%TO.N,Net-(F318-Pad2)*%
X105611206Y-95470732D03*
%TD*%
D14*
%TO.P,TP309,TP*%
%TO.N,Net-(F320-Pad2)*%
X113640259Y-111210732D03*
%TD*%
D26*
%TO.P,C704,1*%
%TO.N,AVSS*%
X195052328Y-89909604D03*
%TO.P,C704,2*%
%TO.N,COMLP*%
X195052328Y-91362004D03*
%TD*%
D20*
%TO.P,R302,1*%
%TO.N,Net-(F313-Pad2)*%
X125950000Y-80862500D03*
%TO.P,R302,2*%
%TO.N,CB9*%
X125950000Y-85137500D03*
%TD*%
D13*
%TO.P,F323,1,1*%
%TO.N,Cell 14S*%
X97976059Y-72610732D03*
%TO.P,F323,2,2*%
%TO.N,Net-(F323-Pad2)*%
X99551059Y-72610732D03*
%TD*%
D24*
%TO.P,F330,1*%
%TO.N,Net-(F326-Pad2)*%
X103923901Y-80230732D03*
%TO.P,F330,2*%
%TO.N,Net-(F330-Pad2)*%
X105473901Y-80230732D03*
%TD*%
D27*
%TO.P,C317,1*%
%TO.N,VC4*%
X164710195Y-94455619D03*
%TO.P,C317,2*%
%TO.N,VC5*%
X163465595Y-94455619D03*
%TD*%
D40*
%TO.P,R311,1*%
%TO.N,CB0*%
X130500000Y-131137500D03*
%TO.P,R311,2*%
%TO.N,Net-(F322-Pad2)*%
X130500000Y-126862500D03*
%TD*%
D15*
%TO.P,R710,1*%
%TO.N,COMML_N_OPT-*%
X200060268Y-100259959D03*
%TO.P,R710,2*%
%TO.N,Net-(C702-Pad2)*%
X200060268Y-101834759D03*
%TD*%
D13*
%TO.P,F324,1,1*%
%TO.N,Cell 13*%
X97976059Y-75150732D03*
%TO.P,F324,2,2*%
%TO.N,Net-(F324-Pad2)*%
X99551059Y-75150732D03*
%TD*%
D23*
%TO.P,R720,1*%
%TO.N,COMMH_N_OPT-*%
X199993066Y-72091757D03*
%TO.P,R720,2*%
%TO.N,Net-(D702-Pad2)*%
X199993066Y-73437957D03*
%TD*%
D41*
%TO.P,C601,1*%
%TO.N,Net-(Q601-C)*%
X160358400Y-63000000D03*
%TO.P,C601,2*%
%TO.N,AVSS*%
X163000000Y-63000000D03*
%TD*%
D13*
%TO.P,F303,1,1*%
%TO.N,Cell 8*%
X97976059Y-87844187D03*
%TO.P,F303,2,2*%
%TO.N,Net-(F303-Pad2)*%
X99551059Y-87844187D03*
%TD*%
D25*
%TO.P,C330,1*%
%TO.N,VC10*%
X153265915Y-90126141D03*
%TO.P,C330,2*%
%TO.N,VC11*%
X153265915Y-88881541D03*
%TD*%
D13*
%TO.P,F307,1,1*%
%TO.N,Cell 4*%
X97976059Y-98010732D03*
%TO.P,F307,2,2*%
%TO.N,Net-(F307-Pad2)*%
X99551059Y-98010732D03*
%TD*%
D14*
%TO.P,TP305,TP*%
%TO.N,Net-(F315-Pad2)*%
X113640259Y-90890732D03*
%TD*%
D25*
%TO.P,C312,1*%
%TO.N,VC9*%
X153272109Y-92649155D03*
%TO.P,C312,2*%
%TO.N,VC10*%
X153272109Y-91404555D03*
%TD*%
D14*
%TO.P,TP307,TP*%
%TO.N,Net-(F318-Pad2)*%
X113640259Y-101050732D03*
%TD*%
D24*
%TO.P,F312,1*%
%TO.N,Net-(F301-Pad2)*%
X103944787Y-82770732D03*
%TO.P,F312,2*%
%TO.N,Net-(F312-Pad2)*%
X105494787Y-82770732D03*
%TD*%
%TO.P,F314,1*%
%TO.N,Net-(F303-Pad2)*%
X104004402Y-87850732D03*
%TO.P,F314,2*%
%TO.N,Net-(F314-Pad2)*%
X105554402Y-87850732D03*
%TD*%
D13*
%TO.P,F305,1,1*%
%TO.N,Cell 6*%
X97976059Y-92915798D03*
%TO.P,F305,2,2*%
%TO.N,Net-(F305-Pad2)*%
X99551059Y-92915798D03*
%TD*%
D22*
%TO.P,FL701,1,N1+*%
%TO.N,Net-(FL701-N1+)*%
X196793070Y-115496188D03*
%TO.P,FL701,2,N2+*%
%TO.N,Net-(FL701-N2+)*%
X198063070Y-115496188D03*
%TO.P,FL701,3,N2-*%
%TO.N,Net-(FL701-N2-)*%
X198063070Y-110946188D03*
%TO.P,FL701,4,N1-*%
%TO.N,Net-(FL701-N1-)*%
X196793070Y-110946188D03*
%TD*%
D19*
%TO.P,R711,1*%
%TO.N,COMLN*%
X198178481Y-89819176D03*
%TO.P,R711,2*%
%TO.N,COMLP*%
X196826083Y-89819176D03*
%TD*%
D15*
%TO.P,R706,1*%
%TO.N,Net-(FL701-N2-)*%
X202543946Y-112684357D03*
%TO.P,R706,2*%
%TO.N,Net-(FL701-N2+)*%
X202543946Y-114259157D03*
%TD*%
D20*
%TO.P,R304,1*%
%TO.N,Net-(F315-Pad2)*%
X125800000Y-90912500D03*
%TO.P,R304,2*%
%TO.N,CB7*%
X125800000Y-95187500D03*
%TD*%
D27*
%TO.P,C314,1*%
%TO.N,VC7*%
X159539172Y-95838586D03*
%TO.P,C314,2*%
%TO.N,VC8*%
X158294572Y-95838586D03*
%TD*%
D14*
%TO.P,TP503,TP*%
%TO.N,CVDD*%
X174389472Y-74126439D03*
%TD*%
D20*
%TO.P,R303,1*%
%TO.N,Net-(F314-Pad2)*%
X130780694Y-85862500D03*
%TO.P,R303,2*%
%TO.N,CB8*%
X130780694Y-90137500D03*
%TD*%
D21*
%TO.P,R708,1*%
%TO.N,COMLN*%
X200132328Y-92409658D03*
%TO.P,R708,2*%
%TO.N,Net-(D701-Pad1)*%
X200132328Y-93762056D03*
%TD*%
D24*
%TO.P,F316,1*%
%TO.N,Net-(F305-Pad2)*%
X104021997Y-92930732D03*
%TO.P,F316,2*%
%TO.N,Net-(F316-Pad2)*%
X105571997Y-92930732D03*
%TD*%
D20*
%TO.P,R326,1*%
%TO.N,Net-(F330-Pad2)*%
X125850000Y-70612500D03*
%TO.P,R326,2*%
%TO.N,CB11*%
X125850000Y-74887500D03*
%TD*%
D25*
%TO.P,C321,1*%
%TO.N,VC0*%
X172389472Y-91004139D03*
%TO.P,C321,2*%
%TO.N,VC1*%
X172389472Y-92248739D03*
%TD*%
D24*
%TO.P,F322,1*%
%TO.N,Net-(F311-Pad2)*%
X104113559Y-110710732D03*
%TO.P,F322,2*%
%TO.N,Net-(F322-Pad2)*%
X105663559Y-110710732D03*
%TD*%
D21*
%TO.P,R717,1*%
%TO.N,COMHP*%
X194923946Y-78526756D03*
%TO.P,R717,2*%
%TO.N,Net-(D702-Pad1)*%
X194923946Y-77174358D03*
%TD*%
D42*
%TO.P,R601,1*%
%TO.N,Net-(R601-Pad1)*%
X158000000Y-68247900D03*
%TO.P,R601,2*%
%TO.N,Net-(Q601-C)*%
X158000000Y-63752100D03*
%TD*%
D13*
%TO.P,F304,1,1*%
%TO.N,Cell 7*%
X97976059Y-90390732D03*
%TO.P,F304,2,2*%
%TO.N,Net-(F304-Pad2)*%
X99551059Y-90390732D03*
%TD*%
D43*
%TO.N,Cell 7*%
X95889472Y-90376439D03*
%TO.N,Cell 9*%
X95889472Y-85126439D03*
%TO.N,Cell 8*%
X95889472Y-87876439D03*
%TO.N,Cell 10*%
X95889472Y-82626439D03*
%TO.N,Cell 11*%
X95889472Y-80126439D03*
%TO.N,Cell 13*%
X95889472Y-75126439D03*
%TO.N,Cell 12*%
X95889472Y-77626439D03*
%TO.N,CB9*%
X133586431Y-82486431D03*
X155100000Y-91100000D03*
%TO.N,CB7*%
X159705428Y-93593072D03*
X133736927Y-93436927D03*
%TO.N,AVSS*%
X178689472Y-82926439D03*
X204889472Y-110626439D03*
X90189472Y-42126439D03*
X188889472Y-89626439D03*
X186089472Y-82926439D03*
X83089472Y-131426439D03*
X175889472Y-85326439D03*
X175289472Y-52626439D03*
X200089472Y-88826439D03*
X174300000Y-87401439D03*
X133389472Y-133500000D03*
X192189472Y-85326439D03*
X90189472Y-62726439D03*
X188889472Y-49626439D03*
X82189472Y-62726439D03*
X204889472Y-36626439D03*
X188889472Y-121626439D03*
X188889472Y-64626439D03*
X188889472Y-113626439D03*
X188889472Y-117626439D03*
X188889472Y-105626439D03*
X183289472Y-87426439D03*
X186389472Y-87426439D03*
X175389472Y-82926439D03*
X82189472Y-42126439D03*
X183289472Y-85326439D03*
X188889472Y-45626439D03*
X188889472Y-72626439D03*
X79089472Y-131426439D03*
X188889472Y-133626439D03*
X87089472Y-131426439D03*
X175289472Y-45626439D03*
X168889472Y-45626439D03*
X184789472Y-85326439D03*
X170900000Y-82900000D03*
X184589472Y-82926439D03*
X93189472Y-42126439D03*
X204889472Y-84626439D03*
X197500000Y-73600000D03*
X175289472Y-41626439D03*
X204889472Y-89626439D03*
X177789472Y-117726439D03*
X173889472Y-82926439D03*
X164100000Y-87600000D03*
X177289472Y-87426439D03*
X188889472Y-52626439D03*
X177789472Y-125726439D03*
X168889472Y-37626439D03*
X79089472Y-118226439D03*
X204889472Y-77626439D03*
X120589472Y-47626439D03*
X193589472Y-85326439D03*
X171489472Y-87426439D03*
X196589472Y-85326439D03*
X187889472Y-87426439D03*
X186289472Y-85326439D03*
X83089472Y-118226439D03*
X177389472Y-85326439D03*
X116589472Y-47626439D03*
X173900000Y-78300000D03*
X124589472Y-47626439D03*
X137389472Y-133500000D03*
X174489472Y-85326439D03*
X78189472Y-62726439D03*
X177789472Y-132726439D03*
X75089472Y-131426439D03*
X180289472Y-87426439D03*
X172389472Y-82926439D03*
X187589472Y-82926439D03*
X131589472Y-47626439D03*
X175289472Y-37626439D03*
X168889472Y-41626439D03*
X204889472Y-130626439D03*
X172989472Y-87426439D03*
X177789472Y-129726439D03*
X163100000Y-78000000D03*
X188889472Y-129626439D03*
X204889472Y-73626439D03*
X168889472Y-49626439D03*
X180189472Y-82926439D03*
X189189472Y-85326439D03*
X188889472Y-37626439D03*
X177189472Y-82926439D03*
X174000000Y-92400000D03*
X128589472Y-47626439D03*
X171489472Y-85326439D03*
X86189472Y-42126439D03*
X78189472Y-42126439D03*
X181789472Y-87426439D03*
X190689472Y-85326439D03*
X204889472Y-93626439D03*
X178789472Y-87426439D03*
X177789472Y-121726439D03*
X140389472Y-133500000D03*
X194889472Y-82026439D03*
X188889472Y-68626439D03*
X188889472Y-109626439D03*
X188889472Y-60626439D03*
X194989472Y-88826439D03*
X167600000Y-77700000D03*
X199989472Y-82026439D03*
X181789472Y-85326439D03*
X195089472Y-85326439D03*
X178889472Y-85326439D03*
X175289472Y-49626439D03*
X155500000Y-78300000D03*
X129389472Y-133500000D03*
X93189472Y-62726439D03*
X188889472Y-41626439D03*
X188889472Y-56626439D03*
X180289472Y-85326439D03*
X90089472Y-118226439D03*
X90089472Y-131426439D03*
X188889472Y-76626439D03*
X87089472Y-118226439D03*
X188889472Y-80626439D03*
X169663204Y-88076201D03*
X168889472Y-52626439D03*
X188889472Y-97626439D03*
X75089472Y-118226439D03*
X187789472Y-85326439D03*
X188889472Y-101626439D03*
X197400000Y-97500000D03*
X172989472Y-85326439D03*
X86189472Y-62726439D03*
X204889472Y-56626439D03*
X188889472Y-125626439D03*
X175300000Y-88900000D03*
X188889472Y-93626439D03*
X171401157Y-89698843D03*
X184789472Y-87426439D03*
X125389472Y-133500000D03*
%TO.N,CB14*%
X155196556Y-84003444D03*
X133570862Y-56869982D03*
%TO.N,CB12*%
X133601985Y-67101985D03*
X154500000Y-86900000D03*
%TO.N,CB6*%
X133902952Y-98539919D03*
X161500000Y-93400000D03*
%TO.N,CB2*%
X165700000Y-90600000D03*
X133683120Y-119157850D03*
%TO.N,CB0*%
X133375286Y-129225776D03*
X167389472Y-89226439D03*
%TO.N,CB11*%
X133677786Y-72377786D03*
X154500000Y-88228788D03*
%TO.N,CB1*%
X169700000Y-93637019D03*
X133900000Y-124054617D03*
%TO.N,CB13*%
X154477317Y-85122683D03*
X133634143Y-61968732D03*
%TO.N,CB10*%
X154509620Y-89590380D03*
X133776907Y-77276907D03*
%TO.N,CB4*%
X134026387Y-107899336D03*
X164115594Y-93434833D03*
%TO.N,CB8*%
X158300000Y-92831101D03*
X133519780Y-87545393D03*
%TO.N,CB5*%
X162809140Y-93400000D03*
X133925678Y-102737105D03*
%TO.N,CB3*%
X133779990Y-113658137D03*
X165415595Y-93467901D03*
%TO.N,CVDD*%
X164589472Y-81439274D03*
X167289472Y-83726439D03*
X170189472Y-79826439D03*
%TO.N,NPNB*%
X169489472Y-81526439D03*
X168989472Y-63326439D03*
%TO.N,TSREF*%
X165589472Y-79126439D03*
%TO.N,NEG5V*%
X167389472Y-84626439D03*
%TO.N,AVDD*%
X171389472Y-88626439D03*
%TO.N,LDOIN*%
X171989472Y-80026439D03*
X162727000Y-56400000D03*
X164327000Y-57200000D03*
X163527000Y-56400000D03*
X164327000Y-56400000D03*
X162727000Y-57200000D03*
X163527000Y-57200000D03*
%TO.N,REFHP*%
X167400000Y-87595239D03*
%TO.N,Cell 14S*%
X95900000Y-72600000D03*
%TD*%
D44*
%TO.N,BAT*%
X158078886Y-76888226D02*
X158078886Y-78430902D01*
X158389472Y-76577640D02*
X158078886Y-76888226D01*
X156664872Y-76577640D02*
X158389472Y-76577640D01*
X155000000Y-74912768D02*
X156664872Y-76577640D01*
X155000000Y-69486967D02*
X155000000Y-74912768D01*
X136639472Y-51126439D02*
X155000000Y-69486967D01*
X108889472Y-51126439D02*
X136639472Y-51126439D01*
X99200000Y-66000000D02*
X99200000Y-60815911D01*
X74773561Y-67226439D02*
X97973561Y-67226439D01*
X73200000Y-73051930D02*
X73200000Y-68800000D01*
X99200000Y-60815911D02*
X108889472Y-51126439D01*
X73200000Y-68800000D02*
X74773561Y-67226439D01*
X75672430Y-75524360D02*
X73200000Y-73051930D01*
X97973561Y-67226439D02*
X99200000Y-66000000D01*
D45*
%TO.N,NPNB*%
X166286000Y-59786000D02*
X163549000Y-59786000D01*
X167000000Y-60500000D02*
X166286000Y-59786000D01*
X167000000Y-61336967D02*
X167000000Y-60500000D01*
X168989472Y-63326439D02*
X167000000Y-61336967D01*
D44*
%TO.N,Net-(R601-Pad1)*%
X158000000Y-70537500D02*
X158000000Y-68247900D01*
D45*
%TO.N,Cell 7*%
X95903765Y-90390732D02*
X95889472Y-90376439D01*
X98043559Y-90390732D02*
X95903765Y-90390732D01*
%TO.N,Cell 9*%
X96073765Y-85310732D02*
X95889472Y-85126439D01*
X97997387Y-85310732D02*
X96073765Y-85310732D01*
%TO.N,Cell 5*%
X98043559Y-95470732D02*
X97483765Y-95470732D01*
X93389472Y-89101404D02*
X79812428Y-75524360D01*
X93389472Y-91376439D02*
X93389472Y-89101404D01*
X97483765Y-95470732D02*
X93389472Y-91376439D01*
%TO.N,Cell 1*%
X93358803Y-105630732D02*
X79812428Y-92084357D01*
X98043559Y-105630732D02*
X93358803Y-105630732D01*
%TO.N,Cell 8*%
X95921724Y-87844187D02*
X95889472Y-87876439D01*
X98043559Y-87844187D02*
X95921724Y-87844187D01*
%TO.N,Cell 10*%
X97986859Y-82739146D02*
X96002179Y-82739146D01*
X96002179Y-82739146D02*
X95889472Y-82626439D01*
%TO.N,Cell 11*%
X98043559Y-80230732D02*
X95993765Y-80230732D01*
X95993765Y-80230732D02*
X95889472Y-80126439D01*
%TO.N,Cell 3*%
X98043559Y-100550732D02*
X96558801Y-100550732D01*
X96558801Y-100550732D02*
X79812428Y-83804359D01*
%TO.N,Cell 6*%
X98043559Y-92915798D02*
X96678831Y-92915798D01*
X96678831Y-92915798D02*
X94889472Y-91126439D01*
X94889472Y-91126439D02*
X94889472Y-86461405D01*
X94889472Y-86461405D02*
X79812428Y-71384361D01*
%TO.N,Cell 13*%
X98043559Y-75150732D02*
X95913765Y-75150732D01*
X95913765Y-75150732D02*
X95889472Y-75126439D01*
%TO.N,Cell 2*%
X98007852Y-103126439D02*
X94994509Y-103126439D01*
X94994509Y-103126439D02*
X79812428Y-87944358D01*
%TO.N,Cell 4*%
X98043559Y-97895490D02*
X79812428Y-79664359D01*
%TO.N,Cell 12*%
X98043559Y-77690732D02*
X95953765Y-77690732D01*
X95953765Y-77690732D02*
X95889472Y-77626439D01*
D46*
%TO.N,CB9*%
X125950000Y-83050000D02*
X125950000Y-85137500D01*
X126513569Y-82486431D02*
X125950000Y-83050000D01*
X133586431Y-82486431D02*
X133586431Y-82486432D01*
X133620812Y-82452051D02*
X133586432Y-82486431D01*
X133586432Y-82486431D02*
X133586431Y-82486431D01*
X133586431Y-82486431D02*
X126513569Y-82486431D01*
X157232429Y-89745617D02*
X155878046Y-91100000D01*
X155878046Y-91100000D02*
X155100000Y-91100000D01*
D45*
%TO.N,VC4*%
X164940341Y-100875570D02*
X159664016Y-106151895D01*
X164940341Y-94685765D02*
X164710195Y-94455619D01*
X164940341Y-95881706D02*
X164940341Y-94685765D01*
D46*
X164765595Y-93165595D02*
X164765595Y-94400219D01*
D45*
X164940341Y-95881706D02*
X164940341Y-100875570D01*
D46*
X164765595Y-94400219D02*
X164710195Y-94455619D01*
X164159644Y-92559644D02*
X164765595Y-93165595D01*
D45*
X159664016Y-106151895D02*
X135282974Y-106151895D01*
D46*
X164159644Y-91671572D02*
X164159644Y-92559644D01*
%TO.N,VC8*%
X158251697Y-94048303D02*
X158251697Y-94429745D01*
X160158636Y-91671572D02*
X160158636Y-92522806D01*
D45*
X144821126Y-95726439D02*
X135052507Y-85957820D01*
D46*
X159356928Y-92943072D02*
X158251697Y-94048303D01*
D45*
X158294572Y-95838586D02*
X158294572Y-94676468D01*
D46*
X160158636Y-92522806D02*
X159738370Y-92943072D01*
X159738370Y-92943072D02*
X159356928Y-92943072D01*
D45*
X158294572Y-94676468D02*
X158047849Y-94429745D01*
X158182425Y-95726439D02*
X144821126Y-95726439D01*
D46*
%TO.N,CB7*%
X160658762Y-92641238D02*
X160658762Y-91671572D01*
X125800000Y-94200000D02*
X125800000Y-95187500D01*
X160031343Y-93267157D02*
X160032843Y-93267157D01*
X133736927Y-93436926D02*
X133736927Y-93436927D01*
X159705428Y-93593072D02*
X160031343Y-93267157D01*
X133751832Y-93422021D02*
X133736927Y-93436926D01*
X133736927Y-93436927D02*
X133736926Y-93436927D01*
X133736927Y-93436927D02*
X126563073Y-93436927D01*
X160032843Y-93267157D02*
X160658762Y-92641238D01*
X126563073Y-93436927D02*
X125800000Y-94200000D01*
D45*
%TO.N,AVSS*%
X200009385Y-82006526D02*
X199989472Y-82026439D01*
X194918733Y-81997178D02*
X194889472Y-82026439D01*
D46*
X168586229Y-86744861D02*
X166855139Y-86744861D01*
X166600000Y-88000000D02*
X166845239Y-88245239D01*
X170300000Y-82900000D02*
X170900000Y-82900000D01*
X169663204Y-88076201D02*
X169494166Y-88245239D01*
X156639472Y-78356439D02*
X155556439Y-78356439D01*
D45*
X194918733Y-80861036D02*
X194918733Y-81997178D01*
D46*
X197400000Y-95837500D02*
X197400000Y-97500000D01*
X167689472Y-78800240D02*
X167689472Y-77789472D01*
X166845239Y-88245239D02*
X168586229Y-88245239D01*
X169956021Y-83243979D02*
X170300000Y-82900000D01*
X155556439Y-78356439D02*
X155500000Y-78300000D01*
D45*
X195052328Y-88889295D02*
X194989472Y-88826439D01*
X195052328Y-89909604D02*
X195052328Y-88889295D01*
X200009385Y-80889161D02*
X200009385Y-82006526D01*
D46*
X197500000Y-75262500D02*
X197500000Y-73600000D01*
X175295861Y-88904139D02*
X175300000Y-88900000D01*
D45*
X200132328Y-88869295D02*
X200089472Y-88826439D01*
D46*
X173873561Y-78326439D02*
X173900000Y-78300000D01*
X166855139Y-86744861D02*
X166600000Y-87000000D01*
X169494166Y-88245239D02*
X168586229Y-88245239D01*
X173989472Y-88904139D02*
X175295861Y-88904139D01*
X173068972Y-78326439D02*
X173873561Y-78326439D01*
X166600000Y-87000000D02*
X166600000Y-88000000D01*
X168586229Y-83243979D02*
X169956021Y-83243979D01*
D45*
X200132328Y-89824357D02*
X200132328Y-88869295D01*
D46*
X167689472Y-77789472D02*
X167600000Y-77700000D01*
%TO.N,VC2*%
X167870617Y-94070617D02*
X167870617Y-94369972D01*
D45*
X160938977Y-116311895D02*
X135282974Y-116311895D01*
D46*
X166160148Y-91671572D02*
X166160148Y-92360148D01*
D45*
X169789472Y-94748739D02*
X168133362Y-94748739D01*
X169789472Y-107461400D02*
X160938977Y-116311895D01*
X169789472Y-94748739D02*
X169789472Y-107461400D01*
X172389472Y-94748739D02*
X169789472Y-94748739D01*
X168133362Y-94748739D02*
X167870617Y-94485994D01*
D46*
X166160148Y-92360148D02*
X167870617Y-94070617D01*
D45*
%TO.N,VC7*%
X159539172Y-96776739D02*
X158789472Y-97526439D01*
D46*
X161158888Y-91671572D02*
X161158888Y-92806798D01*
D45*
X158789472Y-97526439D02*
X141755199Y-97526439D01*
D46*
X160532843Y-93432843D02*
X160532843Y-94365600D01*
X161158888Y-92806798D02*
X160532843Y-93432843D01*
D45*
X159539172Y-95838586D02*
X159539172Y-95371611D01*
X159539172Y-95838586D02*
X159539172Y-96776739D01*
D46*
X160532843Y-94365600D02*
X160539013Y-94371770D01*
D45*
X159539172Y-95371611D02*
X160401884Y-94508899D01*
X141755199Y-97526439D02*
X135153247Y-90924487D01*
D46*
%TO.N,CB14*%
X155196556Y-84003444D02*
X155937469Y-84744357D01*
X133570862Y-57929138D02*
X133570862Y-56869982D01*
X155937469Y-84744357D02*
X157232429Y-84744357D01*
X132862500Y-58637500D02*
X133570862Y-57929138D01*
X130650000Y-58637500D02*
X132862500Y-58637500D01*
%TO.N,VC11*%
X157232429Y-88245239D02*
X155688047Y-88245239D01*
X151765915Y-89126141D02*
X151184915Y-89126141D01*
X153021315Y-89126141D02*
X153265915Y-88881541D01*
X151184915Y-89126141D02*
X135213395Y-73154621D01*
X155051745Y-88881541D02*
X153265915Y-88881541D01*
X135213395Y-73154621D02*
X135213395Y-70591895D01*
X155688047Y-88245239D02*
X155051745Y-88881541D01*
X151765915Y-89126141D02*
X153021315Y-89126141D01*
D45*
%TO.N,VC1*%
X172389472Y-92248739D02*
X172389472Y-93504139D01*
X171089351Y-92248739D02*
X172389472Y-92248739D01*
X173579472Y-93438739D02*
X173579472Y-109037314D01*
X161224891Y-121391895D02*
X135282974Y-121391895D01*
X173579472Y-109037314D02*
X161224891Y-121391895D01*
X168586229Y-89745617D02*
X171089351Y-92248739D01*
X172389472Y-92248739D02*
X173579472Y-93438739D01*
D46*
%TO.N,CB12*%
X154655139Y-86744861D02*
X157232429Y-86744861D01*
X133601985Y-67101985D02*
X132398015Y-67101985D01*
X133623596Y-67080373D02*
X133601985Y-67101984D01*
X154500000Y-86900000D02*
X154655139Y-86744861D01*
X130950000Y-68550000D02*
X130950000Y-69737500D01*
X132398015Y-67101985D02*
X130950000Y-68550000D01*
X133601985Y-67101984D02*
X133601985Y-67101985D01*
%TO.N,Net-(C701-Pad2)*%
X194912547Y-103809289D02*
X194912547Y-104340890D01*
X194945704Y-101834759D02*
X194945704Y-103776132D01*
X194945704Y-103776132D02*
X194912547Y-103809289D01*
%TO.N,VC14*%
X154146161Y-83872288D02*
X153265915Y-83872288D01*
X153265915Y-81563432D02*
X140855839Y-69153356D01*
X140855839Y-69153356D02*
X140855839Y-59969617D01*
X153265915Y-83872288D02*
X153265915Y-81563432D01*
X140855839Y-59969617D02*
X136153117Y-55266895D01*
X136153117Y-55266895D02*
X135282974Y-55266895D01*
X155518356Y-85244483D02*
X154146161Y-83872288D01*
X157232429Y-85244483D02*
X155518356Y-85244483D01*
%TO.N,CB6*%
X161659014Y-91671572D02*
X161659014Y-93240986D01*
X161659014Y-93240986D02*
X161500000Y-93400000D01*
X130500000Y-99000000D02*
X130500000Y-100387500D01*
X133902952Y-98539919D02*
X130960081Y-98539919D01*
X130960081Y-98539919D02*
X130500000Y-99000000D01*
X133902952Y-98539919D02*
X133697095Y-98745776D01*
%TO.N,CB2*%
X165660022Y-91671572D02*
X165660022Y-90639978D01*
X132318882Y-119157850D02*
X130839232Y-120637500D01*
X165660022Y-90639978D02*
X165700000Y-90600000D01*
X133683120Y-119157850D02*
X133591046Y-119065776D01*
X133683120Y-119157850D02*
X132318882Y-119157850D01*
%TO.N,Net-(FL701-N1-)*%
X194912547Y-109065665D02*
X196793070Y-110946188D01*
X192605440Y-112583972D02*
X194243224Y-110946188D01*
X194243224Y-110946188D02*
X196793070Y-110946188D01*
X194912547Y-107310890D02*
X194912547Y-109065665D01*
%TO.N,Net-(FL701-N2-)*%
X200058341Y-107289132D02*
X200058341Y-108950917D01*
X200058341Y-108950917D02*
X198063070Y-110946188D01*
X200805777Y-110946188D02*
X198063070Y-110946188D01*
X202543946Y-112684357D02*
X200805777Y-110946188D01*
%TO.N,Net-(C702-Pad2)*%
X200060268Y-101834759D02*
X200060268Y-104317205D01*
%TO.N,CB0*%
X131274224Y-129225776D02*
X130500000Y-130000000D01*
X133403606Y-129254096D02*
X133375286Y-129225776D01*
D45*
X167408524Y-89245491D02*
X167389472Y-89226439D01*
X168586229Y-89245491D02*
X167408524Y-89245491D01*
D46*
X130500000Y-130000000D02*
X130500000Y-131137500D01*
X133375286Y-129225776D02*
X131274224Y-129225776D01*
%TO.N,Net-(FL702-N1-)*%
X199976488Y-61634161D02*
X198271715Y-59929388D01*
X202543946Y-58317957D02*
X200932515Y-59929388D01*
X200932515Y-59929388D02*
X198271715Y-59929388D01*
X199976488Y-63870186D02*
X199976488Y-61634161D01*
%TO.N,CB11*%
X155270384Y-87745113D02*
X154786709Y-88228788D01*
X154786709Y-88228788D02*
X154500000Y-88228788D01*
X125850000Y-73150000D02*
X125850000Y-74887500D01*
X133688373Y-72367199D02*
X133677786Y-72377786D01*
X157232429Y-87745113D02*
X155270384Y-87745113D01*
X133677786Y-72377786D02*
X126622214Y-72377786D01*
X126622214Y-72377786D02*
X125850000Y-73150000D01*
%TO.N,CB1*%
X169576524Y-93632679D02*
X169580864Y-93637019D01*
X167244499Y-92512288D02*
X168364890Y-93632679D01*
X133900000Y-124054617D02*
X132845383Y-123000000D01*
X167244498Y-92512288D02*
X167244499Y-92512288D01*
X132845383Y-123000000D02*
X128637500Y-123000000D01*
X168364890Y-93632679D02*
X169576524Y-93632679D01*
X128637500Y-123000000D02*
X126000000Y-125637500D01*
X133782927Y-124145776D02*
X133874086Y-124054617D01*
X166660274Y-91928063D02*
X167244498Y-92512288D01*
%TO.N,VC13*%
X153265915Y-85116888D02*
X153265915Y-86334188D01*
X152684915Y-85116888D02*
X138506511Y-70938484D01*
X157232429Y-86244735D02*
X153355368Y-86244735D01*
X138506511Y-64810658D02*
X135165840Y-61469987D01*
X138506511Y-70938484D02*
X138506511Y-64810658D01*
X135165840Y-61469987D02*
X135165840Y-60450783D01*
X153265915Y-85116888D02*
X152684915Y-85116888D01*
%TO.N,CB13*%
X154477317Y-85122683D02*
X155099243Y-85744609D01*
X129068768Y-61968732D02*
X126350000Y-64687500D01*
X133634143Y-61968732D02*
X129068768Y-61968732D01*
X155099243Y-85744609D02*
X157232429Y-85744609D01*
D45*
%TO.N,VC6*%
X161254189Y-95137424D02*
X161646484Y-94745129D01*
D46*
X162159140Y-93996243D02*
X161646484Y-94508899D01*
D45*
X161254189Y-97461722D02*
X159489472Y-99226439D01*
X159489472Y-99226439D02*
X138370847Y-99226439D01*
X161646484Y-94745129D02*
X161646484Y-94508899D01*
X138370847Y-99226439D02*
X135282974Y-96138566D01*
X161254189Y-95818424D02*
X161254189Y-97461722D01*
D46*
X162159140Y-91671572D02*
X162159140Y-93996243D01*
D45*
X161254189Y-95818424D02*
X161254189Y-95137424D01*
D46*
%TO.N,VC9*%
X156803249Y-93296751D02*
X156803249Y-94429745D01*
X158428428Y-91671572D02*
X156803249Y-93296751D01*
X150169177Y-92649155D02*
X138246731Y-80726709D01*
X153272109Y-92649155D02*
X153272109Y-93350464D01*
X153272109Y-92649155D02*
X150169177Y-92649155D01*
X153272109Y-93350464D02*
X154351390Y-94429745D01*
X154351390Y-94429745D02*
X156803249Y-94429745D01*
X138246731Y-80726709D02*
X135090284Y-80726709D01*
X159158384Y-91671572D02*
X158428428Y-91671572D01*
D45*
%TO.N,NFAULT*%
X160158636Y-80317772D02*
X160158636Y-78857275D01*
X160158636Y-78857275D02*
X166389472Y-72626439D01*
D46*
%TO.N,Net-(C707-Pad2)*%
X199977357Y-69337073D02*
X199977357Y-66841055D01*
%TO.N,VC10*%
X155459620Y-90240380D02*
X153380154Y-90240380D01*
X153380154Y-90240380D02*
X153265915Y-90126141D01*
X153265915Y-90126141D02*
X150009136Y-90126141D01*
X156454509Y-89245491D02*
X155459620Y-90240380D01*
X150009136Y-90126141D02*
X135683966Y-75800971D01*
X153272109Y-91404555D02*
X153272109Y-90132335D01*
X157232429Y-89245491D02*
X156454509Y-89245491D01*
X135683966Y-75800971D02*
X135163198Y-75800971D01*
%TO.N,Net-(FL702-N2-)*%
X194912547Y-63863831D02*
X194912547Y-62018556D01*
X194234955Y-59929388D02*
X192512328Y-58206761D01*
X194912547Y-62018556D02*
X197001715Y-59929388D01*
X197001715Y-59929388D02*
X194234955Y-59929388D01*
%TO.N,VC5*%
X163159392Y-92345202D02*
X163259518Y-92445328D01*
D45*
X162498789Y-95818424D02*
X162498789Y-95422425D01*
D46*
X163465595Y-93137216D02*
X163465595Y-94455619D01*
D45*
X162498789Y-95818424D02*
X162498789Y-99017122D01*
D46*
X163259518Y-92931139D02*
X163465595Y-93137216D01*
X163259518Y-92445328D02*
X163259518Y-92931139D01*
X163159392Y-91671572D02*
X163159392Y-92345202D01*
D45*
X162498789Y-95422425D02*
X163465595Y-94455619D01*
X160444016Y-101071895D02*
X135282974Y-101071895D01*
X162498789Y-99017122D02*
X160444016Y-101071895D01*
%TO.N,VC0*%
X169457729Y-88745365D02*
X171716503Y-91004139D01*
X173889472Y-91026439D02*
X172411772Y-91026439D01*
X171716503Y-91004139D02*
X172389472Y-91004139D01*
X173989472Y-90148739D02*
X173989472Y-90926439D01*
X161224892Y-126471895D02*
X174864910Y-112831877D01*
X135282974Y-126471895D02*
X161224892Y-126471895D01*
X173889472Y-91026439D02*
X174864910Y-92001877D01*
X168586229Y-88745365D02*
X169457729Y-88745365D01*
X173989472Y-90926439D02*
X173889472Y-91026439D01*
X174864910Y-92001877D02*
X174864910Y-112831877D01*
D46*
%TO.N,CB10*%
X155753607Y-88745365D02*
X154908592Y-89590380D01*
X133802894Y-77250920D02*
X133776907Y-77276907D01*
X131723093Y-77276907D02*
X130780694Y-78219306D01*
X130780694Y-78219306D02*
X130780694Y-80137500D01*
X133776907Y-77276907D02*
X131723093Y-77276907D01*
X157232429Y-88745365D02*
X155753607Y-88745365D01*
X154908592Y-89590380D02*
X154509620Y-89590380D01*
%TO.N,VC12*%
X152963162Y-87881541D02*
X153265915Y-87578788D01*
X136485278Y-66676421D02*
X135282974Y-65474117D01*
X151765915Y-86977455D02*
X136485278Y-71696818D01*
X154871023Y-87578788D02*
X153265915Y-87578788D01*
X151765915Y-87881541D02*
X152963162Y-87881541D01*
X151765915Y-87881541D02*
X151765915Y-86977455D01*
X136485278Y-71696818D02*
X136485278Y-66676421D01*
X155204824Y-87244987D02*
X154871023Y-87578788D01*
X157232429Y-87244987D02*
X155204824Y-87244987D01*
%TO.N,VC3*%
X165159896Y-91671572D02*
X165159896Y-92292964D01*
D45*
X160884016Y-111231895D02*
X135282974Y-111231895D01*
X166184941Y-95881706D02*
X166184941Y-94927070D01*
D46*
X165159896Y-92292964D02*
X166626017Y-93759085D01*
D45*
X166184941Y-94927070D02*
X166626017Y-94485994D01*
X166184941Y-95881706D02*
X166184941Y-105930970D01*
D46*
X166626017Y-93759085D02*
X166626017Y-94485994D01*
D45*
X166184941Y-105930970D02*
X160884016Y-111231895D01*
D46*
%TO.N,CB4*%
X164115594Y-93434833D02*
X163865595Y-93184834D01*
X130780694Y-108719306D02*
X130780694Y-110637500D01*
X163659518Y-92765454D02*
X163659518Y-91671572D01*
X163865595Y-92971531D02*
X163659518Y-92765454D01*
X163865595Y-93184834D02*
X163865595Y-92971531D01*
X131600664Y-107899336D02*
X130780694Y-108719306D01*
X134026387Y-107899336D02*
X131600664Y-107899336D01*
%TO.N,CB8*%
X159572684Y-92543072D02*
X159658510Y-92457246D01*
X159156928Y-92543072D02*
X159572684Y-92543072D01*
X131954607Y-87545393D02*
X130780694Y-88719306D01*
X130780694Y-88719306D02*
X130780694Y-90137500D01*
X133519780Y-87545393D02*
X131954607Y-87545393D01*
X158300000Y-92831101D02*
X158868899Y-92831101D01*
X159658510Y-92457246D02*
X159658510Y-91671572D01*
X158868899Y-92831101D02*
X159156928Y-92543072D01*
%TO.N,CB5*%
X133162783Y-103500000D02*
X126418750Y-103500000D01*
X126000000Y-103918750D02*
X126000000Y-105337500D01*
X126418750Y-103500000D02*
X126000000Y-103918750D01*
X162659266Y-93250126D02*
X162809140Y-93400000D01*
X133925678Y-102737105D02*
X133162783Y-103500000D01*
X162659266Y-91671572D02*
X162659266Y-93250126D01*
%TO.N,Net-(C708-Pad2)*%
X194907627Y-69286482D02*
X194907627Y-66838751D01*
%TO.N,CB3*%
X127341863Y-113658137D02*
X126300000Y-114700000D01*
X126300000Y-114700000D02*
X126300000Y-115487500D01*
X164659770Y-92457246D02*
X164659770Y-91671572D01*
X165165595Y-92963071D02*
X164659770Y-92457246D01*
X165165595Y-93217901D02*
X165165595Y-92963071D01*
X133779990Y-113658137D02*
X127341863Y-113658137D01*
X165415595Y-93467901D02*
X165165595Y-93217901D01*
D45*
%TO.N,Net-(F301-Pad2)*%
X99426859Y-82739146D02*
X103913201Y-82739146D01*
%TO.N,CVDD*%
X170189472Y-79826439D02*
X170889472Y-79126439D01*
X165159896Y-81203446D02*
X164924068Y-81439274D01*
X170909972Y-77005939D02*
X173789472Y-74126439D01*
X170909972Y-79105939D02*
X170909972Y-78326439D01*
X167307138Y-83744105D02*
X168586229Y-83744105D01*
X165159896Y-80317772D02*
X165159896Y-81203446D01*
X164924068Y-81439274D02*
X164589472Y-81439274D01*
X167289472Y-83726439D02*
X167307138Y-83744105D01*
X170909972Y-78326439D02*
X170909972Y-77005939D01*
X170889472Y-79126439D02*
X170889472Y-78346939D01*
%TO.N,NPNB*%
X168772184Y-82243727D02*
X169489472Y-81526439D01*
X168586229Y-82243727D02*
X168772184Y-82243727D01*
%TO.N,TSREF*%
X165660022Y-79196989D02*
X165589472Y-79126439D01*
X165660022Y-80317772D02*
X165660022Y-79196989D01*
%TO.N,DVDD*%
X167689472Y-80052638D02*
X168012872Y-80052638D01*
X169489472Y-75026439D02*
X174750000Y-69765911D01*
X174750000Y-69765911D02*
X174750000Y-65000000D01*
X169489472Y-78576038D02*
X169489472Y-75026439D01*
X166660274Y-80317772D02*
X167424338Y-80317772D01*
X168012872Y-80052638D02*
X169489472Y-78576038D01*
%TO.N,NEG5V*%
X167389472Y-84626439D02*
X167771680Y-84244231D01*
X167771680Y-84244231D02*
X168586229Y-84244231D01*
%TO.N,AVDD*%
X169838032Y-87244987D02*
X168586229Y-87244987D01*
X171389472Y-88626439D02*
X171219484Y-88626439D01*
X171219484Y-88626439D02*
X169838032Y-87244987D01*
%TO.N,LDOIN*%
X169372058Y-82743853D02*
X170789472Y-81326439D01*
X170789472Y-81326439D02*
X171270372Y-81326439D01*
D44*
X171989472Y-80026439D02*
X171270372Y-80745539D01*
X171270372Y-80745539D02*
X171270372Y-81326439D01*
D45*
X168586229Y-82743853D02*
X169372058Y-82743853D01*
D46*
%TO.N,REFHP*%
X167549874Y-87745113D02*
X167400000Y-87595239D01*
X168586229Y-87745113D02*
X167549874Y-87745113D01*
D44*
%TO.N,BAT*%
X77900000Y-77751930D02*
X75672430Y-75524360D01*
X75672430Y-75524360D02*
X75672430Y-74927570D01*
X77900000Y-102591927D02*
X77900000Y-77751930D01*
X79812428Y-104504355D02*
X77900000Y-102591927D01*
D45*
%TO.N,Net-(F302-Pad2)*%
X99437387Y-85310732D02*
X103990801Y-85310732D01*
%TO.N,Net-(F303-Pad2)*%
X99483559Y-87844187D02*
X103997857Y-87844187D01*
%TO.N,Net-(F304-Pad2)*%
X99483559Y-90390732D02*
X103971073Y-90390732D01*
%TO.N,Net-(F305-Pad2)*%
X104021997Y-92930732D02*
X99498493Y-92930732D01*
%TO.N,Net-(F306-Pad2)*%
X99483559Y-95470732D02*
X104061206Y-95470732D01*
%TO.N,Net-(F307-Pad2)*%
X104080472Y-98010732D02*
X99483559Y-98010732D01*
%TO.N,Net-(F308-Pad2)*%
X99483559Y-100550732D02*
X104113559Y-100550732D01*
%TO.N,Net-(F309-Pad2)*%
X104113559Y-103111715D02*
X99504542Y-103111715D01*
%TO.N,Net-(F310-Pad2)*%
X99483559Y-105630732D02*
X104066098Y-105630732D01*
%TO.N,Net-(F311-Pad2)*%
X104113559Y-110710732D02*
X99539268Y-110710732D01*
X99539268Y-110710732D02*
X99500000Y-110750000D01*
D46*
%TO.N,Net-(F312-Pad2)*%
X130780694Y-75862500D02*
X130143194Y-76500000D01*
X130842223Y-75800971D02*
X130780694Y-75862500D01*
X130143194Y-76500000D02*
X114489527Y-76500000D01*
X114489527Y-76500000D02*
X113640259Y-75650732D01*
X106520259Y-82770732D02*
X113640259Y-75650732D01*
X133810800Y-75800971D02*
X130842223Y-75800971D01*
X105494787Y-82770732D02*
X106520259Y-82770732D01*
%TO.N,Net-(F313-Pad2)*%
X126512500Y-81425000D02*
X125950000Y-80862500D01*
X113772027Y-80862500D02*
X113640259Y-80730732D01*
X133039595Y-81425000D02*
X126512500Y-81425000D01*
X106806502Y-85310732D02*
X111386502Y-80730732D01*
X125950000Y-80862500D02*
X113772027Y-80862500D01*
X105540801Y-85310732D02*
X106806502Y-85310732D01*
X111386502Y-80730732D02*
X113640259Y-80730732D01*
X133737886Y-80726709D02*
X133039595Y-81425000D01*
%TO.N,Net-(F314-Pad2)*%
X109746871Y-85810732D02*
X113640259Y-85810732D01*
X130637500Y-85862500D02*
X129500000Y-87000000D01*
X129500000Y-87000000D02*
X114829527Y-87000000D01*
X114829527Y-87000000D02*
X113640259Y-85810732D01*
X107706871Y-87850732D02*
X109746871Y-85810732D01*
X130780694Y-85862500D02*
X130637500Y-85862500D01*
X130876014Y-85957820D02*
X130780694Y-85862500D01*
X105554402Y-87850732D02*
X107706871Y-87850732D01*
X133700109Y-85957820D02*
X130876014Y-85957820D01*
%TO.N,Net-(F315-Pad2)*%
X133250336Y-91475000D02*
X126362500Y-91475000D01*
X126362500Y-91475000D02*
X125800000Y-90912500D01*
X113662027Y-90912500D02*
X113640259Y-90890732D01*
X133800849Y-90924487D02*
X133250336Y-91475000D01*
X105536902Y-90406561D02*
X113156088Y-90406561D01*
X125800000Y-90912500D02*
X113662027Y-90912500D01*
%TO.N,Net-(F316-Pad2)*%
X133930576Y-96138566D02*
X130526066Y-96138566D01*
X130526066Y-96138566D02*
X130500000Y-96112500D01*
X110304109Y-95970732D02*
X113640259Y-95970732D01*
X130500000Y-96112500D02*
X129612500Y-97000000D01*
X105571997Y-92930732D02*
X107264109Y-92930732D01*
X114669527Y-97000000D02*
X113640259Y-95970732D01*
X107264109Y-92930732D02*
X110304109Y-95970732D01*
X129612500Y-97000000D02*
X114669527Y-97000000D01*
%TO.N,Net-(F317-Pad2)*%
X126000000Y-121362500D02*
X113648491Y-121362500D01*
X126562500Y-121925000D02*
X126000000Y-121362500D01*
X107765774Y-115496247D02*
X107763101Y-115496247D01*
X107763101Y-107777735D02*
X107763101Y-115496247D01*
X133397471Y-121925000D02*
X126562500Y-121925000D01*
X133930576Y-121391895D02*
X133397471Y-121925000D01*
X113648491Y-121362500D02*
X113640259Y-121370732D01*
X105663559Y-105678193D02*
X107763101Y-107777735D01*
X113640259Y-121370732D02*
X107765774Y-115496247D01*
%TO.N,Net-(F318-Pad2)*%
X133377471Y-101625000D02*
X126562500Y-101625000D01*
X106226682Y-95677155D02*
X111600259Y-101050732D01*
X111600259Y-101050732D02*
X113640259Y-101050732D01*
X113652027Y-101062500D02*
X113640259Y-101050732D01*
X105611206Y-95470732D02*
X106156312Y-95470732D01*
X126562500Y-101625000D02*
X126000000Y-101062500D01*
X106156312Y-95470732D02*
X106156312Y-95677155D01*
X126000000Y-101062500D02*
X113652027Y-101062500D01*
X106156312Y-95677155D02*
X106226682Y-95677155D01*
X133930576Y-101071895D02*
X133377471Y-101625000D01*
%TO.N,Net-(F319-Pad2)*%
X130780694Y-106362500D02*
X130143194Y-107000000D01*
X130143194Y-107000000D02*
X114509527Y-107000000D01*
X114509527Y-107000000D02*
X113640259Y-106130732D01*
X133930576Y-106151895D02*
X130991299Y-106151895D01*
X105630472Y-98120945D02*
X113640259Y-106130732D01*
X130991299Y-106151895D02*
X130780694Y-106362500D01*
%TO.N,Net-(F320-Pad2)*%
X133387471Y-111775000D02*
X126862500Y-111775000D01*
X105663559Y-100550732D02*
X111513103Y-106400276D01*
X111513103Y-106400276D02*
X111513103Y-109083576D01*
X113642027Y-111212500D02*
X113640259Y-111210732D01*
X126862500Y-111775000D02*
X126300000Y-111212500D01*
X111513103Y-109083576D02*
X113640259Y-111210732D01*
X133930576Y-111231895D02*
X133387471Y-111775000D01*
X126300000Y-111212500D02*
X113642027Y-111212500D01*
%TO.N,Net-(F321-Pad2)*%
X105663559Y-103111715D02*
X109964937Y-107413093D01*
X109964937Y-107413093D02*
X109964937Y-112615410D01*
X130889837Y-116311895D02*
X130839232Y-116362500D01*
X133930576Y-116311895D02*
X130889837Y-116311895D01*
X130201732Y-117000000D02*
X114349527Y-117000000D01*
X109964937Y-112615410D02*
X113640259Y-116290732D01*
X114349527Y-117000000D02*
X113640259Y-116290732D01*
X130839232Y-116362500D02*
X130201732Y-117000000D01*
%TO.N,Net-(F322-Pad2)*%
X113640259Y-126450732D02*
X105663559Y-118474032D01*
X130500000Y-126862500D02*
X114052027Y-126862500D01*
X130890605Y-126471895D02*
X130500000Y-126862500D01*
X105663559Y-118474032D02*
X105663559Y-110710732D01*
X133930576Y-126471895D02*
X130890605Y-126471895D01*
X114052027Y-126862500D02*
X113640259Y-126450732D01*
D45*
%TO.N,Net-(F323-Pad2)*%
X99483559Y-72610732D02*
X103825893Y-72610732D01*
%TO.N,Net-(F324-Pad2)*%
X99483559Y-75150732D02*
X103826156Y-75150732D01*
%TO.N,Net-(F325-Pad2)*%
X99483559Y-77690732D02*
X103838186Y-77690732D01*
%TO.N,Net-(F326-Pad2)*%
X99483559Y-80230732D02*
X103923901Y-80230732D01*
D46*
%TO.N,Net-(F328-Pad2)*%
X107562552Y-64222105D02*
X111373925Y-60410732D01*
X113642027Y-60412500D02*
X113640259Y-60410732D01*
X133813442Y-60450783D02*
X126388283Y-60450783D01*
X126388283Y-60450783D02*
X126350000Y-60412500D01*
X126350000Y-60412500D02*
X113642027Y-60412500D01*
X111373925Y-60410732D02*
X113640259Y-60410732D01*
X107562552Y-73167063D02*
X107562552Y-64222105D01*
X105585570Y-75144045D02*
X107562552Y-73167063D01*
%TO.N,Net-(F329-Pad2)*%
X110187084Y-72891834D02*
X110108424Y-72813174D01*
X110108424Y-72813174D02*
X110108424Y-66355134D01*
X130950000Y-65462500D02*
X129912500Y-66500000D01*
X110108424Y-66355134D02*
X110972826Y-65490732D01*
X130961617Y-65474117D02*
X130950000Y-65462500D01*
X110972826Y-65490732D02*
X113640259Y-65490732D01*
X105393977Y-77684941D02*
X110187084Y-72891834D01*
X133930576Y-65474117D02*
X130961617Y-65474117D01*
X129912500Y-66500000D02*
X114649527Y-66500000D01*
X114649527Y-66500000D02*
X113640259Y-65490732D01*
%TO.N,Net-(F330-Pad2)*%
X133860997Y-70591895D02*
X133452892Y-71000000D01*
X105521821Y-80230732D02*
X113640259Y-72112294D01*
X125850000Y-70612500D02*
X113682027Y-70612500D01*
X113640259Y-72112294D02*
X113640259Y-70570732D01*
X133452892Y-71000000D02*
X126237500Y-71000000D01*
X113682027Y-70612500D02*
X113640259Y-70570732D01*
X126237500Y-71000000D02*
X125850000Y-70612500D01*
%TO.N,Net-(FL701-N2+)*%
X201218896Y-115496188D02*
X202455927Y-114259157D01*
X198063070Y-116400037D02*
X199998389Y-118335356D01*
X198063070Y-115496188D02*
X201218896Y-115496188D01*
X198063070Y-115496188D02*
X198063070Y-116400037D01*
%TO.N,Net-(FL701-N1+)*%
X193942856Y-115496188D02*
X192605440Y-114158772D01*
X196793070Y-115496188D02*
X196793070Y-116522841D01*
X196793070Y-115496188D02*
X193942856Y-115496188D01*
X196793070Y-116522841D02*
X195052328Y-118263583D01*
%TO.N,Net-(FL702-N1+)*%
X198271715Y-53978169D02*
X200132328Y-52117556D01*
X198271715Y-55379388D02*
X198271715Y-53978169D01*
X201180177Y-55379388D02*
X202543946Y-56743157D01*
X198271715Y-55379388D02*
X201180177Y-55379388D01*
%TO.N,Net-(FL702-N2+)*%
X197001715Y-54038682D02*
X195056031Y-52092998D01*
X197001715Y-55379388D02*
X197001715Y-54038682D01*
X193747715Y-55379388D02*
X197001715Y-55379388D01*
X192383946Y-56743157D02*
X193747715Y-55379388D01*
%TO.N,Net-(D701-Pad1)*%
X200132328Y-93762056D02*
X198550444Y-93762056D01*
X200015344Y-97542269D02*
X200015344Y-93879040D01*
X198550444Y-93762056D02*
X198350000Y-93962500D01*
%TO.N,Net-(D701-Pad2)*%
X196334803Y-93847303D02*
X196450000Y-93962500D01*
X195052328Y-93847303D02*
X196334803Y-93847303D01*
X194923946Y-97444357D02*
X194923946Y-93851138D01*
%TO.N,Net-(D702-Pad1)*%
X194899468Y-77149880D02*
X194923946Y-77174358D01*
X194899468Y-73436322D02*
X194899468Y-77149880D01*
X194923946Y-77174358D02*
X196513142Y-77174358D01*
X196513142Y-77174358D02*
X196550000Y-77137500D01*
%TO.N,Net-(D702-Pad2)*%
X199993066Y-77189151D02*
X199982706Y-77199511D01*
X199920695Y-77137500D02*
X199982706Y-77199511D01*
X199993066Y-73437957D02*
X199993066Y-77189151D01*
X198450000Y-77137500D02*
X199920695Y-77137500D01*
%TO.N,COMML_N_OPT-*%
X200015344Y-98888469D02*
X200015344Y-100215035D01*
%TO.N,COMML_P_OPT+*%
X194923946Y-98790557D02*
X194923946Y-100238201D01*
%TO.N,COMMH_N_OPT-*%
X199993066Y-72091757D02*
X199993066Y-70927582D01*
%TO.N,COMMH_P_OPT+*%
X194899468Y-72090122D02*
X194899468Y-70869441D01*
%TO.N,COMLP*%
X189866771Y-87549778D02*
X189746771Y-87549778D01*
X170448786Y-86751439D02*
X169942082Y-86244735D01*
X190106771Y-86991439D02*
X190106771Y-87309778D01*
X170448786Y-86751439D02*
X189266771Y-86751439D01*
X196826083Y-89103175D02*
X194474347Y-86751439D01*
X169942082Y-86244735D02*
X168586229Y-86244735D01*
X195052328Y-92494905D02*
X195052328Y-91362004D01*
X194474347Y-86751439D02*
X190346771Y-86751439D01*
X196826083Y-89819176D02*
X196826083Y-89103175D01*
X195283255Y-91362004D02*
X196826083Y-89819176D01*
X189506771Y-87309778D02*
X189506771Y-86991439D01*
X189746771Y-87549778D02*
G75*
G02*
X189506822Y-87309778I29J239978D01*
G01*
X189506771Y-86991439D02*
G75*
G03*
X189266771Y-86751429I-239971J39D01*
G01*
X190106771Y-87309778D02*
G75*
G02*
X189866771Y-87549771I-239971J-22D01*
G01*
X190346771Y-86751439D02*
G75*
G03*
X190106839Y-86991439I29J-239961D01*
G01*
%TO.N,COMLN*%
X200132328Y-92409658D02*
X200132328Y-91276757D01*
X169068492Y-85769672D02*
X170032705Y-85769672D01*
X200132328Y-91276757D02*
X199636062Y-91276757D01*
X199636062Y-91276757D02*
X198178481Y-89819176D01*
X194926439Y-86326439D02*
X198178481Y-89578481D01*
X170032705Y-85769672D02*
X170589472Y-86326439D01*
X170589472Y-86326439D02*
X194926439Y-86326439D01*
X169043429Y-85744609D02*
X169068492Y-85769672D01*
X198178481Y-89578481D02*
X198178481Y-89819176D01*
%TO.N,COMHN*%
X170582672Y-84151439D02*
X195307507Y-84151439D01*
X200009385Y-79436761D02*
X200009385Y-78578588D01*
X169514691Y-85219420D02*
X170582672Y-84151439D01*
X169068492Y-85219420D02*
X169514691Y-85219420D01*
X198180732Y-81016193D02*
X199760164Y-79436761D01*
X195307507Y-84151439D02*
X198180732Y-81278214D01*
X169043429Y-85244483D02*
X169068492Y-85219420D01*
X198180732Y-81278214D02*
X198180732Y-81114593D01*
%TO.N,COMHP*%
X170396272Y-83701439D02*
X185469666Y-83701439D01*
X169068492Y-84769420D02*
X169328291Y-84769420D01*
X190264986Y-83701439D02*
X194957489Y-83701439D01*
X195220777Y-79408636D02*
X194918733Y-79408636D01*
X185475614Y-83701439D02*
X189184986Y-83701439D01*
X185469666Y-83701439D02*
X185475614Y-83701439D01*
X196828334Y-81016193D02*
X195220777Y-79408636D01*
X190024986Y-83143100D02*
X190024986Y-83461439D01*
X169328291Y-84769420D02*
X170396272Y-83701439D01*
X189424986Y-83461439D02*
X189424986Y-83143100D01*
X196828334Y-81830594D02*
X196828334Y-81114593D01*
X189664986Y-82903100D02*
X189784986Y-82903100D01*
X194923946Y-78526756D02*
X194923946Y-79403423D01*
X194957489Y-83701439D02*
X196828334Y-81830594D01*
X169043429Y-84744357D02*
X169068492Y-84769420D01*
X189424986Y-83143100D02*
G75*
G02*
X189664986Y-82903086I240014J0D01*
G01*
X190024986Y-83461439D02*
G75*
G03*
X190264986Y-83701414I240014J39D01*
G01*
X189784986Y-82903100D02*
G75*
G02*
X190025000Y-83143100I14J-240000D01*
G01*
X189184986Y-83701439D02*
G75*
G03*
X189425039Y-83461439I14J240039D01*
G01*
%TO.N,ISO_COMML_P*%
X195052328Y-119910156D02*
X195052328Y-121662756D01*
X195052328Y-121662756D02*
X197592328Y-124202756D01*
%TO.N,ISO_COMML_N*%
X200132328Y-124662755D02*
X197592328Y-127202755D01*
X200132328Y-119910156D02*
X200132328Y-124662755D01*
%TO.N,ISO_COMMH_P*%
X195052328Y-44943162D02*
X197592328Y-42403162D01*
X195052328Y-50518198D02*
X195052328Y-44943162D01*
%TO.N,ISO_COMMH_N*%
X200132328Y-50542756D02*
X200132328Y-47943161D01*
X200132328Y-47943161D02*
X197592328Y-45403161D01*
D45*
%TO.N,Cell 0S*%
X79812428Y-96224357D02*
X94338071Y-110750000D01*
X94338071Y-110750000D02*
X97925000Y-110750000D01*
%TO.N,Cell 14S*%
X97965327Y-72600000D02*
X97976059Y-72610732D01*
X95900000Y-72600000D02*
X97965327Y-72600000D01*
D44*
%TO.N,Net-(C201-Pad2)*%
X157232429Y-81369396D02*
X157232429Y-82243727D01*
X158078886Y-79783300D02*
X156752611Y-79783300D01*
X156639472Y-79896439D02*
X156639472Y-80776439D01*
X156639472Y-80776439D02*
X157232429Y-81369396D01*
D46*
%TO.N,Net-(BAT_POSITIVE301-PadTP)*%
X133930576Y-55266895D02*
X133026181Y-54362500D01*
X114608491Y-54362500D02*
X113640259Y-55330732D01*
X105375893Y-63595098D02*
X113640259Y-55330732D01*
X130650000Y-54362500D02*
X114608491Y-54362500D01*
X105375893Y-72610732D02*
X105375893Y-63595098D01*
X133026181Y-54362500D02*
X130650000Y-54362500D01*
%TD*%
%TA.AperFunction,Conductor*%
%TO.N,LDOIN*%
G36*
X165070039Y-54019685D02*
G01*
X165115794Y-54072489D01*
X165127000Y-54124000D01*
X165127000Y-57576000D01*
X165107315Y-57643039D01*
X165054511Y-57688794D01*
X165003000Y-57700000D01*
X162151000Y-57700000D01*
X162083961Y-57680315D01*
X162038206Y-57627511D01*
X162027000Y-57576000D01*
X162027000Y-54124000D01*
X162046685Y-54056961D01*
X162099489Y-54011206D01*
X162151000Y-54000000D01*
X165003000Y-54000000D01*
X165070039Y-54019685D01*
G37*
%TD.AperFunction*%
%TD*%
%TA.AperFunction,Conductor*%
%TO.N,AVSS*%
G36*
X189149310Y-87071624D02*
G01*
X189195065Y-87124428D01*
X189206271Y-87175939D01*
X189206271Y-87357145D01*
X189206317Y-87357847D01*
X189206315Y-87370645D01*
X189206315Y-87370647D01*
X189233406Y-87489388D01*
X189261937Y-87548648D01*
X189273283Y-87617591D01*
X189245554Y-87681723D01*
X189187555Y-87720682D01*
X189150212Y-87726439D01*
X170866528Y-87726439D01*
X170799489Y-87706754D01*
X170778847Y-87690120D01*
X170352347Y-87263620D01*
X170318862Y-87202297D01*
X170323846Y-87132605D01*
X170365718Y-87076672D01*
X170431182Y-87052255D01*
X170440028Y-87051939D01*
X189082271Y-87051939D01*
X189149310Y-87071624D01*
G37*
%TD.AperFunction*%
%TA.AperFunction,Conductor*%
G36*
X197291390Y-82695038D02*
G01*
X197347257Y-82736820D01*
X197517241Y-82963464D01*
X197595712Y-83068093D01*
X197614672Y-83093372D01*
X197639148Y-83158814D01*
X197639472Y-83167772D01*
X197639472Y-87315792D01*
X197619787Y-87382831D01*
X197591601Y-87413672D01*
X197293186Y-87645773D01*
X197223055Y-87700319D01*
X197158052Y-87725939D01*
X197146926Y-87726439D01*
X196802772Y-87726439D01*
X196735733Y-87706754D01*
X196715091Y-87690120D01*
X195110951Y-86085980D01*
X195110943Y-86085974D01*
X195083571Y-86070171D01*
X195083571Y-86070170D01*
X195083568Y-86070170D01*
X195042433Y-86046420D01*
X195042430Y-86046418D01*
X195004214Y-86036178D01*
X194966001Y-86025939D01*
X194965999Y-86025939D01*
X170765305Y-86025939D01*
X170698266Y-86006254D01*
X170677624Y-85989620D01*
X170217219Y-85529214D01*
X170209059Y-85524503D01*
X170148694Y-85489651D01*
X170072267Y-85469172D01*
X170072265Y-85469172D01*
X169989272Y-85469172D01*
X169922233Y-85449487D01*
X169876478Y-85396683D01*
X169866534Y-85327525D01*
X169895559Y-85263969D01*
X169901591Y-85257491D01*
X170670824Y-84488258D01*
X170732147Y-84454773D01*
X170758505Y-84451939D01*
X195347067Y-84451939D01*
X195347069Y-84451939D01*
X195423496Y-84431460D01*
X195492018Y-84391899D01*
X195547967Y-84335950D01*
X197160380Y-82723536D01*
X197221699Y-82690054D01*
X197291390Y-82695038D01*
G37*
%TD.AperFunction*%
%TA.AperFunction,Conductor*%
G36*
X189254433Y-82496940D02*
G01*
X189321397Y-82516873D01*
X189366955Y-82569847D01*
X189376641Y-82639042D01*
X189347380Y-82702490D01*
X189331287Y-82717883D01*
X189280366Y-82758494D01*
X189204433Y-82853716D01*
X189204431Y-82853718D01*
X189151590Y-82963449D01*
X189151585Y-82963464D01*
X189124486Y-83082195D01*
X189124486Y-83276939D01*
X189104801Y-83343978D01*
X189051997Y-83389733D01*
X189000486Y-83400939D01*
X185515176Y-83400939D01*
X185509228Y-83400939D01*
X170356710Y-83400939D01*
X170305758Y-83414591D01*
X170280282Y-83421418D01*
X170232834Y-83448813D01*
X170232832Y-83448814D01*
X170211762Y-83460978D01*
X170211759Y-83460980D01*
X169556169Y-84116570D01*
X169494846Y-84150055D01*
X169425154Y-84145071D01*
X169369221Y-84103199D01*
X169351285Y-84062979D01*
X169351271Y-84062985D01*
X169351049Y-84062450D01*
X169346870Y-84053078D01*
X169346596Y-84051700D01*
X169346595Y-84051698D01*
X169342422Y-84041623D01*
X169334952Y-83972154D01*
X169342422Y-83946713D01*
X169346597Y-83936633D01*
X169358228Y-83878157D01*
X169358229Y-83878155D01*
X169358229Y-83610054D01*
X169358228Y-83610052D01*
X169346597Y-83551575D01*
X169346596Y-83551574D01*
X169302281Y-83485252D01*
X169235959Y-83440937D01*
X169235958Y-83440936D01*
X169177481Y-83429305D01*
X169177477Y-83429305D01*
X168774702Y-83429305D01*
X168727246Y-83419865D01*
X168721521Y-83417493D01*
X168721517Y-83417491D01*
X168632373Y-83393605D01*
X168632372Y-83393605D01*
X168006160Y-83393605D01*
X167939121Y-83373920D01*
X167893366Y-83321116D01*
X167882217Y-83265849D01*
X167884852Y-83178897D01*
X167906558Y-83112485D01*
X167960724Y-83068350D01*
X168008795Y-83058653D01*
X168397756Y-83058653D01*
X168445212Y-83068093D01*
X168450933Y-83070462D01*
X168450941Y-83070467D01*
X168540085Y-83094353D01*
X168540087Y-83094353D01*
X169418200Y-83094353D01*
X169418202Y-83094353D01*
X169507346Y-83070467D01*
X169554830Y-83043051D01*
X169616830Y-83026439D01*
X169689472Y-83026439D01*
X170252964Y-82462946D01*
X170314285Y-82429463D01*
X170341095Y-82426630D01*
X189254433Y-82496940D01*
G37*
%TD.AperFunction*%
%TD*%
%TA.AperFunction,Conductor*%
%TO.N,AVSS*%
G36*
X170832511Y-35220185D02*
G01*
X170878266Y-35272989D01*
X170889472Y-35324500D01*
X170889472Y-69592144D01*
X170871850Y-69655860D01*
X165557801Y-78528009D01*
X165506466Y-78575407D01*
X165467613Y-78587232D01*
X165445761Y-78590109D01*
X165311849Y-78645576D01*
X165196851Y-78733818D01*
X165108609Y-78848816D01*
X165053143Y-78982726D01*
X165053142Y-78982730D01*
X165037286Y-79103170D01*
X165035251Y-79118625D01*
X165006984Y-79182521D01*
X164948660Y-79220992D01*
X164912312Y-79226439D01*
X160633136Y-79226439D01*
X160566097Y-79206754D01*
X160520342Y-79153950D01*
X160509136Y-79102439D01*
X160509136Y-79053818D01*
X160528821Y-78986779D01*
X160545450Y-78966142D01*
X165612460Y-73899131D01*
X165673781Y-73865648D01*
X165743473Y-73870632D01*
X165759157Y-73877759D01*
X165824969Y-73913375D01*
X165938959Y-73952507D01*
X166044487Y-73988736D01*
X166044489Y-73988736D01*
X166044491Y-73988737D01*
X166273423Y-74026939D01*
X166273424Y-74026939D01*
X166505520Y-74026939D01*
X166505521Y-74026939D01*
X166734453Y-73988737D01*
X166953975Y-73913375D01*
X167158098Y-73802909D01*
X167341256Y-73660352D01*
X167498451Y-73489592D01*
X167625396Y-73295288D01*
X167718629Y-73082739D01*
X167775606Y-72857744D01*
X167775607Y-72857736D01*
X167794772Y-72626445D01*
X167794772Y-72626432D01*
X167775607Y-72395141D01*
X167775605Y-72395130D01*
X167718629Y-72170138D01*
X167625396Y-71957590D01*
X167498455Y-71763291D01*
X167498452Y-71763288D01*
X167498451Y-71763286D01*
X167341256Y-71592526D01*
X167341251Y-71592522D01*
X167341249Y-71592520D01*
X167158106Y-71449974D01*
X167158100Y-71449970D01*
X166953976Y-71339503D01*
X166953967Y-71339500D01*
X166734456Y-71264141D01*
X166562754Y-71235489D01*
X166505521Y-71225939D01*
X166273423Y-71225939D01*
X166227636Y-71233579D01*
X166044487Y-71264141D01*
X165824976Y-71339500D01*
X165824967Y-71339503D01*
X165620843Y-71449970D01*
X165620837Y-71449974D01*
X165437694Y-71592520D01*
X165437691Y-71592523D01*
X165437688Y-71592525D01*
X165437688Y-71592526D01*
X165426532Y-71604645D01*
X165280488Y-71763291D01*
X165153547Y-71957590D01*
X165060314Y-72170138D01*
X165003338Y-72395130D01*
X165003336Y-72395141D01*
X164984172Y-72626432D01*
X164984172Y-72626445D01*
X165003336Y-72857736D01*
X165003338Y-72857747D01*
X165060314Y-73082739D01*
X165141283Y-73267328D01*
X165150186Y-73336628D01*
X165120209Y-73399740D01*
X165115408Y-73404819D01*
X159878168Y-78642060D01*
X159878166Y-78642063D01*
X159839749Y-78708603D01*
X159838177Y-78711326D01*
X159832024Y-78721983D01*
X159832021Y-78721990D01*
X159808136Y-78811131D01*
X159808136Y-79102439D01*
X159788451Y-79169478D01*
X159735647Y-79215233D01*
X159684136Y-79226439D01*
X158552085Y-79226439D01*
X158485046Y-79206754D01*
X158439291Y-79153950D01*
X158428085Y-79102439D01*
X158428085Y-79018347D01*
X158447770Y-78951308D01*
X158500574Y-78905553D01*
X158527894Y-78896730D01*
X158531714Y-78895970D01*
X158531714Y-78895969D01*
X158531716Y-78895969D01*
X158598037Y-78851654D01*
X158642352Y-78785333D01*
X158642352Y-78785331D01*
X158642353Y-78785331D01*
X158653984Y-78726854D01*
X158653985Y-78726852D01*
X158653985Y-78134951D01*
X158653984Y-78134949D01*
X158642353Y-78076472D01*
X158642352Y-78076471D01*
X158598037Y-78010149D01*
X158584495Y-78001101D01*
X158539690Y-77947488D01*
X158529386Y-77897999D01*
X158529386Y-77399500D01*
X158549071Y-77332461D01*
X158601875Y-77286706D01*
X158653386Y-77275500D01*
X159479270Y-77275500D01*
X159509699Y-77272646D01*
X159509701Y-77272646D01*
X159573790Y-77250219D01*
X159637882Y-77227793D01*
X159747150Y-77147150D01*
X159827793Y-77037882D01*
X159855117Y-76959795D01*
X159872646Y-76909701D01*
X159872646Y-76909699D01*
X159875500Y-76879269D01*
X159875500Y-76045730D01*
X159872646Y-76015300D01*
X159872646Y-76015298D01*
X159827793Y-75887119D01*
X159827792Y-75887117D01*
X159824043Y-75882037D01*
X159747150Y-75777850D01*
X159637882Y-75697207D01*
X159637880Y-75697206D01*
X159509700Y-75652353D01*
X159479270Y-75649500D01*
X159479266Y-75649500D01*
X156520734Y-75649500D01*
X156520730Y-75649500D01*
X156490305Y-75652353D01*
X156490293Y-75652355D01*
X156479674Y-75656071D01*
X156409895Y-75659630D01*
X156351044Y-75626709D01*
X155486819Y-74762484D01*
X155453334Y-74701161D01*
X155450500Y-74674803D01*
X155450500Y-72626432D01*
X160984172Y-72626432D01*
X160984172Y-72626445D01*
X161003336Y-72857736D01*
X161003338Y-72857747D01*
X161060314Y-73082739D01*
X161153547Y-73295287D01*
X161280488Y-73489586D01*
X161280491Y-73489590D01*
X161280493Y-73489592D01*
X161437688Y-73660352D01*
X161437691Y-73660354D01*
X161437694Y-73660357D01*
X161620837Y-73802903D01*
X161620843Y-73802907D01*
X161620846Y-73802909D01*
X161824969Y-73913375D01*
X161938959Y-73952507D01*
X162044487Y-73988736D01*
X162044489Y-73988736D01*
X162044491Y-73988737D01*
X162273423Y-74026939D01*
X162273424Y-74026939D01*
X162505520Y-74026939D01*
X162505521Y-74026939D01*
X162734453Y-73988737D01*
X162953975Y-73913375D01*
X163158098Y-73802909D01*
X163341256Y-73660352D01*
X163498451Y-73489592D01*
X163625396Y-73295288D01*
X163718629Y-73082739D01*
X163775606Y-72857744D01*
X163775607Y-72857736D01*
X163794772Y-72626445D01*
X163794772Y-72626432D01*
X163775607Y-72395141D01*
X163775605Y-72395130D01*
X163718629Y-72170138D01*
X163625396Y-71957590D01*
X163498455Y-71763291D01*
X163498452Y-71763288D01*
X163498451Y-71763286D01*
X163341256Y-71592526D01*
X163341251Y-71592522D01*
X163341249Y-71592520D01*
X163158106Y-71449974D01*
X163158100Y-71449970D01*
X162953976Y-71339503D01*
X162953967Y-71339500D01*
X162734456Y-71264141D01*
X162562754Y-71235489D01*
X162505521Y-71225939D01*
X162273423Y-71225939D01*
X162227636Y-71233579D01*
X162044487Y-71264141D01*
X161824976Y-71339500D01*
X161824967Y-71339503D01*
X161620843Y-71449970D01*
X161620837Y-71449974D01*
X161437694Y-71592520D01*
X161437691Y-71592523D01*
X161437688Y-71592525D01*
X161437688Y-71592526D01*
X161426532Y-71604645D01*
X161280488Y-71763291D01*
X161153547Y-71957590D01*
X161060314Y-72170138D01*
X161003338Y-72395130D01*
X161003336Y-72395141D01*
X160984172Y-72626432D01*
X155450500Y-72626432D01*
X155450500Y-69427660D01*
X155450500Y-69427658D01*
X155419799Y-69313081D01*
X155419799Y-69313080D01*
X155419799Y-69313079D01*
X155360492Y-69210356D01*
X155360488Y-69210351D01*
X141114700Y-54964564D01*
X152521500Y-54964564D01*
X152521500Y-63457662D01*
X152521693Y-63466586D01*
X152522159Y-63477329D01*
X152522159Y-63477331D01*
X152530518Y-63516946D01*
X152536058Y-63543204D01*
X152536059Y-63543206D01*
X152536060Y-63543211D01*
X152561483Y-63608280D01*
X152561484Y-63608283D01*
X152590303Y-63659173D01*
X152590312Y-63659186D01*
X153189211Y-64433959D01*
X153189215Y-64433963D01*
X153300168Y-64577499D01*
X153300175Y-64577507D01*
X153300182Y-64577516D01*
X153316788Y-64595578D01*
X153323902Y-64603316D01*
X153354945Y-64631774D01*
X153355365Y-64632155D01*
X153356121Y-64632843D01*
X153356122Y-64632844D01*
X153385351Y-64649193D01*
X153435938Y-64677490D01*
X153502977Y-64697175D01*
X153560875Y-64705500D01*
X153560879Y-64705500D01*
X156606000Y-64705500D01*
X156673039Y-64725185D01*
X156718794Y-64777989D01*
X156730000Y-64829500D01*
X156730000Y-67454054D01*
X156710315Y-67521093D01*
X156657511Y-67566848D01*
X156630198Y-67575670D01*
X156626372Y-67576431D01*
X156626369Y-67576432D01*
X156560047Y-67620747D01*
X156515732Y-67687069D01*
X156515731Y-67687070D01*
X156504100Y-67745547D01*
X156504100Y-68750252D01*
X156515731Y-68808729D01*
X156515732Y-68808730D01*
X156560047Y-68875052D01*
X156626369Y-68919367D01*
X156626370Y-68919368D01*
X156684847Y-68930999D01*
X156684850Y-68931000D01*
X156684852Y-68931000D01*
X157425500Y-68931000D01*
X157492539Y-68950685D01*
X157538294Y-69003489D01*
X157549500Y-69055000D01*
X157549500Y-69600500D01*
X157529815Y-69667539D01*
X157477011Y-69713294D01*
X157425500Y-69724500D01*
X156520730Y-69724500D01*
X156490300Y-69727353D01*
X156490298Y-69727353D01*
X156362119Y-69772206D01*
X156362117Y-69772207D01*
X156252850Y-69852850D01*
X156172207Y-69962117D01*
X156172206Y-69962119D01*
X156127353Y-70090298D01*
X156127353Y-70090300D01*
X156124500Y-70120730D01*
X156124500Y-70954269D01*
X156127353Y-70984699D01*
X156127353Y-70984701D01*
X156169532Y-71105237D01*
X156172207Y-71112882D01*
X156252850Y-71222150D01*
X156362118Y-71302793D01*
X156404845Y-71317744D01*
X156490299Y-71347646D01*
X156520730Y-71350500D01*
X156520734Y-71350500D01*
X159479270Y-71350500D01*
X159509699Y-71347646D01*
X159509701Y-71347646D01*
X159573790Y-71325219D01*
X159637882Y-71302793D01*
X159747150Y-71222150D01*
X159827793Y-71112882D01*
X159857833Y-71027032D01*
X159872646Y-70984701D01*
X159872646Y-70984699D01*
X159875500Y-70954269D01*
X159875500Y-70120730D01*
X159872646Y-70090300D01*
X159872646Y-70090298D01*
X159827793Y-69962119D01*
X159827792Y-69962117D01*
X159747150Y-69852850D01*
X159637882Y-69772207D01*
X159637880Y-69772206D01*
X159509700Y-69727353D01*
X159479270Y-69724500D01*
X159479266Y-69724500D01*
X158574500Y-69724500D01*
X158507461Y-69704815D01*
X158461706Y-69652011D01*
X158450500Y-69600500D01*
X158450500Y-69055000D01*
X158470185Y-68987961D01*
X158522989Y-68942206D01*
X158574500Y-68931000D01*
X159315150Y-68931000D01*
X159315151Y-68930999D01*
X159329968Y-68928052D01*
X159373629Y-68919368D01*
X159373629Y-68919367D01*
X159373631Y-68919367D01*
X159439952Y-68875052D01*
X159484267Y-68808731D01*
X159484267Y-68808729D01*
X159484268Y-68808729D01*
X159495899Y-68750252D01*
X159495900Y-68750250D01*
X159495900Y-67826432D01*
X167384172Y-67826432D01*
X167384172Y-67826445D01*
X167403336Y-68057736D01*
X167403338Y-68057747D01*
X167460314Y-68282739D01*
X167553547Y-68495287D01*
X167680488Y-68689586D01*
X167680491Y-68689590D01*
X167680493Y-68689592D01*
X167837688Y-68860352D01*
X167837691Y-68860354D01*
X167837694Y-68860357D01*
X168020837Y-69002903D01*
X168020843Y-69002907D01*
X168020846Y-69002909D01*
X168117102Y-69055000D01*
X168205520Y-69102850D01*
X168224969Y-69113375D01*
X168338959Y-69152507D01*
X168444487Y-69188736D01*
X168444489Y-69188736D01*
X168444491Y-69188737D01*
X168673423Y-69226939D01*
X168673424Y-69226939D01*
X168905520Y-69226939D01*
X168905521Y-69226939D01*
X169134453Y-69188737D01*
X169353975Y-69113375D01*
X169558098Y-69002909D01*
X169741256Y-68860352D01*
X169898451Y-68689592D01*
X170025396Y-68495288D01*
X170118629Y-68282739D01*
X170175606Y-68057744D01*
X170194772Y-67826439D01*
X170194772Y-67826432D01*
X170175607Y-67595141D01*
X170175605Y-67595130D01*
X170118629Y-67370138D01*
X170025396Y-67157590D01*
X169898455Y-66963291D01*
X169898452Y-66963288D01*
X169898451Y-66963286D01*
X169741256Y-66792526D01*
X169741251Y-66792522D01*
X169741249Y-66792520D01*
X169558106Y-66649974D01*
X169558100Y-66649970D01*
X169353976Y-66539503D01*
X169353967Y-66539500D01*
X169134456Y-66464141D01*
X168962754Y-66435489D01*
X168905521Y-66425939D01*
X168673423Y-66425939D01*
X168627636Y-66433579D01*
X168444487Y-66464141D01*
X168224976Y-66539500D01*
X168224967Y-66539503D01*
X168020843Y-66649970D01*
X168020837Y-66649974D01*
X167837694Y-66792520D01*
X167837691Y-66792523D01*
X167837688Y-66792525D01*
X167837688Y-66792526D01*
X167781990Y-66853030D01*
X167680488Y-66963291D01*
X167553547Y-67157590D01*
X167460314Y-67370138D01*
X167403338Y-67595130D01*
X167403336Y-67595141D01*
X167384172Y-67826432D01*
X159495900Y-67826432D01*
X159495900Y-67745549D01*
X159495899Y-67745547D01*
X159484268Y-67687070D01*
X159484267Y-67687069D01*
X159439952Y-67620747D01*
X159373630Y-67576432D01*
X159373627Y-67576431D01*
X159369802Y-67575670D01*
X159307892Y-67543281D01*
X159273322Y-67482563D01*
X159270000Y-67454054D01*
X159270000Y-64829500D01*
X159289685Y-64762461D01*
X159342489Y-64716706D01*
X159394000Y-64705500D01*
X160923369Y-64705500D01*
X160950570Y-64701832D01*
X160977776Y-64698165D01*
X161041098Y-64680778D01*
X161061526Y-64674001D01*
X161137154Y-64622575D01*
X161184741Y-64571416D01*
X161218068Y-64523375D01*
X161220040Y-64519432D01*
X161220050Y-64519413D01*
X161469428Y-64020656D01*
X161481747Y-63990117D01*
X161493576Y-63952310D01*
X161496036Y-63921707D01*
X161500727Y-63863364D01*
X161525720Y-63798117D01*
X161582021Y-63756741D01*
X161624328Y-63749300D01*
X162517400Y-63749300D01*
X162517400Y-62250700D01*
X161829500Y-62250700D01*
X161762461Y-62231015D01*
X161716706Y-62178211D01*
X161705500Y-62126700D01*
X161705500Y-59236247D01*
X162048500Y-59236247D01*
X162048500Y-60335752D01*
X162060131Y-60394229D01*
X162060132Y-60394230D01*
X162104447Y-60460552D01*
X162170769Y-60504867D01*
X162170770Y-60504868D01*
X162229247Y-60516499D01*
X162229250Y-60516500D01*
X162229252Y-60516500D01*
X164868750Y-60516500D01*
X164868751Y-60516499D01*
X164883568Y-60513552D01*
X164927229Y-60504868D01*
X164927229Y-60504867D01*
X164927231Y-60504867D01*
X164993552Y-60460552D01*
X165037867Y-60394231D01*
X165037867Y-60394229D01*
X165037868Y-60394229D01*
X165049499Y-60335752D01*
X165049500Y-60335750D01*
X165049500Y-60260500D01*
X165069185Y-60193461D01*
X165121989Y-60147706D01*
X165173500Y-60136500D01*
X166089456Y-60136500D01*
X166156495Y-60156185D01*
X166177137Y-60172819D01*
X166613181Y-60608863D01*
X166646666Y-60670186D01*
X166649500Y-60696544D01*
X166649500Y-61383110D01*
X166665987Y-61444644D01*
X166673384Y-61472250D01*
X166673387Y-61472257D01*
X166719527Y-61552175D01*
X166719531Y-61552180D01*
X168397912Y-63230560D01*
X168431397Y-63291883D01*
X168432562Y-63318312D01*
X168434222Y-63318312D01*
X168434222Y-63326439D01*
X168453142Y-63470147D01*
X168453143Y-63470151D01*
X168508609Y-63604061D01*
X168508610Y-63604063D01*
X168508611Y-63604064D01*
X168596851Y-63719060D01*
X168711847Y-63807300D01*
X168845763Y-63862769D01*
X168972752Y-63879487D01*
X168989471Y-63881689D01*
X168989472Y-63881689D01*
X168989473Y-63881689D01*
X169004449Y-63879717D01*
X169133181Y-63862769D01*
X169267097Y-63807300D01*
X169382093Y-63719060D01*
X169470333Y-63604064D01*
X169525802Y-63470148D01*
X169544722Y-63326439D01*
X169525802Y-63182730D01*
X169470333Y-63048814D01*
X169382093Y-62933818D01*
X169267097Y-62845578D01*
X169267096Y-62845577D01*
X169267094Y-62845576D01*
X169133184Y-62790110D01*
X169133182Y-62790109D01*
X169133181Y-62790109D01*
X169042110Y-62778119D01*
X168989473Y-62771189D01*
X168981345Y-62771189D01*
X168981345Y-62767716D01*
X168927885Y-62759116D01*
X168893593Y-62734879D01*
X167386819Y-61228104D01*
X167353334Y-61166781D01*
X167350500Y-61140423D01*
X167350500Y-60453858D01*
X167350500Y-60453856D01*
X167326614Y-60364712D01*
X167280469Y-60284787D01*
X166501212Y-59505530D01*
X166501211Y-59505529D01*
X166501208Y-59505527D01*
X166421290Y-59459387D01*
X166421289Y-59459386D01*
X166421288Y-59459386D01*
X166332144Y-59435500D01*
X166332143Y-59435500D01*
X165173500Y-59435500D01*
X165106461Y-59415815D01*
X165060706Y-59363011D01*
X165049500Y-59311500D01*
X165049500Y-59236249D01*
X165049499Y-59236247D01*
X165037868Y-59177770D01*
X165037867Y-59177769D01*
X164993552Y-59111447D01*
X164927230Y-59067132D01*
X164927229Y-59067131D01*
X164868752Y-59055500D01*
X164868748Y-59055500D01*
X162229252Y-59055500D01*
X162229247Y-59055500D01*
X162170770Y-59067131D01*
X162170769Y-59067132D01*
X162104447Y-59111447D01*
X162060132Y-59177769D01*
X162060131Y-59177770D01*
X162048500Y-59236247D01*
X161705500Y-59236247D01*
X161705500Y-57889811D01*
X161725185Y-57822772D01*
X161777989Y-57777017D01*
X161847147Y-57767073D01*
X161910703Y-57796098D01*
X161923214Y-57808610D01*
X161928653Y-57814888D01*
X161928655Y-57814889D01*
X161946246Y-57832843D01*
X161946247Y-57832844D01*
X161946249Y-57832845D01*
X162026059Y-57877488D01*
X162026063Y-57877490D01*
X162093102Y-57897175D01*
X162151000Y-57905500D01*
X162151004Y-57905500D01*
X165002991Y-57905500D01*
X165003000Y-57905500D01*
X165046684Y-57900803D01*
X165075875Y-57894452D01*
X165098174Y-57889602D01*
X165098190Y-57889598D01*
X165098195Y-57889597D01*
X165108373Y-57887110D01*
X165189085Y-57844100D01*
X165241889Y-57798345D01*
X165259843Y-57780754D01*
X165304490Y-57700937D01*
X165324175Y-57633898D01*
X165332500Y-57576000D01*
X165332500Y-54124000D01*
X165327803Y-54080316D01*
X165322091Y-54054060D01*
X165316602Y-54028825D01*
X165316322Y-54027679D01*
X165314110Y-54018627D01*
X165271100Y-53937915D01*
X165225345Y-53885111D01*
X165225339Y-53885104D01*
X165207757Y-53867160D01*
X165207756Y-53867159D01*
X165207754Y-53867157D01*
X165207752Y-53867156D01*
X165207750Y-53867154D01*
X165127940Y-53822511D01*
X165127935Y-53822509D01*
X165060903Y-53802826D01*
X165060899Y-53802825D01*
X165060898Y-53802825D01*
X165003000Y-53794500D01*
X162151000Y-53794500D01*
X162150992Y-53794500D01*
X162107313Y-53799197D01*
X162055825Y-53810397D01*
X162045627Y-53812890D01*
X162045624Y-53812891D01*
X161964916Y-53855899D01*
X161964913Y-53855901D01*
X161912104Y-53901660D01*
X161894160Y-53919242D01*
X161894154Y-53919249D01*
X161849511Y-53999059D01*
X161849509Y-53999064D01*
X161829826Y-54066096D01*
X161829825Y-54066101D01*
X161829825Y-54066102D01*
X161821502Y-54123992D01*
X161821500Y-54124003D01*
X161821500Y-54657526D01*
X161801815Y-54724565D01*
X161749011Y-54770320D01*
X161679853Y-54780264D01*
X161616297Y-54751239D01*
X161606532Y-54741792D01*
X161590307Y-54724276D01*
X161590299Y-54724269D01*
X161544816Y-54687435D01*
X161544814Y-54687433D01*
X161544806Y-54687428D01*
X161543004Y-54686353D01*
X161542992Y-54686346D01*
X160461667Y-54041053D01*
X160410967Y-54019407D01*
X160347434Y-54001892D01*
X160347422Y-54001889D01*
X160299032Y-53995341D01*
X160292813Y-53994500D01*
X153766088Y-53994500D01*
X153766085Y-53994500D01*
X153762052Y-53994539D01*
X153757780Y-53994623D01*
X153757121Y-53994637D01*
X153757119Y-53994637D01*
X153757108Y-53994638D01*
X153695549Y-54005361D01*
X153629341Y-54027679D01*
X153629329Y-54027684D01*
X153577138Y-54054060D01*
X153577135Y-54054061D01*
X152662052Y-54694618D01*
X152631736Y-54720566D01*
X152623374Y-54729266D01*
X152600030Y-54753553D01*
X152598512Y-54755132D01*
X152594156Y-54759807D01*
X152549511Y-54839620D01*
X152549509Y-54839625D01*
X152529826Y-54906657D01*
X152521500Y-54964564D01*
X141114700Y-54964564D01*
X136916088Y-50765952D01*
X136916086Y-50765950D01*
X136864722Y-50736295D01*
X136813360Y-50706640D01*
X136801252Y-50703396D01*
X136789145Y-50700152D01*
X136789142Y-50700151D01*
X136750950Y-50689917D01*
X136698781Y-50675939D01*
X108830163Y-50675939D01*
X108739797Y-50700152D01*
X108739796Y-50700151D01*
X108715587Y-50706639D01*
X108715578Y-50706643D01*
X108612864Y-50765944D01*
X108612856Y-50765950D01*
X98839513Y-60539294D01*
X98839509Y-60539300D01*
X98780201Y-60642023D01*
X98780200Y-60642028D01*
X98749500Y-60756602D01*
X98749500Y-65762034D01*
X98729815Y-65829073D01*
X98713181Y-65849715D01*
X97823277Y-66739620D01*
X97761954Y-66773105D01*
X97735596Y-66775939D01*
X82340334Y-66775939D01*
X82273295Y-66756254D01*
X82252653Y-66739620D01*
X81139472Y-65626439D01*
X73389472Y-65626439D01*
X73389470Y-65626439D01*
X71890244Y-66876438D01*
X71890243Y-66876439D01*
X71889472Y-112626440D01*
X73389471Y-114126438D01*
X73389472Y-114126439D01*
X101835493Y-114026628D01*
X101902600Y-114046077D01*
X101926390Y-114065818D01*
X103354841Y-115589499D01*
X103386331Y-115651870D01*
X103388347Y-115677063D01*
X103289472Y-120126439D01*
X110485440Y-128643406D01*
X113126833Y-131769693D01*
X113639472Y-132376439D01*
X159639471Y-132376439D01*
X159639472Y-132376439D01*
X176639472Y-112876439D01*
X176639472Y-96326432D01*
X178284172Y-96326432D01*
X178284172Y-96326445D01*
X178303336Y-96557736D01*
X178303338Y-96557747D01*
X178360314Y-96782739D01*
X178453547Y-96995287D01*
X178580488Y-97189586D01*
X178580491Y-97189590D01*
X178580493Y-97189592D01*
X178737688Y-97360352D01*
X178737691Y-97360354D01*
X178737694Y-97360357D01*
X178920837Y-97502903D01*
X178920843Y-97502907D01*
X178920846Y-97502909D01*
X179124969Y-97613375D01*
X179238959Y-97652507D01*
X179344487Y-97688736D01*
X179344489Y-97688736D01*
X179344491Y-97688737D01*
X179573423Y-97726939D01*
X179573424Y-97726939D01*
X179805520Y-97726939D01*
X179805521Y-97726939D01*
X180034453Y-97688737D01*
X180253975Y-97613375D01*
X180458098Y-97502909D01*
X180466996Y-97495984D01*
X180519601Y-97455039D01*
X180641256Y-97360352D01*
X180798451Y-97189592D01*
X180925396Y-96995288D01*
X181018629Y-96782739D01*
X181075606Y-96557744D01*
X181083449Y-96463096D01*
X181094772Y-96326445D01*
X181094772Y-96326432D01*
X181075607Y-96095141D01*
X181075605Y-96095130D01*
X181018629Y-95870138D01*
X180925396Y-95657590D01*
X180798455Y-95463291D01*
X180798452Y-95463288D01*
X180798451Y-95463286D01*
X180641256Y-95292526D01*
X180641251Y-95292522D01*
X180641249Y-95292520D01*
X180458106Y-95149974D01*
X180458100Y-95149970D01*
X180253976Y-95039503D01*
X180253967Y-95039500D01*
X180034456Y-94964141D01*
X179860318Y-94935083D01*
X179805521Y-94925939D01*
X179573423Y-94925939D01*
X179527636Y-94933579D01*
X179344487Y-94964141D01*
X179124976Y-95039500D01*
X179124967Y-95039503D01*
X178920843Y-95149970D01*
X178920837Y-95149974D01*
X178737694Y-95292520D01*
X178737691Y-95292523D01*
X178737688Y-95292525D01*
X178737688Y-95292526D01*
X178719909Y-95311839D01*
X178580488Y-95463291D01*
X178453547Y-95657590D01*
X178360314Y-95870138D01*
X178303338Y-96095130D01*
X178303336Y-96095141D01*
X178284172Y-96326432D01*
X176639472Y-96326432D01*
X176639472Y-91926432D01*
X178384172Y-91926432D01*
X178384172Y-91926445D01*
X178403336Y-92157736D01*
X178403338Y-92157747D01*
X178460314Y-92382739D01*
X178553547Y-92595287D01*
X178680488Y-92789586D01*
X178680491Y-92789590D01*
X178680493Y-92789592D01*
X178837688Y-92960352D01*
X178837691Y-92960354D01*
X178837694Y-92960357D01*
X179020837Y-93102903D01*
X179020843Y-93102907D01*
X179020846Y-93102909D01*
X179224969Y-93213375D01*
X179276985Y-93231232D01*
X179444487Y-93288736D01*
X179444489Y-93288736D01*
X179444491Y-93288737D01*
X179673423Y-93326939D01*
X179673424Y-93326939D01*
X179905520Y-93326939D01*
X179905521Y-93326939D01*
X180134453Y-93288737D01*
X180353975Y-93213375D01*
X180558098Y-93102909D01*
X180560951Y-93100689D01*
X180652559Y-93029387D01*
X180741256Y-92960352D01*
X180898451Y-92789592D01*
X181025396Y-92595288D01*
X181118629Y-92382739D01*
X181175606Y-92157744D01*
X181175607Y-92157736D01*
X181194772Y-91926445D01*
X181194772Y-91926432D01*
X181175607Y-91695141D01*
X181175605Y-91695130D01*
X181118629Y-91470138D01*
X181025396Y-91257590D01*
X180898455Y-91063291D01*
X180898452Y-91063288D01*
X180898451Y-91063286D01*
X180741256Y-90892526D01*
X180741251Y-90892522D01*
X180741249Y-90892520D01*
X180558106Y-90749974D01*
X180558100Y-90749970D01*
X180353976Y-90639503D01*
X180353967Y-90639500D01*
X180134456Y-90564141D01*
X179957256Y-90534572D01*
X179905521Y-90525939D01*
X179673423Y-90525939D01*
X179627636Y-90533579D01*
X179444487Y-90564141D01*
X179224976Y-90639500D01*
X179224967Y-90639503D01*
X179020843Y-90749970D01*
X179020837Y-90749974D01*
X178837694Y-90892520D01*
X178837691Y-90892523D01*
X178837688Y-90892525D01*
X178837688Y-90892526D01*
X178803372Y-90929803D01*
X178680488Y-91063291D01*
X178553547Y-91257590D01*
X178460314Y-91470138D01*
X178403338Y-91695130D01*
X178403336Y-91695141D01*
X178384172Y-91926432D01*
X176639472Y-91926432D01*
X176639472Y-90226439D01*
X175639472Y-89426439D01*
X174469072Y-89426439D01*
X174402033Y-89406754D01*
X174356278Y-89353950D01*
X174345072Y-89302439D01*
X174345072Y-89285139D01*
X173633872Y-89285139D01*
X173633872Y-89302439D01*
X173614187Y-89369478D01*
X173561383Y-89415233D01*
X173509872Y-89426439D01*
X171422285Y-89426439D01*
X171391689Y-89417455D01*
X171375765Y-89424958D01*
X171356659Y-89426439D01*
X170685847Y-89426439D01*
X170618808Y-89406754D01*
X170598166Y-89390120D01*
X169672942Y-88464896D01*
X169672937Y-88464892D01*
X169593020Y-88418752D01*
X169593016Y-88418750D01*
X169589659Y-88417851D01*
X169589659Y-88417850D01*
X169519572Y-88399071D01*
X169503873Y-88394865D01*
X168540085Y-88394865D01*
X168540083Y-88394865D01*
X168538377Y-88395090D01*
X168518324Y-88396089D01*
X168009599Y-88380191D01*
X167943207Y-88358423D01*
X167899124Y-88304215D01*
X167889472Y-88256252D01*
X167889472Y-88183913D01*
X167909157Y-88116874D01*
X167961961Y-88071119D01*
X168013472Y-88059913D01*
X169177479Y-88059913D01*
X169177480Y-88059912D01*
X169192297Y-88056965D01*
X169235958Y-88048281D01*
X169235958Y-88048280D01*
X169235960Y-88048280D01*
X169302281Y-88003965D01*
X169346596Y-87937644D01*
X169346596Y-87937642D01*
X169346597Y-87937642D01*
X169358228Y-87879165D01*
X169358229Y-87879163D01*
X169358229Y-87719487D01*
X169377914Y-87652448D01*
X169430718Y-87606693D01*
X169482229Y-87595487D01*
X169641488Y-87595487D01*
X169708527Y-87615172D01*
X169729169Y-87631806D01*
X170825540Y-88728177D01*
X170852420Y-88768406D01*
X170908609Y-88904061D01*
X170908610Y-88904063D01*
X170908611Y-88904064D01*
X170996851Y-89019060D01*
X171111847Y-89107300D01*
X171245763Y-89162769D01*
X171369538Y-89179064D01*
X171372845Y-89179500D01*
X171385087Y-89184915D01*
X171387350Y-89183462D01*
X171406099Y-89179500D01*
X171409029Y-89179114D01*
X171533181Y-89162769D01*
X171667097Y-89107300D01*
X171782093Y-89019060D01*
X171870333Y-88904064D01*
X171925802Y-88770148D01*
X171944722Y-88626439D01*
X171925802Y-88482730D01*
X171870333Y-88348814D01*
X171782093Y-88233818D01*
X171717056Y-88183913D01*
X171676546Y-88152828D01*
X171635344Y-88096400D01*
X171631189Y-88026654D01*
X171665402Y-87965734D01*
X171727119Y-87932982D01*
X171752329Y-87930454D01*
X189318279Y-87974185D01*
X189385269Y-87994037D01*
X189415572Y-88021700D01*
X189454299Y-88071119D01*
X189863074Y-88592753D01*
X189888930Y-88657661D01*
X189889472Y-88669237D01*
X189889472Y-134675500D01*
X189869787Y-134742539D01*
X189816983Y-134788294D01*
X189765472Y-134799500D01*
X70002706Y-134799500D01*
X69997297Y-134799382D01*
X69587102Y-134781472D01*
X69576326Y-134780529D01*
X69171950Y-134727292D01*
X69161296Y-134725414D01*
X68763078Y-134637131D01*
X68752630Y-134634331D01*
X68363639Y-134511683D01*
X68353473Y-134507983D01*
X67976642Y-134351894D01*
X67966838Y-134347322D01*
X67847126Y-134285004D01*
X67605042Y-134158983D01*
X67595686Y-134153582D01*
X67423685Y-134044004D01*
X67251690Y-133934431D01*
X67242829Y-133928227D01*
X66919233Y-133679923D01*
X66910946Y-133672969D01*
X66610232Y-133397416D01*
X66602583Y-133389767D01*
X66327030Y-133089053D01*
X66320076Y-133080766D01*
X66071772Y-132757170D01*
X66065568Y-132748309D01*
X66012070Y-132664334D01*
X65846413Y-132404305D01*
X65841020Y-132394965D01*
X65652674Y-132033155D01*
X65648105Y-132023357D01*
X65555794Y-131800500D01*
X65492015Y-131646524D01*
X65488316Y-131636360D01*
X65482615Y-131618280D01*
X65365667Y-131247365D01*
X65362868Y-131236921D01*
X65274585Y-130838703D01*
X65272707Y-130828049D01*
X65219468Y-130423654D01*
X65218528Y-130412917D01*
X65200618Y-130002702D01*
X65200500Y-129997293D01*
X65200500Y-129881995D01*
X68199500Y-129881995D01*
X68199500Y-130118004D01*
X68199501Y-130118020D01*
X68230306Y-130352010D01*
X68291394Y-130579993D01*
X68381714Y-130798045D01*
X68381719Y-130798056D01*
X68452677Y-130920957D01*
X68499727Y-131002450D01*
X68499729Y-131002453D01*
X68499730Y-131002454D01*
X68643406Y-131189697D01*
X68643412Y-131189704D01*
X68810295Y-131356587D01*
X68810301Y-131356592D01*
X68997550Y-131500273D01*
X69128918Y-131576118D01*
X69201943Y-131618280D01*
X69201948Y-131618282D01*
X69201951Y-131618284D01*
X69420007Y-131708606D01*
X69647986Y-131769693D01*
X69881989Y-131800500D01*
X69881996Y-131800500D01*
X70118004Y-131800500D01*
X70118011Y-131800500D01*
X70352014Y-131769693D01*
X70579993Y-131708606D01*
X70798049Y-131618284D01*
X71002450Y-131500273D01*
X71189699Y-131356592D01*
X71356592Y-131189699D01*
X71500273Y-131002450D01*
X71618284Y-130798049D01*
X71708606Y-130579993D01*
X71769693Y-130352014D01*
X71800500Y-130118011D01*
X71800500Y-129881989D01*
X71769693Y-129647986D01*
X71708606Y-129420007D01*
X71618284Y-129201951D01*
X71618282Y-129201948D01*
X71618280Y-129201943D01*
X71549069Y-129082067D01*
X71500273Y-128997550D01*
X71441001Y-128920306D01*
X71356593Y-128810302D01*
X71356587Y-128810295D01*
X71189704Y-128643412D01*
X71189697Y-128643406D01*
X71002454Y-128499730D01*
X71002453Y-128499729D01*
X71002450Y-128499727D01*
X70920957Y-128452677D01*
X70798056Y-128381719D01*
X70798045Y-128381714D01*
X70579993Y-128291394D01*
X70352010Y-128230306D01*
X70118020Y-128199501D01*
X70118017Y-128199500D01*
X70118011Y-128199500D01*
X69881989Y-128199500D01*
X69881983Y-128199500D01*
X69881979Y-128199501D01*
X69647989Y-128230306D01*
X69420006Y-128291394D01*
X69201954Y-128381714D01*
X69201943Y-128381719D01*
X68997545Y-128499730D01*
X68810302Y-128643406D01*
X68810295Y-128643412D01*
X68643412Y-128810295D01*
X68643406Y-128810302D01*
X68499730Y-128997545D01*
X68381719Y-129201943D01*
X68381714Y-129201954D01*
X68291394Y-129420006D01*
X68230306Y-129647989D01*
X68199501Y-129881979D01*
X68199500Y-129881995D01*
X65200500Y-129881995D01*
X65200500Y-100223031D01*
X66176129Y-100223031D01*
X66176129Y-100505680D01*
X66176130Y-100505696D01*
X66213022Y-100785921D01*
X66213023Y-100785926D01*
X66213024Y-100785932D01*
X66286182Y-101058962D01*
X66286185Y-101058972D01*
X66394350Y-101320106D01*
X66394355Y-101320117D01*
X66535679Y-101564895D01*
X66535690Y-101564911D01*
X66707756Y-101789152D01*
X66707762Y-101789159D01*
X66907625Y-101989022D01*
X66907631Y-101989027D01*
X67131882Y-102161101D01*
X67131889Y-102161105D01*
X67376667Y-102302429D01*
X67376672Y-102302431D01*
X67376675Y-102302433D01*
X67637822Y-102410603D01*
X67910853Y-102483761D01*
X68191098Y-102520656D01*
X68191105Y-102520656D01*
X68473753Y-102520656D01*
X68473760Y-102520656D01*
X68754005Y-102483761D01*
X69027036Y-102410603D01*
X69288183Y-102302433D01*
X69532976Y-102161101D01*
X69757227Y-101989027D01*
X69957100Y-101789154D01*
X70129174Y-101564903D01*
X70270506Y-101320110D01*
X70378676Y-101058963D01*
X70451834Y-100785932D01*
X70488729Y-100505687D01*
X70488729Y-100223025D01*
X70451834Y-99942780D01*
X70378676Y-99669749D01*
X70270506Y-99408602D01*
X70270504Y-99408599D01*
X70270502Y-99408594D01*
X70129178Y-99163816D01*
X70129174Y-99163809D01*
X69992917Y-98986236D01*
X69957101Y-98939559D01*
X69957095Y-98939552D01*
X69757232Y-98739689D01*
X69757225Y-98739683D01*
X69532984Y-98567617D01*
X69532982Y-98567615D01*
X69532976Y-98567611D01*
X69532971Y-98567608D01*
X69532968Y-98567606D01*
X69288190Y-98426282D01*
X69288179Y-98426277D01*
X69027045Y-98318112D01*
X69027038Y-98318110D01*
X69027036Y-98318109D01*
X68754005Y-98244951D01*
X68753999Y-98244950D01*
X68753994Y-98244949D01*
X68473769Y-98208057D01*
X68473766Y-98208056D01*
X68473760Y-98208056D01*
X68191098Y-98208056D01*
X68191092Y-98208056D01*
X68191088Y-98208057D01*
X67910863Y-98244949D01*
X67910856Y-98244950D01*
X67910853Y-98244951D01*
X67846128Y-98262294D01*
X67637822Y-98318109D01*
X67637812Y-98318112D01*
X67376678Y-98426277D01*
X67376667Y-98426282D01*
X67131889Y-98567606D01*
X67131873Y-98567617D01*
X66907632Y-98739683D01*
X66907625Y-98739689D01*
X66707762Y-98939552D01*
X66707756Y-98939559D01*
X66535690Y-99163800D01*
X66535679Y-99163816D01*
X66394355Y-99408594D01*
X66394350Y-99408605D01*
X66286185Y-99669739D01*
X66286182Y-99669749D01*
X66213025Y-99942777D01*
X66213022Y-99942790D01*
X66176130Y-100223015D01*
X66176129Y-100223031D01*
X65200500Y-100223031D01*
X65200500Y-79523032D01*
X66176129Y-79523032D01*
X66176129Y-79805681D01*
X66176130Y-79805697D01*
X66213022Y-80085922D01*
X66213023Y-80085927D01*
X66213024Y-80085933D01*
X66286182Y-80358963D01*
X66286185Y-80358973D01*
X66394350Y-80620107D01*
X66394355Y-80620118D01*
X66535679Y-80864896D01*
X66535690Y-80864912D01*
X66707756Y-81089153D01*
X66707762Y-81089160D01*
X66907625Y-81289023D01*
X66907632Y-81289029D01*
X66972409Y-81338734D01*
X67131882Y-81461102D01*
X67131889Y-81461106D01*
X67376667Y-81602430D01*
X67376672Y-81602432D01*
X67376675Y-81602434D01*
X67432362Y-81625500D01*
X67583016Y-81687903D01*
X67637822Y-81710604D01*
X67910853Y-81783762D01*
X68191098Y-81820657D01*
X68191105Y-81820657D01*
X68473753Y-81820657D01*
X68473760Y-81820657D01*
X68754005Y-81783762D01*
X69027036Y-81710604D01*
X69288183Y-81602434D01*
X69532976Y-81461102D01*
X69757227Y-81289028D01*
X69957100Y-81089155D01*
X70129174Y-80864904D01*
X70270506Y-80620111D01*
X70378676Y-80358964D01*
X70451834Y-80085933D01*
X70488729Y-79805688D01*
X70488729Y-79523026D01*
X70451834Y-79242781D01*
X70378676Y-78969750D01*
X70378672Y-78969740D01*
X70270507Y-78708605D01*
X70270502Y-78708595D01*
X70129178Y-78463817D01*
X70129174Y-78463810D01*
X69957100Y-78239559D01*
X69957095Y-78239553D01*
X69757232Y-78039690D01*
X69757225Y-78039684D01*
X69532984Y-77867618D01*
X69532982Y-77867616D01*
X69532976Y-77867612D01*
X69532971Y-77867609D01*
X69532968Y-77867607D01*
X69288190Y-77726283D01*
X69288179Y-77726278D01*
X69027045Y-77618113D01*
X69027038Y-77618111D01*
X69027036Y-77618110D01*
X68754005Y-77544952D01*
X68753999Y-77544951D01*
X68753994Y-77544950D01*
X68473769Y-77508058D01*
X68473766Y-77508057D01*
X68473760Y-77508057D01*
X68191098Y-77508057D01*
X68191092Y-77508057D01*
X68191088Y-77508058D01*
X67910863Y-77544950D01*
X67910856Y-77544951D01*
X67910853Y-77544952D01*
X67637822Y-77618110D01*
X67637812Y-77618113D01*
X67376678Y-77726278D01*
X67376667Y-77726283D01*
X67131889Y-77867607D01*
X67131873Y-77867618D01*
X66907632Y-78039684D01*
X66907625Y-78039690D01*
X66707762Y-78239553D01*
X66707756Y-78239560D01*
X66535690Y-78463801D01*
X66535679Y-78463817D01*
X66394355Y-78708595D01*
X66394351Y-78708605D01*
X66286185Y-78969740D01*
X66286182Y-78969750D01*
X66213441Y-79241227D01*
X66213025Y-79242778D01*
X66213022Y-79242791D01*
X66176130Y-79523016D01*
X66176129Y-79523032D01*
X65200500Y-79523032D01*
X65200500Y-40002706D01*
X65200618Y-39997297D01*
X65205652Y-39881995D01*
X68199500Y-39881995D01*
X68199500Y-40118004D01*
X68199501Y-40118020D01*
X68230306Y-40352010D01*
X68291394Y-40579993D01*
X68381714Y-40798045D01*
X68381719Y-40798056D01*
X68452677Y-40920957D01*
X68499727Y-41002450D01*
X68499729Y-41002453D01*
X68499730Y-41002454D01*
X68643406Y-41189697D01*
X68643412Y-41189704D01*
X68810295Y-41356587D01*
X68810301Y-41356592D01*
X68997550Y-41500273D01*
X69128918Y-41576118D01*
X69201943Y-41618280D01*
X69201948Y-41618282D01*
X69201951Y-41618284D01*
X69420007Y-41708606D01*
X69647986Y-41769693D01*
X69881989Y-41800500D01*
X69881996Y-41800500D01*
X70118004Y-41800500D01*
X70118011Y-41800500D01*
X70352014Y-41769693D01*
X70579993Y-41708606D01*
X70798049Y-41618284D01*
X71002450Y-41500273D01*
X71189699Y-41356592D01*
X71356592Y-41189699D01*
X71500273Y-41002450D01*
X71618284Y-40798049D01*
X71708606Y-40579993D01*
X71769693Y-40352014D01*
X71800500Y-40118011D01*
X71800500Y-39881989D01*
X71769693Y-39647986D01*
X71708606Y-39420007D01*
X71618284Y-39201951D01*
X71618282Y-39201948D01*
X71618280Y-39201943D01*
X71576118Y-39128918D01*
X71500273Y-38997550D01*
X71356592Y-38810301D01*
X71356587Y-38810295D01*
X71189704Y-38643412D01*
X71189697Y-38643406D01*
X71002454Y-38499730D01*
X71002453Y-38499729D01*
X71002450Y-38499727D01*
X70920957Y-38452677D01*
X70798056Y-38381719D01*
X70798045Y-38381714D01*
X70579993Y-38291394D01*
X70352010Y-38230306D01*
X70118020Y-38199501D01*
X70118017Y-38199500D01*
X70118011Y-38199500D01*
X69881989Y-38199500D01*
X69881983Y-38199500D01*
X69881979Y-38199501D01*
X69647989Y-38230306D01*
X69420006Y-38291394D01*
X69201954Y-38381714D01*
X69201943Y-38381719D01*
X68997545Y-38499730D01*
X68810302Y-38643406D01*
X68810295Y-38643412D01*
X68643412Y-38810295D01*
X68643406Y-38810302D01*
X68499730Y-38997545D01*
X68381719Y-39201943D01*
X68381714Y-39201954D01*
X68291394Y-39420006D01*
X68230306Y-39647989D01*
X68199501Y-39881979D01*
X68199500Y-39881995D01*
X65205652Y-39881995D01*
X65218528Y-39587080D01*
X65219468Y-39576347D01*
X65272709Y-39171938D01*
X65274582Y-39161308D01*
X65362870Y-38763068D01*
X65365668Y-38752630D01*
X65488319Y-38363629D01*
X65492016Y-38353473D01*
X65648111Y-37976627D01*
X65652669Y-37966853D01*
X65841025Y-37605024D01*
X65846407Y-37595703D01*
X66065574Y-37251680D01*
X66071765Y-37242837D01*
X66320083Y-36919224D01*
X66327021Y-36910955D01*
X66602594Y-36610220D01*
X66610220Y-36602594D01*
X66910955Y-36327021D01*
X66919224Y-36320083D01*
X67242837Y-36071765D01*
X67251680Y-36065574D01*
X67595703Y-35846407D01*
X67605024Y-35841025D01*
X67966853Y-35652669D01*
X67976627Y-35648111D01*
X68353482Y-35492012D01*
X68363629Y-35488319D01*
X68752639Y-35365665D01*
X68763068Y-35362870D01*
X69161308Y-35274582D01*
X69171938Y-35272709D01*
X69576347Y-35219468D01*
X69587080Y-35218528D01*
X69997297Y-35200617D01*
X70002706Y-35200500D01*
X170765472Y-35200500D01*
X170832511Y-35220185D01*
G37*
%TD.AperFunction*%
%TA.AperFunction,Conductor*%
G36*
X169289435Y-86646124D02*
G01*
X169326178Y-86682578D01*
X169326716Y-86683400D01*
X169339289Y-86702629D01*
X169359500Y-86769512D01*
X169340343Y-86836704D01*
X169287901Y-86882873D01*
X169235504Y-86894487D01*
X168540085Y-86894487D01*
X168450944Y-86918372D01*
X168450942Y-86918372D01*
X168450941Y-86918373D01*
X168450939Y-86918373D01*
X168445212Y-86920747D01*
X168397756Y-86930187D01*
X168013472Y-86930187D01*
X167946433Y-86910502D01*
X167900678Y-86857698D01*
X167889472Y-86806187D01*
X167889472Y-86750439D01*
X167909157Y-86683400D01*
X167961961Y-86637645D01*
X168013472Y-86626439D01*
X169222396Y-86626439D01*
X169289435Y-86646124D01*
G37*
%TD.AperFunction*%
%TA.AperFunction,Conductor*%
G36*
X136468546Y-51596624D02*
G01*
X136489188Y-51613258D01*
X154513181Y-69637251D01*
X154546666Y-69698574D01*
X154549500Y-69724932D01*
X154549500Y-74972077D01*
X154561466Y-75016736D01*
X154561478Y-75016778D01*
X154580201Y-75086655D01*
X154639511Y-75189382D01*
X154639513Y-75189384D01*
X156088181Y-76638052D01*
X156121666Y-76699375D01*
X156124500Y-76725733D01*
X156124500Y-76879269D01*
X156127353Y-76909699D01*
X156127353Y-76909701D01*
X156164281Y-77015232D01*
X156172207Y-77037882D01*
X156252850Y-77147150D01*
X156362118Y-77227793D01*
X156379337Y-77233818D01*
X156490299Y-77272646D01*
X156520730Y-77275500D01*
X156520734Y-77275500D01*
X157504386Y-77275500D01*
X157571425Y-77295185D01*
X157617180Y-77347989D01*
X157628386Y-77399500D01*
X157628386Y-77897999D01*
X157608701Y-77965038D01*
X157573277Y-78001101D01*
X157559734Y-78010149D01*
X157515419Y-78076471D01*
X157515418Y-78076472D01*
X157503787Y-78134949D01*
X157503787Y-78726854D01*
X157515418Y-78785331D01*
X157515419Y-78785332D01*
X157559734Y-78851654D01*
X157626056Y-78895969D01*
X157626057Y-78895970D01*
X157629878Y-78896730D01*
X157691789Y-78929115D01*
X157726363Y-78989830D01*
X157729687Y-79018347D01*
X157729687Y-79102439D01*
X157710002Y-79169478D01*
X157657198Y-79215233D01*
X157605687Y-79226439D01*
X155443193Y-79226439D01*
X155376154Y-79206754D01*
X155352730Y-79187248D01*
X155348298Y-79182521D01*
X154464273Y-78239560D01*
X153923009Y-77662211D01*
X153891519Y-77599840D01*
X153889472Y-77577402D01*
X153889472Y-71626439D01*
X153889471Y-71626438D01*
X135889473Y-53126439D01*
X135889472Y-53126439D01*
X110889472Y-53126439D01*
X110889471Y-53126439D01*
X103339473Y-62626436D01*
X103339472Y-62626439D01*
X103289923Y-69563187D01*
X103269760Y-69630084D01*
X103238000Y-69663204D01*
X101921808Y-70603342D01*
X101855814Y-70626290D01*
X101849734Y-70626439D01*
X83201472Y-70626439D01*
X83134433Y-70606754D01*
X83102272Y-70576839D01*
X82414272Y-69659505D01*
X82389796Y-69594063D01*
X82389472Y-69585105D01*
X82389472Y-67800939D01*
X82409157Y-67733900D01*
X82461961Y-67688145D01*
X82513472Y-67676939D01*
X98032869Y-67676939D01*
X98032870Y-67676939D01*
X98123234Y-67652725D01*
X98147448Y-67646238D01*
X98250175Y-67586928D01*
X99560490Y-66276614D01*
X99582123Y-66239145D01*
X99619798Y-66173889D01*
X99619800Y-66173884D01*
X99640360Y-66097151D01*
X99640360Y-66097150D01*
X99650500Y-66059309D01*
X99650500Y-61053876D01*
X99670185Y-60986837D01*
X99686819Y-60966195D01*
X109039757Y-51613258D01*
X109101080Y-51579773D01*
X109127438Y-51576939D01*
X136401507Y-51576939D01*
X136468546Y-51596624D01*
G37*
%TD.AperFunction*%
%TD*%
%TA.AperFunction,Conductor*%
%TO.N,Net-(Q601-C)*%
G36*
X160356356Y-54217518D02*
G01*
X161437958Y-54862976D01*
X161439544Y-54863922D01*
X161487024Y-54915180D01*
X161500000Y-54970403D01*
X161500000Y-62126700D01*
X161480315Y-62193739D01*
X161427511Y-62239494D01*
X161376000Y-62250700D01*
X160841000Y-62250700D01*
X160841000Y-63749300D01*
X161174714Y-63749300D01*
X161241753Y-63768985D01*
X161287508Y-63821789D01*
X161297452Y-63890947D01*
X161285623Y-63928754D01*
X161036245Y-64427511D01*
X161034273Y-64431454D01*
X160986686Y-64482613D01*
X160923364Y-64500000D01*
X159394000Y-64500000D01*
X159326961Y-64480315D01*
X159281206Y-64427511D01*
X159270000Y-64376000D01*
X159270000Y-64285500D01*
X156730000Y-64285500D01*
X156730000Y-64376000D01*
X156710315Y-64443039D01*
X156657511Y-64488794D01*
X156606000Y-64500000D01*
X153560875Y-64500000D01*
X153493836Y-64480315D01*
X153462769Y-64451836D01*
X153334191Y-64285500D01*
X152752894Y-63533498D01*
X152727467Y-63468419D01*
X152727000Y-63457662D01*
X152727000Y-54964561D01*
X152746685Y-54897522D01*
X152779891Y-54862976D01*
X153694979Y-54222415D01*
X153761188Y-54200097D01*
X153766088Y-54200000D01*
X160292813Y-54200000D01*
X160356356Y-54217518D01*
G37*
%TD.AperFunction*%
%TD*%
%TA.AperFunction,Conductor*%
%TO.N,AVSS*%
G36*
X210002702Y-35200617D02*
G01*
X210412917Y-35218528D01*
X210423654Y-35219468D01*
X210828057Y-35272708D01*
X210838695Y-35274583D01*
X211236925Y-35362869D01*
X211247365Y-35365667D01*
X211636363Y-35488317D01*
X211646524Y-35492015D01*
X212023363Y-35648108D01*
X212033155Y-35652674D01*
X212394965Y-35841020D01*
X212404305Y-35846413D01*
X212689636Y-36028189D01*
X212748309Y-36065568D01*
X212757170Y-36071772D01*
X213080766Y-36320076D01*
X213089053Y-36327030D01*
X213389767Y-36602583D01*
X213397416Y-36610232D01*
X213672969Y-36910946D01*
X213679923Y-36919233D01*
X213928227Y-37242829D01*
X213934431Y-37251690D01*
X214153578Y-37595680D01*
X214158987Y-37605048D01*
X214347322Y-37966838D01*
X214351894Y-37976642D01*
X214507983Y-38353473D01*
X214511683Y-38363639D01*
X214634331Y-38752630D01*
X214637131Y-38763078D01*
X214725414Y-39161296D01*
X214727292Y-39171950D01*
X214780529Y-39576326D01*
X214781472Y-39587102D01*
X214799382Y-39997297D01*
X214799500Y-40002706D01*
X214799500Y-129997293D01*
X214799382Y-130002702D01*
X214781472Y-130412897D01*
X214780529Y-130423673D01*
X214727292Y-130828049D01*
X214725414Y-130838703D01*
X214637131Y-131236921D01*
X214634331Y-131247369D01*
X214511683Y-131636360D01*
X214507983Y-131646526D01*
X214351894Y-132023357D01*
X214347322Y-132033161D01*
X214158987Y-132394951D01*
X214153578Y-132404319D01*
X213934431Y-132748309D01*
X213928227Y-132757170D01*
X213679923Y-133080766D01*
X213672969Y-133089053D01*
X213397416Y-133389767D01*
X213389767Y-133397416D01*
X213089053Y-133672969D01*
X213080766Y-133679923D01*
X212757170Y-133928227D01*
X212748309Y-133934431D01*
X212404319Y-134153578D01*
X212394951Y-134158987D01*
X212033161Y-134347322D01*
X212023357Y-134351894D01*
X211646526Y-134507983D01*
X211636360Y-134511683D01*
X211247369Y-134634331D01*
X211236921Y-134637131D01*
X210838703Y-134725414D01*
X210828049Y-134727292D01*
X210423673Y-134780529D01*
X210412897Y-134781472D01*
X210002703Y-134799382D01*
X209997294Y-134799500D01*
X204183472Y-134799500D01*
X204116433Y-134779815D01*
X204070678Y-134727011D01*
X204059472Y-134675500D01*
X204059472Y-129881995D01*
X208199500Y-129881995D01*
X208199500Y-130118004D01*
X208199501Y-130118020D01*
X208230306Y-130352010D01*
X208291394Y-130579993D01*
X208381714Y-130798045D01*
X208381719Y-130798056D01*
X208452677Y-130920957D01*
X208499727Y-131002450D01*
X208499729Y-131002453D01*
X208499730Y-131002454D01*
X208643406Y-131189697D01*
X208643412Y-131189704D01*
X208810295Y-131356587D01*
X208810301Y-131356592D01*
X208997550Y-131500273D01*
X209128918Y-131576118D01*
X209201943Y-131618280D01*
X209201948Y-131618282D01*
X209201951Y-131618284D01*
X209420007Y-131708606D01*
X209647986Y-131769693D01*
X209881989Y-131800500D01*
X209881996Y-131800500D01*
X210118004Y-131800500D01*
X210118011Y-131800500D01*
X210352014Y-131769693D01*
X210579993Y-131708606D01*
X210798049Y-131618284D01*
X211002450Y-131500273D01*
X211189699Y-131356592D01*
X211356592Y-131189699D01*
X211500273Y-131002450D01*
X211618284Y-130798049D01*
X211708606Y-130579993D01*
X211769693Y-130352014D01*
X211800500Y-130118011D01*
X211800500Y-129881989D01*
X211769693Y-129647986D01*
X211708606Y-129420007D01*
X211618284Y-129201951D01*
X211618282Y-129201948D01*
X211618280Y-129201943D01*
X211576118Y-129128918D01*
X211500273Y-128997550D01*
X211356592Y-128810301D01*
X211356587Y-128810295D01*
X211189704Y-128643412D01*
X211189697Y-128643406D01*
X211002454Y-128499730D01*
X211002453Y-128499729D01*
X211002450Y-128499727D01*
X210920957Y-128452677D01*
X210798056Y-128381719D01*
X210798045Y-128381714D01*
X210579993Y-128291394D01*
X210352010Y-128230306D01*
X210118020Y-128199501D01*
X210118017Y-128199500D01*
X210118011Y-128199500D01*
X209881989Y-128199500D01*
X209881983Y-128199500D01*
X209881979Y-128199501D01*
X209647989Y-128230306D01*
X209420006Y-128291394D01*
X209201954Y-128381714D01*
X209201943Y-128381719D01*
X208997545Y-128499730D01*
X208810302Y-128643406D01*
X208810295Y-128643412D01*
X208643412Y-128810295D01*
X208643406Y-128810302D01*
X208499730Y-128997545D01*
X208381719Y-129201943D01*
X208381714Y-129201954D01*
X208291394Y-129420006D01*
X208230306Y-129647989D01*
X208199501Y-129881979D01*
X208199500Y-129881995D01*
X204059472Y-129881995D01*
X204059472Y-39881995D01*
X208199500Y-39881995D01*
X208199500Y-40118004D01*
X208199501Y-40118020D01*
X208230306Y-40352010D01*
X208291394Y-40579993D01*
X208381714Y-40798045D01*
X208381719Y-40798056D01*
X208452677Y-40920957D01*
X208499727Y-41002450D01*
X208499729Y-41002453D01*
X208499730Y-41002454D01*
X208643406Y-41189697D01*
X208643412Y-41189704D01*
X208810295Y-41356587D01*
X208810301Y-41356592D01*
X208997550Y-41500273D01*
X209128918Y-41576118D01*
X209201943Y-41618280D01*
X209201948Y-41618282D01*
X209201951Y-41618284D01*
X209420007Y-41708606D01*
X209647986Y-41769693D01*
X209881989Y-41800500D01*
X209881996Y-41800500D01*
X210118004Y-41800500D01*
X210118011Y-41800500D01*
X210352014Y-41769693D01*
X210579993Y-41708606D01*
X210798049Y-41618284D01*
X211002450Y-41500273D01*
X211189699Y-41356592D01*
X211356592Y-41189699D01*
X211500273Y-41002450D01*
X211618284Y-40798049D01*
X211708606Y-40579993D01*
X211769693Y-40352014D01*
X211800500Y-40118011D01*
X211800500Y-39881989D01*
X211769693Y-39647986D01*
X211708606Y-39420007D01*
X211618284Y-39201951D01*
X211618282Y-39201948D01*
X211618280Y-39201943D01*
X211576118Y-39128918D01*
X211500273Y-38997550D01*
X211356592Y-38810301D01*
X211356587Y-38810295D01*
X211189704Y-38643412D01*
X211189697Y-38643406D01*
X211002454Y-38499730D01*
X211002453Y-38499729D01*
X211002450Y-38499727D01*
X210920957Y-38452677D01*
X210798056Y-38381719D01*
X210798045Y-38381714D01*
X210579993Y-38291394D01*
X210352010Y-38230306D01*
X210118020Y-38199501D01*
X210118017Y-38199500D01*
X210118011Y-38199500D01*
X209881989Y-38199500D01*
X209881983Y-38199500D01*
X209881979Y-38199501D01*
X209647989Y-38230306D01*
X209420006Y-38291394D01*
X209201954Y-38381714D01*
X209201943Y-38381719D01*
X208997545Y-38499730D01*
X208810302Y-38643406D01*
X208810295Y-38643412D01*
X208643412Y-38810295D01*
X208643406Y-38810302D01*
X208499730Y-38997545D01*
X208381719Y-39201943D01*
X208381714Y-39201954D01*
X208291394Y-39420006D01*
X208230306Y-39647989D01*
X208199501Y-39881979D01*
X208199500Y-39881995D01*
X204059472Y-39881995D01*
X204059472Y-35324500D01*
X204079157Y-35257461D01*
X204131961Y-35211706D01*
X204183472Y-35200500D01*
X209960118Y-35200500D01*
X209997294Y-35200500D01*
X210002702Y-35200617D01*
G37*
%TD.AperFunction*%
%TD*%
%TA.AperFunction,Conductor*%
%TO.N,Net-(C201-Pad2)*%
G36*
X158005149Y-81946124D02*
G01*
X158025791Y-81962758D01*
X158053153Y-81990120D01*
X158086638Y-82051443D01*
X158089472Y-82077801D01*
X158089472Y-84275077D01*
X158069787Y-84342116D01*
X158053153Y-84362758D01*
X158025791Y-84390120D01*
X157964468Y-84423605D01*
X157938110Y-84426439D01*
X157139472Y-84426439D01*
X156440834Y-84426439D01*
X156373795Y-84406754D01*
X156353153Y-84390120D01*
X156325791Y-84362758D01*
X156292306Y-84301435D01*
X156289472Y-84275077D01*
X156289472Y-82077801D01*
X156309157Y-82010762D01*
X156325791Y-81990120D01*
X156353153Y-81962758D01*
X156414476Y-81929273D01*
X156440834Y-81926439D01*
X157938110Y-81926439D01*
X158005149Y-81946124D01*
G37*
%TD.AperFunction*%
%TD*%
%TA.AperFunction,Conductor*%
%TO.N,AVSS*%
G36*
X190082511Y-35220185D02*
G01*
X190128266Y-35272989D01*
X190139472Y-35324500D01*
X190139472Y-81325077D01*
X190119787Y-81392116D01*
X190103153Y-81412758D01*
X189425791Y-82090120D01*
X189364468Y-82123605D01*
X189338110Y-82126439D01*
X170784515Y-82126439D01*
X170717476Y-82106754D01*
X170671721Y-82053950D01*
X170661777Y-81984792D01*
X170690802Y-81921236D01*
X170696817Y-81914774D01*
X170811777Y-81799814D01*
X170873096Y-81766332D01*
X170925533Y-81770082D01*
X170926162Y-81766924D01*
X170996619Y-81780938D01*
X170996622Y-81780939D01*
X170996624Y-81780939D01*
X171544122Y-81780939D01*
X171544123Y-81780938D01*
X171558940Y-81777991D01*
X171602601Y-81769307D01*
X171602601Y-81769306D01*
X171602603Y-81769306D01*
X171668924Y-81724991D01*
X171713239Y-81658670D01*
X171713239Y-81658668D01*
X171713240Y-81658668D01*
X171714000Y-81654848D01*
X171746385Y-81592937D01*
X171791650Y-81567160D01*
X171803772Y-81555039D01*
X171803772Y-81097839D01*
X171767453Y-81061520D01*
X171770470Y-81058502D01*
X171741743Y-81025350D01*
X171731799Y-80956192D01*
X171760824Y-80892636D01*
X171766843Y-80886170D01*
X172053973Y-80599039D01*
X172115292Y-80565557D01*
X172125450Y-80563786D01*
X172133181Y-80562769D01*
X172267097Y-80507300D01*
X172382093Y-80419060D01*
X172470333Y-80304064D01*
X172525802Y-80170148D01*
X172544722Y-80026439D01*
X172525802Y-79882730D01*
X172470333Y-79748814D01*
X172382093Y-79633818D01*
X172267097Y-79545578D01*
X172267096Y-79545577D01*
X172267094Y-79545576D01*
X172133184Y-79490110D01*
X172133182Y-79490109D01*
X172133181Y-79490109D01*
X172061326Y-79480649D01*
X171989473Y-79471189D01*
X171989471Y-79471189D01*
X171845763Y-79490109D01*
X171845759Y-79490110D01*
X171711849Y-79545576D01*
X171596851Y-79633818D01*
X171508609Y-79748816D01*
X171453141Y-79882730D01*
X171453141Y-79882732D01*
X171452125Y-79890448D01*
X171423856Y-79954343D01*
X171416868Y-79961938D01*
X170909885Y-80468922D01*
X170909881Y-80468928D01*
X170850573Y-80571651D01*
X170850572Y-80571656D01*
X170819872Y-80686230D01*
X170819872Y-80860280D01*
X170800187Y-80927319D01*
X170747383Y-80973074D01*
X170727967Y-80980054D01*
X170654184Y-80999825D01*
X170654183Y-80999825D01*
X170654181Y-80999826D01*
X170574263Y-81045966D01*
X170574258Y-81045970D01*
X170219030Y-81401197D01*
X170157707Y-81434682D01*
X170088015Y-81429698D01*
X170032082Y-81387826D01*
X170016788Y-81360968D01*
X169970334Y-81248816D01*
X169970333Y-81248815D01*
X169970333Y-81248814D01*
X169882093Y-81133818D01*
X169767097Y-81045578D01*
X169767096Y-81045577D01*
X169767094Y-81045576D01*
X169633184Y-80990110D01*
X169633182Y-80990109D01*
X169633181Y-80990109D01*
X169556815Y-80980055D01*
X169489473Y-80971189D01*
X169489471Y-80971189D01*
X169345763Y-80990109D01*
X169345759Y-80990110D01*
X169211849Y-81045576D01*
X169096851Y-81133818D01*
X169008609Y-81248816D01*
X168953143Y-81382726D01*
X168953142Y-81382730D01*
X168934222Y-81526439D01*
X168934222Y-81534566D01*
X168930679Y-81534566D01*
X168922341Y-81587619D01*
X168897912Y-81622316D01*
X168663321Y-81856908D01*
X168601998Y-81890393D01*
X168575640Y-81893227D01*
X168540085Y-81893227D01*
X168450944Y-81917112D01*
X168450942Y-81917112D01*
X168450941Y-81917113D01*
X168450939Y-81917113D01*
X168445212Y-81919487D01*
X168397756Y-81928927D01*
X167994976Y-81928927D01*
X167936499Y-81940558D01*
X167936498Y-81940559D01*
X167870176Y-81984874D01*
X167825861Y-82051196D01*
X167825860Y-82051197D01*
X167814229Y-82109674D01*
X167814229Y-82377779D01*
X167825860Y-82436255D01*
X167830036Y-82446335D01*
X167837506Y-82515804D01*
X167830036Y-82541245D01*
X167825860Y-82551324D01*
X167814229Y-82609800D01*
X167814229Y-82827238D01*
X167794544Y-82894277D01*
X167741740Y-82940032D01*
X167726700Y-82945753D01*
X167139472Y-83126439D01*
X167139471Y-83126439D01*
X167139470Y-83126440D01*
X166439472Y-83626438D01*
X166390426Y-89953400D01*
X166370223Y-90020285D01*
X166317066Y-90065629D01*
X166266430Y-90076439D01*
X165899203Y-90076439D01*
X165851753Y-90067001D01*
X165843711Y-90063670D01*
X165843713Y-90063670D01*
X165700001Y-90044750D01*
X165699999Y-90044750D01*
X165556287Y-90063670D01*
X165548247Y-90067001D01*
X165500797Y-90076439D01*
X158763472Y-90076439D01*
X158696433Y-90056754D01*
X158650678Y-90003950D01*
X158639472Y-89952439D01*
X158639472Y-82000439D01*
X158659157Y-81933400D01*
X158711961Y-81887645D01*
X158763472Y-81876439D01*
X164212810Y-81876439D01*
X164279849Y-81896124D01*
X164288280Y-81902051D01*
X164311847Y-81920135D01*
X164445763Y-81975604D01*
X164572752Y-81992322D01*
X164589471Y-81994524D01*
X164589472Y-81994524D01*
X164589473Y-81994524D01*
X164604449Y-81992552D01*
X164733181Y-81975604D01*
X164867097Y-81920135D01*
X164890648Y-81902062D01*
X164955815Y-81876869D01*
X164966134Y-81876439D01*
X165139472Y-81876439D01*
X165589472Y-81376439D01*
X165589472Y-81213772D01*
X165609157Y-81146733D01*
X165661961Y-81100978D01*
X165713472Y-81089772D01*
X165794072Y-81089772D01*
X165794073Y-81089771D01*
X165809650Y-81086673D01*
X165852551Y-81078140D01*
X165852551Y-81078139D01*
X165852553Y-81078139D01*
X165918874Y-81033824D01*
X165963189Y-80967503D01*
X165963189Y-80967501D01*
X165963190Y-80967501D01*
X165974821Y-80909024D01*
X165974822Y-80909022D01*
X165974822Y-80506245D01*
X165984262Y-80458789D01*
X165986630Y-80453070D01*
X165986636Y-80453060D01*
X166010522Y-80363916D01*
X166010522Y-80271628D01*
X166309774Y-80271628D01*
X166309774Y-80363916D01*
X166333660Y-80453060D01*
X166333662Y-80453064D01*
X166336034Y-80458789D01*
X166345474Y-80506245D01*
X166345474Y-80909024D01*
X166357105Y-80967501D01*
X166357106Y-80967502D01*
X166401421Y-81033824D01*
X166467743Y-81078139D01*
X166467744Y-81078140D01*
X166526221Y-81089771D01*
X166526224Y-81089772D01*
X166526226Y-81089772D01*
X166794324Y-81089772D01*
X166794325Y-81089771D01*
X166809902Y-81086673D01*
X166852803Y-81078140D01*
X166852803Y-81078139D01*
X166852805Y-81078139D01*
X166919126Y-81033824D01*
X166963441Y-80967503D01*
X166963441Y-80967501D01*
X166963442Y-80967501D01*
X166975073Y-80909024D01*
X166975074Y-80909022D01*
X166975074Y-80792272D01*
X166994759Y-80725233D01*
X167047563Y-80679478D01*
X167099074Y-80668272D01*
X167152281Y-80668272D01*
X167176471Y-80670654D01*
X167220123Y-80679337D01*
X167220124Y-80679338D01*
X167220125Y-80679338D01*
X168158821Y-80679338D01*
X168158822Y-80679337D01*
X168173639Y-80676390D01*
X168217300Y-80667706D01*
X168217300Y-80667705D01*
X168217302Y-80667705D01*
X168283623Y-80623390D01*
X168327938Y-80557069D01*
X168327938Y-80557067D01*
X168327939Y-80557067D01*
X168337838Y-80507300D01*
X168339571Y-80498586D01*
X168339571Y-80272983D01*
X168359256Y-80205944D01*
X168375890Y-80185302D01*
X168734753Y-79826439D01*
X169634222Y-79826439D01*
X169641632Y-79882726D01*
X169653142Y-79970147D01*
X169653143Y-79970151D01*
X169708609Y-80104061D01*
X169708610Y-80104063D01*
X169708611Y-80104064D01*
X169796851Y-80219060D01*
X169911847Y-80307300D01*
X170045763Y-80362769D01*
X170172752Y-80379487D01*
X170189471Y-80381689D01*
X170189472Y-80381689D01*
X170189473Y-80381689D01*
X170204449Y-80379717D01*
X170333181Y-80362769D01*
X170467097Y-80307300D01*
X170582093Y-80219060D01*
X170670333Y-80104064D01*
X170725802Y-79970148D01*
X170744722Y-79826439D01*
X170744722Y-79826438D01*
X170744722Y-79818310D01*
X170748521Y-79818310D01*
X170755860Y-79766857D01*
X170781028Y-79730563D01*
X171169941Y-79341652D01*
X171169941Y-79341651D01*
X171180150Y-79331443D01*
X171180151Y-79331444D01*
X171180156Y-79331434D01*
X171190441Y-79321151D01*
X171236586Y-79241227D01*
X171260472Y-79152083D01*
X171260472Y-79152070D01*
X171260749Y-79149972D01*
X171261748Y-79147315D01*
X171262575Y-79144233D01*
X171262878Y-79144314D01*
X171273830Y-79115224D01*
X171271966Y-79114452D01*
X171276640Y-79103168D01*
X171277400Y-79099348D01*
X171309785Y-79037437D01*
X171370500Y-79002863D01*
X171399017Y-78999539D01*
X172840372Y-78999539D01*
X172840372Y-78826432D01*
X177584172Y-78826432D01*
X177584172Y-78826445D01*
X177603336Y-79057736D01*
X177603338Y-79057747D01*
X177660314Y-79282739D01*
X177753547Y-79495287D01*
X177880488Y-79689586D01*
X177880491Y-79689590D01*
X177880493Y-79689592D01*
X178037688Y-79860352D01*
X178037691Y-79860354D01*
X178037694Y-79860357D01*
X178220837Y-80002903D01*
X178220843Y-80002907D01*
X178220846Y-80002909D01*
X178264324Y-80026438D01*
X178405629Y-80102909D01*
X178424969Y-80113375D01*
X178495916Y-80137731D01*
X178644487Y-80188736D01*
X178644489Y-80188736D01*
X178644491Y-80188737D01*
X178873423Y-80226939D01*
X178873424Y-80226939D01*
X179105520Y-80226939D01*
X179105521Y-80226939D01*
X179334453Y-80188737D01*
X179553975Y-80113375D01*
X179758098Y-80002909D01*
X179941256Y-79860352D01*
X180098451Y-79689592D01*
X180225396Y-79495288D01*
X180318629Y-79282739D01*
X180375606Y-79057744D01*
X180380040Y-79004233D01*
X180386487Y-78926432D01*
X182984172Y-78926432D01*
X182984172Y-78926445D01*
X183003336Y-79157736D01*
X183003338Y-79157747D01*
X183060314Y-79382739D01*
X183153547Y-79595287D01*
X183280488Y-79789586D01*
X183280491Y-79789590D01*
X183280493Y-79789592D01*
X183437688Y-79960352D01*
X183437691Y-79960354D01*
X183437694Y-79960357D01*
X183620837Y-80102903D01*
X183620843Y-80102907D01*
X183620846Y-80102909D01*
X183824969Y-80213375D01*
X183864480Y-80226939D01*
X184044487Y-80288736D01*
X184044489Y-80288736D01*
X184044491Y-80288737D01*
X184273423Y-80326939D01*
X184273424Y-80326939D01*
X184505520Y-80326939D01*
X184505521Y-80326939D01*
X184734453Y-80288737D01*
X184953975Y-80213375D01*
X185158098Y-80102909D01*
X185341256Y-79960352D01*
X185498451Y-79789592D01*
X185625396Y-79595288D01*
X185718629Y-79382739D01*
X185775606Y-79157744D01*
X185776726Y-79144233D01*
X185794772Y-78926445D01*
X185794772Y-78926432D01*
X185775607Y-78695141D01*
X185775605Y-78695130D01*
X185718629Y-78470138D01*
X185625396Y-78257590D01*
X185498455Y-78063291D01*
X185498452Y-78063288D01*
X185498451Y-78063286D01*
X185341256Y-77892526D01*
X185341251Y-77892522D01*
X185341249Y-77892520D01*
X185158106Y-77749974D01*
X185158100Y-77749970D01*
X184953976Y-77639503D01*
X184953967Y-77639500D01*
X184734456Y-77564141D01*
X184562754Y-77535489D01*
X184505521Y-77525939D01*
X184273423Y-77525939D01*
X184227636Y-77533579D01*
X184044487Y-77564141D01*
X183824976Y-77639500D01*
X183824967Y-77639503D01*
X183620843Y-77749970D01*
X183620837Y-77749974D01*
X183437694Y-77892520D01*
X183437691Y-77892523D01*
X183280488Y-78063291D01*
X183153547Y-78257590D01*
X183060314Y-78470138D01*
X183003338Y-78695130D01*
X183003336Y-78695141D01*
X182984172Y-78926432D01*
X180386487Y-78926432D01*
X180394772Y-78826445D01*
X180394772Y-78826432D01*
X180375607Y-78595141D01*
X180375605Y-78595130D01*
X180318629Y-78370138D01*
X180225396Y-78157590D01*
X180098455Y-77963291D01*
X180098452Y-77963288D01*
X180098451Y-77963286D01*
X179941256Y-77792526D01*
X179941251Y-77792522D01*
X179941249Y-77792520D01*
X179758106Y-77649974D01*
X179758100Y-77649970D01*
X179553976Y-77539503D01*
X179553967Y-77539500D01*
X179334456Y-77464141D01*
X179162754Y-77435489D01*
X179105521Y-77425939D01*
X178873423Y-77425939D01*
X178827636Y-77433579D01*
X178644487Y-77464141D01*
X178424976Y-77539500D01*
X178424967Y-77539503D01*
X178220843Y-77649970D01*
X178220837Y-77649974D01*
X178037694Y-77792520D01*
X178037691Y-77792523D01*
X177880488Y-77963291D01*
X177753547Y-78157590D01*
X177660314Y-78370138D01*
X177603338Y-78595130D01*
X177603336Y-78595141D01*
X177584172Y-78826432D01*
X172840372Y-78826432D01*
X172840372Y-77653339D01*
X171399017Y-77653339D01*
X171331978Y-77633654D01*
X171286223Y-77580850D01*
X171277400Y-77553532D01*
X171276639Y-77549707D01*
X171271966Y-77538425D01*
X171275199Y-77537085D01*
X171260492Y-77490101D01*
X171260472Y-77487897D01*
X171260472Y-77202482D01*
X171280157Y-77135443D01*
X171296786Y-77114806D01*
X173256939Y-75154652D01*
X173318260Y-75121169D01*
X173387952Y-75126153D01*
X173433818Y-75156989D01*
X173433918Y-75156881D01*
X173434624Y-75157531D01*
X173435851Y-75158356D01*
X173437688Y-75160352D01*
X173437694Y-75160357D01*
X173620837Y-75302903D01*
X173620843Y-75302907D01*
X173620846Y-75302909D01*
X173824969Y-75413375D01*
X173938959Y-75452507D01*
X174044487Y-75488736D01*
X174044489Y-75488736D01*
X174044491Y-75488737D01*
X174273423Y-75526939D01*
X174273424Y-75526939D01*
X174505520Y-75526939D01*
X174505521Y-75526939D01*
X174734453Y-75488737D01*
X174953975Y-75413375D01*
X175158098Y-75302909D01*
X175341256Y-75160352D01*
X175498451Y-74989592D01*
X175625396Y-74795288D01*
X175718629Y-74582739D01*
X175775606Y-74357744D01*
X175775607Y-74357736D01*
X175794772Y-74126445D01*
X175794772Y-74126432D01*
X175775607Y-73895141D01*
X175775605Y-73895130D01*
X175718629Y-73670138D01*
X175625396Y-73457590D01*
X175498455Y-73263291D01*
X175498452Y-73263288D01*
X175498451Y-73263286D01*
X175341256Y-73092526D01*
X175341251Y-73092522D01*
X175341249Y-73092520D01*
X175158106Y-72949974D01*
X175158100Y-72949970D01*
X174953976Y-72839503D01*
X174953967Y-72839500D01*
X174734456Y-72764141D01*
X174562754Y-72735489D01*
X174505521Y-72725939D01*
X174273423Y-72725939D01*
X174227636Y-72733579D01*
X174044487Y-72764141D01*
X173824976Y-72839500D01*
X173824967Y-72839503D01*
X173620843Y-72949970D01*
X173620837Y-72949974D01*
X173437694Y-73092520D01*
X173437691Y-73092523D01*
X173280488Y-73263291D01*
X173153547Y-73457590D01*
X173060314Y-73670138D01*
X173003338Y-73895130D01*
X173003336Y-73895141D01*
X172984172Y-74126432D01*
X172984172Y-74126433D01*
X172984172Y-74126439D01*
X173003118Y-74355084D01*
X172989036Y-74423520D01*
X172967222Y-74453005D01*
X170629503Y-76790725D01*
X170629499Y-76790730D01*
X170592825Y-76854253D01*
X170592825Y-76854254D01*
X170583358Y-76870650D01*
X170559472Y-76959795D01*
X170559472Y-77487897D01*
X170544997Y-77537190D01*
X170547978Y-77538425D01*
X170543304Y-77549708D01*
X170531672Y-77608186D01*
X170531672Y-78937194D01*
X170511987Y-79004233D01*
X170495353Y-79024875D01*
X170285349Y-79234878D01*
X170224026Y-79268363D01*
X170197600Y-79269647D01*
X170197600Y-79271189D01*
X170189472Y-79271189D01*
X170045763Y-79290109D01*
X170045759Y-79290110D01*
X169911849Y-79345576D01*
X169796851Y-79433818D01*
X169708609Y-79548816D01*
X169653143Y-79682726D01*
X169653142Y-79682730D01*
X169634222Y-79826439D01*
X168734753Y-79826439D01*
X169071083Y-79490109D01*
X169769942Y-78791250D01*
X169816086Y-78711326D01*
X169834645Y-78642063D01*
X169839972Y-78622182D01*
X169839972Y-75222983D01*
X169859657Y-75155944D01*
X169876291Y-75135302D01*
X172385154Y-72626439D01*
X175030470Y-69981123D01*
X175076614Y-69901199D01*
X175100500Y-69812055D01*
X175100500Y-66448937D01*
X175120185Y-66381898D01*
X175172989Y-66336143D01*
X175184238Y-66331656D01*
X175207871Y-66323542D01*
X175314503Y-66286936D01*
X175518626Y-66176470D01*
X175701784Y-66033913D01*
X175858979Y-65863153D01*
X175985924Y-65668849D01*
X176079157Y-65456300D01*
X176136134Y-65231305D01*
X176155300Y-65000000D01*
X176155300Y-64999993D01*
X176136135Y-64768702D01*
X176136133Y-64768691D01*
X176079157Y-64543699D01*
X175985924Y-64331151D01*
X175858983Y-64136852D01*
X175858980Y-64136849D01*
X175858979Y-64136847D01*
X175701784Y-63966087D01*
X175701779Y-63966083D01*
X175701777Y-63966081D01*
X175518634Y-63823535D01*
X175518628Y-63823531D01*
X175314504Y-63713064D01*
X175314495Y-63713061D01*
X175094984Y-63637702D01*
X174918683Y-63608283D01*
X174866049Y-63599500D01*
X174633951Y-63599500D01*
X174588164Y-63607140D01*
X174405015Y-63637702D01*
X174185504Y-63713061D01*
X174185495Y-63713064D01*
X173981371Y-63823531D01*
X173981365Y-63823535D01*
X173798222Y-63966081D01*
X173798219Y-63966084D01*
X173641016Y-64136852D01*
X173514075Y-64331151D01*
X173420842Y-64543699D01*
X173363866Y-64768691D01*
X173363864Y-64768702D01*
X173344700Y-64999993D01*
X173344700Y-65000006D01*
X173363864Y-65231297D01*
X173363866Y-65231308D01*
X173420842Y-65456300D01*
X173514075Y-65668848D01*
X173641016Y-65863147D01*
X173641019Y-65863151D01*
X173641021Y-65863153D01*
X173798216Y-66033913D01*
X173798219Y-66033915D01*
X173798222Y-66033918D01*
X173981365Y-66176464D01*
X173981371Y-66176468D01*
X173981374Y-66176470D01*
X174185497Y-66286936D01*
X174277857Y-66318643D01*
X174315762Y-66331656D01*
X174372778Y-66372041D01*
X174398909Y-66436841D01*
X174399500Y-66448937D01*
X174399500Y-69569367D01*
X174379815Y-69636406D01*
X174363181Y-69657048D01*
X169209003Y-74811225D01*
X169208999Y-74811230D01*
X169162859Y-74891148D01*
X169162858Y-74891151D01*
X169138972Y-74980295D01*
X169138972Y-78379494D01*
X169119287Y-78446533D01*
X169102653Y-78467175D01*
X168290811Y-79279017D01*
X168229488Y-79312502D01*
X168159796Y-79307518D01*
X168115449Y-79279017D01*
X168113671Y-79277239D01*
X167265273Y-79277239D01*
X167265273Y-79315192D01*
X167245588Y-79382231D01*
X167192784Y-79427986D01*
X167165471Y-79436808D01*
X167161645Y-79437569D01*
X167161642Y-79437570D01*
X167095319Y-79481886D01*
X167054470Y-79543021D01*
X167000858Y-79587825D01*
X166931533Y-79596532D01*
X166882479Y-79577232D01*
X166861167Y-79562992D01*
X166852805Y-79557405D01*
X166852804Y-79557404D01*
X166852803Y-79557404D01*
X166852803Y-79557403D01*
X166794326Y-79545772D01*
X166794322Y-79545772D01*
X166526226Y-79545772D01*
X166526221Y-79545772D01*
X166467744Y-79557403D01*
X166467743Y-79557404D01*
X166401421Y-79601719D01*
X166357106Y-79668041D01*
X166357105Y-79668042D01*
X166345474Y-79726519D01*
X166345474Y-80129298D01*
X166336035Y-80176751D01*
X166333660Y-80182483D01*
X166323173Y-80221621D01*
X166309774Y-80271628D01*
X166010522Y-80271628D01*
X166010522Y-79524102D01*
X166030207Y-79457063D01*
X166036135Y-79448630D01*
X166070333Y-79404064D01*
X166125802Y-79270148D01*
X166144722Y-79126439D01*
X166143245Y-79115224D01*
X166142520Y-79109719D01*
X166125802Y-78982730D01*
X166114328Y-78955030D01*
X166106860Y-78885564D01*
X166122745Y-78843477D01*
X171689472Y-69626439D01*
X171689472Y-35324500D01*
X171709157Y-35257461D01*
X171761961Y-35211706D01*
X171813472Y-35200500D01*
X190015472Y-35200500D01*
X190082511Y-35220185D01*
G37*
%TD.AperFunction*%
%TD*%
M02*
