%TF.GenerationSoftware,KiCad,Pcbnew,8.0.7*%
%TF.CreationDate,2025-02-10T22:10:37-06:00*%
%TF.ProjectId,Project63_BMS_DaughterBoard,50726f6a-6563-4743-9633-5f424d535f44,rev?*%
%TF.SameCoordinates,Original*%
%TF.FileFunction,Soldermask,Top*%
%TF.FilePolarity,Negative*%
%FSLAX46Y46*%
G04 Gerber Fmt 4.6, Leading zero omitted, Abs format (unit mm)*
G04 Created by KiCad (PCBNEW 8.0.7) date 2025-02-10 22:10:37*
%MOMM*%
%LPD*%
G01*
G04 APERTURE LIST*
G04 Aperture macros list*
%AMRoundRect*
0 Rectangle with rounded corners*
0 $1 Rounding radius*
0 $2 $3 $4 $5 $6 $7 $8 $9 X,Y pos of 4 corners*
0 Add a 4 corners polygon primitive as box body*
4,1,4,$2,$3,$4,$5,$6,$7,$8,$9,$2,$3,0*
0 Add four circle primitives for the rounded corners*
1,1,$1+$1,$2,$3*
1,1,$1+$1,$4,$5*
1,1,$1+$1,$6,$7*
1,1,$1+$1,$8,$9*
0 Add four rect primitives between the rounded corners*
20,1,$1+$1,$2,$3,$4,$5,0*
20,1,$1+$1,$4,$5,$6,$7,0*
20,1,$1+$1,$6,$7,$8,$9,0*
20,1,$1+$1,$8,$9,$2,$3,0*%
G04 Aperture macros list end*
%ADD10RoundRect,0.250000X-1.425000X0.362500X-1.425000X-0.362500X1.425000X-0.362500X1.425000X0.362500X0*%
%ADD11RoundRect,0.200000X-0.200000X-0.275000X0.200000X-0.275000X0.200000X0.275000X-0.200000X0.275000X0*%
%ADD12RoundRect,0.200000X0.200000X0.275000X-0.200000X0.275000X-0.200000X-0.275000X0.200000X-0.275000X0*%
%ADD13RoundRect,0.218750X-0.218750X-0.256250X0.218750X-0.256250X0.218750X0.256250X-0.218750X0.256250X0*%
%ADD14C,2.604000*%
%ADD15R,1.346200X0.787400*%
%ADD16R,1.143000X0.228600*%
%ADD17R,0.228600X1.143000*%
%ADD18R,6.502400X6.502400*%
%ADD19C,3.200000*%
%ADD20R,0.552399X0.749198*%
%ADD21RoundRect,0.250000X-1.450000X0.312500X-1.450000X-0.312500X1.450000X-0.312500X1.450000X0.312500X0*%
%ADD22R,0.749198X0.552399*%
%ADD23R,0.600000X1.850000*%
%ADD24R,0.762000X0.558800*%
%ADD25RoundRect,0.102000X-0.460000X-0.495000X0.460000X-0.495000X0.460000X0.495000X-0.460000X0.495000X0*%
%ADD26R,0.762000X0.660400*%
%ADD27R,0.749200X0.452400*%
%ADD28R,0.660400X0.762000*%
%ADD29R,2.600000X1.060000*%
%ADD30R,5.700000X5.632000*%
%ADD31RoundRect,0.102000X-0.465000X0.445000X-0.465000X-0.445000X0.465000X-0.445000X0.465000X0.445000X0*%
%ADD32C,2.999999*%
%ADD33R,1.520000X1.520000*%
%ADD34C,1.520000*%
%ADD35R,0.508000X0.508000*%
%ADD36RoundRect,0.102000X0.910000X-0.620000X0.910000X0.620000X-0.910000X0.620000X-0.910000X-0.620000X0*%
%ADD37C,1.981200*%
%ADD38R,0.899198X0.852399*%
%ADD39RoundRect,0.102000X-0.910000X0.620000X-0.910000X-0.620000X0.910000X-0.620000X0.910000X0.620000X0*%
%ADD40R,0.355600X1.397000*%
%ADD41RoundRect,0.150000X-0.150000X0.587500X-0.150000X-0.587500X0.150000X-0.587500X0.150000X0.587500X0*%
%ADD42RoundRect,0.150000X0.150000X-0.587500X0.150000X0.587500X-0.150000X0.587500X-0.150000X-0.587500X0*%
%ADD43RoundRect,0.250000X1.450000X-0.312500X1.450000X0.312500X-1.450000X0.312500X-1.450000X-0.312500X0*%
%ADD44R,0.863600X1.549400*%
%ADD45R,2.590800X0.965200*%
G04 APERTURE END LIST*
D10*
%TO.C,R602*%
X158000000Y-70537500D03*
X158000000Y-76462500D03*
%TD*%
D11*
%TO.C,R330*%
X133781775Y-55266895D03*
X135431775Y-55266895D03*
%TD*%
D12*
%TO.C,R329*%
X135362196Y-70591895D03*
X133712196Y-70591895D03*
%TD*%
%TO.C,R328*%
X135431775Y-65474117D03*
X133781775Y-65474117D03*
%TD*%
%TO.C,R327*%
X135314641Y-60450783D03*
X133664641Y-60450783D03*
%TD*%
D11*
%TO.C,R322*%
X133781775Y-126471895D03*
X135431775Y-126471895D03*
%TD*%
D12*
%TO.C,R321*%
X135431775Y-121391895D03*
X133781775Y-121391895D03*
%TD*%
%TO.C,R320*%
X135431775Y-116311895D03*
X133781775Y-116311895D03*
%TD*%
%TO.C,R319*%
X135431775Y-111231895D03*
X133781775Y-111231895D03*
%TD*%
%TO.C,R318*%
X135431775Y-106151895D03*
X133781775Y-106151895D03*
%TD*%
%TO.C,R317*%
X135431775Y-101071895D03*
X133781775Y-101071895D03*
%TD*%
%TO.C,R316*%
X135431775Y-96138566D03*
X133781775Y-96138566D03*
%TD*%
%TO.C,R315*%
X135302048Y-90924487D03*
X133652048Y-90924487D03*
%TD*%
%TO.C,R314*%
X135201308Y-85957820D03*
X133551308Y-85957820D03*
%TD*%
%TO.C,R313*%
X135239085Y-80726709D03*
X133589085Y-80726709D03*
%TD*%
%TO.C,R312*%
X135311999Y-75800971D03*
X133661999Y-75800971D03*
%TD*%
D13*
%TO.C,F308*%
X97976059Y-100550732D03*
X99551059Y-100550732D03*
%TD*%
D14*
%TO.C,TP502*%
X162389472Y-72626439D03*
%TD*%
D15*
%TO.C,R705*%
X192605440Y-112583972D03*
X192605440Y-114158772D03*
%TD*%
D16*
%TO.C,U201*%
X157232429Y-82243727D03*
X157232429Y-82743853D03*
X157232429Y-83243979D03*
X157232429Y-83744105D03*
X157232429Y-84244231D03*
X157232429Y-84744357D03*
X157232429Y-85244483D03*
X157232429Y-85744609D03*
X157232429Y-86244735D03*
X157232429Y-86744861D03*
X157232429Y-87244987D03*
X157232429Y-87745113D03*
X157232429Y-88245239D03*
X157232429Y-88745365D03*
X157232429Y-89245491D03*
X157232429Y-89745617D03*
D17*
X159158384Y-91671572D03*
X159658510Y-91671572D03*
X160158636Y-91671572D03*
X160658762Y-91671572D03*
X161158888Y-91671572D03*
X161659014Y-91671572D03*
X162159140Y-91671572D03*
X162659266Y-91671572D03*
X163159392Y-91671572D03*
X163659518Y-91671572D03*
X164159644Y-91671572D03*
X164659770Y-91671572D03*
X165159896Y-91671572D03*
X165660022Y-91671572D03*
X166160148Y-91671572D03*
X166660274Y-91671572D03*
D16*
X168586229Y-89745617D03*
X168586229Y-89245491D03*
X168586229Y-88745365D03*
X168586229Y-88245239D03*
X168586229Y-87745113D03*
X168586229Y-87244987D03*
X168586229Y-86744861D03*
X168586229Y-86244735D03*
X168586229Y-85744609D03*
X168586229Y-85244483D03*
X168586229Y-84744357D03*
X168586229Y-84244231D03*
X168586229Y-83744105D03*
X168586229Y-83243979D03*
X168586229Y-82743853D03*
X168586229Y-82243727D03*
D17*
X166660274Y-80317772D03*
X166160148Y-80317772D03*
X165660022Y-80317772D03*
X165159896Y-80317772D03*
X164659770Y-80317772D03*
X164159644Y-80317772D03*
X163659518Y-80317772D03*
X163159392Y-80317772D03*
X162659266Y-80317772D03*
X162159140Y-80317772D03*
X161659014Y-80317772D03*
X161158888Y-80317772D03*
X160658762Y-80317772D03*
X160158636Y-80317772D03*
X159658510Y-80317772D03*
X159158384Y-80317772D03*
D18*
X162909329Y-85994672D03*
%TD*%
D14*
%TO.C,TP306*%
X113640259Y-95970732D03*
%TD*%
D19*
%TO.C,H102*%
X210000000Y-40000000D03*
%TD*%
D20*
%TO.C,R712*%
X198180732Y-81114593D03*
X196828334Y-81114593D03*
%TD*%
D21*
%TO.C,R309*%
X130839232Y-116362500D03*
X130839232Y-120637500D03*
%TD*%
D22*
%TO.C,R707*%
X195052328Y-92494905D03*
X195052328Y-93847303D03*
%TD*%
D23*
%TO.C,FL702*%
X198271715Y-55379388D03*
X197001715Y-55379388D03*
X197001715Y-59929388D03*
X198271715Y-59929388D03*
%TD*%
D14*
%TO.C,TP312*%
X113640259Y-60410732D03*
%TD*%
D21*
%TO.C,R305*%
X130500000Y-96112500D03*
X130500000Y-100387500D03*
%TD*%
D24*
%TO.C,R719*%
X194899468Y-72090122D03*
X194899468Y-73436322D03*
%TD*%
D13*
%TO.C,F301*%
X97919359Y-82739146D03*
X99494359Y-82739146D03*
%TD*%
D15*
%TO.C,R716*%
X192383946Y-58317957D03*
X192383946Y-56743157D03*
%TD*%
D25*
%TO.C,F321*%
X104113559Y-103111715D03*
X105663559Y-103111715D03*
%TD*%
D14*
%TO.C,TP304*%
X113640259Y-85810732D03*
%TD*%
%TO.C,TP501*%
X174750000Y-65000000D03*
%TD*%
%TO.C,TP509*%
X168789472Y-67826439D03*
%TD*%
D22*
%TO.C,R201*%
X158078886Y-79783300D03*
X158078886Y-78430902D03*
%TD*%
D26*
%TO.C,C328*%
X153265915Y-87578788D03*
X153265915Y-86334188D03*
%TD*%
D27*
%TO.C,C703*%
X200132328Y-89824357D03*
X200132328Y-91276757D03*
%TD*%
D13*
%TO.C,F310*%
X97976059Y-105630732D03*
X99551059Y-105630732D03*
%TD*%
D28*
%TO.C,C319*%
X167870617Y-94485994D03*
X166626017Y-94485994D03*
%TD*%
D25*
%TO.C,F317*%
X104113559Y-105678193D03*
X105663559Y-105678193D03*
%TD*%
D28*
%TO.C,C313*%
X158047849Y-94429745D03*
X156803249Y-94429745D03*
%TD*%
D29*
%TO.C,Q601*%
X163549000Y-59786000D03*
D30*
X157000000Y-57500000D03*
D29*
X163549000Y-55214000D03*
%TD*%
D15*
%TO.C,R721*%
X200132328Y-52117556D03*
X200132328Y-50542756D03*
%TD*%
D14*
%TO.C,TP506*%
X184389472Y-78926439D03*
%TD*%
D22*
%TO.C,R718*%
X199982706Y-78551909D03*
X199982706Y-77199511D03*
%TD*%
D26*
%TO.C,C322*%
X173989472Y-88904139D03*
X173989472Y-90148739D03*
%TD*%
D31*
%TO.C,C201*%
X156639472Y-78356439D03*
X156639472Y-79896439D03*
%TD*%
D28*
%TO.C,C316*%
X162498789Y-95818424D03*
X161254189Y-95818424D03*
%TD*%
D14*
%TO.C,TP314*%
X113640259Y-70570732D03*
%TD*%
%TO.C,TP303*%
X113640259Y-80730732D03*
%TD*%
D25*
%TO.C,F327*%
X103825893Y-72610732D03*
X105375893Y-72610732D03*
%TD*%
%TO.C,F319*%
X104080472Y-98010732D03*
X105630472Y-98010732D03*
%TD*%
D19*
%TO.C,H104*%
X210000000Y-130000000D03*
%TD*%
D32*
%TO.C,J702*%
X197592328Y-38083163D03*
D33*
X197592328Y-42403162D03*
D34*
X197592328Y-45403161D03*
%TD*%
D15*
%TO.C,R715*%
X202543946Y-58317957D03*
X202543946Y-56743157D03*
%TD*%
D26*
%TO.C,C329*%
X151765915Y-89126141D03*
X151765915Y-87881541D03*
%TD*%
D25*
%TO.C,F328*%
X103832843Y-75144045D03*
X105382843Y-75144045D03*
%TD*%
D35*
%TO.C,C208*%
X172108572Y-81326439D03*
X171270372Y-81326439D03*
%TD*%
D14*
%TO.C,TP308*%
X113640259Y-106130732D03*
%TD*%
D15*
%TO.C,R714*%
X194907627Y-70861282D03*
X194907627Y-69286482D03*
%TD*%
D27*
%TO.C,C706*%
X194918733Y-80861036D03*
X194918733Y-79408636D03*
%TD*%
D36*
%TO.C,C702*%
X200058341Y-107289132D03*
X200058341Y-104319132D03*
%TD*%
D24*
%TO.C,R703*%
X200015344Y-98888469D03*
X200015344Y-97542269D03*
%TD*%
D14*
%TO.C,TP505*%
X179689472Y-96326439D03*
%TD*%
D13*
%TO.C,F325*%
X97976059Y-77690732D03*
X99551059Y-77690732D03*
%TD*%
D36*
%TO.C,C701*%
X194912547Y-107310890D03*
X194912547Y-104340890D03*
%TD*%
D21*
%TO.C,R323*%
X130650000Y-54362500D03*
X130650000Y-58637500D03*
%TD*%
D14*
%TO.C,BAT_POSITIVE301*%
X113640259Y-55330732D03*
%TD*%
D21*
%TO.C,R301*%
X130780694Y-75862500D03*
X130780694Y-80137500D03*
%TD*%
D37*
%TO.C,J401*%
X79812428Y-108644354D03*
X79812428Y-104504355D03*
X79812428Y-100364356D03*
X79812428Y-96224357D03*
X79812428Y-92084357D03*
X79812428Y-87944358D03*
X79812428Y-83804359D03*
X79812428Y-79664359D03*
X79812428Y-75524360D03*
X79812428Y-71384361D03*
X75672430Y-108644354D03*
X75672430Y-104504355D03*
X75672430Y-100364356D03*
X75672430Y-96224357D03*
X75672430Y-92084357D03*
X75672430Y-87944358D03*
X75672430Y-83804359D03*
X75672430Y-79664359D03*
X75672430Y-75524360D03*
X75672430Y-71384361D03*
%TD*%
D24*
%TO.C,R704*%
X194923946Y-98790557D03*
X194923946Y-97444357D03*
%TD*%
D21*
%TO.C,R307*%
X130780694Y-106362500D03*
X130780694Y-110637500D03*
%TD*%
D26*
%TO.C,C320*%
X172389472Y-93504139D03*
X172389472Y-94748739D03*
%TD*%
D38*
%TO.C,C207*%
X167689472Y-78800240D03*
X167689472Y-80052638D03*
%TD*%
D15*
%TO.C,R722*%
X195052328Y-52092998D03*
X195052328Y-50518198D03*
%TD*%
D14*
%TO.C,TP508*%
X166389472Y-72626439D03*
%TD*%
D15*
%TO.C,R702*%
X200132328Y-118335356D03*
X200132328Y-119910156D03*
%TD*%
D39*
%TO.C,C707*%
X199976488Y-63870186D03*
X199976488Y-66840186D03*
%TD*%
D28*
%TO.C,C315*%
X161646484Y-94508899D03*
X160401884Y-94508899D03*
%TD*%
D14*
%TO.C,TP302*%
X113640259Y-75650732D03*
%TD*%
D15*
%TO.C,R701*%
X195052328Y-118335356D03*
X195052328Y-119910156D03*
%TD*%
D21*
%TO.C,R306*%
X126000000Y-101062500D03*
X126000000Y-105337500D03*
%TD*%
D40*
%TO.C,C206*%
X173068972Y-78326439D03*
X170909972Y-78326439D03*
%TD*%
D13*
%TO.C,F309*%
X97976059Y-103090732D03*
X99551059Y-103090732D03*
%TD*%
D25*
%TO.C,F320*%
X104113559Y-100550732D03*
X105663559Y-100550732D03*
%TD*%
D41*
%TO.C,D701*%
X198350000Y-93962500D03*
X196450000Y-93962500D03*
X197400000Y-95837500D03*
%TD*%
D14*
%TO.C,TP313*%
X113640259Y-65490732D03*
%TD*%
D42*
%TO.C,D702*%
X196550000Y-77137500D03*
X198450000Y-77137500D03*
X197500000Y-75262500D03*
%TD*%
D14*
%TO.C,TP310*%
X113640259Y-116290732D03*
%TD*%
D32*
%TO.C,J701*%
X197592328Y-131522754D03*
D33*
X197592328Y-127202755D03*
D34*
X197592328Y-124202756D03*
%TD*%
D26*
%TO.C,C327*%
X153265915Y-85116888D03*
X153265915Y-83872288D03*
%TD*%
D13*
%TO.C,F326*%
X97976059Y-80230732D03*
X99551059Y-80230732D03*
%TD*%
D21*
%TO.C,R308*%
X126300000Y-111212500D03*
X126300000Y-115487500D03*
%TD*%
D14*
%TO.C,TP311*%
X113640259Y-121370732D03*
%TD*%
%TO.C,TP507*%
X179789472Y-91926439D03*
%TD*%
D13*
%TO.C,F302*%
X97929887Y-85310732D03*
X99504887Y-85310732D03*
%TD*%
D15*
%TO.C,R709*%
X194945704Y-100259959D03*
X194945704Y-101834759D03*
%TD*%
D13*
%TO.C,F311*%
X97925000Y-110750000D03*
X99500000Y-110750000D03*
%TD*%
D28*
%TO.C,C318*%
X166184941Y-95881706D03*
X164940341Y-95881706D03*
%TD*%
D25*
%TO.C,F329*%
X103843977Y-77684941D03*
X105393977Y-77684941D03*
%TD*%
D21*
%TO.C,R310*%
X126000000Y-121362500D03*
X126000000Y-125637500D03*
%TD*%
D19*
%TO.C,H101*%
X70000000Y-40000000D03*
%TD*%
D25*
%TO.C,F313*%
X103990801Y-85310732D03*
X105540801Y-85310732D03*
%TD*%
D39*
%TO.C,C708*%
X194912547Y-63863831D03*
X194912547Y-66833831D03*
%TD*%
D21*
%TO.C,R324*%
X126350000Y-60412500D03*
X126350000Y-64687500D03*
%TD*%
D27*
%TO.C,C705*%
X200009385Y-80889161D03*
X200009385Y-79436761D03*
%TD*%
D25*
%TO.C,F315*%
X103986902Y-90406561D03*
X105536902Y-90406561D03*
%TD*%
D14*
%TO.C,TP504*%
X178989472Y-78826439D03*
%TD*%
%TO.C,TP301*%
X113640259Y-126450732D03*
%TD*%
D13*
%TO.C,F306*%
X97976059Y-95470732D03*
X99551059Y-95470732D03*
%TD*%
D21*
%TO.C,R325*%
X130950000Y-65462500D03*
X130950000Y-69737500D03*
%TD*%
D15*
%TO.C,R713*%
X199977357Y-70911873D03*
X199977357Y-69337073D03*
%TD*%
D25*
%TO.C,F318*%
X104061206Y-95470732D03*
X105611206Y-95470732D03*
%TD*%
D14*
%TO.C,TP309*%
X113640259Y-111210732D03*
%TD*%
D27*
%TO.C,C704*%
X195052328Y-89909604D03*
X195052328Y-91362004D03*
%TD*%
D21*
%TO.C,R302*%
X125950000Y-80862500D03*
X125950000Y-85137500D03*
%TD*%
D13*
%TO.C,F323*%
X97976059Y-72610732D03*
X99551059Y-72610732D03*
%TD*%
D25*
%TO.C,F330*%
X103923901Y-80230732D03*
X105473901Y-80230732D03*
%TD*%
D28*
%TO.C,C317*%
X164710195Y-94455619D03*
X163465595Y-94455619D03*
%TD*%
D43*
%TO.C,R311*%
X130500000Y-131137500D03*
X130500000Y-126862500D03*
%TD*%
D15*
%TO.C,R710*%
X200060268Y-100259959D03*
X200060268Y-101834759D03*
%TD*%
D13*
%TO.C,F324*%
X97976059Y-75150732D03*
X99551059Y-75150732D03*
%TD*%
D24*
%TO.C,R720*%
X199993066Y-72091757D03*
X199993066Y-73437957D03*
%TD*%
D44*
%TO.C,C601*%
X160358400Y-63000000D03*
X163000000Y-63000000D03*
%TD*%
D13*
%TO.C,F303*%
X97976059Y-87844187D03*
X99551059Y-87844187D03*
%TD*%
D26*
%TO.C,C330*%
X153265915Y-90126141D03*
X153265915Y-88881541D03*
%TD*%
D13*
%TO.C,F307*%
X97976059Y-98010732D03*
X99551059Y-98010732D03*
%TD*%
D14*
%TO.C,TP305*%
X113640259Y-90890732D03*
%TD*%
D26*
%TO.C,C312*%
X153272109Y-92649155D03*
X153272109Y-91404555D03*
%TD*%
D14*
%TO.C,TP307*%
X113640259Y-101050732D03*
%TD*%
D25*
%TO.C,F312*%
X103944787Y-82770732D03*
X105494787Y-82770732D03*
%TD*%
%TO.C,F314*%
X104004402Y-87850732D03*
X105554402Y-87850732D03*
%TD*%
D13*
%TO.C,F305*%
X97976059Y-92915798D03*
X99551059Y-92915798D03*
%TD*%
D23*
%TO.C,FL701*%
X196793070Y-115496188D03*
X198063070Y-115496188D03*
X198063070Y-110946188D03*
X196793070Y-110946188D03*
%TD*%
D20*
%TO.C,R711*%
X198178481Y-89819176D03*
X196826083Y-89819176D03*
%TD*%
D15*
%TO.C,R706*%
X202543946Y-112684357D03*
X202543946Y-114259157D03*
%TD*%
D21*
%TO.C,R304*%
X125800000Y-90912500D03*
X125800000Y-95187500D03*
%TD*%
D28*
%TO.C,C314*%
X159539172Y-95838586D03*
X158294572Y-95838586D03*
%TD*%
D14*
%TO.C,TP503*%
X174389472Y-74126439D03*
%TD*%
D19*
%TO.C,H103*%
X70000000Y-130000000D03*
%TD*%
D21*
%TO.C,R303*%
X130780694Y-85862500D03*
X130780694Y-90137500D03*
%TD*%
D22*
%TO.C,R708*%
X200132328Y-92409658D03*
X200132328Y-93762056D03*
%TD*%
D25*
%TO.C,F316*%
X104021997Y-92930732D03*
X105571997Y-92930732D03*
%TD*%
D21*
%TO.C,R326*%
X125850000Y-70612500D03*
X125850000Y-74887500D03*
%TD*%
D26*
%TO.C,C321*%
X172389472Y-91004139D03*
X172389472Y-92248739D03*
%TD*%
D25*
%TO.C,F322*%
X104113559Y-110710732D03*
X105663559Y-110710732D03*
%TD*%
D22*
%TO.C,R717*%
X194923946Y-78526756D03*
X194923946Y-77174358D03*
%TD*%
D45*
%TO.C,R601*%
X158000000Y-68247900D03*
X158000000Y-63752100D03*
%TD*%
D13*
%TO.C,F304*%
X97976059Y-90390732D03*
X99551059Y-90390732D03*
%TD*%
M02*
