M48
; DRILL file {KiCad 8.0.7} date 2025-02-10T22:10:34-0600
; FORMAT={-:-/ absolute / metric / decimal}
; #@! TF.CreationDate,2025-02-10T22:10:34-06:00
; #@! TF.GenerationSoftware,Kicad,Pcbnew,8.0.7
; #@! TF.FileFunction,MixedPlating,1,4
FMAT,2
METRIC
; #@! TA.AperFunction,Plated,PTH,ViaDrill
T1C0.300
; #@! TA.AperFunction,Plated,PTH,ComponentDrill
T2C1.020
; #@! TA.AperFunction,Plated,PTH,ComponentDrill
T3C1.473
; #@! TA.AperFunction,Plated,PTH,ComponentDrill
T4C1.600
; #@! TA.AperFunction,NonPlated,NPTH,ComponentDrill
T5C3.000
; #@! TA.AperFunction,NonPlated,NPTH,ComponentDrill
T6C3.200
; #@! TA.AperFunction,NonPlated,NPTH,ComponentDrill
T7C3.912
%
G90
G05
T1
X75.089Y-118.226
X75.089Y-131.426
X78.189Y-42.126
X78.189Y-62.726
X79.089Y-118.226
X79.089Y-131.426
X82.189Y-42.126
X82.189Y-62.726
X83.089Y-118.226
X83.089Y-131.426
X86.189Y-42.126
X86.189Y-62.726
X87.089Y-118.226
X87.089Y-131.426
X90.089Y-118.226
X90.089Y-131.426
X90.189Y-42.126
X90.189Y-62.726
X93.189Y-42.126
X93.189Y-62.726
X95.889Y-75.126
X95.889Y-77.626
X95.889Y-80.126
X95.889Y-82.626
X95.889Y-85.126
X95.889Y-87.876
X95.889Y-90.376
X95.9Y-72.6
X116.589Y-47.626
X120.589Y-47.626
X124.589Y-47.626
X125.389Y-133.5
X128.589Y-47.626
X129.389Y-133.5
X131.589Y-47.626
X133.375Y-129.226
X133.389Y-133.5
X133.52Y-87.545
X133.571Y-56.87
X133.586Y-82.486
X133.602Y-67.102
X133.634Y-61.969
X133.678Y-72.378
X133.683Y-119.158
X133.737Y-93.437
X133.777Y-77.277
X133.78Y-113.658
X133.9Y-124.055
X133.903Y-98.54
X133.926Y-102.737
X134.026Y-107.899
X137.389Y-133.5
X140.389Y-133.5
X154.477Y-85.123
X154.5Y-86.9
X154.5Y-88.229
X154.51Y-89.59
X155.1Y-91.1
X155.197Y-84.003
X155.5Y-78.3
X158.3Y-92.831
X159.705Y-93.593
X161.5Y-93.4
X162.727Y-56.4
X162.727Y-57.2
X162.809Y-93.4
X163.1Y-78.0
X163.527Y-56.4
X163.527Y-57.2
X164.1Y-87.6
X164.116Y-93.435
X164.327Y-56.4
X164.327Y-57.2
X164.589Y-81.439
X165.416Y-93.468
X165.589Y-79.126
X165.7Y-90.6
X167.289Y-83.726
X167.389Y-84.626
X167.389Y-89.226
X167.4Y-87.595
X167.6Y-77.7
X168.889Y-37.626
X168.889Y-41.626
X168.889Y-45.626
X168.889Y-49.626
X168.889Y-52.626
X168.989Y-63.326
X169.489Y-81.526
X169.663Y-88.076
X169.7Y-93.637
X170.189Y-79.826
X170.9Y-82.9
X171.389Y-88.626
X171.401Y-89.699
X171.489Y-85.326
X171.489Y-87.426
X171.989Y-80.026
X172.389Y-82.926
X172.989Y-85.326
X172.989Y-87.426
X173.889Y-82.926
X173.9Y-78.3
X174.0Y-92.4
X174.3Y-87.401
X174.489Y-85.326
X175.289Y-37.626
X175.289Y-41.626
X175.289Y-45.626
X175.289Y-49.626
X175.289Y-52.626
X175.3Y-88.9
X175.389Y-82.926
X175.889Y-85.326
X177.189Y-82.926
X177.289Y-87.426
X177.389Y-85.326
X177.789Y-117.726
X177.789Y-121.726
X177.789Y-125.726
X177.789Y-129.726
X177.789Y-132.726
X178.689Y-82.926
X178.789Y-87.426
X178.889Y-85.326
X180.189Y-82.926
X180.289Y-85.326
X180.289Y-87.426
X181.789Y-85.326
X181.789Y-87.426
X183.289Y-85.326
X183.289Y-87.426
X184.589Y-82.926
X184.789Y-85.326
X184.789Y-87.426
X186.089Y-82.926
X186.289Y-85.326
X186.389Y-87.426
X187.589Y-82.926
X187.789Y-85.326
X187.889Y-87.426
X188.889Y-37.626
X188.889Y-41.626
X188.889Y-45.626
X188.889Y-49.626
X188.889Y-52.626
X188.889Y-56.626
X188.889Y-60.626
X188.889Y-64.626
X188.889Y-68.626
X188.889Y-72.626
X188.889Y-76.626
X188.889Y-80.626
X188.889Y-89.626
X188.889Y-93.626
X188.889Y-97.626
X188.889Y-101.626
X188.889Y-105.626
X188.889Y-109.626
X188.889Y-113.626
X188.889Y-117.626
X188.889Y-121.626
X188.889Y-125.626
X188.889Y-129.626
X188.889Y-133.626
X189.189Y-85.326
X190.689Y-85.326
X192.189Y-85.326
X193.589Y-85.326
X194.889Y-82.026
X194.989Y-88.826
X195.089Y-85.326
X196.589Y-85.326
X197.4Y-97.5
X197.5Y-73.6
X199.989Y-82.026
X200.089Y-88.826
X204.889Y-36.626
X204.889Y-56.626
X204.889Y-73.626
X204.889Y-77.626
X204.889Y-84.626
X204.889Y-89.626
X204.889Y-93.626
X204.889Y-110.626
X204.889Y-130.626
T2
X197.592Y-42.403
X197.592Y-45.403
X197.592Y-124.203
X197.592Y-127.203
T3
X75.672Y-71.384
X75.672Y-75.524
X75.672Y-79.664
X75.672Y-83.804
X75.672Y-87.944
X75.672Y-92.084
X75.672Y-96.224
X75.672Y-100.364
X75.672Y-104.504
X75.672Y-108.644
X79.812Y-71.384
X79.812Y-75.524
X79.812Y-79.664
X79.812Y-83.804
X79.812Y-87.944
X79.812Y-92.084
X79.812Y-96.224
X79.812Y-100.364
X79.812Y-104.504
X79.812Y-108.644
T4
X113.64Y-55.331
X113.64Y-60.411
X113.64Y-65.491
X113.64Y-70.571
X113.64Y-75.651
X113.64Y-80.731
X113.64Y-85.811
X113.64Y-90.891
X113.64Y-95.971
X113.64Y-101.051
X113.64Y-106.131
X113.64Y-111.211
X113.64Y-116.291
X113.64Y-121.371
X113.64Y-126.451
X162.389Y-72.626
X166.389Y-72.626
X168.789Y-67.826
X174.389Y-74.126
X174.75Y-65.0
X178.989Y-78.826
X179.689Y-96.326
X179.789Y-91.926
X184.389Y-78.926
T5
X197.592Y-38.083
X197.592Y-131.523
T6
X70.0Y-40.0
X70.0Y-130.0
X210.0Y-40.0
X210.0Y-130.0
T7
X68.332Y-79.664
X68.332Y-100.364
M30
