%TF.GenerationSoftware,KiCad,Pcbnew,8.0.7*%
%TF.CreationDate,2025-02-10T22:10:37-06:00*%
%TF.ProjectId,Project63_BMS_DaughterBoard,50726f6a-6563-4743-9633-5f424d535f44,rev?*%
%TF.SameCoordinates,Original*%
%TF.FileFunction,Paste,Top*%
%TF.FilePolarity,Positive*%
%FSLAX46Y46*%
G04 Gerber Fmt 4.6, Leading zero omitted, Abs format (unit mm)*
G04 Created by KiCad (PCBNEW 8.0.7) date 2025-02-10 22:10:37*
%MOMM*%
%LPD*%
G01*
G04 APERTURE LIST*
G04 Aperture macros list*
%AMRoundRect*
0 Rectangle with rounded corners*
0 $1 Rounding radius*
0 $2 $3 $4 $5 $6 $7 $8 $9 X,Y pos of 4 corners*
0 Add a 4 corners polygon primitive as box body*
4,1,4,$2,$3,$4,$5,$6,$7,$8,$9,$2,$3,0*
0 Add four circle primitives for the rounded corners*
1,1,$1+$1,$2,$3*
1,1,$1+$1,$4,$5*
1,1,$1+$1,$6,$7*
1,1,$1+$1,$8,$9*
0 Add four rect primitives between the rounded corners*
20,1,$1+$1,$2,$3,$4,$5,0*
20,1,$1+$1,$4,$5,$6,$7,0*
20,1,$1+$1,$6,$7,$8,$9,0*
20,1,$1+$1,$8,$9,$2,$3,0*%
G04 Aperture macros list end*
%ADD10C,0.150000*%
%ADD11C,0.000000*%
%ADD12RoundRect,0.250000X-1.425000X0.362500X-1.425000X-0.362500X1.425000X-0.362500X1.425000X0.362500X0*%
%ADD13RoundRect,0.200000X-0.200000X-0.275000X0.200000X-0.275000X0.200000X0.275000X-0.200000X0.275000X0*%
%ADD14RoundRect,0.200000X0.200000X0.275000X-0.200000X0.275000X-0.200000X-0.275000X0.200000X-0.275000X0*%
%ADD15RoundRect,0.218750X-0.218750X-0.256250X0.218750X-0.256250X0.218750X0.256250X-0.218750X0.256250X0*%
%ADD16R,1.346200X0.787400*%
%ADD17R,1.143000X0.228600*%
%ADD18R,0.228600X1.143000*%
%ADD19R,0.552399X0.749198*%
%ADD20RoundRect,0.250000X-1.450000X0.312500X-1.450000X-0.312500X1.450000X-0.312500X1.450000X0.312500X0*%
%ADD21R,0.749198X0.552399*%
%ADD22R,0.600000X1.850000*%
%ADD23R,0.762000X0.558800*%
%ADD24R,0.920000X0.990000*%
%ADD25R,0.762000X0.660400*%
%ADD26R,0.749200X0.452400*%
%ADD27R,0.660400X0.762000*%
%ADD28R,2.600000X1.060000*%
%ADD29R,5.700000X5.632000*%
%ADD30R,0.930000X0.890000*%
%ADD31R,0.508000X0.508000*%
%ADD32R,1.820000X1.240000*%
%ADD33R,0.899198X0.852399*%
%ADD34R,0.355600X1.397000*%
%ADD35RoundRect,0.150000X-0.150000X0.587500X-0.150000X-0.587500X0.150000X-0.587500X0.150000X0.587500X0*%
%ADD36RoundRect,0.150000X0.150000X-0.587500X0.150000X0.587500X-0.150000X0.587500X-0.150000X-0.587500X0*%
%ADD37RoundRect,0.250000X1.450000X-0.312500X1.450000X0.312500X-1.450000X0.312500X-1.450000X-0.312500X0*%
%ADD38R,0.863600X1.549400*%
%ADD39R,2.590800X0.965200*%
G04 APERTURE END LIST*
D10*
X163836779Y-75869819D02*
X163836779Y-74869819D01*
X163836779Y-74869819D02*
X164408207Y-75869819D01*
X164408207Y-75869819D02*
X164408207Y-74869819D01*
X165217731Y-75346009D02*
X164884398Y-75346009D01*
X164884398Y-75869819D02*
X164884398Y-74869819D01*
X164884398Y-74869819D02*
X165360588Y-74869819D01*
X165693922Y-75584104D02*
X166170112Y-75584104D01*
X165598684Y-75869819D02*
X165932017Y-74869819D01*
X165932017Y-74869819D02*
X166265350Y-75869819D01*
X166598684Y-74869819D02*
X166598684Y-75679342D01*
X166598684Y-75679342D02*
X166646303Y-75774580D01*
X166646303Y-75774580D02*
X166693922Y-75822200D01*
X166693922Y-75822200D02*
X166789160Y-75869819D01*
X166789160Y-75869819D02*
X166979636Y-75869819D01*
X166979636Y-75869819D02*
X167074874Y-75822200D01*
X167074874Y-75822200D02*
X167122493Y-75774580D01*
X167122493Y-75774580D02*
X167170112Y-75679342D01*
X167170112Y-75679342D02*
X167170112Y-74869819D01*
X168122493Y-75869819D02*
X167646303Y-75869819D01*
X167646303Y-75869819D02*
X167646303Y-74869819D01*
X168312970Y-74869819D02*
X168884398Y-74869819D01*
X168598684Y-75869819D02*
X168598684Y-74869819D01*
X177812969Y-76369819D02*
X177336779Y-76369819D01*
X177336779Y-76369819D02*
X177336779Y-75369819D01*
X178146303Y-76369819D02*
X178146303Y-75369819D01*
X178146303Y-75369819D02*
X178384398Y-75369819D01*
X178384398Y-75369819D02*
X178527255Y-75417438D01*
X178527255Y-75417438D02*
X178622493Y-75512676D01*
X178622493Y-75512676D02*
X178670112Y-75607914D01*
X178670112Y-75607914D02*
X178717731Y-75798390D01*
X178717731Y-75798390D02*
X178717731Y-75941247D01*
X178717731Y-75941247D02*
X178670112Y-76131723D01*
X178670112Y-76131723D02*
X178622493Y-76226961D01*
X178622493Y-76226961D02*
X178527255Y-76322200D01*
X178527255Y-76322200D02*
X178384398Y-76369819D01*
X178384398Y-76369819D02*
X178146303Y-76369819D01*
X179336779Y-75369819D02*
X179527255Y-75369819D01*
X179527255Y-75369819D02*
X179622493Y-75417438D01*
X179622493Y-75417438D02*
X179717731Y-75512676D01*
X179717731Y-75512676D02*
X179765350Y-75703152D01*
X179765350Y-75703152D02*
X179765350Y-76036485D01*
X179765350Y-76036485D02*
X179717731Y-76226961D01*
X179717731Y-76226961D02*
X179622493Y-76322200D01*
X179622493Y-76322200D02*
X179527255Y-76369819D01*
X179527255Y-76369819D02*
X179336779Y-76369819D01*
X179336779Y-76369819D02*
X179241541Y-76322200D01*
X179241541Y-76322200D02*
X179146303Y-76226961D01*
X179146303Y-76226961D02*
X179098684Y-76036485D01*
X179098684Y-76036485D02*
X179098684Y-75703152D01*
X179098684Y-75703152D02*
X179146303Y-75512676D01*
X179146303Y-75512676D02*
X179241541Y-75417438D01*
X179241541Y-75417438D02*
X179336779Y-75369819D01*
X180193922Y-76369819D02*
X180193922Y-75369819D01*
X180670112Y-76369819D02*
X180670112Y-75369819D01*
X180670112Y-75369819D02*
X181241540Y-76369819D01*
X181241540Y-76369819D02*
X181241540Y-75369819D01*
X182336779Y-76369819D02*
X182336779Y-75369819D01*
X182336779Y-75369819D02*
X182908207Y-76369819D01*
X182908207Y-76369819D02*
X182908207Y-75369819D01*
X183384398Y-75846009D02*
X183717731Y-75846009D01*
X183860588Y-76369819D02*
X183384398Y-76369819D01*
X183384398Y-76369819D02*
X183384398Y-75369819D01*
X183384398Y-75369819D02*
X183860588Y-75369819D01*
X184812969Y-75417438D02*
X184717731Y-75369819D01*
X184717731Y-75369819D02*
X184574874Y-75369819D01*
X184574874Y-75369819D02*
X184432017Y-75417438D01*
X184432017Y-75417438D02*
X184336779Y-75512676D01*
X184336779Y-75512676D02*
X184289160Y-75607914D01*
X184289160Y-75607914D02*
X184241541Y-75798390D01*
X184241541Y-75798390D02*
X184241541Y-75941247D01*
X184241541Y-75941247D02*
X184289160Y-76131723D01*
X184289160Y-76131723D02*
X184336779Y-76226961D01*
X184336779Y-76226961D02*
X184432017Y-76322200D01*
X184432017Y-76322200D02*
X184574874Y-76369819D01*
X184574874Y-76369819D02*
X184670112Y-76369819D01*
X184670112Y-76369819D02*
X184812969Y-76322200D01*
X184812969Y-76322200D02*
X184860588Y-76274580D01*
X184860588Y-76274580D02*
X184860588Y-75941247D01*
X184860588Y-75941247D02*
X184670112Y-75941247D01*
X185765350Y-75369819D02*
X185289160Y-75369819D01*
X185289160Y-75369819D02*
X185241541Y-75846009D01*
X185241541Y-75846009D02*
X185289160Y-75798390D01*
X185289160Y-75798390D02*
X185384398Y-75750771D01*
X185384398Y-75750771D02*
X185622493Y-75750771D01*
X185622493Y-75750771D02*
X185717731Y-75798390D01*
X185717731Y-75798390D02*
X185765350Y-75846009D01*
X185765350Y-75846009D02*
X185812969Y-75941247D01*
X185812969Y-75941247D02*
X185812969Y-76179342D01*
X185812969Y-76179342D02*
X185765350Y-76274580D01*
X185765350Y-76274580D02*
X185717731Y-76322200D01*
X185717731Y-76322200D02*
X185622493Y-76369819D01*
X185622493Y-76369819D02*
X185384398Y-76369819D01*
X185384398Y-76369819D02*
X185289160Y-76322200D01*
X185289160Y-76322200D02*
X185241541Y-76274580D01*
X186098684Y-75369819D02*
X186432017Y-76369819D01*
X186432017Y-76369819D02*
X186765350Y-75369819D01*
X178408207Y-89869819D02*
X178074874Y-89393628D01*
X177836779Y-89869819D02*
X177836779Y-88869819D01*
X177836779Y-88869819D02*
X178217731Y-88869819D01*
X178217731Y-88869819D02*
X178312969Y-88917438D01*
X178312969Y-88917438D02*
X178360588Y-88965057D01*
X178360588Y-88965057D02*
X178408207Y-89060295D01*
X178408207Y-89060295D02*
X178408207Y-89203152D01*
X178408207Y-89203152D02*
X178360588Y-89298390D01*
X178360588Y-89298390D02*
X178312969Y-89346009D01*
X178312969Y-89346009D02*
X178217731Y-89393628D01*
X178217731Y-89393628D02*
X177836779Y-89393628D01*
X178836779Y-89346009D02*
X179170112Y-89346009D01*
X179312969Y-89869819D02*
X178836779Y-89869819D01*
X178836779Y-89869819D02*
X178836779Y-88869819D01*
X178836779Y-88869819D02*
X179312969Y-88869819D01*
X180074874Y-89346009D02*
X179741541Y-89346009D01*
X179741541Y-89869819D02*
X179741541Y-88869819D01*
X179741541Y-88869819D02*
X180217731Y-88869819D01*
X180598684Y-89869819D02*
X180598684Y-88869819D01*
X180598684Y-89346009D02*
X181170112Y-89346009D01*
X181170112Y-89869819D02*
X181170112Y-88869819D01*
X181646303Y-89869819D02*
X181646303Y-88869819D01*
X181646303Y-88869819D02*
X182027255Y-88869819D01*
X182027255Y-88869819D02*
X182122493Y-88917438D01*
X182122493Y-88917438D02*
X182170112Y-88965057D01*
X182170112Y-88965057D02*
X182217731Y-89060295D01*
X182217731Y-89060295D02*
X182217731Y-89203152D01*
X182217731Y-89203152D02*
X182170112Y-89298390D01*
X182170112Y-89298390D02*
X182122493Y-89346009D01*
X182122493Y-89346009D02*
X182027255Y-89393628D01*
X182027255Y-89393628D02*
X181646303Y-89393628D01*
X170336779Y-70369819D02*
X170336779Y-69369819D01*
X170336779Y-69369819D02*
X170908207Y-70369819D01*
X170908207Y-70369819D02*
X170908207Y-69369819D01*
X171384398Y-70369819D02*
X171384398Y-69369819D01*
X171384398Y-69369819D02*
X171765350Y-69369819D01*
X171765350Y-69369819D02*
X171860588Y-69417438D01*
X171860588Y-69417438D02*
X171908207Y-69465057D01*
X171908207Y-69465057D02*
X171955826Y-69560295D01*
X171955826Y-69560295D02*
X171955826Y-69703152D01*
X171955826Y-69703152D02*
X171908207Y-69798390D01*
X171908207Y-69798390D02*
X171860588Y-69846009D01*
X171860588Y-69846009D02*
X171765350Y-69893628D01*
X171765350Y-69893628D02*
X171384398Y-69893628D01*
X172384398Y-70369819D02*
X172384398Y-69369819D01*
X172384398Y-69369819D02*
X172955826Y-70369819D01*
X172955826Y-70369819D02*
X172955826Y-69369819D01*
X173765350Y-69846009D02*
X173908207Y-69893628D01*
X173908207Y-69893628D02*
X173955826Y-69941247D01*
X173955826Y-69941247D02*
X174003445Y-70036485D01*
X174003445Y-70036485D02*
X174003445Y-70179342D01*
X174003445Y-70179342D02*
X173955826Y-70274580D01*
X173955826Y-70274580D02*
X173908207Y-70322200D01*
X173908207Y-70322200D02*
X173812969Y-70369819D01*
X173812969Y-70369819D02*
X173432017Y-70369819D01*
X173432017Y-70369819D02*
X173432017Y-69369819D01*
X173432017Y-69369819D02*
X173765350Y-69369819D01*
X173765350Y-69369819D02*
X173860588Y-69417438D01*
X173860588Y-69417438D02*
X173908207Y-69465057D01*
X173908207Y-69465057D02*
X173955826Y-69560295D01*
X173955826Y-69560295D02*
X173955826Y-69655533D01*
X173955826Y-69655533D02*
X173908207Y-69750771D01*
X173908207Y-69750771D02*
X173860588Y-69798390D01*
X173860588Y-69798390D02*
X173765350Y-69846009D01*
X173765350Y-69846009D02*
X173432017Y-69846009D01*
X177408207Y-72774580D02*
X177360588Y-72822200D01*
X177360588Y-72822200D02*
X177217731Y-72869819D01*
X177217731Y-72869819D02*
X177122493Y-72869819D01*
X177122493Y-72869819D02*
X176979636Y-72822200D01*
X176979636Y-72822200D02*
X176884398Y-72726961D01*
X176884398Y-72726961D02*
X176836779Y-72631723D01*
X176836779Y-72631723D02*
X176789160Y-72441247D01*
X176789160Y-72441247D02*
X176789160Y-72298390D01*
X176789160Y-72298390D02*
X176836779Y-72107914D01*
X176836779Y-72107914D02*
X176884398Y-72012676D01*
X176884398Y-72012676D02*
X176979636Y-71917438D01*
X176979636Y-71917438D02*
X177122493Y-71869819D01*
X177122493Y-71869819D02*
X177217731Y-71869819D01*
X177217731Y-71869819D02*
X177360588Y-71917438D01*
X177360588Y-71917438D02*
X177408207Y-71965057D01*
X177693922Y-71869819D02*
X178027255Y-72869819D01*
X178027255Y-72869819D02*
X178360588Y-71869819D01*
X178693922Y-72869819D02*
X178693922Y-71869819D01*
X178693922Y-71869819D02*
X178932017Y-71869819D01*
X178932017Y-71869819D02*
X179074874Y-71917438D01*
X179074874Y-71917438D02*
X179170112Y-72012676D01*
X179170112Y-72012676D02*
X179217731Y-72107914D01*
X179217731Y-72107914D02*
X179265350Y-72298390D01*
X179265350Y-72298390D02*
X179265350Y-72441247D01*
X179265350Y-72441247D02*
X179217731Y-72631723D01*
X179217731Y-72631723D02*
X179170112Y-72726961D01*
X179170112Y-72726961D02*
X179074874Y-72822200D01*
X179074874Y-72822200D02*
X178932017Y-72869819D01*
X178932017Y-72869819D02*
X178693922Y-72869819D01*
X179693922Y-72869819D02*
X179693922Y-71869819D01*
X179693922Y-71869819D02*
X179932017Y-71869819D01*
X179932017Y-71869819D02*
X180074874Y-71917438D01*
X180074874Y-71917438D02*
X180170112Y-72012676D01*
X180170112Y-72012676D02*
X180217731Y-72107914D01*
X180217731Y-72107914D02*
X180265350Y-72298390D01*
X180265350Y-72298390D02*
X180265350Y-72441247D01*
X180265350Y-72441247D02*
X180217731Y-72631723D01*
X180217731Y-72631723D02*
X180170112Y-72726961D01*
X180170112Y-72726961D02*
X180074874Y-72822200D01*
X180074874Y-72822200D02*
X179932017Y-72869819D01*
X179932017Y-72869819D02*
X179693922Y-72869819D01*
X178289160Y-99084104D02*
X178765350Y-99084104D01*
X178193922Y-99369819D02*
X178527255Y-98369819D01*
X178527255Y-98369819D02*
X178860588Y-99369819D01*
X179051065Y-98369819D02*
X179384398Y-99369819D01*
X179384398Y-99369819D02*
X179717731Y-98369819D01*
X180051065Y-99369819D02*
X180051065Y-98369819D01*
X180051065Y-98369819D02*
X180289160Y-98369819D01*
X180289160Y-98369819D02*
X180432017Y-98417438D01*
X180432017Y-98417438D02*
X180527255Y-98512676D01*
X180527255Y-98512676D02*
X180574874Y-98607914D01*
X180574874Y-98607914D02*
X180622493Y-98798390D01*
X180622493Y-98798390D02*
X180622493Y-98941247D01*
X180622493Y-98941247D02*
X180574874Y-99131723D01*
X180574874Y-99131723D02*
X180527255Y-99226961D01*
X180527255Y-99226961D02*
X180432017Y-99322200D01*
X180432017Y-99322200D02*
X180289160Y-99369819D01*
X180289160Y-99369819D02*
X180051065Y-99369819D01*
X181051065Y-99369819D02*
X181051065Y-98369819D01*
X181051065Y-98369819D02*
X181289160Y-98369819D01*
X181289160Y-98369819D02*
X181432017Y-98417438D01*
X181432017Y-98417438D02*
X181527255Y-98512676D01*
X181527255Y-98512676D02*
X181574874Y-98607914D01*
X181574874Y-98607914D02*
X181622493Y-98798390D01*
X181622493Y-98798390D02*
X181622493Y-98941247D01*
X181622493Y-98941247D02*
X181574874Y-99131723D01*
X181574874Y-99131723D02*
X181527255Y-99226961D01*
X181527255Y-99226961D02*
X181432017Y-99322200D01*
X181432017Y-99322200D02*
X181289160Y-99369819D01*
X181289160Y-99369819D02*
X181051065Y-99369819D01*
X173336779Y-62869819D02*
X173336779Y-61869819D01*
X173336779Y-61869819D02*
X173574874Y-61869819D01*
X173574874Y-61869819D02*
X173717731Y-61917438D01*
X173717731Y-61917438D02*
X173812969Y-62012676D01*
X173812969Y-62012676D02*
X173860588Y-62107914D01*
X173860588Y-62107914D02*
X173908207Y-62298390D01*
X173908207Y-62298390D02*
X173908207Y-62441247D01*
X173908207Y-62441247D02*
X173860588Y-62631723D01*
X173860588Y-62631723D02*
X173812969Y-62726961D01*
X173812969Y-62726961D02*
X173717731Y-62822200D01*
X173717731Y-62822200D02*
X173574874Y-62869819D01*
X173574874Y-62869819D02*
X173336779Y-62869819D01*
X174193922Y-61869819D02*
X174527255Y-62869819D01*
X174527255Y-62869819D02*
X174860588Y-61869819D01*
X175193922Y-62869819D02*
X175193922Y-61869819D01*
X175193922Y-61869819D02*
X175432017Y-61869819D01*
X175432017Y-61869819D02*
X175574874Y-61917438D01*
X175574874Y-61917438D02*
X175670112Y-62012676D01*
X175670112Y-62012676D02*
X175717731Y-62107914D01*
X175717731Y-62107914D02*
X175765350Y-62298390D01*
X175765350Y-62298390D02*
X175765350Y-62441247D01*
X175765350Y-62441247D02*
X175717731Y-62631723D01*
X175717731Y-62631723D02*
X175670112Y-62726961D01*
X175670112Y-62726961D02*
X175574874Y-62822200D01*
X175574874Y-62822200D02*
X175432017Y-62869819D01*
X175432017Y-62869819D02*
X175193922Y-62869819D01*
X176193922Y-62869819D02*
X176193922Y-61869819D01*
X176193922Y-61869819D02*
X176432017Y-61869819D01*
X176432017Y-61869819D02*
X176574874Y-61917438D01*
X176574874Y-61917438D02*
X176670112Y-62012676D01*
X176670112Y-62012676D02*
X176717731Y-62107914D01*
X176717731Y-62107914D02*
X176765350Y-62298390D01*
X176765350Y-62298390D02*
X176765350Y-62441247D01*
X176765350Y-62441247D02*
X176717731Y-62631723D01*
X176717731Y-62631723D02*
X176670112Y-62726961D01*
X176670112Y-62726961D02*
X176574874Y-62822200D01*
X176574874Y-62822200D02*
X176432017Y-62869819D01*
X176432017Y-62869819D02*
X176193922Y-62869819D01*
X160505579Y-69606436D02*
X161077007Y-69606436D01*
X160791293Y-70606436D02*
X160791293Y-69606436D01*
X161362722Y-70558817D02*
X161505579Y-70606436D01*
X161505579Y-70606436D02*
X161743674Y-70606436D01*
X161743674Y-70606436D02*
X161838912Y-70558817D01*
X161838912Y-70558817D02*
X161886531Y-70511197D01*
X161886531Y-70511197D02*
X161934150Y-70415959D01*
X161934150Y-70415959D02*
X161934150Y-70320721D01*
X161934150Y-70320721D02*
X161886531Y-70225483D01*
X161886531Y-70225483D02*
X161838912Y-70177864D01*
X161838912Y-70177864D02*
X161743674Y-70130245D01*
X161743674Y-70130245D02*
X161553198Y-70082626D01*
X161553198Y-70082626D02*
X161457960Y-70035007D01*
X161457960Y-70035007D02*
X161410341Y-69987388D01*
X161410341Y-69987388D02*
X161362722Y-69892150D01*
X161362722Y-69892150D02*
X161362722Y-69796912D01*
X161362722Y-69796912D02*
X161410341Y-69701674D01*
X161410341Y-69701674D02*
X161457960Y-69654055D01*
X161457960Y-69654055D02*
X161553198Y-69606436D01*
X161553198Y-69606436D02*
X161791293Y-69606436D01*
X161791293Y-69606436D02*
X161934150Y-69654055D01*
X162934150Y-70606436D02*
X162600817Y-70130245D01*
X162362722Y-70606436D02*
X162362722Y-69606436D01*
X162362722Y-69606436D02*
X162743674Y-69606436D01*
X162743674Y-69606436D02*
X162838912Y-69654055D01*
X162838912Y-69654055D02*
X162886531Y-69701674D01*
X162886531Y-69701674D02*
X162934150Y-69796912D01*
X162934150Y-69796912D02*
X162934150Y-69939769D01*
X162934150Y-69939769D02*
X162886531Y-70035007D01*
X162886531Y-70035007D02*
X162838912Y-70082626D01*
X162838912Y-70082626D02*
X162743674Y-70130245D01*
X162743674Y-70130245D02*
X162362722Y-70130245D01*
X163362722Y-70082626D02*
X163696055Y-70082626D01*
X163838912Y-70606436D02*
X163362722Y-70606436D01*
X163362722Y-70606436D02*
X163362722Y-69606436D01*
X163362722Y-69606436D02*
X163838912Y-69606436D01*
X164600817Y-70082626D02*
X164267484Y-70082626D01*
X164267484Y-70606436D02*
X164267484Y-69606436D01*
X164267484Y-69606436D02*
X164743674Y-69606436D01*
D11*
%TO.C,U201*%
G36*
X160858609Y-83943952D02*
G01*
X159758129Y-83943952D01*
X159758129Y-82843472D01*
X160858609Y-82843472D01*
X160858609Y-83943952D01*
G37*
G36*
X160858609Y-85244432D02*
G01*
X159758129Y-85244432D01*
X159758129Y-84143952D01*
X160858609Y-84143952D01*
X160858609Y-85244432D01*
G37*
G36*
X160858609Y-86544912D02*
G01*
X159758129Y-86544912D01*
X159758129Y-85444432D01*
X160858609Y-85444432D01*
X160858609Y-86544912D01*
G37*
G36*
X160858609Y-87845392D02*
G01*
X159758129Y-87845392D01*
X159758129Y-86744912D01*
X160858609Y-86744912D01*
X160858609Y-87845392D01*
G37*
G36*
X160858609Y-89145872D02*
G01*
X159758129Y-89145872D01*
X159758129Y-88045392D01*
X160858609Y-88045392D01*
X160858609Y-89145872D01*
G37*
G36*
X162159089Y-83943952D02*
G01*
X161058609Y-83943952D01*
X161058609Y-82843472D01*
X162159089Y-82843472D01*
X162159089Y-83943952D01*
G37*
G36*
X162159089Y-85244432D02*
G01*
X161058609Y-85244432D01*
X161058609Y-84143952D01*
X162159089Y-84143952D01*
X162159089Y-85244432D01*
G37*
G36*
X162159089Y-86544912D02*
G01*
X161058609Y-86544912D01*
X161058609Y-85444432D01*
X162159089Y-85444432D01*
X162159089Y-86544912D01*
G37*
G36*
X162159089Y-87845392D02*
G01*
X161058609Y-87845392D01*
X161058609Y-86744912D01*
X162159089Y-86744912D01*
X162159089Y-87845392D01*
G37*
G36*
X162159089Y-89145872D02*
G01*
X161058609Y-89145872D01*
X161058609Y-88045392D01*
X162159089Y-88045392D01*
X162159089Y-89145872D01*
G37*
G36*
X163459569Y-83943952D02*
G01*
X162359089Y-83943952D01*
X162359089Y-82843472D01*
X163459569Y-82843472D01*
X163459569Y-83943952D01*
G37*
G36*
X163459569Y-85244432D02*
G01*
X162359089Y-85244432D01*
X162359089Y-84143952D01*
X163459569Y-84143952D01*
X163459569Y-85244432D01*
G37*
G36*
X163459569Y-86544912D02*
G01*
X162359089Y-86544912D01*
X162359089Y-85444432D01*
X163459569Y-85444432D01*
X163459569Y-86544912D01*
G37*
G36*
X163459569Y-87845392D02*
G01*
X162359089Y-87845392D01*
X162359089Y-86744912D01*
X163459569Y-86744912D01*
X163459569Y-87845392D01*
G37*
G36*
X163459569Y-89145872D02*
G01*
X162359089Y-89145872D01*
X162359089Y-88045392D01*
X163459569Y-88045392D01*
X163459569Y-89145872D01*
G37*
G36*
X164760049Y-83943952D02*
G01*
X163659569Y-83943952D01*
X163659569Y-82843472D01*
X164760049Y-82843472D01*
X164760049Y-83943952D01*
G37*
G36*
X164760049Y-85244432D02*
G01*
X163659569Y-85244432D01*
X163659569Y-84143952D01*
X164760049Y-84143952D01*
X164760049Y-85244432D01*
G37*
G36*
X164760049Y-86544912D02*
G01*
X163659569Y-86544912D01*
X163659569Y-85444432D01*
X164760049Y-85444432D01*
X164760049Y-86544912D01*
G37*
G36*
X164760049Y-87845392D02*
G01*
X163659569Y-87845392D01*
X163659569Y-86744912D01*
X164760049Y-86744912D01*
X164760049Y-87845392D01*
G37*
G36*
X164760049Y-89145872D02*
G01*
X163659569Y-89145872D01*
X163659569Y-88045392D01*
X164760049Y-88045392D01*
X164760049Y-89145872D01*
G37*
G36*
X166060529Y-83943952D02*
G01*
X164960049Y-83943952D01*
X164960049Y-82843472D01*
X166060529Y-82843472D01*
X166060529Y-83943952D01*
G37*
G36*
X166060529Y-85244432D02*
G01*
X164960049Y-85244432D01*
X164960049Y-84143952D01*
X166060529Y-84143952D01*
X166060529Y-85244432D01*
G37*
G36*
X166060529Y-86544912D02*
G01*
X164960049Y-86544912D01*
X164960049Y-85444432D01*
X166060529Y-85444432D01*
X166060529Y-86544912D01*
G37*
G36*
X166060529Y-87845392D02*
G01*
X164960049Y-87845392D01*
X164960049Y-86744912D01*
X166060529Y-86744912D01*
X166060529Y-87845392D01*
G37*
G36*
X166060529Y-89145872D02*
G01*
X164960049Y-89145872D01*
X164960049Y-88045392D01*
X166060529Y-88045392D01*
X166060529Y-89145872D01*
G37*
%TD*%
D12*
%TO.C,R602*%
X158000000Y-70537500D03*
X158000000Y-76462500D03*
%TD*%
D13*
%TO.C,R330*%
X133781775Y-55266895D03*
X135431775Y-55266895D03*
%TD*%
D14*
%TO.C,R329*%
X135362196Y-70591895D03*
X133712196Y-70591895D03*
%TD*%
%TO.C,R328*%
X135431775Y-65474117D03*
X133781775Y-65474117D03*
%TD*%
%TO.C,R327*%
X135314641Y-60450783D03*
X133664641Y-60450783D03*
%TD*%
D13*
%TO.C,R322*%
X133781775Y-126471895D03*
X135431775Y-126471895D03*
%TD*%
D14*
%TO.C,R321*%
X135431775Y-121391895D03*
X133781775Y-121391895D03*
%TD*%
%TO.C,R320*%
X135431775Y-116311895D03*
X133781775Y-116311895D03*
%TD*%
%TO.C,R319*%
X135431775Y-111231895D03*
X133781775Y-111231895D03*
%TD*%
%TO.C,R318*%
X135431775Y-106151895D03*
X133781775Y-106151895D03*
%TD*%
%TO.C,R317*%
X135431775Y-101071895D03*
X133781775Y-101071895D03*
%TD*%
%TO.C,R316*%
X135431775Y-96138566D03*
X133781775Y-96138566D03*
%TD*%
%TO.C,R315*%
X135302048Y-90924487D03*
X133652048Y-90924487D03*
%TD*%
%TO.C,R314*%
X135201308Y-85957820D03*
X133551308Y-85957820D03*
%TD*%
%TO.C,R313*%
X135239085Y-80726709D03*
X133589085Y-80726709D03*
%TD*%
%TO.C,R312*%
X135311999Y-75800971D03*
X133661999Y-75800971D03*
%TD*%
D15*
%TO.C,F308*%
X97976059Y-100550732D03*
X99551059Y-100550732D03*
%TD*%
D16*
%TO.C,R705*%
X192605440Y-112583972D03*
X192605440Y-114158772D03*
%TD*%
D17*
%TO.C,U201*%
X157232429Y-82243727D03*
X157232429Y-82743853D03*
X157232429Y-83243979D03*
X157232429Y-83744105D03*
X157232429Y-84244231D03*
X157232429Y-84744357D03*
X157232429Y-85244483D03*
X157232429Y-85744609D03*
X157232429Y-86244735D03*
X157232429Y-86744861D03*
X157232429Y-87244987D03*
X157232429Y-87745113D03*
X157232429Y-88245239D03*
X157232429Y-88745365D03*
X157232429Y-89245491D03*
X157232429Y-89745617D03*
D18*
X159158384Y-91671572D03*
X159658510Y-91671572D03*
X160158636Y-91671572D03*
X160658762Y-91671572D03*
X161158888Y-91671572D03*
X161659014Y-91671572D03*
X162159140Y-91671572D03*
X162659266Y-91671572D03*
X163159392Y-91671572D03*
X163659518Y-91671572D03*
X164159644Y-91671572D03*
X164659770Y-91671572D03*
X165159896Y-91671572D03*
X165660022Y-91671572D03*
X166160148Y-91671572D03*
X166660274Y-91671572D03*
D17*
X168586229Y-89745617D03*
X168586229Y-89245491D03*
X168586229Y-88745365D03*
X168586229Y-88245239D03*
X168586229Y-87745113D03*
X168586229Y-87244987D03*
X168586229Y-86744861D03*
X168586229Y-86244735D03*
X168586229Y-85744609D03*
X168586229Y-85244483D03*
X168586229Y-84744357D03*
X168586229Y-84244231D03*
X168586229Y-83744105D03*
X168586229Y-83243979D03*
X168586229Y-82743853D03*
X168586229Y-82243727D03*
D18*
X166660274Y-80317772D03*
X166160148Y-80317772D03*
X165660022Y-80317772D03*
X165159896Y-80317772D03*
X164659770Y-80317772D03*
X164159644Y-80317772D03*
X163659518Y-80317772D03*
X163159392Y-80317772D03*
X162659266Y-80317772D03*
X162159140Y-80317772D03*
X161659014Y-80317772D03*
X161158888Y-80317772D03*
X160658762Y-80317772D03*
X160158636Y-80317772D03*
X159658510Y-80317772D03*
X159158384Y-80317772D03*
%TD*%
D19*
%TO.C,R712*%
X198180732Y-81114593D03*
X196828334Y-81114593D03*
%TD*%
D20*
%TO.C,R309*%
X130839232Y-116362500D03*
X130839232Y-120637500D03*
%TD*%
D21*
%TO.C,R707*%
X195052328Y-92494905D03*
X195052328Y-93847303D03*
%TD*%
D22*
%TO.C,FL702*%
X198271715Y-55379388D03*
X197001715Y-55379388D03*
X197001715Y-59929388D03*
X198271715Y-59929388D03*
%TD*%
D20*
%TO.C,R305*%
X130500000Y-96112500D03*
X130500000Y-100387500D03*
%TD*%
D23*
%TO.C,R719*%
X194899468Y-72090122D03*
X194899468Y-73436322D03*
%TD*%
D15*
%TO.C,F301*%
X97919359Y-82739146D03*
X99494359Y-82739146D03*
%TD*%
D16*
%TO.C,R716*%
X192383946Y-58317957D03*
X192383946Y-56743157D03*
%TD*%
D24*
%TO.C,F321*%
X104113559Y-103111715D03*
X105663559Y-103111715D03*
%TD*%
D21*
%TO.C,R201*%
X158078886Y-79783300D03*
X158078886Y-78430902D03*
%TD*%
D25*
%TO.C,C328*%
X153265915Y-87578788D03*
X153265915Y-86334188D03*
%TD*%
D26*
%TO.C,C703*%
X200132328Y-89824357D03*
X200132328Y-91276757D03*
%TD*%
D15*
%TO.C,F310*%
X97976059Y-105630732D03*
X99551059Y-105630732D03*
%TD*%
D27*
%TO.C,C319*%
X167870617Y-94485994D03*
X166626017Y-94485994D03*
%TD*%
D24*
%TO.C,F317*%
X104113559Y-105678193D03*
X105663559Y-105678193D03*
%TD*%
D27*
%TO.C,C313*%
X158047849Y-94429745D03*
X156803249Y-94429745D03*
%TD*%
D28*
%TO.C,Q601*%
X163549000Y-59786000D03*
D29*
X157000000Y-57500000D03*
D28*
X163549000Y-55214000D03*
%TD*%
D16*
%TO.C,R721*%
X200132328Y-52117556D03*
X200132328Y-50542756D03*
%TD*%
D21*
%TO.C,R718*%
X199982706Y-78551909D03*
X199982706Y-77199511D03*
%TD*%
D25*
%TO.C,C322*%
X173989472Y-88904139D03*
X173989472Y-90148739D03*
%TD*%
D30*
%TO.C,C201*%
X156639472Y-78356439D03*
X156639472Y-79896439D03*
%TD*%
D27*
%TO.C,C316*%
X162498789Y-95818424D03*
X161254189Y-95818424D03*
%TD*%
D24*
%TO.C,F327*%
X103825893Y-72610732D03*
X105375893Y-72610732D03*
%TD*%
%TO.C,F319*%
X104080472Y-98010732D03*
X105630472Y-98010732D03*
%TD*%
D16*
%TO.C,R715*%
X202543946Y-58317957D03*
X202543946Y-56743157D03*
%TD*%
D25*
%TO.C,C329*%
X151765915Y-89126141D03*
X151765915Y-87881541D03*
%TD*%
D24*
%TO.C,F328*%
X103832843Y-75144045D03*
X105382843Y-75144045D03*
%TD*%
D31*
%TO.C,C208*%
X172108572Y-81326439D03*
X171270372Y-81326439D03*
%TD*%
D16*
%TO.C,R714*%
X194907627Y-70861282D03*
X194907627Y-69286482D03*
%TD*%
D26*
%TO.C,C706*%
X194918733Y-80861036D03*
X194918733Y-79408636D03*
%TD*%
D32*
%TO.C,C702*%
X200058341Y-107289132D03*
X200058341Y-104319132D03*
%TD*%
D23*
%TO.C,R703*%
X200015344Y-98888469D03*
X200015344Y-97542269D03*
%TD*%
D15*
%TO.C,F325*%
X97976059Y-77690732D03*
X99551059Y-77690732D03*
%TD*%
D32*
%TO.C,C701*%
X194912547Y-107310890D03*
X194912547Y-104340890D03*
%TD*%
D20*
%TO.C,R323*%
X130650000Y-54362500D03*
X130650000Y-58637500D03*
%TD*%
%TO.C,R301*%
X130780694Y-75862500D03*
X130780694Y-80137500D03*
%TD*%
D23*
%TO.C,R704*%
X194923946Y-98790557D03*
X194923946Y-97444357D03*
%TD*%
D20*
%TO.C,R307*%
X130780694Y-106362500D03*
X130780694Y-110637500D03*
%TD*%
D25*
%TO.C,C320*%
X172389472Y-93504139D03*
X172389472Y-94748739D03*
%TD*%
D33*
%TO.C,C207*%
X167689472Y-78800240D03*
X167689472Y-80052638D03*
%TD*%
D16*
%TO.C,R722*%
X195052328Y-52092998D03*
X195052328Y-50518198D03*
%TD*%
%TO.C,R702*%
X200132328Y-118335356D03*
X200132328Y-119910156D03*
%TD*%
D32*
%TO.C,C707*%
X199976488Y-63870186D03*
X199976488Y-66840186D03*
%TD*%
D27*
%TO.C,C315*%
X161646484Y-94508899D03*
X160401884Y-94508899D03*
%TD*%
D16*
%TO.C,R701*%
X195052328Y-118335356D03*
X195052328Y-119910156D03*
%TD*%
D20*
%TO.C,R306*%
X126000000Y-101062500D03*
X126000000Y-105337500D03*
%TD*%
D34*
%TO.C,C206*%
X173068972Y-78326439D03*
X170909972Y-78326439D03*
%TD*%
D15*
%TO.C,F309*%
X97976059Y-103090732D03*
X99551059Y-103090732D03*
%TD*%
D24*
%TO.C,F320*%
X104113559Y-100550732D03*
X105663559Y-100550732D03*
%TD*%
D35*
%TO.C,D701*%
X198350000Y-93962500D03*
X196450000Y-93962500D03*
X197400000Y-95837500D03*
%TD*%
D36*
%TO.C,D702*%
X196550000Y-77137500D03*
X198450000Y-77137500D03*
X197500000Y-75262500D03*
%TD*%
D25*
%TO.C,C327*%
X153265915Y-85116888D03*
X153265915Y-83872288D03*
%TD*%
D15*
%TO.C,F326*%
X97976059Y-80230732D03*
X99551059Y-80230732D03*
%TD*%
D20*
%TO.C,R308*%
X126300000Y-111212500D03*
X126300000Y-115487500D03*
%TD*%
D15*
%TO.C,F302*%
X97929887Y-85310732D03*
X99504887Y-85310732D03*
%TD*%
D16*
%TO.C,R709*%
X194945704Y-100259959D03*
X194945704Y-101834759D03*
%TD*%
D15*
%TO.C,F311*%
X97925000Y-110750000D03*
X99500000Y-110750000D03*
%TD*%
D27*
%TO.C,C318*%
X166184941Y-95881706D03*
X164940341Y-95881706D03*
%TD*%
D24*
%TO.C,F329*%
X103843977Y-77684941D03*
X105393977Y-77684941D03*
%TD*%
D20*
%TO.C,R310*%
X126000000Y-121362500D03*
X126000000Y-125637500D03*
%TD*%
D24*
%TO.C,F313*%
X103990801Y-85310732D03*
X105540801Y-85310732D03*
%TD*%
D32*
%TO.C,C708*%
X194912547Y-63863831D03*
X194912547Y-66833831D03*
%TD*%
D20*
%TO.C,R324*%
X126350000Y-60412500D03*
X126350000Y-64687500D03*
%TD*%
D26*
%TO.C,C705*%
X200009385Y-80889161D03*
X200009385Y-79436761D03*
%TD*%
D24*
%TO.C,F315*%
X103986902Y-90406561D03*
X105536902Y-90406561D03*
%TD*%
D15*
%TO.C,F306*%
X97976059Y-95470732D03*
X99551059Y-95470732D03*
%TD*%
D20*
%TO.C,R325*%
X130950000Y-65462500D03*
X130950000Y-69737500D03*
%TD*%
D16*
%TO.C,R713*%
X199977357Y-70911873D03*
X199977357Y-69337073D03*
%TD*%
D24*
%TO.C,F318*%
X104061206Y-95470732D03*
X105611206Y-95470732D03*
%TD*%
D26*
%TO.C,C704*%
X195052328Y-89909604D03*
X195052328Y-91362004D03*
%TD*%
D20*
%TO.C,R302*%
X125950000Y-80862500D03*
X125950000Y-85137500D03*
%TD*%
D15*
%TO.C,F323*%
X97976059Y-72610732D03*
X99551059Y-72610732D03*
%TD*%
D24*
%TO.C,F330*%
X103923901Y-80230732D03*
X105473901Y-80230732D03*
%TD*%
D27*
%TO.C,C317*%
X164710195Y-94455619D03*
X163465595Y-94455619D03*
%TD*%
D37*
%TO.C,R311*%
X130500000Y-131137500D03*
X130500000Y-126862500D03*
%TD*%
D16*
%TO.C,R710*%
X200060268Y-100259959D03*
X200060268Y-101834759D03*
%TD*%
D15*
%TO.C,F324*%
X97976059Y-75150732D03*
X99551059Y-75150732D03*
%TD*%
D23*
%TO.C,R720*%
X199993066Y-72091757D03*
X199993066Y-73437957D03*
%TD*%
D38*
%TO.C,C601*%
X160358400Y-63000000D03*
X163000000Y-63000000D03*
%TD*%
D15*
%TO.C,F303*%
X97976059Y-87844187D03*
X99551059Y-87844187D03*
%TD*%
D25*
%TO.C,C330*%
X153265915Y-90126141D03*
X153265915Y-88881541D03*
%TD*%
D15*
%TO.C,F307*%
X97976059Y-98010732D03*
X99551059Y-98010732D03*
%TD*%
D25*
%TO.C,C312*%
X153272109Y-92649155D03*
X153272109Y-91404555D03*
%TD*%
D24*
%TO.C,F312*%
X103944787Y-82770732D03*
X105494787Y-82770732D03*
%TD*%
%TO.C,F314*%
X104004402Y-87850732D03*
X105554402Y-87850732D03*
%TD*%
D15*
%TO.C,F305*%
X97976059Y-92915798D03*
X99551059Y-92915798D03*
%TD*%
D22*
%TO.C,FL701*%
X196793070Y-115496188D03*
X198063070Y-115496188D03*
X198063070Y-110946188D03*
X196793070Y-110946188D03*
%TD*%
D19*
%TO.C,R711*%
X198178481Y-89819176D03*
X196826083Y-89819176D03*
%TD*%
D16*
%TO.C,R706*%
X202543946Y-112684357D03*
X202543946Y-114259157D03*
%TD*%
D20*
%TO.C,R304*%
X125800000Y-90912500D03*
X125800000Y-95187500D03*
%TD*%
D27*
%TO.C,C314*%
X159539172Y-95838586D03*
X158294572Y-95838586D03*
%TD*%
D20*
%TO.C,R303*%
X130780694Y-85862500D03*
X130780694Y-90137500D03*
%TD*%
D21*
%TO.C,R708*%
X200132328Y-92409658D03*
X200132328Y-93762056D03*
%TD*%
D24*
%TO.C,F316*%
X104021997Y-92930732D03*
X105571997Y-92930732D03*
%TD*%
D20*
%TO.C,R326*%
X125850000Y-70612500D03*
X125850000Y-74887500D03*
%TD*%
D25*
%TO.C,C321*%
X172389472Y-91004139D03*
X172389472Y-92248739D03*
%TD*%
D24*
%TO.C,F322*%
X104113559Y-110710732D03*
X105663559Y-110710732D03*
%TD*%
D21*
%TO.C,R717*%
X194923946Y-78526756D03*
X194923946Y-77174358D03*
%TD*%
D39*
%TO.C,R601*%
X158000000Y-68247900D03*
X158000000Y-63752100D03*
%TD*%
D15*
%TO.C,F304*%
X97976059Y-90390732D03*
X99551059Y-90390732D03*
%TD*%
M02*
