%TF.GenerationSoftware,KiCad,Pcbnew,8.0.7*%
%TF.CreationDate,2025-02-10T22:10:37-06:00*%
%TF.ProjectId,Project63_BMS_DaughterBoard,50726f6a-6563-4743-9633-5f424d535f44,rev?*%
%TF.SameCoordinates,Original*%
%TF.FileFunction,Copper,L3,Inr*%
%TF.FilePolarity,Positive*%
%FSLAX46Y46*%
G04 Gerber Fmt 4.6, Leading zero omitted, Abs format (unit mm)*
G04 Created by KiCad (PCBNEW 8.0.7) date 2025-02-10 22:10:37*
%MOMM*%
%LPD*%
G01*
G04 APERTURE LIST*
%TA.AperFunction,ComponentPad*%
%ADD10C,2.400000*%
%TD*%
%TA.AperFunction,ComponentPad*%
%ADD11R,1.520000X1.520000*%
%TD*%
%TA.AperFunction,ComponentPad*%
%ADD12C,1.520000*%
%TD*%
%TA.AperFunction,ComponentPad*%
%ADD13C,1.981200*%
%TD*%
%TA.AperFunction,ViaPad*%
%ADD14C,0.700000*%
%TD*%
G04 APERTURE END LIST*
D10*
%TO.N,TSREF*%
%TO.C,TP502*%
X162389472Y-72626439D03*
%TD*%
%TO.N,Net-(F316-Pad2)*%
%TO.C,TP306*%
X113640259Y-95970732D03*
%TD*%
%TO.N,Net-(F328-Pad2)*%
%TO.C,TP312*%
X113640259Y-60410732D03*
%TD*%
%TO.N,Net-(F314-Pad2)*%
%TO.C,TP304*%
X113640259Y-85810732D03*
%TD*%
%TO.N,DVDD*%
%TO.C,TP501*%
X174750000Y-65000000D03*
%TD*%
%TO.N,NPNB*%
%TO.C,TP509*%
X168789472Y-67826439D03*
%TD*%
%TO.N,NEG5V*%
%TO.C,TP506*%
X184389472Y-78926439D03*
%TD*%
%TO.N,Net-(F330-Pad2)*%
%TO.C,TP314*%
X113640259Y-70570732D03*
%TD*%
%TO.N,Net-(F313-Pad2)*%
%TO.C,TP303*%
X113640259Y-80730732D03*
%TD*%
D11*
%TO.N,ISO_COMMH_P*%
%TO.C,J702*%
X197592328Y-42403162D03*
D12*
%TO.N,ISO_COMMH_N*%
X197592328Y-45403161D03*
%TD*%
D10*
%TO.N,Net-(F319-Pad2)*%
%TO.C,TP308*%
X113640259Y-106130732D03*
%TD*%
%TO.N,AVDD*%
%TO.C,TP505*%
X179689472Y-96326439D03*
%TD*%
%TO.N,Net-(BAT_POSITIVE301-PadTP)*%
%TO.C,BAT_POSITIVE301*%
X113640259Y-55330732D03*
%TD*%
D13*
%TO.N,AVSS*%
%TO.C,J401*%
X79812428Y-108644354D03*
%TO.N,BAT*%
X79812428Y-104504355D03*
%TO.N,AVSS*%
X79812428Y-100364356D03*
%TO.N,Cell 0S*%
X79812428Y-96224357D03*
%TO.N,Cell 1*%
X79812428Y-92084357D03*
%TO.N,Cell 2*%
X79812428Y-87944358D03*
%TO.N,Cell 3*%
X79812428Y-83804359D03*
%TO.N,Cell 4*%
X79812428Y-79664359D03*
%TO.N,Cell 5*%
X79812428Y-75524360D03*
%TO.N,Cell 6*%
X79812428Y-71384361D03*
%TO.N,Cell 7*%
X75672430Y-108644354D03*
%TO.N,Cell 8*%
X75672430Y-104504355D03*
%TO.N,Cell 9*%
X75672430Y-100364356D03*
%TO.N,Cell 10*%
X75672430Y-96224357D03*
%TO.N,Cell 11*%
X75672430Y-92084357D03*
%TO.N,Cell 12*%
X75672430Y-87944358D03*
%TO.N,Cell 13*%
X75672430Y-83804359D03*
%TO.N,Cell 14S*%
X75672430Y-79664359D03*
%TO.N,BAT*%
X75672430Y-75524360D03*
%TO.N,AVSS*%
X75672430Y-71384361D03*
%TD*%
D10*
%TO.N,NFAULT*%
%TO.C,TP508*%
X166389472Y-72626439D03*
%TD*%
%TO.N,Net-(F312-Pad2)*%
%TO.C,TP302*%
X113640259Y-75650732D03*
%TD*%
%TO.N,Net-(F329-Pad2)*%
%TO.C,TP313*%
X113640259Y-65490732D03*
%TD*%
%TO.N,Net-(F321-Pad2)*%
%TO.C,TP310*%
X113640259Y-116290732D03*
%TD*%
D11*
%TO.N,ISO_COMML_N*%
%TO.C,J701*%
X197592328Y-127202755D03*
D12*
%TO.N,ISO_COMML_P*%
X197592328Y-124202756D03*
%TD*%
D10*
%TO.N,Net-(F317-Pad2)*%
%TO.C,TP311*%
X113640259Y-121370732D03*
%TD*%
%TO.N,REFHP*%
%TO.C,TP507*%
X179789472Y-91926439D03*
%TD*%
%TO.N,LDOIN*%
%TO.C,TP504*%
X178989472Y-78826439D03*
%TD*%
%TO.N,Net-(F322-Pad2)*%
%TO.C,TP301*%
X113640259Y-126450732D03*
%TD*%
%TO.N,Net-(F320-Pad2)*%
%TO.C,TP309*%
X113640259Y-111210732D03*
%TD*%
%TO.N,Net-(F315-Pad2)*%
%TO.C,TP305*%
X113640259Y-90890732D03*
%TD*%
%TO.N,Net-(F318-Pad2)*%
%TO.C,TP307*%
X113640259Y-101050732D03*
%TD*%
%TO.N,CVDD*%
%TO.C,TP503*%
X174389472Y-74126439D03*
%TD*%
D14*
%TO.N,Cell 7*%
X95889472Y-90376439D03*
%TO.N,Cell 9*%
X95889472Y-85126439D03*
%TO.N,Cell 8*%
X95889472Y-87876439D03*
%TO.N,Cell 10*%
X95889472Y-82626439D03*
%TO.N,Cell 11*%
X95889472Y-80126439D03*
%TO.N,Cell 13*%
X95889472Y-75126439D03*
%TO.N,Cell 12*%
X95889472Y-77626439D03*
%TO.N,CB9*%
X133586431Y-82486431D03*
X155100000Y-91100000D03*
%TO.N,CB7*%
X159705428Y-93593072D03*
X133736927Y-93436927D03*
%TO.N,AVSS*%
X178689472Y-82926439D03*
X204889472Y-110626439D03*
X90189472Y-42126439D03*
X188889472Y-89626439D03*
X186089472Y-82926439D03*
X83089472Y-131426439D03*
X175889472Y-85326439D03*
X175289472Y-52626439D03*
X200089472Y-88826439D03*
X174300000Y-87401439D03*
X133389472Y-133500000D03*
X192189472Y-85326439D03*
X90189472Y-62726439D03*
X188889472Y-49626439D03*
X82189472Y-62726439D03*
X204889472Y-36626439D03*
X188889472Y-121626439D03*
X188889472Y-64626439D03*
X188889472Y-113626439D03*
X188889472Y-117626439D03*
X188889472Y-105626439D03*
X183289472Y-87426439D03*
X186389472Y-87426439D03*
X175389472Y-82926439D03*
X82189472Y-42126439D03*
X183289472Y-85326439D03*
X188889472Y-45626439D03*
X188889472Y-72626439D03*
X79089472Y-131426439D03*
X188889472Y-133626439D03*
X87089472Y-131426439D03*
X175289472Y-45626439D03*
X168889472Y-45626439D03*
X184789472Y-85326439D03*
X170900000Y-82900000D03*
X184589472Y-82926439D03*
X93189472Y-42126439D03*
X204889472Y-84626439D03*
X197500000Y-73600000D03*
X175289472Y-41626439D03*
X204889472Y-89626439D03*
X177789472Y-117726439D03*
X173889472Y-82926439D03*
X164100000Y-87600000D03*
X177289472Y-87426439D03*
X188889472Y-52626439D03*
X177789472Y-125726439D03*
X168889472Y-37626439D03*
X79089472Y-118226439D03*
X204889472Y-77626439D03*
X120589472Y-47626439D03*
X193589472Y-85326439D03*
X171489472Y-87426439D03*
X196589472Y-85326439D03*
X187889472Y-87426439D03*
X186289472Y-85326439D03*
X83089472Y-118226439D03*
X177389472Y-85326439D03*
X116589472Y-47626439D03*
X173900000Y-78300000D03*
X124589472Y-47626439D03*
X137389472Y-133500000D03*
X174489472Y-85326439D03*
X78189472Y-62726439D03*
X177789472Y-132726439D03*
X75089472Y-131426439D03*
X180289472Y-87426439D03*
X172389472Y-82926439D03*
X187589472Y-82926439D03*
X131589472Y-47626439D03*
X175289472Y-37626439D03*
X168889472Y-41626439D03*
X204889472Y-130626439D03*
X172989472Y-87426439D03*
X177789472Y-129726439D03*
X163100000Y-78000000D03*
X188889472Y-129626439D03*
X204889472Y-73626439D03*
X168889472Y-49626439D03*
X180189472Y-82926439D03*
X189189472Y-85326439D03*
X188889472Y-37626439D03*
X177189472Y-82926439D03*
X174000000Y-92400000D03*
X128589472Y-47626439D03*
X171489472Y-85326439D03*
X86189472Y-42126439D03*
X78189472Y-42126439D03*
X181789472Y-87426439D03*
X190689472Y-85326439D03*
X204889472Y-93626439D03*
X178789472Y-87426439D03*
X177789472Y-121726439D03*
X140389472Y-133500000D03*
X194889472Y-82026439D03*
X188889472Y-68626439D03*
X188889472Y-109626439D03*
X188889472Y-60626439D03*
X194989472Y-88826439D03*
X167600000Y-77700000D03*
X199989472Y-82026439D03*
X181789472Y-85326439D03*
X195089472Y-85326439D03*
X178889472Y-85326439D03*
X175289472Y-49626439D03*
X155500000Y-78300000D03*
X129389472Y-133500000D03*
X93189472Y-62726439D03*
X188889472Y-41626439D03*
X188889472Y-56626439D03*
X180289472Y-85326439D03*
X90089472Y-118226439D03*
X90089472Y-131426439D03*
X188889472Y-76626439D03*
X87089472Y-118226439D03*
X188889472Y-80626439D03*
X169663204Y-88076201D03*
X168889472Y-52626439D03*
X188889472Y-97626439D03*
X75089472Y-118226439D03*
X187789472Y-85326439D03*
X188889472Y-101626439D03*
X197400000Y-97500000D03*
X172989472Y-85326439D03*
X86189472Y-62726439D03*
X204889472Y-56626439D03*
X188889472Y-125626439D03*
X175300000Y-88900000D03*
X188889472Y-93626439D03*
X171401157Y-89698843D03*
X184789472Y-87426439D03*
X125389472Y-133500000D03*
%TO.N,CB14*%
X155196556Y-84003444D03*
X133570862Y-56869982D03*
%TO.N,CB12*%
X133601985Y-67101985D03*
X154500000Y-86900000D03*
%TO.N,CB6*%
X133902952Y-98539919D03*
X161500000Y-93400000D03*
%TO.N,CB2*%
X165700000Y-90600000D03*
X133683120Y-119157850D03*
%TO.N,CB0*%
X133375286Y-129225776D03*
X167389472Y-89226439D03*
%TO.N,CB11*%
X133677786Y-72377786D03*
X154500000Y-88228788D03*
%TO.N,CB1*%
X169700000Y-93637019D03*
X133900000Y-124054617D03*
%TO.N,CB13*%
X154477317Y-85122683D03*
X133634143Y-61968732D03*
%TO.N,CB10*%
X154509620Y-89590380D03*
X133776907Y-77276907D03*
%TO.N,CB4*%
X134026387Y-107899336D03*
X164115594Y-93434833D03*
%TO.N,CB8*%
X158300000Y-92831101D03*
X133519780Y-87545393D03*
%TO.N,CB5*%
X162809140Y-93400000D03*
X133925678Y-102737105D03*
%TO.N,CB3*%
X133779990Y-113658137D03*
X165415595Y-93467901D03*
%TO.N,CVDD*%
X164589472Y-81439274D03*
X167289472Y-83726439D03*
X170189472Y-79826439D03*
%TO.N,NPNB*%
X169489472Y-81526439D03*
X168989472Y-63326439D03*
%TO.N,TSREF*%
X165589472Y-79126439D03*
%TO.N,NEG5V*%
X167389472Y-84626439D03*
%TO.N,AVDD*%
X171389472Y-88626439D03*
%TO.N,LDOIN*%
X171989472Y-80026439D03*
X162727000Y-56400000D03*
X164327000Y-57200000D03*
X163527000Y-56400000D03*
X164327000Y-56400000D03*
X162727000Y-57200000D03*
X163527000Y-57200000D03*
%TO.N,REFHP*%
X167400000Y-87595239D03*
%TO.N,Cell 14S*%
X95900000Y-72600000D03*
%TD*%
%TA.AperFunction,Conductor*%
%TO.N,AVSS*%
G36*
X189943039Y-35220185D02*
G01*
X189988794Y-35272989D01*
X190000000Y-35324500D01*
X190000000Y-72426439D01*
X203789472Y-72426439D01*
X203961664Y-39881995D01*
X208199500Y-39881995D01*
X208199500Y-40118004D01*
X208199501Y-40118020D01*
X208230306Y-40352010D01*
X208291394Y-40579993D01*
X208381714Y-40798045D01*
X208381719Y-40798056D01*
X208452677Y-40920957D01*
X208499727Y-41002450D01*
X208499729Y-41002453D01*
X208499730Y-41002454D01*
X208643406Y-41189697D01*
X208643412Y-41189704D01*
X208810295Y-41356587D01*
X208810301Y-41356592D01*
X208997550Y-41500273D01*
X209109541Y-41564931D01*
X209201943Y-41618280D01*
X209201948Y-41618282D01*
X209201951Y-41618284D01*
X209420007Y-41708606D01*
X209647986Y-41769693D01*
X209881989Y-41800500D01*
X209881996Y-41800500D01*
X210118004Y-41800500D01*
X210118011Y-41800500D01*
X210352014Y-41769693D01*
X210579993Y-41708606D01*
X210798049Y-41618284D01*
X211002450Y-41500273D01*
X211189699Y-41356592D01*
X211356592Y-41189699D01*
X211500273Y-41002450D01*
X211618284Y-40798049D01*
X211708606Y-40579993D01*
X211769693Y-40352014D01*
X211800500Y-40118011D01*
X211800500Y-39881989D01*
X211769693Y-39647986D01*
X211708606Y-39420007D01*
X211618284Y-39201951D01*
X211618282Y-39201948D01*
X211618280Y-39201943D01*
X211576118Y-39128918D01*
X211500273Y-38997550D01*
X211356592Y-38810301D01*
X211356587Y-38810295D01*
X211189704Y-38643412D01*
X211189697Y-38643406D01*
X211002454Y-38499730D01*
X211002453Y-38499729D01*
X211002450Y-38499727D01*
X210920957Y-38452677D01*
X210798056Y-38381719D01*
X210798045Y-38381714D01*
X210579993Y-38291394D01*
X210352010Y-38230306D01*
X210118020Y-38199501D01*
X210118017Y-38199500D01*
X210118011Y-38199500D01*
X209881989Y-38199500D01*
X209881983Y-38199500D01*
X209881979Y-38199501D01*
X209647989Y-38230306D01*
X209420006Y-38291394D01*
X209201954Y-38381714D01*
X209201943Y-38381719D01*
X208997545Y-38499730D01*
X208810302Y-38643406D01*
X208810295Y-38643412D01*
X208643412Y-38810295D01*
X208643406Y-38810302D01*
X208499730Y-38997545D01*
X208381719Y-39201943D01*
X208381714Y-39201954D01*
X208291394Y-39420006D01*
X208230306Y-39647989D01*
X208199501Y-39881979D01*
X208199500Y-39881995D01*
X203961664Y-39881995D01*
X203985781Y-35323842D01*
X204005820Y-35256910D01*
X204058865Y-35211435D01*
X204109779Y-35200500D01*
X209960118Y-35200500D01*
X209997294Y-35200500D01*
X210002702Y-35200617D01*
X210412917Y-35218528D01*
X210423654Y-35219468D01*
X210828057Y-35272708D01*
X210838695Y-35274583D01*
X211236925Y-35362869D01*
X211247365Y-35365667D01*
X211636363Y-35488317D01*
X211646524Y-35492015D01*
X212023363Y-35648108D01*
X212033155Y-35652674D01*
X212394965Y-35841020D01*
X212404305Y-35846413D01*
X212689636Y-36028189D01*
X212748309Y-36065568D01*
X212757170Y-36071772D01*
X213080766Y-36320076D01*
X213089053Y-36327030D01*
X213389767Y-36602583D01*
X213397416Y-36610232D01*
X213672969Y-36910946D01*
X213679923Y-36919233D01*
X213928227Y-37242829D01*
X213934431Y-37251690D01*
X214115163Y-37535382D01*
X214153578Y-37595680D01*
X214158987Y-37605048D01*
X214347322Y-37966838D01*
X214351894Y-37976642D01*
X214507983Y-38353473D01*
X214511683Y-38363639D01*
X214634331Y-38752630D01*
X214637131Y-38763078D01*
X214725414Y-39161296D01*
X214727292Y-39171950D01*
X214780529Y-39576326D01*
X214781472Y-39587102D01*
X214799382Y-39997297D01*
X214799500Y-40002706D01*
X214799500Y-129997293D01*
X214799382Y-130002702D01*
X214781472Y-130412897D01*
X214780529Y-130423673D01*
X214727292Y-130828049D01*
X214725414Y-130838703D01*
X214637131Y-131236921D01*
X214634331Y-131247369D01*
X214511683Y-131636360D01*
X214507983Y-131646526D01*
X214351894Y-132023357D01*
X214347322Y-132033161D01*
X214158987Y-132394951D01*
X214153578Y-132404319D01*
X213934431Y-132748309D01*
X213928227Y-132757170D01*
X213679923Y-133080766D01*
X213672969Y-133089053D01*
X213397416Y-133389767D01*
X213389767Y-133397416D01*
X213089053Y-133672969D01*
X213080766Y-133679923D01*
X212757170Y-133928227D01*
X212748309Y-133934431D01*
X212404319Y-134153578D01*
X212394951Y-134158987D01*
X212033161Y-134347322D01*
X212023357Y-134351894D01*
X211646526Y-134507983D01*
X211636360Y-134511683D01*
X211247369Y-134634331D01*
X211236921Y-134637131D01*
X210838703Y-134725414D01*
X210828049Y-134727292D01*
X210423673Y-134780529D01*
X210412897Y-134781472D01*
X210002703Y-134799382D01*
X209997294Y-134799500D01*
X203913472Y-134799500D01*
X203846433Y-134779815D01*
X203800678Y-134727011D01*
X203789472Y-134675500D01*
X203789472Y-129881995D01*
X208199500Y-129881995D01*
X208199500Y-130118004D01*
X208199501Y-130118020D01*
X208230306Y-130352010D01*
X208291394Y-130579993D01*
X208381714Y-130798045D01*
X208381719Y-130798056D01*
X208452677Y-130920957D01*
X208499727Y-131002450D01*
X208499729Y-131002453D01*
X208499730Y-131002454D01*
X208643406Y-131189697D01*
X208643412Y-131189704D01*
X208810295Y-131356587D01*
X208810301Y-131356592D01*
X208997550Y-131500273D01*
X209128918Y-131576118D01*
X209201943Y-131618280D01*
X209201948Y-131618282D01*
X209201951Y-131618284D01*
X209420007Y-131708606D01*
X209647986Y-131769693D01*
X209881989Y-131800500D01*
X209881996Y-131800500D01*
X210118004Y-131800500D01*
X210118011Y-131800500D01*
X210352014Y-131769693D01*
X210579993Y-131708606D01*
X210798049Y-131618284D01*
X211002450Y-131500273D01*
X211189699Y-131356592D01*
X211356592Y-131189699D01*
X211500273Y-131002450D01*
X211618284Y-130798049D01*
X211708606Y-130579993D01*
X211769693Y-130352014D01*
X211800500Y-130118011D01*
X211800500Y-129881989D01*
X211769693Y-129647986D01*
X211708606Y-129420007D01*
X211618284Y-129201951D01*
X211618282Y-129201948D01*
X211618280Y-129201943D01*
X211549069Y-129082067D01*
X211500273Y-128997550D01*
X211441001Y-128920306D01*
X211356593Y-128810302D01*
X211356587Y-128810295D01*
X211189704Y-128643412D01*
X211189697Y-128643406D01*
X211002454Y-128499730D01*
X211002453Y-128499729D01*
X211002450Y-128499727D01*
X210920957Y-128452677D01*
X210798056Y-128381719D01*
X210798045Y-128381714D01*
X210579993Y-128291394D01*
X210352010Y-128230306D01*
X210118020Y-128199501D01*
X210118017Y-128199500D01*
X210118011Y-128199500D01*
X209881989Y-128199500D01*
X209881983Y-128199500D01*
X209881979Y-128199501D01*
X209647989Y-128230306D01*
X209420006Y-128291394D01*
X209201954Y-128381714D01*
X209201943Y-128381719D01*
X208997545Y-128499730D01*
X208810302Y-128643406D01*
X208810295Y-128643412D01*
X208643412Y-128810295D01*
X208643406Y-128810302D01*
X208499730Y-128997545D01*
X208381719Y-129201943D01*
X208381714Y-129201954D01*
X208291394Y-129420006D01*
X208230306Y-129647989D01*
X208199501Y-129881979D01*
X208199500Y-129881995D01*
X203789472Y-129881995D01*
X203789472Y-98426439D01*
X190139472Y-98526439D01*
X190139472Y-98526440D01*
X190013343Y-134675933D01*
X189993425Y-134742903D01*
X189940462Y-134788473D01*
X189889344Y-134799500D01*
X70002706Y-134799500D01*
X69997297Y-134799382D01*
X69587102Y-134781472D01*
X69576326Y-134780529D01*
X69171950Y-134727292D01*
X69161296Y-134725414D01*
X68763078Y-134637131D01*
X68752630Y-134634331D01*
X68363639Y-134511683D01*
X68353473Y-134507983D01*
X67976642Y-134351894D01*
X67966838Y-134347322D01*
X67847126Y-134285004D01*
X67605042Y-134158983D01*
X67595686Y-134153582D01*
X67423685Y-134044004D01*
X67251690Y-133934431D01*
X67242829Y-133928227D01*
X66919233Y-133679923D01*
X66910946Y-133672969D01*
X66610232Y-133397416D01*
X66602583Y-133389767D01*
X66327030Y-133089053D01*
X66320076Y-133080766D01*
X66071772Y-132757170D01*
X66065568Y-132748309D01*
X66012070Y-132664334D01*
X65846413Y-132404305D01*
X65841020Y-132394965D01*
X65652674Y-132033155D01*
X65648105Y-132023357D01*
X65555794Y-131800500D01*
X65492015Y-131646524D01*
X65488316Y-131636360D01*
X65487638Y-131634211D01*
X65365667Y-131247365D01*
X65362868Y-131236921D01*
X65274583Y-130838695D01*
X65272707Y-130828049D01*
X65219468Y-130423654D01*
X65218528Y-130412917D01*
X65200618Y-130002702D01*
X65200500Y-129997293D01*
X65200500Y-129881995D01*
X68199500Y-129881995D01*
X68199500Y-130118004D01*
X68199501Y-130118020D01*
X68230306Y-130352010D01*
X68291394Y-130579993D01*
X68381714Y-130798045D01*
X68381719Y-130798056D01*
X68452677Y-130920957D01*
X68499727Y-131002450D01*
X68499729Y-131002453D01*
X68499730Y-131002454D01*
X68643406Y-131189697D01*
X68643412Y-131189704D01*
X68810295Y-131356587D01*
X68810301Y-131356592D01*
X68997550Y-131500273D01*
X69128918Y-131576118D01*
X69201943Y-131618280D01*
X69201948Y-131618282D01*
X69201951Y-131618284D01*
X69420007Y-131708606D01*
X69647986Y-131769693D01*
X69881989Y-131800500D01*
X69881996Y-131800500D01*
X70118004Y-131800500D01*
X70118011Y-131800500D01*
X70352014Y-131769693D01*
X70579993Y-131708606D01*
X70798049Y-131618284D01*
X71002450Y-131500273D01*
X71189699Y-131356592D01*
X71356592Y-131189699D01*
X71500273Y-131002450D01*
X71618284Y-130798049D01*
X71708606Y-130579993D01*
X71769693Y-130352014D01*
X71800500Y-130118011D01*
X71800500Y-129881989D01*
X71769693Y-129647986D01*
X71708606Y-129420007D01*
X71628152Y-129225775D01*
X132820036Y-129225775D01*
X132820036Y-129225776D01*
X132838956Y-129369484D01*
X132838957Y-129369488D01*
X132894423Y-129503398D01*
X132894424Y-129503400D01*
X132894425Y-129503401D01*
X132982665Y-129618397D01*
X133097661Y-129706637D01*
X133231577Y-129762106D01*
X133358566Y-129778824D01*
X133375285Y-129781026D01*
X133375286Y-129781026D01*
X133375287Y-129781026D01*
X133390263Y-129779054D01*
X133518995Y-129762106D01*
X133652911Y-129706637D01*
X133767907Y-129618397D01*
X133856147Y-129503401D01*
X133911616Y-129369485D01*
X133930536Y-129225776D01*
X133911616Y-129082067D01*
X133856147Y-128948151D01*
X133767907Y-128833155D01*
X133652911Y-128744915D01*
X133652910Y-128744914D01*
X133652908Y-128744913D01*
X133518998Y-128689447D01*
X133518996Y-128689446D01*
X133518995Y-128689446D01*
X133447140Y-128679986D01*
X133375287Y-128670526D01*
X133375285Y-128670526D01*
X133231577Y-128689446D01*
X133231573Y-128689447D01*
X133097663Y-128744913D01*
X132982665Y-128833155D01*
X132894423Y-128948153D01*
X132838957Y-129082063D01*
X132838956Y-129082067D01*
X132820036Y-129225775D01*
X71628152Y-129225775D01*
X71618284Y-129201951D01*
X71618282Y-129201948D01*
X71618280Y-129201943D01*
X71549069Y-129082067D01*
X71500273Y-128997550D01*
X71441001Y-128920306D01*
X71356593Y-128810302D01*
X71356587Y-128810295D01*
X71189704Y-128643412D01*
X71189697Y-128643406D01*
X71002454Y-128499730D01*
X71002453Y-128499729D01*
X71002450Y-128499727D01*
X70920957Y-128452677D01*
X70798056Y-128381719D01*
X70798045Y-128381714D01*
X70579993Y-128291394D01*
X70352010Y-128230306D01*
X70118020Y-128199501D01*
X70118017Y-128199500D01*
X70118011Y-128199500D01*
X69881989Y-128199500D01*
X69881983Y-128199500D01*
X69881979Y-128199501D01*
X69647989Y-128230306D01*
X69420006Y-128291394D01*
X69201954Y-128381714D01*
X69201943Y-128381719D01*
X68997545Y-128499730D01*
X68810302Y-128643406D01*
X68810295Y-128643412D01*
X68643412Y-128810295D01*
X68643406Y-128810302D01*
X68499730Y-128997545D01*
X68381719Y-129201943D01*
X68381714Y-129201954D01*
X68291394Y-129420006D01*
X68230306Y-129647989D01*
X68199501Y-129881979D01*
X68199500Y-129881995D01*
X65200500Y-129881995D01*
X65200500Y-126450725D01*
X112234959Y-126450725D01*
X112234959Y-126450738D01*
X112254123Y-126682029D01*
X112254125Y-126682040D01*
X112311101Y-126907032D01*
X112404334Y-127119580D01*
X112531275Y-127313879D01*
X112531278Y-127313883D01*
X112531280Y-127313885D01*
X112688475Y-127484645D01*
X112688478Y-127484647D01*
X112688481Y-127484650D01*
X112871624Y-127627196D01*
X112871630Y-127627200D01*
X112871633Y-127627202D01*
X113075756Y-127737668D01*
X113189746Y-127776800D01*
X113295274Y-127813029D01*
X113295276Y-127813029D01*
X113295278Y-127813030D01*
X113524210Y-127851232D01*
X113524211Y-127851232D01*
X113756307Y-127851232D01*
X113756308Y-127851232D01*
X113985240Y-127813030D01*
X114204762Y-127737668D01*
X114408885Y-127627202D01*
X114592043Y-127484645D01*
X114749238Y-127313885D01*
X114876183Y-127119581D01*
X114969416Y-126907032D01*
X115026393Y-126682037D01*
X115045559Y-126450732D01*
X115045559Y-126450725D01*
X115026394Y-126219434D01*
X115026392Y-126219423D01*
X114969416Y-125994431D01*
X114876183Y-125781883D01*
X114749242Y-125587584D01*
X114749239Y-125587581D01*
X114749238Y-125587579D01*
X114592043Y-125416819D01*
X114592038Y-125416815D01*
X114592036Y-125416813D01*
X114408893Y-125274267D01*
X114408887Y-125274263D01*
X114204763Y-125163796D01*
X114204754Y-125163793D01*
X113985243Y-125088434D01*
X113813541Y-125059782D01*
X113756308Y-125050232D01*
X113524210Y-125050232D01*
X113478423Y-125057872D01*
X113295274Y-125088434D01*
X113075763Y-125163793D01*
X113075754Y-125163796D01*
X112871630Y-125274263D01*
X112871624Y-125274267D01*
X112688481Y-125416813D01*
X112688478Y-125416816D01*
X112531275Y-125587584D01*
X112404334Y-125781883D01*
X112311101Y-125994431D01*
X112254125Y-126219423D01*
X112254123Y-126219434D01*
X112234959Y-126450725D01*
X65200500Y-126450725D01*
X65200500Y-124054616D01*
X133344750Y-124054616D01*
X133344750Y-124054617D01*
X133363670Y-124198325D01*
X133363671Y-124198329D01*
X133419137Y-124332239D01*
X133419138Y-124332241D01*
X133419139Y-124332242D01*
X133507379Y-124447238D01*
X133622375Y-124535478D01*
X133756291Y-124590947D01*
X133883280Y-124607665D01*
X133899999Y-124609867D01*
X133900000Y-124609867D01*
X133900001Y-124609867D01*
X133914977Y-124607895D01*
X134043709Y-124590947D01*
X134177625Y-124535478D01*
X134292621Y-124447238D01*
X134380861Y-124332242D01*
X134436330Y-124198326D01*
X134455250Y-124054617D01*
X134436330Y-123910908D01*
X134380861Y-123776992D01*
X134292621Y-123661996D01*
X134177625Y-123573756D01*
X134177624Y-123573755D01*
X134177622Y-123573754D01*
X134043712Y-123518288D01*
X134043710Y-123518287D01*
X134043709Y-123518287D01*
X133971854Y-123508827D01*
X133900001Y-123499367D01*
X133899999Y-123499367D01*
X133756291Y-123518287D01*
X133756287Y-123518288D01*
X133622377Y-123573754D01*
X133507379Y-123661996D01*
X133419137Y-123776994D01*
X133363671Y-123910904D01*
X133363670Y-123910908D01*
X133344750Y-124054616D01*
X65200500Y-124054616D01*
X65200500Y-121370725D01*
X112234959Y-121370725D01*
X112234959Y-121370738D01*
X112254123Y-121602029D01*
X112254125Y-121602040D01*
X112311101Y-121827032D01*
X112404334Y-122039580D01*
X112531275Y-122233879D01*
X112531278Y-122233883D01*
X112531280Y-122233885D01*
X112688475Y-122404645D01*
X112688478Y-122404647D01*
X112688481Y-122404650D01*
X112871624Y-122547196D01*
X112871630Y-122547200D01*
X112871633Y-122547202D01*
X113075756Y-122657668D01*
X113189746Y-122696800D01*
X113295274Y-122733029D01*
X113295276Y-122733029D01*
X113295278Y-122733030D01*
X113524210Y-122771232D01*
X113524211Y-122771232D01*
X113756307Y-122771232D01*
X113756308Y-122771232D01*
X113985240Y-122733030D01*
X114204762Y-122657668D01*
X114408885Y-122547202D01*
X114592043Y-122404645D01*
X114749238Y-122233885D01*
X114876183Y-122039581D01*
X114969416Y-121827032D01*
X115026393Y-121602037D01*
X115045559Y-121370732D01*
X115045559Y-121370725D01*
X115026394Y-121139434D01*
X115026392Y-121139423D01*
X114969416Y-120914431D01*
X114876183Y-120701883D01*
X114749242Y-120507584D01*
X114749239Y-120507581D01*
X114749238Y-120507579D01*
X114592043Y-120336819D01*
X114592038Y-120336815D01*
X114592036Y-120336813D01*
X114408893Y-120194267D01*
X114408887Y-120194263D01*
X114204763Y-120083796D01*
X114204754Y-120083793D01*
X113985243Y-120008434D01*
X113813541Y-119979782D01*
X113756308Y-119970232D01*
X113524210Y-119970232D01*
X113478423Y-119977872D01*
X113295274Y-120008434D01*
X113075763Y-120083793D01*
X113075754Y-120083796D01*
X112871630Y-120194263D01*
X112871624Y-120194267D01*
X112688481Y-120336813D01*
X112688478Y-120336816D01*
X112531275Y-120507584D01*
X112404334Y-120701883D01*
X112311101Y-120914431D01*
X112254125Y-121139423D01*
X112254123Y-121139434D01*
X112234959Y-121370725D01*
X65200500Y-121370725D01*
X65200500Y-119157849D01*
X133127870Y-119157849D01*
X133127870Y-119157850D01*
X133146790Y-119301558D01*
X133146791Y-119301562D01*
X133202257Y-119435472D01*
X133202258Y-119435474D01*
X133202259Y-119435475D01*
X133290499Y-119550471D01*
X133405495Y-119638711D01*
X133539411Y-119694180D01*
X133666400Y-119710898D01*
X133683119Y-119713100D01*
X133683120Y-119713100D01*
X133683121Y-119713100D01*
X133698097Y-119711128D01*
X133826829Y-119694180D01*
X133960745Y-119638711D01*
X134075741Y-119550471D01*
X134163981Y-119435475D01*
X134219450Y-119301559D01*
X134238370Y-119157850D01*
X134219450Y-119014141D01*
X134163981Y-118880225D01*
X134075741Y-118765229D01*
X133960745Y-118676989D01*
X133960744Y-118676988D01*
X133960742Y-118676987D01*
X133826832Y-118621521D01*
X133826830Y-118621520D01*
X133826829Y-118621520D01*
X133754974Y-118612060D01*
X133683121Y-118602600D01*
X133683119Y-118602600D01*
X133539411Y-118621520D01*
X133539407Y-118621521D01*
X133405497Y-118676987D01*
X133290499Y-118765229D01*
X133202257Y-118880227D01*
X133146791Y-119014137D01*
X133146790Y-119014141D01*
X133127870Y-119157849D01*
X65200500Y-119157849D01*
X65200500Y-116290725D01*
X112234959Y-116290725D01*
X112234959Y-116290738D01*
X112254123Y-116522029D01*
X112254125Y-116522040D01*
X112311101Y-116747032D01*
X112404334Y-116959580D01*
X112531275Y-117153879D01*
X112531278Y-117153883D01*
X112531280Y-117153885D01*
X112688475Y-117324645D01*
X112688478Y-117324647D01*
X112688481Y-117324650D01*
X112871624Y-117467196D01*
X112871630Y-117467200D01*
X112871633Y-117467202D01*
X113075756Y-117577668D01*
X113189746Y-117616800D01*
X113295274Y-117653029D01*
X113295276Y-117653029D01*
X113295278Y-117653030D01*
X113524210Y-117691232D01*
X113524211Y-117691232D01*
X113756307Y-117691232D01*
X113756308Y-117691232D01*
X113985240Y-117653030D01*
X114204762Y-117577668D01*
X114408885Y-117467202D01*
X114592043Y-117324645D01*
X114749238Y-117153885D01*
X114876183Y-116959581D01*
X114969416Y-116747032D01*
X115026393Y-116522037D01*
X115045559Y-116290732D01*
X115045559Y-116290725D01*
X115026394Y-116059434D01*
X115026392Y-116059423D01*
X114969416Y-115834431D01*
X114876183Y-115621883D01*
X114749242Y-115427584D01*
X114749239Y-115427581D01*
X114749238Y-115427579D01*
X114592043Y-115256819D01*
X114592038Y-115256815D01*
X114592036Y-115256813D01*
X114408893Y-115114267D01*
X114408887Y-115114263D01*
X114204763Y-115003796D01*
X114204754Y-115003793D01*
X113985243Y-114928434D01*
X113813541Y-114899782D01*
X113756308Y-114890232D01*
X113524210Y-114890232D01*
X113478423Y-114897872D01*
X113295274Y-114928434D01*
X113075763Y-115003793D01*
X113075754Y-115003796D01*
X112871630Y-115114263D01*
X112871624Y-115114267D01*
X112688481Y-115256813D01*
X112688478Y-115256816D01*
X112531275Y-115427584D01*
X112404334Y-115621883D01*
X112311101Y-115834431D01*
X112254125Y-116059423D01*
X112254123Y-116059434D01*
X112234959Y-116290725D01*
X65200500Y-116290725D01*
X65200500Y-113658136D01*
X133224740Y-113658136D01*
X133224740Y-113658137D01*
X133243660Y-113801845D01*
X133243661Y-113801849D01*
X133299127Y-113935759D01*
X133299128Y-113935761D01*
X133299129Y-113935762D01*
X133387369Y-114050758D01*
X133502365Y-114138998D01*
X133636281Y-114194467D01*
X133763270Y-114211185D01*
X133779989Y-114213387D01*
X133779990Y-114213387D01*
X133779991Y-114213387D01*
X133794967Y-114211415D01*
X133923699Y-114194467D01*
X134057615Y-114138998D01*
X134172611Y-114050758D01*
X134260851Y-113935762D01*
X134316320Y-113801846D01*
X134335240Y-113658137D01*
X134316320Y-113514428D01*
X134260851Y-113380512D01*
X134172611Y-113265516D01*
X134057615Y-113177276D01*
X134057614Y-113177275D01*
X134057612Y-113177274D01*
X133923702Y-113121808D01*
X133923700Y-113121807D01*
X133923699Y-113121807D01*
X133851844Y-113112347D01*
X133779991Y-113102887D01*
X133779989Y-113102887D01*
X133636281Y-113121807D01*
X133636277Y-113121808D01*
X133502367Y-113177274D01*
X133387369Y-113265516D01*
X133299127Y-113380514D01*
X133243661Y-113514424D01*
X133243660Y-113514428D01*
X133224740Y-113658136D01*
X65200500Y-113658136D01*
X65200500Y-111210725D01*
X112234959Y-111210725D01*
X112234959Y-111210738D01*
X112254123Y-111442029D01*
X112254125Y-111442040D01*
X112311101Y-111667032D01*
X112404334Y-111879580D01*
X112531275Y-112073879D01*
X112531278Y-112073883D01*
X112531280Y-112073885D01*
X112688475Y-112244645D01*
X112688478Y-112244647D01*
X112688481Y-112244650D01*
X112871624Y-112387196D01*
X112871630Y-112387200D01*
X112871633Y-112387202D01*
X113075756Y-112497668D01*
X113189746Y-112536800D01*
X113295274Y-112573029D01*
X113295276Y-112573029D01*
X113295278Y-112573030D01*
X113524210Y-112611232D01*
X113524211Y-112611232D01*
X113756307Y-112611232D01*
X113756308Y-112611232D01*
X113985240Y-112573030D01*
X114204762Y-112497668D01*
X114408885Y-112387202D01*
X114592043Y-112244645D01*
X114749238Y-112073885D01*
X114876183Y-111879581D01*
X114969416Y-111667032D01*
X115026393Y-111442037D01*
X115045559Y-111210732D01*
X115045559Y-111210725D01*
X115026394Y-110979434D01*
X115026392Y-110979423D01*
X114969416Y-110754431D01*
X114876183Y-110541883D01*
X114749242Y-110347584D01*
X114749239Y-110347581D01*
X114749238Y-110347579D01*
X114592043Y-110176819D01*
X114592038Y-110176815D01*
X114592036Y-110176813D01*
X114408893Y-110034267D01*
X114408887Y-110034263D01*
X114204763Y-109923796D01*
X114204754Y-109923793D01*
X113985243Y-109848434D01*
X113813541Y-109819782D01*
X113756308Y-109810232D01*
X113524210Y-109810232D01*
X113478423Y-109817872D01*
X113295274Y-109848434D01*
X113075763Y-109923793D01*
X113075754Y-109923796D01*
X112871630Y-110034263D01*
X112871624Y-110034267D01*
X112688481Y-110176813D01*
X112688478Y-110176816D01*
X112531275Y-110347584D01*
X112404334Y-110541883D01*
X112311101Y-110754431D01*
X112254125Y-110979423D01*
X112254123Y-110979434D01*
X112234959Y-111210725D01*
X65200500Y-111210725D01*
X65200500Y-108644353D01*
X74476227Y-108644353D01*
X74476227Y-108644354D01*
X74496594Y-108864155D01*
X74496595Y-108864158D01*
X74557001Y-109076467D01*
X74557004Y-109076473D01*
X74655398Y-109274074D01*
X74788426Y-109450233D01*
X74951556Y-109598944D01*
X74951558Y-109598946D01*
X75139232Y-109715149D01*
X75139238Y-109715152D01*
X75182844Y-109732044D01*
X75345074Y-109794893D01*
X75562058Y-109835454D01*
X75562060Y-109835454D01*
X75782800Y-109835454D01*
X75782802Y-109835454D01*
X75999786Y-109794893D01*
X76205624Y-109715151D01*
X76393303Y-109598945D01*
X76556435Y-109450231D01*
X76689462Y-109274074D01*
X76787856Y-109076472D01*
X76787856Y-109076469D01*
X76787858Y-109076467D01*
X76848264Y-108864158D01*
X76848265Y-108864155D01*
X76868633Y-108644354D01*
X76868633Y-108644353D01*
X76868633Y-108644348D01*
X78316719Y-108644348D01*
X78316719Y-108644359D01*
X78337118Y-108890536D01*
X78397760Y-109130008D01*
X78496989Y-109356229D01*
X78595783Y-109507445D01*
X79145105Y-108958122D01*
X79159662Y-108993265D01*
X79240273Y-109113909D01*
X79342873Y-109216509D01*
X79463517Y-109297120D01*
X79498658Y-109311676D01*
X78949069Y-109861264D01*
X78994356Y-109896513D01*
X78994358Y-109896514D01*
X79211602Y-110014080D01*
X79211616Y-110014086D01*
X79445250Y-110094294D01*
X79688913Y-110134954D01*
X79935943Y-110134954D01*
X80179605Y-110094294D01*
X80413239Y-110014086D01*
X80413253Y-110014080D01*
X80630499Y-109896513D01*
X80630504Y-109896509D01*
X80675785Y-109861265D01*
X80675786Y-109861264D01*
X80126197Y-109311676D01*
X80161339Y-109297120D01*
X80281983Y-109216509D01*
X80384583Y-109113909D01*
X80465194Y-108993265D01*
X80479749Y-108958123D01*
X81029071Y-109507445D01*
X81127864Y-109356234D01*
X81227095Y-109130008D01*
X81287737Y-108890536D01*
X81308137Y-108644359D01*
X81308137Y-108644348D01*
X81287737Y-108398171D01*
X81227095Y-108158699D01*
X81127864Y-107932473D01*
X81106214Y-107899336D01*
X133471137Y-107899336D01*
X133486316Y-108014633D01*
X133490057Y-108043044D01*
X133490058Y-108043048D01*
X133545524Y-108176958D01*
X133545525Y-108176960D01*
X133545526Y-108176961D01*
X133633766Y-108291957D01*
X133748762Y-108380197D01*
X133882678Y-108435666D01*
X134009667Y-108452384D01*
X134026386Y-108454586D01*
X134026387Y-108454586D01*
X134026388Y-108454586D01*
X134041364Y-108452614D01*
X134170096Y-108435666D01*
X134304012Y-108380197D01*
X134419008Y-108291957D01*
X134507248Y-108176961D01*
X134562717Y-108043045D01*
X134581637Y-107899336D01*
X134562717Y-107755627D01*
X134507248Y-107621711D01*
X134419008Y-107506715D01*
X134304012Y-107418475D01*
X134304011Y-107418474D01*
X134304009Y-107418473D01*
X134170099Y-107363007D01*
X134170097Y-107363006D01*
X134170096Y-107363006D01*
X134098241Y-107353546D01*
X134026388Y-107344086D01*
X134026386Y-107344086D01*
X133882678Y-107363006D01*
X133882674Y-107363007D01*
X133748764Y-107418473D01*
X133633766Y-107506715D01*
X133545524Y-107621713D01*
X133490058Y-107755623D01*
X133490057Y-107755627D01*
X133471137Y-107899336D01*
X81106214Y-107899336D01*
X81029071Y-107781261D01*
X80479749Y-108330583D01*
X80465194Y-108295443D01*
X80384583Y-108174799D01*
X80281983Y-108072199D01*
X80161339Y-107991588D01*
X80126195Y-107977031D01*
X80675785Y-107427442D01*
X80675785Y-107427440D01*
X80630511Y-107392202D01*
X80630500Y-107392195D01*
X80413253Y-107274627D01*
X80413239Y-107274621D01*
X80179605Y-107194413D01*
X79935943Y-107153754D01*
X79688913Y-107153754D01*
X79445250Y-107194413D01*
X79211616Y-107274621D01*
X79211602Y-107274627D01*
X78994357Y-107392194D01*
X78949068Y-107427442D01*
X79498658Y-107977031D01*
X79463517Y-107991588D01*
X79342873Y-108072199D01*
X79240273Y-108174799D01*
X79159662Y-108295443D01*
X79145105Y-108330584D01*
X78595783Y-107781261D01*
X78496990Y-107932475D01*
X78397760Y-108158699D01*
X78337118Y-108398171D01*
X78316719Y-108644348D01*
X76868633Y-108644348D01*
X76848265Y-108424552D01*
X76848264Y-108424549D01*
X76787858Y-108212240D01*
X76787855Y-108212234D01*
X76703608Y-108043044D01*
X76689462Y-108014634D01*
X76556435Y-107838477D01*
X76556433Y-107838474D01*
X76393303Y-107689763D01*
X76393301Y-107689761D01*
X76205627Y-107573558D01*
X76205621Y-107573555D01*
X76033085Y-107506715D01*
X75999786Y-107493815D01*
X75782802Y-107453254D01*
X75562058Y-107453254D01*
X75345074Y-107493815D01*
X75345071Y-107493815D01*
X75345071Y-107493816D01*
X75139238Y-107573555D01*
X75139232Y-107573558D01*
X74951558Y-107689761D01*
X74951556Y-107689763D01*
X74788426Y-107838474D01*
X74655398Y-108014633D01*
X74557004Y-108212234D01*
X74557001Y-108212240D01*
X74496595Y-108424549D01*
X74496594Y-108424552D01*
X74476227Y-108644353D01*
X65200500Y-108644353D01*
X65200500Y-106130725D01*
X112234959Y-106130725D01*
X112234959Y-106130738D01*
X112254123Y-106362029D01*
X112254125Y-106362040D01*
X112311101Y-106587032D01*
X112404334Y-106799580D01*
X112531275Y-106993879D01*
X112531278Y-106993883D01*
X112531280Y-106993885D01*
X112688475Y-107164645D01*
X112688478Y-107164647D01*
X112688481Y-107164650D01*
X112871624Y-107307196D01*
X112871630Y-107307200D01*
X112871633Y-107307202D01*
X113075756Y-107417668D01*
X113189746Y-107456800D01*
X113295274Y-107493029D01*
X113295276Y-107493029D01*
X113295278Y-107493030D01*
X113524210Y-107531232D01*
X113524211Y-107531232D01*
X113756307Y-107531232D01*
X113756308Y-107531232D01*
X113985240Y-107493030D01*
X114204762Y-107417668D01*
X114408885Y-107307202D01*
X114592043Y-107164645D01*
X114749238Y-106993885D01*
X114876183Y-106799581D01*
X114969416Y-106587032D01*
X115026393Y-106362037D01*
X115045559Y-106130732D01*
X115045559Y-106130725D01*
X115026394Y-105899434D01*
X115026392Y-105899423D01*
X114969416Y-105674431D01*
X114876183Y-105461883D01*
X114749242Y-105267584D01*
X114749239Y-105267581D01*
X114749238Y-105267579D01*
X114592043Y-105096819D01*
X114592038Y-105096815D01*
X114592036Y-105096813D01*
X114408893Y-104954267D01*
X114408887Y-104954263D01*
X114204763Y-104843796D01*
X114204754Y-104843793D01*
X113985243Y-104768434D01*
X113813541Y-104739782D01*
X113756308Y-104730232D01*
X113524210Y-104730232D01*
X113478423Y-104737872D01*
X113295274Y-104768434D01*
X113075763Y-104843793D01*
X113075754Y-104843796D01*
X112871630Y-104954263D01*
X112871624Y-104954267D01*
X112688481Y-105096813D01*
X112688478Y-105096816D01*
X112531275Y-105267584D01*
X112404334Y-105461883D01*
X112311101Y-105674431D01*
X112254125Y-105899423D01*
X112254123Y-105899434D01*
X112234959Y-106130725D01*
X65200500Y-106130725D01*
X65200500Y-104504354D01*
X74476227Y-104504354D01*
X74476227Y-104504355D01*
X74496594Y-104724156D01*
X74496595Y-104724159D01*
X74557001Y-104936468D01*
X74557004Y-104936474D01*
X74655398Y-105134075D01*
X74788426Y-105310234D01*
X74951556Y-105458945D01*
X74951558Y-105458947D01*
X75139232Y-105575150D01*
X75139238Y-105575153D01*
X75182844Y-105592045D01*
X75345074Y-105654894D01*
X75562058Y-105695455D01*
X75562060Y-105695455D01*
X75782800Y-105695455D01*
X75782802Y-105695455D01*
X75999786Y-105654894D01*
X76205624Y-105575152D01*
X76393303Y-105458946D01*
X76556435Y-105310232D01*
X76689462Y-105134075D01*
X76787856Y-104936473D01*
X76787856Y-104936470D01*
X76787858Y-104936468D01*
X76835667Y-104768434D01*
X76848265Y-104724157D01*
X76868633Y-104504355D01*
X76868633Y-104504354D01*
X78616225Y-104504354D01*
X78616225Y-104504355D01*
X78636592Y-104724156D01*
X78636593Y-104724159D01*
X78696999Y-104936468D01*
X78697002Y-104936474D01*
X78795396Y-105134075D01*
X78928424Y-105310234D01*
X79091554Y-105458945D01*
X79091556Y-105458947D01*
X79279230Y-105575150D01*
X79279236Y-105575153D01*
X79322842Y-105592045D01*
X79485072Y-105654894D01*
X79702056Y-105695455D01*
X79702058Y-105695455D01*
X79922798Y-105695455D01*
X79922800Y-105695455D01*
X80139784Y-105654894D01*
X80345622Y-105575152D01*
X80533301Y-105458946D01*
X80696433Y-105310232D01*
X80829460Y-105134075D01*
X80927854Y-104936473D01*
X80927854Y-104936470D01*
X80927856Y-104936468D01*
X80975665Y-104768434D01*
X80988263Y-104724157D01*
X81008631Y-104504355D01*
X80988263Y-104284553D01*
X80979489Y-104253718D01*
X80927856Y-104072241D01*
X80927853Y-104072235D01*
X80829460Y-103874635D01*
X80696433Y-103698478D01*
X80696431Y-103698475D01*
X80533301Y-103549764D01*
X80533299Y-103549762D01*
X80345625Y-103433559D01*
X80345619Y-103433556D01*
X80183392Y-103370709D01*
X80139784Y-103353816D01*
X79922800Y-103313255D01*
X79702056Y-103313255D01*
X79485072Y-103353816D01*
X79485069Y-103353816D01*
X79485069Y-103353817D01*
X79279236Y-103433556D01*
X79279230Y-103433559D01*
X79091556Y-103549762D01*
X79091554Y-103549764D01*
X78928424Y-103698475D01*
X78795396Y-103874634D01*
X78697002Y-104072235D01*
X78696999Y-104072241D01*
X78636593Y-104284550D01*
X78636592Y-104284553D01*
X78616225Y-104504354D01*
X76868633Y-104504354D01*
X76848265Y-104284553D01*
X76839491Y-104253718D01*
X76787858Y-104072241D01*
X76787855Y-104072235D01*
X76689462Y-103874635D01*
X76556435Y-103698478D01*
X76556433Y-103698475D01*
X76393303Y-103549764D01*
X76393301Y-103549762D01*
X76205627Y-103433559D01*
X76205621Y-103433556D01*
X76043394Y-103370709D01*
X75999786Y-103353816D01*
X75782802Y-103313255D01*
X75562058Y-103313255D01*
X75345074Y-103353816D01*
X75345071Y-103353816D01*
X75345071Y-103353817D01*
X75139238Y-103433556D01*
X75139232Y-103433559D01*
X74951558Y-103549762D01*
X74951556Y-103549764D01*
X74788426Y-103698475D01*
X74655398Y-103874634D01*
X74557004Y-104072235D01*
X74557001Y-104072241D01*
X74496595Y-104284550D01*
X74496594Y-104284553D01*
X74476227Y-104504354D01*
X65200500Y-104504354D01*
X65200500Y-102737104D01*
X133370428Y-102737104D01*
X133370428Y-102737105D01*
X133389348Y-102880813D01*
X133389349Y-102880817D01*
X133444815Y-103014727D01*
X133444816Y-103014729D01*
X133444817Y-103014730D01*
X133533057Y-103129726D01*
X133648053Y-103217966D01*
X133781969Y-103273435D01*
X133908958Y-103290153D01*
X133925677Y-103292355D01*
X133925678Y-103292355D01*
X133925679Y-103292355D01*
X133940655Y-103290383D01*
X134069387Y-103273435D01*
X134203303Y-103217966D01*
X134318299Y-103129726D01*
X134406539Y-103014730D01*
X134462008Y-102880814D01*
X134480928Y-102737105D01*
X134462008Y-102593396D01*
X134406539Y-102459480D01*
X134318299Y-102344484D01*
X134203303Y-102256244D01*
X134203302Y-102256243D01*
X134203300Y-102256242D01*
X134069390Y-102200776D01*
X134069388Y-102200775D01*
X134069387Y-102200775D01*
X133997532Y-102191315D01*
X133925679Y-102181855D01*
X133925677Y-102181855D01*
X133781969Y-102200775D01*
X133781965Y-102200776D01*
X133648055Y-102256242D01*
X133533057Y-102344484D01*
X133444815Y-102459482D01*
X133389349Y-102593392D01*
X133389348Y-102593396D01*
X133370428Y-102737104D01*
X65200500Y-102737104D01*
X65200500Y-100223031D01*
X66176129Y-100223031D01*
X66176129Y-100505680D01*
X66176130Y-100505696D01*
X66213022Y-100785921D01*
X66213023Y-100785926D01*
X66213024Y-100785932D01*
X66268796Y-100994076D01*
X66286182Y-101058962D01*
X66286185Y-101058972D01*
X66394350Y-101320106D01*
X66394355Y-101320117D01*
X66535679Y-101564895D01*
X66535690Y-101564911D01*
X66707756Y-101789152D01*
X66707762Y-101789159D01*
X66907625Y-101989022D01*
X66907631Y-101989027D01*
X67131882Y-102161101D01*
X67131889Y-102161105D01*
X67376667Y-102302429D01*
X67376672Y-102302431D01*
X67376675Y-102302433D01*
X67637822Y-102410603D01*
X67910853Y-102483761D01*
X68191098Y-102520656D01*
X68191105Y-102520656D01*
X68473753Y-102520656D01*
X68473760Y-102520656D01*
X68754005Y-102483761D01*
X69027036Y-102410603D01*
X69288183Y-102302433D01*
X69532976Y-102161101D01*
X69757227Y-101989027D01*
X69957100Y-101789154D01*
X70129174Y-101564903D01*
X70270506Y-101320110D01*
X70378676Y-101058963D01*
X70451834Y-100785932D01*
X70488729Y-100505687D01*
X70488729Y-100364355D01*
X74476227Y-100364355D01*
X74476227Y-100364356D01*
X74496594Y-100584157D01*
X74496595Y-100584160D01*
X74557001Y-100796469D01*
X74557004Y-100796475D01*
X74655398Y-100994076D01*
X74788426Y-101170235D01*
X74951556Y-101318946D01*
X74951558Y-101318948D01*
X75139232Y-101435151D01*
X75139238Y-101435154D01*
X75182844Y-101452046D01*
X75345074Y-101514895D01*
X75562058Y-101555456D01*
X75562060Y-101555456D01*
X75782800Y-101555456D01*
X75782802Y-101555456D01*
X75999786Y-101514895D01*
X76205624Y-101435153D01*
X76393303Y-101318947D01*
X76556435Y-101170233D01*
X76689462Y-100994076D01*
X76787856Y-100796474D01*
X76787856Y-100796471D01*
X76787858Y-100796469D01*
X76840759Y-100610538D01*
X76848265Y-100584158D01*
X76868633Y-100364356D01*
X76868632Y-100364350D01*
X78316719Y-100364350D01*
X78316719Y-100364361D01*
X78337118Y-100610538D01*
X78397760Y-100850010D01*
X78496989Y-101076231D01*
X78595783Y-101227447D01*
X79145105Y-100678124D01*
X79159662Y-100713267D01*
X79240273Y-100833911D01*
X79342873Y-100936511D01*
X79463517Y-101017122D01*
X79498658Y-101031678D01*
X78949069Y-101581266D01*
X78994356Y-101616515D01*
X78994358Y-101616516D01*
X79211602Y-101734082D01*
X79211616Y-101734088D01*
X79445250Y-101814296D01*
X79688913Y-101854956D01*
X79935943Y-101854956D01*
X80179605Y-101814296D01*
X80413239Y-101734088D01*
X80413253Y-101734082D01*
X80630499Y-101616515D01*
X80630504Y-101616511D01*
X80675785Y-101581267D01*
X80675786Y-101581266D01*
X80126197Y-101031678D01*
X80161339Y-101017122D01*
X80281983Y-100936511D01*
X80384583Y-100833911D01*
X80465194Y-100713267D01*
X80479749Y-100678125D01*
X81029071Y-101227447D01*
X81127864Y-101076236D01*
X81139054Y-101050725D01*
X112234959Y-101050725D01*
X112234959Y-101050738D01*
X112254123Y-101282029D01*
X112254125Y-101282040D01*
X112311101Y-101507032D01*
X112404334Y-101719580D01*
X112531275Y-101913879D01*
X112531278Y-101913883D01*
X112531280Y-101913885D01*
X112688475Y-102084645D01*
X112688478Y-102084647D01*
X112688481Y-102084650D01*
X112871624Y-102227196D01*
X112871630Y-102227200D01*
X112871633Y-102227202D01*
X113075756Y-102337668D01*
X113189746Y-102376800D01*
X113295274Y-102413029D01*
X113295276Y-102413029D01*
X113295278Y-102413030D01*
X113524210Y-102451232D01*
X113524211Y-102451232D01*
X113756307Y-102451232D01*
X113756308Y-102451232D01*
X113985240Y-102413030D01*
X114204762Y-102337668D01*
X114408885Y-102227202D01*
X114592043Y-102084645D01*
X114749238Y-101913885D01*
X114876183Y-101719581D01*
X114969416Y-101507032D01*
X115026393Y-101282037D01*
X115026394Y-101282029D01*
X115045559Y-101050738D01*
X115045559Y-101050725D01*
X115026394Y-100819434D01*
X115026392Y-100819423D01*
X114969416Y-100594431D01*
X114876183Y-100381883D01*
X114749242Y-100187584D01*
X114749239Y-100187581D01*
X114749238Y-100187579D01*
X114592043Y-100016819D01*
X114592038Y-100016815D01*
X114592036Y-100016813D01*
X114408893Y-99874267D01*
X114408887Y-99874263D01*
X114204763Y-99763796D01*
X114204754Y-99763793D01*
X113985243Y-99688434D01*
X113791251Y-99656063D01*
X113756308Y-99650232D01*
X113524210Y-99650232D01*
X113489267Y-99656063D01*
X113295274Y-99688434D01*
X113075763Y-99763793D01*
X113075754Y-99763796D01*
X112871630Y-99874263D01*
X112871624Y-99874267D01*
X112688481Y-100016813D01*
X112688478Y-100016816D01*
X112531275Y-100187584D01*
X112404334Y-100381883D01*
X112311101Y-100594431D01*
X112254125Y-100819423D01*
X112254123Y-100819434D01*
X112234959Y-101050725D01*
X81139054Y-101050725D01*
X81227095Y-100850010D01*
X81287737Y-100610538D01*
X81308137Y-100364361D01*
X81308137Y-100364350D01*
X81287737Y-100118173D01*
X81227095Y-99878701D01*
X81127864Y-99652475D01*
X81029071Y-99501263D01*
X80479749Y-100050585D01*
X80465194Y-100015445D01*
X80384583Y-99894801D01*
X80281983Y-99792201D01*
X80161339Y-99711590D01*
X80126195Y-99697033D01*
X80675785Y-99147444D01*
X80675785Y-99147442D01*
X80630511Y-99112204D01*
X80630500Y-99112197D01*
X80413253Y-98994629D01*
X80413239Y-98994623D01*
X80179605Y-98914415D01*
X79935943Y-98873756D01*
X79688913Y-98873756D01*
X79445250Y-98914415D01*
X79211616Y-98994623D01*
X79211602Y-98994629D01*
X78994357Y-99112196D01*
X78949068Y-99147444D01*
X79498658Y-99697033D01*
X79463517Y-99711590D01*
X79342873Y-99792201D01*
X79240273Y-99894801D01*
X79159662Y-100015445D01*
X79145105Y-100050586D01*
X78595783Y-99501263D01*
X78496990Y-99652477D01*
X78397760Y-99878701D01*
X78337118Y-100118173D01*
X78316719Y-100364350D01*
X76868632Y-100364350D01*
X76848265Y-100144554D01*
X76848264Y-100144551D01*
X76787858Y-99932242D01*
X76787855Y-99932236D01*
X76703980Y-99763793D01*
X76689462Y-99734636D01*
X76556435Y-99558479D01*
X76556433Y-99558476D01*
X76393303Y-99409765D01*
X76393301Y-99409763D01*
X76205627Y-99293560D01*
X76205621Y-99293557D01*
X76043394Y-99230710D01*
X75999786Y-99213817D01*
X75782802Y-99173256D01*
X75562058Y-99173256D01*
X75345074Y-99213817D01*
X75345071Y-99213817D01*
X75345071Y-99213818D01*
X75139238Y-99293557D01*
X75139232Y-99293560D01*
X74951558Y-99409763D01*
X74951556Y-99409765D01*
X74788426Y-99558476D01*
X74655398Y-99734635D01*
X74557004Y-99932236D01*
X74557001Y-99932242D01*
X74496595Y-100144551D01*
X74496594Y-100144554D01*
X74476227Y-100364355D01*
X70488729Y-100364355D01*
X70488729Y-100223025D01*
X70451834Y-99942780D01*
X70378676Y-99669749D01*
X70270506Y-99408602D01*
X70270504Y-99408599D01*
X70270502Y-99408594D01*
X70129178Y-99163816D01*
X70129174Y-99163809D01*
X69957100Y-98939558D01*
X69957095Y-98939552D01*
X69757232Y-98739689D01*
X69757225Y-98739683D01*
X69532984Y-98567617D01*
X69532982Y-98567615D01*
X69532976Y-98567611D01*
X69532971Y-98567608D01*
X69532968Y-98567606D01*
X69485011Y-98539918D01*
X133347702Y-98539918D01*
X133347702Y-98539919D01*
X133366622Y-98683627D01*
X133366623Y-98683631D01*
X133422089Y-98817541D01*
X133422090Y-98817543D01*
X133422091Y-98817544D01*
X133510331Y-98932540D01*
X133625327Y-99020780D01*
X133759243Y-99076249D01*
X133886232Y-99092967D01*
X133902951Y-99095169D01*
X133902952Y-99095169D01*
X133902953Y-99095169D01*
X133917929Y-99093197D01*
X134046661Y-99076249D01*
X134180577Y-99020780D01*
X134295573Y-98932540D01*
X134383813Y-98817544D01*
X134439282Y-98683628D01*
X134458202Y-98539919D01*
X134439282Y-98396210D01*
X134383813Y-98262294D01*
X134295573Y-98147298D01*
X134180577Y-98059058D01*
X134180576Y-98059057D01*
X134180574Y-98059056D01*
X134046664Y-98003590D01*
X134046662Y-98003589D01*
X134046661Y-98003589D01*
X133974806Y-97994129D01*
X133902953Y-97984669D01*
X133902951Y-97984669D01*
X133759243Y-98003589D01*
X133759239Y-98003590D01*
X133625329Y-98059056D01*
X133510331Y-98147298D01*
X133422089Y-98262296D01*
X133366623Y-98396206D01*
X133366622Y-98396210D01*
X133347702Y-98539918D01*
X69485011Y-98539918D01*
X69288190Y-98426282D01*
X69288179Y-98426277D01*
X69027045Y-98318112D01*
X69027038Y-98318110D01*
X69027036Y-98318109D01*
X68754005Y-98244951D01*
X68753999Y-98244950D01*
X68753994Y-98244949D01*
X68473769Y-98208057D01*
X68473766Y-98208056D01*
X68473760Y-98208056D01*
X68191098Y-98208056D01*
X68191092Y-98208056D01*
X68191088Y-98208057D01*
X67910863Y-98244949D01*
X67910856Y-98244950D01*
X67910853Y-98244951D01*
X67637822Y-98318109D01*
X67637812Y-98318112D01*
X67376678Y-98426277D01*
X67376667Y-98426282D01*
X67131889Y-98567606D01*
X67131873Y-98567617D01*
X66907632Y-98739683D01*
X66907625Y-98739689D01*
X66707762Y-98939552D01*
X66707756Y-98939559D01*
X66535690Y-99163800D01*
X66535679Y-99163816D01*
X66394355Y-99408594D01*
X66394350Y-99408605D01*
X66286185Y-99669739D01*
X66286182Y-99669749D01*
X66213025Y-99942777D01*
X66213022Y-99942790D01*
X66176130Y-100223015D01*
X66176129Y-100223031D01*
X65200500Y-100223031D01*
X65200500Y-96224356D01*
X74476227Y-96224356D01*
X74476227Y-96224357D01*
X74496594Y-96444158D01*
X74496595Y-96444161D01*
X74557001Y-96656470D01*
X74557004Y-96656476D01*
X74655398Y-96854077D01*
X74788426Y-97030236D01*
X74951556Y-97178947D01*
X74951558Y-97178949D01*
X75139232Y-97295152D01*
X75139238Y-97295155D01*
X75182844Y-97312047D01*
X75345074Y-97374896D01*
X75562058Y-97415457D01*
X75562060Y-97415457D01*
X75782800Y-97415457D01*
X75782802Y-97415457D01*
X75999786Y-97374896D01*
X76205624Y-97295154D01*
X76393303Y-97178948D01*
X76556435Y-97030234D01*
X76689462Y-96854077D01*
X76787856Y-96656475D01*
X76787856Y-96656472D01*
X76787858Y-96656470D01*
X76848264Y-96444161D01*
X76848265Y-96444158D01*
X76868633Y-96224357D01*
X76868633Y-96224356D01*
X78616225Y-96224356D01*
X78616225Y-96224357D01*
X78636592Y-96444158D01*
X78636593Y-96444161D01*
X78696999Y-96656470D01*
X78697002Y-96656476D01*
X78795396Y-96854077D01*
X78928424Y-97030236D01*
X79091554Y-97178947D01*
X79091556Y-97178949D01*
X79279230Y-97295152D01*
X79279236Y-97295155D01*
X79322842Y-97312047D01*
X79485072Y-97374896D01*
X79702056Y-97415457D01*
X79702058Y-97415457D01*
X79922798Y-97415457D01*
X79922800Y-97415457D01*
X80139784Y-97374896D01*
X80345622Y-97295154D01*
X80533301Y-97178948D01*
X80696433Y-97030234D01*
X80829460Y-96854077D01*
X80927854Y-96656475D01*
X80927854Y-96656472D01*
X80927856Y-96656470D01*
X80988262Y-96444161D01*
X80988263Y-96444158D01*
X81008631Y-96224357D01*
X81008631Y-96224356D01*
X80988263Y-96004555D01*
X80988262Y-96004552D01*
X80978638Y-95970725D01*
X112234959Y-95970725D01*
X112234959Y-95970738D01*
X112254123Y-96202029D01*
X112254125Y-96202040D01*
X112311101Y-96427032D01*
X112404334Y-96639580D01*
X112531275Y-96833879D01*
X112531278Y-96833883D01*
X112531280Y-96833885D01*
X112688475Y-97004645D01*
X112688478Y-97004647D01*
X112688481Y-97004650D01*
X112871624Y-97147196D01*
X112871630Y-97147200D01*
X112871633Y-97147202D01*
X113075756Y-97257668D01*
X113184943Y-97295152D01*
X113295274Y-97333029D01*
X113295276Y-97333029D01*
X113295278Y-97333030D01*
X113524210Y-97371232D01*
X113524211Y-97371232D01*
X113756307Y-97371232D01*
X113756308Y-97371232D01*
X113985240Y-97333030D01*
X114204762Y-97257668D01*
X114408885Y-97147202D01*
X114592043Y-97004645D01*
X114749238Y-96833885D01*
X114876183Y-96639581D01*
X114969416Y-96427032D01*
X114994892Y-96326432D01*
X178284172Y-96326432D01*
X178284172Y-96326445D01*
X178303336Y-96557736D01*
X178303338Y-96557747D01*
X178360314Y-96782739D01*
X178453547Y-96995287D01*
X178580488Y-97189586D01*
X178580491Y-97189590D01*
X178580493Y-97189592D01*
X178737688Y-97360352D01*
X178737691Y-97360354D01*
X178737694Y-97360357D01*
X178920837Y-97502903D01*
X178920843Y-97502907D01*
X178920846Y-97502909D01*
X179124969Y-97613375D01*
X179238959Y-97652507D01*
X179344487Y-97688736D01*
X179344489Y-97688736D01*
X179344491Y-97688737D01*
X179573423Y-97726939D01*
X179573424Y-97726939D01*
X179805520Y-97726939D01*
X179805521Y-97726939D01*
X180034453Y-97688737D01*
X180253975Y-97613375D01*
X180458098Y-97502909D01*
X180641256Y-97360352D01*
X180798451Y-97189592D01*
X180925396Y-96995288D01*
X181018629Y-96782739D01*
X181075606Y-96557744D01*
X181094772Y-96326439D01*
X181094772Y-96326432D01*
X181075607Y-96095141D01*
X181075605Y-96095130D01*
X181018629Y-95870138D01*
X180925396Y-95657590D01*
X180798455Y-95463291D01*
X180798452Y-95463288D01*
X180798451Y-95463286D01*
X180641256Y-95292526D01*
X180641251Y-95292522D01*
X180641249Y-95292520D01*
X180458106Y-95149974D01*
X180458100Y-95149970D01*
X180253976Y-95039503D01*
X180253967Y-95039500D01*
X180034456Y-94964141D01*
X179862754Y-94935489D01*
X179805521Y-94925939D01*
X179573423Y-94925939D01*
X179527636Y-94933579D01*
X179344487Y-94964141D01*
X179124976Y-95039500D01*
X179124967Y-95039503D01*
X178920843Y-95149970D01*
X178920837Y-95149974D01*
X178737694Y-95292520D01*
X178737691Y-95292523D01*
X178737688Y-95292525D01*
X178737688Y-95292526D01*
X178678739Y-95356561D01*
X178580488Y-95463291D01*
X178453547Y-95657590D01*
X178360314Y-95870138D01*
X178303338Y-96095130D01*
X178303336Y-96095141D01*
X178284172Y-96326432D01*
X114994892Y-96326432D01*
X115026393Y-96202037D01*
X115026394Y-96202029D01*
X115045559Y-95970738D01*
X115045559Y-95970725D01*
X115026394Y-95739434D01*
X115026392Y-95739423D01*
X114969416Y-95514431D01*
X114876183Y-95301883D01*
X114749242Y-95107584D01*
X114749239Y-95107581D01*
X114749238Y-95107579D01*
X114592043Y-94936819D01*
X114592038Y-94936815D01*
X114592036Y-94936813D01*
X114408893Y-94794267D01*
X114408887Y-94794263D01*
X114204763Y-94683796D01*
X114204754Y-94683793D01*
X113985243Y-94608434D01*
X113813541Y-94579782D01*
X113756308Y-94570232D01*
X113524210Y-94570232D01*
X113478423Y-94577872D01*
X113295274Y-94608434D01*
X113075763Y-94683793D01*
X113075754Y-94683796D01*
X112871630Y-94794263D01*
X112871624Y-94794267D01*
X112688481Y-94936813D01*
X112688478Y-94936816D01*
X112688475Y-94936818D01*
X112688475Y-94936819D01*
X112629526Y-95000854D01*
X112531275Y-95107584D01*
X112404334Y-95301883D01*
X112311101Y-95514431D01*
X112254125Y-95739423D01*
X112254123Y-95739434D01*
X112234959Y-95970725D01*
X80978638Y-95970725D01*
X80927856Y-95792243D01*
X80927853Y-95792237D01*
X80901555Y-95739423D01*
X80829460Y-95594637D01*
X80696433Y-95418480D01*
X80696431Y-95418477D01*
X80533301Y-95269766D01*
X80533299Y-95269764D01*
X80345625Y-95153561D01*
X80345619Y-95153558D01*
X80183392Y-95090711D01*
X80139784Y-95073818D01*
X79922800Y-95033257D01*
X79702056Y-95033257D01*
X79485072Y-95073818D01*
X79485069Y-95073818D01*
X79485069Y-95073819D01*
X79279236Y-95153558D01*
X79279230Y-95153561D01*
X79091556Y-95269764D01*
X79091554Y-95269766D01*
X78928424Y-95418477D01*
X78795396Y-95594636D01*
X78697002Y-95792237D01*
X78696999Y-95792243D01*
X78636593Y-96004552D01*
X78636592Y-96004555D01*
X78616225Y-96224356D01*
X76868633Y-96224356D01*
X76848265Y-96004555D01*
X76848264Y-96004552D01*
X76787858Y-95792243D01*
X76787855Y-95792237D01*
X76761557Y-95739423D01*
X76689462Y-95594637D01*
X76556435Y-95418480D01*
X76556433Y-95418477D01*
X76393303Y-95269766D01*
X76393301Y-95269764D01*
X76205627Y-95153561D01*
X76205621Y-95153558D01*
X76043394Y-95090711D01*
X75999786Y-95073818D01*
X75782802Y-95033257D01*
X75562058Y-95033257D01*
X75345074Y-95073818D01*
X75345071Y-95073818D01*
X75345071Y-95073819D01*
X75139238Y-95153558D01*
X75139232Y-95153561D01*
X74951558Y-95269764D01*
X74951556Y-95269766D01*
X74788426Y-95418477D01*
X74655398Y-95594636D01*
X74557004Y-95792237D01*
X74557001Y-95792243D01*
X74496595Y-96004552D01*
X74496594Y-96004555D01*
X74476227Y-96224356D01*
X65200500Y-96224356D01*
X65200500Y-93436927D01*
X133181677Y-93436927D01*
X133192519Y-93519282D01*
X133200597Y-93580635D01*
X133200598Y-93580639D01*
X133256064Y-93714549D01*
X133256065Y-93714551D01*
X133256066Y-93714552D01*
X133344306Y-93829548D01*
X133459302Y-93917788D01*
X133593218Y-93973257D01*
X133720207Y-93989975D01*
X133736926Y-93992177D01*
X133736927Y-93992177D01*
X133736928Y-93992177D01*
X133752832Y-93990083D01*
X133880636Y-93973257D01*
X134014552Y-93917788D01*
X134129548Y-93829548D01*
X134217788Y-93714552D01*
X134268106Y-93593072D01*
X159150178Y-93593072D01*
X159166171Y-93714552D01*
X159169098Y-93736780D01*
X159169099Y-93736784D01*
X159224565Y-93870694D01*
X159224566Y-93870696D01*
X159224567Y-93870697D01*
X159312807Y-93985693D01*
X159427803Y-94073933D01*
X159561719Y-94129402D01*
X159688708Y-94146120D01*
X159705427Y-94148322D01*
X159705428Y-94148322D01*
X159705429Y-94148322D01*
X159720405Y-94146350D01*
X159849137Y-94129402D01*
X159983053Y-94073933D01*
X160098049Y-93985693D01*
X160186289Y-93870697D01*
X160241758Y-93736781D01*
X160260678Y-93593072D01*
X160241758Y-93449363D01*
X160221311Y-93400000D01*
X160944750Y-93400000D01*
X160949611Y-93436926D01*
X160963670Y-93543708D01*
X160963671Y-93543712D01*
X161019137Y-93677622D01*
X161019138Y-93677623D01*
X161019139Y-93677625D01*
X161107379Y-93792621D01*
X161222375Y-93880861D01*
X161356291Y-93936330D01*
X161483280Y-93953048D01*
X161499999Y-93955250D01*
X161500000Y-93955250D01*
X161500001Y-93955250D01*
X161514977Y-93953278D01*
X161643709Y-93936330D01*
X161777625Y-93880861D01*
X161892621Y-93792621D01*
X161980861Y-93677625D01*
X162021902Y-93578542D01*
X162039440Y-93536201D01*
X162042173Y-93537333D01*
X162071155Y-93489780D01*
X162134000Y-93459247D01*
X162203376Y-93467538D01*
X162257257Y-93512020D01*
X162268522Y-93536688D01*
X162269700Y-93536201D01*
X162328277Y-93677622D01*
X162328278Y-93677623D01*
X162328279Y-93677625D01*
X162416519Y-93792621D01*
X162531515Y-93880861D01*
X162665431Y-93936330D01*
X162792420Y-93953048D01*
X162809139Y-93955250D01*
X162809140Y-93955250D01*
X162809141Y-93955250D01*
X162824117Y-93953278D01*
X162952849Y-93936330D01*
X163086765Y-93880861D01*
X163201761Y-93792621D01*
X163290001Y-93677625D01*
X163342302Y-93551355D01*
X163386141Y-93496955D01*
X163452435Y-93474889D01*
X163520134Y-93492167D01*
X163567745Y-93543304D01*
X163576221Y-93570943D01*
X163577161Y-93570692D01*
X163579265Y-93578545D01*
X163634731Y-93712455D01*
X163634732Y-93712456D01*
X163634733Y-93712458D01*
X163722973Y-93827454D01*
X163837969Y-93915694D01*
X163837970Y-93915694D01*
X163837971Y-93915695D01*
X163882607Y-93934183D01*
X163971885Y-93971163D01*
X164098874Y-93987881D01*
X164115593Y-93990083D01*
X164115594Y-93990083D01*
X164115595Y-93990083D01*
X164130571Y-93988111D01*
X164259303Y-93971163D01*
X164393219Y-93915694D01*
X164508215Y-93827454D01*
X164596455Y-93712458D01*
X164644797Y-93595748D01*
X164688635Y-93541348D01*
X164754928Y-93519282D01*
X164822628Y-93536560D01*
X164870239Y-93587697D01*
X164879130Y-93611105D01*
X164879266Y-93611613D01*
X164934732Y-93745523D01*
X164934733Y-93745525D01*
X164934734Y-93745526D01*
X165022974Y-93860522D01*
X165137970Y-93948762D01*
X165137971Y-93948762D01*
X165137972Y-93948763D01*
X165182608Y-93967251D01*
X165271886Y-94004231D01*
X165398875Y-94020949D01*
X165415594Y-94023151D01*
X165415595Y-94023151D01*
X165415596Y-94023151D01*
X165430572Y-94021179D01*
X165559304Y-94004231D01*
X165693220Y-93948762D01*
X165808216Y-93860522D01*
X165896456Y-93745526D01*
X165941400Y-93637019D01*
X169144750Y-93637019D01*
X169159035Y-93745526D01*
X169163670Y-93780727D01*
X169163671Y-93780731D01*
X169219137Y-93914641D01*
X169219138Y-93914643D01*
X169219139Y-93914644D01*
X169307379Y-94029640D01*
X169422375Y-94117880D01*
X169422376Y-94117880D01*
X169422377Y-94117881D01*
X169450192Y-94129402D01*
X169556291Y-94173349D01*
X169683280Y-94190067D01*
X169699999Y-94192269D01*
X169700000Y-94192269D01*
X169700001Y-94192269D01*
X169714977Y-94190297D01*
X169843709Y-94173349D01*
X169977625Y-94117880D01*
X170092621Y-94029640D01*
X170180861Y-93914644D01*
X170236330Y-93780728D01*
X170255250Y-93637019D01*
X170236330Y-93493310D01*
X170184189Y-93367429D01*
X170180862Y-93359396D01*
X170180861Y-93359395D01*
X170180861Y-93359394D01*
X170092621Y-93244398D01*
X169977625Y-93156158D01*
X169977624Y-93156157D01*
X169977622Y-93156156D01*
X169843712Y-93100690D01*
X169843710Y-93100689D01*
X169843709Y-93100689D01*
X169771854Y-93091229D01*
X169700001Y-93081769D01*
X169699999Y-93081769D01*
X169556291Y-93100689D01*
X169556287Y-93100690D01*
X169422377Y-93156156D01*
X169307379Y-93244398D01*
X169219137Y-93359396D01*
X169163671Y-93493306D01*
X169163670Y-93493310D01*
X169144750Y-93637019D01*
X165941400Y-93637019D01*
X165951925Y-93611610D01*
X165970845Y-93467901D01*
X165951925Y-93324192D01*
X165896456Y-93190276D01*
X165808216Y-93075280D01*
X165693220Y-92987040D01*
X165693219Y-92987039D01*
X165693217Y-92987038D01*
X165559307Y-92931572D01*
X165559305Y-92931571D01*
X165559304Y-92931571D01*
X165487449Y-92922111D01*
X165415596Y-92912651D01*
X165415594Y-92912651D01*
X165271886Y-92931571D01*
X165271882Y-92931572D01*
X165137972Y-92987038D01*
X165070321Y-93038949D01*
X165022974Y-93075280D01*
X164958502Y-93159302D01*
X164934732Y-93190279D01*
X164886393Y-93306982D01*
X164842552Y-93361386D01*
X164776258Y-93383451D01*
X164708559Y-93366172D01*
X164660948Y-93315035D01*
X164652056Y-93291619D01*
X164651922Y-93291118D01*
X164596456Y-93157210D01*
X164596455Y-93157209D01*
X164596455Y-93157208D01*
X164508215Y-93042212D01*
X164393219Y-92953972D01*
X164393218Y-92953971D01*
X164393216Y-92953970D01*
X164259306Y-92898504D01*
X164259304Y-92898503D01*
X164259303Y-92898503D01*
X164187448Y-92889043D01*
X164115595Y-92879583D01*
X164115593Y-92879583D01*
X163971885Y-92898503D01*
X163971881Y-92898504D01*
X163837971Y-92953970D01*
X163794874Y-92987040D01*
X163722973Y-93042212D01*
X163635541Y-93156156D01*
X163634731Y-93157211D01*
X163582432Y-93283474D01*
X163538591Y-93337878D01*
X163472297Y-93359943D01*
X163404598Y-93342664D01*
X163356987Y-93291527D01*
X163348513Y-93263888D01*
X163347573Y-93264141D01*
X163345470Y-93256297D01*
X163345470Y-93256291D01*
X163303578Y-93155154D01*
X163290002Y-93122377D01*
X163290001Y-93122376D01*
X163290001Y-93122375D01*
X163201761Y-93007379D01*
X163086765Y-92919139D01*
X163086764Y-92919138D01*
X163086762Y-92919137D01*
X162952852Y-92863671D01*
X162952850Y-92863670D01*
X162952849Y-92863670D01*
X162880994Y-92854210D01*
X162809141Y-92844750D01*
X162809139Y-92844750D01*
X162665431Y-92863670D01*
X162665427Y-92863671D01*
X162531517Y-92919137D01*
X162416519Y-93007379D01*
X162328277Y-93122377D01*
X162269700Y-93263799D01*
X162266968Y-93262667D01*
X162237974Y-93310229D01*
X162175125Y-93340754D01*
X162105750Y-93332455D01*
X162051875Y-93287966D01*
X162040615Y-93263312D01*
X162039440Y-93263799D01*
X161980862Y-93122377D01*
X161980861Y-93122376D01*
X161980861Y-93122375D01*
X161892621Y-93007379D01*
X161777625Y-92919139D01*
X161777624Y-92919138D01*
X161777622Y-92919137D01*
X161643712Y-92863671D01*
X161643710Y-92863670D01*
X161643709Y-92863670D01*
X161571854Y-92854210D01*
X161500001Y-92844750D01*
X161499999Y-92844750D01*
X161356291Y-92863670D01*
X161356287Y-92863671D01*
X161222377Y-92919137D01*
X161107379Y-93007379D01*
X161019137Y-93122377D01*
X160963671Y-93256287D01*
X160963670Y-93256291D01*
X160952299Y-93342664D01*
X160944750Y-93400000D01*
X160221311Y-93400000D01*
X160204492Y-93359394D01*
X160186290Y-93315449D01*
X160186289Y-93315448D01*
X160186289Y-93315447D01*
X160098049Y-93200451D01*
X159983053Y-93112211D01*
X159983052Y-93112210D01*
X159983050Y-93112209D01*
X159849140Y-93056743D01*
X159849138Y-93056742D01*
X159849137Y-93056742D01*
X159738773Y-93042212D01*
X159705429Y-93037822D01*
X159705427Y-93037822D01*
X159561719Y-93056742D01*
X159561715Y-93056743D01*
X159427805Y-93112209D01*
X159312807Y-93200451D01*
X159224565Y-93315449D01*
X159169099Y-93449359D01*
X159169098Y-93449363D01*
X159152091Y-93578545D01*
X159150178Y-93593072D01*
X134268106Y-93593072D01*
X134273257Y-93580636D01*
X134292177Y-93436927D01*
X134273257Y-93293218D01*
X134230619Y-93190279D01*
X134217789Y-93159304D01*
X134217788Y-93159303D01*
X134217788Y-93159302D01*
X134129548Y-93044306D01*
X134014552Y-92956066D01*
X134014551Y-92956065D01*
X134014549Y-92956064D01*
X133880639Y-92900598D01*
X133880637Y-92900597D01*
X133880636Y-92900597D01*
X133801923Y-92890234D01*
X133736928Y-92881677D01*
X133736926Y-92881677D01*
X133593218Y-92900597D01*
X133593214Y-92900598D01*
X133459304Y-92956064D01*
X133344306Y-93044306D01*
X133256064Y-93159304D01*
X133200598Y-93293214D01*
X133200597Y-93293218D01*
X133188336Y-93386351D01*
X133181677Y-93436927D01*
X65200500Y-93436927D01*
X65200500Y-92084356D01*
X74476227Y-92084356D01*
X74476227Y-92084357D01*
X74496594Y-92304158D01*
X74496595Y-92304161D01*
X74557001Y-92516470D01*
X74557004Y-92516476D01*
X74655398Y-92714077D01*
X74788426Y-92890236D01*
X74951556Y-93038947D01*
X74951558Y-93038949D01*
X75139232Y-93155152D01*
X75139238Y-93155155D01*
X75149943Y-93159302D01*
X75345074Y-93234896D01*
X75562058Y-93275457D01*
X75562060Y-93275457D01*
X75782800Y-93275457D01*
X75782802Y-93275457D01*
X75999786Y-93234896D01*
X76205624Y-93155154D01*
X76393303Y-93038948D01*
X76556435Y-92890234D01*
X76689462Y-92714077D01*
X76787856Y-92516475D01*
X76787856Y-92516472D01*
X76787858Y-92516470D01*
X76848264Y-92304161D01*
X76848265Y-92304158D01*
X76868633Y-92084357D01*
X76868633Y-92084356D01*
X78616225Y-92084356D01*
X78616225Y-92084357D01*
X78636592Y-92304158D01*
X78636593Y-92304161D01*
X78696999Y-92516470D01*
X78697002Y-92516476D01*
X78795396Y-92714077D01*
X78928424Y-92890236D01*
X79091554Y-93038947D01*
X79091556Y-93038949D01*
X79279230Y-93155152D01*
X79279236Y-93155155D01*
X79289941Y-93159302D01*
X79485072Y-93234896D01*
X79702056Y-93275457D01*
X79702058Y-93275457D01*
X79922798Y-93275457D01*
X79922800Y-93275457D01*
X80139784Y-93234896D01*
X80345622Y-93155154D01*
X80533301Y-93038948D01*
X80696433Y-92890234D01*
X80741088Y-92831101D01*
X157744750Y-92831101D01*
X157755486Y-92912651D01*
X157763670Y-92974809D01*
X157763671Y-92974813D01*
X157819137Y-93108723D01*
X157819138Y-93108725D01*
X157819139Y-93108726D01*
X157907379Y-93223722D01*
X158022375Y-93311962D01*
X158022376Y-93311962D01*
X158022377Y-93311963D01*
X158051901Y-93324192D01*
X158156291Y-93367431D01*
X158277973Y-93383451D01*
X158299999Y-93386351D01*
X158300000Y-93386351D01*
X158300001Y-93386351D01*
X158322027Y-93383451D01*
X158443709Y-93367431D01*
X158577625Y-93311962D01*
X158692621Y-93223722D01*
X158780861Y-93108726D01*
X158836330Y-92974810D01*
X158855250Y-92831101D01*
X158836330Y-92687392D01*
X158780861Y-92553476D01*
X158692621Y-92438480D01*
X158577625Y-92350240D01*
X158577624Y-92350239D01*
X158577622Y-92350238D01*
X158443712Y-92294772D01*
X158443710Y-92294771D01*
X158443709Y-92294771D01*
X158371854Y-92285311D01*
X158300001Y-92275851D01*
X158299999Y-92275851D01*
X158156291Y-92294771D01*
X158156287Y-92294772D01*
X158022377Y-92350238D01*
X157907379Y-92438480D01*
X157819137Y-92553478D01*
X157763671Y-92687388D01*
X157763670Y-92687392D01*
X157744750Y-92831101D01*
X80741088Y-92831101D01*
X80829460Y-92714077D01*
X80927854Y-92516475D01*
X80927854Y-92516472D01*
X80927856Y-92516470D01*
X80988262Y-92304161D01*
X80988263Y-92304158D01*
X81008631Y-92084357D01*
X81008631Y-92084356D01*
X80988263Y-91864555D01*
X80988262Y-91864552D01*
X80927856Y-91652243D01*
X80927853Y-91652237D01*
X80919931Y-91636328D01*
X80829460Y-91454637D01*
X80696433Y-91278480D01*
X80696431Y-91278477D01*
X80533301Y-91129766D01*
X80533299Y-91129764D01*
X80345625Y-91013561D01*
X80345619Y-91013558D01*
X80183392Y-90950711D01*
X80139784Y-90933818D01*
X79922800Y-90893257D01*
X79702056Y-90893257D01*
X79485072Y-90933818D01*
X79485069Y-90933818D01*
X79485069Y-90933819D01*
X79279236Y-91013558D01*
X79279230Y-91013561D01*
X79091556Y-91129764D01*
X79091554Y-91129766D01*
X78928424Y-91278477D01*
X78795396Y-91454636D01*
X78697002Y-91652237D01*
X78696999Y-91652243D01*
X78636593Y-91864552D01*
X78636592Y-91864555D01*
X78616225Y-92084356D01*
X76868633Y-92084356D01*
X76848265Y-91864555D01*
X76848264Y-91864552D01*
X76787858Y-91652243D01*
X76787855Y-91652237D01*
X76779933Y-91636328D01*
X76689462Y-91454637D01*
X76556435Y-91278480D01*
X76556433Y-91278477D01*
X76393303Y-91129766D01*
X76393301Y-91129764D01*
X76205627Y-91013561D01*
X76205621Y-91013558D01*
X76043394Y-90950711D01*
X75999786Y-90933818D01*
X75782802Y-90893257D01*
X75562058Y-90893257D01*
X75345074Y-90933818D01*
X75345071Y-90933818D01*
X75345071Y-90933819D01*
X75139238Y-91013558D01*
X75139232Y-91013561D01*
X74951558Y-91129764D01*
X74951556Y-91129766D01*
X74788426Y-91278477D01*
X74655398Y-91454636D01*
X74557004Y-91652237D01*
X74557001Y-91652243D01*
X74496595Y-91864552D01*
X74496594Y-91864555D01*
X74476227Y-92084356D01*
X65200500Y-92084356D01*
X65200500Y-90376438D01*
X95334222Y-90376438D01*
X95334222Y-90376439D01*
X95353142Y-90520147D01*
X95353143Y-90520151D01*
X95408609Y-90654061D01*
X95408610Y-90654063D01*
X95408611Y-90654064D01*
X95496851Y-90769060D01*
X95611847Y-90857300D01*
X95745763Y-90912769D01*
X95872752Y-90929487D01*
X95889471Y-90931689D01*
X95889472Y-90931689D01*
X95889473Y-90931689D01*
X95904449Y-90929717D01*
X96033181Y-90912769D01*
X96086401Y-90890725D01*
X112234959Y-90890725D01*
X112234959Y-90890738D01*
X112254123Y-91122029D01*
X112254125Y-91122040D01*
X112311101Y-91347032D01*
X112404334Y-91559580D01*
X112531275Y-91753879D01*
X112531278Y-91753883D01*
X112531280Y-91753885D01*
X112688475Y-91924645D01*
X112688478Y-91924647D01*
X112688481Y-91924650D01*
X112871624Y-92067196D01*
X112871630Y-92067200D01*
X112871633Y-92067202D01*
X113075756Y-92177668D01*
X113189746Y-92216800D01*
X113295274Y-92253029D01*
X113295276Y-92253029D01*
X113295278Y-92253030D01*
X113524210Y-92291232D01*
X113524211Y-92291232D01*
X113756307Y-92291232D01*
X113756308Y-92291232D01*
X113985240Y-92253030D01*
X114204762Y-92177668D01*
X114408885Y-92067202D01*
X114589747Y-91926432D01*
X178384172Y-91926432D01*
X178384172Y-91926445D01*
X178403336Y-92157736D01*
X178403338Y-92157747D01*
X178460314Y-92382739D01*
X178553547Y-92595287D01*
X178680488Y-92789586D01*
X178680491Y-92789590D01*
X178680493Y-92789592D01*
X178837688Y-92960352D01*
X178837691Y-92960354D01*
X178837694Y-92960357D01*
X179020837Y-93102903D01*
X179020843Y-93102907D01*
X179020846Y-93102909D01*
X179224969Y-93213375D01*
X179287652Y-93234894D01*
X179444487Y-93288736D01*
X179444489Y-93288736D01*
X179444491Y-93288737D01*
X179673423Y-93326939D01*
X179673424Y-93326939D01*
X179905520Y-93326939D01*
X179905521Y-93326939D01*
X180134453Y-93288737D01*
X180353975Y-93213375D01*
X180558098Y-93102909D01*
X180560951Y-93100689D01*
X180706967Y-92987040D01*
X180741256Y-92960352D01*
X180898451Y-92789592D01*
X181025396Y-92595288D01*
X181118629Y-92382739D01*
X181175606Y-92157744D01*
X181181687Y-92084356D01*
X181194772Y-91926445D01*
X181194772Y-91926432D01*
X181175607Y-91695141D01*
X181175605Y-91695130D01*
X181118629Y-91470138D01*
X181025396Y-91257590D01*
X180898455Y-91063291D01*
X180898452Y-91063288D01*
X180898451Y-91063286D01*
X180741256Y-90892526D01*
X180741251Y-90892522D01*
X180741249Y-90892520D01*
X180558106Y-90749974D01*
X180558100Y-90749970D01*
X180353976Y-90639503D01*
X180353967Y-90639500D01*
X180134456Y-90564141D01*
X179962754Y-90535489D01*
X179905521Y-90525939D01*
X179673423Y-90525939D01*
X179627636Y-90533579D01*
X179444487Y-90564141D01*
X179224976Y-90639500D01*
X179224967Y-90639503D01*
X179020843Y-90749970D01*
X179020837Y-90749974D01*
X178837694Y-90892520D01*
X178837691Y-90892523D01*
X178680488Y-91063291D01*
X178553547Y-91257590D01*
X178460314Y-91470138D01*
X178403338Y-91695130D01*
X178403336Y-91695141D01*
X178384172Y-91926432D01*
X114589747Y-91926432D01*
X114592043Y-91924645D01*
X114749238Y-91753885D01*
X114876183Y-91559581D01*
X114969416Y-91347032D01*
X115026393Y-91122037D01*
X115028219Y-91099999D01*
X154544750Y-91099999D01*
X154544750Y-91100000D01*
X154563670Y-91243708D01*
X154563671Y-91243712D01*
X154619137Y-91377622D01*
X154619138Y-91377624D01*
X154619139Y-91377625D01*
X154707379Y-91492621D01*
X154822375Y-91580861D01*
X154956291Y-91636330D01*
X155077130Y-91652239D01*
X155099999Y-91655250D01*
X155100000Y-91655250D01*
X155100001Y-91655250D01*
X155114977Y-91653278D01*
X155243709Y-91636330D01*
X155377625Y-91580861D01*
X155492621Y-91492621D01*
X155580861Y-91377625D01*
X155636330Y-91243709D01*
X155655250Y-91100000D01*
X155636330Y-90956291D01*
X155580861Y-90822375D01*
X155492621Y-90707379D01*
X155377625Y-90619139D01*
X155377624Y-90619138D01*
X155377622Y-90619137D01*
X155331418Y-90599999D01*
X165144750Y-90599999D01*
X165144750Y-90600000D01*
X165163670Y-90743708D01*
X165163671Y-90743712D01*
X165219137Y-90877622D01*
X165219138Y-90877624D01*
X165219139Y-90877625D01*
X165307379Y-90992621D01*
X165422375Y-91080861D01*
X165556291Y-91136330D01*
X165683280Y-91153048D01*
X165699999Y-91155250D01*
X165700000Y-91155250D01*
X165700001Y-91155250D01*
X165714977Y-91153278D01*
X165843709Y-91136330D01*
X165977625Y-91080861D01*
X166092621Y-90992621D01*
X166180861Y-90877625D01*
X166236330Y-90743709D01*
X166255250Y-90600000D01*
X166236330Y-90456291D01*
X166180861Y-90322375D01*
X166092621Y-90207379D01*
X165977625Y-90119139D01*
X165977624Y-90119138D01*
X165977622Y-90119137D01*
X165843712Y-90063671D01*
X165843710Y-90063670D01*
X165843709Y-90063670D01*
X165771854Y-90054210D01*
X165700001Y-90044750D01*
X165699999Y-90044750D01*
X165556291Y-90063670D01*
X165556287Y-90063671D01*
X165422377Y-90119137D01*
X165307379Y-90207379D01*
X165219137Y-90322377D01*
X165163671Y-90456287D01*
X165163670Y-90456291D01*
X165144750Y-90599999D01*
X155331418Y-90599999D01*
X155243712Y-90563671D01*
X155243710Y-90563670D01*
X155243709Y-90563670D01*
X155171854Y-90554210D01*
X155100001Y-90544750D01*
X155099999Y-90544750D01*
X154956291Y-90563670D01*
X154956287Y-90563671D01*
X154822377Y-90619137D01*
X154707379Y-90707379D01*
X154619137Y-90822377D01*
X154563671Y-90956287D01*
X154563670Y-90956291D01*
X154544750Y-91099999D01*
X115028219Y-91099999D01*
X115031261Y-91063291D01*
X115045559Y-90890738D01*
X115045559Y-90890725D01*
X115026394Y-90659434D01*
X115026392Y-90659423D01*
X114969416Y-90434431D01*
X114876183Y-90221883D01*
X114749242Y-90027584D01*
X114749239Y-90027581D01*
X114749238Y-90027579D01*
X114592043Y-89856819D01*
X114592038Y-89856815D01*
X114592036Y-89856813D01*
X114408893Y-89714267D01*
X114408887Y-89714263D01*
X114204763Y-89603796D01*
X114204754Y-89603793D01*
X114165681Y-89590379D01*
X153954370Y-89590379D01*
X153954370Y-89590380D01*
X153973290Y-89734088D01*
X153973291Y-89734092D01*
X154028757Y-89868002D01*
X154028758Y-89868004D01*
X154028759Y-89868005D01*
X154116999Y-89983001D01*
X154231995Y-90071241D01*
X154365911Y-90126710D01*
X154492900Y-90143428D01*
X154509619Y-90145630D01*
X154509620Y-90145630D01*
X154509621Y-90145630D01*
X154524597Y-90143658D01*
X154653329Y-90126710D01*
X154787245Y-90071241D01*
X154902241Y-89983001D01*
X154990481Y-89868005D01*
X155045950Y-89734089D01*
X155064870Y-89590380D01*
X155045950Y-89446671D01*
X154990481Y-89312755D01*
X154924247Y-89226438D01*
X166834222Y-89226438D01*
X166834222Y-89226439D01*
X166853142Y-89370147D01*
X166853143Y-89370151D01*
X166908609Y-89504061D01*
X166908610Y-89504063D01*
X166908611Y-89504064D01*
X166996851Y-89619060D01*
X167111847Y-89707300D01*
X167245763Y-89762769D01*
X167372752Y-89779487D01*
X167389471Y-89781689D01*
X167389472Y-89781689D01*
X167389473Y-89781689D01*
X167404449Y-89779717D01*
X167533181Y-89762769D01*
X167667097Y-89707300D01*
X167782093Y-89619060D01*
X167870333Y-89504064D01*
X167925802Y-89370148D01*
X167944722Y-89226439D01*
X167925802Y-89082730D01*
X167870333Y-88948814D01*
X167782093Y-88833818D01*
X167667097Y-88745578D01*
X167667096Y-88745577D01*
X167667094Y-88745576D01*
X167533184Y-88690110D01*
X167533182Y-88690109D01*
X167533181Y-88690109D01*
X167461326Y-88680649D01*
X167389473Y-88671189D01*
X167389471Y-88671189D01*
X167245763Y-88690109D01*
X167245759Y-88690110D01*
X167111849Y-88745576D01*
X166996851Y-88833818D01*
X166908609Y-88948816D01*
X166853143Y-89082726D01*
X166853142Y-89082730D01*
X166834222Y-89226438D01*
X154924247Y-89226438D01*
X154902241Y-89197759D01*
X154787245Y-89109519D01*
X154787244Y-89109518D01*
X154787242Y-89109517D01*
X154653332Y-89054051D01*
X154653330Y-89054050D01*
X154653329Y-89054050D01*
X154581474Y-89044590D01*
X154509621Y-89035130D01*
X154509619Y-89035130D01*
X154365911Y-89054050D01*
X154365907Y-89054051D01*
X154231997Y-89109517D01*
X154116999Y-89197759D01*
X154028757Y-89312757D01*
X153973291Y-89446667D01*
X153973290Y-89446671D01*
X153954370Y-89590379D01*
X114165681Y-89590379D01*
X113985243Y-89528434D01*
X113813541Y-89499782D01*
X113756308Y-89490232D01*
X113524210Y-89490232D01*
X113478423Y-89497872D01*
X113295274Y-89528434D01*
X113075763Y-89603793D01*
X113075754Y-89603796D01*
X112871630Y-89714263D01*
X112871624Y-89714267D01*
X112688481Y-89856813D01*
X112688478Y-89856816D01*
X112688475Y-89856818D01*
X112688475Y-89856819D01*
X112678178Y-89868005D01*
X112531275Y-90027584D01*
X112404334Y-90221883D01*
X112311101Y-90434431D01*
X112254125Y-90659423D01*
X112254123Y-90659434D01*
X112234959Y-90890725D01*
X96086401Y-90890725D01*
X96167097Y-90857300D01*
X96282093Y-90769060D01*
X96370333Y-90654064D01*
X96425802Y-90520148D01*
X96444722Y-90376439D01*
X96425802Y-90232730D01*
X96370333Y-90098814D01*
X96282093Y-89983818D01*
X96167097Y-89895578D01*
X96167096Y-89895577D01*
X96167094Y-89895576D01*
X96033184Y-89840110D01*
X96033182Y-89840109D01*
X96033181Y-89840109D01*
X95961326Y-89830649D01*
X95889473Y-89821189D01*
X95889471Y-89821189D01*
X95745763Y-89840109D01*
X95745759Y-89840110D01*
X95611849Y-89895576D01*
X95496851Y-89983818D01*
X95408609Y-90098816D01*
X95353143Y-90232726D01*
X95353142Y-90232730D01*
X95334222Y-90376438D01*
X65200500Y-90376438D01*
X65200500Y-87944357D01*
X74476227Y-87944357D01*
X74476227Y-87944358D01*
X74496594Y-88164159D01*
X74496595Y-88164162D01*
X74557001Y-88376471D01*
X74557004Y-88376477D01*
X74655398Y-88574078D01*
X74788426Y-88750237D01*
X74951556Y-88898948D01*
X74951558Y-88898950D01*
X75139232Y-89015153D01*
X75139238Y-89015156D01*
X75149313Y-89019059D01*
X75345074Y-89094897D01*
X75562058Y-89135458D01*
X75562060Y-89135458D01*
X75782800Y-89135458D01*
X75782802Y-89135458D01*
X75999786Y-89094897D01*
X76205624Y-89015155D01*
X76393303Y-88898949D01*
X76556435Y-88750235D01*
X76689462Y-88574078D01*
X76787856Y-88376476D01*
X76787856Y-88376473D01*
X76787858Y-88376471D01*
X76848264Y-88164162D01*
X76848265Y-88164159D01*
X76849201Y-88154064D01*
X76868633Y-87944358D01*
X76868633Y-87944357D01*
X78616225Y-87944357D01*
X78616225Y-87944358D01*
X78636592Y-88164159D01*
X78636593Y-88164162D01*
X78696999Y-88376471D01*
X78697002Y-88376477D01*
X78795396Y-88574078D01*
X78928424Y-88750237D01*
X79091554Y-88898948D01*
X79091556Y-88898950D01*
X79279230Y-89015153D01*
X79279236Y-89015156D01*
X79289311Y-89019059D01*
X79485072Y-89094897D01*
X79702056Y-89135458D01*
X79702058Y-89135458D01*
X79922798Y-89135458D01*
X79922800Y-89135458D01*
X80139784Y-89094897D01*
X80345622Y-89015155D01*
X80533301Y-88898949D01*
X80696433Y-88750235D01*
X80829460Y-88574078D01*
X80927854Y-88376476D01*
X80927854Y-88376473D01*
X80927856Y-88376471D01*
X80988262Y-88164162D01*
X80988263Y-88164159D01*
X80989199Y-88154064D01*
X81008631Y-87944358D01*
X81002337Y-87876438D01*
X95334222Y-87876438D01*
X95334222Y-87876439D01*
X95353142Y-88020147D01*
X95353143Y-88020151D01*
X95408609Y-88154061D01*
X95408610Y-88154063D01*
X95408611Y-88154064D01*
X95496851Y-88269060D01*
X95611847Y-88357300D01*
X95745763Y-88412769D01*
X95872752Y-88429487D01*
X95889471Y-88431689D01*
X95889472Y-88431689D01*
X95889473Y-88431689D01*
X95904449Y-88429717D01*
X96033181Y-88412769D01*
X96167097Y-88357300D01*
X96282093Y-88269060D01*
X96370333Y-88154064D01*
X96425802Y-88020148D01*
X96444722Y-87876439D01*
X96425802Y-87732730D01*
X96370333Y-87598814D01*
X96329341Y-87545393D01*
X132964530Y-87545393D01*
X132971092Y-87595239D01*
X132983450Y-87689101D01*
X132983451Y-87689105D01*
X133038917Y-87823015D01*
X133038918Y-87823017D01*
X133038919Y-87823018D01*
X133127159Y-87938014D01*
X133242155Y-88026254D01*
X133376071Y-88081723D01*
X133503060Y-88098441D01*
X133519779Y-88100643D01*
X133519780Y-88100643D01*
X133519781Y-88100643D01*
X133534757Y-88098671D01*
X133663489Y-88081723D01*
X133797405Y-88026254D01*
X133912401Y-87938014D01*
X134000641Y-87823018D01*
X134056110Y-87689102D01*
X134075030Y-87545393D01*
X134056110Y-87401684D01*
X134000641Y-87267768D01*
X133912401Y-87152772D01*
X133797405Y-87064532D01*
X133797404Y-87064531D01*
X133797402Y-87064530D01*
X133663492Y-87009064D01*
X133663490Y-87009063D01*
X133663489Y-87009063D01*
X133591634Y-86999603D01*
X133519781Y-86990143D01*
X133519779Y-86990143D01*
X133376071Y-87009063D01*
X133376067Y-87009064D01*
X133242157Y-87064530D01*
X133127159Y-87152772D01*
X133038917Y-87267770D01*
X132983451Y-87401680D01*
X132983450Y-87401684D01*
X132976888Y-87451530D01*
X132964530Y-87545393D01*
X96329341Y-87545393D01*
X96282093Y-87483818D01*
X96167097Y-87395578D01*
X96167096Y-87395577D01*
X96167094Y-87395576D01*
X96033184Y-87340110D01*
X96033182Y-87340109D01*
X96033181Y-87340109D01*
X95961326Y-87330649D01*
X95889473Y-87321189D01*
X95889471Y-87321189D01*
X95745763Y-87340109D01*
X95745759Y-87340110D01*
X95611849Y-87395576D01*
X95496851Y-87483818D01*
X95408609Y-87598816D01*
X95353143Y-87732726D01*
X95353142Y-87732730D01*
X95334222Y-87876438D01*
X81002337Y-87876438D01*
X80998605Y-87836167D01*
X80988263Y-87724556D01*
X80988262Y-87724553D01*
X80927856Y-87512244D01*
X80927853Y-87512238D01*
X80829460Y-87314638D01*
X80696433Y-87138481D01*
X80696431Y-87138478D01*
X80533301Y-86989767D01*
X80533299Y-86989765D01*
X80345625Y-86873562D01*
X80345619Y-86873559D01*
X80183392Y-86810712D01*
X80139784Y-86793819D01*
X79922800Y-86753258D01*
X79702056Y-86753258D01*
X79485072Y-86793819D01*
X79485069Y-86793819D01*
X79485069Y-86793820D01*
X79279236Y-86873559D01*
X79279230Y-86873562D01*
X79091556Y-86989765D01*
X79091554Y-86989767D01*
X78928424Y-87138478D01*
X78795396Y-87314637D01*
X78697002Y-87512238D01*
X78696999Y-87512244D01*
X78636593Y-87724553D01*
X78636592Y-87724556D01*
X78616225Y-87944357D01*
X76868633Y-87944357D01*
X76858607Y-87836167D01*
X76848265Y-87724556D01*
X76848264Y-87724553D01*
X76787858Y-87512244D01*
X76787855Y-87512238D01*
X76689462Y-87314638D01*
X76556435Y-87138481D01*
X76556433Y-87138478D01*
X76393303Y-86989767D01*
X76393301Y-86989765D01*
X76205627Y-86873562D01*
X76205621Y-86873559D01*
X76043394Y-86810712D01*
X75999786Y-86793819D01*
X75782802Y-86753258D01*
X75562058Y-86753258D01*
X75345074Y-86793819D01*
X75345071Y-86793819D01*
X75345071Y-86793820D01*
X75139238Y-86873559D01*
X75139232Y-86873562D01*
X74951558Y-86989765D01*
X74951556Y-86989767D01*
X74788426Y-87138478D01*
X74655398Y-87314637D01*
X74557004Y-87512238D01*
X74557001Y-87512244D01*
X74496595Y-87724553D01*
X74496594Y-87724556D01*
X74476227Y-87944357D01*
X65200500Y-87944357D01*
X65200500Y-85810725D01*
X112234959Y-85810725D01*
X112234959Y-85810738D01*
X112254123Y-86042029D01*
X112254125Y-86042040D01*
X112311101Y-86267032D01*
X112404334Y-86479580D01*
X112531275Y-86673879D01*
X112531278Y-86673883D01*
X112531280Y-86673885D01*
X112688475Y-86844645D01*
X112688478Y-86844647D01*
X112688481Y-86844650D01*
X112871624Y-86987196D01*
X112871630Y-86987200D01*
X112871633Y-86987202D01*
X113075756Y-87097668D01*
X113124425Y-87114376D01*
X113295274Y-87173029D01*
X113295276Y-87173029D01*
X113295278Y-87173030D01*
X113524210Y-87211232D01*
X113524211Y-87211232D01*
X113756307Y-87211232D01*
X113756308Y-87211232D01*
X113985240Y-87173030D01*
X114204762Y-87097668D01*
X114408885Y-86987202D01*
X114520924Y-86899999D01*
X153944750Y-86899999D01*
X153944750Y-86900000D01*
X153963670Y-87043708D01*
X153963671Y-87043712D01*
X154019137Y-87177622D01*
X154019138Y-87177624D01*
X154019139Y-87177625D01*
X154107379Y-87292621D01*
X154222375Y-87380861D01*
X154222376Y-87380861D01*
X154222377Y-87380862D01*
X154267013Y-87399350D01*
X154356291Y-87436330D01*
X154395219Y-87441455D01*
X154459115Y-87469722D01*
X154497586Y-87528047D01*
X154498417Y-87597911D01*
X154461345Y-87657135D01*
X154398139Y-87686913D01*
X154395224Y-87687332D01*
X154356291Y-87692458D01*
X154356290Y-87692458D01*
X154356287Y-87692459D01*
X154222377Y-87747925D01*
X154107379Y-87836167D01*
X154019137Y-87951165D01*
X153963671Y-88085075D01*
X153963670Y-88085079D01*
X153944750Y-88228787D01*
X153944750Y-88228788D01*
X153963670Y-88372496D01*
X153963671Y-88372500D01*
X154019137Y-88506410D01*
X154019138Y-88506412D01*
X154019139Y-88506413D01*
X154107379Y-88621409D01*
X154222375Y-88709649D01*
X154356291Y-88765118D01*
X154483280Y-88781836D01*
X154499999Y-88784038D01*
X154500000Y-88784038D01*
X154500001Y-88784038D01*
X154514977Y-88782066D01*
X154643709Y-88765118D01*
X154777625Y-88709649D01*
X154886066Y-88626439D01*
X170834222Y-88626439D01*
X170842604Y-88690109D01*
X170853142Y-88770147D01*
X170853143Y-88770151D01*
X170908609Y-88904061D01*
X170908610Y-88904063D01*
X170908611Y-88904064D01*
X170996851Y-89019060D01*
X171111847Y-89107300D01*
X171245763Y-89162769D01*
X171372752Y-89179487D01*
X171389471Y-89181689D01*
X171389472Y-89181689D01*
X171389473Y-89181689D01*
X171404449Y-89179717D01*
X171533181Y-89162769D01*
X171667097Y-89107300D01*
X171782093Y-89019060D01*
X171870333Y-88904064D01*
X171925802Y-88770148D01*
X171944722Y-88626439D01*
X171925802Y-88482730D01*
X171880142Y-88372496D01*
X171870334Y-88348816D01*
X171870333Y-88348815D01*
X171870333Y-88348814D01*
X171782093Y-88233818D01*
X171667097Y-88145578D01*
X171667096Y-88145577D01*
X171667094Y-88145576D01*
X171533184Y-88090110D01*
X171533182Y-88090109D01*
X171533181Y-88090109D01*
X171426782Y-88076101D01*
X171389473Y-88071189D01*
X171389471Y-88071189D01*
X171245763Y-88090109D01*
X171245759Y-88090110D01*
X171111849Y-88145576D01*
X170996851Y-88233818D01*
X170908609Y-88348816D01*
X170853143Y-88482726D01*
X170853142Y-88482730D01*
X170834222Y-88626439D01*
X154886066Y-88626439D01*
X154892621Y-88621409D01*
X154980861Y-88506413D01*
X155036330Y-88372497D01*
X155055250Y-88228788D01*
X155036330Y-88085079D01*
X154980861Y-87951163D01*
X154892621Y-87836167D01*
X154777625Y-87747927D01*
X154777624Y-87747926D01*
X154777622Y-87747925D01*
X154643712Y-87692459D01*
X154643710Y-87692458D01*
X154643709Y-87692458D01*
X154604779Y-87687332D01*
X154540884Y-87659066D01*
X154502413Y-87600742D01*
X154502348Y-87595239D01*
X166844750Y-87595239D01*
X166857549Y-87692459D01*
X166863670Y-87738947D01*
X166863671Y-87738951D01*
X166919137Y-87872861D01*
X166919138Y-87872863D01*
X166919139Y-87872864D01*
X167007379Y-87987860D01*
X167122375Y-88076100D01*
X167122376Y-88076100D01*
X167122377Y-88076101D01*
X167156196Y-88090109D01*
X167256291Y-88131569D01*
X167383280Y-88148287D01*
X167399999Y-88150489D01*
X167400000Y-88150489D01*
X167400001Y-88150489D01*
X167414977Y-88148517D01*
X167543709Y-88131569D01*
X167677625Y-88076100D01*
X167792621Y-87987860D01*
X167880861Y-87872864D01*
X167936330Y-87738948D01*
X167955250Y-87595239D01*
X167936330Y-87451530D01*
X167880861Y-87317614D01*
X167792621Y-87202618D01*
X167677625Y-87114378D01*
X167677624Y-87114377D01*
X167677622Y-87114376D01*
X167543712Y-87058910D01*
X167543710Y-87058909D01*
X167543709Y-87058909D01*
X167471854Y-87049449D01*
X167400001Y-87039989D01*
X167399999Y-87039989D01*
X167256291Y-87058909D01*
X167256287Y-87058910D01*
X167122377Y-87114376D01*
X167007379Y-87202618D01*
X166919137Y-87317616D01*
X166863671Y-87451526D01*
X166863670Y-87451530D01*
X166844750Y-87595239D01*
X154502348Y-87595239D01*
X154501582Y-87530877D01*
X154538654Y-87471654D01*
X154601860Y-87441875D01*
X154604763Y-87441457D01*
X154643709Y-87436330D01*
X154777625Y-87380861D01*
X154892621Y-87292621D01*
X154980861Y-87177625D01*
X155036330Y-87043709D01*
X155055250Y-86900000D01*
X155036330Y-86756291D01*
X154980861Y-86622375D01*
X154892621Y-86507379D01*
X154777625Y-86419139D01*
X154777624Y-86419138D01*
X154777622Y-86419137D01*
X154643712Y-86363671D01*
X154643710Y-86363670D01*
X154643709Y-86363670D01*
X154571854Y-86354210D01*
X154500001Y-86344750D01*
X154499999Y-86344750D01*
X154356291Y-86363670D01*
X154356287Y-86363671D01*
X154222377Y-86419137D01*
X154107379Y-86507379D01*
X154019137Y-86622377D01*
X153963671Y-86756287D01*
X153963670Y-86756291D01*
X153944750Y-86899999D01*
X114520924Y-86899999D01*
X114592043Y-86844645D01*
X114749238Y-86673885D01*
X114876183Y-86479581D01*
X114969416Y-86267032D01*
X115026393Y-86042037D01*
X115045559Y-85810732D01*
X115045559Y-85810725D01*
X115026394Y-85579434D01*
X115026392Y-85579423D01*
X114969416Y-85354431D01*
X114876183Y-85141883D01*
X114863638Y-85122682D01*
X153922067Y-85122682D01*
X153922067Y-85122683D01*
X153940987Y-85266391D01*
X153940988Y-85266395D01*
X153996454Y-85400305D01*
X153996455Y-85400307D01*
X153996456Y-85400308D01*
X154084696Y-85515304D01*
X154199692Y-85603544D01*
X154333608Y-85659013D01*
X154460597Y-85675731D01*
X154477316Y-85677933D01*
X154477317Y-85677933D01*
X154477318Y-85677933D01*
X154492294Y-85675961D01*
X154621026Y-85659013D01*
X154754942Y-85603544D01*
X154869938Y-85515304D01*
X154958178Y-85400308D01*
X155013647Y-85266392D01*
X155032567Y-85122683D01*
X155013647Y-84978974D01*
X154958178Y-84845058D01*
X154869938Y-84730062D01*
X154863729Y-84725297D01*
X154822528Y-84668871D01*
X154818374Y-84599124D01*
X154852587Y-84538205D01*
X154914305Y-84505452D01*
X154983932Y-84511267D01*
X154986670Y-84512363D01*
X155052847Y-84539774D01*
X155179836Y-84556492D01*
X155196555Y-84558694D01*
X155196556Y-84558694D01*
X155196557Y-84558694D01*
X155211533Y-84556722D01*
X155340265Y-84539774D01*
X155474181Y-84484305D01*
X155589177Y-84396065D01*
X155677417Y-84281069D01*
X155732886Y-84147153D01*
X155751806Y-84003444D01*
X155732886Y-83859735D01*
X155677674Y-83726439D01*
X155677674Y-83726438D01*
X166734222Y-83726438D01*
X166734222Y-83726439D01*
X166753142Y-83870147D01*
X166753143Y-83870151D01*
X166808609Y-84004061D01*
X166808610Y-84004063D01*
X166808611Y-84004064D01*
X166896851Y-84119060D01*
X166916839Y-84134397D01*
X166958042Y-84190825D01*
X166962197Y-84260571D01*
X166939730Y-84308258D01*
X166908610Y-84348814D01*
X166908610Y-84348815D01*
X166853143Y-84482726D01*
X166853142Y-84482730D01*
X166839500Y-84586353D01*
X166834222Y-84626439D01*
X166847864Y-84730062D01*
X166853142Y-84770147D01*
X166853143Y-84770151D01*
X166908609Y-84904061D01*
X166908610Y-84904063D01*
X166908611Y-84904064D01*
X166996851Y-85019060D01*
X167111847Y-85107300D01*
X167245763Y-85162769D01*
X167372752Y-85179487D01*
X167389471Y-85181689D01*
X167389472Y-85181689D01*
X167389473Y-85181689D01*
X167404449Y-85179717D01*
X167533181Y-85162769D01*
X167667097Y-85107300D01*
X167782093Y-85019060D01*
X167870333Y-84904064D01*
X167925802Y-84770148D01*
X167944722Y-84626439D01*
X167925802Y-84482730D01*
X167870333Y-84348814D01*
X167782093Y-84233818D01*
X167762103Y-84218479D01*
X167720901Y-84162051D01*
X167716746Y-84092305D01*
X167739213Y-84044620D01*
X167770333Y-84004064D01*
X167825802Y-83870148D01*
X167844722Y-83726439D01*
X167844640Y-83725819D01*
X167842520Y-83709719D01*
X167825802Y-83582730D01*
X167788822Y-83493452D01*
X167770334Y-83448816D01*
X167770333Y-83448815D01*
X167770333Y-83448814D01*
X167682093Y-83333818D01*
X167567097Y-83245578D01*
X167567096Y-83245577D01*
X167567094Y-83245576D01*
X167433184Y-83190110D01*
X167433182Y-83190109D01*
X167433181Y-83190109D01*
X167361326Y-83180649D01*
X167289473Y-83171189D01*
X167289471Y-83171189D01*
X167145763Y-83190109D01*
X167145759Y-83190110D01*
X167011849Y-83245576D01*
X166896851Y-83333818D01*
X166808609Y-83448816D01*
X166753143Y-83582726D01*
X166753142Y-83582730D01*
X166734222Y-83726438D01*
X155677674Y-83726438D01*
X155677418Y-83725821D01*
X155677417Y-83725820D01*
X155677417Y-83725819D01*
X155589177Y-83610823D01*
X155474181Y-83522583D01*
X155474180Y-83522582D01*
X155474178Y-83522581D01*
X155340268Y-83467115D01*
X155340266Y-83467114D01*
X155340265Y-83467114D01*
X155268410Y-83457654D01*
X155196557Y-83448194D01*
X155196555Y-83448194D01*
X155052847Y-83467114D01*
X155052843Y-83467115D01*
X154918933Y-83522581D01*
X154803935Y-83610823D01*
X154715693Y-83725821D01*
X154660227Y-83859731D01*
X154660226Y-83859735D01*
X154641306Y-84003444D01*
X154656527Y-84119060D01*
X154660226Y-84147152D01*
X154660227Y-84147156D01*
X154715693Y-84281066D01*
X154715694Y-84281068D01*
X154715695Y-84281069D01*
X154803934Y-84396064D01*
X154803936Y-84396066D01*
X154810140Y-84400826D01*
X154851343Y-84457254D01*
X154855498Y-84527000D01*
X154821286Y-84587920D01*
X154759568Y-84620673D01*
X154689941Y-84614860D01*
X154687231Y-84613775D01*
X154621026Y-84586353D01*
X154621025Y-84586352D01*
X154621023Y-84586352D01*
X154477318Y-84567433D01*
X154477316Y-84567433D01*
X154333608Y-84586353D01*
X154333604Y-84586354D01*
X154199694Y-84641820D01*
X154084696Y-84730062D01*
X153996454Y-84845060D01*
X153940988Y-84978970D01*
X153940987Y-84978974D01*
X153922067Y-85122682D01*
X114863638Y-85122682D01*
X114749242Y-84947584D01*
X114749239Y-84947581D01*
X114749238Y-84947579D01*
X114592043Y-84776819D01*
X114592038Y-84776815D01*
X114592036Y-84776813D01*
X114408893Y-84634267D01*
X114408887Y-84634263D01*
X114204763Y-84523796D01*
X114204754Y-84523793D01*
X113985243Y-84448434D01*
X113813541Y-84419782D01*
X113756308Y-84410232D01*
X113524210Y-84410232D01*
X113478423Y-84417872D01*
X113295274Y-84448434D01*
X113075763Y-84523793D01*
X113075754Y-84523796D01*
X112871630Y-84634263D01*
X112871624Y-84634267D01*
X112688481Y-84776813D01*
X112688478Y-84776816D01*
X112531275Y-84947584D01*
X112404334Y-85141883D01*
X112311101Y-85354431D01*
X112254125Y-85579423D01*
X112254123Y-85579434D01*
X112234959Y-85810725D01*
X65200500Y-85810725D01*
X65200500Y-85126439D01*
X95334222Y-85126439D01*
X95352647Y-85266391D01*
X95353142Y-85270147D01*
X95353143Y-85270151D01*
X95408609Y-85404061D01*
X95408610Y-85404063D01*
X95408611Y-85404064D01*
X95496851Y-85519060D01*
X95611847Y-85607300D01*
X95745763Y-85662769D01*
X95872752Y-85679487D01*
X95889471Y-85681689D01*
X95889472Y-85681689D01*
X95889473Y-85681689D01*
X95904449Y-85679717D01*
X96033181Y-85662769D01*
X96167097Y-85607300D01*
X96282093Y-85519060D01*
X96370333Y-85404064D01*
X96425802Y-85270148D01*
X96444722Y-85126439D01*
X96425802Y-84982730D01*
X96388822Y-84893452D01*
X96370334Y-84848816D01*
X96370333Y-84848815D01*
X96370333Y-84848814D01*
X96282093Y-84733818D01*
X96167097Y-84645578D01*
X96167096Y-84645577D01*
X96167094Y-84645576D01*
X96033184Y-84590110D01*
X96033182Y-84590109D01*
X96033181Y-84590109D01*
X95961326Y-84580649D01*
X95889473Y-84571189D01*
X95889471Y-84571189D01*
X95745763Y-84590109D01*
X95745759Y-84590110D01*
X95611849Y-84645576D01*
X95496851Y-84733818D01*
X95408609Y-84848816D01*
X95353143Y-84982726D01*
X95353142Y-84982730D01*
X95334717Y-85122682D01*
X95334222Y-85126439D01*
X65200500Y-85126439D01*
X65200500Y-83804358D01*
X74476227Y-83804358D01*
X74476227Y-83804359D01*
X74496594Y-84024160D01*
X74496595Y-84024163D01*
X74557001Y-84236472D01*
X74557004Y-84236478D01*
X74655398Y-84434079D01*
X74788426Y-84610238D01*
X74951556Y-84758949D01*
X74951558Y-84758951D01*
X75139232Y-84875154D01*
X75139238Y-84875157D01*
X75182844Y-84892049D01*
X75345074Y-84954898D01*
X75562058Y-84995459D01*
X75562060Y-84995459D01*
X75782800Y-84995459D01*
X75782802Y-84995459D01*
X75999786Y-84954898D01*
X76205624Y-84875156D01*
X76393303Y-84758950D01*
X76556435Y-84610236D01*
X76689462Y-84434079D01*
X76787856Y-84236477D01*
X76787856Y-84236474D01*
X76787858Y-84236472D01*
X76848264Y-84024163D01*
X76848265Y-84024160D01*
X76850128Y-84004061D01*
X76868633Y-83804359D01*
X76868633Y-83804358D01*
X78616225Y-83804358D01*
X78616225Y-83804359D01*
X78636592Y-84024160D01*
X78636593Y-84024163D01*
X78696999Y-84236472D01*
X78697002Y-84236478D01*
X78795396Y-84434079D01*
X78928424Y-84610238D01*
X79091554Y-84758949D01*
X79091556Y-84758951D01*
X79279230Y-84875154D01*
X79279236Y-84875157D01*
X79322842Y-84892049D01*
X79485072Y-84954898D01*
X79702056Y-84995459D01*
X79702058Y-84995459D01*
X79922798Y-84995459D01*
X79922800Y-84995459D01*
X80139784Y-84954898D01*
X80345622Y-84875156D01*
X80533301Y-84758950D01*
X80696433Y-84610236D01*
X80829460Y-84434079D01*
X80927854Y-84236477D01*
X80927854Y-84236474D01*
X80927856Y-84236472D01*
X80988262Y-84024163D01*
X80988263Y-84024160D01*
X80990126Y-84004061D01*
X81008631Y-83804359D01*
X80988263Y-83584557D01*
X80954848Y-83467114D01*
X80927856Y-83372245D01*
X80927853Y-83372239D01*
X80864782Y-83245576D01*
X80829460Y-83174639D01*
X80696433Y-82998482D01*
X80696431Y-82998479D01*
X80533301Y-82849768D01*
X80533299Y-82849766D01*
X80345625Y-82733563D01*
X80345619Y-82733560D01*
X80183392Y-82670713D01*
X80139784Y-82653820D01*
X79993307Y-82626439D01*
X95334222Y-82626439D01*
X95348325Y-82733563D01*
X95353142Y-82770147D01*
X95353143Y-82770151D01*
X95408609Y-82904061D01*
X95408610Y-82904063D01*
X95408611Y-82904064D01*
X95496851Y-83019060D01*
X95611847Y-83107300D01*
X95745763Y-83162769D01*
X95872752Y-83179487D01*
X95889471Y-83181689D01*
X95889472Y-83181689D01*
X95889473Y-83181689D01*
X95904449Y-83179717D01*
X96033181Y-83162769D01*
X96167097Y-83107300D01*
X96282093Y-83019060D01*
X96370333Y-82904064D01*
X96425802Y-82770148D01*
X96444722Y-82626439D01*
X96426289Y-82486430D01*
X133031181Y-82486430D01*
X133031181Y-82486431D01*
X133050101Y-82630139D01*
X133050102Y-82630143D01*
X133105568Y-82764053D01*
X133105569Y-82764055D01*
X133105570Y-82764056D01*
X133193810Y-82879052D01*
X133308806Y-82967292D01*
X133442722Y-83022761D01*
X133569711Y-83039479D01*
X133586430Y-83041681D01*
X133586431Y-83041681D01*
X133586432Y-83041681D01*
X133601408Y-83039709D01*
X133730140Y-83022761D01*
X133864056Y-82967292D01*
X133979052Y-82879052D01*
X134067292Y-82764056D01*
X134122761Y-82630140D01*
X134141681Y-82486431D01*
X134122761Y-82342722D01*
X134067292Y-82208806D01*
X133979052Y-82093810D01*
X133864056Y-82005570D01*
X133864055Y-82005569D01*
X133864053Y-82005568D01*
X133730143Y-81950102D01*
X133730141Y-81950101D01*
X133730140Y-81950101D01*
X133658285Y-81940641D01*
X133586432Y-81931181D01*
X133586430Y-81931181D01*
X133442722Y-81950101D01*
X133442718Y-81950102D01*
X133308808Y-82005568D01*
X133193810Y-82093810D01*
X133105568Y-82208808D01*
X133050102Y-82342718D01*
X133050101Y-82342722D01*
X133031181Y-82486430D01*
X96426289Y-82486430D01*
X96425802Y-82482730D01*
X96370333Y-82348814D01*
X96282093Y-82233818D01*
X96167097Y-82145578D01*
X96167096Y-82145577D01*
X96167094Y-82145576D01*
X96033184Y-82090110D01*
X96033182Y-82090109D01*
X96033181Y-82090109D01*
X95961326Y-82080649D01*
X95889473Y-82071189D01*
X95889471Y-82071189D01*
X95745763Y-82090109D01*
X95745759Y-82090110D01*
X95611849Y-82145576D01*
X95496851Y-82233818D01*
X95408609Y-82348816D01*
X95353143Y-82482726D01*
X95353142Y-82482730D01*
X95334222Y-82626439D01*
X79993307Y-82626439D01*
X79922800Y-82613259D01*
X79702056Y-82613259D01*
X79485072Y-82653820D01*
X79485069Y-82653820D01*
X79485069Y-82653821D01*
X79279236Y-82733560D01*
X79279230Y-82733563D01*
X79091556Y-82849766D01*
X79091554Y-82849768D01*
X78928424Y-82998479D01*
X78795396Y-83174638D01*
X78697002Y-83372239D01*
X78696999Y-83372245D01*
X78636593Y-83584554D01*
X78636592Y-83584557D01*
X78616225Y-83804358D01*
X76868633Y-83804358D01*
X76848265Y-83584557D01*
X76814850Y-83467114D01*
X76787858Y-83372245D01*
X76787855Y-83372239D01*
X76724784Y-83245576D01*
X76689462Y-83174639D01*
X76556435Y-82998482D01*
X76556433Y-82998479D01*
X76393303Y-82849768D01*
X76393301Y-82849766D01*
X76205627Y-82733563D01*
X76205621Y-82733560D01*
X76043394Y-82670713D01*
X75999786Y-82653820D01*
X75782802Y-82613259D01*
X75562058Y-82613259D01*
X75345074Y-82653820D01*
X75345071Y-82653820D01*
X75345071Y-82653821D01*
X75139238Y-82733560D01*
X75139232Y-82733563D01*
X74951558Y-82849766D01*
X74951556Y-82849768D01*
X74788426Y-82998479D01*
X74655398Y-83174638D01*
X74557004Y-83372239D01*
X74557001Y-83372245D01*
X74496595Y-83584554D01*
X74496594Y-83584557D01*
X74476227Y-83804358D01*
X65200500Y-83804358D01*
X65200500Y-79523032D01*
X66176129Y-79523032D01*
X66176129Y-79805689D01*
X66213022Y-80085922D01*
X66213023Y-80085927D01*
X66213024Y-80085933D01*
X66271471Y-80304061D01*
X66286182Y-80358963D01*
X66286185Y-80358973D01*
X66394350Y-80620107D01*
X66394355Y-80620118D01*
X66535679Y-80864896D01*
X66535690Y-80864912D01*
X66707756Y-81089153D01*
X66707762Y-81089160D01*
X66907625Y-81289023D01*
X66907632Y-81289029D01*
X67029746Y-81382730D01*
X67131882Y-81461102D01*
X67131889Y-81461106D01*
X67376667Y-81602430D01*
X67376672Y-81602432D01*
X67376675Y-81602434D01*
X67637822Y-81710604D01*
X67910853Y-81783762D01*
X68191098Y-81820657D01*
X68191105Y-81820657D01*
X68473753Y-81820657D01*
X68473760Y-81820657D01*
X68754005Y-81783762D01*
X69027036Y-81710604D01*
X69288183Y-81602434D01*
X69532976Y-81461102D01*
X69757227Y-81289028D01*
X69957100Y-81089155D01*
X70129174Y-80864904D01*
X70270506Y-80620111D01*
X70378676Y-80358964D01*
X70451834Y-80085933D01*
X70488729Y-79805688D01*
X70488729Y-79664358D01*
X74476227Y-79664358D01*
X74476227Y-79664359D01*
X74496594Y-79884160D01*
X74496595Y-79884163D01*
X74557001Y-80096472D01*
X74557004Y-80096478D01*
X74655398Y-80294079D01*
X74788426Y-80470238D01*
X74951556Y-80618949D01*
X74951558Y-80618951D01*
X75139232Y-80735154D01*
X75139238Y-80735157D01*
X75182844Y-80752049D01*
X75345074Y-80814898D01*
X75562058Y-80855459D01*
X75562060Y-80855459D01*
X75782800Y-80855459D01*
X75782802Y-80855459D01*
X75999786Y-80814898D01*
X76205624Y-80735156D01*
X76393303Y-80618950D01*
X76556435Y-80470236D01*
X76689462Y-80294079D01*
X76787856Y-80096477D01*
X76787856Y-80096474D01*
X76787858Y-80096472D01*
X76848264Y-79884163D01*
X76848265Y-79884160D01*
X76849802Y-79867579D01*
X76868633Y-79664359D01*
X76868633Y-79664358D01*
X78616225Y-79664358D01*
X78616225Y-79664359D01*
X78636592Y-79884160D01*
X78636593Y-79884163D01*
X78696999Y-80096472D01*
X78697002Y-80096478D01*
X78795396Y-80294079D01*
X78928424Y-80470238D01*
X79091554Y-80618949D01*
X79091556Y-80618951D01*
X79279230Y-80735154D01*
X79279236Y-80735157D01*
X79322842Y-80752049D01*
X79485072Y-80814898D01*
X79702056Y-80855459D01*
X79702058Y-80855459D01*
X79922798Y-80855459D01*
X79922800Y-80855459D01*
X80139784Y-80814898D01*
X80345622Y-80735156D01*
X80352778Y-80730725D01*
X112234959Y-80730725D01*
X112234959Y-80730738D01*
X112254123Y-80962029D01*
X112254125Y-80962040D01*
X112311101Y-81187032D01*
X112404334Y-81399580D01*
X112531275Y-81593879D01*
X112531278Y-81593883D01*
X112531280Y-81593885D01*
X112688475Y-81764645D01*
X112688478Y-81764647D01*
X112688481Y-81764650D01*
X112871624Y-81907196D01*
X112871630Y-81907200D01*
X112871633Y-81907202D01*
X113075756Y-82017668D01*
X113189746Y-82056800D01*
X113295274Y-82093029D01*
X113295276Y-82093029D01*
X113295278Y-82093030D01*
X113524210Y-82131232D01*
X113524211Y-82131232D01*
X113756307Y-82131232D01*
X113756308Y-82131232D01*
X113985240Y-82093030D01*
X114204762Y-82017668D01*
X114408885Y-81907202D01*
X114592043Y-81764645D01*
X114749238Y-81593885D01*
X114850251Y-81439273D01*
X164034222Y-81439273D01*
X164034222Y-81439274D01*
X164053142Y-81582982D01*
X164053143Y-81582986D01*
X164108609Y-81716896D01*
X164108610Y-81716898D01*
X164108611Y-81716899D01*
X164196851Y-81831895D01*
X164311847Y-81920135D01*
X164445763Y-81975604D01*
X164572752Y-81992322D01*
X164589471Y-81994524D01*
X164589472Y-81994524D01*
X164589473Y-81994524D01*
X164604449Y-81992552D01*
X164733181Y-81975604D01*
X164867097Y-81920135D01*
X164982093Y-81831895D01*
X165070333Y-81716899D01*
X165125802Y-81582983D01*
X165133246Y-81526438D01*
X168934222Y-81526438D01*
X168934222Y-81526439D01*
X168953142Y-81670147D01*
X168953143Y-81670151D01*
X169008609Y-81804061D01*
X169008610Y-81804063D01*
X169008611Y-81804064D01*
X169096851Y-81919060D01*
X169211847Y-82007300D01*
X169211848Y-82007300D01*
X169211849Y-82007301D01*
X169236878Y-82017668D01*
X169345763Y-82062769D01*
X169472752Y-82079487D01*
X169489471Y-82081689D01*
X169489472Y-82081689D01*
X169489473Y-82081689D01*
X169504449Y-82079717D01*
X169633181Y-82062769D01*
X169767097Y-82007300D01*
X169882093Y-81919060D01*
X169970333Y-81804064D01*
X170025802Y-81670148D01*
X170044722Y-81526439D01*
X170025802Y-81382730D01*
X169970333Y-81248814D01*
X169882093Y-81133818D01*
X169767097Y-81045578D01*
X169767096Y-81045577D01*
X169767094Y-81045576D01*
X169633184Y-80990110D01*
X169633182Y-80990109D01*
X169633181Y-80990109D01*
X169561326Y-80980649D01*
X169489473Y-80971189D01*
X169489471Y-80971189D01*
X169345763Y-80990109D01*
X169345759Y-80990110D01*
X169211849Y-81045576D01*
X169096851Y-81133818D01*
X169008609Y-81248816D01*
X168953143Y-81382726D01*
X168953142Y-81382730D01*
X168934222Y-81526438D01*
X165133246Y-81526438D01*
X165144722Y-81439274D01*
X165125802Y-81295565D01*
X165070333Y-81161649D01*
X164982093Y-81046653D01*
X164867097Y-80958413D01*
X164867096Y-80958412D01*
X164867094Y-80958411D01*
X164733184Y-80902945D01*
X164733182Y-80902944D01*
X164733181Y-80902944D01*
X164661326Y-80893484D01*
X164589473Y-80884024D01*
X164589471Y-80884024D01*
X164445763Y-80902944D01*
X164445759Y-80902945D01*
X164311849Y-80958411D01*
X164196851Y-81046653D01*
X164108609Y-81161651D01*
X164053143Y-81295561D01*
X164053142Y-81295565D01*
X164034222Y-81439273D01*
X114850251Y-81439273D01*
X114876183Y-81399581D01*
X114969416Y-81187032D01*
X115026393Y-80962037D01*
X115026394Y-80962029D01*
X115045559Y-80730738D01*
X115045559Y-80730725D01*
X115026394Y-80499434D01*
X115026392Y-80499423D01*
X114969416Y-80274431D01*
X114876183Y-80061883D01*
X114749242Y-79867584D01*
X114749239Y-79867581D01*
X114749238Y-79867579D01*
X114711366Y-79826439D01*
X169634222Y-79826439D01*
X169641632Y-79882726D01*
X169653142Y-79970147D01*
X169653143Y-79970151D01*
X169708609Y-80104061D01*
X169708610Y-80104063D01*
X169708611Y-80104064D01*
X169796851Y-80219060D01*
X169911847Y-80307300D01*
X170045763Y-80362769D01*
X170172752Y-80379487D01*
X170189471Y-80381689D01*
X170189472Y-80381689D01*
X170189473Y-80381689D01*
X170204449Y-80379717D01*
X170333181Y-80362769D01*
X170467097Y-80307300D01*
X170582093Y-80219060D01*
X170670333Y-80104064D01*
X170702486Y-80026439D01*
X171434222Y-80026439D01*
X171447387Y-80126439D01*
X171453142Y-80170147D01*
X171453143Y-80170151D01*
X171508609Y-80304061D01*
X171508610Y-80304063D01*
X171508611Y-80304064D01*
X171596851Y-80419060D01*
X171711847Y-80507300D01*
X171711848Y-80507300D01*
X171711849Y-80507301D01*
X171756485Y-80525789D01*
X171845763Y-80562769D01*
X171972752Y-80579487D01*
X171989471Y-80581689D01*
X171989472Y-80581689D01*
X171989473Y-80581689D01*
X172004449Y-80579717D01*
X172133181Y-80562769D01*
X172267097Y-80507300D01*
X172382093Y-80419060D01*
X172470333Y-80304064D01*
X172525802Y-80170148D01*
X172544722Y-80026439D01*
X172525802Y-79882730D01*
X172470333Y-79748814D01*
X172382093Y-79633818D01*
X172267097Y-79545578D01*
X172267096Y-79545577D01*
X172267094Y-79545576D01*
X172133184Y-79490110D01*
X172133182Y-79490109D01*
X172133181Y-79490109D01*
X172061326Y-79480649D01*
X171989473Y-79471189D01*
X171989471Y-79471189D01*
X171845763Y-79490109D01*
X171845759Y-79490110D01*
X171711849Y-79545576D01*
X171596851Y-79633818D01*
X171508609Y-79748816D01*
X171453143Y-79882726D01*
X171453142Y-79882730D01*
X171439977Y-79982730D01*
X171434222Y-80026439D01*
X170702486Y-80026439D01*
X170725802Y-79970148D01*
X170744722Y-79826439D01*
X170725802Y-79682730D01*
X170670333Y-79548814D01*
X170582093Y-79433818D01*
X170467097Y-79345578D01*
X170467096Y-79345577D01*
X170467094Y-79345576D01*
X170333184Y-79290110D01*
X170333182Y-79290109D01*
X170333181Y-79290109D01*
X170261326Y-79280649D01*
X170189473Y-79271189D01*
X170189471Y-79271189D01*
X170045763Y-79290109D01*
X170045759Y-79290110D01*
X169911849Y-79345576D01*
X169796851Y-79433818D01*
X169708609Y-79548816D01*
X169653143Y-79682726D01*
X169653142Y-79682730D01*
X169651288Y-79696816D01*
X169634222Y-79826439D01*
X114711366Y-79826439D01*
X114592043Y-79696819D01*
X114592038Y-79696815D01*
X114592036Y-79696813D01*
X114408893Y-79554267D01*
X114408887Y-79554263D01*
X114204763Y-79443796D01*
X114204754Y-79443793D01*
X113985243Y-79368434D01*
X113813541Y-79339782D01*
X113756308Y-79330232D01*
X113524210Y-79330232D01*
X113478423Y-79337872D01*
X113295274Y-79368434D01*
X113075763Y-79443793D01*
X113075754Y-79443796D01*
X112871630Y-79554263D01*
X112871624Y-79554267D01*
X112688481Y-79696813D01*
X112688478Y-79696816D01*
X112531275Y-79867584D01*
X112404334Y-80061883D01*
X112311101Y-80274431D01*
X112254125Y-80499423D01*
X112254123Y-80499434D01*
X112234959Y-80730725D01*
X80352778Y-80730725D01*
X80533301Y-80618950D01*
X80696433Y-80470236D01*
X80829460Y-80294079D01*
X80912935Y-80126439D01*
X95334222Y-80126439D01*
X95345667Y-80213374D01*
X95353142Y-80270147D01*
X95353143Y-80270151D01*
X95408609Y-80404061D01*
X95408610Y-80404063D01*
X95408611Y-80404064D01*
X95496851Y-80519060D01*
X95611847Y-80607300D01*
X95611848Y-80607300D01*
X95611849Y-80607301D01*
X95639973Y-80618950D01*
X95745763Y-80662769D01*
X95872752Y-80679487D01*
X95889471Y-80681689D01*
X95889472Y-80681689D01*
X95889473Y-80681689D01*
X95904449Y-80679717D01*
X96033181Y-80662769D01*
X96167097Y-80607300D01*
X96282093Y-80519060D01*
X96370333Y-80404064D01*
X96425802Y-80270148D01*
X96444722Y-80126439D01*
X96425802Y-79982730D01*
X96370333Y-79848814D01*
X96282093Y-79733818D01*
X96167097Y-79645578D01*
X96167096Y-79645577D01*
X96167094Y-79645576D01*
X96033184Y-79590110D01*
X96033182Y-79590109D01*
X96033181Y-79590109D01*
X95961326Y-79580649D01*
X95889473Y-79571189D01*
X95889471Y-79571189D01*
X95745763Y-79590109D01*
X95745759Y-79590110D01*
X95611849Y-79645576D01*
X95496851Y-79733818D01*
X95408609Y-79848816D01*
X95353143Y-79982726D01*
X95353142Y-79982730D01*
X95338167Y-80096478D01*
X95334222Y-80126439D01*
X80912935Y-80126439D01*
X80927854Y-80096477D01*
X80927854Y-80096474D01*
X80927856Y-80096472D01*
X80988262Y-79884163D01*
X80988263Y-79884160D01*
X80989800Y-79867579D01*
X81008631Y-79664359D01*
X81008483Y-79662767D01*
X80988263Y-79444557D01*
X80988262Y-79444554D01*
X80988045Y-79443793D01*
X80955735Y-79330232D01*
X80927856Y-79232245D01*
X80927853Y-79232239D01*
X80875170Y-79126438D01*
X165034222Y-79126438D01*
X165034222Y-79126439D01*
X165053142Y-79270147D01*
X165053143Y-79270151D01*
X165108609Y-79404061D01*
X165108610Y-79404063D01*
X165108611Y-79404064D01*
X165196851Y-79519060D01*
X165311847Y-79607300D01*
X165445763Y-79662769D01*
X165572752Y-79679487D01*
X165589471Y-79681689D01*
X165589472Y-79681689D01*
X165589473Y-79681689D01*
X165604449Y-79679717D01*
X165733181Y-79662769D01*
X165867097Y-79607300D01*
X165982093Y-79519060D01*
X166070333Y-79404064D01*
X166125802Y-79270148D01*
X166144722Y-79126439D01*
X166125802Y-78982730D01*
X166070333Y-78848814D01*
X166053159Y-78826432D01*
X177584172Y-78826432D01*
X177584172Y-78826445D01*
X177603336Y-79057736D01*
X177603338Y-79057747D01*
X177660314Y-79282739D01*
X177753547Y-79495287D01*
X177880488Y-79689586D01*
X177880491Y-79689590D01*
X177880493Y-79689592D01*
X178037688Y-79860352D01*
X178037691Y-79860354D01*
X178037694Y-79860357D01*
X178220837Y-80002903D01*
X178220843Y-80002907D01*
X178220846Y-80002909D01*
X178264324Y-80026438D01*
X178405629Y-80102909D01*
X178424969Y-80113375D01*
X178538959Y-80152507D01*
X178644487Y-80188736D01*
X178644489Y-80188736D01*
X178644491Y-80188737D01*
X178873423Y-80226939D01*
X178873424Y-80226939D01*
X179105520Y-80226939D01*
X179105521Y-80226939D01*
X179334453Y-80188737D01*
X179553975Y-80113375D01*
X179758098Y-80002909D01*
X179941256Y-79860352D01*
X180098451Y-79689592D01*
X180225396Y-79495288D01*
X180318629Y-79282739D01*
X180375606Y-79057744D01*
X180375607Y-79057736D01*
X180386487Y-78926432D01*
X182984172Y-78926432D01*
X182984172Y-78926445D01*
X183003336Y-79157736D01*
X183003338Y-79157747D01*
X183060314Y-79382739D01*
X183153547Y-79595287D01*
X183280488Y-79789586D01*
X183280491Y-79789590D01*
X183280493Y-79789592D01*
X183437688Y-79960352D01*
X183437691Y-79960354D01*
X183437694Y-79960357D01*
X183620837Y-80102903D01*
X183620843Y-80102907D01*
X183620846Y-80102909D01*
X183824969Y-80213375D01*
X183864480Y-80226939D01*
X184044487Y-80288736D01*
X184044489Y-80288736D01*
X184044491Y-80288737D01*
X184273423Y-80326939D01*
X184273424Y-80326939D01*
X184505520Y-80326939D01*
X184505521Y-80326939D01*
X184734453Y-80288737D01*
X184953975Y-80213375D01*
X185158098Y-80102909D01*
X185166369Y-80096472D01*
X185256348Y-80026438D01*
X185341256Y-79960352D01*
X185498451Y-79789592D01*
X185625396Y-79595288D01*
X185718629Y-79382739D01*
X185775606Y-79157744D01*
X185790108Y-78982730D01*
X185794772Y-78926445D01*
X185794772Y-78926432D01*
X185775607Y-78695141D01*
X185775605Y-78695130D01*
X185718629Y-78470138D01*
X185625396Y-78257590D01*
X185498455Y-78063291D01*
X185498452Y-78063288D01*
X185498451Y-78063286D01*
X185341256Y-77892526D01*
X185341251Y-77892522D01*
X185341249Y-77892520D01*
X185158106Y-77749974D01*
X185158100Y-77749970D01*
X184953976Y-77639503D01*
X184953967Y-77639500D01*
X184734456Y-77564141D01*
X184562754Y-77535489D01*
X184505521Y-77525939D01*
X184273423Y-77525939D01*
X184227636Y-77533579D01*
X184044487Y-77564141D01*
X183824976Y-77639500D01*
X183824967Y-77639503D01*
X183620843Y-77749970D01*
X183620837Y-77749974D01*
X183437694Y-77892520D01*
X183437691Y-77892523D01*
X183437688Y-77892525D01*
X183437688Y-77892526D01*
X183427067Y-77904064D01*
X183280488Y-78063291D01*
X183153547Y-78257590D01*
X183060314Y-78470138D01*
X183003338Y-78695130D01*
X183003336Y-78695141D01*
X182984172Y-78926432D01*
X180386487Y-78926432D01*
X180394772Y-78826445D01*
X180394772Y-78826432D01*
X180375607Y-78595141D01*
X180375605Y-78595130D01*
X180318629Y-78370138D01*
X180225396Y-78157590D01*
X180098455Y-77963291D01*
X180098452Y-77963288D01*
X180098451Y-77963286D01*
X179941256Y-77792526D01*
X179941251Y-77792522D01*
X179941249Y-77792520D01*
X179758106Y-77649974D01*
X179758100Y-77649970D01*
X179553976Y-77539503D01*
X179553967Y-77539500D01*
X179334456Y-77464141D01*
X179162754Y-77435489D01*
X179105521Y-77425939D01*
X178873423Y-77425939D01*
X178827636Y-77433579D01*
X178644487Y-77464141D01*
X178424976Y-77539500D01*
X178424967Y-77539503D01*
X178220843Y-77649970D01*
X178220837Y-77649974D01*
X178037694Y-77792520D01*
X178037691Y-77792523D01*
X177880488Y-77963291D01*
X177753547Y-78157590D01*
X177660314Y-78370138D01*
X177603338Y-78595130D01*
X177603336Y-78595141D01*
X177584172Y-78826432D01*
X166053159Y-78826432D01*
X165982093Y-78733818D01*
X165867097Y-78645578D01*
X165867096Y-78645577D01*
X165867094Y-78645576D01*
X165733184Y-78590110D01*
X165733182Y-78590109D01*
X165733181Y-78590109D01*
X165661326Y-78580649D01*
X165589473Y-78571189D01*
X165589471Y-78571189D01*
X165445763Y-78590109D01*
X165445759Y-78590110D01*
X165311849Y-78645576D01*
X165196851Y-78733818D01*
X165108609Y-78848816D01*
X165053143Y-78982726D01*
X165053142Y-78982730D01*
X165034222Y-79126438D01*
X80875170Y-79126438D01*
X80840966Y-79057747D01*
X80829460Y-79034639D01*
X80696433Y-78858482D01*
X80696431Y-78858479D01*
X80533301Y-78709768D01*
X80533299Y-78709766D01*
X80345625Y-78593563D01*
X80345619Y-78593560D01*
X80183392Y-78530713D01*
X80139784Y-78513820D01*
X79922800Y-78473259D01*
X79702056Y-78473259D01*
X79485072Y-78513820D01*
X79485069Y-78513820D01*
X79485069Y-78513821D01*
X79279236Y-78593560D01*
X79279230Y-78593563D01*
X79091556Y-78709766D01*
X79091554Y-78709768D01*
X78928424Y-78858479D01*
X78795396Y-79034638D01*
X78697002Y-79232239D01*
X78696999Y-79232245D01*
X78636593Y-79444554D01*
X78636592Y-79444557D01*
X78616225Y-79664358D01*
X76868633Y-79664358D01*
X76868485Y-79662767D01*
X76848265Y-79444557D01*
X76848264Y-79444554D01*
X76848047Y-79443793D01*
X76815737Y-79330232D01*
X76787858Y-79232245D01*
X76787855Y-79232239D01*
X76700968Y-79057747D01*
X76689462Y-79034639D01*
X76556435Y-78858482D01*
X76556433Y-78858479D01*
X76393303Y-78709768D01*
X76393301Y-78709766D01*
X76205627Y-78593563D01*
X76205621Y-78593560D01*
X76043394Y-78530713D01*
X75999786Y-78513820D01*
X75782802Y-78473259D01*
X75562058Y-78473259D01*
X75345074Y-78513820D01*
X75345071Y-78513820D01*
X75345071Y-78513821D01*
X75139238Y-78593560D01*
X75139232Y-78593563D01*
X74951558Y-78709766D01*
X74951556Y-78709768D01*
X74788426Y-78858479D01*
X74655398Y-79034638D01*
X74557004Y-79232239D01*
X74557001Y-79232245D01*
X74496595Y-79444554D01*
X74496594Y-79444557D01*
X74476227Y-79664358D01*
X70488729Y-79664358D01*
X70488729Y-79523026D01*
X70451834Y-79242781D01*
X70378676Y-78969750D01*
X70270506Y-78708603D01*
X70270504Y-78708600D01*
X70270502Y-78708595D01*
X70129178Y-78463817D01*
X70129174Y-78463810D01*
X69957100Y-78239559D01*
X69957095Y-78239553D01*
X69757232Y-78039690D01*
X69757225Y-78039684D01*
X69532984Y-77867618D01*
X69532982Y-77867616D01*
X69532976Y-77867612D01*
X69532971Y-77867609D01*
X69532968Y-77867607D01*
X69288190Y-77726283D01*
X69288179Y-77726278D01*
X69047146Y-77626439D01*
X95334222Y-77626439D01*
X95350485Y-77749970D01*
X95353142Y-77770147D01*
X95353143Y-77770151D01*
X95408609Y-77904061D01*
X95408610Y-77904063D01*
X95408611Y-77904064D01*
X95496851Y-78019060D01*
X95611847Y-78107300D01*
X95745763Y-78162769D01*
X95872752Y-78179487D01*
X95889471Y-78181689D01*
X95889472Y-78181689D01*
X95889473Y-78181689D01*
X95904449Y-78179717D01*
X96033181Y-78162769D01*
X96167097Y-78107300D01*
X96282093Y-78019060D01*
X96370333Y-77904064D01*
X96425802Y-77770148D01*
X96444722Y-77626439D01*
X96443625Y-77618110D01*
X96435255Y-77554532D01*
X96425802Y-77482730D01*
X96370333Y-77348814D01*
X96315156Y-77276906D01*
X133221657Y-77276906D01*
X133221657Y-77276907D01*
X133240577Y-77420615D01*
X133240578Y-77420619D01*
X133296044Y-77554529D01*
X133296045Y-77554531D01*
X133296046Y-77554532D01*
X133384286Y-77669528D01*
X133499282Y-77757768D01*
X133633198Y-77813237D01*
X133760187Y-77829955D01*
X133776906Y-77832157D01*
X133776907Y-77832157D01*
X133776908Y-77832157D01*
X133791884Y-77830185D01*
X133920616Y-77813237D01*
X134054532Y-77757768D01*
X134169528Y-77669528D01*
X134257768Y-77554532D01*
X134313237Y-77420616D01*
X134332157Y-77276907D01*
X134313237Y-77133198D01*
X134257768Y-76999282D01*
X134169528Y-76884286D01*
X134054532Y-76796046D01*
X134054531Y-76796045D01*
X134054529Y-76796044D01*
X133920619Y-76740578D01*
X133920617Y-76740577D01*
X133920616Y-76740577D01*
X133848761Y-76731117D01*
X133776908Y-76721657D01*
X133776906Y-76721657D01*
X133633198Y-76740577D01*
X133633194Y-76740578D01*
X133499284Y-76796044D01*
X133384286Y-76884286D01*
X133296044Y-76999284D01*
X133240578Y-77133194D01*
X133240577Y-77133198D01*
X133221657Y-77276906D01*
X96315156Y-77276906D01*
X96282093Y-77233818D01*
X96167097Y-77145578D01*
X96167096Y-77145577D01*
X96167094Y-77145576D01*
X96033184Y-77090110D01*
X96033182Y-77090109D01*
X96033181Y-77090109D01*
X95961326Y-77080649D01*
X95889473Y-77071189D01*
X95889471Y-77071189D01*
X95745763Y-77090109D01*
X95745759Y-77090110D01*
X95611849Y-77145576D01*
X95496851Y-77233818D01*
X95408609Y-77348816D01*
X95353143Y-77482726D01*
X95353142Y-77482730D01*
X95335319Y-77618110D01*
X95334222Y-77626439D01*
X69047146Y-77626439D01*
X69027045Y-77618113D01*
X69027038Y-77618111D01*
X69027036Y-77618110D01*
X68754005Y-77544952D01*
X68753999Y-77544951D01*
X68753994Y-77544950D01*
X68473769Y-77508058D01*
X68473766Y-77508057D01*
X68473760Y-77508057D01*
X68191098Y-77508057D01*
X68191092Y-77508057D01*
X68191088Y-77508058D01*
X67910863Y-77544950D01*
X67910856Y-77544951D01*
X67910853Y-77544952D01*
X67637822Y-77618110D01*
X67637812Y-77618113D01*
X67376678Y-77726278D01*
X67376667Y-77726283D01*
X67131889Y-77867607D01*
X67131873Y-77867618D01*
X66907632Y-78039684D01*
X66907625Y-78039690D01*
X66707762Y-78239553D01*
X66707756Y-78239560D01*
X66535690Y-78463801D01*
X66535679Y-78463817D01*
X66394355Y-78708595D01*
X66394350Y-78708606D01*
X66286185Y-78969740D01*
X66286182Y-78969750D01*
X66235810Y-79157744D01*
X66213025Y-79242778D01*
X66213022Y-79242791D01*
X66176130Y-79523016D01*
X66176129Y-79523032D01*
X65200500Y-79523032D01*
X65200500Y-75524359D01*
X74476227Y-75524359D01*
X74476227Y-75524360D01*
X74496594Y-75744161D01*
X74496595Y-75744164D01*
X74557001Y-75956473D01*
X74557004Y-75956479D01*
X74655398Y-76154080D01*
X74788426Y-76330239D01*
X74951556Y-76478950D01*
X74951558Y-76478952D01*
X75139232Y-76595155D01*
X75139238Y-76595158D01*
X75182844Y-76612050D01*
X75345074Y-76674899D01*
X75562058Y-76715460D01*
X75562060Y-76715460D01*
X75782800Y-76715460D01*
X75782802Y-76715460D01*
X75999786Y-76674899D01*
X76205624Y-76595157D01*
X76393303Y-76478951D01*
X76556435Y-76330237D01*
X76689462Y-76154080D01*
X76787856Y-75956478D01*
X76787856Y-75956475D01*
X76787858Y-75956473D01*
X76848264Y-75744164D01*
X76848265Y-75744161D01*
X76868633Y-75524360D01*
X76868633Y-75524359D01*
X78616225Y-75524359D01*
X78616225Y-75524360D01*
X78636592Y-75744161D01*
X78636593Y-75744164D01*
X78696999Y-75956473D01*
X78697002Y-75956479D01*
X78795396Y-76154080D01*
X78928424Y-76330239D01*
X79091554Y-76478950D01*
X79091556Y-76478952D01*
X79279230Y-76595155D01*
X79279236Y-76595158D01*
X79322842Y-76612050D01*
X79485072Y-76674899D01*
X79702056Y-76715460D01*
X79702058Y-76715460D01*
X79922798Y-76715460D01*
X79922800Y-76715460D01*
X80139784Y-76674899D01*
X80345622Y-76595157D01*
X80533301Y-76478951D01*
X80696433Y-76330237D01*
X80829460Y-76154080D01*
X80927854Y-75956478D01*
X80927854Y-75956475D01*
X80927856Y-75956473D01*
X80988262Y-75744164D01*
X80988263Y-75744161D01*
X81008631Y-75524360D01*
X81008631Y-75524359D01*
X80988263Y-75304558D01*
X80988262Y-75304555D01*
X80937585Y-75126439D01*
X95334222Y-75126439D01*
X95343173Y-75194431D01*
X95353142Y-75270147D01*
X95353143Y-75270151D01*
X95408609Y-75404061D01*
X95408610Y-75404063D01*
X95408611Y-75404064D01*
X95496851Y-75519060D01*
X95611847Y-75607300D01*
X95745763Y-75662769D01*
X95872752Y-75679487D01*
X95889471Y-75681689D01*
X95889472Y-75681689D01*
X95889473Y-75681689D01*
X95904449Y-75679717D01*
X96033181Y-75662769D01*
X96062258Y-75650725D01*
X112234959Y-75650725D01*
X112234959Y-75650738D01*
X112254123Y-75882029D01*
X112254125Y-75882040D01*
X112311101Y-76107032D01*
X112404334Y-76319580D01*
X112531275Y-76513879D01*
X112531278Y-76513883D01*
X112531280Y-76513885D01*
X112688475Y-76684645D01*
X112688478Y-76684647D01*
X112688481Y-76684650D01*
X112871624Y-76827196D01*
X112871630Y-76827200D01*
X112871633Y-76827202D01*
X113075756Y-76937668D01*
X113189746Y-76976800D01*
X113295274Y-77013029D01*
X113295276Y-77013029D01*
X113295278Y-77013030D01*
X113524210Y-77051232D01*
X113524211Y-77051232D01*
X113756307Y-77051232D01*
X113756308Y-77051232D01*
X113985240Y-77013030D01*
X114204762Y-76937668D01*
X114408885Y-76827202D01*
X114592043Y-76684645D01*
X114749238Y-76513885D01*
X114876183Y-76319581D01*
X114969416Y-76107032D01*
X115026393Y-75882037D01*
X115026394Y-75882029D01*
X115045559Y-75650738D01*
X115045559Y-75650725D01*
X115026394Y-75419434D01*
X115026392Y-75419423D01*
X114969416Y-75194431D01*
X114876183Y-74981883D01*
X114749242Y-74787584D01*
X114749239Y-74787581D01*
X114749238Y-74787579D01*
X114592043Y-74616819D01*
X114592038Y-74616815D01*
X114592036Y-74616813D01*
X114408893Y-74474267D01*
X114408887Y-74474263D01*
X114204763Y-74363796D01*
X114204754Y-74363793D01*
X113985243Y-74288434D01*
X113813541Y-74259782D01*
X113756308Y-74250232D01*
X113524210Y-74250232D01*
X113478423Y-74257872D01*
X113295274Y-74288434D01*
X113075763Y-74363793D01*
X113075754Y-74363796D01*
X112871630Y-74474263D01*
X112871624Y-74474267D01*
X112688481Y-74616813D01*
X112688478Y-74616816D01*
X112688475Y-74616818D01*
X112688475Y-74616819D01*
X112662001Y-74645578D01*
X112531275Y-74787584D01*
X112404334Y-74981883D01*
X112311101Y-75194431D01*
X112254125Y-75419423D01*
X112254123Y-75419434D01*
X112234959Y-75650725D01*
X96062258Y-75650725D01*
X96167097Y-75607300D01*
X96282093Y-75519060D01*
X96370333Y-75404064D01*
X96425802Y-75270148D01*
X96444722Y-75126439D01*
X96425802Y-74982730D01*
X96370333Y-74848814D01*
X96282093Y-74733818D01*
X96167097Y-74645578D01*
X96167096Y-74645577D01*
X96167094Y-74645576D01*
X96033184Y-74590110D01*
X96033182Y-74590109D01*
X96033181Y-74590109D01*
X95961326Y-74580649D01*
X95889473Y-74571189D01*
X95889471Y-74571189D01*
X95745763Y-74590109D01*
X95745759Y-74590110D01*
X95611849Y-74645576D01*
X95496851Y-74733818D01*
X95408609Y-74848816D01*
X95353143Y-74982726D01*
X95353142Y-74982730D01*
X95334222Y-75126439D01*
X80937585Y-75126439D01*
X80927856Y-75092246D01*
X80927853Y-75092240D01*
X80876737Y-74989586D01*
X80829460Y-74894640D01*
X80748612Y-74787579D01*
X80696431Y-74718480D01*
X80533301Y-74569769D01*
X80533299Y-74569767D01*
X80345625Y-74453564D01*
X80345619Y-74453561D01*
X80183392Y-74390714D01*
X80139784Y-74373821D01*
X79922800Y-74333260D01*
X79702056Y-74333260D01*
X79485072Y-74373821D01*
X79485069Y-74373821D01*
X79485069Y-74373822D01*
X79279236Y-74453561D01*
X79279230Y-74453564D01*
X79091556Y-74569767D01*
X79091554Y-74569769D01*
X78928424Y-74718480D01*
X78795396Y-74894639D01*
X78697002Y-75092240D01*
X78696999Y-75092246D01*
X78636593Y-75304555D01*
X78636592Y-75304558D01*
X78616225Y-75524359D01*
X76868633Y-75524359D01*
X76848265Y-75304558D01*
X76848264Y-75304555D01*
X76787858Y-75092246D01*
X76787855Y-75092240D01*
X76736739Y-74989586D01*
X76689462Y-74894640D01*
X76608614Y-74787579D01*
X76556433Y-74718480D01*
X76393303Y-74569769D01*
X76393301Y-74569767D01*
X76205627Y-74453564D01*
X76205621Y-74453561D01*
X76043394Y-74390714D01*
X75999786Y-74373821D01*
X75782802Y-74333260D01*
X75562058Y-74333260D01*
X75345074Y-74373821D01*
X75345071Y-74373821D01*
X75345071Y-74373822D01*
X75139238Y-74453561D01*
X75139232Y-74453564D01*
X74951558Y-74569767D01*
X74951556Y-74569769D01*
X74788426Y-74718480D01*
X74655398Y-74894639D01*
X74557004Y-75092240D01*
X74557001Y-75092246D01*
X74496595Y-75304555D01*
X74496594Y-75304558D01*
X74476227Y-75524359D01*
X65200500Y-75524359D01*
X65200500Y-74126432D01*
X172984172Y-74126432D01*
X172984172Y-74126445D01*
X173003336Y-74357736D01*
X173003338Y-74357747D01*
X173060314Y-74582739D01*
X173153547Y-74795287D01*
X173280488Y-74989586D01*
X173280491Y-74989590D01*
X173280493Y-74989592D01*
X173437688Y-75160352D01*
X173437691Y-75160354D01*
X173437694Y-75160357D01*
X173620837Y-75302903D01*
X173620843Y-75302907D01*
X173620846Y-75302909D01*
X173824969Y-75413375D01*
X173938959Y-75452507D01*
X174044487Y-75488736D01*
X174044489Y-75488736D01*
X174044491Y-75488737D01*
X174273423Y-75526939D01*
X174273424Y-75526939D01*
X174505520Y-75526939D01*
X174505521Y-75526939D01*
X174734453Y-75488737D01*
X174953975Y-75413375D01*
X175158098Y-75302909D01*
X175341256Y-75160352D01*
X175498451Y-74989592D01*
X175625396Y-74795288D01*
X175718629Y-74582739D01*
X175775606Y-74357744D01*
X175781349Y-74288434D01*
X175794772Y-74126445D01*
X175794772Y-74126432D01*
X175775607Y-73895141D01*
X175775605Y-73895130D01*
X175718629Y-73670138D01*
X175625396Y-73457590D01*
X175498455Y-73263291D01*
X175498452Y-73263288D01*
X175498451Y-73263286D01*
X175341256Y-73092526D01*
X175341251Y-73092522D01*
X175341249Y-73092520D01*
X175158106Y-72949974D01*
X175158100Y-72949970D01*
X174953976Y-72839503D01*
X174953967Y-72839500D01*
X174734456Y-72764141D01*
X174562754Y-72735489D01*
X174505521Y-72725939D01*
X174273423Y-72725939D01*
X174227636Y-72733579D01*
X174044487Y-72764141D01*
X173824976Y-72839500D01*
X173824967Y-72839503D01*
X173620843Y-72949970D01*
X173620837Y-72949974D01*
X173437694Y-73092520D01*
X173437691Y-73092523D01*
X173280488Y-73263291D01*
X173153547Y-73457590D01*
X173060314Y-73670138D01*
X173003338Y-73895130D01*
X173003336Y-73895141D01*
X172984172Y-74126432D01*
X65200500Y-74126432D01*
X65200500Y-71384355D01*
X74176721Y-71384355D01*
X74176721Y-71384366D01*
X74197120Y-71630543D01*
X74257762Y-71870015D01*
X74356991Y-72096236D01*
X74455785Y-72247452D01*
X75005107Y-71698129D01*
X75019664Y-71733272D01*
X75100275Y-71853916D01*
X75202875Y-71956516D01*
X75323519Y-72037127D01*
X75358660Y-72051683D01*
X74809071Y-72601271D01*
X74854358Y-72636520D01*
X74854360Y-72636521D01*
X75071604Y-72754087D01*
X75071618Y-72754093D01*
X75305252Y-72834301D01*
X75548915Y-72874961D01*
X75795945Y-72874961D01*
X76039607Y-72834301D01*
X76273241Y-72754093D01*
X76273255Y-72754087D01*
X76490501Y-72636520D01*
X76490506Y-72636516D01*
X76535787Y-72601272D01*
X76535788Y-72601271D01*
X76534517Y-72600000D01*
X95344750Y-72600000D01*
X95361330Y-72725939D01*
X95363670Y-72743708D01*
X95363671Y-72743712D01*
X95419137Y-72877622D01*
X95419138Y-72877624D01*
X95419139Y-72877625D01*
X95507379Y-72992621D01*
X95622375Y-73080861D01*
X95756291Y-73136330D01*
X95883280Y-73153048D01*
X95899999Y-73155250D01*
X95900000Y-73155250D01*
X95900001Y-73155250D01*
X95914977Y-73153278D01*
X96043709Y-73136330D01*
X96177625Y-73080861D01*
X96292621Y-72992621D01*
X96380861Y-72877625D01*
X96436330Y-72743709D01*
X96455250Y-72600000D01*
X96436330Y-72456291D01*
X96403812Y-72377785D01*
X133122536Y-72377785D01*
X133122536Y-72377786D01*
X133141456Y-72521494D01*
X133141457Y-72521498D01*
X133196923Y-72655408D01*
X133196924Y-72655410D01*
X133196925Y-72655411D01*
X133285165Y-72770407D01*
X133400161Y-72858647D01*
X133534077Y-72914116D01*
X133661066Y-72930834D01*
X133677785Y-72933036D01*
X133677786Y-72933036D01*
X133677787Y-72933036D01*
X133692763Y-72931064D01*
X133821495Y-72914116D01*
X133955411Y-72858647D01*
X134070407Y-72770407D01*
X134158647Y-72655411D01*
X134170650Y-72626432D01*
X160984172Y-72626432D01*
X160984172Y-72626445D01*
X161003336Y-72857736D01*
X161003338Y-72857747D01*
X161060314Y-73082739D01*
X161153547Y-73295287D01*
X161280488Y-73489586D01*
X161280491Y-73489590D01*
X161280493Y-73489592D01*
X161437688Y-73660352D01*
X161437691Y-73660354D01*
X161437694Y-73660357D01*
X161620837Y-73802903D01*
X161620843Y-73802907D01*
X161620846Y-73802909D01*
X161824969Y-73913375D01*
X161938959Y-73952507D01*
X162044487Y-73988736D01*
X162044489Y-73988736D01*
X162044491Y-73988737D01*
X162273423Y-74026939D01*
X162273424Y-74026939D01*
X162505520Y-74026939D01*
X162505521Y-74026939D01*
X162734453Y-73988737D01*
X162953975Y-73913375D01*
X163158098Y-73802909D01*
X163341256Y-73660352D01*
X163498451Y-73489592D01*
X163625396Y-73295288D01*
X163718629Y-73082739D01*
X163775606Y-72857744D01*
X163775607Y-72857736D01*
X163794772Y-72626445D01*
X163794772Y-72626432D01*
X164984172Y-72626432D01*
X164984172Y-72626445D01*
X165003336Y-72857736D01*
X165003338Y-72857747D01*
X165060314Y-73082739D01*
X165153547Y-73295287D01*
X165280488Y-73489586D01*
X165280491Y-73489590D01*
X165280493Y-73489592D01*
X165437688Y-73660352D01*
X165437691Y-73660354D01*
X165437694Y-73660357D01*
X165620837Y-73802903D01*
X165620843Y-73802907D01*
X165620846Y-73802909D01*
X165824969Y-73913375D01*
X165938959Y-73952507D01*
X166044487Y-73988736D01*
X166044489Y-73988736D01*
X166044491Y-73988737D01*
X166273423Y-74026939D01*
X166273424Y-74026939D01*
X166505520Y-74026939D01*
X166505521Y-74026939D01*
X166734453Y-73988737D01*
X166953975Y-73913375D01*
X167158098Y-73802909D01*
X167341256Y-73660352D01*
X167498451Y-73489592D01*
X167625396Y-73295288D01*
X167718629Y-73082739D01*
X167775606Y-72857744D01*
X167775607Y-72857736D01*
X167794772Y-72626445D01*
X167794772Y-72626432D01*
X167775607Y-72395141D01*
X167775605Y-72395130D01*
X167718629Y-72170138D01*
X167625396Y-71957590D01*
X167498455Y-71763291D01*
X167498452Y-71763288D01*
X167498451Y-71763286D01*
X167341256Y-71592526D01*
X167341251Y-71592522D01*
X167341249Y-71592520D01*
X167158106Y-71449974D01*
X167158100Y-71449970D01*
X166953976Y-71339503D01*
X166953967Y-71339500D01*
X166734456Y-71264141D01*
X166562754Y-71235489D01*
X166505521Y-71225939D01*
X166273423Y-71225939D01*
X166227636Y-71233579D01*
X166044487Y-71264141D01*
X165824976Y-71339500D01*
X165824967Y-71339503D01*
X165620843Y-71449970D01*
X165620837Y-71449974D01*
X165437694Y-71592520D01*
X165437691Y-71592523D01*
X165437688Y-71592525D01*
X165437688Y-71592526D01*
X165426974Y-71604165D01*
X165280488Y-71763291D01*
X165153547Y-71957590D01*
X165060314Y-72170138D01*
X165003338Y-72395130D01*
X165003336Y-72395141D01*
X164984172Y-72626432D01*
X163794772Y-72626432D01*
X163775607Y-72395141D01*
X163775605Y-72395130D01*
X163718629Y-72170138D01*
X163625396Y-71957590D01*
X163498455Y-71763291D01*
X163498452Y-71763288D01*
X163498451Y-71763286D01*
X163341256Y-71592526D01*
X163341251Y-71592522D01*
X163341249Y-71592520D01*
X163158106Y-71449974D01*
X163158100Y-71449970D01*
X162953976Y-71339503D01*
X162953967Y-71339500D01*
X162734456Y-71264141D01*
X162562754Y-71235489D01*
X162505521Y-71225939D01*
X162273423Y-71225939D01*
X162227636Y-71233579D01*
X162044487Y-71264141D01*
X161824976Y-71339500D01*
X161824967Y-71339503D01*
X161620843Y-71449970D01*
X161620837Y-71449974D01*
X161437694Y-71592520D01*
X161437691Y-71592523D01*
X161437688Y-71592525D01*
X161437688Y-71592526D01*
X161426974Y-71604165D01*
X161280488Y-71763291D01*
X161153547Y-71957590D01*
X161060314Y-72170138D01*
X161003338Y-72395130D01*
X161003336Y-72395141D01*
X160984172Y-72626432D01*
X134170650Y-72626432D01*
X134214116Y-72521495D01*
X134233036Y-72377786D01*
X134214116Y-72234077D01*
X134158647Y-72100161D01*
X134070407Y-71985165D01*
X133955411Y-71896925D01*
X133955410Y-71896924D01*
X133955408Y-71896923D01*
X133821498Y-71841457D01*
X133821496Y-71841456D01*
X133821495Y-71841456D01*
X133749640Y-71831996D01*
X133677787Y-71822536D01*
X133677785Y-71822536D01*
X133534077Y-71841456D01*
X133534073Y-71841457D01*
X133400163Y-71896923D01*
X133285165Y-71985165D01*
X133196923Y-72100163D01*
X133141457Y-72234073D01*
X133141456Y-72234077D01*
X133122536Y-72377785D01*
X96403812Y-72377785D01*
X96380861Y-72322375D01*
X96292621Y-72207379D01*
X96177625Y-72119139D01*
X96177624Y-72119138D01*
X96177622Y-72119137D01*
X96043712Y-72063671D01*
X96043710Y-72063670D01*
X96043709Y-72063670D01*
X95971854Y-72054210D01*
X95900001Y-72044750D01*
X95899999Y-72044750D01*
X95756291Y-72063670D01*
X95756287Y-72063671D01*
X95622377Y-72119137D01*
X95507379Y-72207379D01*
X95419137Y-72322377D01*
X95363671Y-72456287D01*
X95363670Y-72456291D01*
X95344750Y-72600000D01*
X76534517Y-72600000D01*
X75986199Y-72051683D01*
X76021341Y-72037127D01*
X76141985Y-71956516D01*
X76244585Y-71853916D01*
X76325196Y-71733272D01*
X76339752Y-71698130D01*
X76889073Y-72247452D01*
X76987866Y-72096241D01*
X77087097Y-71870015D01*
X77147739Y-71630543D01*
X77168139Y-71384366D01*
X77168139Y-71384360D01*
X78616225Y-71384360D01*
X78616225Y-71384361D01*
X78636592Y-71604162D01*
X78636593Y-71604165D01*
X78696999Y-71816474D01*
X78697002Y-71816480D01*
X78795396Y-72014081D01*
X78928424Y-72190240D01*
X79091554Y-72338951D01*
X79091556Y-72338953D01*
X79279230Y-72455156D01*
X79279236Y-72455159D01*
X79322842Y-72472051D01*
X79485072Y-72534900D01*
X79702056Y-72575461D01*
X79702058Y-72575461D01*
X79922798Y-72575461D01*
X79922800Y-72575461D01*
X80139784Y-72534900D01*
X80345622Y-72455158D01*
X80533301Y-72338952D01*
X80696433Y-72190238D01*
X80829460Y-72014081D01*
X80927854Y-71816479D01*
X80927854Y-71816476D01*
X80927856Y-71816474D01*
X80988125Y-71604647D01*
X80988263Y-71604163D01*
X81008631Y-71384361D01*
X81008630Y-71384355D01*
X80988263Y-71164559D01*
X80988262Y-71164556D01*
X80927856Y-70952247D01*
X80927853Y-70952241D01*
X80858124Y-70812206D01*
X80829460Y-70754641D01*
X80696433Y-70578484D01*
X80696431Y-70578481D01*
X80687923Y-70570725D01*
X112234959Y-70570725D01*
X112234959Y-70570738D01*
X112254123Y-70802029D01*
X112254125Y-70802040D01*
X112311101Y-71027032D01*
X112404334Y-71239580D01*
X112531275Y-71433879D01*
X112531278Y-71433883D01*
X112531280Y-71433885D01*
X112688475Y-71604645D01*
X112688478Y-71604647D01*
X112688481Y-71604650D01*
X112871624Y-71747196D01*
X112871630Y-71747200D01*
X112871633Y-71747202D01*
X113075756Y-71857668D01*
X113111722Y-71870015D01*
X113295274Y-71933029D01*
X113295276Y-71933029D01*
X113295278Y-71933030D01*
X113524210Y-71971232D01*
X113524211Y-71971232D01*
X113756307Y-71971232D01*
X113756308Y-71971232D01*
X113985240Y-71933030D01*
X114204762Y-71857668D01*
X114408885Y-71747202D01*
X114420819Y-71737914D01*
X114558769Y-71630543D01*
X114592043Y-71604645D01*
X114749238Y-71433885D01*
X114876183Y-71239581D01*
X114969416Y-71027032D01*
X115026393Y-70802037D01*
X115026394Y-70802029D01*
X115045559Y-70570738D01*
X115045559Y-70570725D01*
X115026394Y-70339434D01*
X115026392Y-70339423D01*
X114969416Y-70114431D01*
X114876183Y-69901883D01*
X114749242Y-69707584D01*
X114749239Y-69707581D01*
X114749238Y-69707579D01*
X114592043Y-69536819D01*
X114592038Y-69536815D01*
X114592036Y-69536813D01*
X114408893Y-69394267D01*
X114408887Y-69394263D01*
X114204763Y-69283796D01*
X114204754Y-69283793D01*
X113985243Y-69208434D01*
X113813541Y-69179782D01*
X113756308Y-69170232D01*
X113524210Y-69170232D01*
X113478423Y-69177872D01*
X113295274Y-69208434D01*
X113075763Y-69283793D01*
X113075754Y-69283796D01*
X112871630Y-69394263D01*
X112871624Y-69394267D01*
X112688481Y-69536813D01*
X112688478Y-69536816D01*
X112531275Y-69707584D01*
X112404334Y-69901883D01*
X112311101Y-70114431D01*
X112254125Y-70339423D01*
X112254123Y-70339434D01*
X112234959Y-70570725D01*
X80687923Y-70570725D01*
X80533301Y-70429770D01*
X80533299Y-70429768D01*
X80345625Y-70313565D01*
X80345619Y-70313562D01*
X80183392Y-70250715D01*
X80139784Y-70233822D01*
X79922800Y-70193261D01*
X79702056Y-70193261D01*
X79485072Y-70233822D01*
X79485069Y-70233822D01*
X79485069Y-70233823D01*
X79279236Y-70313562D01*
X79279230Y-70313565D01*
X79091556Y-70429768D01*
X79091554Y-70429770D01*
X78928424Y-70578481D01*
X78795396Y-70754640D01*
X78697002Y-70952241D01*
X78696999Y-70952247D01*
X78636593Y-71164556D01*
X78636592Y-71164559D01*
X78616225Y-71384360D01*
X77168139Y-71384360D01*
X77168139Y-71384355D01*
X77147739Y-71138178D01*
X77087097Y-70898706D01*
X76987866Y-70672480D01*
X76889073Y-70521268D01*
X76339751Y-71070590D01*
X76325196Y-71035450D01*
X76244585Y-70914806D01*
X76141985Y-70812206D01*
X76021341Y-70731595D01*
X75986197Y-70717038D01*
X76535787Y-70167449D01*
X76535787Y-70167447D01*
X76490513Y-70132209D01*
X76490502Y-70132202D01*
X76273255Y-70014634D01*
X76273241Y-70014628D01*
X76039607Y-69934420D01*
X75795945Y-69893761D01*
X75548915Y-69893761D01*
X75305252Y-69934420D01*
X75071618Y-70014628D01*
X75071604Y-70014634D01*
X74854359Y-70132201D01*
X74809070Y-70167449D01*
X75358660Y-70717038D01*
X75323519Y-70731595D01*
X75202875Y-70812206D01*
X75100275Y-70914806D01*
X75019664Y-71035450D01*
X75005107Y-71070591D01*
X74455785Y-70521268D01*
X74356992Y-70672482D01*
X74257762Y-70898706D01*
X74197120Y-71138178D01*
X74176721Y-71384355D01*
X65200500Y-71384355D01*
X65200500Y-67826432D01*
X167384172Y-67826432D01*
X167384172Y-67826445D01*
X167403336Y-68057736D01*
X167403338Y-68057747D01*
X167460314Y-68282739D01*
X167553547Y-68495287D01*
X167680488Y-68689586D01*
X167680491Y-68689590D01*
X167680493Y-68689592D01*
X167837688Y-68860352D01*
X167837691Y-68860354D01*
X167837694Y-68860357D01*
X168020837Y-69002903D01*
X168020843Y-69002907D01*
X168020846Y-69002909D01*
X168224969Y-69113375D01*
X168338959Y-69152507D01*
X168444487Y-69188736D01*
X168444489Y-69188736D01*
X168444491Y-69188737D01*
X168673423Y-69226939D01*
X168673424Y-69226939D01*
X168905520Y-69226939D01*
X168905521Y-69226939D01*
X169134453Y-69188737D01*
X169353975Y-69113375D01*
X169558098Y-69002909D01*
X169741256Y-68860352D01*
X169898451Y-68689592D01*
X170025396Y-68495288D01*
X170118629Y-68282739D01*
X170175606Y-68057744D01*
X170194772Y-67826439D01*
X170194772Y-67826432D01*
X170175607Y-67595141D01*
X170175605Y-67595130D01*
X170118629Y-67370138D01*
X170025396Y-67157590D01*
X169898455Y-66963291D01*
X169898452Y-66963288D01*
X169898451Y-66963286D01*
X169741256Y-66792526D01*
X169741251Y-66792522D01*
X169741249Y-66792520D01*
X169558106Y-66649974D01*
X169558100Y-66649970D01*
X169353976Y-66539503D01*
X169353967Y-66539500D01*
X169134456Y-66464141D01*
X168962754Y-66435489D01*
X168905521Y-66425939D01*
X168673423Y-66425939D01*
X168627636Y-66433579D01*
X168444487Y-66464141D01*
X168224976Y-66539500D01*
X168224967Y-66539503D01*
X168020843Y-66649970D01*
X168020837Y-66649974D01*
X167837694Y-66792520D01*
X167837691Y-66792523D01*
X167680488Y-66963291D01*
X167553547Y-67157590D01*
X167460314Y-67370138D01*
X167403338Y-67595130D01*
X167403336Y-67595141D01*
X167384172Y-67826432D01*
X65200500Y-67826432D01*
X65200500Y-67101984D01*
X133046735Y-67101984D01*
X133046735Y-67101985D01*
X133065655Y-67245693D01*
X133065656Y-67245697D01*
X133121122Y-67379607D01*
X133121123Y-67379609D01*
X133121124Y-67379610D01*
X133209364Y-67494606D01*
X133324360Y-67582846D01*
X133458276Y-67638315D01*
X133585265Y-67655033D01*
X133601984Y-67657235D01*
X133601985Y-67657235D01*
X133601986Y-67657235D01*
X133616962Y-67655263D01*
X133745694Y-67638315D01*
X133879610Y-67582846D01*
X133994606Y-67494606D01*
X134082846Y-67379610D01*
X134138315Y-67245694D01*
X134157235Y-67101985D01*
X134138315Y-66958276D01*
X134082846Y-66824360D01*
X133994606Y-66709364D01*
X133879610Y-66621124D01*
X133879609Y-66621123D01*
X133879607Y-66621122D01*
X133745697Y-66565656D01*
X133745695Y-66565655D01*
X133745694Y-66565655D01*
X133673839Y-66556195D01*
X133601986Y-66546735D01*
X133601984Y-66546735D01*
X133458276Y-66565655D01*
X133458272Y-66565656D01*
X133324362Y-66621122D01*
X133209364Y-66709364D01*
X133121122Y-66824362D01*
X133065656Y-66958272D01*
X133065655Y-66958276D01*
X133046735Y-67101984D01*
X65200500Y-67101984D01*
X65200500Y-65490725D01*
X112234959Y-65490725D01*
X112234959Y-65490738D01*
X112254123Y-65722029D01*
X112254125Y-65722040D01*
X112311101Y-65947032D01*
X112404334Y-66159580D01*
X112531275Y-66353879D01*
X112531278Y-66353883D01*
X112531280Y-66353885D01*
X112688475Y-66524645D01*
X112688478Y-66524647D01*
X112688481Y-66524650D01*
X112871624Y-66667196D01*
X112871630Y-66667200D01*
X112871633Y-66667202D01*
X113075756Y-66777668D01*
X113189746Y-66816800D01*
X113295274Y-66853029D01*
X113295276Y-66853029D01*
X113295278Y-66853030D01*
X113524210Y-66891232D01*
X113524211Y-66891232D01*
X113756307Y-66891232D01*
X113756308Y-66891232D01*
X113985240Y-66853030D01*
X114204762Y-66777668D01*
X114408885Y-66667202D01*
X114592043Y-66524645D01*
X114749238Y-66353885D01*
X114876183Y-66159581D01*
X114969416Y-65947032D01*
X115026393Y-65722037D01*
X115026394Y-65722029D01*
X115045559Y-65490738D01*
X115045559Y-65490725D01*
X115026394Y-65259434D01*
X115026392Y-65259423D01*
X114969416Y-65034431D01*
X114954310Y-64999993D01*
X173344700Y-64999993D01*
X173344700Y-65000006D01*
X173363864Y-65231297D01*
X173363866Y-65231308D01*
X173420842Y-65456300D01*
X173514075Y-65668848D01*
X173641016Y-65863147D01*
X173641019Y-65863151D01*
X173641021Y-65863153D01*
X173798216Y-66033913D01*
X173798219Y-66033915D01*
X173798222Y-66033918D01*
X173981365Y-66176464D01*
X173981371Y-66176468D01*
X173981374Y-66176470D01*
X174185497Y-66286936D01*
X174299487Y-66326068D01*
X174405015Y-66362297D01*
X174405017Y-66362297D01*
X174405019Y-66362298D01*
X174633951Y-66400500D01*
X174633952Y-66400500D01*
X174866048Y-66400500D01*
X174866049Y-66400500D01*
X175094981Y-66362298D01*
X175314503Y-66286936D01*
X175518626Y-66176470D01*
X175540327Y-66159580D01*
X175580129Y-66128600D01*
X175701784Y-66033913D01*
X175858979Y-65863153D01*
X175985924Y-65668849D01*
X176079157Y-65456300D01*
X176136134Y-65231305D01*
X176152447Y-65034432D01*
X176155300Y-65000006D01*
X176155300Y-64999993D01*
X176136135Y-64768702D01*
X176136133Y-64768691D01*
X176079157Y-64543699D01*
X175985924Y-64331151D01*
X175858983Y-64136852D01*
X175858980Y-64136849D01*
X175858979Y-64136847D01*
X175701784Y-63966087D01*
X175701779Y-63966083D01*
X175701777Y-63966081D01*
X175518634Y-63823535D01*
X175518628Y-63823531D01*
X175314504Y-63713064D01*
X175314495Y-63713061D01*
X175094984Y-63637702D01*
X174923282Y-63609050D01*
X174866049Y-63599500D01*
X174633951Y-63599500D01*
X174588164Y-63607140D01*
X174405015Y-63637702D01*
X174185504Y-63713061D01*
X174185495Y-63713064D01*
X173981371Y-63823531D01*
X173981365Y-63823535D01*
X173798222Y-63966081D01*
X173798219Y-63966084D01*
X173641016Y-64136852D01*
X173514075Y-64331151D01*
X173420842Y-64543699D01*
X173363866Y-64768691D01*
X173363864Y-64768702D01*
X173344700Y-64999993D01*
X114954310Y-64999993D01*
X114876183Y-64821883D01*
X114749242Y-64627584D01*
X114749239Y-64627581D01*
X114749238Y-64627579D01*
X114592043Y-64456819D01*
X114592038Y-64456815D01*
X114592036Y-64456813D01*
X114408893Y-64314267D01*
X114408887Y-64314263D01*
X114204763Y-64203796D01*
X114204754Y-64203793D01*
X113985243Y-64128434D01*
X113813541Y-64099782D01*
X113756308Y-64090232D01*
X113524210Y-64090232D01*
X113478423Y-64097872D01*
X113295274Y-64128434D01*
X113075763Y-64203793D01*
X113075754Y-64203796D01*
X112871630Y-64314263D01*
X112871624Y-64314267D01*
X112688481Y-64456813D01*
X112688478Y-64456816D01*
X112531275Y-64627584D01*
X112404334Y-64821883D01*
X112311101Y-65034431D01*
X112254125Y-65259423D01*
X112254123Y-65259434D01*
X112234959Y-65490725D01*
X65200500Y-65490725D01*
X65200500Y-63326438D01*
X168434222Y-63326438D01*
X168434222Y-63326439D01*
X168453142Y-63470147D01*
X168453143Y-63470151D01*
X168508609Y-63604061D01*
X168508610Y-63604063D01*
X168508611Y-63604064D01*
X168596851Y-63719060D01*
X168711847Y-63807300D01*
X168845763Y-63862769D01*
X168972752Y-63879487D01*
X168989471Y-63881689D01*
X168989472Y-63881689D01*
X168989473Y-63881689D01*
X169004449Y-63879717D01*
X169133181Y-63862769D01*
X169267097Y-63807300D01*
X169382093Y-63719060D01*
X169470333Y-63604064D01*
X169525802Y-63470148D01*
X169544722Y-63326439D01*
X169525802Y-63182730D01*
X169470333Y-63048814D01*
X169382093Y-62933818D01*
X169267097Y-62845578D01*
X169267096Y-62845577D01*
X169267094Y-62845576D01*
X169133184Y-62790110D01*
X169133182Y-62790109D01*
X169133181Y-62790109D01*
X169061326Y-62780649D01*
X168989473Y-62771189D01*
X168989471Y-62771189D01*
X168845763Y-62790109D01*
X168845759Y-62790110D01*
X168711849Y-62845576D01*
X168596851Y-62933818D01*
X168508609Y-63048816D01*
X168453143Y-63182726D01*
X168453142Y-63182730D01*
X168434222Y-63326438D01*
X65200500Y-63326438D01*
X65200500Y-61968731D01*
X133078893Y-61968731D01*
X133078893Y-61968732D01*
X133097813Y-62112440D01*
X133097814Y-62112444D01*
X133153280Y-62246354D01*
X133153281Y-62246356D01*
X133153282Y-62246357D01*
X133241522Y-62361353D01*
X133356518Y-62449593D01*
X133490434Y-62505062D01*
X133617423Y-62521780D01*
X133634142Y-62523982D01*
X133634143Y-62523982D01*
X133634144Y-62523982D01*
X133649120Y-62522010D01*
X133777852Y-62505062D01*
X133911768Y-62449593D01*
X134026764Y-62361353D01*
X134115004Y-62246357D01*
X134170473Y-62112441D01*
X134189393Y-61968732D01*
X134170473Y-61825023D01*
X134133493Y-61735745D01*
X134115005Y-61691109D01*
X134115004Y-61691108D01*
X134115004Y-61691107D01*
X134026764Y-61576111D01*
X133911768Y-61487871D01*
X133911767Y-61487870D01*
X133911765Y-61487869D01*
X133777855Y-61432403D01*
X133777853Y-61432402D01*
X133777852Y-61432402D01*
X133705997Y-61422942D01*
X133634144Y-61413482D01*
X133634142Y-61413482D01*
X133490434Y-61432402D01*
X133490430Y-61432403D01*
X133356520Y-61487869D01*
X133241522Y-61576111D01*
X133153280Y-61691109D01*
X133097814Y-61825019D01*
X133097813Y-61825023D01*
X133078893Y-61968731D01*
X65200500Y-61968731D01*
X65200500Y-60410725D01*
X112234959Y-60410725D01*
X112234959Y-60410738D01*
X112254123Y-60642029D01*
X112254125Y-60642040D01*
X112311101Y-60867032D01*
X112404334Y-61079580D01*
X112531275Y-61273879D01*
X112531278Y-61273883D01*
X112531280Y-61273885D01*
X112688475Y-61444645D01*
X112688478Y-61444647D01*
X112688481Y-61444650D01*
X112871624Y-61587196D01*
X112871630Y-61587200D01*
X112871633Y-61587202D01*
X113075756Y-61697668D01*
X113189746Y-61736800D01*
X113295274Y-61773029D01*
X113295276Y-61773029D01*
X113295278Y-61773030D01*
X113524210Y-61811232D01*
X113524211Y-61811232D01*
X113756307Y-61811232D01*
X113756308Y-61811232D01*
X113985240Y-61773030D01*
X114204762Y-61697668D01*
X114408885Y-61587202D01*
X114592043Y-61444645D01*
X114749238Y-61273885D01*
X114876183Y-61079581D01*
X114969416Y-60867032D01*
X115026393Y-60642037D01*
X115045559Y-60410732D01*
X115045559Y-60410725D01*
X115026394Y-60179434D01*
X115026392Y-60179423D01*
X114969416Y-59954431D01*
X114876183Y-59741883D01*
X114749242Y-59547584D01*
X114749239Y-59547581D01*
X114749238Y-59547579D01*
X114592043Y-59376819D01*
X114592038Y-59376815D01*
X114592036Y-59376813D01*
X114408893Y-59234267D01*
X114408887Y-59234263D01*
X114204763Y-59123796D01*
X114204754Y-59123793D01*
X113985243Y-59048434D01*
X113813541Y-59019782D01*
X113756308Y-59010232D01*
X113524210Y-59010232D01*
X113478423Y-59017872D01*
X113295274Y-59048434D01*
X113075763Y-59123793D01*
X113075754Y-59123796D01*
X112871630Y-59234263D01*
X112871624Y-59234267D01*
X112688481Y-59376813D01*
X112688478Y-59376816D01*
X112531275Y-59547584D01*
X112404334Y-59741883D01*
X112311101Y-59954431D01*
X112254125Y-60179423D01*
X112254123Y-60179434D01*
X112234959Y-60410725D01*
X65200500Y-60410725D01*
X65200500Y-56869981D01*
X133015612Y-56869981D01*
X133015612Y-56869982D01*
X133034532Y-57013690D01*
X133034533Y-57013694D01*
X133089999Y-57147604D01*
X133090000Y-57147606D01*
X133090001Y-57147607D01*
X133178241Y-57262603D01*
X133293237Y-57350843D01*
X133427153Y-57406312D01*
X133554142Y-57423030D01*
X133570861Y-57425232D01*
X133570862Y-57425232D01*
X133570863Y-57425232D01*
X133585839Y-57423260D01*
X133714571Y-57406312D01*
X133848487Y-57350843D01*
X133963483Y-57262603D01*
X134051723Y-57147607D01*
X134107192Y-57013691D01*
X134126112Y-56869982D01*
X134107192Y-56726273D01*
X134051723Y-56592357D01*
X133963483Y-56477361D01*
X133862665Y-56400000D01*
X162171750Y-56400000D01*
X162185863Y-56507200D01*
X162190670Y-56543708D01*
X162190671Y-56543712D01*
X162246138Y-56677623D01*
X162246139Y-56677625D01*
X162282118Y-56724514D01*
X162307312Y-56789683D01*
X162293274Y-56858128D01*
X162282118Y-56875486D01*
X162246139Y-56922374D01*
X162246138Y-56922376D01*
X162190671Y-57056287D01*
X162190670Y-57056291D01*
X162171750Y-57199999D01*
X162171750Y-57200000D01*
X162190670Y-57343708D01*
X162190671Y-57343712D01*
X162246137Y-57477622D01*
X162246138Y-57477624D01*
X162246139Y-57477625D01*
X162334379Y-57592621D01*
X162449375Y-57680861D01*
X162583291Y-57736330D01*
X162710280Y-57753048D01*
X162726999Y-57755250D01*
X162727000Y-57755250D01*
X162727001Y-57755250D01*
X162741977Y-57753278D01*
X162870709Y-57736330D01*
X163004625Y-57680861D01*
X163051514Y-57644881D01*
X163116682Y-57619687D01*
X163185127Y-57633725D01*
X163202483Y-57644880D01*
X163249375Y-57680861D01*
X163383291Y-57736330D01*
X163510280Y-57753048D01*
X163526999Y-57755250D01*
X163527000Y-57755250D01*
X163527001Y-57755250D01*
X163541977Y-57753278D01*
X163670709Y-57736330D01*
X163804625Y-57680861D01*
X163851514Y-57644881D01*
X163916682Y-57619687D01*
X163985127Y-57633725D01*
X164002483Y-57644880D01*
X164049375Y-57680861D01*
X164183291Y-57736330D01*
X164310280Y-57753048D01*
X164326999Y-57755250D01*
X164327000Y-57755250D01*
X164327001Y-57755250D01*
X164341977Y-57753278D01*
X164470709Y-57736330D01*
X164604625Y-57680861D01*
X164719621Y-57592621D01*
X164807861Y-57477625D01*
X164863330Y-57343709D01*
X164882250Y-57200000D01*
X164863330Y-57056291D01*
X164807861Y-56922375D01*
X164771881Y-56875485D01*
X164746687Y-56810318D01*
X164760725Y-56741873D01*
X164771880Y-56724516D01*
X164807861Y-56677625D01*
X164863330Y-56543709D01*
X164882250Y-56400000D01*
X164880817Y-56389119D01*
X164877596Y-56364650D01*
X164863330Y-56256291D01*
X164807861Y-56122375D01*
X164719621Y-56007379D01*
X164604625Y-55919139D01*
X164604624Y-55919138D01*
X164604622Y-55919137D01*
X164470712Y-55863671D01*
X164470710Y-55863670D01*
X164470709Y-55863670D01*
X164398854Y-55854210D01*
X164327001Y-55844750D01*
X164326999Y-55844750D01*
X164183291Y-55863670D01*
X164183287Y-55863671D01*
X164049376Y-55919138D01*
X164049374Y-55919139D01*
X164002486Y-55955118D01*
X163937317Y-55980312D01*
X163868872Y-55966274D01*
X163851514Y-55955118D01*
X163804625Y-55919139D01*
X163804623Y-55919138D01*
X163670712Y-55863671D01*
X163670710Y-55863670D01*
X163670709Y-55863670D01*
X163598854Y-55854210D01*
X163527001Y-55844750D01*
X163526999Y-55844750D01*
X163383291Y-55863670D01*
X163383287Y-55863671D01*
X163249376Y-55919138D01*
X163249374Y-55919139D01*
X163202486Y-55955118D01*
X163137317Y-55980312D01*
X163068872Y-55966274D01*
X163051514Y-55955118D01*
X163004625Y-55919139D01*
X163004623Y-55919138D01*
X162870712Y-55863671D01*
X162870710Y-55863670D01*
X162870709Y-55863670D01*
X162798854Y-55854210D01*
X162727001Y-55844750D01*
X162726999Y-55844750D01*
X162583291Y-55863670D01*
X162583287Y-55863671D01*
X162449377Y-55919137D01*
X162334379Y-56007379D01*
X162246137Y-56122377D01*
X162190671Y-56256287D01*
X162190670Y-56256291D01*
X162173183Y-56389119D01*
X162171750Y-56400000D01*
X133862665Y-56400000D01*
X133848487Y-56389121D01*
X133848486Y-56389120D01*
X133848484Y-56389119D01*
X133714574Y-56333653D01*
X133714572Y-56333652D01*
X133714571Y-56333652D01*
X133642716Y-56324192D01*
X133570863Y-56314732D01*
X133570861Y-56314732D01*
X133427153Y-56333652D01*
X133427149Y-56333653D01*
X133293239Y-56389119D01*
X133178241Y-56477361D01*
X133089999Y-56592359D01*
X133034533Y-56726269D01*
X133034532Y-56726273D01*
X133015612Y-56869981D01*
X65200500Y-56869981D01*
X65200500Y-55330725D01*
X112234959Y-55330725D01*
X112234959Y-55330738D01*
X112254123Y-55562029D01*
X112254125Y-55562040D01*
X112311101Y-55787032D01*
X112404334Y-55999580D01*
X112531275Y-56193879D01*
X112531278Y-56193883D01*
X112531280Y-56193885D01*
X112688475Y-56364645D01*
X112688478Y-56364647D01*
X112688481Y-56364650D01*
X112871624Y-56507196D01*
X112871630Y-56507200D01*
X112871633Y-56507202D01*
X113075756Y-56617668D01*
X113189746Y-56656800D01*
X113295274Y-56693029D01*
X113295276Y-56693029D01*
X113295278Y-56693030D01*
X113524210Y-56731232D01*
X113524211Y-56731232D01*
X113756307Y-56731232D01*
X113756308Y-56731232D01*
X113985240Y-56693030D01*
X114204762Y-56617668D01*
X114408885Y-56507202D01*
X114592043Y-56364645D01*
X114749238Y-56193885D01*
X114876183Y-55999581D01*
X114969416Y-55787032D01*
X115026393Y-55562037D01*
X115045559Y-55330732D01*
X115045559Y-55330725D01*
X115026394Y-55099434D01*
X115026392Y-55099423D01*
X114969416Y-54874431D01*
X114876183Y-54661883D01*
X114749242Y-54467584D01*
X114749239Y-54467581D01*
X114749238Y-54467579D01*
X114592043Y-54296819D01*
X114592038Y-54296815D01*
X114592036Y-54296813D01*
X114408893Y-54154267D01*
X114408887Y-54154263D01*
X114204763Y-54043796D01*
X114204754Y-54043793D01*
X113985243Y-53968434D01*
X113813541Y-53939782D01*
X113756308Y-53930232D01*
X113524210Y-53930232D01*
X113478423Y-53937872D01*
X113295274Y-53968434D01*
X113075763Y-54043793D01*
X113075754Y-54043796D01*
X112871630Y-54154263D01*
X112871624Y-54154267D01*
X112688481Y-54296813D01*
X112688478Y-54296816D01*
X112531275Y-54467584D01*
X112404334Y-54661883D01*
X112311101Y-54874431D01*
X112254125Y-55099423D01*
X112254123Y-55099434D01*
X112234959Y-55330725D01*
X65200500Y-55330725D01*
X65200500Y-40002706D01*
X65200618Y-39997297D01*
X65205652Y-39881995D01*
X68199500Y-39881995D01*
X68199500Y-40118004D01*
X68199501Y-40118020D01*
X68230306Y-40352010D01*
X68291394Y-40579993D01*
X68381714Y-40798045D01*
X68381719Y-40798056D01*
X68452677Y-40920957D01*
X68499727Y-41002450D01*
X68499729Y-41002453D01*
X68499730Y-41002454D01*
X68643406Y-41189697D01*
X68643412Y-41189704D01*
X68810295Y-41356587D01*
X68810301Y-41356592D01*
X68997550Y-41500273D01*
X69109541Y-41564931D01*
X69201943Y-41618280D01*
X69201948Y-41618282D01*
X69201951Y-41618284D01*
X69420007Y-41708606D01*
X69647986Y-41769693D01*
X69881989Y-41800500D01*
X69881996Y-41800500D01*
X70118004Y-41800500D01*
X70118011Y-41800500D01*
X70352014Y-41769693D01*
X70579993Y-41708606D01*
X70798049Y-41618284D01*
X71002450Y-41500273D01*
X71189699Y-41356592D01*
X71356592Y-41189699D01*
X71500273Y-41002450D01*
X71618284Y-40798049D01*
X71708606Y-40579993D01*
X71769693Y-40352014D01*
X71800500Y-40118011D01*
X71800500Y-39881989D01*
X71769693Y-39647986D01*
X71708606Y-39420007D01*
X71618284Y-39201951D01*
X71618282Y-39201948D01*
X71618280Y-39201943D01*
X71576118Y-39128918D01*
X71500273Y-38997550D01*
X71356592Y-38810301D01*
X71356587Y-38810295D01*
X71189704Y-38643412D01*
X71189697Y-38643406D01*
X71002454Y-38499730D01*
X71002453Y-38499729D01*
X71002450Y-38499727D01*
X70920957Y-38452677D01*
X70798056Y-38381719D01*
X70798045Y-38381714D01*
X70579993Y-38291394D01*
X70352010Y-38230306D01*
X70118020Y-38199501D01*
X70118017Y-38199500D01*
X70118011Y-38199500D01*
X69881989Y-38199500D01*
X69881983Y-38199500D01*
X69881979Y-38199501D01*
X69647989Y-38230306D01*
X69420006Y-38291394D01*
X69201954Y-38381714D01*
X69201943Y-38381719D01*
X68997545Y-38499730D01*
X68810302Y-38643406D01*
X68810295Y-38643412D01*
X68643412Y-38810295D01*
X68643406Y-38810302D01*
X68499730Y-38997545D01*
X68381719Y-39201943D01*
X68381714Y-39201954D01*
X68291394Y-39420006D01*
X68230306Y-39647989D01*
X68199501Y-39881979D01*
X68199500Y-39881995D01*
X65205652Y-39881995D01*
X65218528Y-39587080D01*
X65219468Y-39576347D01*
X65272709Y-39171938D01*
X65274582Y-39161308D01*
X65362870Y-38763068D01*
X65365668Y-38752630D01*
X65488319Y-38363629D01*
X65492016Y-38353473D01*
X65648111Y-37976627D01*
X65652669Y-37966853D01*
X65841025Y-37605024D01*
X65846407Y-37595703D01*
X66065574Y-37251680D01*
X66071765Y-37242837D01*
X66320083Y-36919224D01*
X66327021Y-36910955D01*
X66602594Y-36610220D01*
X66610220Y-36602594D01*
X66910955Y-36327021D01*
X66919224Y-36320083D01*
X67242837Y-36071765D01*
X67251680Y-36065574D01*
X67595703Y-35846407D01*
X67605024Y-35841025D01*
X67966853Y-35652669D01*
X67976627Y-35648111D01*
X68353482Y-35492012D01*
X68363629Y-35488319D01*
X68752639Y-35365665D01*
X68763068Y-35362870D01*
X69161308Y-35274582D01*
X69171938Y-35272709D01*
X69576347Y-35219468D01*
X69587080Y-35218528D01*
X69997297Y-35200617D01*
X70002706Y-35200500D01*
X70039882Y-35200500D01*
X189876000Y-35200500D01*
X189943039Y-35220185D01*
G37*
%TD.AperFunction*%
%TD*%
M02*
