%TF.GenerationSoftware,KiCad,Pcbnew,8.0.7*%
%TF.CreationDate,2025-02-09T22:58:21-06:00*%
%TF.ProjectId,FSAE_BMS,46534145-5f42-44d5-932e-6b696361645f,rev?*%
%TF.SameCoordinates,Original*%
%TF.FileFunction,Soldermask,Top*%
%TF.FilePolarity,Negative*%
%FSLAX46Y46*%
G04 Gerber Fmt 4.6, Leading zero omitted, Abs format (unit mm)*
G04 Created by KiCad (PCBNEW 8.0.7) date 2025-02-09 22:58:21*
%MOMM*%
%LPD*%
G01*
G04 APERTURE LIST*
G04 Aperture macros list*
%AMRoundRect*
0 Rectangle with rounded corners*
0 $1 Rounding radius*
0 $2 $3 $4 $5 $6 $7 $8 $9 X,Y pos of 4 corners*
0 Add a 4 corners polygon primitive as box body*
4,1,4,$2,$3,$4,$5,$6,$7,$8,$9,$2,$3,0*
0 Add four circle primitives for the rounded corners*
1,1,$1+$1,$2,$3*
1,1,$1+$1,$4,$5*
1,1,$1+$1,$6,$7*
1,1,$1+$1,$8,$9*
0 Add four rect primitives between the rounded corners*
20,1,$1+$1,$2,$3,$4,$5,0*
20,1,$1+$1,$4,$5,$6,$7,0*
20,1,$1+$1,$6,$7,$8,$9,0*
20,1,$1+$1,$8,$9,$2,$3,0*%
G04 Aperture macros list end*
%ADD10C,2.000000*%
%ADD11RoundRect,0.250000X0.262500X0.450000X-0.262500X0.450000X-0.262500X-0.450000X0.262500X-0.450000X0*%
%ADD12RoundRect,0.135000X0.135000X0.185000X-0.135000X0.185000X-0.135000X-0.185000X0.135000X-0.185000X0*%
%ADD13RoundRect,0.140000X0.140000X0.170000X-0.140000X0.170000X-0.140000X-0.170000X0.140000X-0.170000X0*%
%ADD14RoundRect,0.140000X0.170000X-0.140000X0.170000X0.140000X-0.170000X0.140000X-0.170000X-0.140000X0*%
%ADD15RoundRect,0.250000X0.475000X-0.250000X0.475000X0.250000X-0.475000X0.250000X-0.475000X-0.250000X0*%
%ADD16RoundRect,0.135000X-0.135000X-0.185000X0.135000X-0.185000X0.135000X0.185000X-0.135000X0.185000X0*%
%ADD17RoundRect,0.250000X0.625000X-0.312500X0.625000X0.312500X-0.625000X0.312500X-0.625000X-0.312500X0*%
%ADD18RoundRect,0.135000X-0.185000X0.135000X-0.185000X-0.135000X0.185000X-0.135000X0.185000X0.135000X0*%
%ADD19RoundRect,0.112500X-0.187500X-0.112500X0.187500X-0.112500X0.187500X0.112500X-0.187500X0.112500X0*%
%ADD20RoundRect,0.135000X0.185000X-0.135000X0.185000X0.135000X-0.185000X0.135000X-0.185000X-0.135000X0*%
%ADD21R,1.900000X2.500000*%
%ADD22RoundRect,0.250000X-0.312500X-1.075000X0.312500X-1.075000X0.312500X1.075000X-0.312500X1.075000X0*%
%ADD23RoundRect,0.225000X-0.225000X-0.250000X0.225000X-0.250000X0.225000X0.250000X-0.225000X0.250000X0*%
%ADD24RoundRect,0.250000X-2.050000X-0.300000X2.050000X-0.300000X2.050000X0.300000X-2.050000X0.300000X0*%
%ADD25RoundRect,0.250002X-4.449998X-5.149998X4.449998X-5.149998X4.449998X5.149998X-4.449998X5.149998X0*%
%ADD26RoundRect,0.250000X0.312500X0.625000X-0.312500X0.625000X-0.312500X-0.625000X0.312500X-0.625000X0*%
%ADD27C,2.374900*%
%ADD28C,0.990600*%
%ADD29C,0.787400*%
%ADD30RoundRect,0.250000X-0.650000X1.000000X-0.650000X-1.000000X0.650000X-1.000000X0.650000X1.000000X0*%
%ADD31RoundRect,0.218750X0.218750X0.256250X-0.218750X0.256250X-0.218750X-0.256250X0.218750X-0.256250X0*%
%ADD32C,3.200000*%
%ADD33RoundRect,0.140000X-0.140000X-0.170000X0.140000X-0.170000X0.140000X0.170000X-0.140000X0.170000X0*%
%ADD34RoundRect,0.250000X-0.625000X0.312500X-0.625000X-0.312500X0.625000X-0.312500X0.625000X0.312500X0*%
%ADD35R,2.350000X3.500000*%
%ADD36RoundRect,0.112500X0.187500X0.112500X-0.187500X0.112500X-0.187500X-0.112500X0.187500X-0.112500X0*%
%ADD37R,0.558800X1.460500*%
%ADD38RoundRect,0.140000X-0.170000X0.140000X-0.170000X-0.140000X0.170000X-0.140000X0.170000X0.140000X0*%
%ADD39RoundRect,0.102000X-0.925000X-0.300000X0.925000X-0.300000X0.925000X0.300000X-0.925000X0.300000X0*%
%ADD40RoundRect,0.150000X-0.587500X-0.150000X0.587500X-0.150000X0.587500X0.150000X-0.587500X0.150000X0*%
%ADD41RoundRect,0.250000X-0.325000X-0.650000X0.325000X-0.650000X0.325000X0.650000X-0.325000X0.650000X0*%
%ADD42RoundRect,0.150000X-0.150000X0.587500X-0.150000X-0.587500X0.150000X-0.587500X0.150000X0.587500X0*%
%ADD43RoundRect,0.250000X-0.250000X-0.475000X0.250000X-0.475000X0.250000X0.475000X-0.250000X0.475000X0*%
%ADD44RoundRect,0.225000X0.225000X0.375000X-0.225000X0.375000X-0.225000X-0.375000X0.225000X-0.375000X0*%
%ADD45RoundRect,0.200000X0.200000X0.275000X-0.200000X0.275000X-0.200000X-0.275000X0.200000X-0.275000X0*%
%ADD46RoundRect,0.225000X-0.225000X-0.375000X0.225000X-0.375000X0.225000X0.375000X-0.225000X0.375000X0*%
%ADD47RoundRect,0.250000X-0.312500X-1.450000X0.312500X-1.450000X0.312500X1.450000X-0.312500X1.450000X0*%
%ADD48RoundRect,0.225000X0.375000X-0.225000X0.375000X0.225000X-0.375000X0.225000X-0.375000X-0.225000X0*%
%ADD49RoundRect,0.250000X0.325000X0.650000X-0.325000X0.650000X-0.325000X-0.650000X0.325000X-0.650000X0*%
%ADD50RoundRect,0.150000X-0.512500X-0.150000X0.512500X-0.150000X0.512500X0.150000X-0.512500X0.150000X0*%
%ADD51RoundRect,0.250000X-0.312500X-0.625000X0.312500X-0.625000X0.312500X0.625000X-0.312500X0.625000X0*%
%ADD52RoundRect,0.250000X-0.450000X0.262500X-0.450000X-0.262500X0.450000X-0.262500X0.450000X0.262500X0*%
%ADD53RoundRect,0.225000X-0.375000X0.225000X-0.375000X-0.225000X0.375000X-0.225000X0.375000X0.225000X0*%
%ADD54RoundRect,0.250000X1.450000X-0.312500X1.450000X0.312500X-1.450000X0.312500X-1.450000X-0.312500X0*%
%ADD55C,1.950000*%
%ADD56C,5.400000*%
%ADD57RoundRect,0.250000X-0.650000X0.325000X-0.650000X-0.325000X0.650000X-0.325000X0.650000X0.325000X0*%
%ADD58RoundRect,0.112500X-0.112500X0.187500X-0.112500X-0.187500X0.112500X-0.187500X0.112500X0.187500X0*%
%ADD59C,2.999999*%
%ADD60R,1.520000X1.520000*%
%ADD61C,1.520000*%
%ADD62R,1.200000X1.400000*%
%ADD63RoundRect,0.200000X-0.200000X-0.275000X0.200000X-0.275000X0.200000X0.275000X-0.200000X0.275000X0*%
%ADD64RoundRect,0.112500X0.112500X-0.187500X0.112500X0.187500X-0.112500X0.187500X-0.112500X-0.187500X0*%
%ADD65RoundRect,0.225000X0.225000X0.250000X-0.225000X0.250000X-0.225000X-0.250000X0.225000X-0.250000X0*%
%ADD66R,1.200000X0.700000*%
%ADD67R,1.200000X1.000000*%
%ADD68R,0.800000X1.000000*%
%ADD69R,2.800000X1.000000*%
%ADD70R,1.900000X1.300000*%
%ADD71R,3.500000X2.350000*%
%ADD72RoundRect,0.147500X0.172500X-0.147500X0.172500X0.147500X-0.172500X0.147500X-0.172500X-0.147500X0*%
%ADD73R,2.500000X1.900000*%
%ADD74RoundRect,0.150000X0.150000X-0.512500X0.150000X0.512500X-0.150000X0.512500X-0.150000X-0.512500X0*%
%ADD75RoundRect,0.218750X-0.256250X0.218750X-0.256250X-0.218750X0.256250X-0.218750X0.256250X0.218750X0*%
%ADD76RoundRect,0.250000X-1.450000X0.312500X-1.450000X-0.312500X1.450000X-0.312500X1.450000X0.312500X0*%
%ADD77RoundRect,0.250000X0.650000X-0.325000X0.650000X0.325000X-0.650000X0.325000X-0.650000X-0.325000X0*%
%ADD78RoundRect,0.075000X-0.075000X0.700000X-0.075000X-0.700000X0.075000X-0.700000X0.075000X0.700000X0*%
%ADD79RoundRect,0.075000X-0.700000X0.075000X-0.700000X-0.075000X0.700000X-0.075000X0.700000X0.075000X0*%
%ADD80RoundRect,0.250000X-0.362500X-1.425000X0.362500X-1.425000X0.362500X1.425000X-0.362500X1.425000X0*%
%ADD81RoundRect,0.243750X0.456250X-0.243750X0.456250X0.243750X-0.456250X0.243750X-0.456250X-0.243750X0*%
%ADD82RoundRect,0.250000X0.375000X0.625000X-0.375000X0.625000X-0.375000X-0.625000X0.375000X-0.625000X0*%
%ADD83R,1.475000X0.450000*%
%ADD84RoundRect,0.218750X0.256250X-0.218750X0.256250X0.218750X-0.256250X0.218750X-0.256250X-0.218750X0*%
%ADD85RoundRect,0.250000X-1.500000X-0.550000X1.500000X-0.550000X1.500000X0.550000X-1.500000X0.550000X0*%
%ADD86R,1.700000X1.700000*%
%ADD87O,1.700000X1.700000*%
%ADD88RoundRect,0.250000X0.550000X-1.500000X0.550000X1.500000X-0.550000X1.500000X-0.550000X-1.500000X0*%
%ADD89RoundRect,0.243750X-0.243750X-0.456250X0.243750X-0.456250X0.243750X0.456250X-0.243750X0.456250X0*%
%ADD90RoundRect,0.225000X-0.250000X0.225000X-0.250000X-0.225000X0.250000X-0.225000X0.250000X0.225000X0*%
%ADD91RoundRect,0.250000X-0.375000X-0.625000X0.375000X-0.625000X0.375000X0.625000X-0.375000X0.625000X0*%
%ADD92RoundRect,0.250000X-0.300000X2.050000X-0.300000X-2.050000X0.300000X-2.050000X0.300000X2.050000X0*%
%ADD93RoundRect,0.250002X-5.149998X4.449998X-5.149998X-4.449998X5.149998X-4.449998X5.149998X4.449998X0*%
G04 APERTURE END LIST*
D10*
X202300000Y-30000000D02*
G75*
G02*
X198300000Y-30000000I-2000000J0D01*
G01*
X198300000Y-30000000D02*
G75*
G02*
X202300000Y-30000000I2000000J0D01*
G01*
X202300000Y-145000000D02*
G75*
G02*
X198300000Y-145000000I-2000000J0D01*
G01*
X198300000Y-145000000D02*
G75*
G02*
X202300000Y-145000000I2000000J0D01*
G01*
X97300000Y-145000000D02*
G75*
G02*
X93300000Y-145000000I-2000000J0D01*
G01*
X93300000Y-145000000D02*
G75*
G02*
X97300000Y-145000000I2000000J0D01*
G01*
X97300000Y-30000000D02*
G75*
G02*
X93300000Y-30000000I-2000000J0D01*
G01*
X93300000Y-30000000D02*
G75*
G02*
X97300000Y-30000000I2000000J0D01*
G01*
D11*
%TO.C,R527*%
X107546185Y-49818326D03*
X105721185Y-49818326D03*
%TD*%
D12*
%TO.C,R602*%
X157446187Y-70855329D03*
X156426187Y-70855329D03*
%TD*%
D13*
%TO.C,C402*%
X163870000Y-124104000D03*
X162910000Y-124104000D03*
%TD*%
D14*
%TO.C,C505*%
X135495847Y-53983697D03*
X135495847Y-53023697D03*
%TD*%
D15*
%TO.C,C424*%
X116641000Y-107574500D03*
X116641000Y-105674500D03*
%TD*%
D16*
%TO.C,R408*%
X129491000Y-90624500D03*
X130511000Y-90624500D03*
%TD*%
D15*
%TO.C,C412*%
X135241000Y-93874500D03*
X135241000Y-91974500D03*
%TD*%
%TO.C,C410*%
X137741000Y-93874500D03*
X137741000Y-91974500D03*
%TD*%
D17*
%TO.C,R305*%
X161600000Y-33462500D03*
X161600000Y-30537500D03*
%TD*%
D18*
%TO.C,R203*%
X161756068Y-44461613D03*
X161756068Y-45481613D03*
%TD*%
D19*
%TO.C,D503*%
X129100000Y-59500000D03*
X131200000Y-59500000D03*
%TD*%
D20*
%TO.C,R702*%
X132450000Y-117410000D03*
X132450000Y-116390000D03*
%TD*%
D18*
%TO.C,R501*%
X132700400Y-76960900D03*
X132700400Y-77980900D03*
%TD*%
D21*
%TO.C,L401*%
X182091606Y-107133500D03*
X186191606Y-107133500D03*
%TD*%
D22*
%TO.C,R612*%
X150225000Y-94450000D03*
X153150000Y-94450000D03*
%TD*%
D23*
%TO.C,C201*%
X164628784Y-50200000D03*
X166178784Y-50200000D03*
%TD*%
D24*
%TO.C,Q704*%
X116325000Y-117585000D03*
D25*
X125475000Y-120125000D03*
D24*
X116325000Y-122665000D03*
%TD*%
D26*
%TO.C,R302*%
X149642500Y-35700000D03*
X146717500Y-35700000D03*
%TD*%
D13*
%TO.C,C215*%
X193154142Y-69847145D03*
X192194142Y-69847145D03*
%TD*%
D19*
%TO.C,D204*%
X173650000Y-53900000D03*
X175750000Y-53900000D03*
%TD*%
D27*
%TO.C,J201*%
X173725000Y-50670000D03*
D28*
X176265000Y-50670000D03*
D27*
X178805000Y-50670000D03*
X173725000Y-47495000D03*
X178805000Y-47495000D03*
D28*
X175249000Y-45590000D03*
X177281000Y-45590000D03*
D29*
X176900000Y-49400000D03*
X175630000Y-49400000D03*
X176900000Y-48130000D03*
X175630000Y-48130000D03*
X176900000Y-46860000D03*
X175630000Y-46860000D03*
%TD*%
D30*
%TO.C,D406*%
X168498000Y-114400000D03*
X168498000Y-118400000D03*
%TD*%
D31*
%TO.C,D410*%
X132078500Y-111224500D03*
X130503500Y-111224500D03*
%TD*%
D32*
%TO.C,H103*%
X200300000Y-145000000D03*
%TD*%
D33*
%TO.C,C612*%
X165121181Y-79250000D03*
X166081181Y-79250000D03*
%TD*%
D34*
%TO.C,R606*%
X153437000Y-88937500D03*
X153437000Y-91862500D03*
%TD*%
D33*
%TO.C,C602*%
X151663769Y-71909970D03*
X152623769Y-71909970D03*
%TD*%
D35*
%TO.C,L403*%
X188817606Y-92401500D03*
X182767606Y-92401500D03*
%TD*%
D36*
%TO.C,D504*%
X131200000Y-55250000D03*
X129100000Y-55250000D03*
%TD*%
D37*
%TO.C,U601*%
X167605000Y-80925850D03*
X166335000Y-80925850D03*
X165065000Y-80925850D03*
X163795000Y-80925850D03*
X163795000Y-86374150D03*
X165065000Y-86374150D03*
X166335000Y-86374150D03*
X167605000Y-86374150D03*
%TD*%
D38*
%TO.C,C206*%
X155350358Y-63521508D03*
X155350358Y-64481508D03*
%TD*%
D26*
%TO.C,R512*%
X132042440Y-52995697D03*
X129117440Y-52995697D03*
%TD*%
D16*
%TO.C,R706*%
X191457000Y-113819000D03*
X192477000Y-113819000D03*
%TD*%
D18*
%TO.C,R406*%
X196521363Y-93665590D03*
X196521363Y-94685590D03*
%TD*%
D12*
%TO.C,R207*%
X173492517Y-41588807D03*
X172472517Y-41588807D03*
%TD*%
D39*
%TO.C,L501*%
X110002118Y-63176469D03*
X110002118Y-64446469D03*
X114552118Y-64446469D03*
X114552118Y-63176469D03*
%TD*%
D40*
%TO.C,Q707*%
X114117500Y-137135000D03*
X114117500Y-139035000D03*
X115992500Y-138085000D03*
%TD*%
D18*
%TO.C,R514*%
X147600000Y-51390000D03*
X147600000Y-52410000D03*
%TD*%
D41*
%TO.C,C703*%
X198600000Y-134175000D03*
X201550000Y-134175000D03*
%TD*%
D33*
%TO.C,C203*%
X164920603Y-51500000D03*
X165880603Y-51500000D03*
%TD*%
D42*
%TO.C,Q703*%
X192475000Y-115597000D03*
X190575000Y-115597000D03*
X191525000Y-117472000D03*
%TD*%
D13*
%TO.C,C610*%
X157385180Y-71914575D03*
X156425180Y-71914575D03*
%TD*%
%TO.C,C417*%
X195416606Y-90369500D03*
X194456606Y-90369500D03*
%TD*%
D33*
%TO.C,C502*%
X131651940Y-50963697D03*
X132611940Y-50963697D03*
%TD*%
D26*
%TO.C,R510*%
X132035741Y-66045000D03*
X129110741Y-66045000D03*
%TD*%
D20*
%TO.C,R701*%
X107500000Y-119710000D03*
X107500000Y-118690000D03*
%TD*%
D16*
%TO.C,R401*%
X178374000Y-124020000D03*
X179394000Y-124020000D03*
%TD*%
D43*
%TO.C,C421*%
X179381606Y-83384500D03*
X181281606Y-83384500D03*
%TD*%
D14*
%TO.C,C202*%
X162900000Y-47550000D03*
X162900000Y-46590000D03*
%TD*%
D44*
%TO.C,D403*%
X176250000Y-121100000D03*
X172950000Y-121100000D03*
%TD*%
D26*
%TO.C,R511*%
X132039618Y-61772649D03*
X129114618Y-61772649D03*
%TD*%
D33*
%TO.C,C609*%
X152570000Y-96700000D03*
X153530000Y-96700000D03*
%TD*%
%TO.C,C501*%
X131472487Y-63942220D03*
X132432487Y-63942220D03*
%TD*%
D43*
%TO.C,C411*%
X193097606Y-102140500D03*
X194997606Y-102140500D03*
%TD*%
D45*
%TO.C,R504*%
X135473432Y-51745121D03*
X133823432Y-51745121D03*
%TD*%
D33*
%TO.C,C617*%
X154099591Y-79329479D03*
X155059591Y-79329479D03*
%TD*%
D46*
%TO.C,D703*%
X198525000Y-131675000D03*
X201825000Y-131675000D03*
%TD*%
D43*
%TO.C,C423*%
X179381606Y-80884500D03*
X181281606Y-80884500D03*
%TD*%
D33*
%TO.C,C508*%
X150863272Y-58801008D03*
X151823272Y-58801008D03*
%TD*%
D26*
%TO.C,R304*%
X137042500Y-35600000D03*
X134117500Y-35600000D03*
%TD*%
D19*
%TO.C,D301*%
X147570000Y-33400000D03*
X149670000Y-33400000D03*
%TD*%
D47*
%TO.C,F703*%
X131762500Y-122800000D03*
X136037500Y-122800000D03*
%TD*%
D48*
%TO.C,D408*%
X135241000Y-98900000D03*
X135241000Y-95600000D03*
%TD*%
D14*
%TO.C,C204*%
X153898564Y-56310000D03*
X153898564Y-55350000D03*
%TD*%
D20*
%TO.C,R711*%
X112453033Y-138109839D03*
X112453033Y-137089839D03*
%TD*%
D22*
%TO.C,R610*%
X161187500Y-94450000D03*
X164112500Y-94450000D03*
%TD*%
D14*
%TO.C,C504*%
X135577118Y-61922220D03*
X135577118Y-60962220D03*
%TD*%
D18*
%TO.C,R403*%
X164942000Y-122994000D03*
X164942000Y-124014000D03*
%TD*%
D16*
%TO.C,R409*%
X175884606Y-97608500D03*
X176904606Y-97608500D03*
%TD*%
D46*
%TO.C,D407*%
X188150000Y-99700000D03*
X191450000Y-99700000D03*
%TD*%
D36*
%TO.C,D502*%
X131213614Y-68297057D03*
X129113614Y-68297057D03*
%TD*%
D20*
%TO.C,R507*%
X153900000Y-59310000D03*
X153900000Y-58290000D03*
%TD*%
D16*
%TO.C,R607*%
X162690000Y-70850000D03*
X163710000Y-70850000D03*
%TD*%
D49*
%TO.C,C404*%
X139675000Y-109024500D03*
X136725000Y-109024500D03*
%TD*%
D34*
%TO.C,R603*%
X166964000Y-88937500D03*
X166964000Y-91862500D03*
%TD*%
D50*
%TO.C,U401*%
X192733022Y-91765093D03*
X192733022Y-92715093D03*
X192733022Y-93665093D03*
X195008022Y-93665093D03*
X195008022Y-92715093D03*
X195008022Y-91765093D03*
%TD*%
D16*
%TO.C,R210*%
X180615501Y-62347900D03*
X181635501Y-62347900D03*
%TD*%
D51*
%TO.C,R301*%
X152317500Y-35700000D03*
X155242500Y-35700000D03*
%TD*%
D52*
%TO.C,R618*%
X158300000Y-86887500D03*
X158300000Y-88712500D03*
%TD*%
D53*
%TO.C,D701*%
X122400000Y-126700000D03*
X122400000Y-130000000D03*
%TD*%
D45*
%TO.C,R502*%
X135602118Y-64783886D03*
X133952118Y-64783886D03*
%TD*%
D54*
%TO.C,F702*%
X184000000Y-133737500D03*
X184000000Y-129462500D03*
%TD*%
D41*
%TO.C,C702*%
X156125000Y-117100000D03*
X159075000Y-117100000D03*
%TD*%
D34*
%TO.C,R605*%
X155987000Y-88937500D03*
X155987000Y-91862500D03*
%TD*%
D55*
%TO.C,J303*%
X175660000Y-127162500D03*
X171660000Y-127162500D03*
X167660000Y-127162500D03*
X164460000Y-127162500D03*
X162260000Y-127162500D03*
X160060000Y-127162500D03*
X157860000Y-127162500D03*
X155660000Y-127162500D03*
X153460000Y-127162500D03*
X150260000Y-127162500D03*
X146260000Y-127162500D03*
X142260000Y-127162500D03*
X175460000Y-131662500D03*
X173260000Y-131662500D03*
X171060000Y-131662500D03*
X168860000Y-131662500D03*
X166660000Y-131662500D03*
X164460000Y-131662500D03*
X162260000Y-131662500D03*
X155660000Y-131662500D03*
X153460000Y-131662500D03*
X151260000Y-131662500D03*
X149060000Y-131662500D03*
X146860000Y-131662500D03*
X144660000Y-131662500D03*
X142460000Y-131662500D03*
D56*
X175610000Y-137612500D03*
X142260000Y-137612500D03*
%TD*%
D14*
%TO.C,C405*%
X180132686Y-103697627D03*
X180132686Y-102737627D03*
%TD*%
D38*
%TO.C,C418*%
X126191000Y-91644500D03*
X126191000Y-92604500D03*
%TD*%
D33*
%TO.C,C415*%
X193647256Y-95358996D03*
X194607256Y-95358996D03*
%TD*%
D16*
%TO.C,R201*%
X172669303Y-34342642D03*
X173689303Y-34342642D03*
%TD*%
D23*
%TO.C,C614*%
X164756919Y-76850000D03*
X166306919Y-76850000D03*
%TD*%
D11*
%TO.C,R525*%
X107689618Y-62561469D03*
X105864618Y-62561469D03*
%TD*%
D39*
%TO.C,L502*%
X110011661Y-50147590D03*
X110011661Y-51417590D03*
X114561661Y-51417590D03*
X114561661Y-50147590D03*
%TD*%
D57*
%TO.C,C701*%
X124900000Y-126825000D03*
X124900000Y-129775000D03*
%TD*%
D31*
%TO.C,D202*%
X172676803Y-35742642D03*
X171101803Y-35742642D03*
%TD*%
D11*
%TO.C,R522*%
X113163318Y-54002007D03*
X111338318Y-54002007D03*
%TD*%
D30*
%TO.C,D405*%
X173578000Y-114400000D03*
X173578000Y-118400000D03*
%TD*%
D22*
%TO.C,R609*%
X167187500Y-94450000D03*
X170112500Y-94450000D03*
%TD*%
D18*
%TO.C,R405*%
X196530224Y-91629050D03*
X196530224Y-92649050D03*
%TD*%
D58*
%TO.C,D207*%
X179826381Y-58050000D03*
X179826381Y-60150000D03*
%TD*%
D38*
%TO.C,C603*%
X165650000Y-95470000D03*
X165650000Y-96430000D03*
%TD*%
D33*
%TO.C,C601*%
X162720000Y-71962788D03*
X163680000Y-71962788D03*
%TD*%
%TO.C,C214*%
X158650364Y-49267863D03*
X159610364Y-49267863D03*
%TD*%
D15*
%TO.C,C420*%
X121641000Y-107574500D03*
X121641000Y-105674500D03*
%TD*%
D33*
%TO.C,C211*%
X158657444Y-51485605D03*
X159617444Y-51485605D03*
%TD*%
D36*
%TO.C,D203*%
X175600000Y-43200000D03*
X173500000Y-43200000D03*
%TD*%
D18*
%TO.C,R508*%
X146500000Y-51390000D03*
X146500000Y-52410000D03*
%TD*%
D20*
%TO.C,R410*%
X133591000Y-111234500D03*
X133591000Y-110214500D03*
%TD*%
D59*
%TO.C,J305*%
X93951606Y-50418326D03*
D60*
X98271605Y-50418326D03*
D61*
X101271604Y-50418326D03*
%TD*%
D62*
%TO.C,Y201*%
X166226000Y-46683500D03*
X166226000Y-44483500D03*
X164526000Y-44483500D03*
X164526000Y-46683500D03*
%TD*%
D63*
%TO.C,R503*%
X133952118Y-63242220D03*
X135602118Y-63242220D03*
%TD*%
D33*
%TO.C,C615*%
X165126725Y-78150000D03*
X166086725Y-78150000D03*
%TD*%
D64*
%TO.C,D208*%
X177400000Y-66750000D03*
X177400000Y-64650000D03*
%TD*%
D16*
%TO.C,R709*%
X190490000Y-119700000D03*
X191510000Y-119700000D03*
%TD*%
D54*
%TO.C,F704*%
X134650000Y-133937500D03*
X134650000Y-129662500D03*
%TD*%
D11*
%TO.C,R519*%
X127235413Y-48846951D03*
X125410413Y-48846951D03*
%TD*%
D23*
%TO.C,C507*%
X147779674Y-61439141D03*
X149329674Y-61439141D03*
%TD*%
D36*
%TO.C,D303*%
X154370000Y-33400000D03*
X152270000Y-33400000D03*
%TD*%
D11*
%TO.C,R520*%
X113189618Y-67020718D03*
X111364618Y-67020718D03*
%TD*%
D65*
%TO.C,C216*%
X193175000Y-71247145D03*
X191625000Y-71247145D03*
%TD*%
D66*
%TO.C,J202*%
X184974142Y-57947145D03*
X184974142Y-59047145D03*
X184974142Y-60147145D03*
X184974142Y-61247145D03*
X184974142Y-62347145D03*
X184974142Y-63447145D03*
X184974142Y-64547145D03*
X184974142Y-65647145D03*
X184974142Y-66597145D03*
D67*
X184974142Y-56397145D03*
X189274142Y-67547145D03*
D68*
X195474142Y-67547145D03*
D69*
X199624142Y-67547145D03*
D70*
X200074142Y-54047145D03*
%TD*%
D46*
%TO.C,D404*%
X165750000Y-121100000D03*
X169050000Y-121100000D03*
%TD*%
D43*
%TO.C,C510*%
X117077118Y-62700000D03*
X118977118Y-62700000D03*
%TD*%
D20*
%TO.C,R704*%
X107495370Y-117699397D03*
X107495370Y-116679397D03*
%TD*%
D71*
%TO.C,L404*%
X128171000Y-98224500D03*
X128171000Y-104274500D03*
%TD*%
D72*
%TO.C,L201*%
X157620728Y-50310863D03*
X157620728Y-49340863D03*
%TD*%
D73*
%TO.C,L402*%
X142844000Y-105010500D03*
X142844000Y-100910500D03*
%TD*%
D33*
%TO.C,C620*%
X154100741Y-78321894D03*
X155060741Y-78321894D03*
%TD*%
D43*
%TO.C,C419*%
X179381606Y-85884500D03*
X181281606Y-85884500D03*
%TD*%
D58*
%TO.C,D401*%
X140900000Y-66850000D03*
X140900000Y-68950000D03*
%TD*%
D13*
%TO.C,C406*%
X138980000Y-107224500D03*
X138020000Y-107224500D03*
%TD*%
D65*
%TO.C,C207*%
X153676055Y-62541186D03*
X152126055Y-62541186D03*
%TD*%
D36*
%TO.C,D201*%
X179416855Y-53900000D03*
X177316855Y-53900000D03*
%TD*%
D14*
%TO.C,C416*%
X131138801Y-93430963D03*
X131138801Y-92470963D03*
%TD*%
D52*
%TO.C,R616*%
X152627028Y-73292216D03*
X152627028Y-75117216D03*
%TD*%
D36*
%TO.C,D209*%
X197050000Y-71250000D03*
X194950000Y-71250000D03*
%TD*%
D12*
%TO.C,R601*%
X168443713Y-70886109D03*
X167423713Y-70886109D03*
%TD*%
D74*
%TO.C,U402*%
X127541000Y-94362000D03*
X128491000Y-94362000D03*
X129441000Y-94362000D03*
X129441000Y-92087000D03*
X128491000Y-92087000D03*
X127541000Y-92087000D03*
%TD*%
D16*
%TO.C,R407*%
X127549926Y-90627553D03*
X128569926Y-90627553D03*
%TD*%
D11*
%TO.C,R521*%
X113264249Y-60620718D03*
X111439249Y-60620718D03*
%TD*%
%TO.C,R526*%
X107546185Y-51818326D03*
X105721185Y-51818326D03*
%TD*%
D19*
%TO.C,D302*%
X134929595Y-33361530D03*
X137029595Y-33361530D03*
%TD*%
D52*
%TO.C,R615*%
X156433509Y-73303377D03*
X156433509Y-75128377D03*
%TD*%
D75*
%TO.C,D501*%
X131300000Y-76425000D03*
X131300000Y-78000000D03*
%TD*%
D16*
%TO.C,R202*%
X168406566Y-57089850D03*
X169426566Y-57089850D03*
%TD*%
%TO.C,R608*%
X151607935Y-70856380D03*
X152627935Y-70856380D03*
%TD*%
D43*
%TO.C,C409*%
X193097606Y-97140500D03*
X194997606Y-97140500D03*
%TD*%
D36*
%TO.C,D304*%
X142226469Y-33319107D03*
X140126469Y-33319107D03*
%TD*%
D15*
%TO.C,C422*%
X119141000Y-107574500D03*
X119141000Y-105674500D03*
%TD*%
D64*
%TO.C,D205*%
X170400000Y-51450000D03*
X170400000Y-49350000D03*
%TD*%
D76*
%TO.C,F701*%
X157300000Y-119462500D03*
X157300000Y-123737500D03*
%TD*%
D33*
%TO.C,C606*%
X166820000Y-96650000D03*
X167780000Y-96650000D03*
%TD*%
D77*
%TO.C,C403*%
X178172606Y-104575000D03*
X178172606Y-101625000D03*
%TD*%
D32*
%TO.C,H101*%
X95300000Y-30000000D03*
%TD*%
D38*
%TO.C,C604*%
X154730604Y-95470000D03*
X154730604Y-96430000D03*
%TD*%
D20*
%TO.C,R705*%
X132482526Y-115361969D03*
X132482526Y-114341969D03*
%TD*%
D22*
%TO.C,R611*%
X156225000Y-94450000D03*
X159150000Y-94450000D03*
%TD*%
D40*
%TO.C,Q701*%
X109147500Y-116635000D03*
X109147500Y-118535000D03*
X111022500Y-117585000D03*
%TD*%
D52*
%TO.C,R614*%
X163714000Y-73349000D03*
X163714000Y-75174000D03*
%TD*%
D26*
%TO.C,R513*%
X132033361Y-48854860D03*
X129108361Y-48854860D03*
%TD*%
D18*
%TO.C,R205*%
X168737473Y-49347683D03*
X168737473Y-50367683D03*
%TD*%
D78*
%TO.C,U201*%
X164926000Y-53158500D03*
X164426000Y-53158500D03*
X163926000Y-53158500D03*
X163426000Y-53158500D03*
X162926000Y-53158500D03*
X162426000Y-53158500D03*
X161926000Y-53158500D03*
X161426000Y-53158500D03*
X160926000Y-53158500D03*
X160426000Y-53158500D03*
X159926000Y-53158500D03*
X159426000Y-53158500D03*
X158926000Y-53158500D03*
X158426000Y-53158500D03*
X157926000Y-53158500D03*
X157426000Y-53158500D03*
D79*
X155501000Y-55083500D03*
X155501000Y-55583500D03*
X155501000Y-56083500D03*
X155501000Y-56583500D03*
X155501000Y-57083500D03*
X155501000Y-57583500D03*
X155501000Y-58083500D03*
X155501000Y-58583500D03*
X155501000Y-59083500D03*
X155501000Y-59583500D03*
X155501000Y-60083500D03*
X155501000Y-60583500D03*
X155501000Y-61083500D03*
X155501000Y-61583500D03*
X155501000Y-62083500D03*
X155501000Y-62583500D03*
D78*
X157426000Y-64508500D03*
X157926000Y-64508500D03*
X158426000Y-64508500D03*
X158926000Y-64508500D03*
X159426000Y-64508500D03*
X159926000Y-64508500D03*
X160426000Y-64508500D03*
X160926000Y-64508500D03*
X161426000Y-64508500D03*
X161926000Y-64508500D03*
X162426000Y-64508500D03*
X162926000Y-64508500D03*
X163426000Y-64508500D03*
X163926000Y-64508500D03*
X164426000Y-64508500D03*
X164926000Y-64508500D03*
D79*
X166851000Y-62583500D03*
X166851000Y-62083500D03*
X166851000Y-61583500D03*
X166851000Y-61083500D03*
X166851000Y-60583500D03*
X166851000Y-60083500D03*
X166851000Y-59583500D03*
X166851000Y-59083500D03*
X166851000Y-58583500D03*
X166851000Y-58083500D03*
X166851000Y-57583500D03*
X166851000Y-57083500D03*
X166851000Y-56583500D03*
X166851000Y-56083500D03*
X166851000Y-55583500D03*
X166851000Y-55083500D03*
%TD*%
D11*
%TO.C,R516*%
X127300202Y-66024268D03*
X125475202Y-66024268D03*
%TD*%
D43*
%TO.C,C512*%
X116818662Y-49500396D03*
X118718662Y-49500396D03*
%TD*%
D48*
%TO.C,D704*%
X131450000Y-134050000D03*
X131450000Y-130750000D03*
%TD*%
D38*
%TO.C,C301*%
X159900000Y-30520000D03*
X159900000Y-31480000D03*
%TD*%
D11*
%TO.C,R517*%
X127257336Y-61780495D03*
X125432336Y-61780495D03*
%TD*%
D38*
%TO.C,C616*%
X151627419Y-86451525D03*
X151627419Y-87411525D03*
%TD*%
D43*
%TO.C,C511*%
X116807318Y-51910872D03*
X118707318Y-51910872D03*
%TD*%
D52*
%TO.C,R613*%
X167464000Y-73349000D03*
X167464000Y-75174000D03*
%TD*%
D80*
%TO.C,R211*%
X187275000Y-74150000D03*
X193200000Y-74150000D03*
%TD*%
D81*
%TO.C,F302*%
X132000000Y-31437500D03*
X132000000Y-29562500D03*
%TD*%
D18*
%TO.C,R708*%
X137800000Y-114290000D03*
X137800000Y-115310000D03*
%TD*%
D13*
%TO.C,C605*%
X168400000Y-72000000D03*
X167440000Y-72000000D03*
%TD*%
D63*
%TO.C,R505*%
X133827446Y-50171664D03*
X135477446Y-50171664D03*
%TD*%
D82*
%TO.C,F402*%
X169390000Y-123512000D03*
X166590000Y-123512000D03*
%TD*%
D18*
%TO.C,R208*%
X181589029Y-59117659D03*
X181589029Y-60137659D03*
%TD*%
D19*
%TO.C,D505*%
X129100000Y-46645697D03*
X131200000Y-46645697D03*
%TD*%
D15*
%TO.C,C414*%
X132741000Y-93874500D03*
X132741000Y-91974500D03*
%TD*%
D36*
%TO.C,D305*%
X165550000Y-33300000D03*
X163450000Y-33300000D03*
%TD*%
D37*
%TO.C,U602*%
X156555000Y-80914350D03*
X155285000Y-80914350D03*
X154015000Y-80914350D03*
X152745000Y-80914350D03*
X152745000Y-86362650D03*
X154015000Y-86362650D03*
X155285000Y-86362650D03*
X156555000Y-86362650D03*
%TD*%
D83*
%TO.C,IC501*%
X149327183Y-60100000D03*
X149327183Y-59450000D03*
X149327183Y-58800000D03*
X149327183Y-58150000D03*
X149327183Y-57500000D03*
X149327183Y-56850000D03*
X149327183Y-56200000D03*
X149327183Y-55550000D03*
X143451183Y-55550000D03*
X143451183Y-56200000D03*
X143451183Y-56850000D03*
X143451183Y-57500000D03*
X143451183Y-58150000D03*
X143451183Y-58800000D03*
X143451183Y-59450000D03*
X143451183Y-60100000D03*
%TD*%
D38*
%TO.C,C210*%
X168479451Y-54868286D03*
X168479451Y-55828286D03*
%TD*%
D20*
%TO.C,R209*%
X180000000Y-65557145D03*
X180000000Y-64537145D03*
%TD*%
D51*
%TO.C,R303*%
X140117500Y-35600000D03*
X143042500Y-35600000D03*
%TD*%
D84*
%TO.C,D409*%
X175886606Y-96110000D03*
X175886606Y-94535000D03*
%TD*%
D38*
%TO.C,C613*%
X161517357Y-86484568D03*
X161517357Y-87444568D03*
%TD*%
D32*
%TO.C,H102*%
X200300000Y-30000000D03*
%TD*%
D85*
%TO.C,C407*%
X191347606Y-107006500D03*
X196747606Y-107006500D03*
%TD*%
D14*
%TO.C,C506*%
X135507530Y-48903697D03*
X135507530Y-47943697D03*
%TD*%
D86*
%TO.C,J301*%
X154700000Y-30400000D03*
D87*
X152160000Y-30400000D03*
X149620000Y-30400000D03*
X147080000Y-30400000D03*
%TD*%
D18*
%TO.C,R707*%
X112835000Y-116590000D03*
X112835000Y-117610000D03*
%TD*%
D88*
%TO.C,C408*%
X142741000Y-95574500D03*
X142741000Y-90174500D03*
%TD*%
D43*
%TO.C,C413*%
X193097606Y-99640500D03*
X194997606Y-99640500D03*
%TD*%
D24*
%TO.C,Q705*%
X141025000Y-115285000D03*
D25*
X150175000Y-117825000D03*
D24*
X141025000Y-120365000D03*
%TD*%
D20*
%TO.C,R212*%
X181700000Y-67610000D03*
X181700000Y-66590000D03*
%TD*%
D43*
%TO.C,C509*%
X117077118Y-64900000D03*
X118977118Y-64900000D03*
%TD*%
D14*
%TO.C,C503*%
X135577118Y-67122220D03*
X135577118Y-66162220D03*
%TD*%
D33*
%TO.C,C608*%
X155870000Y-96700000D03*
X156830000Y-96700000D03*
%TD*%
D20*
%TO.C,R710*%
X112450000Y-140120000D03*
X112450000Y-139100000D03*
%TD*%
D89*
%TO.C,F301*%
X142462500Y-27300000D03*
X144337500Y-27300000D03*
%TD*%
D33*
%TO.C,C212*%
X158656001Y-50389500D03*
X159616001Y-50389500D03*
%TD*%
%TO.C,C607*%
X163520000Y-96650000D03*
X164480000Y-96650000D03*
%TD*%
D40*
%TO.C,Q702*%
X134251500Y-114335000D03*
X134251500Y-116235000D03*
X136126500Y-115285000D03*
%TD*%
D20*
%TO.C,R509*%
X151179976Y-56935300D03*
X151179976Y-55915300D03*
%TD*%
D38*
%TO.C,C205*%
X162902613Y-44490954D03*
X162902613Y-45450954D03*
%TD*%
D77*
%TO.C,C704*%
X128750000Y-133875000D03*
X128750000Y-130925000D03*
%TD*%
D24*
%TO.C,Q708*%
X121375000Y-138085000D03*
D25*
X130525000Y-140625000D03*
D24*
X121375000Y-143165000D03*
%TD*%
D18*
%TO.C,R515*%
X148800000Y-53390000D03*
X148800000Y-54410000D03*
%TD*%
D23*
%TO.C,C619*%
X153786759Y-77053502D03*
X155336759Y-77053502D03*
%TD*%
D16*
%TO.C,R703*%
X189405441Y-113826470D03*
X190425441Y-113826470D03*
%TD*%
D58*
%TO.C,D402*%
X140800000Y-72950000D03*
X140800000Y-75050000D03*
%TD*%
D52*
%TO.C,R617*%
X169400000Y-86887500D03*
X169400000Y-88712500D03*
%TD*%
D11*
%TO.C,R523*%
X113133482Y-47631957D03*
X111308482Y-47631957D03*
%TD*%
D86*
%TO.C,J302*%
X142660000Y-30400000D03*
D87*
X140120000Y-30400000D03*
X137580000Y-30400000D03*
X135040000Y-30400000D03*
%TD*%
D33*
%TO.C,C208*%
X165871613Y-64651080D03*
X166831613Y-64651080D03*
%TD*%
D90*
%TO.C,C513*%
X143400000Y-61550000D03*
X143400000Y-63100000D03*
%TD*%
D12*
%TO.C,R206*%
X175720000Y-55400000D03*
X174700000Y-55400000D03*
%TD*%
D34*
%TO.C,R604*%
X164414000Y-88937500D03*
X164414000Y-91862500D03*
%TD*%
D18*
%TO.C,R204*%
X181278487Y-50108257D03*
X181278487Y-51128257D03*
%TD*%
D91*
%TO.C,F401*%
X172686000Y-123512000D03*
X175486000Y-123512000D03*
%TD*%
D58*
%TO.C,D206*%
X181792662Y-46895494D03*
X181792662Y-48995494D03*
%TD*%
D38*
%TO.C,C618*%
X150641141Y-86448131D03*
X150641141Y-87408131D03*
%TD*%
D23*
%TO.C,C209*%
X164750000Y-66500000D03*
X166300000Y-66500000D03*
%TD*%
D18*
%TO.C,R402*%
X177284000Y-123010000D03*
X177284000Y-124030000D03*
%TD*%
D14*
%TO.C,C213*%
X182326706Y-51112279D03*
X182326706Y-50152279D03*
%TD*%
D18*
%TO.C,R712*%
X117849000Y-137090000D03*
X117849000Y-138110000D03*
%TD*%
D11*
%TO.C,R518*%
X127289601Y-52992327D03*
X125464601Y-52992327D03*
%TD*%
D38*
%TO.C,C611*%
X162621178Y-86484568D03*
X162621178Y-87444568D03*
%TD*%
D86*
%TO.C,J306*%
X167275000Y-30400000D03*
D87*
X164735000Y-30400000D03*
%TD*%
D12*
%TO.C,R404*%
X163900000Y-123004000D03*
X162880000Y-123004000D03*
%TD*%
D46*
%TO.C,D702*%
X155950000Y-114600000D03*
X159250000Y-114600000D03*
%TD*%
D18*
%TO.C,R506*%
X145400000Y-51390000D03*
X145400000Y-52410000D03*
%TD*%
D59*
%TO.C,J304*%
X93935218Y-63354222D03*
D60*
X98255217Y-63354222D03*
D61*
X101255216Y-63354222D03*
%TD*%
D11*
%TO.C,R524*%
X107689618Y-65061469D03*
X105864618Y-65061469D03*
%TD*%
D92*
%TO.C,Q706*%
X194540000Y-123650000D03*
D93*
X192000000Y-132800000D03*
D92*
X189460000Y-123650000D03*
%TD*%
D33*
%TO.C,C401*%
X178404000Y-122920000D03*
X179364000Y-122920000D03*
%TD*%
D32*
%TO.C,H104*%
X95300000Y-145000000D03*
%TD*%
M02*
