%TF.GenerationSoftware,KiCad,Pcbnew,8.0.3*%
%TF.CreationDate,2025-02-03T16:29:31-06:00*%
%TF.ProjectId,FSAE_BMS,46534145-5f42-44d5-932e-6b696361645f,rev?*%
%TF.SameCoordinates,Original*%
%TF.FileFunction,Soldermask,Bot*%
%TF.FilePolarity,Negative*%
%FSLAX46Y46*%
G04 Gerber Fmt 4.6, Leading zero omitted, Abs format (unit mm)*
G04 Created by KiCad (PCBNEW 8.0.3) date 2025-02-03 16:29:31*
%MOMM*%
%LPD*%
G01*
G04 APERTURE LIST*
%ADD10C,2.374900*%
%ADD11C,0.990600*%
%ADD12C,3.200000*%
%ADD13C,1.950000*%
%ADD14C,5.400000*%
%ADD15C,2.999999*%
%ADD16R,1.520000X1.520000*%
%ADD17C,1.520000*%
%ADD18R,1.700000X1.700000*%
%ADD19O,1.700000X1.700000*%
G04 APERTURE END LIST*
D10*
%TO.C,J201*%
X173725000Y-50670000D03*
D11*
X176265000Y-50670000D03*
D10*
X178805000Y-50670000D03*
X173725000Y-47495000D03*
X178805000Y-47495000D03*
D11*
X175249000Y-45590000D03*
X177281000Y-45590000D03*
%TD*%
D12*
%TO.C,H103*%
X200300000Y-145000000D03*
%TD*%
D13*
%TO.C,J303*%
X175660000Y-127162500D03*
X171660000Y-127162500D03*
X167660000Y-127162500D03*
X164460000Y-127162500D03*
X162260000Y-127162500D03*
X160060000Y-127162500D03*
X157860000Y-127162500D03*
X155660000Y-127162500D03*
X153460000Y-127162500D03*
X150260000Y-127162500D03*
X146260000Y-127162500D03*
X142260000Y-127162500D03*
X175460000Y-131662500D03*
X173260000Y-131662500D03*
X171060000Y-131662500D03*
X168860000Y-131662500D03*
X166660000Y-131662500D03*
X164460000Y-131662500D03*
X162260000Y-131662500D03*
X155660000Y-131662500D03*
X153460000Y-131662500D03*
X151260000Y-131662500D03*
X149060000Y-131662500D03*
X146860000Y-131662500D03*
X144660000Y-131662500D03*
X142460000Y-131662500D03*
D14*
X175610000Y-137612500D03*
X142260000Y-137612500D03*
%TD*%
D15*
%TO.C,J305*%
X93951606Y-50418326D03*
D16*
X98271605Y-50418326D03*
D17*
X101271604Y-50418326D03*
%TD*%
D12*
%TO.C,H101*%
X95300000Y-30000000D03*
%TD*%
%TO.C,H102*%
X200300000Y-30000000D03*
%TD*%
D18*
%TO.C,J301*%
X154700000Y-30400000D03*
D19*
X152160000Y-30400000D03*
X149620000Y-30400000D03*
X147080000Y-30400000D03*
%TD*%
D18*
%TO.C,J302*%
X142660000Y-30400000D03*
D19*
X140120000Y-30400000D03*
X137580000Y-30400000D03*
X135040000Y-30400000D03*
%TD*%
D18*
%TO.C,J306*%
X167275000Y-30400000D03*
D19*
X164735000Y-30400000D03*
%TD*%
D15*
%TO.C,J304*%
X93935218Y-63354222D03*
D16*
X98255217Y-63354222D03*
D17*
X101255216Y-63354222D03*
%TD*%
D12*
%TO.C,H104*%
X95300000Y-145000000D03*
%TD*%
M02*
