%TF.GenerationSoftware,KiCad,Pcbnew,8.0.7*%
%TF.CreationDate,2025-02-09T22:58:21-06:00*%
%TF.ProjectId,FSAE_BMS,46534145-5f42-44d5-932e-6b696361645f,rev?*%
%TF.SameCoordinates,Original*%
%TF.FileFunction,Copper,L3,Inr*%
%TF.FilePolarity,Positive*%
%FSLAX46Y46*%
G04 Gerber Fmt 4.6, Leading zero omitted, Abs format (unit mm)*
G04 Created by KiCad (PCBNEW 8.0.7) date 2025-02-09 22:58:21*
%MOMM*%
%LPD*%
G01*
G04 APERTURE LIST*
%TA.AperFunction,ComponentPad*%
%ADD10C,1.950000*%
%TD*%
%TA.AperFunction,ComponentPad*%
%ADD11C,5.400000*%
%TD*%
%TA.AperFunction,ComponentPad*%
%ADD12R,1.520000X1.520000*%
%TD*%
%TA.AperFunction,ComponentPad*%
%ADD13C,1.520000*%
%TD*%
%TA.AperFunction,ComponentPad*%
%ADD14R,1.700000X1.700000*%
%TD*%
%TA.AperFunction,ComponentPad*%
%ADD15O,1.700000X1.700000*%
%TD*%
%TA.AperFunction,ViaPad*%
%ADD16C,0.700000*%
%TD*%
%TA.AperFunction,ViaPad*%
%ADD17C,0.800000*%
%TD*%
G04 APERTURE END LIST*
D10*
%TO.N,unconnected-(J303-Pad1)*%
%TO.C,J303*%
X175660000Y-127162500D03*
%TO.N,READY_PWR*%
X171660000Y-127162500D03*
%TO.N,CHARGE_PWR*%
X167660000Y-127162500D03*
%TO.N,unconnected-(J303-Pad4)*%
X164460000Y-127162500D03*
%TO.N,unconnected-(J303-Pad5)*%
X162260000Y-127162500D03*
%TO.N,CHARGE_SAFE_HV*%
X160060000Y-127162500D03*
%TO.N,DISCHARGE_EN_HV*%
X157860000Y-127162500D03*
%TO.N,CHARGE_EN_HV*%
X155660000Y-127162500D03*
%TO.N,unconnected-(J303-Pad9)*%
X153460000Y-127162500D03*
%TO.N,FAN_EN_HV*%
X150260000Y-127162500D03*
%TO.N,unconnected-(J303-Pad11)*%
X146260000Y-127162500D03*
%TO.N,GND*%
X142260000Y-127162500D03*
%TO.N,unconnected-(J303-Pad13)*%
X175460000Y-131662500D03*
%TO.N,unconnected-(J303-Pad14)*%
X173260000Y-131662500D03*
%TO.N,unconnected-(J303-Pad15)*%
X171060000Y-131662500D03*
%TO.N,unconnected-(J303-Pad16)*%
X168860000Y-131662500D03*
%TO.N,unconnected-(J303-Pad17)*%
X166660000Y-131662500D03*
%TO.N,ISO_CAN1+*%
X164460000Y-131662500D03*
%TO.N,ISO_CAN1-*%
X162260000Y-131662500D03*
%TO.N,ISO_CAN2+*%
X155660000Y-131662500D03*
%TO.N,ISO_CAN2-*%
X153460000Y-131662500D03*
%TO.N,unconnected-(J303-Pad22)*%
X151260000Y-131662500D03*
%TO.N,unconnected-(J303-Pad23)*%
X149060000Y-131662500D03*
%TO.N,unconnected-(J303-Pad24)*%
X146860000Y-131662500D03*
%TO.N,unconnected-(J303-Pad25)*%
X144660000Y-131662500D03*
%TO.N,unconnected-(J303-Pad26)*%
X142460000Y-131662500D03*
D11*
%TO.N,unconnected-(J303-PadMH1)*%
X175610000Y-137612500D03*
%TO.N,unconnected-(J303-PadMH2)*%
X142260000Y-137612500D03*
%TD*%
D12*
%TO.N,ISO_COMLP*%
%TO.C,J305*%
X98271605Y-50418326D03*
D13*
%TO.N,ISO_COMLN*%
X101271604Y-50418326D03*
%TD*%
D14*
%TO.N,GND*%
%TO.C,J301*%
X154700000Y-30400000D03*
D15*
%TO.N,Net-(D303-A2)*%
X152160000Y-30400000D03*
%TO.N,Net-(D301-A2)*%
X149620000Y-30400000D03*
%TO.N,Net-(J301-Pin_4)*%
X147080000Y-30400000D03*
%TD*%
D14*
%TO.N,GND*%
%TO.C,J302*%
X142660000Y-30400000D03*
D15*
%TO.N,Net-(D304-A2)*%
X140120000Y-30400000D03*
%TO.N,Net-(D302-A2)*%
X137580000Y-30400000D03*
%TO.N,Net-(J302-Pin_4)*%
X135040000Y-30400000D03*
%TD*%
D14*
%TO.N,GND*%
%TO.C,J306*%
X167275000Y-30400000D03*
D15*
%TO.N,Net-(D305-A2)*%
X164735000Y-30400000D03*
%TD*%
D12*
%TO.N,ISO_COMHP*%
%TO.C,J304*%
X98255217Y-63354222D03*
D13*
%TO.N,ISO_COMHN*%
X101255216Y-63354222D03*
%TD*%
D16*
%TO.N,+3V3*%
X154800000Y-49300000D03*
D17*
X181200000Y-65557145D03*
D16*
X173900000Y-59000000D03*
D17*
X160050000Y-72500000D03*
X159800000Y-86500000D03*
X183200000Y-57500000D03*
D16*
X147300000Y-50100000D03*
X143050000Y-81500000D03*
X150900000Y-64200000D03*
X152827460Y-59691940D03*
X173400000Y-65600000D03*
X152900000Y-56370000D03*
D17*
X168800000Y-65700000D03*
X161330330Y-84530330D03*
D16*
%TO.N,GND*%
X146480000Y-33400000D03*
X170300000Y-82500000D03*
X109100000Y-119700000D03*
X107800000Y-127500000D03*
X187800000Y-35000000D03*
D17*
X123750000Y-131400000D03*
X105400000Y-43900000D03*
D16*
X95300000Y-125000000D03*
D17*
X145691000Y-87624500D03*
D16*
X160300000Y-47500000D03*
D17*
X185951606Y-86908500D03*
X93389438Y-70900968D03*
X115319784Y-123983604D03*
X143033124Y-121751932D03*
D16*
X177800000Y-27500000D03*
X172800000Y-85000000D03*
X95300000Y-77500000D03*
X162800000Y-142500000D03*
X143400000Y-54700000D03*
X110300000Y-105000000D03*
X157800000Y-45000000D03*
X202800000Y-77500000D03*
X190850000Y-70425000D03*
X160300000Y-140000000D03*
X162154189Y-85003364D03*
X117800000Y-132500000D03*
X112800000Y-127500000D03*
X160075000Y-28400000D03*
D17*
X122387951Y-144418350D03*
D16*
X117800000Y-92500000D03*
X202760856Y-104981646D03*
X170300000Y-40000000D03*
D17*
X129400000Y-44900000D03*
D16*
X197800000Y-45000000D03*
D17*
X142033124Y-122751932D03*
X197984606Y-97100500D03*
X115389438Y-69900968D03*
X138400000Y-54150000D03*
X182400000Y-86900000D03*
D16*
X175300000Y-70000000D03*
X200300000Y-115000000D03*
X187800000Y-57500000D03*
X137800000Y-102500000D03*
X147800000Y-145000000D03*
X202800000Y-92500000D03*
X172800000Y-27500000D03*
X162800000Y-137500000D03*
X195300000Y-115000000D03*
X110300000Y-112500000D03*
X182800000Y-40000000D03*
X180300000Y-32500000D03*
X195300000Y-57500000D03*
D17*
X95400000Y-57150000D03*
X140685000Y-88482500D03*
X187151062Y-124668540D03*
D16*
X177800000Y-30000000D03*
X105300000Y-132500000D03*
X140300000Y-45000000D03*
X127800000Y-30000000D03*
X172800000Y-140000000D03*
D17*
X124491000Y-94724500D03*
D16*
X202800000Y-117500000D03*
X95300000Y-92500000D03*
X187800000Y-47500000D03*
X102800000Y-127500000D03*
X100300000Y-37500000D03*
D17*
X121387951Y-144418350D03*
D16*
X189300000Y-66400000D03*
X180300000Y-101800000D03*
X202800000Y-75000000D03*
X202800000Y-115000000D03*
X187800000Y-30000000D03*
X180300000Y-27500000D03*
X95300000Y-115000000D03*
X190300000Y-97500000D03*
X187800000Y-55000000D03*
D17*
X188151062Y-122668540D03*
D16*
X167800000Y-37500000D03*
X120300000Y-30000000D03*
D17*
X182400000Y-82900000D03*
D16*
X115300000Y-130000000D03*
X155937000Y-78350000D03*
X158000000Y-33500000D03*
X167800000Y-140000000D03*
X200300000Y-40000000D03*
D17*
X141691000Y-87624500D03*
D16*
X151250213Y-54882825D03*
X127800000Y-77500000D03*
X112450000Y-141000000D03*
D17*
X117400000Y-44900000D03*
D16*
X177400000Y-67800000D03*
X190300000Y-27500000D03*
X127800000Y-32500000D03*
D17*
X135150000Y-69900000D03*
D16*
X158000000Y-35100000D03*
D17*
X116691000Y-99124500D03*
X123400000Y-44900000D03*
D16*
X147800000Y-102500000D03*
D17*
X187951606Y-84908500D03*
D16*
X190300000Y-62500000D03*
X187800000Y-32500000D03*
X190300000Y-40000000D03*
D17*
X105389438Y-70900968D03*
D16*
X172800000Y-37500000D03*
X157300000Y-38500000D03*
D17*
X125400000Y-57150000D03*
X135097000Y-89117500D03*
D16*
X150300000Y-77500000D03*
X187800000Y-50000000D03*
X115847903Y-74989604D03*
X95300000Y-37500000D03*
X190300000Y-50000000D03*
D17*
X121389438Y-69900968D03*
D16*
X187800000Y-70000000D03*
X127800000Y-88750000D03*
X187800000Y-27500000D03*
X202800000Y-80000000D03*
X160300000Y-100000000D03*
X100300000Y-95000000D03*
X162800000Y-115000000D03*
D17*
X114319784Y-123983604D03*
D16*
X97800000Y-37500000D03*
X97800000Y-90000000D03*
X166250000Y-43150000D03*
D17*
X141900000Y-59900000D03*
D16*
X132800000Y-127500000D03*
X152043582Y-55930023D03*
X115300000Y-135000000D03*
D17*
X116319784Y-124983604D03*
X97400000Y-57150000D03*
D16*
X100300000Y-32500000D03*
X127800000Y-27500000D03*
X175300000Y-30000000D03*
X97800000Y-75000000D03*
D17*
X136150000Y-45900000D03*
D16*
X200300000Y-80000000D03*
X175300000Y-145000000D03*
X150300000Y-142500000D03*
D17*
X138150000Y-50650000D03*
D16*
X161714000Y-88311500D03*
X131200000Y-114500000D03*
X112800000Y-75000000D03*
X167505000Y-66522500D03*
X112800000Y-132500000D03*
D17*
X118691000Y-103124500D03*
X198619606Y-105228500D03*
D16*
X140300000Y-145000000D03*
X202800000Y-72500000D03*
D17*
X137150000Y-64650000D03*
D16*
X143396178Y-64247858D03*
D17*
X141033124Y-121751932D03*
D16*
X146209605Y-61478818D03*
D17*
X119400000Y-57150000D03*
D16*
X177800000Y-40000000D03*
X130550000Y-63950000D03*
X150703500Y-84305600D03*
D17*
X123387951Y-145418350D03*
X137400000Y-57150000D03*
D16*
X135300000Y-40000000D03*
X157300000Y-41500000D03*
D17*
X141150000Y-60650000D03*
X111400000Y-57150000D03*
X120387951Y-145418350D03*
X99389438Y-70900968D03*
X198746606Y-98370500D03*
X203075000Y-134375000D03*
X142033124Y-121751932D03*
X117319784Y-123983604D03*
D16*
X137800000Y-105000000D03*
X185300000Y-102500000D03*
X175300000Y-142500000D03*
X202800000Y-70000000D03*
X166750000Y-51500000D03*
X197800000Y-112500000D03*
X197800000Y-57500000D03*
X145300000Y-145000000D03*
X169362192Y-89872198D03*
D17*
X122700000Y-104600000D03*
D16*
X170300000Y-37500000D03*
X112800000Y-145000000D03*
X100300000Y-75000000D03*
X160500000Y-50450000D03*
D17*
X137891000Y-90514500D03*
D16*
X180300000Y-97500000D03*
X155300000Y-135000000D03*
X197800000Y-117500000D03*
X200300000Y-42500000D03*
X102800000Y-32500000D03*
X105300000Y-40000000D03*
D17*
X189951606Y-84908500D03*
X115400000Y-44900000D03*
D16*
X150300000Y-40000000D03*
X152800000Y-140000000D03*
D17*
X187151062Y-123668540D03*
D16*
X130300000Y-40000000D03*
X156200000Y-64500000D03*
D17*
X191951606Y-82908500D03*
D16*
X172800000Y-30000000D03*
X127800000Y-75000000D03*
D17*
X127400000Y-57150000D03*
D16*
X117800000Y-75000000D03*
X185300000Y-27500000D03*
X186900000Y-99700000D03*
X102804851Y-77536491D03*
X185287800Y-69913013D03*
X107800000Y-30000000D03*
D17*
X203075000Y-133075000D03*
X133400000Y-69900000D03*
X121400000Y-57150000D03*
D16*
X195300000Y-112500000D03*
X167200000Y-50350000D03*
X152800000Y-42500000D03*
D17*
X136494000Y-89879500D03*
D16*
X175300000Y-59000000D03*
X177300000Y-57000000D03*
X202800000Y-82500000D03*
D17*
X117400000Y-57150000D03*
D16*
X110300000Y-145000000D03*
X105300000Y-140000000D03*
X190300000Y-32500000D03*
D17*
X109400000Y-57150000D03*
D16*
X190300000Y-30000000D03*
X147747916Y-140036491D03*
D17*
X160600000Y-116000000D03*
D16*
X112800000Y-135000000D03*
X187800000Y-37500000D03*
X182800000Y-70000000D03*
X107800000Y-145000000D03*
X170300000Y-102500000D03*
D17*
X125150000Y-131400000D03*
D16*
X95300000Y-95000000D03*
D17*
X139400000Y-55150000D03*
D16*
X95300000Y-97500000D03*
D17*
X103400000Y-43900000D03*
X191951606Y-80908500D03*
D16*
X167800000Y-35000000D03*
X95300000Y-130000000D03*
D17*
X139400000Y-59150000D03*
X139150000Y-62650000D03*
X139691000Y-87624500D03*
D16*
X190300000Y-102500000D03*
X112800000Y-130000000D03*
X107800000Y-142500000D03*
D17*
X182400000Y-80900000D03*
D16*
X195300000Y-45000000D03*
X172800000Y-87500000D03*
X135475000Y-54868326D03*
D17*
X97389438Y-70900968D03*
D16*
X131900000Y-27600000D03*
X155823261Y-99326378D03*
X110300000Y-142500000D03*
X190300000Y-45000000D03*
X102800000Y-147500000D03*
X140221928Y-142473904D03*
D17*
X141150000Y-53650000D03*
D16*
X129828667Y-34524833D03*
X95300000Y-40000000D03*
X174589303Y-34342642D03*
X165300000Y-97400000D03*
D17*
X137150000Y-46900000D03*
X140150000Y-61650000D03*
D16*
X197800000Y-42500000D03*
X170300000Y-140000000D03*
X142300000Y-73800000D03*
X157800000Y-135000000D03*
X95300000Y-105000000D03*
X192800000Y-47500000D03*
X182800000Y-97500000D03*
X162800000Y-120000000D03*
X187800000Y-65000000D03*
X150300000Y-145000000D03*
X159000001Y-85668630D03*
X167800000Y-40000000D03*
D17*
X138150000Y-63650000D03*
D16*
X158300000Y-71900000D03*
D17*
X136494000Y-88355500D03*
D16*
X165300000Y-140000000D03*
D17*
X135097000Y-90514500D03*
D16*
X195300000Y-55000000D03*
X157800000Y-102500000D03*
X195300000Y-50000000D03*
X172800000Y-72500000D03*
X160300000Y-42500000D03*
D17*
X137400000Y-61150000D03*
D16*
X180300000Y-117500000D03*
X110305197Y-122423409D03*
D17*
X160600000Y-114600000D03*
D16*
X198100000Y-71300000D03*
X175300000Y-61000000D03*
D17*
X199508606Y-97100500D03*
D16*
X132800000Y-107500000D03*
X182800000Y-35000000D03*
X135300000Y-105000000D03*
D17*
X135150000Y-44900000D03*
D16*
X102800000Y-30000000D03*
X170300000Y-145000000D03*
X135300000Y-120000000D03*
X132200000Y-59500000D03*
D17*
X95389438Y-70900968D03*
D16*
X152700000Y-58801008D03*
D17*
X177400000Y-121100000D03*
X197222606Y-101037500D03*
X125400000Y-69900000D03*
D16*
X105300000Y-137500000D03*
X100300000Y-40000000D03*
X172800000Y-80000000D03*
X195300000Y-40000000D03*
X158250053Y-89895318D03*
D17*
X116691000Y-95124500D03*
D16*
X122800000Y-32500000D03*
D17*
X182400000Y-84900000D03*
X116319784Y-123983604D03*
D16*
X202800000Y-90000000D03*
D17*
X131400000Y-69900000D03*
X135097000Y-87593500D03*
D16*
X172800000Y-142500000D03*
D17*
X117319784Y-124983604D03*
D16*
X114150000Y-140300000D03*
X157800000Y-142500000D03*
X177800000Y-145000000D03*
X166100000Y-97400000D03*
X150800000Y-71900000D03*
X107800000Y-140000000D03*
X160300000Y-137500000D03*
X95300000Y-90000000D03*
D17*
X103389438Y-70900968D03*
X144749000Y-88482500D03*
X109389438Y-69900968D03*
X118691000Y-99124500D03*
D16*
X189375000Y-115575000D03*
D17*
X131150000Y-91500000D03*
X120691000Y-103124500D03*
D16*
X117800000Y-27500000D03*
X185300000Y-32500000D03*
X158000000Y-31700000D03*
D17*
X187951606Y-86908500D03*
D16*
X195300000Y-42500000D03*
X102747808Y-89963509D03*
D17*
X137150000Y-49650000D03*
D16*
X117800000Y-130000000D03*
X95300000Y-132500000D03*
X200300000Y-90000000D03*
X105300000Y-32500000D03*
X125300000Y-37500000D03*
X165300000Y-137500000D03*
X140900000Y-70000000D03*
D17*
X142150000Y-54650000D03*
X131500000Y-90650000D03*
D16*
X105300000Y-30000000D03*
X130750000Y-50950000D03*
X165450000Y-55600000D03*
X100300000Y-145000000D03*
X117800000Y-88750000D03*
X187800000Y-97500000D03*
X132800000Y-102500000D03*
X95300000Y-85000000D03*
X150537000Y-88250000D03*
X143380000Y-33300000D03*
X110450922Y-77526095D03*
D17*
X187151062Y-125668540D03*
D16*
X95300000Y-137500000D03*
D17*
X135400000Y-57150000D03*
D16*
X155300000Y-145000000D03*
D17*
X139033124Y-121751932D03*
D16*
X95300000Y-82500000D03*
X165300000Y-37500000D03*
D17*
X187951606Y-80908500D03*
D16*
X165300000Y-142500000D03*
D17*
X113389438Y-69900968D03*
D16*
X195300000Y-60000000D03*
X158000000Y-29600000D03*
D17*
X197222606Y-98370500D03*
D16*
X115300000Y-132500000D03*
X117804851Y-77536491D03*
X152800000Y-137500000D03*
X157800000Y-112500000D03*
X177800000Y-97600000D03*
X195300000Y-37500000D03*
D17*
X196587606Y-102434500D03*
D16*
X158300000Y-48000000D03*
X167800000Y-137500000D03*
X190300000Y-65000000D03*
X199600000Y-66400000D03*
X177800000Y-70000000D03*
X200300000Y-85000000D03*
X140300000Y-47500000D03*
D17*
X180350000Y-123000000D03*
D16*
X186300000Y-56400000D03*
D17*
X123400000Y-57150000D03*
D16*
X200300000Y-45000000D03*
X170400000Y-52500000D03*
X125300000Y-32500000D03*
D17*
X118319784Y-123983604D03*
D16*
X105300000Y-142500000D03*
D17*
X140400000Y-56150000D03*
D16*
X115300000Y-127500000D03*
X107800000Y-135000000D03*
X102800000Y-75000000D03*
D17*
X111400000Y-44900000D03*
D16*
X134802483Y-27465205D03*
X202800000Y-47500000D03*
D17*
X115400000Y-57150000D03*
D16*
X149673034Y-84300000D03*
X182800000Y-37500000D03*
X162564000Y-88311500D03*
X200300000Y-77500000D03*
X95300000Y-110000000D03*
X92779209Y-77468706D03*
X145300000Y-140000000D03*
X165300000Y-27500000D03*
X180300000Y-37500000D03*
X180500000Y-53900000D03*
X177300000Y-61000000D03*
D17*
X113400000Y-57150000D03*
D16*
X100304851Y-77536491D03*
X200300000Y-50000000D03*
X185300000Y-42500000D03*
X155300000Y-47500000D03*
X147800000Y-135000000D03*
X111200000Y-139000000D03*
X122800000Y-37500000D03*
D17*
X187951606Y-82908500D03*
D16*
X162141047Y-55932881D03*
X97800000Y-97500000D03*
X135500000Y-47050000D03*
X102800000Y-40000000D03*
X197800000Y-47500000D03*
X133600000Y-109300000D03*
D17*
X119400000Y-44900000D03*
D16*
X202800000Y-102500000D03*
D17*
X199508606Y-99640500D03*
D16*
X195300000Y-62500000D03*
X161800000Y-72000000D03*
X110300000Y-100000000D03*
D17*
X118700000Y-104600000D03*
X131300000Y-129500000D03*
X109139438Y-44649032D03*
X185951606Y-80908500D03*
D16*
X97800000Y-82500000D03*
D17*
X120691000Y-95124500D03*
D16*
X192800000Y-42500000D03*
X132800000Y-120000000D03*
D17*
X191951606Y-84908500D03*
X120387951Y-144418350D03*
D16*
X202800000Y-45000000D03*
X137800000Y-127500000D03*
D17*
X160600000Y-117300000D03*
D16*
X102800000Y-140000000D03*
D17*
X187151062Y-122668540D03*
D16*
X120300000Y-27500000D03*
X182800000Y-102500000D03*
X132450000Y-118300000D03*
X192800000Y-60000000D03*
X95300000Y-107500000D03*
D17*
X120691000Y-101124500D03*
X137400000Y-53150001D03*
X118691000Y-97124500D03*
X127400000Y-44900000D03*
X118691000Y-95124500D03*
D16*
X200300000Y-87500000D03*
X187800000Y-45000000D03*
X147800000Y-142500000D03*
X160300000Y-112500000D03*
X97800000Y-92500000D03*
X165300000Y-135000000D03*
X154623495Y-48417475D03*
X155300000Y-137500000D03*
D17*
X122691000Y-101124500D03*
D16*
X169370000Y-72048621D03*
X195300000Y-65000000D03*
D17*
X103400000Y-57150000D03*
D16*
X191350000Y-69875000D03*
X183200000Y-56500000D03*
D17*
X183951606Y-86908500D03*
X121400000Y-44900000D03*
D16*
X142800000Y-145000000D03*
X115300000Y-145000000D03*
X185300000Y-30000000D03*
X162800000Y-102500000D03*
X155100000Y-97400000D03*
D17*
X120700000Y-104600000D03*
D16*
X157800000Y-140000000D03*
X152800000Y-27500000D03*
X160300000Y-92500000D03*
X120545149Y-74963509D03*
X106100000Y-116299997D03*
X133780000Y-33400000D03*
X202800000Y-112500000D03*
X182800000Y-117500000D03*
X155298411Y-27476803D03*
X102800000Y-137500000D03*
X150300000Y-140000000D03*
X185300000Y-72500000D03*
X127800000Y-37500000D03*
X160300000Y-35000000D03*
X182210773Y-65677743D03*
D17*
X122691000Y-95124500D03*
D16*
X175300000Y-75000000D03*
X187800000Y-60000000D03*
X167800000Y-42500000D03*
X102800000Y-132500000D03*
D17*
X131400000Y-57150000D03*
D16*
X137800000Y-100000000D03*
X130300000Y-127500000D03*
D17*
X122691000Y-97124500D03*
D16*
X192800000Y-45000000D03*
D17*
X197984606Y-99640500D03*
X183951606Y-82908500D03*
D16*
X92800000Y-75000000D03*
X157800000Y-132500000D03*
D17*
X123387951Y-144418350D03*
D16*
X155937000Y-79300000D03*
X110300000Y-102500000D03*
X143690138Y-80867365D03*
X102800000Y-125000000D03*
X95300000Y-120000000D03*
D17*
X137891000Y-87593500D03*
D16*
X197800000Y-65000000D03*
X156950000Y-55600000D03*
D17*
X117389438Y-69900968D03*
D16*
X167800000Y-145000000D03*
X140242610Y-37468706D03*
D17*
X93400000Y-57150000D03*
D16*
X105300000Y-37500000D03*
X160300000Y-135000000D03*
D17*
X183951606Y-84908500D03*
D16*
X95300000Y-135000000D03*
X105304851Y-77536491D03*
X176700000Y-43200000D03*
X199800000Y-55400000D03*
D17*
X191951606Y-86908500D03*
X132557000Y-89117500D03*
D16*
X202800000Y-42500000D03*
X157800000Y-97500000D03*
D17*
X188151062Y-125668540D03*
D16*
X140300000Y-132500000D03*
X172600000Y-53900000D03*
D17*
X121387951Y-145418350D03*
X101400000Y-57150000D03*
D16*
X185300000Y-47500000D03*
X172800000Y-77500000D03*
X167744415Y-102511598D03*
X197800000Y-40000000D03*
X202800000Y-40000000D03*
D17*
X196500000Y-95600000D03*
X132557000Y-90514500D03*
D16*
X160300000Y-102500000D03*
X185451377Y-97494802D03*
D17*
X119387951Y-145418350D03*
D16*
X162800000Y-135000000D03*
X125300000Y-30000000D03*
D17*
X133827000Y-89879500D03*
D16*
X182800000Y-100000000D03*
D17*
X95400000Y-43900000D03*
D16*
X155300000Y-142500000D03*
X95300000Y-112500000D03*
X157300000Y-40000000D03*
X132800000Y-100000000D03*
D17*
X118691000Y-101124500D03*
D16*
X170300000Y-63047900D03*
X102800000Y-130000000D03*
X162800000Y-145000000D03*
X162800000Y-100000000D03*
X136300000Y-107400000D03*
D17*
X107650000Y-70650000D03*
X120691000Y-97124500D03*
D16*
X188475000Y-113775000D03*
X100300000Y-80000000D03*
X170300000Y-142500000D03*
X125300000Y-77500000D03*
D17*
X189951606Y-80908500D03*
D16*
X187800000Y-115000000D03*
X160300000Y-45000000D03*
X165300000Y-40000000D03*
X164667638Y-61776884D03*
D17*
X188151062Y-124668540D03*
D16*
X197800000Y-55000000D03*
X163450000Y-46050000D03*
X102800000Y-27500000D03*
X153597752Y-99347355D03*
X200300000Y-75000000D03*
X150970505Y-62569745D03*
X167800000Y-135000000D03*
X192800000Y-30000000D03*
X159800000Y-57883500D03*
X95300000Y-75000000D03*
X170300000Y-85000000D03*
X105300000Y-75000000D03*
X160300000Y-90000000D03*
X202800000Y-95000000D03*
D17*
X101400000Y-43900000D03*
D16*
X110446071Y-74989604D03*
X135585496Y-60015442D03*
X160500000Y-51350000D03*
D17*
X107400000Y-43900000D03*
D16*
X182800000Y-30000000D03*
X155300000Y-45000000D03*
X162800000Y-97500000D03*
X147800000Y-62600000D03*
D17*
X119387951Y-144418350D03*
D16*
X117800000Y-120000000D03*
X179800000Y-101000000D03*
D17*
X122450000Y-131400000D03*
D16*
X170300000Y-137500000D03*
D17*
X114319784Y-124983604D03*
X120691000Y-99124500D03*
D16*
X175300000Y-72500000D03*
X172800000Y-40000000D03*
X192800000Y-40000000D03*
X152800000Y-45000000D03*
X150300000Y-27500000D03*
X107800000Y-137500000D03*
X157800000Y-100000000D03*
X167800000Y-142500000D03*
X115300000Y-142500000D03*
D17*
X140033124Y-122751932D03*
D16*
X162747916Y-140036491D03*
D17*
X139033124Y-122751932D03*
D16*
X200300000Y-47500000D03*
D17*
X118319784Y-124983604D03*
D16*
X202800000Y-100000000D03*
X180200768Y-67348843D03*
X166964000Y-78211500D03*
X200300000Y-117500000D03*
X172800000Y-100000000D03*
X162800000Y-27500000D03*
D17*
X136200000Y-68900000D03*
D16*
X155480000Y-33400000D03*
X160300000Y-27500000D03*
X202800000Y-110000000D03*
X95300000Y-117500000D03*
X147800000Y-100000000D03*
X187800000Y-62500000D03*
D17*
X116691000Y-103124500D03*
D16*
X170300000Y-75000000D03*
X160300000Y-142500000D03*
X125300000Y-40000000D03*
X100300000Y-92500000D03*
X159919975Y-32355025D03*
X171300000Y-61000000D03*
X176300000Y-46000000D03*
X167800000Y-27500000D03*
D17*
X137150000Y-67900000D03*
D16*
X162800000Y-90000000D03*
X182800000Y-72500000D03*
X158296210Y-60683495D03*
X140300000Y-127500000D03*
X117800000Y-30000000D03*
D17*
X105400000Y-57150000D03*
D16*
X110300000Y-97500000D03*
D17*
X192751606Y-90308500D03*
D16*
X147800000Y-137500000D03*
X162800000Y-117500000D03*
D17*
X187151062Y-121668540D03*
X192351606Y-88708500D03*
D16*
X135182568Y-102437305D03*
X92800000Y-140000000D03*
X105174718Y-89937413D03*
X122800000Y-88750000D03*
D17*
X122691000Y-99124500D03*
X164600000Y-121100000D03*
D16*
X182800000Y-42500000D03*
X127800000Y-40000000D03*
X122800000Y-92500000D03*
X180300000Y-72500000D03*
D17*
X139400000Y-57150000D03*
D16*
X132800000Y-40000000D03*
X163982886Y-67384997D03*
X170300000Y-77500000D03*
X181800000Y-45800000D03*
X150300000Y-75000000D03*
D17*
X197984606Y-102434500D03*
D16*
X172232920Y-63389216D03*
X197800000Y-37500000D03*
X192800000Y-35000000D03*
D17*
X143033124Y-122751932D03*
D16*
X159800000Y-87450003D03*
X177800000Y-37500000D03*
X180300000Y-40000000D03*
X145605368Y-84526003D03*
D17*
X137150000Y-48300000D03*
D16*
X125300000Y-27500000D03*
X102800000Y-135000000D03*
X115300000Y-120000000D03*
X175300000Y-40000000D03*
X112800000Y-142500000D03*
D17*
X116700000Y-104600000D03*
D16*
X150300000Y-135000000D03*
X200300000Y-37500000D03*
X200300000Y-112500000D03*
X142800000Y-142500000D03*
D17*
X199477606Y-110234500D03*
D16*
X160300000Y-145000000D03*
X190300000Y-42500000D03*
X140300000Y-27500000D03*
X132300000Y-55250000D03*
D17*
X180350000Y-123850000D03*
D16*
X160300000Y-40000000D03*
X175300000Y-37500000D03*
X107836490Y-74989604D03*
X150300000Y-137500000D03*
D17*
X188151062Y-121668540D03*
X161950000Y-123150000D03*
D16*
X166900000Y-99300000D03*
X120300000Y-88750000D03*
D17*
X139150000Y-51650000D03*
X119389438Y-69900968D03*
D16*
X185300000Y-50000000D03*
X110300000Y-95000000D03*
X167750000Y-64650000D03*
X122800000Y-40000000D03*
X164500000Y-99300000D03*
X186300000Y-63500000D03*
X182800000Y-27500000D03*
X155300000Y-140000000D03*
X150300000Y-102482602D03*
X140300000Y-50000000D03*
X150300000Y-42500000D03*
X152800000Y-142500000D03*
D17*
X137150000Y-66300000D03*
D16*
X195300000Y-117500000D03*
X125300000Y-88750000D03*
X155300000Y-102500000D03*
X95300000Y-80000000D03*
X132200000Y-46650000D03*
D17*
X99400000Y-57150000D03*
D16*
X197800000Y-50000000D03*
D17*
X195600000Y-95450000D03*
D16*
X152800000Y-135000000D03*
X202800000Y-87500000D03*
X95300000Y-127500000D03*
X192800000Y-37500000D03*
X176300000Y-69000000D03*
X137100000Y-106900000D03*
X120300000Y-40000000D03*
X168300000Y-33000000D03*
D17*
X199477606Y-104234500D03*
D16*
X162800000Y-35000000D03*
X158300000Y-27500000D03*
D17*
X107410562Y-57149032D03*
X185951606Y-84908500D03*
D16*
X120300000Y-32500000D03*
X95299999Y-122473687D03*
X192800000Y-50000000D03*
X197800000Y-60000000D03*
D17*
X123400000Y-69900000D03*
D16*
X100300000Y-147500000D03*
D17*
X129400000Y-57150000D03*
D16*
X152800000Y-145000000D03*
D17*
X126091000Y-94324500D03*
D16*
X162800000Y-40000000D03*
X187800000Y-117500000D03*
D17*
X140150000Y-52650000D03*
X93389438Y-43899032D03*
D16*
X102800000Y-37500000D03*
X132250000Y-68300000D03*
D17*
X133400000Y-44900000D03*
D16*
X134250000Y-117500000D03*
X97800000Y-80000000D03*
X107500000Y-120665000D03*
D17*
X189951606Y-86908500D03*
D16*
X120346994Y-92484299D03*
D17*
X97400000Y-43900000D03*
X122387951Y-145418350D03*
X188151062Y-123668540D03*
D16*
X165300000Y-145000000D03*
X160300000Y-132500000D03*
X105300000Y-130000000D03*
X142800000Y-37500000D03*
D17*
X138400000Y-60150000D03*
X113400000Y-44900000D03*
D16*
X160500000Y-49500000D03*
X120300000Y-37500000D03*
X175375989Y-102511598D03*
X185300000Y-37500000D03*
X185300000Y-115000000D03*
X142800000Y-47500000D03*
X174300000Y-68000000D03*
X183300000Y-50200000D03*
X185300000Y-40000000D03*
X95300000Y-87500000D03*
X152800000Y-37500000D03*
D17*
X138907000Y-88482500D03*
D16*
X170050000Y-68500000D03*
X146495013Y-49697507D03*
X187800000Y-102500000D03*
X107763509Y-129947916D03*
X100300000Y-90000000D03*
D17*
X133827000Y-88355500D03*
D16*
X172743212Y-102488401D03*
X117800000Y-127500000D03*
X102800000Y-122500000D03*
X135200000Y-100200000D03*
X144692224Y-83000000D03*
X135585496Y-68065442D03*
X186400000Y-64500000D03*
X202800000Y-50000000D03*
X95300000Y-102500000D03*
D17*
X185951606Y-82908500D03*
D16*
X177300000Y-59000000D03*
X202800000Y-85000000D03*
D17*
X143691000Y-87624500D03*
X132557000Y-87593500D03*
D16*
X130771333Y-34524833D03*
X177800000Y-35000000D03*
X191400000Y-112700000D03*
X182800000Y-32500000D03*
D17*
X128600000Y-129500000D03*
D16*
X172800000Y-82500000D03*
D17*
X196587606Y-97100500D03*
D16*
X180300000Y-35000000D03*
X102800000Y-92500000D03*
X122800000Y-30000000D03*
X197800000Y-62500000D03*
X165300000Y-42500000D03*
D17*
X199477606Y-106234500D03*
D16*
X190300000Y-35000000D03*
X168952192Y-52187041D03*
D17*
X199508606Y-102434500D03*
X115319784Y-124983604D03*
D16*
X107800000Y-110000000D03*
X107841341Y-77526095D03*
X197800000Y-115000000D03*
D17*
X111389438Y-69900968D03*
X133400000Y-57150000D03*
D16*
X107800000Y-112500000D03*
X190300000Y-57500000D03*
X137800000Y-42500000D03*
X142800000Y-50000000D03*
X160300000Y-97500000D03*
X157800000Y-145000000D03*
X135300000Y-127500000D03*
X180300000Y-30000000D03*
X192800000Y-27500000D03*
X165500000Y-34700000D03*
D17*
X131400000Y-44900000D03*
D16*
X202800000Y-107500000D03*
X173900000Y-56300000D03*
D17*
X140400000Y-58150000D03*
D16*
X181600000Y-53000000D03*
X166964000Y-79111500D03*
X150300000Y-90000000D03*
X105300000Y-127500000D03*
X145300000Y-142500000D03*
X162800000Y-42500000D03*
X185300000Y-100000000D03*
D17*
X129400000Y-69900000D03*
D16*
X172800000Y-75000000D03*
X177800000Y-32500000D03*
D17*
X101389438Y-70900968D03*
X196587606Y-99640500D03*
D16*
X177800000Y-142500000D03*
D17*
X198619606Y-109292500D03*
D16*
X187800000Y-40000000D03*
X105300000Y-135000000D03*
X151487000Y-88250000D03*
X110300000Y-27500000D03*
X112804851Y-77536491D03*
X142800000Y-40000000D03*
X97804851Y-77536491D03*
X202800000Y-97500000D03*
X192826203Y-57494910D03*
X107800000Y-132500000D03*
X195300000Y-47500000D03*
X137800000Y-27500000D03*
X175300000Y-57000000D03*
X159736398Y-56036398D03*
X157800000Y-43000000D03*
X157800000Y-137500000D03*
D17*
X122691000Y-103124500D03*
X116691000Y-97124500D03*
D16*
X187800000Y-42500000D03*
D17*
X183951606Y-80908500D03*
D16*
X97800000Y-40000000D03*
X107800000Y-27500000D03*
X92800000Y-80000000D03*
X105300000Y-125000000D03*
X175300000Y-27500000D03*
X190300000Y-37500000D03*
X185300000Y-35000000D03*
X170300000Y-135000000D03*
X185300000Y-45000000D03*
X192800000Y-32500000D03*
X170350000Y-57100000D03*
X140810050Y-76110050D03*
X177305171Y-63265502D03*
D17*
X141033124Y-122751932D03*
D16*
X179800000Y-57000000D03*
D17*
X130000000Y-129500000D03*
D16*
X117800000Y-135000000D03*
X115852754Y-77526095D03*
X157800000Y-130000000D03*
D17*
X203075000Y-131675000D03*
D16*
X195500000Y-66400000D03*
X152800000Y-40000000D03*
X154300000Y-97400000D03*
X153226951Y-52800000D03*
X140263602Y-65163602D03*
D17*
X161950000Y-124000000D03*
D16*
X122800000Y-27500000D03*
X190300000Y-60000000D03*
X175325756Y-63265502D03*
X140300000Y-40000000D03*
D17*
X137891000Y-89117500D03*
X99400000Y-43900000D03*
X127400000Y-69900000D03*
D16*
X200300000Y-82500000D03*
D17*
X199477606Y-108234500D03*
D16*
X97800000Y-95000000D03*
X132800000Y-105000000D03*
D17*
X198746606Y-101037500D03*
D16*
X200300000Y-92500000D03*
X192800000Y-55000000D03*
D17*
X189951606Y-82908500D03*
D16*
X190300000Y-47500000D03*
D17*
X198619606Y-103450500D03*
D16*
X190300000Y-55000000D03*
D17*
X116691000Y-101124500D03*
D16*
X142800000Y-42500000D03*
X115300000Y-27500000D03*
D17*
X125400000Y-44900000D03*
D16*
X105300000Y-27500000D03*
X172800000Y-145000000D03*
X202800000Y-37500000D03*
D17*
X140033124Y-121751932D03*
D16*
%TO.N,DISCHARGE_EN_LV*%
X131200000Y-115400000D03*
X159326551Y-59283499D03*
%TO.N,CHARGE_SAFE_LV*%
X158300000Y-59783500D03*
X190500000Y-112700000D03*
%TO.N,/MCU/SWO*%
X168600000Y-59100000D03*
X171600000Y-43300000D03*
%TO.N,/MCU/SWCLK*%
X165227084Y-62481884D03*
X168800000Y-51300000D03*
%TO.N,ISO_CAN1+*%
X166127000Y-98650000D03*
%TO.N,/MCU/TEST_LED*%
X161900000Y-56800000D03*
X169400000Y-37600000D03*
%TO.N,ISO_CAN1-*%
X165173000Y-98650000D03*
%TO.N,ISO_CAN2+*%
X155177000Y-98700000D03*
%TO.N,ISO_CAN2-*%
X154223000Y-98700000D03*
%TO.N,/MCU/SWDIO*%
X163500000Y-66600000D03*
X173800000Y-55400000D03*
%TO.N,/MCU/NRST*%
X172352750Y-53034626D03*
X181300000Y-52100000D03*
%TO.N,CHARGE_EN_LV*%
X106100000Y-117200000D03*
X160500000Y-58583500D03*
%TO.N,SPI1_NSS*%
X157252704Y-56447570D03*
X148700000Y-52400000D03*
%TO.N,CHARGE_PWR_LV_ISO*%
X151516500Y-60883500D03*
X182900000Y-125000000D03*
X179400000Y-148400000D03*
X140900000Y-65800000D03*
D17*
%TO.N,+5V*%
X130300000Y-33700000D03*
X150200000Y-83500000D03*
X100800000Y-106200000D03*
X145500000Y-83500000D03*
D16*
%TO.N,READY_PWR_LV_ISO*%
X181700000Y-125000000D03*
X157000000Y-60583500D03*
X178000000Y-146900000D03*
X142300000Y-72900000D03*
%TO.N,BQ_NFAULT*%
X144550000Y-64250000D03*
X145925000Y-60625000D03*
D17*
%TO.N,BQ_SPI_RDY*%
X154000000Y-53500000D03*
X150500000Y-54300000D03*
D16*
%TO.N,/MCU/SDIO_DET*%
X180700000Y-66600000D03*
X169300000Y-63300000D03*
%TO.N,FAN_EN_LV*%
X154216360Y-60883501D03*
X111200000Y-138100000D03*
%TO.N,ADC_IN*%
X161800000Y-55100000D03*
X159475000Y-29100000D03*
%TO.N,UART4_TX*%
X156500000Y-43900000D03*
X159100000Y-55400000D03*
%TD*%
%TA.AperFunction,Conductor*%
%TO.N,GND*%
G36*
X200302702Y-25500617D02*
G01*
X200686771Y-25517386D01*
X200697506Y-25518326D01*
X201075971Y-25568152D01*
X201086597Y-25570025D01*
X201459284Y-25652648D01*
X201469710Y-25655442D01*
X201833765Y-25770227D01*
X201843911Y-25773920D01*
X202196578Y-25920000D01*
X202206369Y-25924566D01*
X202544942Y-26100816D01*
X202554310Y-26106224D01*
X202876244Y-26311318D01*
X202885105Y-26317523D01*
X203187930Y-26549889D01*
X203196217Y-26556843D01*
X203477635Y-26814715D01*
X203485284Y-26822364D01*
X203743156Y-27103782D01*
X203750110Y-27112069D01*
X203982476Y-27414894D01*
X203988681Y-27423755D01*
X204193775Y-27745689D01*
X204199183Y-27755057D01*
X204375430Y-28093623D01*
X204380002Y-28103427D01*
X204526075Y-28456078D01*
X204529775Y-28466244D01*
X204644554Y-28830278D01*
X204647354Y-28840727D01*
X204729971Y-29213389D01*
X204731849Y-29224042D01*
X204781671Y-29602473D01*
X204782614Y-29613249D01*
X204799382Y-29997297D01*
X204799500Y-30002706D01*
X204799500Y-144997293D01*
X204799382Y-145002702D01*
X204782614Y-145386750D01*
X204781671Y-145397526D01*
X204731849Y-145775957D01*
X204729971Y-145786610D01*
X204647354Y-146159272D01*
X204644554Y-146169721D01*
X204529775Y-146533755D01*
X204526075Y-146543921D01*
X204380002Y-146896572D01*
X204375430Y-146906376D01*
X204199183Y-147244942D01*
X204193775Y-147254310D01*
X203988681Y-147576244D01*
X203982476Y-147585105D01*
X203750110Y-147887930D01*
X203743156Y-147896217D01*
X203485284Y-148177635D01*
X203477635Y-148185284D01*
X203196217Y-148443156D01*
X203187930Y-148450110D01*
X202885105Y-148682476D01*
X202876244Y-148688681D01*
X202554310Y-148893775D01*
X202544942Y-148899183D01*
X202206376Y-149075430D01*
X202196572Y-149080002D01*
X201843921Y-149226075D01*
X201833755Y-149229775D01*
X201469721Y-149344554D01*
X201459272Y-149347354D01*
X201086610Y-149429971D01*
X201075957Y-149431849D01*
X200697526Y-149481671D01*
X200686750Y-149482614D01*
X200302703Y-149499382D01*
X200297294Y-149499500D01*
X95302706Y-149499500D01*
X95297297Y-149499382D01*
X94913249Y-149482614D01*
X94902473Y-149481671D01*
X94524042Y-149431849D01*
X94513389Y-149429971D01*
X94140727Y-149347354D01*
X94130278Y-149344554D01*
X93766244Y-149229775D01*
X93756078Y-149226075D01*
X93403427Y-149080002D01*
X93393623Y-149075430D01*
X93055057Y-148899183D01*
X93045689Y-148893775D01*
X92723755Y-148688681D01*
X92714894Y-148682476D01*
X92412069Y-148450110D01*
X92403782Y-148443156D01*
X92356683Y-148399998D01*
X178794318Y-148399998D01*
X178794318Y-148400001D01*
X178814955Y-148556760D01*
X178814956Y-148556762D01*
X178867028Y-148682476D01*
X178875464Y-148702841D01*
X178971718Y-148828282D01*
X179097159Y-148924536D01*
X179243238Y-148985044D01*
X179321619Y-148995363D01*
X179399999Y-149005682D01*
X179400000Y-149005682D01*
X179400001Y-149005682D01*
X179452254Y-148998802D01*
X179556762Y-148985044D01*
X179702841Y-148924536D01*
X179828282Y-148828282D01*
X179924536Y-148702841D01*
X179985044Y-148556762D01*
X180005682Y-148400000D01*
X179985044Y-148243238D01*
X179924536Y-148097159D01*
X179828282Y-147971718D01*
X179702841Y-147875464D01*
X179556762Y-147814956D01*
X179556760Y-147814955D01*
X179400001Y-147794318D01*
X179399999Y-147794318D01*
X179243239Y-147814955D01*
X179243237Y-147814956D01*
X179097160Y-147875463D01*
X178971718Y-147971718D01*
X178875463Y-148097160D01*
X178814956Y-148243237D01*
X178814955Y-148243239D01*
X178794318Y-148399998D01*
X92356683Y-148399998D01*
X92122364Y-148185284D01*
X92114715Y-148177635D01*
X91856843Y-147896217D01*
X91849889Y-147887930D01*
X91617523Y-147585105D01*
X91611318Y-147576244D01*
X91406224Y-147254310D01*
X91400816Y-147244942D01*
X91378900Y-147202841D01*
X91224566Y-146906369D01*
X91221595Y-146899998D01*
X177394318Y-146899998D01*
X177394318Y-146900001D01*
X177414955Y-147056760D01*
X177414956Y-147056762D01*
X177475464Y-147202841D01*
X177571718Y-147328282D01*
X177697159Y-147424536D01*
X177843238Y-147485044D01*
X177921619Y-147495363D01*
X177999999Y-147505682D01*
X178000000Y-147505682D01*
X178000001Y-147505682D01*
X178052254Y-147498802D01*
X178156762Y-147485044D01*
X178302841Y-147424536D01*
X178428282Y-147328282D01*
X178524536Y-147202841D01*
X178585044Y-147056762D01*
X178605682Y-146900000D01*
X178585044Y-146743238D01*
X178524536Y-146597159D01*
X178428282Y-146471718D01*
X178302841Y-146375464D01*
X178257282Y-146356593D01*
X178156762Y-146314956D01*
X178156760Y-146314955D01*
X178000001Y-146294318D01*
X177999999Y-146294318D01*
X177843239Y-146314955D01*
X177843237Y-146314956D01*
X177697160Y-146375463D01*
X177571718Y-146471718D01*
X177475463Y-146597160D01*
X177414956Y-146743237D01*
X177414955Y-146743239D01*
X177394318Y-146899998D01*
X91221595Y-146899998D01*
X91219997Y-146896572D01*
X91167442Y-146769693D01*
X91073920Y-146543911D01*
X91070224Y-146533755D01*
X90955442Y-146169710D01*
X90952648Y-146159284D01*
X90870025Y-145786597D01*
X90868152Y-145775971D01*
X90818326Y-145397506D01*
X90817386Y-145386771D01*
X90800618Y-145002702D01*
X90800500Y-144997293D01*
X90800500Y-144881995D01*
X93499500Y-144881995D01*
X93499500Y-145118004D01*
X93499501Y-145118020D01*
X93530306Y-145352010D01*
X93591394Y-145579993D01*
X93681714Y-145798045D01*
X93681719Y-145798056D01*
X93752677Y-145920957D01*
X93799727Y-146002450D01*
X93799729Y-146002453D01*
X93799730Y-146002454D01*
X93943406Y-146189697D01*
X93943412Y-146189704D01*
X94110295Y-146356587D01*
X94110302Y-146356593D01*
X94220306Y-146441001D01*
X94297550Y-146500273D01*
X94364489Y-146538920D01*
X94501943Y-146618280D01*
X94501948Y-146618282D01*
X94501951Y-146618284D01*
X94720007Y-146708606D01*
X94947986Y-146769693D01*
X95181989Y-146800500D01*
X95181996Y-146800500D01*
X95418004Y-146800500D01*
X95418011Y-146800500D01*
X95652014Y-146769693D01*
X95879993Y-146708606D01*
X96098049Y-146618284D01*
X96302450Y-146500273D01*
X96489699Y-146356592D01*
X96656592Y-146189699D01*
X96800273Y-146002450D01*
X96918284Y-145798049D01*
X97008606Y-145579993D01*
X97069693Y-145352014D01*
X97100500Y-145118011D01*
X97100500Y-144881995D01*
X198499500Y-144881995D01*
X198499500Y-145118004D01*
X198499501Y-145118020D01*
X198530306Y-145352010D01*
X198591394Y-145579993D01*
X198681714Y-145798045D01*
X198681719Y-145798056D01*
X198752677Y-145920957D01*
X198799727Y-146002450D01*
X198799729Y-146002453D01*
X198799730Y-146002454D01*
X198943406Y-146189697D01*
X198943412Y-146189704D01*
X199110295Y-146356587D01*
X199110302Y-146356593D01*
X199220306Y-146441001D01*
X199297550Y-146500273D01*
X199364489Y-146538920D01*
X199501943Y-146618280D01*
X199501948Y-146618282D01*
X199501951Y-146618284D01*
X199720007Y-146708606D01*
X199947986Y-146769693D01*
X200181989Y-146800500D01*
X200181996Y-146800500D01*
X200418004Y-146800500D01*
X200418011Y-146800500D01*
X200652014Y-146769693D01*
X200879993Y-146708606D01*
X201098049Y-146618284D01*
X201302450Y-146500273D01*
X201489699Y-146356592D01*
X201656592Y-146189699D01*
X201800273Y-146002450D01*
X201918284Y-145798049D01*
X202008606Y-145579993D01*
X202069693Y-145352014D01*
X202100500Y-145118011D01*
X202100500Y-144881989D01*
X202069693Y-144647986D01*
X202008606Y-144420007D01*
X201918284Y-144201951D01*
X201918282Y-144201948D01*
X201918280Y-144201943D01*
X201876118Y-144128918D01*
X201800273Y-143997550D01*
X201656592Y-143810301D01*
X201656587Y-143810295D01*
X201489704Y-143643412D01*
X201489697Y-143643406D01*
X201302454Y-143499730D01*
X201302453Y-143499729D01*
X201302450Y-143499727D01*
X201220957Y-143452677D01*
X201098056Y-143381719D01*
X201098045Y-143381714D01*
X200879993Y-143291394D01*
X200652010Y-143230306D01*
X200418020Y-143199501D01*
X200418017Y-143199500D01*
X200418011Y-143199500D01*
X200181989Y-143199500D01*
X200181983Y-143199500D01*
X200181979Y-143199501D01*
X199947989Y-143230306D01*
X199720006Y-143291394D01*
X199501954Y-143381714D01*
X199501943Y-143381719D01*
X199297545Y-143499730D01*
X199110302Y-143643406D01*
X199110295Y-143643412D01*
X198943412Y-143810295D01*
X198943406Y-143810302D01*
X198799730Y-143997545D01*
X198681719Y-144201943D01*
X198681714Y-144201954D01*
X198591394Y-144420006D01*
X198530306Y-144647989D01*
X198499501Y-144881979D01*
X198499500Y-144881995D01*
X97100500Y-144881995D01*
X97100500Y-144881989D01*
X97069693Y-144647986D01*
X97008606Y-144420007D01*
X96918284Y-144201951D01*
X96918282Y-144201948D01*
X96918280Y-144201943D01*
X96876118Y-144128918D01*
X96800273Y-143997550D01*
X96656592Y-143810301D01*
X96656587Y-143810295D01*
X96489704Y-143643412D01*
X96489697Y-143643406D01*
X96302454Y-143499730D01*
X96302453Y-143499729D01*
X96302450Y-143499727D01*
X96220957Y-143452677D01*
X96098056Y-143381719D01*
X96098045Y-143381714D01*
X95879993Y-143291394D01*
X95652010Y-143230306D01*
X95418020Y-143199501D01*
X95418017Y-143199500D01*
X95418011Y-143199500D01*
X95181989Y-143199500D01*
X95181983Y-143199500D01*
X95181979Y-143199501D01*
X94947989Y-143230306D01*
X94720006Y-143291394D01*
X94501954Y-143381714D01*
X94501943Y-143381719D01*
X94297545Y-143499730D01*
X94110302Y-143643406D01*
X94110295Y-143643412D01*
X93943412Y-143810295D01*
X93943406Y-143810302D01*
X93799730Y-143997545D01*
X93681719Y-144201943D01*
X93681714Y-144201954D01*
X93591394Y-144420006D01*
X93530306Y-144647989D01*
X93499501Y-144881979D01*
X93499500Y-144881995D01*
X90800500Y-144881995D01*
X90800500Y-138099998D01*
X110594318Y-138099998D01*
X110594318Y-138100001D01*
X110614955Y-138256760D01*
X110614956Y-138256762D01*
X110675464Y-138402841D01*
X110771718Y-138528282D01*
X110897159Y-138624536D01*
X111043238Y-138685044D01*
X111121619Y-138695363D01*
X111199999Y-138705682D01*
X111200000Y-138705682D01*
X111200001Y-138705682D01*
X111252254Y-138698802D01*
X111356762Y-138685044D01*
X111502841Y-138624536D01*
X111628282Y-138528282D01*
X111724536Y-138402841D01*
X111785044Y-138256762D01*
X111805682Y-138100000D01*
X111785044Y-137943238D01*
X111724536Y-137797159D01*
X111628282Y-137671718D01*
X111551102Y-137612496D01*
X139304500Y-137612496D01*
X139304500Y-137612503D01*
X139324484Y-137955613D01*
X139324485Y-137955624D01*
X139384163Y-138294075D01*
X139384166Y-138294088D01*
X139482737Y-138623340D01*
X139618865Y-138938917D01*
X139618871Y-138938930D01*
X139790716Y-139236575D01*
X139995952Y-139512255D01*
X139995957Y-139512261D01*
X140117767Y-139641371D01*
X140231813Y-139762253D01*
X140231819Y-139762258D01*
X140231821Y-139762260D01*
X140495093Y-139983172D01*
X140495098Y-139983175D01*
X140782250Y-140172038D01*
X140884329Y-140223304D01*
X141089378Y-140326285D01*
X141089384Y-140326287D01*
X141089386Y-140326288D01*
X141412353Y-140443838D01*
X141746783Y-140523099D01*
X142088153Y-140563000D01*
X142088160Y-140563000D01*
X142431840Y-140563000D01*
X142431847Y-140563000D01*
X142773217Y-140523099D01*
X143107647Y-140443838D01*
X143430614Y-140326288D01*
X143430617Y-140326286D01*
X143430621Y-140326285D01*
X143534487Y-140274120D01*
X143737750Y-140172038D01*
X144024902Y-139983175D01*
X144288187Y-139762253D01*
X144524044Y-139512259D01*
X144729284Y-139236574D01*
X144901131Y-138938926D01*
X145037262Y-138623341D01*
X145135834Y-138294085D01*
X145142416Y-138256760D01*
X145195514Y-137955624D01*
X145195513Y-137955624D01*
X145195516Y-137955613D01*
X145215500Y-137612500D01*
X145215500Y-137612496D01*
X172654500Y-137612496D01*
X172654500Y-137612503D01*
X172674484Y-137955613D01*
X172674485Y-137955624D01*
X172734163Y-138294075D01*
X172734166Y-138294088D01*
X172832737Y-138623340D01*
X172968865Y-138938917D01*
X172968871Y-138938930D01*
X173140716Y-139236575D01*
X173345952Y-139512255D01*
X173345957Y-139512261D01*
X173467767Y-139641371D01*
X173581813Y-139762253D01*
X173581819Y-139762258D01*
X173581821Y-139762260D01*
X173845093Y-139983172D01*
X173845098Y-139983175D01*
X174132250Y-140172038D01*
X174234329Y-140223304D01*
X174439378Y-140326285D01*
X174439384Y-140326287D01*
X174439386Y-140326288D01*
X174762353Y-140443838D01*
X175096783Y-140523099D01*
X175438153Y-140563000D01*
X175438160Y-140563000D01*
X175781840Y-140563000D01*
X175781847Y-140563000D01*
X176123217Y-140523099D01*
X176457647Y-140443838D01*
X176780614Y-140326288D01*
X176780617Y-140326286D01*
X176780621Y-140326285D01*
X176884487Y-140274120D01*
X177087750Y-140172038D01*
X177374902Y-139983175D01*
X177638187Y-139762253D01*
X177874044Y-139512259D01*
X178079284Y-139236574D01*
X178251131Y-138938926D01*
X178387262Y-138623341D01*
X178485834Y-138294085D01*
X178492416Y-138256760D01*
X178545514Y-137955624D01*
X178545513Y-137955624D01*
X178545516Y-137955613D01*
X178565500Y-137612500D01*
X178545516Y-137269387D01*
X178485834Y-136930915D01*
X178387262Y-136601659D01*
X178251131Y-136286074D01*
X178079284Y-135988426D01*
X178079283Y-135988424D01*
X177874047Y-135712744D01*
X177874042Y-135712738D01*
X177759998Y-135591859D01*
X177638187Y-135462747D01*
X177638180Y-135462741D01*
X177638178Y-135462739D01*
X177374906Y-135241827D01*
X177231326Y-135147393D01*
X177087750Y-135052962D01*
X177085956Y-135052061D01*
X176780621Y-134898714D01*
X176780615Y-134898712D01*
X176457648Y-134781162D01*
X176457645Y-134781161D01*
X176123218Y-134701901D01*
X176080545Y-134696913D01*
X175781847Y-134662000D01*
X175438153Y-134662000D01*
X175139454Y-134696913D01*
X175096782Y-134701901D01*
X175096780Y-134701901D01*
X174762354Y-134781161D01*
X174762351Y-134781162D01*
X174439384Y-134898712D01*
X174439378Y-134898714D01*
X174132253Y-135052960D01*
X173845093Y-135241827D01*
X173581821Y-135462739D01*
X173581811Y-135462749D01*
X173345957Y-135712738D01*
X173345952Y-135712744D01*
X173140716Y-135988424D01*
X172968871Y-136286069D01*
X172968865Y-136286082D01*
X172832737Y-136601659D01*
X172734166Y-136930911D01*
X172734163Y-136930924D01*
X172674485Y-137269375D01*
X172674484Y-137269386D01*
X172654500Y-137612496D01*
X145215500Y-137612496D01*
X145195516Y-137269387D01*
X145135834Y-136930915D01*
X145037262Y-136601659D01*
X144901131Y-136286074D01*
X144729284Y-135988426D01*
X144729283Y-135988424D01*
X144524047Y-135712744D01*
X144524042Y-135712738D01*
X144409998Y-135591859D01*
X144288187Y-135462747D01*
X144288180Y-135462741D01*
X144288178Y-135462739D01*
X144024906Y-135241827D01*
X143881326Y-135147393D01*
X143737750Y-135052962D01*
X143735956Y-135052061D01*
X143430621Y-134898714D01*
X143430615Y-134898712D01*
X143107648Y-134781162D01*
X143107645Y-134781161D01*
X142773218Y-134701901D01*
X142730545Y-134696913D01*
X142431847Y-134662000D01*
X142088153Y-134662000D01*
X141789454Y-134696913D01*
X141746782Y-134701901D01*
X141746780Y-134701901D01*
X141412354Y-134781161D01*
X141412351Y-134781162D01*
X141089384Y-134898712D01*
X141089378Y-134898714D01*
X140782253Y-135052960D01*
X140495093Y-135241827D01*
X140231821Y-135462739D01*
X140231811Y-135462749D01*
X139995957Y-135712738D01*
X139995952Y-135712744D01*
X139790716Y-135988424D01*
X139618871Y-136286069D01*
X139618865Y-136286082D01*
X139482737Y-136601659D01*
X139384166Y-136930911D01*
X139384163Y-136930924D01*
X139324485Y-137269375D01*
X139324484Y-137269386D01*
X139304500Y-137612496D01*
X111551102Y-137612496D01*
X111502841Y-137575464D01*
X111356762Y-137514956D01*
X111356760Y-137514955D01*
X111200001Y-137494318D01*
X111199999Y-137494318D01*
X111043239Y-137514955D01*
X111043237Y-137514956D01*
X110897160Y-137575463D01*
X110771718Y-137671718D01*
X110675463Y-137797160D01*
X110614956Y-137943237D01*
X110614955Y-137943239D01*
X110594318Y-138099998D01*
X90800500Y-138099998D01*
X90800500Y-131662498D01*
X141229819Y-131662498D01*
X141229819Y-131662501D01*
X141248507Y-131876113D01*
X141248509Y-131876124D01*
X141304005Y-132083239D01*
X141304007Y-132083243D01*
X141304008Y-132083247D01*
X141349320Y-132180419D01*
X141394631Y-132277590D01*
X141431028Y-132329570D01*
X141517627Y-132453245D01*
X141669255Y-132604873D01*
X141844909Y-132727868D01*
X142039253Y-132818492D01*
X142246381Y-132873992D01*
X142398966Y-132887341D01*
X142459998Y-132892681D01*
X142460000Y-132892681D01*
X142460002Y-132892681D01*
X142513404Y-132888008D01*
X142673619Y-132873992D01*
X142880747Y-132818492D01*
X143075091Y-132727868D01*
X143250745Y-132604873D01*
X143402373Y-132453245D01*
X143458426Y-132373192D01*
X143513002Y-132329570D01*
X143582501Y-132322377D01*
X143644855Y-132353899D01*
X143661571Y-132373190D01*
X143717627Y-132453245D01*
X143869255Y-132604873D01*
X144044909Y-132727868D01*
X144239253Y-132818492D01*
X144446381Y-132873992D01*
X144598966Y-132887341D01*
X144659998Y-132892681D01*
X144660000Y-132892681D01*
X144660002Y-132892681D01*
X144713404Y-132888008D01*
X144873619Y-132873992D01*
X145080747Y-132818492D01*
X145275091Y-132727868D01*
X145450745Y-132604873D01*
X145602373Y-132453245D01*
X145658426Y-132373192D01*
X145713002Y-132329570D01*
X145782501Y-132322377D01*
X145844855Y-132353899D01*
X145861571Y-132373190D01*
X145917627Y-132453245D01*
X146069255Y-132604873D01*
X146244909Y-132727868D01*
X146439253Y-132818492D01*
X146646381Y-132873992D01*
X146798966Y-132887341D01*
X146859998Y-132892681D01*
X146860000Y-132892681D01*
X146860002Y-132892681D01*
X146913404Y-132888008D01*
X147073619Y-132873992D01*
X147280747Y-132818492D01*
X147475091Y-132727868D01*
X147650745Y-132604873D01*
X147802373Y-132453245D01*
X147858426Y-132373192D01*
X147913002Y-132329570D01*
X147982501Y-132322377D01*
X148044855Y-132353899D01*
X148061571Y-132373190D01*
X148117627Y-132453245D01*
X148269255Y-132604873D01*
X148444909Y-132727868D01*
X148639253Y-132818492D01*
X148846381Y-132873992D01*
X148998966Y-132887341D01*
X149059998Y-132892681D01*
X149060000Y-132892681D01*
X149060002Y-132892681D01*
X149113404Y-132888008D01*
X149273619Y-132873992D01*
X149480747Y-132818492D01*
X149675091Y-132727868D01*
X149850745Y-132604873D01*
X150002373Y-132453245D01*
X150058426Y-132373192D01*
X150113002Y-132329570D01*
X150182501Y-132322377D01*
X150244855Y-132353899D01*
X150261571Y-132373190D01*
X150317627Y-132453245D01*
X150469255Y-132604873D01*
X150644909Y-132727868D01*
X150839253Y-132818492D01*
X151046381Y-132873992D01*
X151198966Y-132887341D01*
X151259998Y-132892681D01*
X151260000Y-132892681D01*
X151260002Y-132892681D01*
X151313404Y-132888008D01*
X151473619Y-132873992D01*
X151680747Y-132818492D01*
X151875091Y-132727868D01*
X152050745Y-132604873D01*
X152202373Y-132453245D01*
X152258426Y-132373192D01*
X152313002Y-132329570D01*
X152382501Y-132322377D01*
X152444855Y-132353899D01*
X152461571Y-132373190D01*
X152517627Y-132453245D01*
X152669255Y-132604873D01*
X152844909Y-132727868D01*
X153039253Y-132818492D01*
X153246381Y-132873992D01*
X153398966Y-132887341D01*
X153459998Y-132892681D01*
X153460000Y-132892681D01*
X153460002Y-132892681D01*
X153513404Y-132888008D01*
X153673619Y-132873992D01*
X153880747Y-132818492D01*
X154075091Y-132727868D01*
X154250745Y-132604873D01*
X154402373Y-132453245D01*
X154458426Y-132373192D01*
X154513002Y-132329570D01*
X154582501Y-132322377D01*
X154644855Y-132353899D01*
X154661571Y-132373190D01*
X154717627Y-132453245D01*
X154869255Y-132604873D01*
X155044909Y-132727868D01*
X155239253Y-132818492D01*
X155446381Y-132873992D01*
X155598966Y-132887341D01*
X155659998Y-132892681D01*
X155660000Y-132892681D01*
X155660002Y-132892681D01*
X155713404Y-132888008D01*
X155873619Y-132873992D01*
X156080747Y-132818492D01*
X156275091Y-132727868D01*
X156450745Y-132604873D01*
X156602373Y-132453245D01*
X156725368Y-132277591D01*
X156815992Y-132083247D01*
X156871492Y-131876119D01*
X156890181Y-131662500D01*
X156890181Y-131662498D01*
X161029819Y-131662498D01*
X161029819Y-131662501D01*
X161048507Y-131876113D01*
X161048509Y-131876124D01*
X161104005Y-132083239D01*
X161104007Y-132083243D01*
X161104008Y-132083247D01*
X161149320Y-132180419D01*
X161194631Y-132277590D01*
X161231028Y-132329570D01*
X161317627Y-132453245D01*
X161469255Y-132604873D01*
X161644909Y-132727868D01*
X161839253Y-132818492D01*
X162046381Y-132873992D01*
X162198966Y-132887341D01*
X162259998Y-132892681D01*
X162260000Y-132892681D01*
X162260002Y-132892681D01*
X162313404Y-132888008D01*
X162473619Y-132873992D01*
X162680747Y-132818492D01*
X162875091Y-132727868D01*
X163050745Y-132604873D01*
X163202373Y-132453245D01*
X163258426Y-132373192D01*
X163313002Y-132329570D01*
X163382501Y-132322377D01*
X163444855Y-132353899D01*
X163461571Y-132373190D01*
X163517627Y-132453245D01*
X163669255Y-132604873D01*
X163844909Y-132727868D01*
X164039253Y-132818492D01*
X164246381Y-132873992D01*
X164398966Y-132887341D01*
X164459998Y-132892681D01*
X164460000Y-132892681D01*
X164460002Y-132892681D01*
X164513404Y-132888008D01*
X164673619Y-132873992D01*
X164880747Y-132818492D01*
X165075091Y-132727868D01*
X165250745Y-132604873D01*
X165402373Y-132453245D01*
X165458426Y-132373192D01*
X165513002Y-132329570D01*
X165582501Y-132322377D01*
X165644855Y-132353899D01*
X165661571Y-132373190D01*
X165717627Y-132453245D01*
X165869255Y-132604873D01*
X166044909Y-132727868D01*
X166239253Y-132818492D01*
X166446381Y-132873992D01*
X166598966Y-132887341D01*
X166659998Y-132892681D01*
X166660000Y-132892681D01*
X166660002Y-132892681D01*
X166713404Y-132888008D01*
X166873619Y-132873992D01*
X167080747Y-132818492D01*
X167275091Y-132727868D01*
X167450745Y-132604873D01*
X167602373Y-132453245D01*
X167658426Y-132373192D01*
X167713002Y-132329570D01*
X167782501Y-132322377D01*
X167844855Y-132353899D01*
X167861571Y-132373190D01*
X167917627Y-132453245D01*
X168069255Y-132604873D01*
X168244909Y-132727868D01*
X168439253Y-132818492D01*
X168646381Y-132873992D01*
X168798966Y-132887341D01*
X168859998Y-132892681D01*
X168860000Y-132892681D01*
X168860002Y-132892681D01*
X168913404Y-132888008D01*
X169073619Y-132873992D01*
X169280747Y-132818492D01*
X169475091Y-132727868D01*
X169650745Y-132604873D01*
X169802373Y-132453245D01*
X169858426Y-132373192D01*
X169913002Y-132329570D01*
X169982501Y-132322377D01*
X170044855Y-132353899D01*
X170061571Y-132373190D01*
X170117627Y-132453245D01*
X170269255Y-132604873D01*
X170444909Y-132727868D01*
X170639253Y-132818492D01*
X170846381Y-132873992D01*
X170998966Y-132887341D01*
X171059998Y-132892681D01*
X171060000Y-132892681D01*
X171060002Y-132892681D01*
X171113404Y-132888008D01*
X171273619Y-132873992D01*
X171480747Y-132818492D01*
X171675091Y-132727868D01*
X171850745Y-132604873D01*
X172002373Y-132453245D01*
X172058426Y-132373192D01*
X172113002Y-132329570D01*
X172182501Y-132322377D01*
X172244855Y-132353899D01*
X172261571Y-132373190D01*
X172317627Y-132453245D01*
X172469255Y-132604873D01*
X172644909Y-132727868D01*
X172839253Y-132818492D01*
X173046381Y-132873992D01*
X173198966Y-132887341D01*
X173259998Y-132892681D01*
X173260000Y-132892681D01*
X173260002Y-132892681D01*
X173313404Y-132888008D01*
X173473619Y-132873992D01*
X173680747Y-132818492D01*
X173875091Y-132727868D01*
X174050745Y-132604873D01*
X174202373Y-132453245D01*
X174258426Y-132373192D01*
X174313002Y-132329570D01*
X174382501Y-132322377D01*
X174444855Y-132353899D01*
X174461571Y-132373190D01*
X174517627Y-132453245D01*
X174669255Y-132604873D01*
X174844909Y-132727868D01*
X175039253Y-132818492D01*
X175246381Y-132873992D01*
X175398966Y-132887341D01*
X175459998Y-132892681D01*
X175460000Y-132892681D01*
X175460002Y-132892681D01*
X175513404Y-132888008D01*
X175673619Y-132873992D01*
X175880747Y-132818492D01*
X176075091Y-132727868D01*
X176250745Y-132604873D01*
X176402373Y-132453245D01*
X176525368Y-132277591D01*
X176615992Y-132083247D01*
X176671492Y-131876119D01*
X176690181Y-131662500D01*
X176671492Y-131448881D01*
X176615992Y-131241753D01*
X176525368Y-131047410D01*
X176494008Y-131002624D01*
X176402376Y-130871759D01*
X176402371Y-130871753D01*
X176250745Y-130720127D01*
X176075090Y-130597131D01*
X175977919Y-130551820D01*
X175880747Y-130506508D01*
X175880743Y-130506507D01*
X175880739Y-130506505D01*
X175673624Y-130451009D01*
X175673620Y-130451008D01*
X175673619Y-130451008D01*
X175673618Y-130451007D01*
X175673613Y-130451007D01*
X175460002Y-130432319D01*
X175459998Y-130432319D01*
X175246386Y-130451007D01*
X175246375Y-130451009D01*
X175039260Y-130506505D01*
X175039251Y-130506509D01*
X174844910Y-130597131D01*
X174844908Y-130597132D01*
X174669259Y-130720123D01*
X174669253Y-130720128D01*
X174517628Y-130871753D01*
X174517623Y-130871760D01*
X174461575Y-130951805D01*
X174406998Y-130995430D01*
X174337500Y-131002624D01*
X174275145Y-130971101D01*
X174258425Y-130951805D01*
X174234760Y-130918009D01*
X174202373Y-130871755D01*
X174050745Y-130720127D01*
X173875091Y-130597132D01*
X173875092Y-130597132D01*
X173875090Y-130597131D01*
X173777919Y-130551820D01*
X173680747Y-130506508D01*
X173680743Y-130506507D01*
X173680739Y-130506505D01*
X173473624Y-130451009D01*
X173473620Y-130451008D01*
X173473619Y-130451008D01*
X173473618Y-130451007D01*
X173473613Y-130451007D01*
X173260002Y-130432319D01*
X173259998Y-130432319D01*
X173046386Y-130451007D01*
X173046375Y-130451009D01*
X172839260Y-130506505D01*
X172839251Y-130506509D01*
X172644910Y-130597131D01*
X172644908Y-130597132D01*
X172469259Y-130720123D01*
X172469253Y-130720128D01*
X172317628Y-130871753D01*
X172317623Y-130871760D01*
X172261575Y-130951805D01*
X172206998Y-130995430D01*
X172137500Y-131002624D01*
X172075145Y-130971101D01*
X172058425Y-130951805D01*
X172034760Y-130918009D01*
X172002373Y-130871755D01*
X171850745Y-130720127D01*
X171675091Y-130597132D01*
X171675092Y-130597132D01*
X171675090Y-130597131D01*
X171577919Y-130551820D01*
X171480747Y-130506508D01*
X171480743Y-130506507D01*
X171480739Y-130506505D01*
X171273624Y-130451009D01*
X171273620Y-130451008D01*
X171273619Y-130451008D01*
X171273618Y-130451007D01*
X171273613Y-130451007D01*
X171060002Y-130432319D01*
X171059998Y-130432319D01*
X170846386Y-130451007D01*
X170846375Y-130451009D01*
X170639260Y-130506505D01*
X170639251Y-130506509D01*
X170444910Y-130597131D01*
X170444908Y-130597132D01*
X170269259Y-130720123D01*
X170269253Y-130720128D01*
X170117628Y-130871753D01*
X170117623Y-130871760D01*
X170061575Y-130951805D01*
X170006998Y-130995430D01*
X169937500Y-131002624D01*
X169875145Y-130971101D01*
X169858425Y-130951805D01*
X169834760Y-130918009D01*
X169802373Y-130871755D01*
X169650745Y-130720127D01*
X169475091Y-130597132D01*
X169475092Y-130597132D01*
X169475090Y-130597131D01*
X169377919Y-130551820D01*
X169280747Y-130506508D01*
X169280743Y-130506507D01*
X169280739Y-130506505D01*
X169073624Y-130451009D01*
X169073620Y-130451008D01*
X169073619Y-130451008D01*
X169073618Y-130451007D01*
X169073613Y-130451007D01*
X168860002Y-130432319D01*
X168859998Y-130432319D01*
X168646386Y-130451007D01*
X168646375Y-130451009D01*
X168439260Y-130506505D01*
X168439251Y-130506509D01*
X168244910Y-130597131D01*
X168244908Y-130597132D01*
X168069259Y-130720123D01*
X168069253Y-130720128D01*
X167917628Y-130871753D01*
X167917623Y-130871760D01*
X167861575Y-130951805D01*
X167806998Y-130995430D01*
X167737500Y-131002624D01*
X167675145Y-130971101D01*
X167658425Y-130951805D01*
X167634760Y-130918009D01*
X167602373Y-130871755D01*
X167450745Y-130720127D01*
X167275091Y-130597132D01*
X167275092Y-130597132D01*
X167275090Y-130597131D01*
X167177919Y-130551820D01*
X167080747Y-130506508D01*
X167080743Y-130506507D01*
X167080739Y-130506505D01*
X166873624Y-130451009D01*
X166873620Y-130451008D01*
X166873619Y-130451008D01*
X166873618Y-130451007D01*
X166873613Y-130451007D01*
X166660002Y-130432319D01*
X166659998Y-130432319D01*
X166446386Y-130451007D01*
X166446375Y-130451009D01*
X166239260Y-130506505D01*
X166239251Y-130506509D01*
X166044910Y-130597131D01*
X166044908Y-130597132D01*
X165869259Y-130720123D01*
X165869253Y-130720128D01*
X165717628Y-130871753D01*
X165717623Y-130871760D01*
X165661575Y-130951805D01*
X165606998Y-130995430D01*
X165537500Y-131002624D01*
X165475145Y-130971101D01*
X165458425Y-130951805D01*
X165434760Y-130918009D01*
X165402373Y-130871755D01*
X165250745Y-130720127D01*
X165075091Y-130597132D01*
X165075092Y-130597132D01*
X165075090Y-130597131D01*
X164977919Y-130551820D01*
X164880747Y-130506508D01*
X164880743Y-130506507D01*
X164880739Y-130506505D01*
X164673624Y-130451009D01*
X164673620Y-130451008D01*
X164673619Y-130451008D01*
X164673618Y-130451007D01*
X164673613Y-130451007D01*
X164460002Y-130432319D01*
X164459998Y-130432319D01*
X164246386Y-130451007D01*
X164246375Y-130451009D01*
X164039260Y-130506505D01*
X164039251Y-130506509D01*
X163844910Y-130597131D01*
X163844908Y-130597132D01*
X163669259Y-130720123D01*
X163669253Y-130720128D01*
X163517628Y-130871753D01*
X163517623Y-130871760D01*
X163461575Y-130951805D01*
X163406998Y-130995430D01*
X163337500Y-131002624D01*
X163275145Y-130971101D01*
X163258425Y-130951805D01*
X163234760Y-130918009D01*
X163202373Y-130871755D01*
X163050745Y-130720127D01*
X162875091Y-130597132D01*
X162875092Y-130597132D01*
X162875090Y-130597131D01*
X162777919Y-130551820D01*
X162680747Y-130506508D01*
X162680743Y-130506507D01*
X162680739Y-130506505D01*
X162473624Y-130451009D01*
X162473620Y-130451008D01*
X162473619Y-130451008D01*
X162473618Y-130451007D01*
X162473613Y-130451007D01*
X162260002Y-130432319D01*
X162259998Y-130432319D01*
X162046386Y-130451007D01*
X162046375Y-130451009D01*
X161839260Y-130506505D01*
X161839251Y-130506509D01*
X161644910Y-130597131D01*
X161644908Y-130597132D01*
X161469259Y-130720123D01*
X161469253Y-130720128D01*
X161317628Y-130871753D01*
X161317623Y-130871759D01*
X161194632Y-131047408D01*
X161194631Y-131047410D01*
X161104009Y-131241751D01*
X161104005Y-131241760D01*
X161048509Y-131448875D01*
X161048507Y-131448886D01*
X161029819Y-131662498D01*
X156890181Y-131662498D01*
X156871492Y-131448881D01*
X156815992Y-131241753D01*
X156725368Y-131047410D01*
X156694008Y-131002624D01*
X156602376Y-130871759D01*
X156602371Y-130871753D01*
X156450745Y-130720127D01*
X156275090Y-130597131D01*
X156177919Y-130551820D01*
X156080747Y-130506508D01*
X156080743Y-130506507D01*
X156080739Y-130506505D01*
X155873624Y-130451009D01*
X155873620Y-130451008D01*
X155873619Y-130451008D01*
X155873618Y-130451007D01*
X155873613Y-130451007D01*
X155660002Y-130432319D01*
X155659998Y-130432319D01*
X155446386Y-130451007D01*
X155446375Y-130451009D01*
X155239260Y-130506505D01*
X155239251Y-130506509D01*
X155044910Y-130597131D01*
X155044908Y-130597132D01*
X154869259Y-130720123D01*
X154869253Y-130720128D01*
X154717628Y-130871753D01*
X154717623Y-130871760D01*
X154661575Y-130951805D01*
X154606998Y-130995430D01*
X154537500Y-131002624D01*
X154475145Y-130971101D01*
X154458425Y-130951805D01*
X154434760Y-130918009D01*
X154402373Y-130871755D01*
X154250745Y-130720127D01*
X154075091Y-130597132D01*
X154075092Y-130597132D01*
X154075090Y-130597131D01*
X153977919Y-130551820D01*
X153880747Y-130506508D01*
X153880743Y-130506507D01*
X153880739Y-130506505D01*
X153673624Y-130451009D01*
X153673620Y-130451008D01*
X153673619Y-130451008D01*
X153673618Y-130451007D01*
X153673613Y-130451007D01*
X153460002Y-130432319D01*
X153459998Y-130432319D01*
X153246386Y-130451007D01*
X153246375Y-130451009D01*
X153039260Y-130506505D01*
X153039251Y-130506509D01*
X152844910Y-130597131D01*
X152844908Y-130597132D01*
X152669259Y-130720123D01*
X152669253Y-130720128D01*
X152517628Y-130871753D01*
X152517623Y-130871760D01*
X152461575Y-130951805D01*
X152406998Y-130995430D01*
X152337500Y-131002624D01*
X152275145Y-130971101D01*
X152258425Y-130951805D01*
X152234760Y-130918009D01*
X152202373Y-130871755D01*
X152050745Y-130720127D01*
X151875091Y-130597132D01*
X151875092Y-130597132D01*
X151875090Y-130597131D01*
X151777919Y-130551820D01*
X151680747Y-130506508D01*
X151680743Y-130506507D01*
X151680739Y-130506505D01*
X151473624Y-130451009D01*
X151473620Y-130451008D01*
X151473619Y-130451008D01*
X151473618Y-130451007D01*
X151473613Y-130451007D01*
X151260002Y-130432319D01*
X151259998Y-130432319D01*
X151046386Y-130451007D01*
X151046375Y-130451009D01*
X150839260Y-130506505D01*
X150839251Y-130506509D01*
X150644910Y-130597131D01*
X150644908Y-130597132D01*
X150469259Y-130720123D01*
X150469253Y-130720128D01*
X150317628Y-130871753D01*
X150317623Y-130871760D01*
X150261575Y-130951805D01*
X150206998Y-130995430D01*
X150137500Y-131002624D01*
X150075145Y-130971101D01*
X150058425Y-130951805D01*
X150034760Y-130918009D01*
X150002373Y-130871755D01*
X149850745Y-130720127D01*
X149675091Y-130597132D01*
X149675092Y-130597132D01*
X149675090Y-130597131D01*
X149577919Y-130551820D01*
X149480747Y-130506508D01*
X149480743Y-130506507D01*
X149480739Y-130506505D01*
X149273624Y-130451009D01*
X149273620Y-130451008D01*
X149273619Y-130451008D01*
X149273618Y-130451007D01*
X149273613Y-130451007D01*
X149060002Y-130432319D01*
X149059998Y-130432319D01*
X148846386Y-130451007D01*
X148846375Y-130451009D01*
X148639260Y-130506505D01*
X148639251Y-130506509D01*
X148444910Y-130597131D01*
X148444908Y-130597132D01*
X148269259Y-130720123D01*
X148269253Y-130720128D01*
X148117628Y-130871753D01*
X148117623Y-130871760D01*
X148061575Y-130951805D01*
X148006998Y-130995430D01*
X147937500Y-131002624D01*
X147875145Y-130971101D01*
X147858425Y-130951805D01*
X147834760Y-130918009D01*
X147802373Y-130871755D01*
X147650745Y-130720127D01*
X147475091Y-130597132D01*
X147475092Y-130597132D01*
X147475090Y-130597131D01*
X147377919Y-130551820D01*
X147280747Y-130506508D01*
X147280743Y-130506507D01*
X147280739Y-130506505D01*
X147073624Y-130451009D01*
X147073620Y-130451008D01*
X147073619Y-130451008D01*
X147073618Y-130451007D01*
X147073613Y-130451007D01*
X146860002Y-130432319D01*
X146859998Y-130432319D01*
X146646386Y-130451007D01*
X146646375Y-130451009D01*
X146439260Y-130506505D01*
X146439251Y-130506509D01*
X146244910Y-130597131D01*
X146244908Y-130597132D01*
X146069259Y-130720123D01*
X146069253Y-130720128D01*
X145917628Y-130871753D01*
X145917623Y-130871760D01*
X145861575Y-130951805D01*
X145806998Y-130995430D01*
X145737500Y-131002624D01*
X145675145Y-130971101D01*
X145658425Y-130951805D01*
X145634760Y-130918009D01*
X145602373Y-130871755D01*
X145450745Y-130720127D01*
X145275091Y-130597132D01*
X145275092Y-130597132D01*
X145275090Y-130597131D01*
X145177919Y-130551820D01*
X145080747Y-130506508D01*
X145080743Y-130506507D01*
X145080739Y-130506505D01*
X144873624Y-130451009D01*
X144873620Y-130451008D01*
X144873619Y-130451008D01*
X144873618Y-130451007D01*
X144873613Y-130451007D01*
X144660002Y-130432319D01*
X144659998Y-130432319D01*
X144446386Y-130451007D01*
X144446375Y-130451009D01*
X144239260Y-130506505D01*
X144239251Y-130506509D01*
X144044910Y-130597131D01*
X144044908Y-130597132D01*
X143869259Y-130720123D01*
X143869253Y-130720128D01*
X143717628Y-130871753D01*
X143717623Y-130871760D01*
X143661575Y-130951805D01*
X143606998Y-130995430D01*
X143537500Y-131002624D01*
X143475145Y-130971101D01*
X143458425Y-130951805D01*
X143434760Y-130918009D01*
X143402373Y-130871755D01*
X143250745Y-130720127D01*
X143075091Y-130597132D01*
X143075092Y-130597132D01*
X143075090Y-130597131D01*
X142977919Y-130551820D01*
X142880747Y-130506508D01*
X142880743Y-130506507D01*
X142880739Y-130506505D01*
X142673624Y-130451009D01*
X142673620Y-130451008D01*
X142673619Y-130451008D01*
X142673618Y-130451007D01*
X142673613Y-130451007D01*
X142460002Y-130432319D01*
X142459998Y-130432319D01*
X142246386Y-130451007D01*
X142246375Y-130451009D01*
X142039260Y-130506505D01*
X142039251Y-130506509D01*
X141844910Y-130597131D01*
X141844908Y-130597132D01*
X141669259Y-130720123D01*
X141669253Y-130720128D01*
X141517628Y-130871753D01*
X141517623Y-130871759D01*
X141394632Y-131047408D01*
X141394631Y-131047410D01*
X141304009Y-131241751D01*
X141304005Y-131241760D01*
X141248509Y-131448875D01*
X141248507Y-131448886D01*
X141229819Y-131662498D01*
X90800500Y-131662498D01*
X90800500Y-127162498D01*
X145029819Y-127162498D01*
X145029819Y-127162501D01*
X145048507Y-127376113D01*
X145048509Y-127376124D01*
X145104005Y-127583239D01*
X145104007Y-127583243D01*
X145104008Y-127583247D01*
X145149320Y-127680419D01*
X145194631Y-127777590D01*
X145231028Y-127829570D01*
X145317627Y-127953245D01*
X145469255Y-128104873D01*
X145644909Y-128227868D01*
X145839253Y-128318492D01*
X146046381Y-128373992D01*
X146198966Y-128387341D01*
X146259998Y-128392681D01*
X146260000Y-128392681D01*
X146260002Y-128392681D01*
X146313404Y-128388008D01*
X146473619Y-128373992D01*
X146680747Y-128318492D01*
X146875091Y-128227868D01*
X147050745Y-128104873D01*
X147202373Y-127953245D01*
X147325368Y-127777591D01*
X147415992Y-127583247D01*
X147471492Y-127376119D01*
X147490181Y-127162500D01*
X147490181Y-127162498D01*
X149029819Y-127162498D01*
X149029819Y-127162501D01*
X149048507Y-127376113D01*
X149048509Y-127376124D01*
X149104005Y-127583239D01*
X149104007Y-127583243D01*
X149104008Y-127583247D01*
X149149320Y-127680419D01*
X149194631Y-127777590D01*
X149231028Y-127829570D01*
X149317627Y-127953245D01*
X149469255Y-128104873D01*
X149644909Y-128227868D01*
X149839253Y-128318492D01*
X150046381Y-128373992D01*
X150198966Y-128387341D01*
X150259998Y-128392681D01*
X150260000Y-128392681D01*
X150260002Y-128392681D01*
X150313404Y-128388008D01*
X150473619Y-128373992D01*
X150680747Y-128318492D01*
X150875091Y-128227868D01*
X151050745Y-128104873D01*
X151202373Y-127953245D01*
X151325368Y-127777591D01*
X151415992Y-127583247D01*
X151471492Y-127376119D01*
X151490181Y-127162500D01*
X151490181Y-127162498D01*
X152229819Y-127162498D01*
X152229819Y-127162501D01*
X152248507Y-127376113D01*
X152248509Y-127376124D01*
X152304005Y-127583239D01*
X152304007Y-127583243D01*
X152304008Y-127583247D01*
X152349320Y-127680419D01*
X152394631Y-127777590D01*
X152431028Y-127829570D01*
X152517627Y-127953245D01*
X152669255Y-128104873D01*
X152844909Y-128227868D01*
X153039253Y-128318492D01*
X153246381Y-128373992D01*
X153398966Y-128387341D01*
X153459998Y-128392681D01*
X153460000Y-128392681D01*
X153460002Y-128392681D01*
X153513404Y-128388008D01*
X153673619Y-128373992D01*
X153880747Y-128318492D01*
X154075091Y-128227868D01*
X154250745Y-128104873D01*
X154402373Y-127953245D01*
X154458426Y-127873192D01*
X154513002Y-127829570D01*
X154582501Y-127822377D01*
X154644855Y-127853899D01*
X154661571Y-127873190D01*
X154717627Y-127953245D01*
X154869255Y-128104873D01*
X155044909Y-128227868D01*
X155239253Y-128318492D01*
X155446381Y-128373992D01*
X155598966Y-128387341D01*
X155659998Y-128392681D01*
X155660000Y-128392681D01*
X155660002Y-128392681D01*
X155713404Y-128388008D01*
X155873619Y-128373992D01*
X156080747Y-128318492D01*
X156275091Y-128227868D01*
X156450745Y-128104873D01*
X156602373Y-127953245D01*
X156658426Y-127873192D01*
X156713002Y-127829570D01*
X156782501Y-127822377D01*
X156844855Y-127853899D01*
X156861571Y-127873190D01*
X156917627Y-127953245D01*
X157069255Y-128104873D01*
X157244909Y-128227868D01*
X157439253Y-128318492D01*
X157646381Y-128373992D01*
X157798966Y-128387341D01*
X157859998Y-128392681D01*
X157860000Y-128392681D01*
X157860002Y-128392681D01*
X157913404Y-128388008D01*
X158073619Y-128373992D01*
X158280747Y-128318492D01*
X158475091Y-128227868D01*
X158650745Y-128104873D01*
X158802373Y-127953245D01*
X158858426Y-127873192D01*
X158913002Y-127829570D01*
X158982501Y-127822377D01*
X159044855Y-127853899D01*
X159061571Y-127873190D01*
X159117627Y-127953245D01*
X159269255Y-128104873D01*
X159444909Y-128227868D01*
X159639253Y-128318492D01*
X159846381Y-128373992D01*
X159998966Y-128387341D01*
X160059998Y-128392681D01*
X160060000Y-128392681D01*
X160060002Y-128392681D01*
X160113404Y-128388008D01*
X160273619Y-128373992D01*
X160480747Y-128318492D01*
X160675091Y-128227868D01*
X160850745Y-128104873D01*
X161002373Y-127953245D01*
X161058426Y-127873192D01*
X161113002Y-127829570D01*
X161182501Y-127822377D01*
X161244855Y-127853899D01*
X161261571Y-127873190D01*
X161317627Y-127953245D01*
X161469255Y-128104873D01*
X161644909Y-128227868D01*
X161839253Y-128318492D01*
X162046381Y-128373992D01*
X162198966Y-128387341D01*
X162259998Y-128392681D01*
X162260000Y-128392681D01*
X162260002Y-128392681D01*
X162313404Y-128388008D01*
X162473619Y-128373992D01*
X162680747Y-128318492D01*
X162875091Y-128227868D01*
X163050745Y-128104873D01*
X163202373Y-127953245D01*
X163258426Y-127873192D01*
X163313002Y-127829570D01*
X163382501Y-127822377D01*
X163444855Y-127853899D01*
X163461571Y-127873190D01*
X163517627Y-127953245D01*
X163669255Y-128104873D01*
X163844909Y-128227868D01*
X164039253Y-128318492D01*
X164246381Y-128373992D01*
X164398966Y-128387341D01*
X164459998Y-128392681D01*
X164460000Y-128392681D01*
X164460002Y-128392681D01*
X164513404Y-128388008D01*
X164673619Y-128373992D01*
X164880747Y-128318492D01*
X165075091Y-128227868D01*
X165250745Y-128104873D01*
X165402373Y-127953245D01*
X165525368Y-127777591D01*
X165615992Y-127583247D01*
X165671492Y-127376119D01*
X165690181Y-127162500D01*
X165690181Y-127162498D01*
X166429819Y-127162498D01*
X166429819Y-127162501D01*
X166448507Y-127376113D01*
X166448509Y-127376124D01*
X166504005Y-127583239D01*
X166504007Y-127583243D01*
X166504008Y-127583247D01*
X166549320Y-127680419D01*
X166594631Y-127777590D01*
X166631028Y-127829570D01*
X166717627Y-127953245D01*
X166869255Y-128104873D01*
X167044909Y-128227868D01*
X167239253Y-128318492D01*
X167446381Y-128373992D01*
X167598966Y-128387341D01*
X167659998Y-128392681D01*
X167660000Y-128392681D01*
X167660002Y-128392681D01*
X167713404Y-128388008D01*
X167873619Y-128373992D01*
X168080747Y-128318492D01*
X168275091Y-128227868D01*
X168450745Y-128104873D01*
X168602373Y-127953245D01*
X168725368Y-127777591D01*
X168815992Y-127583247D01*
X168871492Y-127376119D01*
X168890181Y-127162500D01*
X168890181Y-127162498D01*
X170429819Y-127162498D01*
X170429819Y-127162501D01*
X170448507Y-127376113D01*
X170448509Y-127376124D01*
X170504005Y-127583239D01*
X170504007Y-127583243D01*
X170504008Y-127583247D01*
X170549320Y-127680419D01*
X170594631Y-127777590D01*
X170631028Y-127829570D01*
X170717627Y-127953245D01*
X170869255Y-128104873D01*
X171044909Y-128227868D01*
X171239253Y-128318492D01*
X171446381Y-128373992D01*
X171598966Y-128387341D01*
X171659998Y-128392681D01*
X171660000Y-128392681D01*
X171660002Y-128392681D01*
X171713404Y-128388008D01*
X171873619Y-128373992D01*
X172080747Y-128318492D01*
X172275091Y-128227868D01*
X172450745Y-128104873D01*
X172602373Y-127953245D01*
X172725368Y-127777591D01*
X172815992Y-127583247D01*
X172871492Y-127376119D01*
X172890181Y-127162500D01*
X172890181Y-127162498D01*
X174429819Y-127162498D01*
X174429819Y-127162501D01*
X174448507Y-127376113D01*
X174448509Y-127376124D01*
X174504005Y-127583239D01*
X174504007Y-127583243D01*
X174504008Y-127583247D01*
X174549320Y-127680419D01*
X174594631Y-127777590D01*
X174631028Y-127829570D01*
X174717627Y-127953245D01*
X174869255Y-128104873D01*
X175044909Y-128227868D01*
X175239253Y-128318492D01*
X175446381Y-128373992D01*
X175598966Y-128387341D01*
X175659998Y-128392681D01*
X175660000Y-128392681D01*
X175660002Y-128392681D01*
X175713404Y-128388008D01*
X175873619Y-128373992D01*
X176080747Y-128318492D01*
X176275091Y-128227868D01*
X176450745Y-128104873D01*
X176602373Y-127953245D01*
X176725368Y-127777591D01*
X176815992Y-127583247D01*
X176871492Y-127376119D01*
X176890181Y-127162500D01*
X176871492Y-126948881D01*
X176815992Y-126741753D01*
X176725368Y-126547410D01*
X176694008Y-126502624D01*
X176602376Y-126371759D01*
X176602371Y-126371753D01*
X176450745Y-126220127D01*
X176275090Y-126097131D01*
X176177919Y-126051820D01*
X176080747Y-126006508D01*
X176080743Y-126006507D01*
X176080739Y-126006505D01*
X175873624Y-125951009D01*
X175873620Y-125951008D01*
X175873619Y-125951008D01*
X175873618Y-125951007D01*
X175873613Y-125951007D01*
X175660002Y-125932319D01*
X175659998Y-125932319D01*
X175446386Y-125951007D01*
X175446375Y-125951009D01*
X175239260Y-126006505D01*
X175239251Y-126006509D01*
X175044910Y-126097131D01*
X175044908Y-126097132D01*
X174869259Y-126220123D01*
X174869253Y-126220128D01*
X174717628Y-126371753D01*
X174717623Y-126371759D01*
X174594632Y-126547408D01*
X174594631Y-126547410D01*
X174504009Y-126741751D01*
X174504005Y-126741760D01*
X174448509Y-126948875D01*
X174448507Y-126948886D01*
X174429819Y-127162498D01*
X172890181Y-127162498D01*
X172871492Y-126948881D01*
X172815992Y-126741753D01*
X172725368Y-126547410D01*
X172694008Y-126502624D01*
X172602376Y-126371759D01*
X172602371Y-126371753D01*
X172450745Y-126220127D01*
X172275090Y-126097131D01*
X172177919Y-126051820D01*
X172080747Y-126006508D01*
X172080743Y-126006507D01*
X172080739Y-126006505D01*
X171873624Y-125951009D01*
X171873620Y-125951008D01*
X171873619Y-125951008D01*
X171873618Y-125951007D01*
X171873613Y-125951007D01*
X171660002Y-125932319D01*
X171659998Y-125932319D01*
X171446386Y-125951007D01*
X171446375Y-125951009D01*
X171239260Y-126006505D01*
X171239251Y-126006509D01*
X171044910Y-126097131D01*
X171044908Y-126097132D01*
X170869259Y-126220123D01*
X170869253Y-126220128D01*
X170717628Y-126371753D01*
X170717623Y-126371759D01*
X170594632Y-126547408D01*
X170594631Y-126547410D01*
X170504009Y-126741751D01*
X170504005Y-126741760D01*
X170448509Y-126948875D01*
X170448507Y-126948886D01*
X170429819Y-127162498D01*
X168890181Y-127162498D01*
X168871492Y-126948881D01*
X168815992Y-126741753D01*
X168725368Y-126547410D01*
X168694008Y-126502624D01*
X168602376Y-126371759D01*
X168602371Y-126371753D01*
X168450745Y-126220127D01*
X168275090Y-126097131D01*
X168177919Y-126051820D01*
X168080747Y-126006508D01*
X168080743Y-126006507D01*
X168080739Y-126006505D01*
X167873624Y-125951009D01*
X167873620Y-125951008D01*
X167873619Y-125951008D01*
X167873618Y-125951007D01*
X167873613Y-125951007D01*
X167660002Y-125932319D01*
X167659998Y-125932319D01*
X167446386Y-125951007D01*
X167446375Y-125951009D01*
X167239260Y-126006505D01*
X167239251Y-126006509D01*
X167044910Y-126097131D01*
X167044908Y-126097132D01*
X166869259Y-126220123D01*
X166869253Y-126220128D01*
X166717628Y-126371753D01*
X166717623Y-126371759D01*
X166594632Y-126547408D01*
X166594631Y-126547410D01*
X166504009Y-126741751D01*
X166504005Y-126741760D01*
X166448509Y-126948875D01*
X166448507Y-126948886D01*
X166429819Y-127162498D01*
X165690181Y-127162498D01*
X165671492Y-126948881D01*
X165615992Y-126741753D01*
X165525368Y-126547410D01*
X165494008Y-126502624D01*
X165402376Y-126371759D01*
X165402371Y-126371753D01*
X165250745Y-126220127D01*
X165075090Y-126097131D01*
X164977919Y-126051820D01*
X164880747Y-126006508D01*
X164880743Y-126006507D01*
X164880739Y-126006505D01*
X164673624Y-125951009D01*
X164673620Y-125951008D01*
X164673619Y-125951008D01*
X164673618Y-125951007D01*
X164673613Y-125951007D01*
X164460002Y-125932319D01*
X164459998Y-125932319D01*
X164246386Y-125951007D01*
X164246375Y-125951009D01*
X164039260Y-126006505D01*
X164039251Y-126006509D01*
X163844910Y-126097131D01*
X163844908Y-126097132D01*
X163669259Y-126220123D01*
X163669253Y-126220128D01*
X163517628Y-126371753D01*
X163517623Y-126371760D01*
X163461575Y-126451805D01*
X163406998Y-126495430D01*
X163337500Y-126502624D01*
X163275145Y-126471101D01*
X163258425Y-126451805D01*
X163234760Y-126418009D01*
X163202373Y-126371755D01*
X163050745Y-126220127D01*
X162875091Y-126097132D01*
X162875092Y-126097132D01*
X162875090Y-126097131D01*
X162777919Y-126051820D01*
X162680747Y-126006508D01*
X162680743Y-126006507D01*
X162680739Y-126006505D01*
X162473624Y-125951009D01*
X162473620Y-125951008D01*
X162473619Y-125951008D01*
X162473618Y-125951007D01*
X162473613Y-125951007D01*
X162260002Y-125932319D01*
X162259998Y-125932319D01*
X162046386Y-125951007D01*
X162046375Y-125951009D01*
X161839260Y-126006505D01*
X161839251Y-126006509D01*
X161644910Y-126097131D01*
X161644908Y-126097132D01*
X161469259Y-126220123D01*
X161469253Y-126220128D01*
X161317628Y-126371753D01*
X161317623Y-126371760D01*
X161261575Y-126451805D01*
X161206998Y-126495430D01*
X161137500Y-126502624D01*
X161075145Y-126471101D01*
X161058425Y-126451805D01*
X161034760Y-126418009D01*
X161002373Y-126371755D01*
X160850745Y-126220127D01*
X160675091Y-126097132D01*
X160675092Y-126097132D01*
X160675090Y-126097131D01*
X160577919Y-126051820D01*
X160480747Y-126006508D01*
X160480743Y-126006507D01*
X160480739Y-126006505D01*
X160273624Y-125951009D01*
X160273620Y-125951008D01*
X160273619Y-125951008D01*
X160273618Y-125951007D01*
X160273613Y-125951007D01*
X160060002Y-125932319D01*
X160059998Y-125932319D01*
X159846386Y-125951007D01*
X159846375Y-125951009D01*
X159639260Y-126006505D01*
X159639251Y-126006509D01*
X159444910Y-126097131D01*
X159444908Y-126097132D01*
X159269259Y-126220123D01*
X159269253Y-126220128D01*
X159117628Y-126371753D01*
X159117623Y-126371760D01*
X159061575Y-126451805D01*
X159006998Y-126495430D01*
X158937500Y-126502624D01*
X158875145Y-126471101D01*
X158858425Y-126451805D01*
X158834760Y-126418009D01*
X158802373Y-126371755D01*
X158650745Y-126220127D01*
X158475091Y-126097132D01*
X158475092Y-126097132D01*
X158475090Y-126097131D01*
X158377919Y-126051820D01*
X158280747Y-126006508D01*
X158280743Y-126006507D01*
X158280739Y-126006505D01*
X158073624Y-125951009D01*
X158073620Y-125951008D01*
X158073619Y-125951008D01*
X158073618Y-125951007D01*
X158073613Y-125951007D01*
X157860002Y-125932319D01*
X157859998Y-125932319D01*
X157646386Y-125951007D01*
X157646375Y-125951009D01*
X157439260Y-126006505D01*
X157439251Y-126006509D01*
X157244910Y-126097131D01*
X157244908Y-126097132D01*
X157069259Y-126220123D01*
X157069253Y-126220128D01*
X156917628Y-126371753D01*
X156917623Y-126371760D01*
X156861575Y-126451805D01*
X156806998Y-126495430D01*
X156737500Y-126502624D01*
X156675145Y-126471101D01*
X156658425Y-126451805D01*
X156634760Y-126418009D01*
X156602373Y-126371755D01*
X156450745Y-126220127D01*
X156275091Y-126097132D01*
X156275092Y-126097132D01*
X156275090Y-126097131D01*
X156177919Y-126051820D01*
X156080747Y-126006508D01*
X156080743Y-126006507D01*
X156080739Y-126006505D01*
X155873624Y-125951009D01*
X155873620Y-125951008D01*
X155873619Y-125951008D01*
X155873618Y-125951007D01*
X155873613Y-125951007D01*
X155660002Y-125932319D01*
X155659998Y-125932319D01*
X155446386Y-125951007D01*
X155446375Y-125951009D01*
X155239260Y-126006505D01*
X155239251Y-126006509D01*
X155044910Y-126097131D01*
X155044908Y-126097132D01*
X154869259Y-126220123D01*
X154869253Y-126220128D01*
X154717628Y-126371753D01*
X154717623Y-126371760D01*
X154661575Y-126451805D01*
X154606998Y-126495430D01*
X154537500Y-126502624D01*
X154475145Y-126471101D01*
X154458425Y-126451805D01*
X154434760Y-126418009D01*
X154402373Y-126371755D01*
X154250745Y-126220127D01*
X154075091Y-126097132D01*
X154075092Y-126097132D01*
X154075090Y-126097131D01*
X153977919Y-126051820D01*
X153880747Y-126006508D01*
X153880743Y-126006507D01*
X153880739Y-126006505D01*
X153673624Y-125951009D01*
X153673620Y-125951008D01*
X153673619Y-125951008D01*
X153673618Y-125951007D01*
X153673613Y-125951007D01*
X153460002Y-125932319D01*
X153459998Y-125932319D01*
X153246386Y-125951007D01*
X153246375Y-125951009D01*
X153039260Y-126006505D01*
X153039251Y-126006509D01*
X152844910Y-126097131D01*
X152844908Y-126097132D01*
X152669259Y-126220123D01*
X152669253Y-126220128D01*
X152517628Y-126371753D01*
X152517623Y-126371759D01*
X152394632Y-126547408D01*
X152394631Y-126547410D01*
X152304009Y-126741751D01*
X152304005Y-126741760D01*
X152248509Y-126948875D01*
X152248507Y-126948886D01*
X152229819Y-127162498D01*
X151490181Y-127162498D01*
X151471492Y-126948881D01*
X151415992Y-126741753D01*
X151325368Y-126547410D01*
X151294008Y-126502624D01*
X151202376Y-126371759D01*
X151202371Y-126371753D01*
X151050745Y-126220127D01*
X150875090Y-126097131D01*
X150777919Y-126051820D01*
X150680747Y-126006508D01*
X150680743Y-126006507D01*
X150680739Y-126006505D01*
X150473624Y-125951009D01*
X150473620Y-125951008D01*
X150473619Y-125951008D01*
X150473618Y-125951007D01*
X150473613Y-125951007D01*
X150260002Y-125932319D01*
X150259998Y-125932319D01*
X150046386Y-125951007D01*
X150046375Y-125951009D01*
X149839260Y-126006505D01*
X149839251Y-126006509D01*
X149644910Y-126097131D01*
X149644908Y-126097132D01*
X149469259Y-126220123D01*
X149469253Y-126220128D01*
X149317628Y-126371753D01*
X149317623Y-126371759D01*
X149194632Y-126547408D01*
X149194631Y-126547410D01*
X149104009Y-126741751D01*
X149104005Y-126741760D01*
X149048509Y-126948875D01*
X149048507Y-126948886D01*
X149029819Y-127162498D01*
X147490181Y-127162498D01*
X147471492Y-126948881D01*
X147415992Y-126741753D01*
X147325368Y-126547410D01*
X147294008Y-126502624D01*
X147202376Y-126371759D01*
X147202371Y-126371753D01*
X147050745Y-126220127D01*
X146875090Y-126097131D01*
X146777919Y-126051820D01*
X146680747Y-126006508D01*
X146680743Y-126006507D01*
X146680739Y-126006505D01*
X146473624Y-125951009D01*
X146473620Y-125951008D01*
X146473619Y-125951008D01*
X146473618Y-125951007D01*
X146473613Y-125951007D01*
X146260002Y-125932319D01*
X146259998Y-125932319D01*
X146046386Y-125951007D01*
X146046375Y-125951009D01*
X145839260Y-126006505D01*
X145839251Y-126006509D01*
X145644910Y-126097131D01*
X145644908Y-126097132D01*
X145469259Y-126220123D01*
X145469253Y-126220128D01*
X145317628Y-126371753D01*
X145317623Y-126371759D01*
X145194632Y-126547408D01*
X145194631Y-126547410D01*
X145104009Y-126741751D01*
X145104005Y-126741760D01*
X145048509Y-126948875D01*
X145048507Y-126948886D01*
X145029819Y-127162498D01*
X90800500Y-127162498D01*
X90800500Y-124999998D01*
X181094318Y-124999998D01*
X181094318Y-125000001D01*
X181114955Y-125156760D01*
X181114956Y-125156762D01*
X181175464Y-125302841D01*
X181271718Y-125428282D01*
X181397159Y-125524536D01*
X181543238Y-125585044D01*
X181621619Y-125595363D01*
X181699999Y-125605682D01*
X181700000Y-125605682D01*
X181700001Y-125605682D01*
X181752254Y-125598802D01*
X181856762Y-125585044D01*
X182002841Y-125524536D01*
X182128282Y-125428282D01*
X182201625Y-125332699D01*
X182258052Y-125291497D01*
X182327798Y-125287342D01*
X182388718Y-125321554D01*
X182398372Y-125332695D01*
X182471718Y-125428282D01*
X182597159Y-125524536D01*
X182743238Y-125585044D01*
X182821619Y-125595363D01*
X182899999Y-125605682D01*
X182900000Y-125605682D01*
X182900001Y-125605682D01*
X182952254Y-125598802D01*
X183056762Y-125585044D01*
X183202841Y-125524536D01*
X183328282Y-125428282D01*
X183424536Y-125302841D01*
X183485044Y-125156762D01*
X183505682Y-125000000D01*
X183485044Y-124843238D01*
X183424536Y-124697159D01*
X183328282Y-124571718D01*
X183202841Y-124475464D01*
X183056762Y-124414956D01*
X183056760Y-124414955D01*
X182900001Y-124394318D01*
X182899999Y-124394318D01*
X182743239Y-124414955D01*
X182743237Y-124414956D01*
X182597160Y-124475463D01*
X182471718Y-124571718D01*
X182398376Y-124667300D01*
X182341948Y-124708502D01*
X182272202Y-124712657D01*
X182211281Y-124678444D01*
X182201624Y-124667300D01*
X182128282Y-124571718D01*
X182002841Y-124475464D01*
X181856762Y-124414956D01*
X181856760Y-124414955D01*
X181700001Y-124394318D01*
X181699999Y-124394318D01*
X181543239Y-124414955D01*
X181543237Y-124414956D01*
X181397160Y-124475463D01*
X181271718Y-124571718D01*
X181175463Y-124697160D01*
X181114956Y-124843237D01*
X181114955Y-124843239D01*
X181094318Y-124999998D01*
X90800500Y-124999998D01*
X90800500Y-117199998D01*
X105494318Y-117199998D01*
X105494318Y-117200001D01*
X105514955Y-117356760D01*
X105514956Y-117356762D01*
X105575464Y-117502841D01*
X105671718Y-117628282D01*
X105797159Y-117724536D01*
X105943238Y-117785044D01*
X106021619Y-117795363D01*
X106099999Y-117805682D01*
X106100000Y-117805682D01*
X106100001Y-117805682D01*
X106152254Y-117798802D01*
X106256762Y-117785044D01*
X106402841Y-117724536D01*
X106528282Y-117628282D01*
X106624536Y-117502841D01*
X106685044Y-117356762D01*
X106705682Y-117200000D01*
X106685044Y-117043238D01*
X106624536Y-116897159D01*
X106528282Y-116771718D01*
X106402841Y-116675464D01*
X106256762Y-116614956D01*
X106256760Y-116614955D01*
X106100001Y-116594318D01*
X106099999Y-116594318D01*
X105943239Y-116614955D01*
X105943237Y-116614956D01*
X105797160Y-116675463D01*
X105671718Y-116771718D01*
X105575463Y-116897160D01*
X105514956Y-117043237D01*
X105514955Y-117043239D01*
X105494318Y-117199998D01*
X90800500Y-117199998D01*
X90800500Y-115399998D01*
X130594318Y-115399998D01*
X130594318Y-115400001D01*
X130614955Y-115556760D01*
X130614956Y-115556762D01*
X130675464Y-115702841D01*
X130771718Y-115828282D01*
X130897159Y-115924536D01*
X131043238Y-115985044D01*
X131121619Y-115995363D01*
X131199999Y-116005682D01*
X131200000Y-116005682D01*
X131200001Y-116005682D01*
X131252254Y-115998802D01*
X131356762Y-115985044D01*
X131502841Y-115924536D01*
X131628282Y-115828282D01*
X131724536Y-115702841D01*
X131785044Y-115556762D01*
X131805682Y-115400000D01*
X131785044Y-115243238D01*
X131724536Y-115097159D01*
X131628282Y-114971718D01*
X131502841Y-114875464D01*
X131356762Y-114814956D01*
X131356760Y-114814955D01*
X131200001Y-114794318D01*
X131199999Y-114794318D01*
X131043239Y-114814955D01*
X131043237Y-114814956D01*
X130897160Y-114875463D01*
X130771718Y-114971718D01*
X130675463Y-115097160D01*
X130614956Y-115243237D01*
X130614955Y-115243239D01*
X130594318Y-115399998D01*
X90800500Y-115399998D01*
X90800500Y-112699998D01*
X189894318Y-112699998D01*
X189894318Y-112700001D01*
X189914955Y-112856760D01*
X189914956Y-112856762D01*
X189975464Y-113002841D01*
X190071718Y-113128282D01*
X190197159Y-113224536D01*
X190343238Y-113285044D01*
X190421619Y-113295363D01*
X190499999Y-113305682D01*
X190500000Y-113305682D01*
X190500001Y-113305682D01*
X190552254Y-113298802D01*
X190656762Y-113285044D01*
X190802841Y-113224536D01*
X190928282Y-113128282D01*
X191024536Y-113002841D01*
X191085044Y-112856762D01*
X191105682Y-112700000D01*
X191085044Y-112543238D01*
X191024536Y-112397159D01*
X190928282Y-112271718D01*
X190802841Y-112175464D01*
X190656762Y-112114956D01*
X190656760Y-112114955D01*
X190500001Y-112094318D01*
X190499999Y-112094318D01*
X190343239Y-112114955D01*
X190343237Y-112114956D01*
X190197160Y-112175463D01*
X190071718Y-112271718D01*
X189975463Y-112397160D01*
X189914956Y-112543237D01*
X189914955Y-112543239D01*
X189894318Y-112699998D01*
X90800500Y-112699998D01*
X90800500Y-106199999D01*
X100144722Y-106199999D01*
X100144722Y-106200000D01*
X100163762Y-106356818D01*
X100219780Y-106504523D01*
X100309517Y-106634530D01*
X100427760Y-106739283D01*
X100427762Y-106739284D01*
X100567634Y-106812696D01*
X100721014Y-106850500D01*
X100721015Y-106850500D01*
X100878985Y-106850500D01*
X101032365Y-106812696D01*
X101172240Y-106739283D01*
X101290483Y-106634530D01*
X101380220Y-106504523D01*
X101436237Y-106356818D01*
X101455278Y-106200000D01*
X101436237Y-106043182D01*
X101380220Y-105895477D01*
X101290483Y-105765470D01*
X101172240Y-105660717D01*
X101172238Y-105660716D01*
X101172237Y-105660715D01*
X101032365Y-105587303D01*
X100878986Y-105549500D01*
X100878985Y-105549500D01*
X100721015Y-105549500D01*
X100721014Y-105549500D01*
X100567634Y-105587303D01*
X100427762Y-105660715D01*
X100309516Y-105765471D01*
X100219781Y-105895475D01*
X100219780Y-105895476D01*
X100163762Y-106043181D01*
X100144722Y-106199999D01*
X90800500Y-106199999D01*
X90800500Y-98699998D01*
X153617318Y-98699998D01*
X153617318Y-98700001D01*
X153637955Y-98856760D01*
X153637956Y-98856762D01*
X153698464Y-99002841D01*
X153794718Y-99128282D01*
X153920159Y-99224536D01*
X154066238Y-99285044D01*
X154144619Y-99295363D01*
X154222999Y-99305682D01*
X154223000Y-99305682D01*
X154223001Y-99305682D01*
X154275254Y-99298802D01*
X154379762Y-99285044D01*
X154525841Y-99224536D01*
X154624514Y-99148821D01*
X154689682Y-99123627D01*
X154758127Y-99137665D01*
X154775482Y-99148819D01*
X154808996Y-99174535D01*
X154874157Y-99224535D01*
X154874158Y-99224535D01*
X154874159Y-99224536D01*
X155020238Y-99285044D01*
X155098619Y-99295363D01*
X155176999Y-99305682D01*
X155177000Y-99305682D01*
X155177001Y-99305682D01*
X155229254Y-99298802D01*
X155333762Y-99285044D01*
X155479841Y-99224536D01*
X155605282Y-99128282D01*
X155701536Y-99002841D01*
X155762044Y-98856762D01*
X155782682Y-98700000D01*
X155776099Y-98650000D01*
X155776099Y-98649998D01*
X164567318Y-98649998D01*
X164567318Y-98650001D01*
X164587955Y-98806760D01*
X164587956Y-98806762D01*
X164648464Y-98952841D01*
X164744718Y-99078282D01*
X164870159Y-99174536D01*
X165016238Y-99235044D01*
X165094619Y-99245363D01*
X165172999Y-99255682D01*
X165173000Y-99255682D01*
X165173001Y-99255682D01*
X165225254Y-99248802D01*
X165329762Y-99235044D01*
X165475841Y-99174536D01*
X165574514Y-99098821D01*
X165639682Y-99073627D01*
X165708127Y-99087665D01*
X165725482Y-99098819D01*
X165774120Y-99136140D01*
X165824157Y-99174535D01*
X165824158Y-99174535D01*
X165824159Y-99174536D01*
X165970238Y-99235044D01*
X166048619Y-99245363D01*
X166126999Y-99255682D01*
X166127000Y-99255682D01*
X166127001Y-99255682D01*
X166179254Y-99248802D01*
X166283762Y-99235044D01*
X166429841Y-99174536D01*
X166555282Y-99078282D01*
X166651536Y-98952841D01*
X166712044Y-98806762D01*
X166732682Y-98650000D01*
X166712044Y-98493238D01*
X166651536Y-98347159D01*
X166555282Y-98221718D01*
X166429841Y-98125464D01*
X166404472Y-98114956D01*
X166283762Y-98064956D01*
X166283760Y-98064955D01*
X166127001Y-98044318D01*
X166126999Y-98044318D01*
X165970239Y-98064955D01*
X165970237Y-98064956D01*
X165824157Y-98125464D01*
X165725486Y-98201178D01*
X165660317Y-98226372D01*
X165591872Y-98212334D01*
X165574514Y-98201178D01*
X165475842Y-98125464D01*
X165329762Y-98064956D01*
X165329760Y-98064955D01*
X165173001Y-98044318D01*
X165172999Y-98044318D01*
X165016239Y-98064955D01*
X165016237Y-98064956D01*
X164870160Y-98125463D01*
X164744718Y-98221718D01*
X164648463Y-98347160D01*
X164587956Y-98493237D01*
X164587955Y-98493239D01*
X164567318Y-98649998D01*
X155776099Y-98649998D01*
X155762044Y-98543239D01*
X155762044Y-98543238D01*
X155701536Y-98397159D01*
X155605282Y-98271718D01*
X155479841Y-98175464D01*
X155333762Y-98114956D01*
X155333760Y-98114955D01*
X155177001Y-98094318D01*
X155176999Y-98094318D01*
X155020239Y-98114955D01*
X155020237Y-98114956D01*
X154874157Y-98175464D01*
X154775486Y-98251178D01*
X154710317Y-98276372D01*
X154641872Y-98262334D01*
X154624514Y-98251178D01*
X154525842Y-98175464D01*
X154379762Y-98114956D01*
X154379760Y-98114955D01*
X154223001Y-98094318D01*
X154222999Y-98094318D01*
X154066239Y-98114955D01*
X154066237Y-98114956D01*
X153920160Y-98175463D01*
X153794718Y-98271718D01*
X153698463Y-98397160D01*
X153637956Y-98543237D01*
X153637955Y-98543239D01*
X153617318Y-98699998D01*
X90800500Y-98699998D01*
X90800500Y-86499999D01*
X159144722Y-86499999D01*
X159144722Y-86500000D01*
X159163762Y-86656818D01*
X159219780Y-86804523D01*
X159309517Y-86934530D01*
X159427760Y-87039283D01*
X159427762Y-87039284D01*
X159567634Y-87112696D01*
X159721014Y-87150500D01*
X159721015Y-87150500D01*
X159878985Y-87150500D01*
X160032365Y-87112696D01*
X160172240Y-87039283D01*
X160290483Y-86934530D01*
X160380220Y-86804523D01*
X160436237Y-86656818D01*
X160455278Y-86500000D01*
X160436237Y-86343182D01*
X160380220Y-86195477D01*
X160290483Y-86065470D01*
X160172240Y-85960717D01*
X160172238Y-85960716D01*
X160172237Y-85960715D01*
X160032365Y-85887303D01*
X159878986Y-85849500D01*
X159878985Y-85849500D01*
X159721015Y-85849500D01*
X159721014Y-85849500D01*
X159567634Y-85887303D01*
X159427762Y-85960715D01*
X159309516Y-86065471D01*
X159219781Y-86195475D01*
X159219780Y-86195476D01*
X159163762Y-86343181D01*
X159144722Y-86499999D01*
X90800500Y-86499999D01*
X90800500Y-84530329D01*
X160675052Y-84530329D01*
X160675052Y-84530330D01*
X160694092Y-84687148D01*
X160750110Y-84834853D01*
X160839847Y-84964860D01*
X160958090Y-85069613D01*
X160958092Y-85069614D01*
X161097964Y-85143026D01*
X161251344Y-85180830D01*
X161251345Y-85180830D01*
X161409315Y-85180830D01*
X161562695Y-85143026D01*
X161702570Y-85069613D01*
X161820813Y-84964860D01*
X161910550Y-84834853D01*
X161966567Y-84687148D01*
X161985608Y-84530330D01*
X161966567Y-84373512D01*
X161910550Y-84225807D01*
X161820813Y-84095800D01*
X161702570Y-83991047D01*
X161702568Y-83991046D01*
X161702567Y-83991045D01*
X161562695Y-83917633D01*
X161409316Y-83879830D01*
X161409315Y-83879830D01*
X161251345Y-83879830D01*
X161251344Y-83879830D01*
X161097964Y-83917633D01*
X160958092Y-83991045D01*
X160839846Y-84095801D01*
X160750111Y-84225805D01*
X160750110Y-84225806D01*
X160694092Y-84373511D01*
X160675052Y-84530329D01*
X90800500Y-84530329D01*
X90800500Y-83499999D01*
X144844722Y-83499999D01*
X144844722Y-83500000D01*
X144863762Y-83656818D01*
X144919780Y-83804523D01*
X145009517Y-83934530D01*
X145127760Y-84039283D01*
X145127762Y-84039284D01*
X145267634Y-84112696D01*
X145421014Y-84150500D01*
X145421015Y-84150500D01*
X145578985Y-84150500D01*
X145732365Y-84112696D01*
X145764557Y-84095800D01*
X145872240Y-84039283D01*
X145990483Y-83934530D01*
X146080220Y-83804523D01*
X146136237Y-83656818D01*
X146155278Y-83500000D01*
X146155278Y-83499999D01*
X149544722Y-83499999D01*
X149544722Y-83500000D01*
X149563762Y-83656818D01*
X149619780Y-83804523D01*
X149709517Y-83934530D01*
X149827760Y-84039283D01*
X149827762Y-84039284D01*
X149967634Y-84112696D01*
X150121014Y-84150500D01*
X150121015Y-84150500D01*
X150278985Y-84150500D01*
X150432365Y-84112696D01*
X150464557Y-84095800D01*
X150572240Y-84039283D01*
X150690483Y-83934530D01*
X150780220Y-83804523D01*
X150836237Y-83656818D01*
X150855278Y-83500000D01*
X150836237Y-83343182D01*
X150780220Y-83195477D01*
X150690483Y-83065470D01*
X150572240Y-82960717D01*
X150572238Y-82960716D01*
X150572237Y-82960715D01*
X150432365Y-82887303D01*
X150278986Y-82849500D01*
X150278985Y-82849500D01*
X150121015Y-82849500D01*
X150121014Y-82849500D01*
X149967634Y-82887303D01*
X149827762Y-82960715D01*
X149709516Y-83065471D01*
X149619781Y-83195475D01*
X149619780Y-83195476D01*
X149563762Y-83343181D01*
X149544722Y-83499999D01*
X146155278Y-83499999D01*
X146136237Y-83343182D01*
X146080220Y-83195477D01*
X145990483Y-83065470D01*
X145872240Y-82960717D01*
X145872238Y-82960716D01*
X145872237Y-82960715D01*
X145732365Y-82887303D01*
X145578986Y-82849500D01*
X145578985Y-82849500D01*
X145421015Y-82849500D01*
X145421014Y-82849500D01*
X145267634Y-82887303D01*
X145127762Y-82960715D01*
X145009516Y-83065471D01*
X144919781Y-83195475D01*
X144919780Y-83195476D01*
X144863762Y-83343181D01*
X144844722Y-83499999D01*
X90800500Y-83499999D01*
X90800500Y-81499998D01*
X142444318Y-81499998D01*
X142444318Y-81500001D01*
X142464955Y-81656760D01*
X142464956Y-81656762D01*
X142525464Y-81802841D01*
X142621718Y-81928282D01*
X142747159Y-82024536D01*
X142893238Y-82085044D01*
X142971619Y-82095363D01*
X143049999Y-82105682D01*
X143050000Y-82105682D01*
X143050001Y-82105682D01*
X143102254Y-82098802D01*
X143206762Y-82085044D01*
X143352841Y-82024536D01*
X143478282Y-81928282D01*
X143574536Y-81802841D01*
X143635044Y-81656762D01*
X143655682Y-81500000D01*
X143635044Y-81343238D01*
X143574536Y-81197159D01*
X143478282Y-81071718D01*
X143352841Y-80975464D01*
X143206762Y-80914956D01*
X143206760Y-80914955D01*
X143050001Y-80894318D01*
X143049999Y-80894318D01*
X142893239Y-80914955D01*
X142893237Y-80914956D01*
X142747160Y-80975463D01*
X142621718Y-81071718D01*
X142525463Y-81197160D01*
X142464956Y-81343237D01*
X142464955Y-81343239D01*
X142444318Y-81499998D01*
X90800500Y-81499998D01*
X90800500Y-72899998D01*
X141694318Y-72899998D01*
X141694318Y-72900001D01*
X141714955Y-73056760D01*
X141714956Y-73056762D01*
X141775464Y-73202841D01*
X141871718Y-73328282D01*
X141997159Y-73424536D01*
X142143238Y-73485044D01*
X142221619Y-73495363D01*
X142299999Y-73505682D01*
X142300000Y-73505682D01*
X142300001Y-73505682D01*
X142352254Y-73498802D01*
X142456762Y-73485044D01*
X142602841Y-73424536D01*
X142728282Y-73328282D01*
X142824536Y-73202841D01*
X142885044Y-73056762D01*
X142905682Y-72900000D01*
X142885044Y-72743238D01*
X142824536Y-72597159D01*
X142749983Y-72499999D01*
X159394722Y-72499999D01*
X159394722Y-72500000D01*
X159413762Y-72656818D01*
X159446538Y-72743239D01*
X159469780Y-72804523D01*
X159559517Y-72934530D01*
X159677760Y-73039283D01*
X159677762Y-73039284D01*
X159817634Y-73112696D01*
X159971014Y-73150500D01*
X159971015Y-73150500D01*
X160128985Y-73150500D01*
X160282365Y-73112696D01*
X160422240Y-73039283D01*
X160540483Y-72934530D01*
X160630220Y-72804523D01*
X160686237Y-72656818D01*
X160705278Y-72500000D01*
X160686237Y-72343182D01*
X160675532Y-72314956D01*
X160664992Y-72287164D01*
X160630220Y-72195477D01*
X160540483Y-72065470D01*
X160422240Y-71960717D01*
X160422238Y-71960716D01*
X160422237Y-71960715D01*
X160282365Y-71887303D01*
X160128986Y-71849500D01*
X160128985Y-71849500D01*
X159971015Y-71849500D01*
X159971014Y-71849500D01*
X159817634Y-71887303D01*
X159677762Y-71960715D01*
X159559516Y-72065471D01*
X159469781Y-72195475D01*
X159469780Y-72195476D01*
X159413762Y-72343181D01*
X159394722Y-72499999D01*
X142749983Y-72499999D01*
X142728282Y-72471718D01*
X142602841Y-72375464D01*
X142524905Y-72343182D01*
X142456762Y-72314956D01*
X142456760Y-72314955D01*
X142300001Y-72294318D01*
X142299999Y-72294318D01*
X142143239Y-72314955D01*
X142143237Y-72314956D01*
X141997160Y-72375463D01*
X141871718Y-72471718D01*
X141775463Y-72597160D01*
X141714956Y-72743237D01*
X141714955Y-72743239D01*
X141694318Y-72899998D01*
X90800500Y-72899998D01*
X90800500Y-68350000D01*
X91722118Y-68350000D01*
X93022118Y-69750000D01*
X106022116Y-69750000D01*
X106022118Y-69750000D01*
X108096823Y-68762044D01*
X108150135Y-68750000D01*
X123322117Y-68750000D01*
X123322118Y-68750000D01*
X123822118Y-68350000D01*
X123822118Y-66599998D01*
X162894318Y-66599998D01*
X162894318Y-66600001D01*
X162914955Y-66756760D01*
X162914956Y-66756762D01*
X162975464Y-66902841D01*
X163071718Y-67028282D01*
X163197159Y-67124536D01*
X163343238Y-67185044D01*
X163421619Y-67195363D01*
X163499999Y-67205682D01*
X163500000Y-67205682D01*
X163500001Y-67205682D01*
X163552254Y-67198802D01*
X163656762Y-67185044D01*
X163802841Y-67124536D01*
X163928282Y-67028282D01*
X164024536Y-66902841D01*
X164085044Y-66756762D01*
X164105682Y-66600000D01*
X164105682Y-66599998D01*
X180094318Y-66599998D01*
X180094318Y-66600001D01*
X180114955Y-66756760D01*
X180114956Y-66756762D01*
X180175464Y-66902841D01*
X180271718Y-67028282D01*
X180397159Y-67124536D01*
X180543238Y-67185044D01*
X180621619Y-67195363D01*
X180699999Y-67205682D01*
X180700000Y-67205682D01*
X180700001Y-67205682D01*
X180752254Y-67198802D01*
X180856762Y-67185044D01*
X181002841Y-67124536D01*
X181128282Y-67028282D01*
X181224536Y-66902841D01*
X181285044Y-66756762D01*
X181305682Y-66600000D01*
X181285044Y-66443238D01*
X181251157Y-66361429D01*
X181243689Y-66291962D01*
X181274964Y-66229482D01*
X181335053Y-66193830D01*
X181335987Y-66193595D01*
X181432365Y-66169841D01*
X181572240Y-66096428D01*
X181690483Y-65991675D01*
X181780220Y-65861668D01*
X181836237Y-65713963D01*
X181855278Y-65557145D01*
X181853583Y-65543181D01*
X181836237Y-65400326D01*
X181797111Y-65297160D01*
X181780220Y-65252622D01*
X181690483Y-65122615D01*
X181572240Y-65017862D01*
X181572238Y-65017861D01*
X181572237Y-65017860D01*
X181432365Y-64944448D01*
X181278986Y-64906645D01*
X181278985Y-64906645D01*
X181121015Y-64906645D01*
X181121014Y-64906645D01*
X180967634Y-64944448D01*
X180827762Y-65017860D01*
X180709516Y-65122616D01*
X180619781Y-65252620D01*
X180619780Y-65252621D01*
X180563762Y-65400326D01*
X180544722Y-65557144D01*
X180544722Y-65557145D01*
X180563762Y-65713963D01*
X180616968Y-65854253D01*
X180622335Y-65923916D01*
X180589188Y-65985422D01*
X180548479Y-66012785D01*
X180397160Y-66075463D01*
X180271718Y-66171718D01*
X180175463Y-66297160D01*
X180114956Y-66443237D01*
X180114955Y-66443239D01*
X180094318Y-66599998D01*
X164105682Y-66599998D01*
X164085044Y-66443238D01*
X164024536Y-66297159D01*
X163928282Y-66171718D01*
X163802841Y-66075464D01*
X163656762Y-66014956D01*
X163656760Y-66014955D01*
X163500001Y-65994318D01*
X163499999Y-65994318D01*
X163343239Y-66014955D01*
X163343237Y-66014956D01*
X163197160Y-66075463D01*
X163071718Y-66171718D01*
X162975463Y-66297160D01*
X162914956Y-66443237D01*
X162914955Y-66443239D01*
X162894318Y-66599998D01*
X123822118Y-66599998D01*
X123822118Y-65799998D01*
X140294318Y-65799998D01*
X140294318Y-65800001D01*
X140314955Y-65956760D01*
X140314956Y-65956762D01*
X140372807Y-66096428D01*
X140375464Y-66102841D01*
X140471718Y-66228282D01*
X140597159Y-66324536D01*
X140743238Y-66385044D01*
X140821619Y-66395363D01*
X140899999Y-66405682D01*
X140900000Y-66405682D01*
X140900001Y-66405682D01*
X140952254Y-66398802D01*
X141056762Y-66385044D01*
X141202841Y-66324536D01*
X141328282Y-66228282D01*
X141424536Y-66102841D01*
X141485044Y-65956762D01*
X141505682Y-65800000D01*
X141499989Y-65756760D01*
X141492516Y-65699999D01*
X168144722Y-65699999D01*
X168144722Y-65700000D01*
X168163762Y-65856818D01*
X168212536Y-65985422D01*
X168219780Y-66004523D01*
X168309517Y-66134530D01*
X168427760Y-66239283D01*
X168427762Y-66239284D01*
X168567634Y-66312696D01*
X168721014Y-66350500D01*
X168721015Y-66350500D01*
X168878985Y-66350500D01*
X169032365Y-66312696D01*
X169071870Y-66291962D01*
X169172240Y-66239283D01*
X169290483Y-66134530D01*
X169380220Y-66004523D01*
X169436237Y-65856818D01*
X169455278Y-65700000D01*
X169443136Y-65599998D01*
X172794318Y-65599998D01*
X172794318Y-65600001D01*
X172814955Y-65756760D01*
X172814956Y-65756762D01*
X172858409Y-65861668D01*
X172875464Y-65902841D01*
X172971718Y-66028282D01*
X173097159Y-66124536D01*
X173243238Y-66185044D01*
X173308083Y-66193581D01*
X173399999Y-66205682D01*
X173400000Y-66205682D01*
X173400001Y-66205682D01*
X173490025Y-66193830D01*
X173556762Y-66185044D01*
X173702841Y-66124536D01*
X173828282Y-66028282D01*
X173924536Y-65902841D01*
X173985044Y-65756762D01*
X174005682Y-65600000D01*
X173985044Y-65443238D01*
X173924536Y-65297159D01*
X173828282Y-65171718D01*
X173702841Y-65075464D01*
X173640158Y-65049500D01*
X173556762Y-65014956D01*
X173556760Y-65014955D01*
X173400001Y-64994318D01*
X173399999Y-64994318D01*
X173243239Y-65014955D01*
X173243237Y-65014956D01*
X173097160Y-65075463D01*
X172971718Y-65171718D01*
X172875463Y-65297160D01*
X172814956Y-65443237D01*
X172814955Y-65443239D01*
X172794318Y-65599998D01*
X169443136Y-65599998D01*
X169437933Y-65557145D01*
X169436237Y-65543181D01*
X169414992Y-65487164D01*
X169380220Y-65395477D01*
X169290483Y-65265470D01*
X169172240Y-65160717D01*
X169172238Y-65160716D01*
X169172237Y-65160715D01*
X169032365Y-65087303D01*
X168878986Y-65049500D01*
X168878985Y-65049500D01*
X168721015Y-65049500D01*
X168721014Y-65049500D01*
X168567634Y-65087303D01*
X168427762Y-65160715D01*
X168309516Y-65265471D01*
X168219781Y-65395475D01*
X168219780Y-65395476D01*
X168163762Y-65543181D01*
X168144722Y-65699999D01*
X141492516Y-65699999D01*
X141485044Y-65643239D01*
X141485044Y-65643238D01*
X141424536Y-65497159D01*
X141328282Y-65371718D01*
X141202841Y-65275464D01*
X141178713Y-65265470D01*
X141056762Y-65214956D01*
X141056760Y-65214955D01*
X140900001Y-65194318D01*
X140899999Y-65194318D01*
X140743239Y-65214955D01*
X140743237Y-65214956D01*
X140597160Y-65275463D01*
X140471718Y-65371718D01*
X140375463Y-65497160D01*
X140314956Y-65643237D01*
X140314955Y-65643239D01*
X140294318Y-65799998D01*
X123822118Y-65799998D01*
X123822118Y-64249998D01*
X143944318Y-64249998D01*
X143944318Y-64250001D01*
X143964955Y-64406760D01*
X143964956Y-64406762D01*
X144025464Y-64552841D01*
X144121718Y-64678282D01*
X144247159Y-64774536D01*
X144393238Y-64835044D01*
X144471619Y-64845363D01*
X144549999Y-64855682D01*
X144550000Y-64855682D01*
X144550001Y-64855682D01*
X144602254Y-64848802D01*
X144706762Y-64835044D01*
X144852841Y-64774536D01*
X144978282Y-64678282D01*
X145074536Y-64552841D01*
X145135044Y-64406762D01*
X145155682Y-64250000D01*
X145149099Y-64200000D01*
X145149099Y-64199998D01*
X150294318Y-64199998D01*
X150294318Y-64200001D01*
X150314955Y-64356760D01*
X150314956Y-64356762D01*
X150375464Y-64502841D01*
X150471718Y-64628282D01*
X150597159Y-64724536D01*
X150743238Y-64785044D01*
X150821619Y-64795363D01*
X150899999Y-64805682D01*
X150900000Y-64805682D01*
X150900001Y-64805682D01*
X150952254Y-64798802D01*
X151056762Y-64785044D01*
X151202841Y-64724536D01*
X151328282Y-64628282D01*
X151424536Y-64502841D01*
X151485044Y-64356762D01*
X151505682Y-64200000D01*
X151485044Y-64043238D01*
X151424536Y-63897159D01*
X151328282Y-63771718D01*
X151202841Y-63675464D01*
X151177472Y-63664956D01*
X151056762Y-63614956D01*
X151056760Y-63614955D01*
X150900001Y-63594318D01*
X150899999Y-63594318D01*
X150743239Y-63614955D01*
X150743237Y-63614956D01*
X150597160Y-63675463D01*
X150471718Y-63771718D01*
X150375463Y-63897160D01*
X150314956Y-64043237D01*
X150314955Y-64043239D01*
X150294318Y-64199998D01*
X145149099Y-64199998D01*
X145135044Y-64093239D01*
X145135044Y-64093238D01*
X145074536Y-63947159D01*
X144978282Y-63821718D01*
X144852841Y-63725464D01*
X144706762Y-63664956D01*
X144706760Y-63664955D01*
X144550001Y-63644318D01*
X144549999Y-63644318D01*
X144393239Y-63664955D01*
X144393237Y-63664956D01*
X144247160Y-63725463D01*
X144121718Y-63821718D01*
X144025463Y-63947160D01*
X143964956Y-64093237D01*
X143964955Y-64093239D01*
X143944318Y-64249998D01*
X123822118Y-64249998D01*
X123822118Y-63299998D01*
X168694318Y-63299998D01*
X168694318Y-63300001D01*
X168714955Y-63456760D01*
X168714956Y-63456762D01*
X168771933Y-63594318D01*
X168775464Y-63602841D01*
X168871718Y-63728282D01*
X168997159Y-63824536D01*
X169143238Y-63885044D01*
X169221619Y-63895363D01*
X169299999Y-63905682D01*
X169300000Y-63905682D01*
X169300001Y-63905682D01*
X169364739Y-63897159D01*
X169456762Y-63885044D01*
X169602841Y-63824536D01*
X169728282Y-63728282D01*
X169824536Y-63602841D01*
X169885044Y-63456762D01*
X169905682Y-63300000D01*
X169885044Y-63143238D01*
X169824536Y-62997159D01*
X169728282Y-62871718D01*
X169602841Y-62775464D01*
X169456762Y-62714956D01*
X169456760Y-62714955D01*
X169300001Y-62694318D01*
X169299999Y-62694318D01*
X169143239Y-62714955D01*
X169143237Y-62714956D01*
X168997160Y-62775463D01*
X168871718Y-62871718D01*
X168775463Y-62997160D01*
X168714956Y-63143237D01*
X168714955Y-63143239D01*
X168694318Y-63299998D01*
X123822118Y-63299998D01*
X123822118Y-62481882D01*
X164621402Y-62481882D01*
X164621402Y-62481885D01*
X164642039Y-62638644D01*
X164642040Y-62638646D01*
X164698711Y-62775463D01*
X164702548Y-62784725D01*
X164798802Y-62910166D01*
X164924243Y-63006420D01*
X165070322Y-63066928D01*
X165148703Y-63077247D01*
X165227083Y-63087566D01*
X165227084Y-63087566D01*
X165227085Y-63087566D01*
X165279338Y-63080686D01*
X165383846Y-63066928D01*
X165529925Y-63006420D01*
X165655366Y-62910166D01*
X165751620Y-62784725D01*
X165812128Y-62638646D01*
X165832766Y-62481884D01*
X165812128Y-62325122D01*
X165751620Y-62179043D01*
X165655366Y-62053602D01*
X165529925Y-61957348D01*
X165383846Y-61896840D01*
X165383844Y-61896839D01*
X165227085Y-61876202D01*
X165227083Y-61876202D01*
X165070323Y-61896839D01*
X165070321Y-61896840D01*
X164924244Y-61957347D01*
X164798802Y-62053602D01*
X164702547Y-62179044D01*
X164642040Y-62325121D01*
X164642039Y-62325123D01*
X164621402Y-62481882D01*
X123822118Y-62481882D01*
X123822118Y-60624998D01*
X145319318Y-60624998D01*
X145319318Y-60625001D01*
X145339955Y-60781760D01*
X145339956Y-60781762D01*
X145400464Y-60927841D01*
X145496718Y-61053282D01*
X145622159Y-61149536D01*
X145768238Y-61210044D01*
X145846619Y-61220363D01*
X145924999Y-61230682D01*
X145925000Y-61230682D01*
X145925001Y-61230682D01*
X145977254Y-61223802D01*
X146081762Y-61210044D01*
X146227841Y-61149536D01*
X146353282Y-61053282D01*
X146449536Y-60927841D01*
X146467904Y-60883498D01*
X150910818Y-60883498D01*
X150910818Y-60883501D01*
X150931455Y-61040260D01*
X150931456Y-61040261D01*
X150931456Y-61040262D01*
X150991964Y-61186341D01*
X151088218Y-61311782D01*
X151213659Y-61408036D01*
X151359738Y-61468544D01*
X151438119Y-61478863D01*
X151516499Y-61489182D01*
X151516500Y-61489182D01*
X151516501Y-61489182D01*
X151568754Y-61482302D01*
X151673262Y-61468544D01*
X151819341Y-61408036D01*
X151944782Y-61311782D01*
X152041036Y-61186341D01*
X152101544Y-61040262D01*
X152122182Y-60883500D01*
X152122182Y-60883499D01*
X153610678Y-60883499D01*
X153610678Y-60883502D01*
X153631315Y-61040261D01*
X153631316Y-61040263D01*
X153659388Y-61108036D01*
X153691824Y-61186342D01*
X153788078Y-61311783D01*
X153913519Y-61408037D01*
X154059598Y-61468545D01*
X154137979Y-61478864D01*
X154216359Y-61489183D01*
X154216360Y-61489183D01*
X154216361Y-61489183D01*
X154268614Y-61482303D01*
X154373122Y-61468545D01*
X154519201Y-61408037D01*
X154644642Y-61311783D01*
X154740896Y-61186342D01*
X154801404Y-61040263D01*
X154822042Y-60883501D01*
X154801404Y-60726739D01*
X154742072Y-60583498D01*
X156394318Y-60583498D01*
X156394318Y-60583501D01*
X156414955Y-60740260D01*
X156414956Y-60740262D01*
X156474287Y-60883501D01*
X156475464Y-60886341D01*
X156571718Y-61011782D01*
X156697159Y-61108036D01*
X156843238Y-61168544D01*
X156921619Y-61178863D01*
X156999999Y-61189182D01*
X157000000Y-61189182D01*
X157000001Y-61189182D01*
X157052254Y-61182302D01*
X157156762Y-61168544D01*
X157302841Y-61108036D01*
X157428282Y-61011782D01*
X157524536Y-60886341D01*
X157585044Y-60740262D01*
X157605682Y-60583500D01*
X157585044Y-60426738D01*
X157524536Y-60280659D01*
X157428282Y-60155218D01*
X157302841Y-60058964D01*
X157256949Y-60039955D01*
X157156762Y-59998456D01*
X157156760Y-59998455D01*
X157000001Y-59977818D01*
X156999999Y-59977818D01*
X156843239Y-59998455D01*
X156843237Y-59998456D01*
X156697160Y-60058963D01*
X156571718Y-60155218D01*
X156475463Y-60280660D01*
X156414956Y-60426737D01*
X156414955Y-60426739D01*
X156394318Y-60583498D01*
X154742072Y-60583498D01*
X154740896Y-60580660D01*
X154644642Y-60455219D01*
X154519201Y-60358965D01*
X154519196Y-60358963D01*
X154373122Y-60298457D01*
X154373120Y-60298456D01*
X154216361Y-60277819D01*
X154216359Y-60277819D01*
X154059599Y-60298456D01*
X154059597Y-60298457D01*
X153913520Y-60358964D01*
X153788078Y-60455219D01*
X153691823Y-60580661D01*
X153631316Y-60726738D01*
X153631315Y-60726740D01*
X153610678Y-60883499D01*
X152122182Y-60883499D01*
X152101544Y-60726738D01*
X152041036Y-60580659D01*
X151944782Y-60455218D01*
X151819341Y-60358964D01*
X151730488Y-60322160D01*
X151673262Y-60298456D01*
X151673260Y-60298455D01*
X151516501Y-60277818D01*
X151516499Y-60277818D01*
X151359739Y-60298455D01*
X151359737Y-60298456D01*
X151213660Y-60358963D01*
X151088218Y-60455218D01*
X150991963Y-60580660D01*
X150931456Y-60726737D01*
X150931455Y-60726739D01*
X150910818Y-60883498D01*
X146467904Y-60883498D01*
X146510044Y-60781762D01*
X146530682Y-60625000D01*
X146525218Y-60583500D01*
X146510044Y-60468239D01*
X146510044Y-60468238D01*
X146449536Y-60322159D01*
X146353282Y-60196718D01*
X146227841Y-60100464D01*
X146193740Y-60086339D01*
X146081762Y-60039956D01*
X146081760Y-60039955D01*
X145925001Y-60019318D01*
X145924999Y-60019318D01*
X145768239Y-60039955D01*
X145768237Y-60039956D01*
X145622160Y-60100463D01*
X145496718Y-60196718D01*
X145400463Y-60322160D01*
X145339956Y-60468237D01*
X145339955Y-60468239D01*
X145319318Y-60624998D01*
X123822118Y-60624998D01*
X123822118Y-59691938D01*
X152221778Y-59691938D01*
X152221778Y-59691941D01*
X152242415Y-59848700D01*
X152242416Y-59848702D01*
X152302924Y-59994781D01*
X152399178Y-60120222D01*
X152524619Y-60216476D01*
X152670698Y-60276984D01*
X152749079Y-60287303D01*
X152827459Y-60297622D01*
X152827460Y-60297622D01*
X152827461Y-60297622D01*
X152879714Y-60290742D01*
X152984222Y-60276984D01*
X153130301Y-60216476D01*
X153255742Y-60120222D01*
X153351996Y-59994781D01*
X153412504Y-59848702D01*
X153421088Y-59783498D01*
X157694318Y-59783498D01*
X157694318Y-59783501D01*
X157714955Y-59940260D01*
X157714956Y-59940262D01*
X157737538Y-59994781D01*
X157775464Y-60086341D01*
X157871718Y-60211782D01*
X157997159Y-60308036D01*
X158143238Y-60368544D01*
X158221619Y-60378863D01*
X158299999Y-60389182D01*
X158300000Y-60389182D01*
X158300001Y-60389182D01*
X158352254Y-60382302D01*
X158456762Y-60368544D01*
X158602841Y-60308036D01*
X158728282Y-60211782D01*
X158824536Y-60086341D01*
X158885044Y-59940262D01*
X158887629Y-59920622D01*
X158915894Y-59856727D01*
X158974218Y-59818255D01*
X159044083Y-59817423D01*
X159058019Y-59822246D01*
X159169789Y-59868543D01*
X159248170Y-59878862D01*
X159326550Y-59889181D01*
X159326551Y-59889181D01*
X159326552Y-59889181D01*
X159378805Y-59882301D01*
X159483313Y-59868543D01*
X159629392Y-59808035D01*
X159754833Y-59711781D01*
X159851087Y-59586340D01*
X159911595Y-59440261D01*
X159932233Y-59283499D01*
X159915841Y-59158990D01*
X159926606Y-59089956D01*
X159972986Y-59037700D01*
X160040255Y-59018815D01*
X160107056Y-59039296D01*
X160114250Y-59044418D01*
X160197159Y-59108036D01*
X160343238Y-59168544D01*
X160413681Y-59177818D01*
X160499999Y-59189182D01*
X160500000Y-59189182D01*
X160500001Y-59189182D01*
X160552254Y-59182302D01*
X160656762Y-59168544D01*
X160802841Y-59108036D01*
X160813316Y-59099998D01*
X167994318Y-59099998D01*
X167994318Y-59100001D01*
X168014955Y-59256760D01*
X168014956Y-59256762D01*
X168075464Y-59402841D01*
X168171718Y-59528282D01*
X168297159Y-59624536D01*
X168443238Y-59685044D01*
X168521619Y-59695363D01*
X168599999Y-59705682D01*
X168600000Y-59705682D01*
X168600001Y-59705682D01*
X168652254Y-59698802D01*
X168756762Y-59685044D01*
X168902841Y-59624536D01*
X169028282Y-59528282D01*
X169124536Y-59402841D01*
X169185044Y-59256762D01*
X169205682Y-59100000D01*
X169205159Y-59096031D01*
X169192516Y-58999998D01*
X173294318Y-58999998D01*
X173294318Y-59000001D01*
X173314955Y-59156760D01*
X173314956Y-59156762D01*
X173357289Y-59258964D01*
X173375464Y-59302841D01*
X173471718Y-59428282D01*
X173597159Y-59524536D01*
X173743238Y-59585044D01*
X173821619Y-59595363D01*
X173899999Y-59605682D01*
X173900000Y-59605682D01*
X173900001Y-59605682D01*
X173952254Y-59598802D01*
X174056762Y-59585044D01*
X174202841Y-59524536D01*
X174328282Y-59428282D01*
X174424536Y-59302841D01*
X174485044Y-59156762D01*
X174505682Y-59000000D01*
X174485044Y-58843238D01*
X174424536Y-58697159D01*
X174328282Y-58571718D01*
X174202841Y-58475464D01*
X174056762Y-58414956D01*
X174056760Y-58414955D01*
X173900001Y-58394318D01*
X173899999Y-58394318D01*
X173743239Y-58414955D01*
X173743237Y-58414956D01*
X173597160Y-58475463D01*
X173471718Y-58571718D01*
X173375463Y-58697160D01*
X173314956Y-58843237D01*
X173314955Y-58843239D01*
X173294318Y-58999998D01*
X169192516Y-58999998D01*
X169185044Y-58943239D01*
X169185044Y-58943238D01*
X169124536Y-58797159D01*
X169028282Y-58671718D01*
X168902841Y-58575464D01*
X168893797Y-58571718D01*
X168756762Y-58514956D01*
X168756760Y-58514955D01*
X168600001Y-58494318D01*
X168599999Y-58494318D01*
X168443239Y-58514955D01*
X168443237Y-58514956D01*
X168297160Y-58575463D01*
X168171718Y-58671718D01*
X168075463Y-58797160D01*
X168014956Y-58943237D01*
X168014955Y-58943239D01*
X167994318Y-59099998D01*
X160813316Y-59099998D01*
X160928282Y-59011782D01*
X161024536Y-58886341D01*
X161085044Y-58740262D01*
X161105682Y-58583500D01*
X161085044Y-58426738D01*
X161024536Y-58280659D01*
X160928282Y-58155218D01*
X160802841Y-58058964D01*
X160755329Y-58039284D01*
X160656762Y-57998456D01*
X160656760Y-57998455D01*
X160500001Y-57977818D01*
X160499999Y-57977818D01*
X160343239Y-57998455D01*
X160343237Y-57998456D01*
X160197160Y-58058963D01*
X160071718Y-58155218D01*
X159975463Y-58280660D01*
X159914956Y-58426737D01*
X159914955Y-58426739D01*
X159894318Y-58583498D01*
X159894318Y-58583501D01*
X159910709Y-58708007D01*
X159899943Y-58777042D01*
X159853563Y-58829298D01*
X159786294Y-58848183D01*
X159719494Y-58827702D01*
X159712284Y-58822568D01*
X159629393Y-58758963D01*
X159483313Y-58698455D01*
X159483311Y-58698454D01*
X159326552Y-58677817D01*
X159326550Y-58677817D01*
X159169790Y-58698454D01*
X159169788Y-58698455D01*
X159023711Y-58758962D01*
X158898269Y-58855217D01*
X158802014Y-58980659D01*
X158741507Y-59126736D01*
X158738921Y-59146379D01*
X158710652Y-59210274D01*
X158652327Y-59248744D01*
X158582462Y-59249574D01*
X158568530Y-59244751D01*
X158456765Y-59198457D01*
X158456760Y-59198455D01*
X158300001Y-59177818D01*
X158299999Y-59177818D01*
X158143239Y-59198455D01*
X158143237Y-59198456D01*
X157997160Y-59258963D01*
X157871718Y-59355218D01*
X157775463Y-59480660D01*
X157714956Y-59626737D01*
X157714955Y-59626739D01*
X157694318Y-59783498D01*
X153421088Y-59783498D01*
X153433142Y-59691940D01*
X153412504Y-59535178D01*
X153351996Y-59389099D01*
X153255742Y-59263658D01*
X153130301Y-59167404D01*
X153079542Y-59146379D01*
X152984222Y-59106896D01*
X152984220Y-59106895D01*
X152827461Y-59086258D01*
X152827459Y-59086258D01*
X152670699Y-59106895D01*
X152670697Y-59106896D01*
X152524620Y-59167403D01*
X152399178Y-59263658D01*
X152302923Y-59389100D01*
X152242416Y-59535177D01*
X152242415Y-59535179D01*
X152221778Y-59691938D01*
X123822118Y-59691938D01*
X123822118Y-58646031D01*
X123322118Y-58000000D01*
X93022118Y-58000000D01*
X93022117Y-58000000D01*
X91750000Y-59096030D01*
X91749999Y-59096032D01*
X91728038Y-66385043D01*
X91722118Y-68350000D01*
X90800500Y-68350000D01*
X90800500Y-57499999D01*
X182544722Y-57499999D01*
X182544722Y-57500000D01*
X182563762Y-57656818D01*
X182619780Y-57804523D01*
X182709517Y-57934530D01*
X182827760Y-58039283D01*
X182827762Y-58039284D01*
X182967634Y-58112696D01*
X183121014Y-58150500D01*
X183121015Y-58150500D01*
X183278985Y-58150500D01*
X183432365Y-58112696D01*
X183534743Y-58058963D01*
X183572240Y-58039283D01*
X183690483Y-57934530D01*
X183780220Y-57804523D01*
X183836237Y-57656818D01*
X183855278Y-57500000D01*
X183836237Y-57343182D01*
X183780220Y-57195477D01*
X183690483Y-57065470D01*
X183572240Y-56960717D01*
X183572238Y-56960716D01*
X183572237Y-56960715D01*
X183432365Y-56887303D01*
X183278986Y-56849500D01*
X183278985Y-56849500D01*
X183121015Y-56849500D01*
X183121014Y-56849500D01*
X182967634Y-56887303D01*
X182827762Y-56960715D01*
X182827760Y-56960717D01*
X182723309Y-57053252D01*
X182709516Y-57065471D01*
X182619781Y-57195475D01*
X182619780Y-57195476D01*
X182563762Y-57343181D01*
X182544722Y-57499999D01*
X90800500Y-57499999D01*
X90800500Y-56369998D01*
X152294318Y-56369998D01*
X152294318Y-56370001D01*
X152314955Y-56526760D01*
X152314956Y-56526762D01*
X152363201Y-56643237D01*
X152375464Y-56672841D01*
X152471718Y-56798282D01*
X152597159Y-56894536D01*
X152743238Y-56955044D01*
X152756288Y-56956762D01*
X152899999Y-56975682D01*
X152900000Y-56975682D01*
X152900001Y-56975682D01*
X152952254Y-56968802D01*
X153056762Y-56955044D01*
X153202841Y-56894536D01*
X153328282Y-56798282D01*
X153424536Y-56672841D01*
X153485044Y-56526762D01*
X153495470Y-56447568D01*
X156647022Y-56447568D01*
X156647022Y-56447571D01*
X156667659Y-56604330D01*
X156667660Y-56604332D01*
X156696036Y-56672839D01*
X156728168Y-56750411D01*
X156824422Y-56875852D01*
X156949863Y-56972106D01*
X157095942Y-57032614D01*
X157174323Y-57042933D01*
X157252703Y-57053252D01*
X157252704Y-57053252D01*
X157252705Y-57053252D01*
X157304958Y-57046372D01*
X157409466Y-57032614D01*
X157555545Y-56972106D01*
X157680986Y-56875852D01*
X157739191Y-56799998D01*
X161294318Y-56799998D01*
X161294318Y-56800001D01*
X161314955Y-56956760D01*
X161314956Y-56956762D01*
X161354923Y-57053252D01*
X161375464Y-57102841D01*
X161471718Y-57228282D01*
X161597159Y-57324536D01*
X161743238Y-57385044D01*
X161821619Y-57395363D01*
X161899999Y-57405682D01*
X161900000Y-57405682D01*
X161900001Y-57405682D01*
X161952254Y-57398802D01*
X162056762Y-57385044D01*
X162202841Y-57324536D01*
X162328282Y-57228282D01*
X162424536Y-57102841D01*
X162485044Y-56956762D01*
X162505682Y-56800000D01*
X162485044Y-56643238D01*
X162424536Y-56497159D01*
X162328282Y-56371718D01*
X162202841Y-56275464D01*
X162056762Y-56214956D01*
X162056760Y-56214955D01*
X161900001Y-56194318D01*
X161899999Y-56194318D01*
X161743239Y-56214955D01*
X161743237Y-56214956D01*
X161597160Y-56275463D01*
X161471718Y-56371718D01*
X161375463Y-56497160D01*
X161314956Y-56643237D01*
X161314955Y-56643239D01*
X161294318Y-56799998D01*
X157739191Y-56799998D01*
X157777240Y-56750411D01*
X157837748Y-56604332D01*
X157858386Y-56447570D01*
X157837748Y-56290808D01*
X157777240Y-56144729D01*
X157680986Y-56019288D01*
X157555545Y-55923034D01*
X157409466Y-55862526D01*
X157409464Y-55862525D01*
X157252705Y-55841888D01*
X157252703Y-55841888D01*
X157095943Y-55862525D01*
X157095941Y-55862526D01*
X156949864Y-55923033D01*
X156824422Y-56019288D01*
X156728167Y-56144730D01*
X156667660Y-56290807D01*
X156667659Y-56290809D01*
X156647022Y-56447568D01*
X153495470Y-56447568D01*
X153505682Y-56370000D01*
X153485044Y-56213238D01*
X153424536Y-56067159D01*
X153328282Y-55941718D01*
X153202841Y-55845464D01*
X153056762Y-55784956D01*
X153056760Y-55784955D01*
X152900001Y-55764318D01*
X152899999Y-55764318D01*
X152743239Y-55784955D01*
X152743237Y-55784956D01*
X152597160Y-55845463D01*
X152471718Y-55941718D01*
X152375463Y-56067160D01*
X152314956Y-56213237D01*
X152314955Y-56213239D01*
X152294318Y-56369998D01*
X90800500Y-56369998D01*
X90800500Y-46400000D01*
X91700000Y-46400000D01*
X91800000Y-55000000D01*
X93000000Y-56000000D01*
X123299999Y-56000000D01*
X123300000Y-56000000D01*
X123800000Y-55400000D01*
X123800000Y-55399998D01*
X158494318Y-55399998D01*
X158494318Y-55400001D01*
X158514955Y-55556760D01*
X158514956Y-55556762D01*
X158575464Y-55702841D01*
X158671718Y-55828282D01*
X158797159Y-55924536D01*
X158943238Y-55985044D01*
X159021619Y-55995363D01*
X159099999Y-56005682D01*
X159100000Y-56005682D01*
X159100001Y-56005682D01*
X159152254Y-55998802D01*
X159256762Y-55985044D01*
X159402841Y-55924536D01*
X159528282Y-55828282D01*
X159624536Y-55702841D01*
X159685044Y-55556762D01*
X159705682Y-55400000D01*
X159685044Y-55243238D01*
X159625712Y-55099998D01*
X161194318Y-55099998D01*
X161194318Y-55100001D01*
X161214955Y-55256760D01*
X161214956Y-55256762D01*
X161274287Y-55400001D01*
X161275464Y-55402841D01*
X161371718Y-55528282D01*
X161497159Y-55624536D01*
X161643238Y-55685044D01*
X161721619Y-55695363D01*
X161799999Y-55705682D01*
X161800000Y-55705682D01*
X161800001Y-55705682D01*
X161852254Y-55698802D01*
X161956762Y-55685044D01*
X162102841Y-55624536D01*
X162228282Y-55528282D01*
X162324536Y-55402841D01*
X162325714Y-55399998D01*
X173194318Y-55399998D01*
X173194318Y-55400001D01*
X173214955Y-55556760D01*
X173214956Y-55556762D01*
X173275464Y-55702841D01*
X173371718Y-55828282D01*
X173497159Y-55924536D01*
X173643238Y-55985044D01*
X173721619Y-55995363D01*
X173799999Y-56005682D01*
X173800000Y-56005682D01*
X173800001Y-56005682D01*
X173852254Y-55998802D01*
X173956762Y-55985044D01*
X174102841Y-55924536D01*
X174228282Y-55828282D01*
X174324536Y-55702841D01*
X174385044Y-55556762D01*
X174405682Y-55400000D01*
X174385044Y-55243238D01*
X174324536Y-55097159D01*
X174228282Y-54971718D01*
X174102841Y-54875464D01*
X174015492Y-54839283D01*
X173956762Y-54814956D01*
X173956760Y-54814955D01*
X173800001Y-54794318D01*
X173799999Y-54794318D01*
X173643239Y-54814955D01*
X173643237Y-54814956D01*
X173497160Y-54875463D01*
X173371718Y-54971718D01*
X173275463Y-55097160D01*
X173214956Y-55243237D01*
X173214955Y-55243239D01*
X173194318Y-55399998D01*
X162325714Y-55399998D01*
X162385044Y-55256762D01*
X162405682Y-55100000D01*
X162385044Y-54943238D01*
X162324536Y-54797159D01*
X162228282Y-54671718D01*
X162102841Y-54575464D01*
X161956762Y-54514956D01*
X161956760Y-54514955D01*
X161800001Y-54494318D01*
X161799999Y-54494318D01*
X161643239Y-54514955D01*
X161643237Y-54514956D01*
X161497160Y-54575463D01*
X161371718Y-54671718D01*
X161275463Y-54797160D01*
X161214956Y-54943237D01*
X161214955Y-54943239D01*
X161194318Y-55099998D01*
X159625712Y-55099998D01*
X159624536Y-55097159D01*
X159528282Y-54971718D01*
X159402841Y-54875464D01*
X159315492Y-54839283D01*
X159256762Y-54814956D01*
X159256760Y-54814955D01*
X159100001Y-54794318D01*
X159099999Y-54794318D01*
X158943239Y-54814955D01*
X158943237Y-54814956D01*
X158797160Y-54875463D01*
X158671718Y-54971718D01*
X158575463Y-55097160D01*
X158514956Y-55243237D01*
X158514955Y-55243239D01*
X158494318Y-55399998D01*
X123800000Y-55399998D01*
X123800000Y-54299999D01*
X149844722Y-54299999D01*
X149844722Y-54300000D01*
X149863762Y-54456818D01*
X149908759Y-54575463D01*
X149919780Y-54604523D01*
X150009517Y-54734530D01*
X150127760Y-54839283D01*
X150127762Y-54839284D01*
X150267634Y-54912696D01*
X150421014Y-54950500D01*
X150421015Y-54950500D01*
X150578985Y-54950500D01*
X150732365Y-54912696D01*
X150872240Y-54839283D01*
X150990483Y-54734530D01*
X151080220Y-54604523D01*
X151136237Y-54456818D01*
X151155278Y-54300000D01*
X151136237Y-54143182D01*
X151080220Y-53995477D01*
X150990483Y-53865470D01*
X150872240Y-53760717D01*
X150872238Y-53760716D01*
X150872237Y-53760715D01*
X150732365Y-53687303D01*
X150578986Y-53649500D01*
X150578985Y-53649500D01*
X150421015Y-53649500D01*
X150421014Y-53649500D01*
X150267634Y-53687303D01*
X150127762Y-53760715D01*
X150009516Y-53865471D01*
X149919781Y-53995475D01*
X149919780Y-53995476D01*
X149863762Y-54143181D01*
X149844722Y-54299999D01*
X123800000Y-54299999D01*
X123800000Y-53499999D01*
X153344722Y-53499999D01*
X153344722Y-53500000D01*
X153363762Y-53656818D01*
X153419780Y-53804523D01*
X153509517Y-53934530D01*
X153627760Y-54039283D01*
X153627762Y-54039284D01*
X153767634Y-54112696D01*
X153921014Y-54150500D01*
X153921015Y-54150500D01*
X154078985Y-54150500D01*
X154232365Y-54112696D01*
X154372240Y-54039283D01*
X154490483Y-53934530D01*
X154580220Y-53804523D01*
X154636237Y-53656818D01*
X154655278Y-53500000D01*
X154636237Y-53343182D01*
X154580220Y-53195477D01*
X154490483Y-53065470D01*
X154455665Y-53034624D01*
X171747068Y-53034624D01*
X171747068Y-53034627D01*
X171767705Y-53191386D01*
X171767706Y-53191388D01*
X171828214Y-53337467D01*
X171924468Y-53462908D01*
X172049909Y-53559162D01*
X172195988Y-53619670D01*
X172274369Y-53629989D01*
X172352749Y-53640308D01*
X172352750Y-53640308D01*
X172352751Y-53640308D01*
X172405004Y-53633428D01*
X172509512Y-53619670D01*
X172655591Y-53559162D01*
X172781032Y-53462908D01*
X172877286Y-53337467D01*
X172937794Y-53191388D01*
X172958432Y-53034626D01*
X172954621Y-53005682D01*
X172937794Y-52877865D01*
X172937794Y-52877864D01*
X172877286Y-52731785D01*
X172781032Y-52606344D01*
X172655591Y-52510090D01*
X172509512Y-52449582D01*
X172509510Y-52449581D01*
X172352751Y-52428944D01*
X172352749Y-52428944D01*
X172195989Y-52449581D01*
X172195987Y-52449582D01*
X172049910Y-52510089D01*
X171924468Y-52606344D01*
X171828213Y-52731786D01*
X171767706Y-52877863D01*
X171767705Y-52877865D01*
X171747068Y-53034624D01*
X154455665Y-53034624D01*
X154372240Y-52960717D01*
X154372238Y-52960716D01*
X154372237Y-52960715D01*
X154232365Y-52887303D01*
X154078986Y-52849500D01*
X154078985Y-52849500D01*
X153921015Y-52849500D01*
X153921014Y-52849500D01*
X153767634Y-52887303D01*
X153627762Y-52960715D01*
X153509516Y-53065471D01*
X153419781Y-53195475D01*
X153419780Y-53195476D01*
X153363762Y-53343181D01*
X153344722Y-53499999D01*
X123800000Y-53499999D01*
X123800000Y-52399998D01*
X148094318Y-52399998D01*
X148094318Y-52400001D01*
X148114955Y-52556760D01*
X148114956Y-52556762D01*
X148175464Y-52702841D01*
X148271718Y-52828282D01*
X148397159Y-52924536D01*
X148543238Y-52985044D01*
X148621619Y-52995363D01*
X148699999Y-53005682D01*
X148700000Y-53005682D01*
X148700001Y-53005682D01*
X148752254Y-52998802D01*
X148856762Y-52985044D01*
X149002841Y-52924536D01*
X149128282Y-52828282D01*
X149224536Y-52702841D01*
X149285044Y-52556762D01*
X149299155Y-52449581D01*
X149305682Y-52400001D01*
X149305682Y-52399998D01*
X149285044Y-52243239D01*
X149285044Y-52243238D01*
X149225712Y-52099998D01*
X180694318Y-52099998D01*
X180694318Y-52100001D01*
X180714955Y-52256760D01*
X180714956Y-52256762D01*
X180774287Y-52400001D01*
X180775464Y-52402841D01*
X180871718Y-52528282D01*
X180997159Y-52624536D01*
X181143238Y-52685044D01*
X181221619Y-52695363D01*
X181299999Y-52705682D01*
X181300000Y-52705682D01*
X181300001Y-52705682D01*
X181352254Y-52698802D01*
X181456762Y-52685044D01*
X181602841Y-52624536D01*
X181728282Y-52528282D01*
X181824536Y-52402841D01*
X181885044Y-52256762D01*
X181905682Y-52100000D01*
X181885044Y-51943238D01*
X181824536Y-51797159D01*
X181728282Y-51671718D01*
X181602841Y-51575464D01*
X181456762Y-51514956D01*
X181456760Y-51514955D01*
X181300001Y-51494318D01*
X181299999Y-51494318D01*
X181143239Y-51514955D01*
X181143237Y-51514956D01*
X180997160Y-51575463D01*
X180871718Y-51671718D01*
X180775463Y-51797160D01*
X180714956Y-51943237D01*
X180714955Y-51943239D01*
X180694318Y-52099998D01*
X149225712Y-52099998D01*
X149224536Y-52097159D01*
X149128282Y-51971718D01*
X149002841Y-51875464D01*
X148958453Y-51857078D01*
X148856762Y-51814956D01*
X148856760Y-51814955D01*
X148700001Y-51794318D01*
X148699999Y-51794318D01*
X148543239Y-51814955D01*
X148543237Y-51814956D01*
X148397160Y-51875463D01*
X148271718Y-51971718D01*
X148175463Y-52097160D01*
X148114956Y-52243237D01*
X148114955Y-52243239D01*
X148094318Y-52399998D01*
X123800000Y-52399998D01*
X123800000Y-51299998D01*
X168194318Y-51299998D01*
X168194318Y-51300001D01*
X168214955Y-51456760D01*
X168214956Y-51456762D01*
X168275464Y-51602841D01*
X168371718Y-51728282D01*
X168497159Y-51824536D01*
X168643238Y-51885044D01*
X168721619Y-51895363D01*
X168799999Y-51905682D01*
X168800000Y-51905682D01*
X168800001Y-51905682D01*
X168852254Y-51898802D01*
X168956762Y-51885044D01*
X169102841Y-51824536D01*
X169228282Y-51728282D01*
X169324536Y-51602841D01*
X169385044Y-51456762D01*
X169405682Y-51300000D01*
X169385044Y-51143238D01*
X169324536Y-50997159D01*
X169228282Y-50871718D01*
X169102841Y-50775464D01*
X168956762Y-50714956D01*
X168956760Y-50714955D01*
X168800001Y-50694318D01*
X168799999Y-50694318D01*
X168643239Y-50714955D01*
X168643237Y-50714956D01*
X168497160Y-50775463D01*
X168371718Y-50871718D01*
X168275463Y-50997160D01*
X168214956Y-51143237D01*
X168214955Y-51143239D01*
X168194318Y-51299998D01*
X123800000Y-51299998D01*
X123800000Y-50099998D01*
X146694318Y-50099998D01*
X146694318Y-50100001D01*
X146714955Y-50256760D01*
X146714956Y-50256762D01*
X146775464Y-50402841D01*
X146871718Y-50528282D01*
X146997159Y-50624536D01*
X147143238Y-50685044D01*
X147213681Y-50694318D01*
X147299999Y-50705682D01*
X147300000Y-50705682D01*
X147300001Y-50705682D01*
X147352254Y-50698802D01*
X147456762Y-50685044D01*
X147602841Y-50624536D01*
X147685948Y-50560766D01*
X172337050Y-50560766D01*
X172337050Y-50779233D01*
X172371226Y-50995013D01*
X172438734Y-51202785D01*
X172481444Y-51286606D01*
X172521795Y-51365800D01*
X172537921Y-51397447D01*
X172666325Y-51574182D01*
X172666329Y-51574187D01*
X172820812Y-51728670D01*
X172820817Y-51728674D01*
X172952761Y-51824536D01*
X172997556Y-51857081D01*
X173166649Y-51943239D01*
X173192214Y-51956265D01*
X173296100Y-51990019D01*
X173399988Y-52023774D01*
X173615766Y-52057950D01*
X173615767Y-52057950D01*
X173834233Y-52057950D01*
X173834234Y-52057950D01*
X174050012Y-52023774D01*
X174257788Y-51956264D01*
X174452444Y-51857081D01*
X174629189Y-51728669D01*
X174783669Y-51574189D01*
X174912081Y-51397444D01*
X175011264Y-51202788D01*
X175078774Y-50995012D01*
X175112950Y-50779234D01*
X175112950Y-50601465D01*
X175569200Y-50601465D01*
X175569200Y-50738534D01*
X175595937Y-50872949D01*
X175595940Y-50872961D01*
X175648386Y-50999578D01*
X175648393Y-50999591D01*
X175724536Y-51113546D01*
X175724539Y-51113550D01*
X175821449Y-51210460D01*
X175821453Y-51210463D01*
X175935408Y-51286606D01*
X175935421Y-51286613D01*
X176062038Y-51339059D01*
X176062043Y-51339061D01*
X176196465Y-51365799D01*
X176196469Y-51365800D01*
X176196470Y-51365800D01*
X176333531Y-51365800D01*
X176333532Y-51365799D01*
X176467957Y-51339061D01*
X176594585Y-51286610D01*
X176708547Y-51210463D01*
X176805463Y-51113547D01*
X176881610Y-50999585D01*
X176882615Y-50997160D01*
X176934059Y-50872961D01*
X176934061Y-50872957D01*
X176960800Y-50738530D01*
X176960800Y-50601470D01*
X176952704Y-50560766D01*
X177417050Y-50560766D01*
X177417050Y-50779233D01*
X177451226Y-50995013D01*
X177518734Y-51202785D01*
X177561444Y-51286606D01*
X177601795Y-51365800D01*
X177617921Y-51397447D01*
X177746325Y-51574182D01*
X177746329Y-51574187D01*
X177900812Y-51728670D01*
X177900817Y-51728674D01*
X178032761Y-51824536D01*
X178077556Y-51857081D01*
X178246649Y-51943239D01*
X178272214Y-51956265D01*
X178376100Y-51990019D01*
X178479988Y-52023774D01*
X178695766Y-52057950D01*
X178695767Y-52057950D01*
X178914233Y-52057950D01*
X178914234Y-52057950D01*
X179130012Y-52023774D01*
X179337788Y-51956264D01*
X179532444Y-51857081D01*
X179709189Y-51728669D01*
X179863669Y-51574189D01*
X179992081Y-51397444D01*
X180091264Y-51202788D01*
X180158774Y-50995012D01*
X180192950Y-50779234D01*
X180192950Y-50560766D01*
X180158774Y-50344988D01*
X180091264Y-50137212D01*
X179992081Y-49942556D01*
X179906335Y-49824536D01*
X179863674Y-49765817D01*
X179863670Y-49765812D01*
X179709187Y-49611329D01*
X179709182Y-49611325D01*
X179532447Y-49482921D01*
X179532446Y-49482920D01*
X179532444Y-49482919D01*
X179435116Y-49433327D01*
X179337785Y-49383734D01*
X179130013Y-49316226D01*
X179022123Y-49299138D01*
X178914234Y-49282050D01*
X178695766Y-49282050D01*
X178623840Y-49293442D01*
X178479986Y-49316226D01*
X178272214Y-49383734D01*
X178077552Y-49482921D01*
X177900817Y-49611325D01*
X177900812Y-49611329D01*
X177746329Y-49765812D01*
X177746325Y-49765817D01*
X177617921Y-49942552D01*
X177518734Y-50137214D01*
X177451226Y-50344986D01*
X177417050Y-50560766D01*
X176952704Y-50560766D01*
X176934061Y-50467043D01*
X176907467Y-50402839D01*
X176881613Y-50340421D01*
X176881606Y-50340408D01*
X176805463Y-50226453D01*
X176805460Y-50226449D01*
X176708550Y-50129539D01*
X176708546Y-50129536D01*
X176594591Y-50053393D01*
X176594578Y-50053386D01*
X176467961Y-50000940D01*
X176467949Y-50000937D01*
X176333534Y-49974200D01*
X176333530Y-49974200D01*
X176196470Y-49974200D01*
X176196465Y-49974200D01*
X176062050Y-50000937D01*
X176062038Y-50000940D01*
X175935421Y-50053386D01*
X175935408Y-50053393D01*
X175821453Y-50129536D01*
X175821449Y-50129539D01*
X175724539Y-50226449D01*
X175724536Y-50226453D01*
X175648393Y-50340408D01*
X175648386Y-50340421D01*
X175595940Y-50467038D01*
X175595937Y-50467050D01*
X175569200Y-50601465D01*
X175112950Y-50601465D01*
X175112950Y-50560766D01*
X175078774Y-50344988D01*
X175011264Y-50137212D01*
X174912081Y-49942556D01*
X174826335Y-49824536D01*
X174783674Y-49765817D01*
X174783670Y-49765812D01*
X174629187Y-49611329D01*
X174629182Y-49611325D01*
X174452447Y-49482921D01*
X174452446Y-49482920D01*
X174452444Y-49482919D01*
X174355116Y-49433327D01*
X174257785Y-49383734D01*
X174050013Y-49316226D01*
X173942123Y-49299138D01*
X173834234Y-49282050D01*
X173615766Y-49282050D01*
X173543840Y-49293442D01*
X173399986Y-49316226D01*
X173192214Y-49383734D01*
X172997552Y-49482921D01*
X172820817Y-49611325D01*
X172820812Y-49611329D01*
X172666329Y-49765812D01*
X172666325Y-49765817D01*
X172537921Y-49942552D01*
X172438734Y-50137214D01*
X172371226Y-50344986D01*
X172337050Y-50560766D01*
X147685948Y-50560766D01*
X147728282Y-50528282D01*
X147824536Y-50402841D01*
X147885044Y-50256762D01*
X147905682Y-50100000D01*
X147885044Y-49943238D01*
X147824536Y-49797159D01*
X147728282Y-49671718D01*
X147602841Y-49575464D01*
X147456762Y-49514956D01*
X147456760Y-49514955D01*
X147300001Y-49494318D01*
X147299999Y-49494318D01*
X147143239Y-49514955D01*
X147143237Y-49514956D01*
X146997160Y-49575463D01*
X146871718Y-49671718D01*
X146775463Y-49797160D01*
X146714956Y-49943237D01*
X146714955Y-49943239D01*
X146694318Y-50099998D01*
X123800000Y-50099998D01*
X123800000Y-49299998D01*
X154194318Y-49299998D01*
X154194318Y-49300001D01*
X154214955Y-49456760D01*
X154214956Y-49456762D01*
X154275464Y-49602841D01*
X154371718Y-49728282D01*
X154497159Y-49824536D01*
X154643238Y-49885044D01*
X154721619Y-49895363D01*
X154799999Y-49905682D01*
X154800000Y-49905682D01*
X154800001Y-49905682D01*
X154852254Y-49898802D01*
X154956762Y-49885044D01*
X155102841Y-49824536D01*
X155228282Y-49728282D01*
X155324536Y-49602841D01*
X155385044Y-49456762D01*
X155405682Y-49300000D01*
X155385044Y-49143238D01*
X155324536Y-48997159D01*
X155228282Y-48871718D01*
X155102841Y-48775464D01*
X154956762Y-48714956D01*
X154956760Y-48714955D01*
X154800001Y-48694318D01*
X154799999Y-48694318D01*
X154643239Y-48714955D01*
X154643237Y-48714956D01*
X154497160Y-48775463D01*
X154371718Y-48871718D01*
X154275463Y-48997160D01*
X154214956Y-49143237D01*
X154214955Y-49143239D01*
X154194318Y-49299998D01*
X123800000Y-49299998D01*
X123800000Y-47385766D01*
X172337050Y-47385766D01*
X172337050Y-47604233D01*
X172371226Y-47820013D01*
X172438734Y-48027785D01*
X172537921Y-48222447D01*
X172666325Y-48399182D01*
X172666329Y-48399187D01*
X172820812Y-48553670D01*
X172820817Y-48553674D01*
X172974974Y-48665674D01*
X172997556Y-48682081D01*
X173180827Y-48775463D01*
X173192214Y-48781265D01*
X173296100Y-48815019D01*
X173399988Y-48848774D01*
X173615766Y-48882950D01*
X173615767Y-48882950D01*
X173834233Y-48882950D01*
X173834234Y-48882950D01*
X174050012Y-48848774D01*
X174257788Y-48781264D01*
X174452444Y-48682081D01*
X174629189Y-48553669D01*
X174783669Y-48399189D01*
X174912081Y-48222444D01*
X175011264Y-48027788D01*
X175078774Y-47820012D01*
X175112950Y-47604234D01*
X175112950Y-47385766D01*
X177417050Y-47385766D01*
X177417050Y-47604233D01*
X177451226Y-47820013D01*
X177518734Y-48027785D01*
X177617921Y-48222447D01*
X177746325Y-48399182D01*
X177746329Y-48399187D01*
X177900812Y-48553670D01*
X177900817Y-48553674D01*
X178054974Y-48665674D01*
X178077556Y-48682081D01*
X178260827Y-48775463D01*
X178272214Y-48781265D01*
X178376100Y-48815019D01*
X178479988Y-48848774D01*
X178695766Y-48882950D01*
X178695767Y-48882950D01*
X178914233Y-48882950D01*
X178914234Y-48882950D01*
X179130012Y-48848774D01*
X179337788Y-48781264D01*
X179532444Y-48682081D01*
X179709189Y-48553669D01*
X179863669Y-48399189D01*
X179992081Y-48222444D01*
X180091264Y-48027788D01*
X180158774Y-47820012D01*
X180192950Y-47604234D01*
X180192950Y-47385766D01*
X180158774Y-47169988D01*
X180091264Y-46962212D01*
X179992081Y-46767556D01*
X179975674Y-46744974D01*
X179863674Y-46590817D01*
X179863670Y-46590812D01*
X179709187Y-46436329D01*
X179709182Y-46436325D01*
X179532447Y-46307921D01*
X179532446Y-46307920D01*
X179532444Y-46307919D01*
X179435116Y-46258327D01*
X179337785Y-46208734D01*
X179130013Y-46141226D01*
X179022123Y-46124138D01*
X178914234Y-46107050D01*
X178695766Y-46107050D01*
X178623840Y-46118442D01*
X178479986Y-46141226D01*
X178272214Y-46208734D01*
X178077552Y-46307921D01*
X177900817Y-46436325D01*
X177900812Y-46436329D01*
X177746329Y-46590812D01*
X177746325Y-46590817D01*
X177617921Y-46767552D01*
X177518734Y-46962214D01*
X177451226Y-47169986D01*
X177417050Y-47385766D01*
X175112950Y-47385766D01*
X175078774Y-47169988D01*
X175011264Y-46962212D01*
X174912081Y-46767556D01*
X174895674Y-46744974D01*
X174783674Y-46590817D01*
X174783670Y-46590812D01*
X174629187Y-46436329D01*
X174629182Y-46436325D01*
X174452447Y-46307921D01*
X174452446Y-46307920D01*
X174452444Y-46307919D01*
X174355116Y-46258327D01*
X174257785Y-46208734D01*
X174050013Y-46141226D01*
X173942123Y-46124138D01*
X173834234Y-46107050D01*
X173615766Y-46107050D01*
X173543840Y-46118442D01*
X173399986Y-46141226D01*
X173192214Y-46208734D01*
X172997552Y-46307921D01*
X172820817Y-46436325D01*
X172820812Y-46436329D01*
X172666329Y-46590812D01*
X172666325Y-46590817D01*
X172537921Y-46767552D01*
X172438734Y-46962214D01*
X172371226Y-47169986D01*
X172337050Y-47385766D01*
X123800000Y-47385766D01*
X123800000Y-46400000D01*
X123300000Y-46000000D01*
X108128017Y-46000000D01*
X108074705Y-45987955D01*
X107095076Y-45521465D01*
X174553200Y-45521465D01*
X174553200Y-45658534D01*
X174579937Y-45792949D01*
X174579940Y-45792961D01*
X174632386Y-45919578D01*
X174632393Y-45919591D01*
X174708536Y-46033546D01*
X174708539Y-46033550D01*
X174805449Y-46130460D01*
X174805453Y-46130463D01*
X174919408Y-46206606D01*
X174919421Y-46206613D01*
X175046038Y-46259059D01*
X175046043Y-46259061D01*
X175180465Y-46285799D01*
X175180469Y-46285800D01*
X175180470Y-46285800D01*
X175317531Y-46285800D01*
X175317532Y-46285799D01*
X175451957Y-46259061D01*
X175549893Y-46218494D01*
X175578578Y-46206613D01*
X175578578Y-46206612D01*
X175578585Y-46206610D01*
X175692547Y-46130463D01*
X175789463Y-46033547D01*
X175865610Y-45919585D01*
X175918061Y-45792957D01*
X175944800Y-45658530D01*
X175944800Y-45521470D01*
X175944799Y-45521465D01*
X176585200Y-45521465D01*
X176585200Y-45658534D01*
X176611937Y-45792949D01*
X176611940Y-45792961D01*
X176664386Y-45919578D01*
X176664393Y-45919591D01*
X176740536Y-46033546D01*
X176740539Y-46033550D01*
X176837449Y-46130460D01*
X176837453Y-46130463D01*
X176951408Y-46206606D01*
X176951421Y-46206613D01*
X177078038Y-46259059D01*
X177078043Y-46259061D01*
X177212465Y-46285799D01*
X177212469Y-46285800D01*
X177212470Y-46285800D01*
X177349531Y-46285800D01*
X177349532Y-46285799D01*
X177483957Y-46259061D01*
X177581893Y-46218494D01*
X177610578Y-46206613D01*
X177610578Y-46206612D01*
X177610585Y-46206610D01*
X177724547Y-46130463D01*
X177821463Y-46033547D01*
X177897610Y-45919585D01*
X177950061Y-45792957D01*
X177976800Y-45658530D01*
X177976800Y-45521470D01*
X177950061Y-45387043D01*
X177950059Y-45387038D01*
X177897613Y-45260421D01*
X177897606Y-45260408D01*
X177821463Y-45146453D01*
X177821460Y-45146449D01*
X177724550Y-45049539D01*
X177724546Y-45049536D01*
X177610591Y-44973393D01*
X177610578Y-44973386D01*
X177483961Y-44920940D01*
X177483949Y-44920937D01*
X177349534Y-44894200D01*
X177349530Y-44894200D01*
X177212470Y-44894200D01*
X177212465Y-44894200D01*
X177078050Y-44920937D01*
X177078038Y-44920940D01*
X176951421Y-44973386D01*
X176951408Y-44973393D01*
X176837453Y-45049536D01*
X176837449Y-45049539D01*
X176740539Y-45146449D01*
X176740536Y-45146453D01*
X176664393Y-45260408D01*
X176664386Y-45260421D01*
X176611940Y-45387038D01*
X176611937Y-45387050D01*
X176585200Y-45521465D01*
X175944799Y-45521465D01*
X175918061Y-45387043D01*
X175918059Y-45387038D01*
X175865613Y-45260421D01*
X175865606Y-45260408D01*
X175789463Y-45146453D01*
X175789460Y-45146449D01*
X175692550Y-45049539D01*
X175692546Y-45049536D01*
X175578591Y-44973393D01*
X175578578Y-44973386D01*
X175451961Y-44920940D01*
X175451949Y-44920937D01*
X175317534Y-44894200D01*
X175317530Y-44894200D01*
X175180470Y-44894200D01*
X175180465Y-44894200D01*
X175046050Y-44920937D01*
X175046038Y-44920940D01*
X174919421Y-44973386D01*
X174919408Y-44973393D01*
X174805453Y-45049536D01*
X174805449Y-45049539D01*
X174708539Y-45146449D01*
X174708536Y-45146453D01*
X174632393Y-45260408D01*
X174632386Y-45260421D01*
X174579940Y-45387038D01*
X174579937Y-45387050D01*
X174553200Y-45521465D01*
X107095076Y-45521465D01*
X106000000Y-45000000D01*
X93000000Y-45000000D01*
X91700001Y-46399998D01*
X91700000Y-46400000D01*
X90800500Y-46400000D01*
X90800500Y-43899998D01*
X155894318Y-43899998D01*
X155894318Y-43900001D01*
X155914955Y-44056760D01*
X155914956Y-44056762D01*
X155975464Y-44202841D01*
X156071718Y-44328282D01*
X156197159Y-44424536D01*
X156343238Y-44485044D01*
X156421619Y-44495363D01*
X156499999Y-44505682D01*
X156500000Y-44505682D01*
X156500001Y-44505682D01*
X156552254Y-44498802D01*
X156656762Y-44485044D01*
X156802841Y-44424536D01*
X156928282Y-44328282D01*
X157024536Y-44202841D01*
X157085044Y-44056762D01*
X157105682Y-43900000D01*
X157085044Y-43743238D01*
X157024536Y-43597159D01*
X156928282Y-43471718D01*
X156802841Y-43375464D01*
X156656762Y-43314956D01*
X156656760Y-43314955D01*
X156543146Y-43299998D01*
X170994318Y-43299998D01*
X170994318Y-43300001D01*
X171014955Y-43456760D01*
X171014956Y-43456762D01*
X171075464Y-43602841D01*
X171171718Y-43728282D01*
X171297159Y-43824536D01*
X171443238Y-43885044D01*
X171521619Y-43895363D01*
X171599999Y-43905682D01*
X171600000Y-43905682D01*
X171600001Y-43905682D01*
X171652254Y-43898802D01*
X171756762Y-43885044D01*
X171902841Y-43824536D01*
X172028282Y-43728282D01*
X172124536Y-43602841D01*
X172185044Y-43456762D01*
X172205682Y-43300000D01*
X172185044Y-43143238D01*
X172124536Y-42997159D01*
X172028282Y-42871718D01*
X171902841Y-42775464D01*
X171756762Y-42714956D01*
X171756760Y-42714955D01*
X171600001Y-42694318D01*
X171599999Y-42694318D01*
X171443239Y-42714955D01*
X171443237Y-42714956D01*
X171297160Y-42775463D01*
X171171718Y-42871718D01*
X171075463Y-42997160D01*
X171014956Y-43143237D01*
X171014955Y-43143239D01*
X170994318Y-43299998D01*
X156543146Y-43299998D01*
X156500001Y-43294318D01*
X156499999Y-43294318D01*
X156343239Y-43314955D01*
X156343237Y-43314956D01*
X156197160Y-43375463D01*
X156071718Y-43471718D01*
X155975463Y-43597160D01*
X155914956Y-43743237D01*
X155914955Y-43743239D01*
X155894318Y-43899998D01*
X90800500Y-43899998D01*
X90800500Y-37599998D01*
X168794318Y-37599998D01*
X168794318Y-37600001D01*
X168814955Y-37756760D01*
X168814956Y-37756762D01*
X168875464Y-37902841D01*
X168971718Y-38028282D01*
X169097159Y-38124536D01*
X169243238Y-38185044D01*
X169321619Y-38195363D01*
X169399999Y-38205682D01*
X169400000Y-38205682D01*
X169400001Y-38205682D01*
X169452254Y-38198802D01*
X169556762Y-38185044D01*
X169702841Y-38124536D01*
X169828282Y-38028282D01*
X169924536Y-37902841D01*
X169985044Y-37756762D01*
X170005682Y-37600000D01*
X169985044Y-37443238D01*
X169924536Y-37297159D01*
X169828282Y-37171718D01*
X169702841Y-37075464D01*
X169556762Y-37014956D01*
X169556760Y-37014955D01*
X169400001Y-36994318D01*
X169399999Y-36994318D01*
X169243239Y-37014955D01*
X169243237Y-37014956D01*
X169097160Y-37075463D01*
X168971718Y-37171718D01*
X168875463Y-37297160D01*
X168814956Y-37443237D01*
X168814955Y-37443239D01*
X168794318Y-37599998D01*
X90800500Y-37599998D01*
X90800500Y-33699999D01*
X129644722Y-33699999D01*
X129644722Y-33700000D01*
X129663762Y-33856818D01*
X129719780Y-34004523D01*
X129809517Y-34134530D01*
X129927760Y-34239283D01*
X129927762Y-34239284D01*
X130067634Y-34312696D01*
X130221014Y-34350500D01*
X130221015Y-34350500D01*
X130378985Y-34350500D01*
X130532365Y-34312696D01*
X130672240Y-34239283D01*
X130790483Y-34134530D01*
X130880220Y-34004523D01*
X130936237Y-33856818D01*
X130955278Y-33700000D01*
X130936237Y-33543182D01*
X130880220Y-33395477D01*
X130790483Y-33265470D01*
X130672240Y-33160717D01*
X130672238Y-33160716D01*
X130672237Y-33160715D01*
X130532365Y-33087303D01*
X130378986Y-33049500D01*
X130378985Y-33049500D01*
X130221015Y-33049500D01*
X130221014Y-33049500D01*
X130067634Y-33087303D01*
X129927762Y-33160715D01*
X129809516Y-33265471D01*
X129719781Y-33395475D01*
X129719780Y-33395476D01*
X129663762Y-33543181D01*
X129644722Y-33699999D01*
X90800500Y-33699999D01*
X90800500Y-30002706D01*
X90800618Y-29997297D01*
X90805652Y-29881995D01*
X93499500Y-29881995D01*
X93499500Y-30118004D01*
X93499501Y-30118020D01*
X93530306Y-30352010D01*
X93591394Y-30579993D01*
X93681714Y-30798045D01*
X93681719Y-30798056D01*
X93752677Y-30920957D01*
X93799727Y-31002450D01*
X93799729Y-31002453D01*
X93799730Y-31002454D01*
X93943406Y-31189697D01*
X93943412Y-31189704D01*
X94110295Y-31356587D01*
X94110302Y-31356593D01*
X94220306Y-31441001D01*
X94297550Y-31500273D01*
X94428918Y-31576118D01*
X94501943Y-31618280D01*
X94501948Y-31618282D01*
X94501951Y-31618284D01*
X94720007Y-31708606D01*
X94947986Y-31769693D01*
X95181989Y-31800500D01*
X95181996Y-31800500D01*
X95418004Y-31800500D01*
X95418011Y-31800500D01*
X95652014Y-31769693D01*
X95879993Y-31708606D01*
X96098049Y-31618284D01*
X96302450Y-31500273D01*
X96489699Y-31356592D01*
X96656592Y-31189699D01*
X96800273Y-31002450D01*
X96918284Y-30798049D01*
X97008606Y-30579993D01*
X97056835Y-30399999D01*
X133934785Y-30399999D01*
X133934785Y-30400000D01*
X133953602Y-30603082D01*
X134009417Y-30799247D01*
X134009422Y-30799260D01*
X134100327Y-30981821D01*
X134223237Y-31144581D01*
X134373958Y-31281980D01*
X134373960Y-31281982D01*
X134473141Y-31343392D01*
X134547363Y-31389348D01*
X134737544Y-31463024D01*
X134938024Y-31500500D01*
X134938026Y-31500500D01*
X135141974Y-31500500D01*
X135141976Y-31500500D01*
X135342456Y-31463024D01*
X135532637Y-31389348D01*
X135706041Y-31281981D01*
X135856764Y-31144579D01*
X135979673Y-30981821D01*
X136070582Y-30799250D01*
X136126397Y-30603083D01*
X136145215Y-30400000D01*
X136145215Y-30399999D01*
X136474785Y-30399999D01*
X136474785Y-30400000D01*
X136493602Y-30603082D01*
X136549417Y-30799247D01*
X136549422Y-30799260D01*
X136640327Y-30981821D01*
X136763237Y-31144581D01*
X136913958Y-31281980D01*
X136913960Y-31281982D01*
X137013141Y-31343392D01*
X137087363Y-31389348D01*
X137277544Y-31463024D01*
X137478024Y-31500500D01*
X137478026Y-31500500D01*
X137681974Y-31500500D01*
X137681976Y-31500500D01*
X137882456Y-31463024D01*
X138072637Y-31389348D01*
X138246041Y-31281981D01*
X138396764Y-31144579D01*
X138519673Y-30981821D01*
X138610582Y-30799250D01*
X138666397Y-30603083D01*
X138685215Y-30400000D01*
X138685215Y-30399999D01*
X139014785Y-30399999D01*
X139014785Y-30400000D01*
X139033602Y-30603082D01*
X139089417Y-30799247D01*
X139089422Y-30799260D01*
X139180327Y-30981821D01*
X139303237Y-31144581D01*
X139453958Y-31281980D01*
X139453960Y-31281982D01*
X139553141Y-31343392D01*
X139627363Y-31389348D01*
X139817544Y-31463024D01*
X140018024Y-31500500D01*
X140018026Y-31500500D01*
X140221974Y-31500500D01*
X140221976Y-31500500D01*
X140422456Y-31463024D01*
X140612637Y-31389348D01*
X140786041Y-31281981D01*
X140936764Y-31144579D01*
X141059673Y-30981821D01*
X141150582Y-30799250D01*
X141206397Y-30603083D01*
X141225215Y-30400000D01*
X141225215Y-30399999D01*
X145974785Y-30399999D01*
X145974785Y-30400000D01*
X145993602Y-30603082D01*
X146049417Y-30799247D01*
X146049422Y-30799260D01*
X146140327Y-30981821D01*
X146263237Y-31144581D01*
X146413958Y-31281980D01*
X146413960Y-31281982D01*
X146513141Y-31343392D01*
X146587363Y-31389348D01*
X146777544Y-31463024D01*
X146978024Y-31500500D01*
X146978026Y-31500500D01*
X147181974Y-31500500D01*
X147181976Y-31500500D01*
X147382456Y-31463024D01*
X147572637Y-31389348D01*
X147746041Y-31281981D01*
X147896764Y-31144579D01*
X148019673Y-30981821D01*
X148110582Y-30799250D01*
X148166397Y-30603083D01*
X148185215Y-30400000D01*
X148185215Y-30399999D01*
X148514785Y-30399999D01*
X148514785Y-30400000D01*
X148533602Y-30603082D01*
X148589417Y-30799247D01*
X148589422Y-30799260D01*
X148680327Y-30981821D01*
X148803237Y-31144581D01*
X148953958Y-31281980D01*
X148953960Y-31281982D01*
X149053141Y-31343392D01*
X149127363Y-31389348D01*
X149317544Y-31463024D01*
X149518024Y-31500500D01*
X149518026Y-31500500D01*
X149721974Y-31500500D01*
X149721976Y-31500500D01*
X149922456Y-31463024D01*
X150112637Y-31389348D01*
X150286041Y-31281981D01*
X150436764Y-31144579D01*
X150559673Y-30981821D01*
X150650582Y-30799250D01*
X150706397Y-30603083D01*
X150725215Y-30400000D01*
X150725215Y-30399999D01*
X151054785Y-30399999D01*
X151054785Y-30400000D01*
X151073602Y-30603082D01*
X151129417Y-30799247D01*
X151129422Y-30799260D01*
X151220327Y-30981821D01*
X151343237Y-31144581D01*
X151493958Y-31281980D01*
X151493960Y-31281982D01*
X151593141Y-31343392D01*
X151667363Y-31389348D01*
X151857544Y-31463024D01*
X152058024Y-31500500D01*
X152058026Y-31500500D01*
X152261974Y-31500500D01*
X152261976Y-31500500D01*
X152462456Y-31463024D01*
X152652637Y-31389348D01*
X152826041Y-31281981D01*
X152976764Y-31144579D01*
X153099673Y-30981821D01*
X153190582Y-30799250D01*
X153246397Y-30603083D01*
X153265215Y-30400000D01*
X153265215Y-30399999D01*
X163629785Y-30399999D01*
X163629785Y-30400000D01*
X163648602Y-30603082D01*
X163704417Y-30799247D01*
X163704422Y-30799260D01*
X163795327Y-30981821D01*
X163918237Y-31144581D01*
X164068958Y-31281980D01*
X164068960Y-31281982D01*
X164168141Y-31343392D01*
X164242363Y-31389348D01*
X164432544Y-31463024D01*
X164633024Y-31500500D01*
X164633026Y-31500500D01*
X164836974Y-31500500D01*
X164836976Y-31500500D01*
X165037456Y-31463024D01*
X165227637Y-31389348D01*
X165401041Y-31281981D01*
X165551764Y-31144579D01*
X165674673Y-30981821D01*
X165765582Y-30799250D01*
X165821397Y-30603083D01*
X165840215Y-30400000D01*
X165821397Y-30196917D01*
X165765582Y-30000750D01*
X165732398Y-29934108D01*
X165706449Y-29881995D01*
X198499500Y-29881995D01*
X198499500Y-30118004D01*
X198499501Y-30118020D01*
X198530306Y-30352010D01*
X198591394Y-30579993D01*
X198681714Y-30798045D01*
X198681719Y-30798056D01*
X198752677Y-30920957D01*
X198799727Y-31002450D01*
X198799729Y-31002453D01*
X198799730Y-31002454D01*
X198943406Y-31189697D01*
X198943412Y-31189704D01*
X199110295Y-31356587D01*
X199110302Y-31356593D01*
X199220306Y-31441001D01*
X199297550Y-31500273D01*
X199428918Y-31576118D01*
X199501943Y-31618280D01*
X199501948Y-31618282D01*
X199501951Y-31618284D01*
X199720007Y-31708606D01*
X199947986Y-31769693D01*
X200181989Y-31800500D01*
X200181996Y-31800500D01*
X200418004Y-31800500D01*
X200418011Y-31800500D01*
X200652014Y-31769693D01*
X200879993Y-31708606D01*
X201098049Y-31618284D01*
X201302450Y-31500273D01*
X201489699Y-31356592D01*
X201656592Y-31189699D01*
X201800273Y-31002450D01*
X201918284Y-30798049D01*
X202008606Y-30579993D01*
X202069693Y-30352014D01*
X202100500Y-30118011D01*
X202100500Y-29881989D01*
X202069693Y-29647986D01*
X202008606Y-29420007D01*
X201918284Y-29201951D01*
X201918282Y-29201948D01*
X201918280Y-29201943D01*
X201859423Y-29100001D01*
X201800273Y-28997550D01*
X201656592Y-28810301D01*
X201656587Y-28810295D01*
X201489704Y-28643412D01*
X201489697Y-28643406D01*
X201302454Y-28499730D01*
X201302453Y-28499729D01*
X201302450Y-28499727D01*
X201180235Y-28429166D01*
X201098056Y-28381719D01*
X201098045Y-28381714D01*
X200879993Y-28291394D01*
X200652010Y-28230306D01*
X200418020Y-28199501D01*
X200418017Y-28199500D01*
X200418011Y-28199500D01*
X200181989Y-28199500D01*
X200181983Y-28199500D01*
X200181979Y-28199501D01*
X199947989Y-28230306D01*
X199720006Y-28291394D01*
X199501954Y-28381714D01*
X199501943Y-28381719D01*
X199297545Y-28499730D01*
X199110302Y-28643406D01*
X199110295Y-28643412D01*
X198943412Y-28810295D01*
X198943406Y-28810302D01*
X198799730Y-28997545D01*
X198681719Y-29201943D01*
X198681714Y-29201954D01*
X198591394Y-29420006D01*
X198530306Y-29647989D01*
X198499501Y-29881979D01*
X198499500Y-29881995D01*
X165706449Y-29881995D01*
X165706441Y-29881979D01*
X165674673Y-29818179D01*
X165574134Y-29685044D01*
X165551762Y-29655418D01*
X165401041Y-29518019D01*
X165401039Y-29518017D01*
X165227642Y-29410655D01*
X165227635Y-29410651D01*
X165132546Y-29373814D01*
X165037456Y-29336976D01*
X164836976Y-29299500D01*
X164633024Y-29299500D01*
X164432544Y-29336976D01*
X164432541Y-29336976D01*
X164432541Y-29336977D01*
X164242364Y-29410651D01*
X164242357Y-29410655D01*
X164068960Y-29518017D01*
X164068958Y-29518019D01*
X163918237Y-29655418D01*
X163795327Y-29818178D01*
X163704422Y-30000739D01*
X163704417Y-30000752D01*
X163648602Y-30196917D01*
X163629785Y-30399999D01*
X153265215Y-30399999D01*
X153246397Y-30196917D01*
X153190582Y-30000750D01*
X153157398Y-29934108D01*
X153131441Y-29881979D01*
X153099673Y-29818179D01*
X152999134Y-29685044D01*
X152976762Y-29655418D01*
X152826041Y-29518019D01*
X152826039Y-29518017D01*
X152652642Y-29410655D01*
X152652635Y-29410651D01*
X152557546Y-29373814D01*
X152462456Y-29336976D01*
X152261976Y-29299500D01*
X152058024Y-29299500D01*
X151857544Y-29336976D01*
X151857541Y-29336976D01*
X151857541Y-29336977D01*
X151667364Y-29410651D01*
X151667357Y-29410655D01*
X151493960Y-29518017D01*
X151493958Y-29518019D01*
X151343237Y-29655418D01*
X151220327Y-29818178D01*
X151129422Y-30000739D01*
X151129417Y-30000752D01*
X151073602Y-30196917D01*
X151054785Y-30399999D01*
X150725215Y-30399999D01*
X150706397Y-30196917D01*
X150650582Y-30000750D01*
X150617398Y-29934108D01*
X150591441Y-29881979D01*
X150559673Y-29818179D01*
X150459134Y-29685044D01*
X150436762Y-29655418D01*
X150286041Y-29518019D01*
X150286039Y-29518017D01*
X150112642Y-29410655D01*
X150112635Y-29410651D01*
X150017546Y-29373814D01*
X149922456Y-29336976D01*
X149721976Y-29299500D01*
X149518024Y-29299500D01*
X149317544Y-29336976D01*
X149317541Y-29336976D01*
X149317541Y-29336977D01*
X149127364Y-29410651D01*
X149127357Y-29410655D01*
X148953960Y-29518017D01*
X148953958Y-29518019D01*
X148803237Y-29655418D01*
X148680327Y-29818178D01*
X148589422Y-30000739D01*
X148589417Y-30000752D01*
X148533602Y-30196917D01*
X148514785Y-30399999D01*
X148185215Y-30399999D01*
X148166397Y-30196917D01*
X148110582Y-30000750D01*
X148077398Y-29934108D01*
X148051441Y-29881979D01*
X148019673Y-29818179D01*
X147919134Y-29685044D01*
X147896762Y-29655418D01*
X147746041Y-29518019D01*
X147746039Y-29518017D01*
X147572642Y-29410655D01*
X147572635Y-29410651D01*
X147477546Y-29373814D01*
X147382456Y-29336976D01*
X147181976Y-29299500D01*
X146978024Y-29299500D01*
X146777544Y-29336976D01*
X146777541Y-29336976D01*
X146777541Y-29336977D01*
X146587364Y-29410651D01*
X146587357Y-29410655D01*
X146413960Y-29518017D01*
X146413958Y-29518019D01*
X146263237Y-29655418D01*
X146140327Y-29818178D01*
X146049422Y-30000739D01*
X146049417Y-30000752D01*
X145993602Y-30196917D01*
X145974785Y-30399999D01*
X141225215Y-30399999D01*
X141206397Y-30196917D01*
X141150582Y-30000750D01*
X141117398Y-29934108D01*
X141091441Y-29881979D01*
X141059673Y-29818179D01*
X140959134Y-29685044D01*
X140936762Y-29655418D01*
X140786041Y-29518019D01*
X140786039Y-29518017D01*
X140612642Y-29410655D01*
X140612635Y-29410651D01*
X140517546Y-29373814D01*
X140422456Y-29336976D01*
X140221976Y-29299500D01*
X140018024Y-29299500D01*
X139817544Y-29336976D01*
X139817541Y-29336976D01*
X139817541Y-29336977D01*
X139627364Y-29410651D01*
X139627357Y-29410655D01*
X139453960Y-29518017D01*
X139453958Y-29518019D01*
X139303237Y-29655418D01*
X139180327Y-29818178D01*
X139089422Y-30000739D01*
X139089417Y-30000752D01*
X139033602Y-30196917D01*
X139014785Y-30399999D01*
X138685215Y-30399999D01*
X138666397Y-30196917D01*
X138610582Y-30000750D01*
X138577398Y-29934108D01*
X138551441Y-29881979D01*
X138519673Y-29818179D01*
X138419134Y-29685044D01*
X138396762Y-29655418D01*
X138246041Y-29518019D01*
X138246039Y-29518017D01*
X138072642Y-29410655D01*
X138072635Y-29410651D01*
X137977546Y-29373814D01*
X137882456Y-29336976D01*
X137681976Y-29299500D01*
X137478024Y-29299500D01*
X137277544Y-29336976D01*
X137277541Y-29336976D01*
X137277541Y-29336977D01*
X137087364Y-29410651D01*
X137087357Y-29410655D01*
X136913960Y-29518017D01*
X136913958Y-29518019D01*
X136763237Y-29655418D01*
X136640327Y-29818178D01*
X136549422Y-30000739D01*
X136549417Y-30000752D01*
X136493602Y-30196917D01*
X136474785Y-30399999D01*
X136145215Y-30399999D01*
X136126397Y-30196917D01*
X136070582Y-30000750D01*
X136037398Y-29934108D01*
X136011441Y-29881979D01*
X135979673Y-29818179D01*
X135879134Y-29685044D01*
X135856762Y-29655418D01*
X135706041Y-29518019D01*
X135706039Y-29518017D01*
X135532642Y-29410655D01*
X135532635Y-29410651D01*
X135437546Y-29373814D01*
X135342456Y-29336976D01*
X135141976Y-29299500D01*
X134938024Y-29299500D01*
X134737544Y-29336976D01*
X134737541Y-29336976D01*
X134737541Y-29336977D01*
X134547364Y-29410651D01*
X134547357Y-29410655D01*
X134373960Y-29518017D01*
X134373958Y-29518019D01*
X134223237Y-29655418D01*
X134100327Y-29818178D01*
X134009422Y-30000739D01*
X134009417Y-30000752D01*
X133953602Y-30196917D01*
X133934785Y-30399999D01*
X97056835Y-30399999D01*
X97069693Y-30352014D01*
X97100500Y-30118011D01*
X97100500Y-29881989D01*
X97069693Y-29647986D01*
X97008606Y-29420007D01*
X96918284Y-29201951D01*
X96918282Y-29201948D01*
X96918280Y-29201943D01*
X96859423Y-29100001D01*
X96859421Y-29099998D01*
X158869318Y-29099998D01*
X158869318Y-29100001D01*
X158889955Y-29256760D01*
X158889956Y-29256762D01*
X158950464Y-29402841D01*
X159046718Y-29528282D01*
X159172159Y-29624536D01*
X159318238Y-29685044D01*
X159396619Y-29695363D01*
X159474999Y-29705682D01*
X159475000Y-29705682D01*
X159475001Y-29705682D01*
X159527254Y-29698802D01*
X159631762Y-29685044D01*
X159777841Y-29624536D01*
X159903282Y-29528282D01*
X159999536Y-29402841D01*
X160060044Y-29256762D01*
X160080682Y-29100000D01*
X160060044Y-28943238D01*
X159999536Y-28797159D01*
X159903282Y-28671718D01*
X159777841Y-28575464D01*
X159631762Y-28514956D01*
X159631760Y-28514955D01*
X159475001Y-28494318D01*
X159474999Y-28494318D01*
X159318239Y-28514955D01*
X159318237Y-28514956D01*
X159172160Y-28575463D01*
X159046718Y-28671718D01*
X158950463Y-28797160D01*
X158889956Y-28943237D01*
X158889955Y-28943239D01*
X158869318Y-29099998D01*
X96859421Y-29099998D01*
X96800273Y-28997550D01*
X96656592Y-28810301D01*
X96656587Y-28810295D01*
X96489704Y-28643412D01*
X96489697Y-28643406D01*
X96302454Y-28499730D01*
X96302453Y-28499729D01*
X96302450Y-28499727D01*
X96180235Y-28429166D01*
X96098056Y-28381719D01*
X96098045Y-28381714D01*
X95879993Y-28291394D01*
X95652010Y-28230306D01*
X95418020Y-28199501D01*
X95418017Y-28199500D01*
X95418011Y-28199500D01*
X95181989Y-28199500D01*
X95181983Y-28199500D01*
X95181979Y-28199501D01*
X94947989Y-28230306D01*
X94720006Y-28291394D01*
X94501954Y-28381714D01*
X94501943Y-28381719D01*
X94297545Y-28499730D01*
X94110302Y-28643406D01*
X94110295Y-28643412D01*
X93943412Y-28810295D01*
X93943406Y-28810302D01*
X93799730Y-28997545D01*
X93681719Y-29201943D01*
X93681714Y-29201954D01*
X93591394Y-29420006D01*
X93530306Y-29647989D01*
X93499501Y-29881979D01*
X93499500Y-29881995D01*
X90805652Y-29881995D01*
X90805653Y-29881979D01*
X90817386Y-29613226D01*
X90818326Y-29602495D01*
X90868152Y-29224025D01*
X90870025Y-29213405D01*
X90952649Y-28840709D01*
X90955440Y-28830295D01*
X91070230Y-28466227D01*
X91073917Y-28456095D01*
X91220003Y-28103412D01*
X91224561Y-28093638D01*
X91400822Y-27755045D01*
X91406217Y-27745700D01*
X91611325Y-27423744D01*
X91617515Y-27414905D01*
X91849896Y-27112060D01*
X91856834Y-27103791D01*
X92114726Y-26822352D01*
X92122352Y-26814726D01*
X92403791Y-26556834D01*
X92412060Y-26549896D01*
X92714905Y-26317515D01*
X92723744Y-26311325D01*
X93045700Y-26106217D01*
X93055045Y-26100822D01*
X93393638Y-25924561D01*
X93403412Y-25920003D01*
X93756095Y-25773917D01*
X93766227Y-25770230D01*
X94130295Y-25655440D01*
X94140709Y-25652649D01*
X94513405Y-25570025D01*
X94524025Y-25568152D01*
X94902495Y-25518326D01*
X94913226Y-25517386D01*
X95297297Y-25500617D01*
X95302706Y-25500500D01*
X95365892Y-25500500D01*
X200234108Y-25500500D01*
X200297294Y-25500500D01*
X200302702Y-25500617D01*
G37*
%TD.AperFunction*%
%TD*%
M02*
