M48
; DRILL file {KiCad 8.0.7} date 2025-02-09T22:58:18-0600
; FORMAT={-:-/ absolute / metric / decimal}
; #@! TF.CreationDate,2025-02-09T22:58:18-06:00
; #@! TF.GenerationSoftware,Kicad,Pcbnew,8.0.7
; #@! TF.FileFunction,MixedPlating,1,4
FMAT,2
METRIC
; #@! TA.AperFunction,Plated,PTH,ViaDrill
T1C0.300
; #@! TA.AperFunction,Plated,PTH,ViaDrill
T2C0.400
; #@! TA.AperFunction,Plated,PTH,ComponentDrill
T3C1.000
; #@! TA.AperFunction,Plated,PTH,ComponentDrill
T4C1.020
; #@! TA.AperFunction,Plated,PTH,ComponentDrill
T5C1.300
; #@! TA.AperFunction,Plated,PTH,ComponentDrill
T6C3.600
; #@! TA.AperFunction,NonPlated,NPTH,ComponentDrill
T7C0.991
; #@! TA.AperFunction,NonPlated,NPTH,ComponentDrill
T8C2.375
; #@! TA.AperFunction,NonPlated,NPTH,ComponentDrill
T9C3.000
; #@! TA.AperFunction,NonPlated,NPTH,ComponentDrill
T10C3.200
%
G90
G05
T1
X92.779Y-77.469
X92.8Y-75.0
X92.8Y-80.0
X92.8Y-140.0
X95.3Y-122.474
X95.3Y-37.5
X95.3Y-40.0
X95.3Y-75.0
X95.3Y-77.5
X95.3Y-80.0
X95.3Y-82.5
X95.3Y-85.0
X95.3Y-87.5
X95.3Y-90.0
X95.3Y-92.5
X95.3Y-95.0
X95.3Y-97.5
X95.3Y-102.5
X95.3Y-105.0
X95.3Y-107.5
X95.3Y-110.0
X95.3Y-112.5
X95.3Y-115.0
X95.3Y-117.5
X95.3Y-120.0
X95.3Y-125.0
X95.3Y-127.5
X95.3Y-130.0
X95.3Y-132.5
X95.3Y-135.0
X95.3Y-137.5
X97.8Y-37.5
X97.8Y-40.0
X97.8Y-75.0
X97.8Y-80.0
X97.8Y-82.5
X97.8Y-90.0
X97.8Y-92.5
X97.8Y-95.0
X97.8Y-97.5
X97.805Y-77.536
X100.3Y-32.5
X100.3Y-37.5
X100.3Y-40.0
X100.3Y-75.0
X100.3Y-80.0
X100.3Y-90.0
X100.3Y-92.5
X100.3Y-95.0
X100.3Y-145.0
X100.3Y-147.5
X100.305Y-77.536
X102.748Y-89.964
X102.8Y-27.5
X102.8Y-30.0
X102.8Y-32.5
X102.8Y-37.5
X102.8Y-40.0
X102.8Y-75.0
X102.8Y-92.5
X102.8Y-122.5
X102.8Y-125.0
X102.8Y-127.5
X102.8Y-130.0
X102.8Y-132.5
X102.8Y-135.0
X102.8Y-137.5
X102.8Y-140.0
X102.8Y-147.5
X102.805Y-77.536
X105.175Y-89.937
X105.3Y-27.5
X105.3Y-30.0
X105.3Y-32.5
X105.3Y-37.5
X105.3Y-40.0
X105.3Y-75.0
X105.3Y-125.0
X105.3Y-127.5
X105.3Y-130.0
X105.3Y-132.5
X105.3Y-135.0
X105.3Y-137.5
X105.3Y-140.0
X105.3Y-142.5
X105.305Y-77.536
X106.1Y-116.3
X106.1Y-117.2
X107.5Y-120.665
X107.764Y-129.948
X107.8Y-27.5
X107.8Y-30.0
X107.8Y-110.0
X107.8Y-112.5
X107.8Y-127.5
X107.8Y-132.5
X107.8Y-135.0
X107.8Y-137.5
X107.8Y-140.0
X107.8Y-142.5
X107.8Y-145.0
X107.836Y-74.99
X107.841Y-77.526
X109.1Y-119.7
X110.3Y-27.5
X110.3Y-95.0
X110.3Y-97.5
X110.3Y-100.0
X110.3Y-102.5
X110.3Y-105.0
X110.3Y-112.5
X110.3Y-142.5
X110.3Y-145.0
X110.305Y-122.423
X110.446Y-74.99
X110.451Y-77.526
X111.2Y-138.1
X111.2Y-139.0
X112.45Y-141.0
X112.8Y-75.0
X112.8Y-127.5
X112.8Y-130.0
X112.8Y-132.5
X112.8Y-135.0
X112.8Y-142.5
X112.8Y-145.0
X112.805Y-77.536
X114.15Y-140.3
X115.3Y-27.5
X115.3Y-120.0
X115.3Y-127.5
X115.3Y-130.0
X115.3Y-132.5
X115.3Y-135.0
X115.3Y-142.5
X115.3Y-145.0
X115.848Y-74.99
X115.853Y-77.526
X117.8Y-27.5
X117.8Y-30.0
X117.8Y-75.0
X117.8Y-88.75
X117.8Y-92.5
X117.8Y-120.0
X117.8Y-127.5
X117.8Y-130.0
X117.8Y-132.5
X117.8Y-135.0
X117.805Y-77.536
X120.3Y-27.5
X120.3Y-30.0
X120.3Y-32.5
X120.3Y-37.5
X120.3Y-40.0
X120.3Y-88.75
X120.347Y-92.484
X120.545Y-74.964
X122.8Y-27.5
X122.8Y-30.0
X122.8Y-32.5
X122.8Y-37.5
X122.8Y-40.0
X122.8Y-88.75
X122.8Y-92.5
X125.3Y-27.5
X125.3Y-30.0
X125.3Y-32.5
X125.3Y-37.5
X125.3Y-40.0
X125.3Y-77.5
X125.3Y-88.75
X127.8Y-27.5
X127.8Y-30.0
X127.8Y-32.5
X127.8Y-37.5
X127.8Y-40.0
X127.8Y-75.0
X127.8Y-77.5
X127.8Y-88.75
X129.829Y-34.525
X130.3Y-40.0
X130.3Y-127.5
X130.55Y-63.95
X130.75Y-50.95
X130.771Y-34.525
X131.2Y-114.5
X131.2Y-115.4
X131.9Y-27.6
X132.2Y-46.65
X132.2Y-59.5
X132.25Y-68.3
X132.3Y-55.25
X132.45Y-118.3
X132.8Y-40.0
X132.8Y-100.0
X132.8Y-102.5
X132.8Y-105.0
X132.8Y-107.5
X132.8Y-120.0
X132.8Y-127.5
X133.6Y-109.3
X133.78Y-33.4
X134.25Y-117.5
X134.802Y-27.465
X135.183Y-102.437
X135.2Y-100.2
X135.3Y-40.0
X135.3Y-105.0
X135.3Y-120.0
X135.3Y-127.5
X135.475Y-54.868
X135.5Y-47.05
X135.585Y-60.015
X135.585Y-68.065
X136.3Y-107.4
X137.1Y-106.9
X137.8Y-27.5
X137.8Y-42.5
X137.8Y-100.0
X137.8Y-102.5
X137.8Y-105.0
X137.8Y-127.5
X140.222Y-142.474
X140.243Y-37.469
X140.264Y-65.164
X140.3Y-27.5
X140.3Y-40.0
X140.3Y-45.0
X140.3Y-47.5
X140.3Y-50.0
X140.3Y-127.5
X140.3Y-132.5
X140.3Y-145.0
X140.81Y-76.11
X140.9Y-65.8
X140.9Y-70.0
X142.3Y-72.9
X142.3Y-73.8
X142.8Y-37.5
X142.8Y-40.0
X142.8Y-42.5
X142.8Y-47.5
X142.8Y-50.0
X142.8Y-142.5
X142.8Y-145.0
X143.05Y-81.5
X143.38Y-33.3
X143.396Y-64.248
X143.4Y-54.7
X143.69Y-80.867
X144.55Y-64.25
X144.692Y-83.0
X145.3Y-140.0
X145.3Y-142.5
X145.3Y-145.0
X145.605Y-84.526
X145.925Y-60.625
X146.21Y-61.479
X146.48Y-33.4
X146.495Y-49.698
X147.3Y-50.1
X147.748Y-140.036
X147.8Y-62.6
X147.8Y-100.0
X147.8Y-102.5
X147.8Y-135.0
X147.8Y-137.5
X147.8Y-142.5
X147.8Y-145.0
X148.7Y-52.4
X149.673Y-84.3
X150.3Y-27.5
X150.3Y-40.0
X150.3Y-42.5
X150.3Y-75.0
X150.3Y-77.5
X150.3Y-90.0
X150.3Y-102.483
X150.3Y-135.0
X150.3Y-137.5
X150.3Y-140.0
X150.3Y-142.5
X150.3Y-145.0
X150.537Y-88.25
X150.703Y-84.306
X150.8Y-71.9
X150.9Y-64.2
X150.971Y-62.57
X151.25Y-54.883
X151.487Y-88.25
X151.516Y-60.883
X152.044Y-55.93
X152.7Y-58.801
X152.8Y-27.5
X152.8Y-37.5
X152.8Y-40.0
X152.8Y-42.5
X152.8Y-45.0
X152.8Y-135.0
X152.8Y-137.5
X152.8Y-140.0
X152.8Y-142.5
X152.8Y-145.0
X152.827Y-59.692
X152.9Y-56.37
X153.227Y-52.8
X153.598Y-99.347
X154.216Y-60.884
X154.223Y-98.7
X154.3Y-97.4
X154.623Y-48.417
X154.8Y-49.3
X155.1Y-97.4
X155.177Y-98.7
X155.298Y-27.477
X155.3Y-45.0
X155.3Y-47.5
X155.3Y-102.5
X155.3Y-135.0
X155.3Y-137.5
X155.3Y-140.0
X155.3Y-142.5
X155.3Y-145.0
X155.48Y-33.4
X155.823Y-99.326
X155.937Y-78.35
X155.937Y-79.3
X156.2Y-64.5
X156.5Y-43.9
X156.95Y-55.6
X157.0Y-60.584
X157.253Y-56.448
X157.3Y-38.5
X157.3Y-40.0
X157.3Y-41.5
X157.8Y-43.0
X157.8Y-45.0
X157.8Y-97.5
X157.8Y-100.0
X157.8Y-102.5
X157.8Y-112.5
X157.8Y-130.0
X157.8Y-132.5
X157.8Y-135.0
X157.8Y-137.5
X157.8Y-140.0
X157.8Y-142.5
X157.8Y-145.0
X158.0Y-29.6
X158.0Y-31.7
X158.0Y-33.5
X158.0Y-35.1
X158.25Y-89.895
X158.296Y-60.683
X158.3Y-27.5
X158.3Y-48.0
X158.3Y-59.783
X158.3Y-71.9
X159.0Y-85.669
X159.1Y-55.4
X159.327Y-59.283
X159.475Y-29.1
X159.736Y-56.036
X159.8Y-57.883
X159.8Y-87.45
X159.92Y-32.355
X160.075Y-28.4
X160.3Y-27.5
X160.3Y-35.0
X160.3Y-40.0
X160.3Y-42.5
X160.3Y-45.0
X160.3Y-47.5
X160.3Y-90.0
X160.3Y-92.5
X160.3Y-97.5
X160.3Y-100.0
X160.3Y-102.5
X160.3Y-112.5
X160.3Y-132.5
X160.3Y-135.0
X160.3Y-137.5
X160.3Y-140.0
X160.3Y-142.5
X160.3Y-145.0
X160.5Y-49.5
X160.5Y-50.45
X160.5Y-51.35
X160.5Y-58.584
X161.714Y-88.311
X161.8Y-55.1
X161.8Y-72.0
X161.9Y-56.8
X162.141Y-55.933
X162.154Y-85.003
X162.564Y-88.311
X162.748Y-140.036
X162.8Y-27.5
X162.8Y-35.0
X162.8Y-40.0
X162.8Y-42.5
X162.8Y-90.0
X162.8Y-97.5
X162.8Y-100.0
X162.8Y-102.5
X162.8Y-115.0
X162.8Y-117.5
X162.8Y-120.0
X162.8Y-135.0
X162.8Y-137.5
X162.8Y-142.5
X162.8Y-145.0
X163.45Y-46.05
X163.5Y-66.6
X163.983Y-67.385
X164.5Y-99.3
X164.668Y-61.777
X165.173Y-98.65
X165.227Y-62.482
X165.3Y-27.5
X165.3Y-37.5
X165.3Y-40.0
X165.3Y-42.5
X165.3Y-97.4
X165.3Y-135.0
X165.3Y-137.5
X165.3Y-140.0
X165.3Y-142.5
X165.3Y-145.0
X165.45Y-55.6
X165.5Y-34.7
X166.1Y-97.4
X166.127Y-98.65
X166.25Y-43.15
X166.75Y-51.5
X166.9Y-99.3
X166.964Y-78.212
X166.964Y-79.111
X167.2Y-50.35
X167.505Y-66.522
X167.744Y-102.512
X167.75Y-64.65
X167.8Y-27.5
X167.8Y-35.0
X167.8Y-37.5
X167.8Y-40.0
X167.8Y-42.5
X167.8Y-135.0
X167.8Y-137.5
X167.8Y-140.0
X167.8Y-142.5
X167.8Y-145.0
X168.3Y-33.0
X168.6Y-59.1
X168.8Y-51.3
X168.952Y-52.187
X169.3Y-63.3
X169.362Y-89.872
X169.37Y-72.049
X169.4Y-37.6
X170.05Y-68.5
X170.3Y-37.5
X170.3Y-40.0
X170.3Y-63.048
X170.3Y-75.0
X170.3Y-77.5
X170.3Y-82.5
X170.3Y-85.0
X170.3Y-102.5
X170.3Y-135.0
X170.3Y-137.5
X170.3Y-140.0
X170.3Y-142.5
X170.3Y-145.0
X170.35Y-57.1
X170.4Y-52.5
X171.3Y-61.0
X171.6Y-43.3
X172.233Y-63.389
X172.353Y-53.035
X172.6Y-53.9
X172.743Y-102.488
X172.8Y-27.5
X172.8Y-30.0
X172.8Y-37.5
X172.8Y-40.0
X172.8Y-72.5
X172.8Y-75.0
X172.8Y-77.5
X172.8Y-80.0
X172.8Y-82.5
X172.8Y-85.0
X172.8Y-87.5
X172.8Y-100.0
X172.8Y-140.0
X172.8Y-142.5
X172.8Y-145.0
X173.4Y-65.6
X173.8Y-55.4
X173.9Y-56.3
X173.9Y-59.0
X174.3Y-68.0
X174.589Y-34.343
X175.3Y-27.5
X175.3Y-30.0
X175.3Y-37.5
X175.3Y-40.0
X175.3Y-57.0
X175.3Y-59.0
X175.3Y-61.0
X175.3Y-70.0
X175.3Y-72.5
X175.3Y-75.0
X175.3Y-142.5
X175.3Y-145.0
X175.326Y-63.266
X175.376Y-102.512
X176.3Y-46.0
X176.3Y-69.0
X176.7Y-43.2
X177.3Y-57.0
X177.3Y-59.0
X177.3Y-61.0
X177.305Y-63.266
X177.4Y-67.8
X177.8Y-27.5
X177.8Y-30.0
X177.8Y-32.5
X177.8Y-35.0
X177.8Y-37.5
X177.8Y-40.0
X177.8Y-70.0
X177.8Y-97.6
X177.8Y-142.5
X177.8Y-145.0
X178.0Y-146.9
X179.4Y-148.4
X179.8Y-57.0
X179.8Y-101.0
X180.201Y-67.349
X180.3Y-27.5
X180.3Y-30.0
X180.3Y-32.5
X180.3Y-35.0
X180.3Y-37.5
X180.3Y-40.0
X180.3Y-72.5
X180.3Y-97.5
X180.3Y-101.8
X180.3Y-117.5
X180.5Y-53.9
X180.7Y-66.6
X181.3Y-52.1
X181.6Y-53.0
X181.7Y-125.0
X181.8Y-45.8
X182.211Y-65.678
X182.8Y-27.5
X182.8Y-30.0
X182.8Y-32.5
X182.8Y-35.0
X182.8Y-37.5
X182.8Y-40.0
X182.8Y-42.5
X182.8Y-70.0
X182.8Y-72.5
X182.8Y-97.5
X182.8Y-100.0
X182.8Y-102.5
X182.8Y-117.5
X182.9Y-125.0
X183.2Y-56.5
X183.3Y-50.2
X185.288Y-69.913
X185.3Y-27.5
X185.3Y-30.0
X185.3Y-32.5
X185.3Y-35.0
X185.3Y-37.5
X185.3Y-40.0
X185.3Y-42.5
X185.3Y-45.0
X185.3Y-47.5
X185.3Y-50.0
X185.3Y-72.5
X185.3Y-100.0
X185.3Y-102.5
X185.3Y-115.0
X185.451Y-97.495
X186.3Y-56.4
X186.3Y-63.5
X186.4Y-64.5
X186.9Y-99.7
X187.8Y-27.5
X187.8Y-30.0
X187.8Y-32.5
X187.8Y-35.0
X187.8Y-37.5
X187.8Y-40.0
X187.8Y-42.5
X187.8Y-45.0
X187.8Y-47.5
X187.8Y-50.0
X187.8Y-55.0
X187.8Y-57.5
X187.8Y-60.0
X187.8Y-62.5
X187.8Y-65.0
X187.8Y-70.0
X187.8Y-97.5
X187.8Y-102.5
X187.8Y-115.0
X187.8Y-117.5
X188.475Y-113.775
X189.3Y-66.4
X189.375Y-115.575
X190.3Y-27.5
X190.3Y-30.0
X190.3Y-32.5
X190.3Y-35.0
X190.3Y-37.5
X190.3Y-40.0
X190.3Y-42.5
X190.3Y-45.0
X190.3Y-47.5
X190.3Y-50.0
X190.3Y-55.0
X190.3Y-57.5
X190.3Y-60.0
X190.3Y-62.5
X190.3Y-65.0
X190.3Y-97.5
X190.3Y-102.5
X190.5Y-112.7
X190.85Y-70.425
X191.35Y-69.875
X191.4Y-112.7
X192.8Y-27.5
X192.8Y-30.0
X192.8Y-32.5
X192.8Y-35.0
X192.8Y-37.5
X192.8Y-40.0
X192.8Y-42.5
X192.8Y-45.0
X192.8Y-47.5
X192.8Y-50.0
X192.8Y-55.0
X192.8Y-60.0
X192.826Y-57.495
X195.3Y-37.5
X195.3Y-40.0
X195.3Y-42.5
X195.3Y-45.0
X195.3Y-47.5
X195.3Y-50.0
X195.3Y-55.0
X195.3Y-57.5
X195.3Y-60.0
X195.3Y-62.5
X195.3Y-65.0
X195.3Y-112.5
X195.3Y-115.0
X195.3Y-117.5
X195.5Y-66.4
X197.8Y-37.5
X197.8Y-40.0
X197.8Y-42.5
X197.8Y-45.0
X197.8Y-47.5
X197.8Y-50.0
X197.8Y-55.0
X197.8Y-57.5
X197.8Y-60.0
X197.8Y-62.5
X197.8Y-65.0
X197.8Y-112.5
X197.8Y-115.0
X197.8Y-117.5
X198.1Y-71.3
X199.6Y-66.4
X199.8Y-55.4
X200.3Y-37.5
X200.3Y-40.0
X200.3Y-42.5
X200.3Y-45.0
X200.3Y-47.5
X200.3Y-50.0
X200.3Y-75.0
X200.3Y-77.5
X200.3Y-80.0
X200.3Y-82.5
X200.3Y-85.0
X200.3Y-87.5
X200.3Y-90.0
X200.3Y-92.5
X200.3Y-112.5
X200.3Y-115.0
X200.3Y-117.5
X202.761Y-104.982
X202.8Y-37.5
X202.8Y-40.0
X202.8Y-42.5
X202.8Y-45.0
X202.8Y-47.5
X202.8Y-50.0
X202.8Y-70.0
X202.8Y-72.5
X202.8Y-75.0
X202.8Y-77.5
X202.8Y-80.0
X202.8Y-82.5
X202.8Y-85.0
X202.8Y-87.5
X202.8Y-90.0
X202.8Y-92.5
X202.8Y-95.0
X202.8Y-97.5
X202.8Y-100.0
X202.8Y-102.5
X202.8Y-107.5
X202.8Y-110.0
X202.8Y-112.5
X202.8Y-115.0
X202.8Y-117.5
T2
X93.389Y-43.899
X93.389Y-70.901
X93.4Y-57.15
X95.389Y-70.901
X95.4Y-43.9
X95.4Y-57.15
X97.389Y-70.901
X97.4Y-43.9
X97.4Y-57.15
X99.389Y-70.901
X99.4Y-43.9
X99.4Y-57.15
X100.8Y-106.2
X101.389Y-70.901
X101.4Y-43.9
X101.4Y-57.15
X103.389Y-70.901
X103.4Y-43.9
X103.4Y-57.15
X105.389Y-70.901
X105.4Y-43.9
X105.4Y-57.15
X107.4Y-43.9
X107.411Y-57.149
X107.65Y-70.65
X109.139Y-44.649
X109.389Y-69.901
X109.4Y-57.15
X111.389Y-69.901
X111.4Y-44.9
X111.4Y-57.15
X113.389Y-69.901
X113.4Y-44.9
X113.4Y-57.15
X114.32Y-123.984
X114.32Y-124.984
X115.32Y-123.984
X115.32Y-124.984
X115.389Y-69.901
X115.4Y-44.9
X115.4Y-57.15
X116.32Y-123.984
X116.32Y-124.984
X116.691Y-95.124
X116.691Y-97.124
X116.691Y-99.124
X116.691Y-101.124
X116.691Y-103.124
X116.7Y-104.6
X117.32Y-123.984
X117.32Y-124.984
X117.389Y-69.901
X117.4Y-44.9
X117.4Y-57.15
X118.32Y-123.984
X118.32Y-124.984
X118.691Y-95.124
X118.691Y-97.124
X118.691Y-99.124
X118.691Y-101.124
X118.691Y-103.124
X118.7Y-104.6
X119.388Y-144.418
X119.388Y-145.418
X119.389Y-69.901
X119.4Y-44.9
X119.4Y-57.15
X120.388Y-144.418
X120.388Y-145.418
X120.691Y-95.124
X120.691Y-97.124
X120.691Y-99.124
X120.691Y-101.124
X120.691Y-103.124
X120.7Y-104.6
X121.388Y-144.418
X121.388Y-145.418
X121.389Y-69.901
X121.4Y-44.9
X121.4Y-57.15
X122.388Y-144.418
X122.388Y-145.418
X122.45Y-131.4
X122.691Y-95.124
X122.691Y-97.124
X122.691Y-99.124
X122.691Y-101.124
X122.691Y-103.124
X122.7Y-104.6
X123.388Y-144.418
X123.388Y-145.418
X123.4Y-44.9
X123.4Y-57.15
X123.4Y-69.9
X123.75Y-131.4
X124.491Y-94.724
X125.15Y-131.4
X125.4Y-44.9
X125.4Y-57.15
X125.4Y-69.9
X126.091Y-94.325
X127.4Y-44.9
X127.4Y-57.15
X127.4Y-69.9
X128.6Y-129.5
X129.4Y-44.9
X129.4Y-57.15
X129.4Y-69.9
X130.0Y-129.5
X130.3Y-33.7
X131.15Y-91.5
X131.3Y-129.5
X131.4Y-44.9
X131.4Y-57.15
X131.4Y-69.9
X131.5Y-90.65
X132.557Y-87.593
X132.557Y-89.117
X132.557Y-90.514
X133.4Y-44.9
X133.4Y-57.15
X133.4Y-69.9
X133.827Y-88.355
X133.827Y-89.879
X135.097Y-87.593
X135.097Y-89.117
X135.097Y-90.514
X135.15Y-44.9
X135.15Y-69.9
X135.4Y-57.15
X136.15Y-45.9
X136.2Y-68.9
X136.494Y-88.355
X136.494Y-89.879
X137.15Y-46.9
X137.15Y-48.3
X137.15Y-49.65
X137.15Y-64.65
X137.15Y-66.3
X137.15Y-67.9
X137.4Y-53.15
X137.4Y-57.15
X137.4Y-61.15
X137.891Y-87.593
X137.891Y-89.117
X137.891Y-90.514
X138.15Y-50.65
X138.15Y-63.65
X138.4Y-54.15
X138.4Y-60.15
X138.907Y-88.483
X139.033Y-121.752
X139.033Y-122.752
X139.15Y-51.65
X139.15Y-62.65
X139.4Y-55.15
X139.4Y-57.15
X139.4Y-59.15
X139.691Y-87.624
X140.033Y-121.752
X140.033Y-122.752
X140.15Y-52.65
X140.15Y-61.65
X140.4Y-56.15
X140.4Y-58.15
X140.685Y-88.483
X141.033Y-121.752
X141.033Y-122.752
X141.15Y-53.65
X141.15Y-60.65
X141.691Y-87.624
X141.9Y-59.9
X142.033Y-121.752
X142.033Y-122.752
X142.15Y-54.65
X143.033Y-121.752
X143.033Y-122.752
X143.691Y-87.624
X144.749Y-88.483
X145.5Y-83.5
X145.691Y-87.624
X150.2Y-83.5
X150.5Y-54.3
X154.0Y-53.5
X159.8Y-86.5
X160.05Y-72.5
X160.6Y-114.6
X160.6Y-116.0
X160.6Y-117.3
X161.33Y-84.53
X161.95Y-123.15
X161.95Y-124.0
X164.6Y-121.1
X168.8Y-65.7
X177.4Y-121.1
X180.35Y-123.0
X180.35Y-123.85
X181.2Y-65.557
X182.4Y-80.9
X182.4Y-82.9
X182.4Y-84.9
X182.4Y-86.9
X183.2Y-57.5
X183.952Y-80.908
X183.952Y-82.908
X183.952Y-84.908
X183.952Y-86.908
X185.952Y-80.908
X185.952Y-82.908
X185.952Y-84.908
X185.952Y-86.908
X187.151Y-121.669
X187.151Y-122.669
X187.151Y-123.669
X187.151Y-124.669
X187.151Y-125.669
X187.952Y-80.908
X187.952Y-82.908
X187.952Y-84.908
X187.952Y-86.908
X188.151Y-121.669
X188.151Y-122.669
X188.151Y-123.669
X188.151Y-124.669
X188.151Y-125.669
X189.952Y-80.908
X189.952Y-82.908
X189.952Y-84.908
X189.952Y-86.908
X191.952Y-80.908
X191.952Y-82.908
X191.952Y-84.908
X191.952Y-86.908
X192.352Y-88.709
X192.752Y-90.308
X195.6Y-95.45
X196.5Y-95.6
X196.588Y-97.1
X196.588Y-99.64
X196.588Y-102.434
X197.223Y-98.37
X197.223Y-101.037
X197.985Y-97.1
X197.985Y-99.64
X197.985Y-102.434
X198.62Y-103.45
X198.62Y-105.228
X198.62Y-109.292
X198.747Y-98.37
X198.747Y-101.037
X199.478Y-104.234
X199.478Y-106.234
X199.478Y-108.234
X199.478Y-110.234
X199.509Y-97.1
X199.509Y-99.64
X199.509Y-102.434
X203.075Y-131.675
X203.075Y-133.075
X203.075Y-134.375
T3
X135.04Y-30.4
X137.58Y-30.4
X140.12Y-30.4
X142.66Y-30.4
X147.08Y-30.4
X149.62Y-30.4
X152.16Y-30.4
X154.7Y-30.4
X164.735Y-30.4
X167.275Y-30.4
T4
X98.255Y-63.354
X98.272Y-50.418
X101.255Y-63.354
X101.272Y-50.418
T5
X142.26Y-127.162
X142.46Y-131.662
X144.66Y-131.662
X146.26Y-127.162
X146.86Y-131.662
X149.06Y-131.662
X150.26Y-127.162
X151.26Y-131.662
X153.46Y-127.162
X153.46Y-131.662
X155.66Y-127.162
X155.66Y-131.662
X157.86Y-127.162
X160.06Y-127.162
X162.26Y-127.162
X162.26Y-131.662
X164.46Y-127.162
X164.46Y-131.662
X166.66Y-131.662
X167.66Y-127.162
X168.86Y-131.662
X171.06Y-131.662
X171.66Y-127.162
X173.26Y-131.662
X175.46Y-131.662
X175.66Y-127.162
T6
X142.26Y-137.612
X175.61Y-137.612
T7
X175.249Y-45.59
X176.265Y-50.67
X177.281Y-45.59
T8
X173.725Y-47.495
X173.725Y-50.67
X178.805Y-47.495
X178.805Y-50.67
T9
X93.935Y-63.354
X93.952Y-50.418
T10
X95.3Y-30.0
X95.3Y-145.0
X200.3Y-30.0
X200.3Y-145.0
M30
