%TF.GenerationSoftware,KiCad,Pcbnew,8.0.7*%
%TF.CreationDate,2025-02-09T22:58:21-06:00*%
%TF.ProjectId,FSAE_BMS,46534145-5f42-44d5-932e-6b696361645f,rev?*%
%TF.SameCoordinates,Original*%
%TF.FileFunction,Legend,Bot*%
%TF.FilePolarity,Positive*%
%FSLAX46Y46*%
G04 Gerber Fmt 4.6, Leading zero omitted, Abs format (unit mm)*
G04 Created by KiCad (PCBNEW 8.0.7) date 2025-02-09 22:58:21*
%MOMM*%
%LPD*%
G01*
G04 APERTURE LIST*
%ADD10C,0.300000*%
G04 APERTURE END LIST*
D10*
X93255876Y-82257261D02*
X91755876Y-82257261D01*
X93255876Y-82900119D02*
X92470162Y-82900119D01*
X92470162Y-82900119D02*
X92327305Y-82828690D01*
X92327305Y-82828690D02*
X92255876Y-82685833D01*
X92255876Y-82685833D02*
X92255876Y-82471547D01*
X92255876Y-82471547D02*
X92327305Y-82328690D01*
X92327305Y-82328690D02*
X92398733Y-82257261D01*
X92255876Y-83400119D02*
X92255876Y-83971547D01*
X91755876Y-83614404D02*
X93041590Y-83614404D01*
X93041590Y-83614404D02*
X93184448Y-83685833D01*
X93184448Y-83685833D02*
X93255876Y-83828690D01*
X93255876Y-83828690D02*
X93255876Y-83971547D01*
X92255876Y-84257262D02*
X92255876Y-84828690D01*
X91755876Y-84471547D02*
X93041590Y-84471547D01*
X93041590Y-84471547D02*
X93184448Y-84542976D01*
X93184448Y-84542976D02*
X93255876Y-84685833D01*
X93255876Y-84685833D02*
X93255876Y-84828690D01*
X92255876Y-85328690D02*
X93755876Y-85328690D01*
X92327305Y-85328690D02*
X92255876Y-85471548D01*
X92255876Y-85471548D02*
X92255876Y-85757262D01*
X92255876Y-85757262D02*
X92327305Y-85900119D01*
X92327305Y-85900119D02*
X92398733Y-85971548D01*
X92398733Y-85971548D02*
X92541590Y-86042976D01*
X92541590Y-86042976D02*
X92970162Y-86042976D01*
X92970162Y-86042976D02*
X93113019Y-85971548D01*
X93113019Y-85971548D02*
X93184448Y-85900119D01*
X93184448Y-85900119D02*
X93255876Y-85757262D01*
X93255876Y-85757262D02*
X93255876Y-85471548D01*
X93255876Y-85471548D02*
X93184448Y-85328690D01*
X93184448Y-86614405D02*
X93255876Y-86757262D01*
X93255876Y-86757262D02*
X93255876Y-87042976D01*
X93255876Y-87042976D02*
X93184448Y-87185833D01*
X93184448Y-87185833D02*
X93041590Y-87257262D01*
X93041590Y-87257262D02*
X92970162Y-87257262D01*
X92970162Y-87257262D02*
X92827305Y-87185833D01*
X92827305Y-87185833D02*
X92755876Y-87042976D01*
X92755876Y-87042976D02*
X92755876Y-86828691D01*
X92755876Y-86828691D02*
X92684448Y-86685833D01*
X92684448Y-86685833D02*
X92541590Y-86614405D01*
X92541590Y-86614405D02*
X92470162Y-86614405D01*
X92470162Y-86614405D02*
X92327305Y-86685833D01*
X92327305Y-86685833D02*
X92255876Y-86828691D01*
X92255876Y-86828691D02*
X92255876Y-87042976D01*
X92255876Y-87042976D02*
X92327305Y-87185833D01*
X93113019Y-87900119D02*
X93184448Y-87971548D01*
X93184448Y-87971548D02*
X93255876Y-87900119D01*
X93255876Y-87900119D02*
X93184448Y-87828691D01*
X93184448Y-87828691D02*
X93113019Y-87900119D01*
X93113019Y-87900119D02*
X93255876Y-87900119D01*
X92327305Y-87900119D02*
X92398733Y-87971548D01*
X92398733Y-87971548D02*
X92470162Y-87900119D01*
X92470162Y-87900119D02*
X92398733Y-87828691D01*
X92398733Y-87828691D02*
X92327305Y-87900119D01*
X92327305Y-87900119D02*
X92470162Y-87900119D01*
X91684448Y-89685834D02*
X93613019Y-88400120D01*
X91684448Y-91257263D02*
X93613019Y-89971549D01*
X92255876Y-92400121D02*
X93470162Y-92400121D01*
X93470162Y-92400121D02*
X93613019Y-92328692D01*
X93613019Y-92328692D02*
X93684448Y-92257263D01*
X93684448Y-92257263D02*
X93755876Y-92114406D01*
X93755876Y-92114406D02*
X93755876Y-91900121D01*
X93755876Y-91900121D02*
X93684448Y-91757263D01*
X93184448Y-92400121D02*
X93255876Y-92257263D01*
X93255876Y-92257263D02*
X93255876Y-91971549D01*
X93255876Y-91971549D02*
X93184448Y-91828692D01*
X93184448Y-91828692D02*
X93113019Y-91757263D01*
X93113019Y-91757263D02*
X92970162Y-91685835D01*
X92970162Y-91685835D02*
X92541590Y-91685835D01*
X92541590Y-91685835D02*
X92398733Y-91757263D01*
X92398733Y-91757263D02*
X92327305Y-91828692D01*
X92327305Y-91828692D02*
X92255876Y-91971549D01*
X92255876Y-91971549D02*
X92255876Y-92257263D01*
X92255876Y-92257263D02*
X92327305Y-92400121D01*
X93255876Y-93114406D02*
X92255876Y-93114406D01*
X91755876Y-93114406D02*
X91827305Y-93042978D01*
X91827305Y-93042978D02*
X91898733Y-93114406D01*
X91898733Y-93114406D02*
X91827305Y-93185835D01*
X91827305Y-93185835D02*
X91755876Y-93114406D01*
X91755876Y-93114406D02*
X91898733Y-93114406D01*
X92255876Y-93614407D02*
X92255876Y-94185835D01*
X91755876Y-93828692D02*
X93041590Y-93828692D01*
X93041590Y-93828692D02*
X93184448Y-93900121D01*
X93184448Y-93900121D02*
X93255876Y-94042978D01*
X93255876Y-94042978D02*
X93255876Y-94185835D01*
X93255876Y-94685835D02*
X91755876Y-94685835D01*
X93255876Y-95328693D02*
X92470162Y-95328693D01*
X92470162Y-95328693D02*
X92327305Y-95257264D01*
X92327305Y-95257264D02*
X92255876Y-95114407D01*
X92255876Y-95114407D02*
X92255876Y-94900121D01*
X92255876Y-94900121D02*
X92327305Y-94757264D01*
X92327305Y-94757264D02*
X92398733Y-94685835D01*
X92255876Y-96685836D02*
X93255876Y-96685836D01*
X92255876Y-96042978D02*
X93041590Y-96042978D01*
X93041590Y-96042978D02*
X93184448Y-96114407D01*
X93184448Y-96114407D02*
X93255876Y-96257264D01*
X93255876Y-96257264D02*
X93255876Y-96471550D01*
X93255876Y-96471550D02*
X93184448Y-96614407D01*
X93184448Y-96614407D02*
X93113019Y-96685836D01*
X93255876Y-97400121D02*
X91755876Y-97400121D01*
X92327305Y-97400121D02*
X92255876Y-97542979D01*
X92255876Y-97542979D02*
X92255876Y-97828693D01*
X92255876Y-97828693D02*
X92327305Y-97971550D01*
X92327305Y-97971550D02*
X92398733Y-98042979D01*
X92398733Y-98042979D02*
X92541590Y-98114407D01*
X92541590Y-98114407D02*
X92970162Y-98114407D01*
X92970162Y-98114407D02*
X93113019Y-98042979D01*
X93113019Y-98042979D02*
X93184448Y-97971550D01*
X93184448Y-97971550D02*
X93255876Y-97828693D01*
X93255876Y-97828693D02*
X93255876Y-97542979D01*
X93255876Y-97542979D02*
X93184448Y-97400121D01*
X93113019Y-98757264D02*
X93184448Y-98828693D01*
X93184448Y-98828693D02*
X93255876Y-98757264D01*
X93255876Y-98757264D02*
X93184448Y-98685836D01*
X93184448Y-98685836D02*
X93113019Y-98757264D01*
X93113019Y-98757264D02*
X93255876Y-98757264D01*
X93184448Y-100114408D02*
X93255876Y-99971550D01*
X93255876Y-99971550D02*
X93255876Y-99685836D01*
X93255876Y-99685836D02*
X93184448Y-99542979D01*
X93184448Y-99542979D02*
X93113019Y-99471550D01*
X93113019Y-99471550D02*
X92970162Y-99400122D01*
X92970162Y-99400122D02*
X92541590Y-99400122D01*
X92541590Y-99400122D02*
X92398733Y-99471550D01*
X92398733Y-99471550D02*
X92327305Y-99542979D01*
X92327305Y-99542979D02*
X92255876Y-99685836D01*
X92255876Y-99685836D02*
X92255876Y-99971550D01*
X92255876Y-99971550D02*
X92327305Y-100114408D01*
X93255876Y-100971550D02*
X93184448Y-100828693D01*
X93184448Y-100828693D02*
X93113019Y-100757264D01*
X93113019Y-100757264D02*
X92970162Y-100685836D01*
X92970162Y-100685836D02*
X92541590Y-100685836D01*
X92541590Y-100685836D02*
X92398733Y-100757264D01*
X92398733Y-100757264D02*
X92327305Y-100828693D01*
X92327305Y-100828693D02*
X92255876Y-100971550D01*
X92255876Y-100971550D02*
X92255876Y-101185836D01*
X92255876Y-101185836D02*
X92327305Y-101328693D01*
X92327305Y-101328693D02*
X92398733Y-101400122D01*
X92398733Y-101400122D02*
X92541590Y-101471550D01*
X92541590Y-101471550D02*
X92970162Y-101471550D01*
X92970162Y-101471550D02*
X93113019Y-101400122D01*
X93113019Y-101400122D02*
X93184448Y-101328693D01*
X93184448Y-101328693D02*
X93255876Y-101185836D01*
X93255876Y-101185836D02*
X93255876Y-100971550D01*
X93255876Y-102114407D02*
X92255876Y-102114407D01*
X92398733Y-102114407D02*
X92327305Y-102185836D01*
X92327305Y-102185836D02*
X92255876Y-102328693D01*
X92255876Y-102328693D02*
X92255876Y-102542979D01*
X92255876Y-102542979D02*
X92327305Y-102685836D01*
X92327305Y-102685836D02*
X92470162Y-102757265D01*
X92470162Y-102757265D02*
X93255876Y-102757265D01*
X92470162Y-102757265D02*
X92327305Y-102828693D01*
X92327305Y-102828693D02*
X92255876Y-102971550D01*
X92255876Y-102971550D02*
X92255876Y-103185836D01*
X92255876Y-103185836D02*
X92327305Y-103328693D01*
X92327305Y-103328693D02*
X92470162Y-103400122D01*
X92470162Y-103400122D02*
X93255876Y-103400122D01*
X91684448Y-105185836D02*
X93613019Y-103900122D01*
X91755876Y-106114408D02*
X92827305Y-106114408D01*
X92827305Y-106114408D02*
X93041590Y-106042979D01*
X93041590Y-106042979D02*
X93184448Y-105900122D01*
X93184448Y-105900122D02*
X93255876Y-105685836D01*
X93255876Y-105685836D02*
X93255876Y-105542979D01*
X93255876Y-107471551D02*
X92470162Y-107471551D01*
X92470162Y-107471551D02*
X92327305Y-107400122D01*
X92327305Y-107400122D02*
X92255876Y-107257265D01*
X92255876Y-107257265D02*
X92255876Y-106971551D01*
X92255876Y-106971551D02*
X92327305Y-106828693D01*
X93184448Y-107471551D02*
X93255876Y-107328693D01*
X93255876Y-107328693D02*
X93255876Y-106971551D01*
X93255876Y-106971551D02*
X93184448Y-106828693D01*
X93184448Y-106828693D02*
X93041590Y-106757265D01*
X93041590Y-106757265D02*
X92898733Y-106757265D01*
X92898733Y-106757265D02*
X92755876Y-106828693D01*
X92755876Y-106828693D02*
X92684448Y-106971551D01*
X92684448Y-106971551D02*
X92684448Y-107328693D01*
X92684448Y-107328693D02*
X92613019Y-107471551D01*
X93184448Y-108828694D02*
X93255876Y-108685836D01*
X93255876Y-108685836D02*
X93255876Y-108400122D01*
X93255876Y-108400122D02*
X93184448Y-108257265D01*
X93184448Y-108257265D02*
X93113019Y-108185836D01*
X93113019Y-108185836D02*
X92970162Y-108114408D01*
X92970162Y-108114408D02*
X92541590Y-108114408D01*
X92541590Y-108114408D02*
X92398733Y-108185836D01*
X92398733Y-108185836D02*
X92327305Y-108257265D01*
X92327305Y-108257265D02*
X92255876Y-108400122D01*
X92255876Y-108400122D02*
X92255876Y-108685836D01*
X92255876Y-108685836D02*
X92327305Y-108828694D01*
X93255876Y-109685836D02*
X93184448Y-109542979D01*
X93184448Y-109542979D02*
X93113019Y-109471550D01*
X93113019Y-109471550D02*
X92970162Y-109400122D01*
X92970162Y-109400122D02*
X92541590Y-109400122D01*
X92541590Y-109400122D02*
X92398733Y-109471550D01*
X92398733Y-109471550D02*
X92327305Y-109542979D01*
X92327305Y-109542979D02*
X92255876Y-109685836D01*
X92255876Y-109685836D02*
X92255876Y-109900122D01*
X92255876Y-109900122D02*
X92327305Y-110042979D01*
X92327305Y-110042979D02*
X92398733Y-110114408D01*
X92398733Y-110114408D02*
X92541590Y-110185836D01*
X92541590Y-110185836D02*
X92970162Y-110185836D01*
X92970162Y-110185836D02*
X93113019Y-110114408D01*
X93113019Y-110114408D02*
X93184448Y-110042979D01*
X93184448Y-110042979D02*
X93255876Y-109900122D01*
X93255876Y-109900122D02*
X93255876Y-109685836D01*
X93255876Y-110828693D02*
X91755876Y-110828693D01*
X92327305Y-110828693D02*
X92255876Y-110971551D01*
X92255876Y-110971551D02*
X92255876Y-111257265D01*
X92255876Y-111257265D02*
X92327305Y-111400122D01*
X92327305Y-111400122D02*
X92398733Y-111471551D01*
X92398733Y-111471551D02*
X92541590Y-111542979D01*
X92541590Y-111542979D02*
X92970162Y-111542979D01*
X92970162Y-111542979D02*
X93113019Y-111471551D01*
X93113019Y-111471551D02*
X93184448Y-111400122D01*
X93184448Y-111400122D02*
X93255876Y-111257265D01*
X93255876Y-111257265D02*
X93255876Y-110971551D01*
X93255876Y-110971551D02*
X93184448Y-110828693D01*
X93255876Y-112185836D02*
X91755876Y-112185836D01*
X91755876Y-112185836D02*
X91755876Y-112757265D01*
X91755876Y-112757265D02*
X91827305Y-112900122D01*
X91827305Y-112900122D02*
X91898733Y-112971551D01*
X91898733Y-112971551D02*
X92041590Y-113042979D01*
X92041590Y-113042979D02*
X92255876Y-113042979D01*
X92255876Y-113042979D02*
X92398733Y-112971551D01*
X92398733Y-112971551D02*
X92470162Y-112900122D01*
X92470162Y-112900122D02*
X92541590Y-112757265D01*
X92541590Y-112757265D02*
X92541590Y-112185836D01*
X93255876Y-114328694D02*
X92470162Y-114328694D01*
X92470162Y-114328694D02*
X92327305Y-114257265D01*
X92327305Y-114257265D02*
X92255876Y-114114408D01*
X92255876Y-114114408D02*
X92255876Y-113828694D01*
X92255876Y-113828694D02*
X92327305Y-113685836D01*
X93184448Y-114328694D02*
X93255876Y-114185836D01*
X93255876Y-114185836D02*
X93255876Y-113828694D01*
X93255876Y-113828694D02*
X93184448Y-113685836D01*
X93184448Y-113685836D02*
X93041590Y-113614408D01*
X93041590Y-113614408D02*
X92898733Y-113614408D01*
X92898733Y-113614408D02*
X92755876Y-113685836D01*
X92755876Y-113685836D02*
X92684448Y-113828694D01*
X92684448Y-113828694D02*
X92684448Y-114185836D01*
X92684448Y-114185836D02*
X92613019Y-114328694D01*
X93255876Y-115042979D02*
X92255876Y-115042979D01*
X92541590Y-115042979D02*
X92398733Y-115114408D01*
X92398733Y-115114408D02*
X92327305Y-115185837D01*
X92327305Y-115185837D02*
X92255876Y-115328694D01*
X92255876Y-115328694D02*
X92255876Y-115471551D01*
X93184448Y-116542979D02*
X93255876Y-116400122D01*
X93255876Y-116400122D02*
X93255876Y-116114408D01*
X93255876Y-116114408D02*
X93184448Y-115971550D01*
X93184448Y-115971550D02*
X93041590Y-115900122D01*
X93041590Y-115900122D02*
X92470162Y-115900122D01*
X92470162Y-115900122D02*
X92327305Y-115971550D01*
X92327305Y-115971550D02*
X92255876Y-116114408D01*
X92255876Y-116114408D02*
X92255876Y-116400122D01*
X92255876Y-116400122D02*
X92327305Y-116542979D01*
X92327305Y-116542979D02*
X92470162Y-116614408D01*
X92470162Y-116614408D02*
X92613019Y-116614408D01*
X92613019Y-116614408D02*
X92755876Y-115900122D01*
X92255876Y-117257264D02*
X93255876Y-117257264D01*
X92398733Y-117257264D02*
X92327305Y-117328693D01*
X92327305Y-117328693D02*
X92255876Y-117471550D01*
X92255876Y-117471550D02*
X92255876Y-117685836D01*
X92255876Y-117685836D02*
X92327305Y-117828693D01*
X92327305Y-117828693D02*
X92470162Y-117900122D01*
X92470162Y-117900122D02*
X93255876Y-117900122D01*
X92255876Y-118400122D02*
X92255876Y-118971550D01*
X91755876Y-118614407D02*
X93041590Y-118614407D01*
X93041590Y-118614407D02*
X93184448Y-118685836D01*
X93184448Y-118685836D02*
X93255876Y-118828693D01*
X93255876Y-118828693D02*
X93255876Y-118971550D01*
X91755876Y-119328693D02*
X91755876Y-120328693D01*
X91755876Y-120328693D02*
X93255876Y-119685836D01*
X91684448Y-121971550D02*
X93613019Y-120685836D01*
X92470162Y-122971550D02*
X92470162Y-122471550D01*
X93255876Y-122471550D02*
X91755876Y-122471550D01*
X91755876Y-122471550D02*
X91755876Y-123185836D01*
X93184448Y-123685836D02*
X93255876Y-123900122D01*
X93255876Y-123900122D02*
X93255876Y-124257264D01*
X93255876Y-124257264D02*
X93184448Y-124400122D01*
X93184448Y-124400122D02*
X93113019Y-124471550D01*
X93113019Y-124471550D02*
X92970162Y-124542979D01*
X92970162Y-124542979D02*
X92827305Y-124542979D01*
X92827305Y-124542979D02*
X92684448Y-124471550D01*
X92684448Y-124471550D02*
X92613019Y-124400122D01*
X92613019Y-124400122D02*
X92541590Y-124257264D01*
X92541590Y-124257264D02*
X92470162Y-123971550D01*
X92470162Y-123971550D02*
X92398733Y-123828693D01*
X92398733Y-123828693D02*
X92327305Y-123757264D01*
X92327305Y-123757264D02*
X92184448Y-123685836D01*
X92184448Y-123685836D02*
X92041590Y-123685836D01*
X92041590Y-123685836D02*
X91898733Y-123757264D01*
X91898733Y-123757264D02*
X91827305Y-123828693D01*
X91827305Y-123828693D02*
X91755876Y-123971550D01*
X91755876Y-123971550D02*
X91755876Y-124328693D01*
X91755876Y-124328693D02*
X91827305Y-124542979D01*
X92827305Y-125114407D02*
X92827305Y-125828693D01*
X93255876Y-124971550D02*
X91755876Y-125471550D01*
X91755876Y-125471550D02*
X93255876Y-125971550D01*
X92470162Y-126471549D02*
X92470162Y-126971549D01*
X93255876Y-127185835D02*
X93255876Y-126471549D01*
X93255876Y-126471549D02*
X91755876Y-126471549D01*
X91755876Y-126471549D02*
X91755876Y-127185835D01*
X93398733Y-127471550D02*
X93398733Y-128614407D01*
X93255876Y-129685835D02*
X93255876Y-128971549D01*
X93255876Y-128971549D02*
X91755876Y-128971549D01*
X93184448Y-130114407D02*
X93255876Y-130328693D01*
X93255876Y-130328693D02*
X93255876Y-130685835D01*
X93255876Y-130685835D02*
X93184448Y-130828693D01*
X93184448Y-130828693D02*
X93113019Y-130900121D01*
X93113019Y-130900121D02*
X92970162Y-130971550D01*
X92970162Y-130971550D02*
X92827305Y-130971550D01*
X92827305Y-130971550D02*
X92684448Y-130900121D01*
X92684448Y-130900121D02*
X92613019Y-130828693D01*
X92613019Y-130828693D02*
X92541590Y-130685835D01*
X92541590Y-130685835D02*
X92470162Y-130400121D01*
X92470162Y-130400121D02*
X92398733Y-130257264D01*
X92398733Y-130257264D02*
X92327305Y-130185835D01*
X92327305Y-130185835D02*
X92184448Y-130114407D01*
X92184448Y-130114407D02*
X92041590Y-130114407D01*
X92041590Y-130114407D02*
X91898733Y-130185835D01*
X91898733Y-130185835D02*
X91827305Y-130257264D01*
X91827305Y-130257264D02*
X91755876Y-130400121D01*
X91755876Y-130400121D02*
X91755876Y-130757264D01*
X91755876Y-130757264D02*
X91827305Y-130971550D01*
X91755876Y-131614406D02*
X92970162Y-131614406D01*
X92970162Y-131614406D02*
X93113019Y-131685835D01*
X93113019Y-131685835D02*
X93184448Y-131757264D01*
X93184448Y-131757264D02*
X93255876Y-131900121D01*
X93255876Y-131900121D02*
X93255876Y-132185835D01*
X93255876Y-132185835D02*
X93184448Y-132328692D01*
X93184448Y-132328692D02*
X93113019Y-132400121D01*
X93113019Y-132400121D02*
X92970162Y-132471549D01*
X92970162Y-132471549D02*
X91755876Y-132471549D01*
X93398733Y-132828693D02*
X93398733Y-133971550D01*
X92470162Y-134828692D02*
X92541590Y-135042978D01*
X92541590Y-135042978D02*
X92613019Y-135114407D01*
X92613019Y-135114407D02*
X92755876Y-135185835D01*
X92755876Y-135185835D02*
X92970162Y-135185835D01*
X92970162Y-135185835D02*
X93113019Y-135114407D01*
X93113019Y-135114407D02*
X93184448Y-135042978D01*
X93184448Y-135042978D02*
X93255876Y-134900121D01*
X93255876Y-134900121D02*
X93255876Y-134328692D01*
X93255876Y-134328692D02*
X91755876Y-134328692D01*
X91755876Y-134328692D02*
X91755876Y-134828692D01*
X91755876Y-134828692D02*
X91827305Y-134971550D01*
X91827305Y-134971550D02*
X91898733Y-135042978D01*
X91898733Y-135042978D02*
X92041590Y-135114407D01*
X92041590Y-135114407D02*
X92184448Y-135114407D01*
X92184448Y-135114407D02*
X92327305Y-135042978D01*
X92327305Y-135042978D02*
X92398733Y-134971550D01*
X92398733Y-134971550D02*
X92470162Y-134828692D01*
X92470162Y-134828692D02*
X92470162Y-134328692D01*
X93255876Y-135828692D02*
X91755876Y-135828692D01*
X91755876Y-135828692D02*
X92827305Y-136328692D01*
X92827305Y-136328692D02*
X91755876Y-136828692D01*
X91755876Y-136828692D02*
X93255876Y-136828692D01*
X93184448Y-137471550D02*
X93255876Y-137685836D01*
X93255876Y-137685836D02*
X93255876Y-138042978D01*
X93255876Y-138042978D02*
X93184448Y-138185836D01*
X93184448Y-138185836D02*
X93113019Y-138257264D01*
X93113019Y-138257264D02*
X92970162Y-138328693D01*
X92970162Y-138328693D02*
X92827305Y-138328693D01*
X92827305Y-138328693D02*
X92684448Y-138257264D01*
X92684448Y-138257264D02*
X92613019Y-138185836D01*
X92613019Y-138185836D02*
X92541590Y-138042978D01*
X92541590Y-138042978D02*
X92470162Y-137757264D01*
X92470162Y-137757264D02*
X92398733Y-137614407D01*
X92398733Y-137614407D02*
X92327305Y-137542978D01*
X92327305Y-137542978D02*
X92184448Y-137471550D01*
X92184448Y-137471550D02*
X92041590Y-137471550D01*
X92041590Y-137471550D02*
X91898733Y-137542978D01*
X91898733Y-137542978D02*
X91827305Y-137614407D01*
X91827305Y-137614407D02*
X91755876Y-137757264D01*
X91755876Y-137757264D02*
X91755876Y-138114407D01*
X91755876Y-138114407D02*
X91827305Y-138328693D01*
M02*
