%TF.GenerationSoftware,KiCad,Pcbnew,8.0.3*%
%TF.CreationDate,2025-02-03T16:29:30-06:00*%
%TF.ProjectId,FSAE_BMS,46534145-5f42-44d5-932e-6b696361645f,rev?*%
%TF.SameCoordinates,Original*%
%TF.FileFunction,Copper,L1,Top*%
%TF.FilePolarity,Positive*%
%FSLAX46Y46*%
G04 Gerber Fmt 4.6, Leading zero omitted, Abs format (unit mm)*
G04 Created by KiCad (PCBNEW 8.0.3) date 2025-02-03 16:29:30*
%MOMM*%
%LPD*%
G01*
G04 APERTURE LIST*
G04 Aperture macros list*
%AMRoundRect*
0 Rectangle with rounded corners*
0 $1 Rounding radius*
0 $2 $3 $4 $5 $6 $7 $8 $9 X,Y pos of 4 corners*
0 Add a 4 corners polygon primitive as box body*
4,1,4,$2,$3,$4,$5,$6,$7,$8,$9,$2,$3,0*
0 Add four circle primitives for the rounded corners*
1,1,$1+$1,$2,$3*
1,1,$1+$1,$4,$5*
1,1,$1+$1,$6,$7*
1,1,$1+$1,$8,$9*
0 Add four rect primitives between the rounded corners*
20,1,$1+$1,$2,$3,$4,$5,0*
20,1,$1+$1,$4,$5,$6,$7,0*
20,1,$1+$1,$6,$7,$8,$9,0*
20,1,$1+$1,$8,$9,$2,$3,0*%
G04 Aperture macros list end*
%TA.AperFunction,NonConductor*%
%ADD10C,2.000000*%
%TD*%
%TA.AperFunction,SMDPad,CuDef*%
%ADD11RoundRect,0.250000X0.262500X0.450000X-0.262500X0.450000X-0.262500X-0.450000X0.262500X-0.450000X0*%
%TD*%
%TA.AperFunction,SMDPad,CuDef*%
%ADD12RoundRect,0.135000X0.135000X0.185000X-0.135000X0.185000X-0.135000X-0.185000X0.135000X-0.185000X0*%
%TD*%
%TA.AperFunction,SMDPad,CuDef*%
%ADD13RoundRect,0.140000X0.140000X0.170000X-0.140000X0.170000X-0.140000X-0.170000X0.140000X-0.170000X0*%
%TD*%
%TA.AperFunction,SMDPad,CuDef*%
%ADD14RoundRect,0.140000X0.170000X-0.140000X0.170000X0.140000X-0.170000X0.140000X-0.170000X-0.140000X0*%
%TD*%
%TA.AperFunction,SMDPad,CuDef*%
%ADD15RoundRect,0.250000X0.475000X-0.250000X0.475000X0.250000X-0.475000X0.250000X-0.475000X-0.250000X0*%
%TD*%
%TA.AperFunction,SMDPad,CuDef*%
%ADD16RoundRect,0.135000X-0.135000X-0.185000X0.135000X-0.185000X0.135000X0.185000X-0.135000X0.185000X0*%
%TD*%
%TA.AperFunction,SMDPad,CuDef*%
%ADD17RoundRect,0.250000X0.625000X-0.312500X0.625000X0.312500X-0.625000X0.312500X-0.625000X-0.312500X0*%
%TD*%
%TA.AperFunction,SMDPad,CuDef*%
%ADD18RoundRect,0.135000X-0.185000X0.135000X-0.185000X-0.135000X0.185000X-0.135000X0.185000X0.135000X0*%
%TD*%
%TA.AperFunction,SMDPad,CuDef*%
%ADD19RoundRect,0.112500X-0.187500X-0.112500X0.187500X-0.112500X0.187500X0.112500X-0.187500X0.112500X0*%
%TD*%
%TA.AperFunction,SMDPad,CuDef*%
%ADD20RoundRect,0.135000X0.185000X-0.135000X0.185000X0.135000X-0.185000X0.135000X-0.185000X-0.135000X0*%
%TD*%
%TA.AperFunction,SMDPad,CuDef*%
%ADD21R,1.900000X2.500000*%
%TD*%
%TA.AperFunction,SMDPad,CuDef*%
%ADD22RoundRect,0.250000X-0.312500X-1.075000X0.312500X-1.075000X0.312500X1.075000X-0.312500X1.075000X0*%
%TD*%
%TA.AperFunction,SMDPad,CuDef*%
%ADD23RoundRect,0.225000X-0.225000X-0.250000X0.225000X-0.250000X0.225000X0.250000X-0.225000X0.250000X0*%
%TD*%
%TA.AperFunction,SMDPad,CuDef*%
%ADD24RoundRect,0.250000X-2.050000X-0.300000X2.050000X-0.300000X2.050000X0.300000X-2.050000X0.300000X0*%
%TD*%
%TA.AperFunction,SMDPad,CuDef*%
%ADD25RoundRect,0.250000X-2.025000X-2.375000X2.025000X-2.375000X2.025000X2.375000X-2.025000X2.375000X0*%
%TD*%
%TA.AperFunction,SMDPad,CuDef*%
%ADD26RoundRect,0.250002X-4.449998X-5.149998X4.449998X-5.149998X4.449998X5.149998X-4.449998X5.149998X0*%
%TD*%
%TA.AperFunction,SMDPad,CuDef*%
%ADD27RoundRect,0.250000X0.312500X0.625000X-0.312500X0.625000X-0.312500X-0.625000X0.312500X-0.625000X0*%
%TD*%
%TA.AperFunction,ConnectorPad*%
%ADD28C,0.787400*%
%TD*%
%TA.AperFunction,SMDPad,CuDef*%
%ADD29RoundRect,0.250000X-0.650000X1.000000X-0.650000X-1.000000X0.650000X-1.000000X0.650000X1.000000X0*%
%TD*%
%TA.AperFunction,SMDPad,CuDef*%
%ADD30RoundRect,0.218750X0.218750X0.256250X-0.218750X0.256250X-0.218750X-0.256250X0.218750X-0.256250X0*%
%TD*%
%TA.AperFunction,SMDPad,CuDef*%
%ADD31RoundRect,0.140000X-0.140000X-0.170000X0.140000X-0.170000X0.140000X0.170000X-0.140000X0.170000X0*%
%TD*%
%TA.AperFunction,SMDPad,CuDef*%
%ADD32RoundRect,0.250000X-0.625000X0.312500X-0.625000X-0.312500X0.625000X-0.312500X0.625000X0.312500X0*%
%TD*%
%TA.AperFunction,SMDPad,CuDef*%
%ADD33R,2.350000X3.500000*%
%TD*%
%TA.AperFunction,SMDPad,CuDef*%
%ADD34RoundRect,0.112500X0.187500X0.112500X-0.187500X0.112500X-0.187500X-0.112500X0.187500X-0.112500X0*%
%TD*%
%TA.AperFunction,SMDPad,CuDef*%
%ADD35R,0.558800X1.460500*%
%TD*%
%TA.AperFunction,SMDPad,CuDef*%
%ADD36RoundRect,0.140000X-0.170000X0.140000X-0.170000X-0.140000X0.170000X-0.140000X0.170000X0.140000X0*%
%TD*%
%TA.AperFunction,SMDPad,CuDef*%
%ADD37R,1.850000X0.600000*%
%TD*%
%TA.AperFunction,SMDPad,CuDef*%
%ADD38RoundRect,0.150000X-0.587500X-0.150000X0.587500X-0.150000X0.587500X0.150000X-0.587500X0.150000X0*%
%TD*%
%TA.AperFunction,SMDPad,CuDef*%
%ADD39RoundRect,0.250000X-0.325000X-0.650000X0.325000X-0.650000X0.325000X0.650000X-0.325000X0.650000X0*%
%TD*%
%TA.AperFunction,SMDPad,CuDef*%
%ADD40RoundRect,0.150000X-0.150000X0.587500X-0.150000X-0.587500X0.150000X-0.587500X0.150000X0.587500X0*%
%TD*%
%TA.AperFunction,SMDPad,CuDef*%
%ADD41RoundRect,0.250000X-0.250000X-0.475000X0.250000X-0.475000X0.250000X0.475000X-0.250000X0.475000X0*%
%TD*%
%TA.AperFunction,SMDPad,CuDef*%
%ADD42RoundRect,0.225000X0.225000X0.375000X-0.225000X0.375000X-0.225000X-0.375000X0.225000X-0.375000X0*%
%TD*%
%TA.AperFunction,SMDPad,CuDef*%
%ADD43RoundRect,0.200000X0.200000X0.275000X-0.200000X0.275000X-0.200000X-0.275000X0.200000X-0.275000X0*%
%TD*%
%TA.AperFunction,SMDPad,CuDef*%
%ADD44RoundRect,0.225000X-0.225000X-0.375000X0.225000X-0.375000X0.225000X0.375000X-0.225000X0.375000X0*%
%TD*%
%TA.AperFunction,SMDPad,CuDef*%
%ADD45RoundRect,0.225000X0.375000X-0.225000X0.375000X0.225000X-0.375000X0.225000X-0.375000X-0.225000X0*%
%TD*%
%TA.AperFunction,SMDPad,CuDef*%
%ADD46RoundRect,0.250000X0.325000X0.650000X-0.325000X0.650000X-0.325000X-0.650000X0.325000X-0.650000X0*%
%TD*%
%TA.AperFunction,SMDPad,CuDef*%
%ADD47RoundRect,0.150000X-0.512500X-0.150000X0.512500X-0.150000X0.512500X0.150000X-0.512500X0.150000X0*%
%TD*%
%TA.AperFunction,SMDPad,CuDef*%
%ADD48RoundRect,0.250000X-0.312500X-0.625000X0.312500X-0.625000X0.312500X0.625000X-0.312500X0.625000X0*%
%TD*%
%TA.AperFunction,SMDPad,CuDef*%
%ADD49RoundRect,0.250000X-0.450000X0.262500X-0.450000X-0.262500X0.450000X-0.262500X0.450000X0.262500X0*%
%TD*%
%TA.AperFunction,SMDPad,CuDef*%
%ADD50RoundRect,0.225000X-0.375000X0.225000X-0.375000X-0.225000X0.375000X-0.225000X0.375000X0.225000X0*%
%TD*%
%TA.AperFunction,ComponentPad*%
%ADD51C,1.950000*%
%TD*%
%TA.AperFunction,ComponentPad*%
%ADD52C,5.400000*%
%TD*%
%TA.AperFunction,SMDPad,CuDef*%
%ADD53RoundRect,0.250000X-0.650000X0.325000X-0.650000X-0.325000X0.650000X-0.325000X0.650000X0.325000X0*%
%TD*%
%TA.AperFunction,SMDPad,CuDef*%
%ADD54RoundRect,0.112500X-0.112500X0.187500X-0.112500X-0.187500X0.112500X-0.187500X0.112500X0.187500X0*%
%TD*%
%TA.AperFunction,ComponentPad*%
%ADD55R,1.520000X1.520000*%
%TD*%
%TA.AperFunction,ComponentPad*%
%ADD56C,1.520000*%
%TD*%
%TA.AperFunction,SMDPad,CuDef*%
%ADD57R,1.200000X1.400000*%
%TD*%
%TA.AperFunction,SMDPad,CuDef*%
%ADD58RoundRect,0.200000X-0.200000X-0.275000X0.200000X-0.275000X0.200000X0.275000X-0.200000X0.275000X0*%
%TD*%
%TA.AperFunction,SMDPad,CuDef*%
%ADD59RoundRect,0.112500X0.112500X-0.187500X0.112500X0.187500X-0.112500X0.187500X-0.112500X-0.187500X0*%
%TD*%
%TA.AperFunction,SMDPad,CuDef*%
%ADD60RoundRect,0.225000X0.225000X0.250000X-0.225000X0.250000X-0.225000X-0.250000X0.225000X-0.250000X0*%
%TD*%
%TA.AperFunction,SMDPad,CuDef*%
%ADD61R,1.200000X0.700000*%
%TD*%
%TA.AperFunction,SMDPad,CuDef*%
%ADD62R,1.200000X1.000000*%
%TD*%
%TA.AperFunction,SMDPad,CuDef*%
%ADD63R,0.800000X1.000000*%
%TD*%
%TA.AperFunction,SMDPad,CuDef*%
%ADD64R,2.800000X1.000000*%
%TD*%
%TA.AperFunction,SMDPad,CuDef*%
%ADD65R,1.900000X1.300000*%
%TD*%
%TA.AperFunction,SMDPad,CuDef*%
%ADD66R,3.500000X2.350000*%
%TD*%
%TA.AperFunction,SMDPad,CuDef*%
%ADD67RoundRect,0.147500X0.172500X-0.147500X0.172500X0.147500X-0.172500X0.147500X-0.172500X-0.147500X0*%
%TD*%
%TA.AperFunction,SMDPad,CuDef*%
%ADD68R,2.500000X1.900000*%
%TD*%
%TA.AperFunction,SMDPad,CuDef*%
%ADD69RoundRect,0.150000X0.150000X-0.512500X0.150000X0.512500X-0.150000X0.512500X-0.150000X-0.512500X0*%
%TD*%
%TA.AperFunction,SMDPad,CuDef*%
%ADD70RoundRect,0.218750X-0.256250X0.218750X-0.256250X-0.218750X0.256250X-0.218750X0.256250X0.218750X0*%
%TD*%
%TA.AperFunction,SMDPad,CuDef*%
%ADD71RoundRect,0.250000X0.650000X-0.325000X0.650000X0.325000X-0.650000X0.325000X-0.650000X-0.325000X0*%
%TD*%
%TA.AperFunction,SMDPad,CuDef*%
%ADD72RoundRect,0.075000X-0.075000X0.700000X-0.075000X-0.700000X0.075000X-0.700000X0.075000X0.700000X0*%
%TD*%
%TA.AperFunction,SMDPad,CuDef*%
%ADD73RoundRect,0.075000X-0.700000X0.075000X-0.700000X-0.075000X0.700000X-0.075000X0.700000X0.075000X0*%
%TD*%
%TA.AperFunction,SMDPad,CuDef*%
%ADD74RoundRect,0.250000X-0.362500X-1.425000X0.362500X-1.425000X0.362500X1.425000X-0.362500X1.425000X0*%
%TD*%
%TA.AperFunction,SMDPad,CuDef*%
%ADD75RoundRect,0.243750X0.456250X-0.243750X0.456250X0.243750X-0.456250X0.243750X-0.456250X-0.243750X0*%
%TD*%
%TA.AperFunction,SMDPad,CuDef*%
%ADD76RoundRect,0.250000X0.375000X0.625000X-0.375000X0.625000X-0.375000X-0.625000X0.375000X-0.625000X0*%
%TD*%
%TA.AperFunction,SMDPad,CuDef*%
%ADD77R,1.475000X0.450000*%
%TD*%
%TA.AperFunction,SMDPad,CuDef*%
%ADD78RoundRect,0.218750X0.256250X-0.218750X0.256250X0.218750X-0.256250X0.218750X-0.256250X-0.218750X0*%
%TD*%
%TA.AperFunction,SMDPad,CuDef*%
%ADD79RoundRect,0.250000X-1.500000X-0.550000X1.500000X-0.550000X1.500000X0.550000X-1.500000X0.550000X0*%
%TD*%
%TA.AperFunction,ComponentPad*%
%ADD80R,1.700000X1.700000*%
%TD*%
%TA.AperFunction,ComponentPad*%
%ADD81O,1.700000X1.700000*%
%TD*%
%TA.AperFunction,SMDPad,CuDef*%
%ADD82RoundRect,0.250000X0.550000X-1.500000X0.550000X1.500000X-0.550000X1.500000X-0.550000X-1.500000X0*%
%TD*%
%TA.AperFunction,SMDPad,CuDef*%
%ADD83RoundRect,0.243750X-0.243750X-0.456250X0.243750X-0.456250X0.243750X0.456250X-0.243750X0.456250X0*%
%TD*%
%TA.AperFunction,SMDPad,CuDef*%
%ADD84RoundRect,0.225000X-0.250000X0.225000X-0.250000X-0.225000X0.250000X-0.225000X0.250000X0.225000X0*%
%TD*%
%TA.AperFunction,SMDPad,CuDef*%
%ADD85RoundRect,0.250000X-0.375000X-0.625000X0.375000X-0.625000X0.375000X0.625000X-0.375000X0.625000X0*%
%TD*%
%TA.AperFunction,SMDPad,CuDef*%
%ADD86RoundRect,0.250000X-0.300000X2.050000X-0.300000X-2.050000X0.300000X-2.050000X0.300000X2.050000X0*%
%TD*%
%TA.AperFunction,SMDPad,CuDef*%
%ADD87RoundRect,0.250000X-2.375000X2.025000X-2.375000X-2.025000X2.375000X-2.025000X2.375000X2.025000X0*%
%TD*%
%TA.AperFunction,SMDPad,CuDef*%
%ADD88RoundRect,0.250002X-5.149998X4.449998X-5.149998X-4.449998X5.149998X-4.449998X5.149998X4.449998X0*%
%TD*%
%TA.AperFunction,ViaPad*%
%ADD89C,0.700000*%
%TD*%
%TA.AperFunction,ViaPad*%
%ADD90C,0.800000*%
%TD*%
%TA.AperFunction,Conductor*%
%ADD91C,0.500000*%
%TD*%
%TA.AperFunction,Conductor*%
%ADD92C,0.300000*%
%TD*%
%TA.AperFunction,Conductor*%
%ADD93C,0.200000*%
%TD*%
%TA.AperFunction,Conductor*%
%ADD94C,1.000000*%
%TD*%
%TA.AperFunction,Conductor*%
%ADD95C,0.109000*%
%TD*%
G04 APERTURE END LIST*
D10*
X202300000Y-145000000D02*
G75*
G02*
X198300000Y-145000000I-2000000J0D01*
G01*
X198300000Y-145000000D02*
G75*
G02*
X202300000Y-145000000I2000000J0D01*
G01*
X97300000Y-30000000D02*
G75*
G02*
X93300000Y-30000000I-2000000J0D01*
G01*
X93300000Y-30000000D02*
G75*
G02*
X97300000Y-30000000I2000000J0D01*
G01*
X202300000Y-30000000D02*
G75*
G02*
X198300000Y-30000000I-2000000J0D01*
G01*
X198300000Y-30000000D02*
G75*
G02*
X202300000Y-30000000I2000000J0D01*
G01*
X97300000Y-145000000D02*
G75*
G02*
X93300000Y-145000000I-2000000J0D01*
G01*
X93300000Y-145000000D02*
G75*
G02*
X97300000Y-145000000I2000000J0D01*
G01*
D11*
%TO.P,R527,1*%
%TO.N,Net-(L502-Pad1)*%
X107546185Y-49818326D03*
%TO.P,R527,2*%
%TO.N,ISO_COMLP*%
X105721185Y-49818326D03*
%TD*%
D12*
%TO.P,R602,1*%
%TO.N,+3V3*%
X157446187Y-70855329D03*
%TO.P,R602,2*%
%TO.N,CAN2_TX*%
X156426187Y-70855329D03*
%TD*%
D13*
%TO.P,C402,1*%
%TO.N,CHARGE_PWR_LV_ISO*%
X163870000Y-124104000D03*
%TO.P,C402,2*%
%TO.N,GND*%
X162910000Y-124104000D03*
%TD*%
D14*
%TO.P,C505,1*%
%TO.N,GND*%
X135495847Y-53983697D03*
%TO.P,C505,2*%
%TO.N,/BQ79600/COMLN*%
X135495847Y-53023697D03*
%TD*%
D15*
%TO.P,C424,1*%
%TO.N,+5V*%
X116641000Y-107574500D03*
%TO.P,C424,2*%
%TO.N,GND*%
X116641000Y-105674500D03*
%TD*%
D16*
%TO.P,R408,1*%
%TO.N,/PSU/BUCK_FB_5V*%
X129491000Y-90624500D03*
%TO.P,R408,2*%
%TO.N,GND*%
X130511000Y-90624500D03*
%TD*%
D15*
%TO.P,C412,1*%
%TO.N,Net-(D408-A2)*%
X135241000Y-93874500D03*
%TO.P,C412,2*%
%TO.N,GND*%
X135241000Y-91974500D03*
%TD*%
%TO.P,C410,1*%
%TO.N,Net-(D408-A2)*%
X137741000Y-93874500D03*
%TO.P,C410,2*%
%TO.N,GND*%
X137741000Y-91974500D03*
%TD*%
D17*
%TO.P,R305,1*%
%TO.N,Net-(D305-A2)*%
X161600000Y-33462500D03*
%TO.P,R305,2*%
%TO.N,ADC_IN*%
X161600000Y-30537500D03*
%TD*%
D18*
%TO.P,R203,1*%
%TO.N,/MCU/XTAL_IN*%
X161756068Y-44461613D03*
%TO.P,R203,2*%
%TO.N,/MCU/HSE_OUT*%
X161756068Y-45481613D03*
%TD*%
D19*
%TO.P,D503,1,A1*%
%TO.N,Net-(D503-A1)*%
X129100000Y-59500000D03*
%TO.P,D503,2,A2*%
%TO.N,GND*%
X131200000Y-59500000D03*
%TD*%
D20*
%TO.P,R702,1*%
%TO.N,GND*%
X132450000Y-117410000D03*
%TO.P,R702,2*%
%TO.N,DISCHARGE_EN_LV*%
X132450000Y-116390000D03*
%TD*%
D18*
%TO.P,R501,1*%
%TO.N,+3V3*%
X132700400Y-76960900D03*
%TO.P,R501,2*%
%TO.N,Net-(D501-A)*%
X132700400Y-77980900D03*
%TD*%
D21*
%TO.P,L401,1,1*%
%TO.N,VBUS*%
X182091606Y-107133500D03*
%TO.P,L401,2,2*%
%TO.N,Net-(D407-A2)*%
X186191606Y-107133500D03*
%TD*%
D22*
%TO.P,R612,1*%
%TO.N,ISO_CAN2-*%
X150225000Y-94450000D03*
%TO.P,R612,2*%
%TO.N,Net-(C604-Pad1)*%
X153150000Y-94450000D03*
%TD*%
D23*
%TO.P,C201,1*%
%TO.N,+3V3*%
X164628784Y-50200000D03*
%TO.P,C201,2*%
%TO.N,GND*%
X166178784Y-50200000D03*
%TD*%
D24*
%TO.P,Q704,1,G*%
%TO.N,Net-(Q701-C)*%
X116325000Y-117585000D03*
D25*
%TO.P,Q704,2,D*%
%TO.N,CHARGE_EN_HV*%
X123050000Y-117350000D03*
X123050000Y-122900000D03*
D26*
X125475000Y-120125000D03*
D25*
X127900000Y-117350000D03*
X127900000Y-122900000D03*
D24*
%TO.P,Q704,3,S*%
%TO.N,GND*%
X116325000Y-122665000D03*
%TD*%
D27*
%TO.P,R302,1*%
%TO.N,Net-(D301-A2)*%
X149642500Y-35700000D03*
%TO.P,R302,2*%
%TO.N,UART4_RX*%
X146717500Y-35700000D03*
%TD*%
D13*
%TO.P,C215,1*%
%TO.N,+3.3VP*%
X193154142Y-69847145D03*
%TO.P,C215,2*%
%TO.N,GND*%
X192194142Y-69847145D03*
%TD*%
D19*
%TO.P,D204,1,A1*%
%TO.N,GND*%
X173650000Y-53900000D03*
%TO.P,D204,2,A2*%
%TO.N,/MCU/CONN_SWDIO*%
X175750000Y-53900000D03*
%TD*%
D28*
%TO.P,J201,1,VCC*%
%TO.N,+3V3*%
X176900000Y-49400000D03*
%TO.P,J201,2,SWDIO*%
%TO.N,/MCU/CONN_SWDIO*%
X175630000Y-49400000D03*
%TO.P,J201,3,~{RESET}*%
%TO.N,/MCU/CONN_NRST*%
X176900000Y-48130000D03*
%TO.P,J201,4,SWCLK*%
%TO.N,/MCU/CONN_SWCLK*%
X175630000Y-48130000D03*
%TO.P,J201,5,GND*%
%TO.N,GND*%
X176900000Y-46860000D03*
%TO.P,J201,6,SWO*%
%TO.N,/MCU/CONN_SWO*%
X175630000Y-46860000D03*
%TD*%
D29*
%TO.P,D406,1,K*%
%TO.N,VBUS*%
X168498000Y-114400000D03*
%TO.P,D406,2,A*%
%TO.N,Net-(D404-A2)*%
X168498000Y-118400000D03*
%TD*%
D30*
%TO.P,D410,1,K*%
%TO.N,Net-(D410-K)*%
X132078500Y-111224500D03*
%TO.P,D410,2,A*%
%TO.N,+5V*%
X130503500Y-111224500D03*
%TD*%
D31*
%TO.P,C612,1*%
%TO.N,+5V*%
X165121181Y-79250000D03*
%TO.P,C612,2*%
%TO.N,GND*%
X166081181Y-79250000D03*
%TD*%
D32*
%TO.P,R606,1*%
%TO.N,/TCAN1462-Q1/CANL_2*%
X153437000Y-88937500D03*
%TO.P,R606,2*%
%TO.N,ISO_CAN2-*%
X153437000Y-91862500D03*
%TD*%
D31*
%TO.P,C602,1*%
%TO.N,GND*%
X151663769Y-71909970D03*
%TO.P,C602,2*%
%TO.N,CAN2_RX*%
X152623769Y-71909970D03*
%TD*%
D33*
%TO.P,L403,1,1*%
%TO.N,/PSU/BUCK_SW_3V3*%
X188817606Y-92401500D03*
%TO.P,L403,2,2*%
%TO.N,+3V3*%
X182767606Y-92401500D03*
%TD*%
D34*
%TO.P,D504,1,A1*%
%TO.N,GND*%
X131200000Y-55250000D03*
%TO.P,D504,2,A2*%
%TO.N,Net-(D504-A2)*%
X129100000Y-55250000D03*
%TD*%
D35*
%TO.P,U601,1,TXD*%
%TO.N,Net-(U601-TXD)*%
X167605000Y-80925850D03*
%TO.P,U601,2,GND*%
%TO.N,GND*%
X166335000Y-80925850D03*
%TO.P,U601,3,VCC*%
%TO.N,+5V*%
X165065000Y-80925850D03*
%TO.P,U601,4,RXD*%
%TO.N,Net-(U601-RXD)*%
X163795000Y-80925850D03*
%TO.P,U601,5,VIO*%
%TO.N,+3V3*%
X163795000Y-86374150D03*
%TO.P,U601,6,CANL*%
%TO.N,/TCAN1462-Q1/CANL_1*%
X165065000Y-86374150D03*
%TO.P,U601,7,CANH*%
%TO.N,/TCAN1462-Q1/CANH_1*%
X166335000Y-86374150D03*
%TO.P,U601,8,STB*%
%TO.N,Net-(U601-STB)*%
X167605000Y-86374150D03*
%TD*%
D36*
%TO.P,C206,1*%
%TO.N,+3V3*%
X155350358Y-63521508D03*
%TO.P,C206,2*%
%TO.N,GND*%
X155350358Y-64481508D03*
%TD*%
D27*
%TO.P,R512,1*%
%TO.N,/BQ79600/COMLN*%
X132042440Y-52995697D03*
%TO.P,R512,2*%
%TO.N,Net-(D504-A2)*%
X129117440Y-52995697D03*
%TD*%
D16*
%TO.P,R706,1*%
%TO.N,CHARGE_SAFE_LV*%
X191457000Y-113819000D03*
%TO.P,R706,2*%
%TO.N,Net-(Q703-B)*%
X192477000Y-113819000D03*
%TD*%
D18*
%TO.P,R406,1*%
%TO.N,/PSU/BUCK_FB_3V3*%
X196521363Y-93665590D03*
%TO.P,R406,2*%
%TO.N,GND*%
X196521363Y-94685590D03*
%TD*%
D12*
%TO.P,R207,1*%
%TO.N,/MCU/CONN_SWO*%
X173492517Y-41588807D03*
%TO.P,R207,2*%
%TO.N,/MCU/SWO*%
X172472517Y-41588807D03*
%TD*%
D37*
%TO.P,L501,1*%
%TO.N,Net-(L501-Pad1)*%
X110002118Y-63176469D03*
%TO.P,L501,2*%
%TO.N,Net-(L501-Pad2)*%
X110002118Y-64446469D03*
%TO.P,L501,3*%
%TO.N,Net-(C509-Pad1)*%
X114552118Y-64446469D03*
%TO.P,L501,4*%
%TO.N,Net-(C510-Pad1)*%
X114552118Y-63176469D03*
%TD*%
D38*
%TO.P,Q707,1,B*%
%TO.N,Net-(Q707-B)*%
X114117500Y-137135000D03*
%TO.P,Q707,2,E*%
%TO.N,GND*%
X114117500Y-139035000D03*
%TO.P,Q707,3,C*%
%TO.N,Net-(Q707-C)*%
X115992500Y-138085000D03*
%TD*%
D18*
%TO.P,R514,1*%
%TO.N,+3V3*%
X147600000Y-51390000D03*
%TO.P,R514,2*%
%TO.N,SPI1_NSS*%
X147600000Y-52410000D03*
%TD*%
D39*
%TO.P,C703,1*%
%TO.N,CHARGE_SAFE_HV*%
X195500000Y-133875000D03*
%TO.P,C703,2*%
%TO.N,GND*%
X198450000Y-133875000D03*
%TD*%
D31*
%TO.P,C203,1*%
%TO.N,+3V3*%
X164920603Y-51500000D03*
%TO.P,C203,2*%
%TO.N,GND*%
X165880603Y-51500000D03*
%TD*%
D40*
%TO.P,Q703,1,B*%
%TO.N,Net-(Q703-B)*%
X192475000Y-115597000D03*
%TO.P,Q703,2,E*%
%TO.N,GND*%
X190575000Y-115597000D03*
%TO.P,Q703,3,C*%
%TO.N,Net-(Q703-C)*%
X191525000Y-117472000D03*
%TD*%
D13*
%TO.P,C610,1*%
%TO.N,GND*%
X157385180Y-71914575D03*
%TO.P,C610,2*%
%TO.N,CAN2_TX*%
X156425180Y-71914575D03*
%TD*%
%TO.P,C417,1*%
%TO.N,/PSU/CBOOT_3V3*%
X195416606Y-90369500D03*
%TO.P,C417,2*%
%TO.N,/PSU/BUCK_SW_3V3*%
X194456606Y-90369500D03*
%TD*%
D31*
%TO.P,C502,1*%
%TO.N,GND*%
X131651940Y-50963697D03*
%TO.P,C502,2*%
%TO.N,Net-(C502-Pad2)*%
X132611940Y-50963697D03*
%TD*%
D27*
%TO.P,R510,1*%
%TO.N,/BQ79600/COMHP*%
X132035741Y-66045000D03*
%TO.P,R510,2*%
%TO.N,Net-(D502-A2)*%
X129110741Y-66045000D03*
%TD*%
D20*
%TO.P,R701,1*%
%TO.N,GND*%
X107500000Y-119710000D03*
%TO.P,R701,2*%
%TO.N,CHARGE_EN_LV*%
X107500000Y-118690000D03*
%TD*%
D16*
%TO.P,R401,1*%
%TO.N,READY_PWR_LV_ISO*%
X178374000Y-124020000D03*
%TO.P,R401,2*%
%TO.N,GND*%
X179394000Y-124020000D03*
%TD*%
D41*
%TO.P,C421,1*%
%TO.N,+3V3*%
X179381606Y-83384500D03*
%TO.P,C421,2*%
%TO.N,GND*%
X181281606Y-83384500D03*
%TD*%
D14*
%TO.P,C202,1*%
%TO.N,/MCU/HSE_IN*%
X162900000Y-47550000D03*
%TO.P,C202,2*%
%TO.N,GND*%
X162900000Y-46590000D03*
%TD*%
D42*
%TO.P,D403,1,A1*%
%TO.N,GND*%
X176250000Y-121100000D03*
%TO.P,D403,2,A2*%
%TO.N,Net-(D403-A2)*%
X172950000Y-121100000D03*
%TD*%
D27*
%TO.P,R511,1*%
%TO.N,/BQ79600/COMHN*%
X132039618Y-61772649D03*
%TO.P,R511,2*%
%TO.N,Net-(D503-A1)*%
X129114618Y-61772649D03*
%TD*%
D31*
%TO.P,C609,1*%
%TO.N,ISO_CAN2-*%
X152570000Y-96700000D03*
%TO.P,C609,2*%
%TO.N,GND*%
X153530000Y-96700000D03*
%TD*%
%TO.P,C501,1*%
%TO.N,GND*%
X131472487Y-63942220D03*
%TO.P,C501,2*%
%TO.N,Net-(C501-Pad2)*%
X132432487Y-63942220D03*
%TD*%
D41*
%TO.P,C411,1*%
%TO.N,Net-(D407-A2)*%
X193097606Y-102140500D03*
%TO.P,C411,2*%
%TO.N,GND*%
X194997606Y-102140500D03*
%TD*%
D43*
%TO.P,R504,1*%
%TO.N,/BQ79600/COMLN*%
X135473432Y-51745121D03*
%TO.P,R504,2*%
%TO.N,Net-(C502-Pad2)*%
X133823432Y-51745121D03*
%TD*%
D31*
%TO.P,C617,1*%
%TO.N,+5V*%
X154099591Y-79329479D03*
%TO.P,C617,2*%
%TO.N,GND*%
X155059591Y-79329479D03*
%TD*%
D44*
%TO.P,D703,1,K*%
%TO.N,CHARGE_SAFE_HV*%
X195425000Y-131375000D03*
%TO.P,D703,2,A*%
%TO.N,GND*%
X198725000Y-131375000D03*
%TD*%
D41*
%TO.P,C423,1*%
%TO.N,+3V3*%
X179381606Y-80884500D03*
%TO.P,C423,2*%
%TO.N,GND*%
X181281606Y-80884500D03*
%TD*%
D31*
%TO.P,C508,1*%
%TO.N,+3V3*%
X150863272Y-58801008D03*
%TO.P,C508,2*%
%TO.N,GND*%
X151823272Y-58801008D03*
%TD*%
D27*
%TO.P,R304,1*%
%TO.N,Net-(D302-A2)*%
X137042500Y-35600000D03*
%TO.P,R304,2*%
%TO.N,USART2_RX*%
X134117500Y-35600000D03*
%TD*%
D19*
%TO.P,D301,1,A1*%
%TO.N,GND*%
X147570000Y-33400000D03*
%TO.P,D301,2,A2*%
%TO.N,Net-(D301-A2)*%
X149670000Y-33400000D03*
%TD*%
D45*
%TO.P,D408,1,A1*%
%TO.N,GND*%
X135241000Y-98900000D03*
%TO.P,D408,2,A2*%
%TO.N,Net-(D408-A2)*%
X135241000Y-95600000D03*
%TD*%
D14*
%TO.P,C204,1*%
%TO.N,+3V3*%
X153898564Y-56310000D03*
%TO.P,C204,2*%
%TO.N,GND*%
X153898564Y-55350000D03*
%TD*%
D20*
%TO.P,R711,1*%
%TO.N,FAN_EN_LV*%
X112453033Y-138109839D03*
%TO.P,R711,2*%
%TO.N,Net-(Q707-B)*%
X112453033Y-137089839D03*
%TD*%
D22*
%TO.P,R610,1*%
%TO.N,ISO_CAN1-*%
X161187500Y-94450000D03*
%TO.P,R610,2*%
%TO.N,Net-(C603-Pad1)*%
X164112500Y-94450000D03*
%TD*%
D14*
%TO.P,C504,1*%
%TO.N,/BQ79600/COMHN*%
X135577118Y-61922220D03*
%TO.P,C504,2*%
%TO.N,GND*%
X135577118Y-60962220D03*
%TD*%
D18*
%TO.P,R403,1*%
%TO.N,Net-(D404-A2)*%
X164942000Y-122994000D03*
%TO.P,R403,2*%
%TO.N,CHARGE_PWR_LV_ISO*%
X164942000Y-124014000D03*
%TD*%
D16*
%TO.P,R409,1*%
%TO.N,Net-(D409-K)*%
X175884606Y-97608500D03*
%TO.P,R409,2*%
%TO.N,GND*%
X176904606Y-97608500D03*
%TD*%
D44*
%TO.P,D407,1,A1*%
%TO.N,GND*%
X188150000Y-99700000D03*
%TO.P,D407,2,A2*%
%TO.N,Net-(D407-A2)*%
X191450000Y-99700000D03*
%TD*%
D34*
%TO.P,D502,1,A1*%
%TO.N,GND*%
X131213614Y-68297057D03*
%TO.P,D502,2,A2*%
%TO.N,Net-(D502-A2)*%
X129113614Y-68297057D03*
%TD*%
D20*
%TO.P,R507,1*%
%TO.N,+3V3*%
X153900000Y-59310000D03*
%TO.P,R507,2*%
%TO.N,SPI_MOSI*%
X153900000Y-58290000D03*
%TD*%
D16*
%TO.P,R607,1*%
%TO.N,+3V3*%
X162690000Y-70850000D03*
%TO.P,R607,2*%
%TO.N,CAN1_RX*%
X163710000Y-70850000D03*
%TD*%
D46*
%TO.P,C404,1*%
%TO.N,VBUS*%
X139675000Y-109024500D03*
%TO.P,C404,2*%
%TO.N,GND*%
X136725000Y-109024500D03*
%TD*%
D32*
%TO.P,R603,1*%
%TO.N,/TCAN1462-Q1/CANH_1*%
X166964000Y-88937500D03*
%TO.P,R603,2*%
%TO.N,ISO_CAN1+*%
X166964000Y-91862500D03*
%TD*%
D47*
%TO.P,U401,1,GND*%
%TO.N,GND*%
X192733022Y-91765093D03*
%TO.P,U401,2,SW*%
%TO.N,/PSU/BUCK_SW_3V3*%
X192733022Y-92715093D03*
%TO.P,U401,3,VIN*%
%TO.N,Net-(D407-A2)*%
X192733022Y-93665093D03*
%TO.P,U401,4,FB*%
%TO.N,/PSU/BUCK_FB_3V3*%
X195008022Y-93665093D03*
%TO.P,U401,5,EN*%
%TO.N,Net-(D407-A2)*%
X195008022Y-92715093D03*
%TO.P,U401,6,CB*%
%TO.N,/PSU/CBOOT_3V3*%
X195008022Y-91765093D03*
%TD*%
D16*
%TO.P,R210,1*%
%TO.N,/MCU/SDIO_CK*%
X180615501Y-62347900D03*
%TO.P,R210,2*%
%TO.N,/MCU/SDIO_CK_L*%
X181635501Y-62347900D03*
%TD*%
D48*
%TO.P,R301,1*%
%TO.N,Net-(D303-A2)*%
X152317500Y-35700000D03*
%TO.P,R301,2*%
%TO.N,UART4_TX*%
X155242500Y-35700000D03*
%TD*%
D49*
%TO.P,R618,1*%
%TO.N,Net-(U602-STB)*%
X158300000Y-86887500D03*
%TO.P,R618,2*%
%TO.N,GND*%
X158300000Y-88712500D03*
%TD*%
D50*
%TO.P,D701,1,K*%
%TO.N,CHARGE_EN_HV*%
X122400000Y-126700000D03*
%TO.P,D701,2,A*%
%TO.N,GND*%
X122400000Y-130000000D03*
%TD*%
D43*
%TO.P,R502,1*%
%TO.N,/BQ79600/COMHP*%
X135602118Y-64783886D03*
%TO.P,R502,2*%
%TO.N,Net-(C501-Pad2)*%
X133952118Y-64783886D03*
%TD*%
D39*
%TO.P,C702,1*%
%TO.N,DISCHARGE_EN_HV*%
X156125000Y-120100000D03*
%TO.P,C702,2*%
%TO.N,GND*%
X159075000Y-120100000D03*
%TD*%
D32*
%TO.P,R605,1*%
%TO.N,/TCAN1462-Q1/CANH_2*%
X155987000Y-88937500D03*
%TO.P,R605,2*%
%TO.N,ISO_CAN2+*%
X155987000Y-91862500D03*
%TD*%
D51*
%TO.P,J303,1,1*%
%TO.N,unconnected-(J303-Pad1)*%
X175660000Y-127162500D03*
%TO.P,J303,2,2*%
%TO.N,READY_PWR*%
X171660000Y-127162500D03*
%TO.P,J303,3,3*%
%TO.N,CHARGE_PWR*%
X167660000Y-127162500D03*
%TO.P,J303,4,4*%
%TO.N,unconnected-(J303-Pad4)*%
X164460000Y-127162500D03*
%TO.P,J303,5,5*%
%TO.N,unconnected-(J303-Pad5)*%
X162260000Y-127162500D03*
%TO.P,J303,6,6*%
%TO.N,CHARGE_SAFE_HV*%
X160060000Y-127162500D03*
%TO.P,J303,7,7*%
%TO.N,DISCHARGE_EN_HV*%
X157860000Y-127162500D03*
%TO.P,J303,8,8*%
%TO.N,CHARGE_EN_HV*%
X155660000Y-127162500D03*
%TO.P,J303,9,9*%
%TO.N,unconnected-(J303-Pad9)*%
X153460000Y-127162500D03*
%TO.P,J303,10,10*%
%TO.N,FAN_EN_HV*%
X150260000Y-127162500D03*
%TO.P,J303,11,11*%
%TO.N,unconnected-(J303-Pad11)*%
X146260000Y-127162500D03*
%TO.P,J303,12,12*%
%TO.N,GND*%
X142260000Y-127162500D03*
%TO.P,J303,13,13*%
%TO.N,unconnected-(J303-Pad13)*%
X175460000Y-131662500D03*
%TO.P,J303,14,14*%
%TO.N,unconnected-(J303-Pad14)*%
X173260000Y-131662500D03*
%TO.P,J303,15,15*%
%TO.N,unconnected-(J303-Pad15)*%
X171060000Y-131662500D03*
%TO.P,J303,16,16*%
%TO.N,unconnected-(J303-Pad16)*%
X168860000Y-131662500D03*
%TO.P,J303,17,17*%
%TO.N,unconnected-(J303-Pad17)*%
X166660000Y-131662500D03*
%TO.P,J303,18,18*%
%TO.N,ISO_CAN1+*%
X164460000Y-131662500D03*
%TO.P,J303,19,19*%
%TO.N,ISO_CAN1-*%
X162260000Y-131662500D03*
%TO.P,J303,20,20*%
%TO.N,ISO_CAN2+*%
X155660000Y-131662500D03*
%TO.P,J303,21,21*%
%TO.N,ISO_CAN2-*%
X153460000Y-131662500D03*
%TO.P,J303,22,22*%
%TO.N,unconnected-(J303-Pad22)*%
X151260000Y-131662500D03*
%TO.P,J303,23,23*%
%TO.N,unconnected-(J303-Pad23)*%
X149060000Y-131662500D03*
%TO.P,J303,24,24*%
%TO.N,unconnected-(J303-Pad24)*%
X146860000Y-131662500D03*
%TO.P,J303,25,25*%
%TO.N,unconnected-(J303-Pad25)*%
X144660000Y-131662500D03*
%TO.P,J303,26,26*%
%TO.N,unconnected-(J303-Pad26)*%
X142460000Y-131662500D03*
D52*
%TO.P,J303,MH1,MH1*%
%TO.N,unconnected-(J303-PadMH1)*%
X175610000Y-137612500D03*
%TO.P,J303,MH2,MH2*%
%TO.N,unconnected-(J303-PadMH2)*%
X142260000Y-137612500D03*
%TD*%
D14*
%TO.P,C405,1*%
%TO.N,VBUS*%
X180132686Y-103697627D03*
%TO.P,C405,2*%
%TO.N,GND*%
X180132686Y-102737627D03*
%TD*%
D36*
%TO.P,C418,1*%
%TO.N,/PSU/CBOOT_5V*%
X126191000Y-91644500D03*
%TO.P,C418,2*%
%TO.N,/PSU/BUCK_SW_5V*%
X126191000Y-92604500D03*
%TD*%
D31*
%TO.P,C415,1*%
%TO.N,Net-(D407-A2)*%
X193647256Y-95358996D03*
%TO.P,C415,2*%
%TO.N,GND*%
X194607256Y-95358996D03*
%TD*%
D16*
%TO.P,R201,1*%
%TO.N,Net-(D202-K)*%
X172669303Y-34342642D03*
%TO.P,R201,2*%
%TO.N,GND*%
X173689303Y-34342642D03*
%TD*%
D23*
%TO.P,C614,1*%
%TO.N,+5V*%
X164756919Y-76850000D03*
%TO.P,C614,2*%
%TO.N,GND*%
X166306919Y-76850000D03*
%TD*%
D11*
%TO.P,R525,1*%
%TO.N,Net-(L501-Pad1)*%
X107689618Y-62561469D03*
%TO.P,R525,2*%
%TO.N,ISO_COMHN*%
X105864618Y-62561469D03*
%TD*%
D37*
%TO.P,L502,1*%
%TO.N,Net-(L502-Pad1)*%
X110011661Y-50147590D03*
%TO.P,L502,2*%
%TO.N,Net-(L502-Pad2)*%
X110011661Y-51417590D03*
%TO.P,L502,3*%
%TO.N,Net-(C511-Pad1)*%
X114561661Y-51417590D03*
%TO.P,L502,4*%
%TO.N,Net-(C512-Pad1)*%
X114561661Y-50147590D03*
%TD*%
D53*
%TO.P,C701,1*%
%TO.N,CHARGE_EN_HV*%
X124900000Y-126825000D03*
%TO.P,C701,2*%
%TO.N,GND*%
X124900000Y-129775000D03*
%TD*%
D30*
%TO.P,D202,1,K*%
%TO.N,Net-(D202-K)*%
X172676803Y-35742642D03*
%TO.P,D202,2,A*%
%TO.N,/MCU/TEST_LED*%
X171101803Y-35742642D03*
%TD*%
D11*
%TO.P,R522,1*%
%TO.N,Net-(C511-Pad1)*%
X113163318Y-54002007D03*
%TO.P,R522,2*%
%TO.N,Net-(L502-Pad2)*%
X111338318Y-54002007D03*
%TD*%
D29*
%TO.P,D405,1,K*%
%TO.N,VBUS*%
X173578000Y-114400000D03*
%TO.P,D405,2,A*%
%TO.N,Net-(D403-A2)*%
X173578000Y-118400000D03*
%TD*%
D22*
%TO.P,R609,1*%
%TO.N,Net-(C603-Pad1)*%
X167187500Y-94450000D03*
%TO.P,R609,2*%
%TO.N,ISO_CAN1+*%
X170112500Y-94450000D03*
%TD*%
D18*
%TO.P,R405,1*%
%TO.N,+3V3*%
X196530224Y-91629050D03*
%TO.P,R405,2*%
%TO.N,/PSU/BUCK_FB_3V3*%
X196530224Y-92649050D03*
%TD*%
D54*
%TO.P,D207,1,A1*%
%TO.N,GND*%
X179826381Y-58050000D03*
%TO.P,D207,2,A2*%
%TO.N,/MCU/SDIO_CMD*%
X179826381Y-60150000D03*
%TD*%
D36*
%TO.P,C603,1*%
%TO.N,Net-(C603-Pad1)*%
X165650000Y-95470000D03*
%TO.P,C603,2*%
%TO.N,GND*%
X165650000Y-96430000D03*
%TD*%
D31*
%TO.P,C601,1*%
%TO.N,GND*%
X162720000Y-71962788D03*
%TO.P,C601,2*%
%TO.N,CAN1_RX*%
X163680000Y-71962788D03*
%TD*%
%TO.P,C214,1*%
%TO.N,+3V3*%
X158650364Y-49267863D03*
%TO.P,C214,2*%
%TO.N,GND*%
X159610364Y-49267863D03*
%TD*%
D15*
%TO.P,C420,1*%
%TO.N,+5V*%
X121641000Y-107574500D03*
%TO.P,C420,2*%
%TO.N,GND*%
X121641000Y-105674500D03*
%TD*%
D31*
%TO.P,C211,1*%
%TO.N,VDDA*%
X158657444Y-51485605D03*
%TO.P,C211,2*%
%TO.N,GND*%
X159617444Y-51485605D03*
%TD*%
D34*
%TO.P,D203,1,A1*%
%TO.N,GND*%
X175600000Y-43200000D03*
%TO.P,D203,2,A2*%
%TO.N,/MCU/CONN_SWO*%
X173500000Y-43200000D03*
%TD*%
D18*
%TO.P,R508,1*%
%TO.N,+3V3*%
X146500000Y-51390000D03*
%TO.P,R508,2*%
%TO.N,SPI_MISO*%
X146500000Y-52410000D03*
%TD*%
D20*
%TO.P,R410,1*%
%TO.N,Net-(D410-K)*%
X133591000Y-111234500D03*
%TO.P,R410,2*%
%TO.N,GND*%
X133591000Y-110214500D03*
%TD*%
D55*
%TO.P,J305,1,1*%
%TO.N,ISO_COMLP*%
X98271605Y-50418326D03*
D56*
%TO.P,J305,2,2*%
%TO.N,ISO_COMLN*%
X101271604Y-50418326D03*
%TD*%
D57*
%TO.P,Y201,1,1*%
%TO.N,/MCU/HSE_IN*%
X166226000Y-46683500D03*
%TO.P,Y201,2,2*%
%TO.N,GND*%
X166226000Y-44483500D03*
%TO.P,Y201,3,3*%
%TO.N,/MCU/XTAL_IN*%
X164526000Y-44483500D03*
%TO.P,Y201,4,4*%
%TO.N,GND*%
X164526000Y-46683500D03*
%TD*%
D58*
%TO.P,R503,1*%
%TO.N,Net-(C501-Pad2)*%
X133952118Y-63242220D03*
%TO.P,R503,2*%
%TO.N,/BQ79600/COMHN*%
X135602118Y-63242220D03*
%TD*%
D31*
%TO.P,C615,1*%
%TO.N,+5V*%
X165126725Y-78150000D03*
%TO.P,C615,2*%
%TO.N,GND*%
X166086725Y-78150000D03*
%TD*%
D59*
%TO.P,D208,1,A1*%
%TO.N,GND*%
X177400000Y-66750000D03*
%TO.P,D208,2,A2*%
%TO.N,/MCU/SDIO_D0*%
X177400000Y-64650000D03*
%TD*%
D16*
%TO.P,R709,1*%
%TO.N,VBUS*%
X190490000Y-119700000D03*
%TO.P,R709,2*%
%TO.N,Net-(Q703-C)*%
X191510000Y-119700000D03*
%TD*%
D11*
%TO.P,R519,1*%
%TO.N,Net-(D505-A1)*%
X127235413Y-48846951D03*
%TO.P,R519,2*%
%TO.N,Net-(C512-Pad2)*%
X125410413Y-48846951D03*
%TD*%
D23*
%TO.P,C507,1*%
%TO.N,GND*%
X147779674Y-61439141D03*
%TO.P,C507,2*%
%TO.N,Net-(IC501-DVDD)*%
X149329674Y-61439141D03*
%TD*%
D34*
%TO.P,D303,1,A1*%
%TO.N,GND*%
X154370000Y-33400000D03*
%TO.P,D303,2,A2*%
%TO.N,Net-(D303-A2)*%
X152270000Y-33400000D03*
%TD*%
D11*
%TO.P,R520,1*%
%TO.N,Net-(C509-Pad1)*%
X113189618Y-67020718D03*
%TO.P,R520,2*%
%TO.N,Net-(L501-Pad2)*%
X111364618Y-67020718D03*
%TD*%
D60*
%TO.P,C216,1*%
%TO.N,+3.3VP*%
X193175000Y-71247145D03*
%TO.P,C216,2*%
%TO.N,GND*%
X191625000Y-71247145D03*
%TD*%
D61*
%TO.P,J202,1,DAT2*%
%TO.N,unconnected-(J202-DAT2-Pad1)*%
X184974142Y-57947145D03*
%TO.P,J202,2,CD/DAT3*%
%TO.N,unconnected-(J202-CD{slash}DAT3-Pad2)*%
X184974142Y-59047145D03*
%TO.P,J202,3,CMD*%
%TO.N,/MCU/SDIO_CMD*%
X184974142Y-60147145D03*
%TO.P,J202,4,VDD*%
%TO.N,+3.3VP*%
X184974142Y-61247145D03*
%TO.P,J202,5,CLK*%
%TO.N,/MCU/SDIO_CK_L*%
X184974142Y-62347145D03*
%TO.P,J202,6,VSS*%
%TO.N,GND*%
X184974142Y-63447145D03*
%TO.P,J202,7,DAT0*%
%TO.N,/MCU/SDIO_D0*%
X184974142Y-64547145D03*
%TO.P,J202,8,DAT1*%
%TO.N,unconnected-(J202-DAT1-Pad8)*%
X184974142Y-65647145D03*
%TO.P,J202,CD1,CARD_DETECT*%
%TO.N,/MCU/SDIO_DET*%
X184974142Y-66597145D03*
D62*
%TO.P,J202,MP1,MP1*%
%TO.N,GND*%
X184974142Y-56397145D03*
%TO.P,J202,MP2,MP2*%
X189274142Y-67547145D03*
D63*
%TO.P,J202,MP3,MP3*%
X195474142Y-67547145D03*
D64*
%TO.P,J202,MP4,MP4*%
X199624142Y-67547145D03*
D65*
%TO.P,J202,MP5,MP5*%
X200074142Y-54047145D03*
%TD*%
D44*
%TO.P,D404,1,A1*%
%TO.N,GND*%
X165750000Y-121100000D03*
%TO.P,D404,2,A2*%
%TO.N,Net-(D404-A2)*%
X169050000Y-121100000D03*
%TD*%
D41*
%TO.P,C510,1*%
%TO.N,Net-(C510-Pad1)*%
X117077118Y-62700000D03*
%TO.P,C510,2*%
%TO.N,Net-(C510-Pad2)*%
X118977118Y-62700000D03*
%TD*%
D20*
%TO.P,R704,1*%
%TO.N,CHARGE_EN_LV*%
X107495370Y-117699397D03*
%TO.P,R704,2*%
%TO.N,Net-(Q701-B)*%
X107495370Y-116679397D03*
%TD*%
D66*
%TO.P,L404,1,1*%
%TO.N,/PSU/BUCK_SW_5V*%
X128171000Y-98224500D03*
%TO.P,L404,2,2*%
%TO.N,+5V*%
X128171000Y-104274500D03*
%TD*%
D67*
%TO.P,L201,1,1*%
%TO.N,VDDA*%
X157620728Y-50310863D03*
%TO.P,L201,2,2*%
%TO.N,+3V3*%
X157620728Y-49340863D03*
%TD*%
D68*
%TO.P,L402,1,1*%
%TO.N,VBUS*%
X142844000Y-105010500D03*
%TO.P,L402,2,2*%
%TO.N,Net-(D408-A2)*%
X142844000Y-100910500D03*
%TD*%
D31*
%TO.P,C620,1*%
%TO.N,+5V*%
X154100741Y-78321894D03*
%TO.P,C620,2*%
%TO.N,GND*%
X155060741Y-78321894D03*
%TD*%
D41*
%TO.P,C419,1*%
%TO.N,+3V3*%
X179381606Y-85884500D03*
%TO.P,C419,2*%
%TO.N,GND*%
X181281606Y-85884500D03*
%TD*%
D54*
%TO.P,D401,1,K*%
%TO.N,CHARGE_PWR_LV_ISO*%
X140900000Y-66850000D03*
%TO.P,D401,2,A*%
%TO.N,GND*%
X140900000Y-68950000D03*
%TD*%
D13*
%TO.P,C406,1*%
%TO.N,VBUS*%
X138980000Y-107224500D03*
%TO.P,C406,2*%
%TO.N,GND*%
X138020000Y-107224500D03*
%TD*%
D60*
%TO.P,C207,1*%
%TO.N,Net-(U201-VCAP_1)*%
X153676055Y-62541186D03*
%TO.P,C207,2*%
%TO.N,GND*%
X152126055Y-62541186D03*
%TD*%
D34*
%TO.P,D201,1,A1*%
%TO.N,GND*%
X179416855Y-53900000D03*
%TO.P,D201,2,A2*%
%TO.N,+3V3*%
X177316855Y-53900000D03*
%TD*%
D14*
%TO.P,C416,1*%
%TO.N,Net-(D408-A2)*%
X131138801Y-93430963D03*
%TO.P,C416,2*%
%TO.N,GND*%
X131138801Y-92470963D03*
%TD*%
D49*
%TO.P,R616,1*%
%TO.N,CAN2_RX*%
X152627028Y-73292216D03*
%TO.P,R616,2*%
%TO.N,Net-(U602-RXD)*%
X152627028Y-75117216D03*
%TD*%
D34*
%TO.P,D209,1,A1*%
%TO.N,GND*%
X197050000Y-71250000D03*
%TO.P,D209,2,A2*%
%TO.N,+3.3VP*%
X194950000Y-71250000D03*
%TD*%
D12*
%TO.P,R601,1*%
%TO.N,+3V3*%
X168443713Y-70886109D03*
%TO.P,R601,2*%
%TO.N,CAN1_TX*%
X167423713Y-70886109D03*
%TD*%
D69*
%TO.P,U402,1,GND*%
%TO.N,GND*%
X127541000Y-94362000D03*
%TO.P,U402,2,SW*%
%TO.N,/PSU/BUCK_SW_5V*%
X128491000Y-94362000D03*
%TO.P,U402,3,VIN*%
%TO.N,Net-(D408-A2)*%
X129441000Y-94362000D03*
%TO.P,U402,4,FB*%
%TO.N,/PSU/BUCK_FB_5V*%
X129441000Y-92087000D03*
%TO.P,U402,5,EN*%
%TO.N,Net-(D408-A2)*%
X128491000Y-92087000D03*
%TO.P,U402,6,CB*%
%TO.N,/PSU/CBOOT_5V*%
X127541000Y-92087000D03*
%TD*%
D16*
%TO.P,R407,1*%
%TO.N,+5V*%
X127549926Y-90627553D03*
%TO.P,R407,2*%
%TO.N,/PSU/BUCK_FB_5V*%
X128569926Y-90627553D03*
%TD*%
D11*
%TO.P,R521,1*%
%TO.N,Net-(C510-Pad1)*%
X113264249Y-60620718D03*
%TO.P,R521,2*%
%TO.N,Net-(L501-Pad1)*%
X111439249Y-60620718D03*
%TD*%
%TO.P,R526,1*%
%TO.N,Net-(L502-Pad2)*%
X107546185Y-51818326D03*
%TO.P,R526,2*%
%TO.N,ISO_COMLN*%
X105721185Y-51818326D03*
%TD*%
D19*
%TO.P,D302,1,A1*%
%TO.N,GND*%
X134929595Y-33361530D03*
%TO.P,D302,2,A2*%
%TO.N,Net-(D302-A2)*%
X137029595Y-33361530D03*
%TD*%
D49*
%TO.P,R615,1*%
%TO.N,CAN2_TX*%
X156433509Y-73303377D03*
%TO.P,R615,2*%
%TO.N,Net-(U602-TXD)*%
X156433509Y-75128377D03*
%TD*%
D70*
%TO.P,D501,1,K*%
%TO.N,BQ_NFAULT*%
X131300000Y-76425000D03*
%TO.P,D501,2,A*%
%TO.N,Net-(D501-A)*%
X131300000Y-78000000D03*
%TD*%
D16*
%TO.P,R202,1*%
%TO.N,/MCU/BOOT0*%
X168406566Y-57089850D03*
%TO.P,R202,2*%
%TO.N,GND*%
X169426566Y-57089850D03*
%TD*%
%TO.P,R608,1*%
%TO.N,+3V3*%
X151607935Y-70856380D03*
%TO.P,R608,2*%
%TO.N,CAN2_RX*%
X152627935Y-70856380D03*
%TD*%
D41*
%TO.P,C409,1*%
%TO.N,Net-(D407-A2)*%
X193097606Y-97140500D03*
%TO.P,C409,2*%
%TO.N,GND*%
X194997606Y-97140500D03*
%TD*%
D34*
%TO.P,D304,1,A1*%
%TO.N,GND*%
X142226469Y-33319107D03*
%TO.P,D304,2,A2*%
%TO.N,Net-(D304-A2)*%
X140126469Y-33319107D03*
%TD*%
D15*
%TO.P,C422,1*%
%TO.N,+5V*%
X119141000Y-107574500D03*
%TO.P,C422,2*%
%TO.N,GND*%
X119141000Y-105674500D03*
%TD*%
D59*
%TO.P,D205,1,A1*%
%TO.N,GND*%
X170400000Y-51450000D03*
%TO.P,D205,2,A2*%
%TO.N,/MCU/CONN_SWCLK*%
X170400000Y-49350000D03*
%TD*%
D31*
%TO.P,C606,1*%
%TO.N,GND*%
X166820000Y-96650000D03*
%TO.P,C606,2*%
%TO.N,ISO_CAN1+*%
X167780000Y-96650000D03*
%TD*%
D71*
%TO.P,C403,1*%
%TO.N,VBUS*%
X178172606Y-104575000D03*
%TO.P,C403,2*%
%TO.N,GND*%
X178172606Y-101625000D03*
%TD*%
D36*
%TO.P,C604,1*%
%TO.N,Net-(C604-Pad1)*%
X154730604Y-95470000D03*
%TO.P,C604,2*%
%TO.N,GND*%
X154730604Y-96430000D03*
%TD*%
D20*
%TO.P,R705,1*%
%TO.N,DISCHARGE_EN_LV*%
X132482526Y-115361969D03*
%TO.P,R705,2*%
%TO.N,Net-(Q702-B)*%
X132482526Y-114341969D03*
%TD*%
D22*
%TO.P,R611,1*%
%TO.N,Net-(C604-Pad1)*%
X156225000Y-94450000D03*
%TO.P,R611,2*%
%TO.N,ISO_CAN2+*%
X159150000Y-94450000D03*
%TD*%
D38*
%TO.P,Q701,1,B*%
%TO.N,Net-(Q701-B)*%
X109147500Y-116635000D03*
%TO.P,Q701,2,E*%
%TO.N,GND*%
X109147500Y-118535000D03*
%TO.P,Q701,3,C*%
%TO.N,Net-(Q701-C)*%
X111022500Y-117585000D03*
%TD*%
D49*
%TO.P,R614,1*%
%TO.N,CAN1_RX*%
X163714000Y-73349000D03*
%TO.P,R614,2*%
%TO.N,Net-(U601-RXD)*%
X163714000Y-75174000D03*
%TD*%
D27*
%TO.P,R513,1*%
%TO.N,/BQ79600/COMLP*%
X132033361Y-48854860D03*
%TO.P,R513,2*%
%TO.N,Net-(D505-A1)*%
X129108361Y-48854860D03*
%TD*%
D18*
%TO.P,R205,1*%
%TO.N,/MCU/CONN_SWCLK*%
X168737473Y-49347683D03*
%TO.P,R205,2*%
%TO.N,/MCU/SWCLK*%
X168737473Y-50367683D03*
%TD*%
D72*
%TO.P,U201,1,VBAT*%
%TO.N,+3V3*%
X164926000Y-53158500D03*
%TO.P,U201,2,PC13*%
%TO.N,unconnected-(U201-PC13-Pad2)*%
X164426000Y-53158500D03*
%TO.P,U201,3,PC14*%
%TO.N,unconnected-(U201-PC14-Pad3)*%
X163926000Y-53158500D03*
%TO.P,U201,4,PC15*%
%TO.N,unconnected-(U201-PC15-Pad4)*%
X163426000Y-53158500D03*
%TO.P,U201,5,PH0*%
%TO.N,/MCU/HSE_IN*%
X162926000Y-53158500D03*
%TO.P,U201,6,PH1*%
%TO.N,/MCU/HSE_OUT*%
X162426000Y-53158500D03*
%TO.P,U201,7,NRST*%
%TO.N,/MCU/NRST*%
X161926000Y-53158500D03*
%TO.P,U201,8,PC0*%
%TO.N,unconnected-(U201-PC0-Pad8)*%
X161426000Y-53158500D03*
%TO.P,U201,9,PC1*%
%TO.N,ADC_IN*%
X160926000Y-53158500D03*
%TO.P,U201,10,PC2*%
%TO.N,/MCU/TEST_LED*%
X160426000Y-53158500D03*
%TO.P,U201,11,PC3*%
%TO.N,unconnected-(U201-PC3-Pad11)*%
X159926000Y-53158500D03*
%TO.P,U201,12,VSSA*%
%TO.N,GND*%
X159426000Y-53158500D03*
%TO.P,U201,13,VDDA*%
%TO.N,VDDA*%
X158926000Y-53158500D03*
%TO.P,U201,14,PA0*%
%TO.N,UART4_TX*%
X158426000Y-53158500D03*
%TO.P,U201,15,PA1*%
%TO.N,UART4_RX*%
X157926000Y-53158500D03*
%TO.P,U201,16,PA2*%
%TO.N,USART2_TX*%
X157426000Y-53158500D03*
D73*
%TO.P,U201,17,PA3*%
%TO.N,USART2_RX*%
X155501000Y-55083500D03*
%TO.P,U201,18,VSS*%
%TO.N,GND*%
X155501000Y-55583500D03*
%TO.P,U201,19,VDD*%
%TO.N,+3V3*%
X155501000Y-56083500D03*
%TO.P,U201,20,PA4*%
%TO.N,SPI1_NSS*%
X155501000Y-56583500D03*
%TO.P,U201,21,PA5*%
%TO.N,SPI_SCK*%
X155501000Y-57083500D03*
%TO.P,U201,22,PA6*%
%TO.N,SPI_MISO*%
X155501000Y-57583500D03*
%TO.P,U201,23,PA7*%
%TO.N,SPI_MOSI*%
X155501000Y-58083500D03*
%TO.P,U201,24,PC4*%
%TO.N,CHARGE_EN_LV*%
X155501000Y-58583500D03*
%TO.P,U201,25,PC5*%
%TO.N,DISCHARGE_EN_LV*%
X155501000Y-59083500D03*
%TO.P,U201,26,PB0*%
%TO.N,CHARGE_SAFE_LV*%
X155501000Y-59583500D03*
%TO.P,U201,27,PB1*%
%TO.N,CHARGE_PWR_LV_ISO*%
X155501000Y-60083500D03*
%TO.P,U201,28,PB2*%
%TO.N,READY_PWR_LV_ISO*%
X155501000Y-60583500D03*
%TO.P,U201,29,PB10*%
%TO.N,FAN_EN_LV*%
X155501000Y-61083500D03*
%TO.P,U201,30,PB11*%
%TO.N,BQ_NFAULT*%
X155501000Y-61583500D03*
%TO.P,U201,31,VCAP_1*%
%TO.N,Net-(U201-VCAP_1)*%
X155501000Y-62083500D03*
%TO.P,U201,32,VDD*%
%TO.N,+3V3*%
X155501000Y-62583500D03*
D72*
%TO.P,U201,33,PB12*%
%TO.N,CAN2_RX*%
X157426000Y-64508500D03*
%TO.P,U201,34,PB13*%
%TO.N,CAN2_TX*%
X157926000Y-64508500D03*
%TO.P,U201,35,PB14*%
%TO.N,BQ_SPI_RDY*%
X158426000Y-64508500D03*
%TO.P,U201,36,PB15*%
%TO.N,unconnected-(U201-PB15-Pad36)*%
X158926000Y-64508500D03*
%TO.P,U201,37,PC6*%
%TO.N,unconnected-(U201-PC6-Pad37)*%
X159426000Y-64508500D03*
%TO.P,U201,38,PC7*%
%TO.N,unconnected-(U201-PC7-Pad38)*%
X159926000Y-64508500D03*
%TO.P,U201,39,PC8*%
%TO.N,/MCU/SDIO_D0*%
X160426000Y-64508500D03*
%TO.P,U201,40,PC9*%
%TO.N,unconnected-(U201-PC9-Pad40)*%
X160926000Y-64508500D03*
%TO.P,U201,41,PA8*%
%TO.N,unconnected-(U201-PA8-Pad41)*%
X161426000Y-64508500D03*
%TO.P,U201,42,PA9*%
%TO.N,unconnected-(U201-PA9-Pad42)*%
X161926000Y-64508500D03*
%TO.P,U201,43,PA10*%
%TO.N,unconnected-(U201-PA10-Pad43)*%
X162426000Y-64508500D03*
%TO.P,U201,44,PA11*%
%TO.N,CAN1_RX*%
X162926000Y-64508500D03*
%TO.P,U201,45,PA12*%
%TO.N,CAN1_TX*%
X163426000Y-64508500D03*
%TO.P,U201,46,PA13*%
%TO.N,/MCU/SWDIO*%
X163926000Y-64508500D03*
%TO.P,U201,47,VCAP_2*%
%TO.N,Net-(U201-VCAP_2)*%
X164426000Y-64508500D03*
%TO.P,U201,48,VDD*%
%TO.N,+3V3*%
X164926000Y-64508500D03*
D73*
%TO.P,U201,49,PA14*%
%TO.N,/MCU/SWCLK*%
X166851000Y-62583500D03*
%TO.P,U201,50,PA15*%
%TO.N,/MCU/SDIO_DET*%
X166851000Y-62083500D03*
%TO.P,U201,51,PC10*%
%TO.N,unconnected-(U201-PC10-Pad51)*%
X166851000Y-61583500D03*
%TO.P,U201,52,PC11*%
%TO.N,unconnected-(U201-PC11-Pad52)*%
X166851000Y-61083500D03*
%TO.P,U201,53,PC12*%
%TO.N,/MCU/SDIO_CK*%
X166851000Y-60583500D03*
%TO.P,U201,54,PD2*%
%TO.N,/MCU/SDIO_CMD*%
X166851000Y-60083500D03*
%TO.P,U201,55,PB3*%
%TO.N,/MCU/SWO*%
X166851000Y-59583500D03*
%TO.P,U201,56,PB4*%
%TO.N,unconnected-(U201-PB4-Pad56)*%
X166851000Y-59083500D03*
%TO.P,U201,57,PB5*%
%TO.N,unconnected-(U201-PB5-Pad57)*%
X166851000Y-58583500D03*
%TO.P,U201,58,PB6*%
%TO.N,unconnected-(U201-PB6-Pad58)*%
X166851000Y-58083500D03*
%TO.P,U201,59,PB7*%
%TO.N,unconnected-(U201-PB7-Pad59)*%
X166851000Y-57583500D03*
%TO.P,U201,60,BOOT0*%
%TO.N,/MCU/BOOT0*%
X166851000Y-57083500D03*
%TO.P,U201,61,PB8*%
%TO.N,unconnected-(U201-PB8-Pad61)*%
X166851000Y-56583500D03*
%TO.P,U201,62,PB9*%
%TO.N,unconnected-(U201-PB9-Pad62)*%
X166851000Y-56083500D03*
%TO.P,U201,63,VSS*%
%TO.N,GND*%
X166851000Y-55583500D03*
%TO.P,U201,64,VDD*%
%TO.N,+3V3*%
X166851000Y-55083500D03*
%TD*%
D11*
%TO.P,R516,1*%
%TO.N,Net-(D502-A2)*%
X127300202Y-66024268D03*
%TO.P,R516,2*%
%TO.N,Net-(C509-Pad2)*%
X125475202Y-66024268D03*
%TD*%
D41*
%TO.P,C512,1*%
%TO.N,Net-(C512-Pad1)*%
X116818662Y-49500396D03*
%TO.P,C512,2*%
%TO.N,Net-(C512-Pad2)*%
X118718662Y-49500396D03*
%TD*%
D45*
%TO.P,D704,1,K*%
%TO.N,FAN_EN_HV*%
X131950000Y-134050000D03*
%TO.P,D704,2,A*%
%TO.N,GND*%
X131950000Y-130750000D03*
%TD*%
D36*
%TO.P,C301,1*%
%TO.N,ADC_IN*%
X159900000Y-30520000D03*
%TO.P,C301,2*%
%TO.N,GND*%
X159900000Y-31480000D03*
%TD*%
D11*
%TO.P,R517,1*%
%TO.N,Net-(D503-A1)*%
X127257336Y-61780495D03*
%TO.P,R517,2*%
%TO.N,Net-(C510-Pad2)*%
X125432336Y-61780495D03*
%TD*%
D36*
%TO.P,C616,1*%
%TO.N,+3V3*%
X151627419Y-86451525D03*
%TO.P,C616,2*%
%TO.N,GND*%
X151627419Y-87411525D03*
%TD*%
D41*
%TO.P,C511,1*%
%TO.N,Net-(C511-Pad1)*%
X116807318Y-51910872D03*
%TO.P,C511,2*%
%TO.N,Net-(C511-Pad2)*%
X118707318Y-51910872D03*
%TD*%
D49*
%TO.P,R613,1*%
%TO.N,CAN1_TX*%
X167464000Y-73349000D03*
%TO.P,R613,2*%
%TO.N,Net-(U601-TXD)*%
X167464000Y-75174000D03*
%TD*%
D74*
%TO.P,R211,1*%
%TO.N,+3V3*%
X187275000Y-74150000D03*
%TO.P,R211,2*%
%TO.N,+3.3VP*%
X193200000Y-74150000D03*
%TD*%
D75*
%TO.P,F302,1*%
%TO.N,+5V*%
X132000000Y-31437500D03*
%TO.P,F302,2*%
%TO.N,Net-(J302-Pin_4)*%
X132000000Y-29562500D03*
%TD*%
D18*
%TO.P,R708,1*%
%TO.N,VBUS*%
X137800000Y-114290000D03*
%TO.P,R708,2*%
%TO.N,Net-(Q702-C)*%
X137800000Y-115310000D03*
%TD*%
D13*
%TO.P,C605,1*%
%TO.N,GND*%
X168400000Y-72000000D03*
%TO.P,C605,2*%
%TO.N,CAN1_TX*%
X167440000Y-72000000D03*
%TD*%
D58*
%TO.P,R505,1*%
%TO.N,Net-(C502-Pad2)*%
X133827446Y-50171664D03*
%TO.P,R505,2*%
%TO.N,/BQ79600/COMLP*%
X135477446Y-50171664D03*
%TD*%
D76*
%TO.P,F402,1*%
%TO.N,CHARGE_PWR*%
X169390000Y-123512000D03*
%TO.P,F402,2*%
%TO.N,Net-(D404-A2)*%
X166590000Y-123512000D03*
%TD*%
D18*
%TO.P,R208,1*%
%TO.N,+3V3*%
X181589029Y-59117659D03*
%TO.P,R208,2*%
%TO.N,/MCU/SDIO_CMD*%
X181589029Y-60137659D03*
%TD*%
D19*
%TO.P,D505,1,A1*%
%TO.N,Net-(D505-A1)*%
X129100000Y-46645697D03*
%TO.P,D505,2,A2*%
%TO.N,GND*%
X131200000Y-46645697D03*
%TD*%
D15*
%TO.P,C414,1*%
%TO.N,Net-(D408-A2)*%
X132741000Y-93874500D03*
%TO.P,C414,2*%
%TO.N,GND*%
X132741000Y-91974500D03*
%TD*%
D34*
%TO.P,D305,1,A1*%
%TO.N,GND*%
X165550000Y-33300000D03*
%TO.P,D305,2,A2*%
%TO.N,Net-(D305-A2)*%
X163450000Y-33300000D03*
%TD*%
D35*
%TO.P,U602,1,TXD*%
%TO.N,Net-(U602-TXD)*%
X156555000Y-80914350D03*
%TO.P,U602,2,GND*%
%TO.N,GND*%
X155285000Y-80914350D03*
%TO.P,U602,3,VCC*%
%TO.N,+5V*%
X154015000Y-80914350D03*
%TO.P,U602,4,RXD*%
%TO.N,Net-(U602-RXD)*%
X152745000Y-80914350D03*
%TO.P,U602,5,VIO*%
%TO.N,+3V3*%
X152745000Y-86362650D03*
%TO.P,U602,6,CANL*%
%TO.N,/TCAN1462-Q1/CANL_2*%
X154015000Y-86362650D03*
%TO.P,U602,7,CANH*%
%TO.N,/TCAN1462-Q1/CANH_2*%
X155285000Y-86362650D03*
%TO.P,U602,8,STB*%
%TO.N,Net-(U602-STB)*%
X156555000Y-86362650D03*
%TD*%
D77*
%TO.P,IC501,1,DVDD*%
%TO.N,Net-(IC501-DVDD)*%
X149327183Y-60100000D03*
%TO.P,IC501,2,NFAULT*%
%TO.N,BQ_NFAULT*%
X149327183Y-59450000D03*
%TO.P,IC501,3,VIO*%
%TO.N,+3V3*%
X149327183Y-58800000D03*
%TO.P,IC501,4,MOSI/RX*%
%TO.N,SPI_MOSI*%
X149327183Y-58150000D03*
%TO.P,IC501,5,MISO/TX*%
%TO.N,SPI_MISO*%
X149327183Y-57500000D03*
%TO.P,IC501,6,SCLK*%
%TO.N,SPI_SCK*%
X149327183Y-56850000D03*
%TO.P,IC501,7,NCS*%
%TO.N,SPI1_NSS*%
X149327183Y-56200000D03*
%TO.P,IC501,8,NUART/SPI_(SPI_RDY)*%
%TO.N,BQ_SPI_RDY*%
X149327183Y-55550000D03*
%TO.P,IC501,9,GND*%
%TO.N,GND*%
X143451183Y-55550000D03*
%TO.P,IC501,10,COMLP*%
%TO.N,/BQ79600/COMLP*%
X143451183Y-56200000D03*
%TO.P,IC501,11,COMLN*%
%TO.N,/BQ79600/COMLN*%
X143451183Y-56850000D03*
%TO.P,IC501,12,COMHN*%
%TO.N,/BQ79600/COMHN*%
X143451183Y-57500000D03*
%TO.P,IC501,13,COMHP*%
%TO.N,/BQ79600/COMHP*%
X143451183Y-58150000D03*
%TO.P,IC501,14,CVDD*%
%TO.N,+5V*%
X143451183Y-58800000D03*
%TO.P,IC501,15,BAT*%
X143451183Y-59450000D03*
%TO.P,IC501,16,INH*%
X143451183Y-60100000D03*
%TD*%
D36*
%TO.P,C210,1*%
%TO.N,+3V3*%
X168479451Y-54868286D03*
%TO.P,C210,2*%
%TO.N,GND*%
X168479451Y-55828286D03*
%TD*%
D20*
%TO.P,R209,1*%
%TO.N,+3V3*%
X180000000Y-65557145D03*
%TO.P,R209,2*%
%TO.N,/MCU/SDIO_D0*%
X180000000Y-64537145D03*
%TD*%
D48*
%TO.P,R303,1*%
%TO.N,Net-(D304-A2)*%
X140117500Y-35600000D03*
%TO.P,R303,2*%
%TO.N,USART2_TX*%
X143042500Y-35600000D03*
%TD*%
D78*
%TO.P,D409,1,K*%
%TO.N,Net-(D409-K)*%
X175886606Y-96110000D03*
%TO.P,D409,2,A*%
%TO.N,+3V3*%
X175886606Y-94535000D03*
%TD*%
D36*
%TO.P,C613,1*%
%TO.N,+3V3*%
X161517357Y-86484568D03*
%TO.P,C613,2*%
%TO.N,GND*%
X161517357Y-87444568D03*
%TD*%
D79*
%TO.P,C407,1*%
%TO.N,Net-(D407-A2)*%
X191347606Y-107006500D03*
%TO.P,C407,2*%
%TO.N,GND*%
X196747606Y-107006500D03*
%TD*%
D14*
%TO.P,C506,1*%
%TO.N,/BQ79600/COMLP*%
X135507530Y-48903697D03*
%TO.P,C506,2*%
%TO.N,GND*%
X135507530Y-47943697D03*
%TD*%
D80*
%TO.P,J301,1,Pin_1*%
%TO.N,GND*%
X154700000Y-30400000D03*
D81*
%TO.P,J301,2,Pin_2*%
%TO.N,Net-(D303-A2)*%
X152160000Y-30400000D03*
%TO.P,J301,3,Pin_3*%
%TO.N,Net-(D301-A2)*%
X149620000Y-30400000D03*
%TO.P,J301,4,Pin_4*%
%TO.N,Net-(J301-Pin_4)*%
X147080000Y-30400000D03*
%TD*%
D18*
%TO.P,R707,1*%
%TO.N,VBUS*%
X112835000Y-116590000D03*
%TO.P,R707,2*%
%TO.N,Net-(Q701-C)*%
X112835000Y-117610000D03*
%TD*%
D82*
%TO.P,C408,1*%
%TO.N,Net-(D408-A2)*%
X142741000Y-95574500D03*
%TO.P,C408,2*%
%TO.N,GND*%
X142741000Y-90174500D03*
%TD*%
D41*
%TO.P,C413,1*%
%TO.N,Net-(D407-A2)*%
X193097606Y-99640500D03*
%TO.P,C413,2*%
%TO.N,GND*%
X194997606Y-99640500D03*
%TD*%
D24*
%TO.P,Q705,1,G*%
%TO.N,Net-(Q702-C)*%
X141025000Y-115285000D03*
D25*
%TO.P,Q705,2,D*%
%TO.N,DISCHARGE_EN_HV*%
X147750000Y-115050000D03*
X147750000Y-120600000D03*
D26*
X150175000Y-117825000D03*
D25*
X152600000Y-115050000D03*
X152600000Y-120600000D03*
D24*
%TO.P,Q705,3,S*%
%TO.N,GND*%
X141025000Y-120365000D03*
%TD*%
D20*
%TO.P,R212,1*%
%TO.N,+3V3*%
X181700000Y-67610000D03*
%TO.P,R212,2*%
%TO.N,/MCU/SDIO_DET*%
X181700000Y-66590000D03*
%TD*%
D41*
%TO.P,C509,1*%
%TO.N,Net-(C509-Pad1)*%
X117077118Y-64900000D03*
%TO.P,C509,2*%
%TO.N,Net-(C509-Pad2)*%
X118977118Y-64900000D03*
%TD*%
D14*
%TO.P,C503,1*%
%TO.N,GND*%
X135577118Y-67122220D03*
%TO.P,C503,2*%
%TO.N,/BQ79600/COMHP*%
X135577118Y-66162220D03*
%TD*%
D31*
%TO.P,C608,1*%
%TO.N,GND*%
X155870000Y-96700000D03*
%TO.P,C608,2*%
%TO.N,ISO_CAN2+*%
X156830000Y-96700000D03*
%TD*%
D20*
%TO.P,R710,1*%
%TO.N,GND*%
X112450000Y-140120000D03*
%TO.P,R710,2*%
%TO.N,FAN_EN_LV*%
X112450000Y-139100000D03*
%TD*%
D83*
%TO.P,F301,1*%
%TO.N,+5V*%
X142462500Y-27300000D03*
%TO.P,F301,2*%
%TO.N,Net-(J301-Pin_4)*%
X144337500Y-27300000D03*
%TD*%
D31*
%TO.P,C212,1*%
%TO.N,VDDA*%
X158656001Y-50389500D03*
%TO.P,C212,2*%
%TO.N,GND*%
X159616001Y-50389500D03*
%TD*%
%TO.P,C607,1*%
%TO.N,ISO_CAN1-*%
X163520000Y-96650000D03*
%TO.P,C607,2*%
%TO.N,GND*%
X164480000Y-96650000D03*
%TD*%
D38*
%TO.P,Q702,1,B*%
%TO.N,Net-(Q702-B)*%
X134251500Y-114335000D03*
%TO.P,Q702,2,E*%
%TO.N,GND*%
X134251500Y-116235000D03*
%TO.P,Q702,3,C*%
%TO.N,Net-(Q702-C)*%
X136126500Y-115285000D03*
%TD*%
D20*
%TO.P,R509,1*%
%TO.N,SPI_SCK*%
X151179976Y-56935300D03*
%TO.P,R509,2*%
%TO.N,GND*%
X151179976Y-55915300D03*
%TD*%
D36*
%TO.P,C205,1*%
%TO.N,/MCU/XTAL_IN*%
X162902613Y-44490954D03*
%TO.P,C205,2*%
%TO.N,GND*%
X162902613Y-45450954D03*
%TD*%
D71*
%TO.P,C704,1*%
%TO.N,FAN_EN_HV*%
X129250000Y-133875000D03*
%TO.P,C704,2*%
%TO.N,GND*%
X129250000Y-130925000D03*
%TD*%
D24*
%TO.P,Q708,1,G*%
%TO.N,Net-(Q707-C)*%
X121375000Y-138085000D03*
D25*
%TO.P,Q708,2,D*%
%TO.N,FAN_EN_HV*%
X128100000Y-137850000D03*
X128100000Y-143400000D03*
D26*
X130525000Y-140625000D03*
D25*
X132950000Y-137850000D03*
X132950000Y-143400000D03*
D24*
%TO.P,Q708,3,S*%
%TO.N,GND*%
X121375000Y-143165000D03*
%TD*%
D18*
%TO.P,R515,1*%
%TO.N,+3V3*%
X148800000Y-53390000D03*
%TO.P,R515,2*%
%TO.N,BQ_SPI_RDY*%
X148800000Y-54410000D03*
%TD*%
D23*
%TO.P,C619,1*%
%TO.N,+5V*%
X153786759Y-77053502D03*
%TO.P,C619,2*%
%TO.N,GND*%
X155336759Y-77053502D03*
%TD*%
D16*
%TO.P,R703,1*%
%TO.N,GND*%
X189405441Y-113826470D03*
%TO.P,R703,2*%
%TO.N,CHARGE_SAFE_LV*%
X190425441Y-113826470D03*
%TD*%
D54*
%TO.P,D402,1,K*%
%TO.N,READY_PWR_LV_ISO*%
X140800000Y-72950000D03*
%TO.P,D402,2,A*%
%TO.N,GND*%
X140800000Y-75050000D03*
%TD*%
D49*
%TO.P,R617,1*%
%TO.N,Net-(U601-STB)*%
X169400000Y-86887500D03*
%TO.P,R617,2*%
%TO.N,GND*%
X169400000Y-88712500D03*
%TD*%
D11*
%TO.P,R523,1*%
%TO.N,Net-(C512-Pad1)*%
X113133482Y-47631957D03*
%TO.P,R523,2*%
%TO.N,Net-(L502-Pad1)*%
X111308482Y-47631957D03*
%TD*%
D80*
%TO.P,J302,1,Pin_1*%
%TO.N,GND*%
X142660000Y-30400000D03*
D81*
%TO.P,J302,2,Pin_2*%
%TO.N,Net-(D304-A2)*%
X140120000Y-30400000D03*
%TO.P,J302,3,Pin_3*%
%TO.N,Net-(D302-A2)*%
X137580000Y-30400000D03*
%TO.P,J302,4,Pin_4*%
%TO.N,Net-(J302-Pin_4)*%
X135040000Y-30400000D03*
%TD*%
D31*
%TO.P,C208,1*%
%TO.N,+3V3*%
X165871613Y-64651080D03*
%TO.P,C208,2*%
%TO.N,GND*%
X166831613Y-64651080D03*
%TD*%
D84*
%TO.P,C513,1*%
%TO.N,+5V*%
X143400000Y-61550000D03*
%TO.P,C513,2*%
%TO.N,GND*%
X143400000Y-63100000D03*
%TD*%
D12*
%TO.P,R206,1*%
%TO.N,/MCU/CONN_SWDIO*%
X175720000Y-55400000D03*
%TO.P,R206,2*%
%TO.N,/MCU/SWDIO*%
X174700000Y-55400000D03*
%TD*%
D32*
%TO.P,R604,1*%
%TO.N,/TCAN1462-Q1/CANL_1*%
X164414000Y-88937500D03*
%TO.P,R604,2*%
%TO.N,ISO_CAN1-*%
X164414000Y-91862500D03*
%TD*%
D18*
%TO.P,R204,1*%
%TO.N,/MCU/CONN_NRST*%
X181278487Y-50108257D03*
%TO.P,R204,2*%
%TO.N,/MCU/NRST*%
X181278487Y-51128257D03*
%TD*%
D85*
%TO.P,F401,1*%
%TO.N,READY_PWR*%
X172686000Y-123512000D03*
%TO.P,F401,2*%
%TO.N,Net-(D403-A2)*%
X175486000Y-123512000D03*
%TD*%
D54*
%TO.P,D206,1,A1*%
%TO.N,GND*%
X181792662Y-46895494D03*
%TO.P,D206,2,A2*%
%TO.N,/MCU/CONN_NRST*%
X181792662Y-48995494D03*
%TD*%
D36*
%TO.P,C618,1*%
%TO.N,+3V3*%
X150641141Y-86448131D03*
%TO.P,C618,2*%
%TO.N,GND*%
X150641141Y-87408131D03*
%TD*%
D23*
%TO.P,C209,1*%
%TO.N,Net-(U201-VCAP_2)*%
X164750000Y-66500000D03*
%TO.P,C209,2*%
%TO.N,GND*%
X166300000Y-66500000D03*
%TD*%
D18*
%TO.P,R402,1*%
%TO.N,Net-(D403-A2)*%
X177284000Y-123010000D03*
%TO.P,R402,2*%
%TO.N,READY_PWR_LV_ISO*%
X177284000Y-124030000D03*
%TD*%
D14*
%TO.P,C213,1*%
%TO.N,/MCU/NRST*%
X182326706Y-51112279D03*
%TO.P,C213,2*%
%TO.N,GND*%
X182326706Y-50152279D03*
%TD*%
D18*
%TO.P,R712,1*%
%TO.N,VBUS*%
X117849000Y-137090000D03*
%TO.P,R712,2*%
%TO.N,Net-(Q707-C)*%
X117849000Y-138110000D03*
%TD*%
D11*
%TO.P,R518,1*%
%TO.N,Net-(D504-A2)*%
X127289601Y-52992327D03*
%TO.P,R518,2*%
%TO.N,Net-(C511-Pad2)*%
X125464601Y-52992327D03*
%TD*%
D36*
%TO.P,C611,1*%
%TO.N,+3V3*%
X162621178Y-86484568D03*
%TO.P,C611,2*%
%TO.N,GND*%
X162621178Y-87444568D03*
%TD*%
D80*
%TO.P,J306,1,Pin_1*%
%TO.N,GND*%
X167275000Y-30400000D03*
D81*
%TO.P,J306,2,Pin_2*%
%TO.N,Net-(D305-A2)*%
X164735000Y-30400000D03*
%TD*%
D12*
%TO.P,R404,1*%
%TO.N,CHARGE_PWR_LV_ISO*%
X163900000Y-123004000D03*
%TO.P,R404,2*%
%TO.N,GND*%
X162880000Y-123004000D03*
%TD*%
D44*
%TO.P,D702,1,K*%
%TO.N,DISCHARGE_EN_HV*%
X155950000Y-117600000D03*
%TO.P,D702,2,A*%
%TO.N,GND*%
X159250000Y-117600000D03*
%TD*%
D18*
%TO.P,R506,1*%
%TO.N,+3V3*%
X145400000Y-51390000D03*
%TO.P,R506,2*%
%TO.N,BQ_NFAULT*%
X145400000Y-52410000D03*
%TD*%
D55*
%TO.P,J304,1,1*%
%TO.N,ISO_COMHP*%
X98255217Y-63354222D03*
D56*
%TO.P,J304,2,2*%
%TO.N,ISO_COMHN*%
X101255216Y-63354222D03*
%TD*%
D11*
%TO.P,R524,1*%
%TO.N,Net-(L501-Pad2)*%
X107689618Y-65061469D03*
%TO.P,R524,2*%
%TO.N,ISO_COMHP*%
X105864618Y-65061469D03*
%TD*%
D86*
%TO.P,Q706,1,G*%
%TO.N,Net-(Q703-C)*%
X191440000Y-123350000D03*
D87*
%TO.P,Q706,2,D*%
%TO.N,CHARGE_SAFE_HV*%
X191675000Y-130075000D03*
X186125000Y-130075000D03*
D88*
X188900000Y-132500000D03*
D87*
X191675000Y-134925000D03*
X186125000Y-134925000D03*
D86*
%TO.P,Q706,3,S*%
%TO.N,GND*%
X186360000Y-123350000D03*
%TD*%
D31*
%TO.P,C401,1*%
%TO.N,READY_PWR_LV_ISO*%
X178404000Y-122920000D03*
%TO.P,C401,2*%
%TO.N,GND*%
X179364000Y-122920000D03*
%TD*%
D89*
%TO.N,GND*%
X186900000Y-99700000D03*
X135200000Y-100200000D03*
X127800000Y-88750000D03*
X125300000Y-88750000D03*
X122800000Y-88750000D03*
X120300000Y-88750000D03*
X117800000Y-88750000D03*
X100300000Y-95000000D03*
X100300000Y-92500000D03*
X100300000Y-90000000D03*
X97800000Y-82500000D03*
X95300000Y-85000000D03*
X95300000Y-87500000D03*
X97800000Y-80000000D03*
X100300000Y-80000000D03*
X107841341Y-77526095D03*
X110450922Y-77526095D03*
X105304851Y-77536491D03*
X112804851Y-77536491D03*
X97804851Y-77536491D03*
X100304851Y-77536491D03*
X115852754Y-77526095D03*
X102804851Y-77536491D03*
X117804851Y-77536491D03*
%TO.N,+3V3*%
X154800000Y-49300000D03*
D90*
X181200000Y-65557145D03*
D89*
X173900000Y-59000000D03*
D90*
X160050000Y-72500000D03*
X159800000Y-86500000D03*
X183200000Y-57500000D03*
D89*
X147300000Y-50100000D03*
X143050000Y-81500000D03*
X150900000Y-64200000D03*
X152827460Y-59691940D03*
X173400000Y-65600000D03*
X152900000Y-56370000D03*
D90*
X168800000Y-65700000D03*
X161330330Y-84530330D03*
D89*
%TO.N,GND*%
X146480000Y-33400000D03*
X170300000Y-82500000D03*
X109100000Y-119700000D03*
X107800000Y-127500000D03*
X187800000Y-35000000D03*
D90*
X123750000Y-131400000D03*
X105400000Y-43900000D03*
D89*
X95300000Y-125000000D03*
D90*
X145691000Y-87624500D03*
D89*
X160300000Y-47500000D03*
D90*
X185951606Y-86908500D03*
X93389438Y-70900968D03*
X115319784Y-123983604D03*
X143033124Y-121751932D03*
D89*
X177800000Y-27500000D03*
X172800000Y-85000000D03*
X95300000Y-77500000D03*
X162800000Y-142500000D03*
X143400000Y-54700000D03*
X110300000Y-105000000D03*
X157800000Y-45000000D03*
X202800000Y-77500000D03*
X190850000Y-70425000D03*
X160300000Y-140000000D03*
X162154189Y-85003364D03*
X117800000Y-132500000D03*
X112800000Y-127500000D03*
X160075000Y-28400000D03*
D90*
X122387951Y-144418350D03*
D89*
X117800000Y-92500000D03*
X202760856Y-104981646D03*
X170300000Y-40000000D03*
D90*
X129400000Y-44900000D03*
D89*
X197800000Y-45000000D03*
D90*
X142033124Y-122751932D03*
X197984606Y-97100500D03*
X115389438Y-69900968D03*
X138400000Y-54150000D03*
X182400000Y-86900000D03*
D89*
X175300000Y-70000000D03*
X200300000Y-115000000D03*
X187800000Y-57500000D03*
X137800000Y-102500000D03*
X160300000Y-115000000D03*
X147800000Y-145000000D03*
X202800000Y-92500000D03*
X172800000Y-27500000D03*
X162800000Y-137500000D03*
X195300000Y-115000000D03*
X110300000Y-112500000D03*
X182800000Y-40000000D03*
X180300000Y-32500000D03*
X195300000Y-57500000D03*
D90*
X95400000Y-57150000D03*
X140685000Y-88482500D03*
X184051062Y-124368540D03*
D89*
X177800000Y-30000000D03*
X105300000Y-132500000D03*
X140300000Y-45000000D03*
X127800000Y-30000000D03*
X172800000Y-140000000D03*
D90*
X124491000Y-94724500D03*
D89*
X202800000Y-117500000D03*
X95300000Y-92500000D03*
X187800000Y-47500000D03*
X102800000Y-127500000D03*
X100300000Y-37500000D03*
D90*
X121387951Y-144418350D03*
D89*
X189300000Y-66400000D03*
X180300000Y-101800000D03*
X202800000Y-75000000D03*
X202800000Y-115000000D03*
X187800000Y-30000000D03*
X180300000Y-27500000D03*
X95300000Y-115000000D03*
X190300000Y-97500000D03*
X187800000Y-55000000D03*
D90*
X185051062Y-122368540D03*
D89*
X167800000Y-37500000D03*
X120300000Y-30000000D03*
D90*
X182400000Y-82900000D03*
D89*
X115300000Y-130000000D03*
X155937000Y-78350000D03*
X158000000Y-33500000D03*
X167800000Y-140000000D03*
X200300000Y-40000000D03*
D90*
X141691000Y-87624500D03*
D89*
X151250213Y-54882825D03*
X127800000Y-77500000D03*
X112450000Y-141000000D03*
D90*
X117400000Y-44900000D03*
D89*
X177400000Y-67800000D03*
X190300000Y-27500000D03*
X127800000Y-32500000D03*
D90*
X135150000Y-69900000D03*
D89*
X158000000Y-35100000D03*
D90*
X116691000Y-99124500D03*
X123400000Y-44900000D03*
D89*
X147800000Y-102500000D03*
D90*
X187951606Y-84908500D03*
D89*
X190300000Y-62500000D03*
X187800000Y-32500000D03*
X190300000Y-40000000D03*
D90*
X105389438Y-70900968D03*
D89*
X172800000Y-37500000D03*
X157300000Y-38500000D03*
D90*
X125400000Y-57150000D03*
X135097000Y-89117500D03*
D89*
X150300000Y-77500000D03*
X187800000Y-50000000D03*
X115847903Y-74989604D03*
X95300000Y-37500000D03*
X190300000Y-50000000D03*
D90*
X121389438Y-69900968D03*
D89*
X187800000Y-70000000D03*
X187800000Y-27500000D03*
X202800000Y-80000000D03*
X160300000Y-100000000D03*
X162800000Y-115000000D03*
D90*
X114319784Y-123983604D03*
D89*
X97800000Y-37500000D03*
X97800000Y-90000000D03*
X166250000Y-43150000D03*
D90*
X141900000Y-59900000D03*
D89*
X132800000Y-127500000D03*
X152043582Y-55930023D03*
X115300000Y-135000000D03*
D90*
X116319784Y-124983604D03*
X97400000Y-57150000D03*
D89*
X100300000Y-32500000D03*
X127800000Y-27500000D03*
X175300000Y-30000000D03*
X97800000Y-75000000D03*
D90*
X136150000Y-45900000D03*
D89*
X200300000Y-80000000D03*
X175300000Y-145000000D03*
X150300000Y-142500000D03*
D90*
X138150000Y-50650000D03*
D89*
X161714000Y-88311500D03*
X131200000Y-114500000D03*
X112800000Y-75000000D03*
X167505000Y-66522500D03*
X112800000Y-132500000D03*
D90*
X118691000Y-103124500D03*
X198619606Y-105228500D03*
D89*
X140300000Y-145000000D03*
X202800000Y-72500000D03*
D90*
X137150000Y-64650000D03*
D89*
X143396178Y-64247858D03*
D90*
X141033124Y-121751932D03*
D89*
X146209605Y-61478818D03*
D90*
X119400000Y-57150000D03*
D89*
X177800000Y-40000000D03*
X130550000Y-63950000D03*
X150703500Y-84305600D03*
D90*
X123387951Y-145418350D03*
X137400000Y-57150000D03*
D89*
X135300000Y-40000000D03*
X157300000Y-41500000D03*
D90*
X141150000Y-60650000D03*
X111400000Y-57150000D03*
X120387951Y-145418350D03*
X99389438Y-70900968D03*
X198746606Y-98370500D03*
X199975000Y-134075000D03*
X142033124Y-121751932D03*
X117319784Y-123983604D03*
D89*
X137800000Y-105000000D03*
X185300000Y-102500000D03*
X175300000Y-142500000D03*
X202800000Y-70000000D03*
X166750000Y-51500000D03*
X197800000Y-112500000D03*
X197800000Y-57500000D03*
X145300000Y-145000000D03*
X169362192Y-89872198D03*
D90*
X122700000Y-104600000D03*
D89*
X170300000Y-37500000D03*
X112800000Y-145000000D03*
X100300000Y-75000000D03*
X160500000Y-50450000D03*
D90*
X137891000Y-90514500D03*
D89*
X180300000Y-97500000D03*
X155300000Y-135000000D03*
X197800000Y-117500000D03*
X200300000Y-42500000D03*
X102800000Y-32500000D03*
X105300000Y-40000000D03*
D90*
X189951606Y-84908500D03*
X115400000Y-44900000D03*
D89*
X150300000Y-40000000D03*
X152800000Y-140000000D03*
X195300000Y-122500000D03*
D90*
X184051062Y-123368540D03*
D89*
X130300000Y-40000000D03*
X156200000Y-64500000D03*
D90*
X191951606Y-82908500D03*
D89*
X172800000Y-30000000D03*
X127800000Y-75000000D03*
D90*
X127400000Y-57150000D03*
D89*
X117800000Y-75000000D03*
X185300000Y-27500000D03*
X185287800Y-69913013D03*
X107800000Y-30000000D03*
D90*
X199975000Y-132775000D03*
D89*
X197800000Y-125000000D03*
D90*
X133400000Y-69900000D03*
X121400000Y-57150000D03*
D89*
X195300000Y-112500000D03*
X167200000Y-50350000D03*
X152800000Y-42500000D03*
D90*
X136494000Y-89879500D03*
D89*
X175300000Y-59000000D03*
X177300000Y-57000000D03*
X202800000Y-82500000D03*
D90*
X117400000Y-57150000D03*
D89*
X110300000Y-145000000D03*
X105300000Y-140000000D03*
X190300000Y-32500000D03*
D90*
X109400000Y-57150000D03*
D89*
X190300000Y-30000000D03*
X147747916Y-140036491D03*
D90*
X160600000Y-119000000D03*
D89*
X112800000Y-135000000D03*
X187800000Y-37500000D03*
X182800000Y-70000000D03*
X107800000Y-145000000D03*
X170300000Y-102500000D03*
D90*
X125150000Y-131400000D03*
D89*
X95300000Y-95000000D03*
D90*
X139400000Y-55150000D03*
D89*
X95300000Y-97500000D03*
D90*
X103400000Y-43900000D03*
X191951606Y-80908500D03*
D89*
X167800000Y-35000000D03*
X95300000Y-130000000D03*
D90*
X139400000Y-59150000D03*
X139150000Y-62650000D03*
X139691000Y-87624500D03*
D89*
X190300000Y-102500000D03*
X112800000Y-130000000D03*
X107800000Y-142500000D03*
D90*
X182400000Y-80900000D03*
D89*
X195300000Y-45000000D03*
X172800000Y-87500000D03*
X157800000Y-115000000D03*
X135475000Y-54868326D03*
D90*
X97389438Y-70900968D03*
D89*
X131900000Y-27600000D03*
X155823261Y-99326378D03*
X110300000Y-142500000D03*
X190300000Y-45000000D03*
X102800000Y-147500000D03*
X140221928Y-142473904D03*
D90*
X141150000Y-53650000D03*
D89*
X129828667Y-34524833D03*
X95300000Y-40000000D03*
X174589303Y-34342642D03*
X165300000Y-97400000D03*
D90*
X137150000Y-46900000D03*
X140150000Y-61650000D03*
D89*
X197800000Y-42500000D03*
X170300000Y-140000000D03*
X142300000Y-73800000D03*
X200316795Y-124987198D03*
X157800000Y-135000000D03*
X95300000Y-105000000D03*
X192800000Y-47500000D03*
X182800000Y-97500000D03*
X162800000Y-120000000D03*
X187800000Y-65000000D03*
X150300000Y-145000000D03*
X159000001Y-85668630D03*
X167800000Y-40000000D03*
D90*
X138150000Y-63650000D03*
D89*
X158300000Y-71900000D03*
D90*
X136494000Y-88355500D03*
D89*
X165300000Y-140000000D03*
D90*
X135097000Y-90514500D03*
D89*
X195300000Y-55000000D03*
X157800000Y-102500000D03*
X195300000Y-50000000D03*
X172800000Y-72500000D03*
X160300000Y-42500000D03*
D90*
X137400000Y-61150000D03*
D89*
X180300000Y-117500000D03*
X110305197Y-122423409D03*
D90*
X160600000Y-117600000D03*
D89*
X198100000Y-71300000D03*
X175300000Y-61000000D03*
D90*
X199508606Y-97100500D03*
D89*
X132800000Y-107500000D03*
X182800000Y-35000000D03*
X135300000Y-105000000D03*
D90*
X135150000Y-44900000D03*
D89*
X102800000Y-30000000D03*
X170300000Y-145000000D03*
X135300000Y-120000000D03*
X132200000Y-59500000D03*
D90*
X95389438Y-70900968D03*
D89*
X137800000Y-130000000D03*
X152700000Y-58801008D03*
D90*
X177400000Y-121100000D03*
X197222606Y-101037500D03*
X125400000Y-69900000D03*
D89*
X105300000Y-137500000D03*
X100300000Y-40000000D03*
X172800000Y-80000000D03*
X195300000Y-40000000D03*
X158250053Y-89895318D03*
X202800000Y-125000000D03*
D90*
X116691000Y-95124500D03*
D89*
X122800000Y-32500000D03*
D90*
X182400000Y-84900000D03*
X116319784Y-123983604D03*
D89*
X202800000Y-90000000D03*
D90*
X131400000Y-69900000D03*
X135097000Y-87593500D03*
D89*
X172800000Y-142500000D03*
D90*
X117319784Y-124983604D03*
D89*
X114150000Y-140300000D03*
X157800000Y-142500000D03*
X177800000Y-145000000D03*
X166100000Y-97400000D03*
X150800000Y-71900000D03*
X107800000Y-140000000D03*
X160300000Y-137500000D03*
X95300000Y-90000000D03*
D90*
X103389438Y-70900968D03*
X144749000Y-88482500D03*
X109389438Y-69900968D03*
X118691000Y-99124500D03*
D89*
X189375000Y-115575000D03*
D90*
X131150000Y-91500000D03*
X120691000Y-103124500D03*
D89*
X117800000Y-27500000D03*
X185300000Y-32500000D03*
X158000000Y-31700000D03*
D90*
X187951606Y-86908500D03*
D89*
X195300000Y-42500000D03*
X102747808Y-89963509D03*
D90*
X137150000Y-49650000D03*
D89*
X117800000Y-130000000D03*
X95300000Y-132500000D03*
X200300000Y-90000000D03*
X105300000Y-32500000D03*
X125300000Y-37500000D03*
X165300000Y-137500000D03*
X140900000Y-70000000D03*
D90*
X142150000Y-54650000D03*
X131500000Y-90650000D03*
D89*
X105300000Y-30000000D03*
X130750000Y-50950000D03*
X165450000Y-55600000D03*
X100300000Y-145000000D03*
X187800000Y-97500000D03*
X132800000Y-102500000D03*
X150537000Y-88250000D03*
X143380000Y-33300000D03*
D90*
X184051062Y-125368540D03*
D89*
X95300000Y-137500000D03*
D90*
X135400000Y-57150000D03*
D89*
X155300000Y-145000000D03*
D90*
X139033124Y-121751932D03*
D89*
X95300000Y-82500000D03*
X165300000Y-37500000D03*
X202800000Y-122500000D03*
D90*
X187951606Y-80908500D03*
D89*
X165300000Y-142500000D03*
D90*
X113389438Y-69900968D03*
D89*
X195300000Y-60000000D03*
X158000000Y-29600000D03*
D90*
X197222606Y-98370500D03*
D89*
X115300000Y-132500000D03*
X152800000Y-137500000D03*
X157800000Y-112500000D03*
X177800000Y-97600000D03*
X195300000Y-37500000D03*
D90*
X196587606Y-102434500D03*
D89*
X158300000Y-48000000D03*
X167800000Y-137500000D03*
X190300000Y-65000000D03*
X199600000Y-66400000D03*
X177800000Y-70000000D03*
X200300000Y-85000000D03*
X140300000Y-47500000D03*
D90*
X180350000Y-123000000D03*
D89*
X186300000Y-56400000D03*
D90*
X123400000Y-57150000D03*
D89*
X200300000Y-45000000D03*
X170400000Y-52500000D03*
X125300000Y-32500000D03*
D90*
X118319784Y-123983604D03*
D89*
X105300000Y-142500000D03*
D90*
X140400000Y-56150000D03*
D89*
X115300000Y-127500000D03*
X107800000Y-135000000D03*
X102800000Y-75000000D03*
D90*
X111400000Y-44900000D03*
D89*
X134802483Y-27465205D03*
X202800000Y-47500000D03*
D90*
X115400000Y-57150000D03*
D89*
X149673034Y-84300000D03*
X182800000Y-37500000D03*
X162564000Y-88311500D03*
X200300000Y-77500000D03*
X95300000Y-110000000D03*
X92779209Y-77468706D03*
X145300000Y-140000000D03*
X165300000Y-27500000D03*
X180300000Y-37500000D03*
X180500000Y-53900000D03*
X177300000Y-61000000D03*
D90*
X113400000Y-57150000D03*
D89*
X200300000Y-50000000D03*
X185300000Y-42500000D03*
X155300000Y-47500000D03*
X147800000Y-135000000D03*
X111200000Y-139000000D03*
X122800000Y-37500000D03*
D90*
X187951606Y-82908500D03*
D89*
X162141047Y-55932881D03*
X97800000Y-97500000D03*
X135500000Y-47050000D03*
X102800000Y-40000000D03*
X197800000Y-47500000D03*
X133600000Y-109300000D03*
X135300000Y-130000000D03*
D90*
X119400000Y-44900000D03*
D89*
X202800000Y-102500000D03*
D90*
X199508606Y-99640500D03*
D89*
X195300000Y-62500000D03*
X161800000Y-72000000D03*
X110300000Y-100000000D03*
D90*
X118700000Y-104600000D03*
X131800000Y-129500000D03*
X109139438Y-44649032D03*
X185951606Y-80908500D03*
X120691000Y-95124500D03*
D89*
X192800000Y-42500000D03*
X132800000Y-120000000D03*
D90*
X191951606Y-84908500D03*
X120387951Y-144418350D03*
D89*
X202800000Y-45000000D03*
X137800000Y-127500000D03*
D90*
X160600000Y-120300000D03*
D89*
X102800000Y-140000000D03*
D90*
X184051062Y-122368540D03*
D89*
X120300000Y-27500000D03*
X182800000Y-102500000D03*
X132450000Y-118300000D03*
X192800000Y-60000000D03*
X95300000Y-107500000D03*
D90*
X120691000Y-101124500D03*
X137400000Y-53150001D03*
X118691000Y-97124500D03*
X127400000Y-44900000D03*
X118691000Y-95124500D03*
D89*
X200300000Y-87500000D03*
X187800000Y-45000000D03*
X147800000Y-142500000D03*
X160300000Y-112500000D03*
X132800000Y-122500000D03*
X97800000Y-92500000D03*
X165300000Y-135000000D03*
X154623495Y-48417475D03*
X135300000Y-132500000D03*
X155300000Y-137500000D03*
D90*
X122691000Y-101124500D03*
D89*
X169370000Y-72048621D03*
X195300000Y-65000000D03*
D90*
X103400000Y-57150000D03*
D89*
X191350000Y-69875000D03*
X202800000Y-120000000D03*
X183200000Y-56500000D03*
D90*
X183951606Y-86908500D03*
X121400000Y-44900000D03*
D89*
X142800000Y-145000000D03*
X115300000Y-145000000D03*
X185300000Y-30000000D03*
X162800000Y-102500000D03*
X155100000Y-97400000D03*
D90*
X120700000Y-104600000D03*
D89*
X157800000Y-140000000D03*
X152800000Y-27500000D03*
X160300000Y-92500000D03*
X120545149Y-74963509D03*
X106100000Y-116299997D03*
X133780000Y-33400000D03*
X202800000Y-112500000D03*
X182800000Y-117500000D03*
X155298411Y-27476803D03*
X102800000Y-137500000D03*
X150300000Y-140000000D03*
X185300000Y-72500000D03*
X127800000Y-37500000D03*
X200300000Y-122500000D03*
X160300000Y-35000000D03*
X182210773Y-65677743D03*
D90*
X122691000Y-95124500D03*
D89*
X175300000Y-75000000D03*
X187800000Y-60000000D03*
X167800000Y-42500000D03*
X102800000Y-132500000D03*
D90*
X131400000Y-57150000D03*
D89*
X137800000Y-100000000D03*
X130300000Y-127500000D03*
D90*
X122691000Y-97124500D03*
D89*
X192800000Y-45000000D03*
D90*
X197984606Y-99640500D03*
X183951606Y-82908500D03*
D89*
X92800000Y-75000000D03*
X157800000Y-132500000D03*
D90*
X123387951Y-144418350D03*
D89*
X155937000Y-79300000D03*
X110300000Y-102500000D03*
X143690138Y-80867365D03*
X102800000Y-125000000D03*
X95300000Y-120000000D03*
D90*
X137891000Y-87593500D03*
D89*
X197800000Y-65000000D03*
X156950000Y-55600000D03*
D90*
X117389438Y-69900968D03*
D89*
X167800000Y-145000000D03*
X140242610Y-37468706D03*
D90*
X93400000Y-57150000D03*
D89*
X105300000Y-37500000D03*
X160300000Y-135000000D03*
D90*
X183951606Y-84908500D03*
D89*
X95300000Y-135000000D03*
X176700000Y-43200000D03*
X199800000Y-55400000D03*
D90*
X191951606Y-86908500D03*
X132557000Y-89117500D03*
D89*
X202800000Y-42500000D03*
X157800000Y-97500000D03*
D90*
X185051062Y-125368540D03*
D89*
X140300000Y-132500000D03*
X172600000Y-53900000D03*
D90*
X121387951Y-145418350D03*
X101400000Y-57150000D03*
D89*
X185300000Y-47500000D03*
X172800000Y-77500000D03*
X167744415Y-102511598D03*
X197800000Y-40000000D03*
X202800000Y-40000000D03*
D90*
X196500000Y-95600000D03*
X132557000Y-90514500D03*
D89*
X160300000Y-102500000D03*
X185451377Y-97494802D03*
D90*
X119387951Y-145418350D03*
D89*
X162800000Y-135000000D03*
X125300000Y-30000000D03*
D90*
X133827000Y-89879500D03*
D89*
X182800000Y-100000000D03*
D90*
X95400000Y-43900000D03*
D89*
X155300000Y-142500000D03*
X95300000Y-112500000D03*
X157300000Y-40000000D03*
X132800000Y-100000000D03*
D90*
X118691000Y-101124500D03*
D89*
X170300000Y-63047900D03*
X102800000Y-130000000D03*
X162800000Y-145000000D03*
X162800000Y-100000000D03*
X136300000Y-107400000D03*
D90*
X107650000Y-70650000D03*
X120691000Y-97124500D03*
D89*
X188475000Y-113775000D03*
X170300000Y-142500000D03*
X125300000Y-77500000D03*
D90*
X189951606Y-80908500D03*
D89*
X187800000Y-115000000D03*
X160300000Y-45000000D03*
X165300000Y-40000000D03*
X164667638Y-61776884D03*
D90*
X185051062Y-124368540D03*
D89*
X197800000Y-55000000D03*
X163450000Y-46050000D03*
X102800000Y-27500000D03*
X153597752Y-99347355D03*
X200300000Y-120000000D03*
X200300000Y-75000000D03*
X150970505Y-62569745D03*
X167800000Y-135000000D03*
X192800000Y-30000000D03*
X159800000Y-57883500D03*
X95300000Y-75000000D03*
X170300000Y-85000000D03*
X105300000Y-75000000D03*
X160300000Y-90000000D03*
X202800000Y-95000000D03*
D90*
X101400000Y-43900000D03*
D89*
X110446071Y-74989604D03*
X135585496Y-60015442D03*
X160500000Y-51350000D03*
D90*
X107400000Y-43900000D03*
D89*
X182800000Y-30000000D03*
X155300000Y-45000000D03*
X162800000Y-97500000D03*
X195300000Y-120000000D03*
X147800000Y-62600000D03*
D90*
X119387951Y-144418350D03*
D89*
X117800000Y-120000000D03*
X179800000Y-101000000D03*
D90*
X122450000Y-131400000D03*
D89*
X170300000Y-137500000D03*
D90*
X114319784Y-124983604D03*
X120691000Y-99124500D03*
D89*
X175300000Y-72500000D03*
X172800000Y-40000000D03*
X192800000Y-40000000D03*
X152800000Y-45000000D03*
X150300000Y-27500000D03*
X107800000Y-137500000D03*
X157800000Y-100000000D03*
X167800000Y-142500000D03*
X115300000Y-142500000D03*
D90*
X140033124Y-122751932D03*
D89*
X162747916Y-140036491D03*
D90*
X139033124Y-122751932D03*
D89*
X200300000Y-47500000D03*
D90*
X118319784Y-124983604D03*
D89*
X202800000Y-100000000D03*
X180200768Y-67348843D03*
X166964000Y-78211500D03*
X200300000Y-117500000D03*
X172800000Y-100000000D03*
X162800000Y-27500000D03*
D90*
X136200000Y-68900000D03*
D89*
X155480000Y-33400000D03*
X160300000Y-27500000D03*
X202800000Y-110000000D03*
X95300000Y-117500000D03*
X147800000Y-100000000D03*
X187800000Y-62500000D03*
D90*
X116691000Y-103124500D03*
D89*
X170300000Y-75000000D03*
X160300000Y-142500000D03*
X125300000Y-40000000D03*
X159919975Y-32355025D03*
X171300000Y-61000000D03*
X176300000Y-46000000D03*
X167800000Y-27500000D03*
D90*
X137150000Y-67900000D03*
D89*
X162800000Y-90000000D03*
X182800000Y-72500000D03*
X158296210Y-60683495D03*
X140300000Y-127500000D03*
X117800000Y-30000000D03*
D90*
X105400000Y-57150000D03*
D89*
X110300000Y-97500000D03*
D90*
X192751606Y-90308500D03*
D89*
X147800000Y-137500000D03*
X162800000Y-117500000D03*
D90*
X184051062Y-121368540D03*
X192351606Y-88708500D03*
D89*
X135182568Y-102437305D03*
X92800000Y-140000000D03*
X105174718Y-89937413D03*
D90*
X122691000Y-99124500D03*
X164600000Y-121100000D03*
D89*
X182800000Y-42500000D03*
X127800000Y-40000000D03*
X122800000Y-92500000D03*
X180300000Y-72500000D03*
D90*
X139400000Y-57150000D03*
D89*
X132800000Y-40000000D03*
X163982886Y-67384997D03*
X170300000Y-77500000D03*
X181800000Y-45800000D03*
X150300000Y-75000000D03*
D90*
X197984606Y-102434500D03*
D89*
X172232920Y-63389216D03*
X197800000Y-37500000D03*
X192800000Y-35000000D03*
D90*
X143033124Y-122751932D03*
D89*
X159800000Y-87450003D03*
X177800000Y-37500000D03*
X180300000Y-40000000D03*
X145605368Y-84526003D03*
D90*
X137150000Y-48300000D03*
D89*
X125300000Y-27500000D03*
X102800000Y-135000000D03*
X115300000Y-120000000D03*
X175300000Y-40000000D03*
X112800000Y-142500000D03*
D90*
X116700000Y-104600000D03*
D89*
X150300000Y-135000000D03*
X200300000Y-37500000D03*
X200300000Y-112500000D03*
X142800000Y-142500000D03*
D90*
X199477606Y-110234500D03*
D89*
X160300000Y-145000000D03*
X190300000Y-42500000D03*
X140300000Y-27500000D03*
X132300000Y-55250000D03*
D90*
X180350000Y-123850000D03*
D89*
X160300000Y-40000000D03*
X175300000Y-37500000D03*
X107836490Y-74989604D03*
X150300000Y-137500000D03*
X197800000Y-120000000D03*
D90*
X185051062Y-121368540D03*
X161950000Y-123150000D03*
D89*
X166900000Y-99300000D03*
D90*
X139150000Y-51650000D03*
X119389438Y-69900968D03*
D89*
X185300000Y-50000000D03*
X110300000Y-95000000D03*
X167750000Y-64650000D03*
X122800000Y-40000000D03*
X164500000Y-99300000D03*
X186300000Y-63500000D03*
X182800000Y-27500000D03*
X155300000Y-140000000D03*
X150300000Y-102482602D03*
X140300000Y-50000000D03*
X150300000Y-42500000D03*
X152800000Y-142500000D03*
D90*
X137150000Y-66300000D03*
D89*
X195300000Y-117500000D03*
X155300000Y-102500000D03*
X95300000Y-80000000D03*
X132200000Y-46650000D03*
D90*
X99400000Y-57150000D03*
D89*
X197800000Y-50000000D03*
D90*
X195600000Y-95450000D03*
D89*
X152800000Y-135000000D03*
X202800000Y-87500000D03*
X95300000Y-127500000D03*
X192800000Y-37500000D03*
X176300000Y-69000000D03*
X137100000Y-106900000D03*
X120300000Y-40000000D03*
X168300000Y-33000000D03*
D90*
X199477606Y-104234500D03*
D89*
X162800000Y-35000000D03*
X158300000Y-27500000D03*
D90*
X107410562Y-57149032D03*
X185951606Y-84908500D03*
D89*
X120300000Y-32500000D03*
X95299999Y-122473687D03*
X192800000Y-50000000D03*
X197800000Y-60000000D03*
D90*
X123400000Y-69900000D03*
D89*
X100300000Y-147500000D03*
D90*
X129400000Y-57150000D03*
D89*
X152800000Y-145000000D03*
D90*
X126091000Y-94324500D03*
D89*
X197800000Y-122500000D03*
X162800000Y-40000000D03*
X187800000Y-117500000D03*
D90*
X140150000Y-52650000D03*
X93389438Y-43899032D03*
D89*
X102800000Y-37500000D03*
X132250000Y-68300000D03*
D90*
X133400000Y-44900000D03*
D89*
X134250000Y-117500000D03*
X135300000Y-122500000D03*
X107500000Y-120665000D03*
D90*
X189951606Y-86908500D03*
D89*
X120346994Y-92484299D03*
D90*
X97400000Y-43900000D03*
X122387951Y-145418350D03*
X185051062Y-123368540D03*
D89*
X165300000Y-145000000D03*
X160300000Y-132500000D03*
X195300000Y-125000000D03*
X105300000Y-130000000D03*
X142800000Y-37500000D03*
D90*
X138400000Y-60150000D03*
X113400000Y-44900000D03*
D89*
X160500000Y-49500000D03*
X120300000Y-37500000D03*
X175375989Y-102511598D03*
X185300000Y-37500000D03*
X185300000Y-115000000D03*
X142800000Y-47500000D03*
X174300000Y-68000000D03*
X183300000Y-50200000D03*
X185300000Y-40000000D03*
X152800000Y-37500000D03*
D90*
X138907000Y-88482500D03*
D89*
X170050000Y-68500000D03*
X146495013Y-49697507D03*
X187800000Y-102500000D03*
X107763509Y-129947916D03*
D90*
X133827000Y-88355500D03*
D89*
X172743212Y-102488401D03*
X117800000Y-127500000D03*
X102800000Y-122500000D03*
X144692224Y-83000000D03*
X135585496Y-68065442D03*
X186400000Y-64500000D03*
X202800000Y-50000000D03*
X95300000Y-102500000D03*
D90*
X185951606Y-82908500D03*
D89*
X177300000Y-59000000D03*
X202800000Y-85000000D03*
D90*
X143691000Y-87624500D03*
X132557000Y-87593500D03*
D89*
X130771333Y-34524833D03*
X177800000Y-35000000D03*
X191400000Y-112700000D03*
X182800000Y-32500000D03*
D90*
X129100000Y-129500000D03*
D89*
X172800000Y-82500000D03*
D90*
X196587606Y-97100500D03*
D89*
X180300000Y-35000000D03*
X102800000Y-92500000D03*
X122800000Y-30000000D03*
X197800000Y-62500000D03*
X165300000Y-42500000D03*
D90*
X199477606Y-106234500D03*
D89*
X190300000Y-35000000D03*
X168952192Y-52187041D03*
D90*
X199508606Y-102434500D03*
X115319784Y-124983604D03*
D89*
X107800000Y-110000000D03*
X197800000Y-115000000D03*
D90*
X111389438Y-69900968D03*
X133400000Y-57150000D03*
D89*
X107800000Y-112500000D03*
X190300000Y-57500000D03*
X137800000Y-42500000D03*
X142800000Y-50000000D03*
X160300000Y-97500000D03*
X157800000Y-145000000D03*
X135300000Y-127500000D03*
X180300000Y-30000000D03*
X192800000Y-27500000D03*
X165500000Y-34700000D03*
D90*
X131400000Y-44900000D03*
D89*
X202800000Y-107500000D03*
X173900000Y-56300000D03*
D90*
X140400000Y-58150000D03*
D89*
X181600000Y-53000000D03*
X166964000Y-79111500D03*
X150300000Y-90000000D03*
X105300000Y-127500000D03*
X145300000Y-142500000D03*
X162800000Y-42500000D03*
X185300000Y-100000000D03*
D90*
X129400000Y-69900000D03*
D89*
X172800000Y-75000000D03*
X177800000Y-32500000D03*
D90*
X101389438Y-70900968D03*
X196587606Y-99640500D03*
D89*
X177800000Y-142500000D03*
D90*
X198619606Y-109292500D03*
D89*
X187800000Y-40000000D03*
X105300000Y-135000000D03*
X151487000Y-88250000D03*
X110300000Y-27500000D03*
X142800000Y-40000000D03*
X202800000Y-97500000D03*
X192826203Y-57494910D03*
X107800000Y-132500000D03*
X195300000Y-47500000D03*
X137800000Y-27500000D03*
X175300000Y-57000000D03*
X159736398Y-56036398D03*
X157800000Y-43000000D03*
X157800000Y-137500000D03*
D90*
X122691000Y-103124500D03*
X116691000Y-97124500D03*
D89*
X187800000Y-42500000D03*
D90*
X183951606Y-80908500D03*
D89*
X97800000Y-40000000D03*
X107800000Y-27500000D03*
X92800000Y-80000000D03*
X105300000Y-125000000D03*
X175300000Y-27500000D03*
X190300000Y-37500000D03*
X185300000Y-35000000D03*
X170300000Y-135000000D03*
X185300000Y-45000000D03*
X192800000Y-32500000D03*
X170350000Y-57100000D03*
X140810050Y-76110050D03*
X177305171Y-63265502D03*
D90*
X141033124Y-122751932D03*
D89*
X179800000Y-57000000D03*
D90*
X130500000Y-129500000D03*
D89*
X117800000Y-135000000D03*
X157800000Y-130000000D03*
D90*
X199975000Y-131375000D03*
D89*
X195500000Y-66400000D03*
X152800000Y-40000000D03*
X154300000Y-97400000D03*
X153226951Y-52800000D03*
X140263602Y-65163602D03*
D90*
X161950000Y-124000000D03*
D89*
X122800000Y-27500000D03*
X190300000Y-60000000D03*
X175325756Y-63265502D03*
X140300000Y-40000000D03*
D90*
X137891000Y-89117500D03*
X99400000Y-43900000D03*
X127400000Y-69900000D03*
D89*
X200300000Y-82500000D03*
D90*
X199477606Y-108234500D03*
D89*
X97800000Y-95000000D03*
X132800000Y-105000000D03*
D90*
X198746606Y-101037500D03*
D89*
X200300000Y-92500000D03*
X192800000Y-55000000D03*
D90*
X189951606Y-82908500D03*
D89*
X190300000Y-47500000D03*
D90*
X198619606Y-103450500D03*
D89*
X190300000Y-55000000D03*
D90*
X116691000Y-101124500D03*
D89*
X142800000Y-42500000D03*
X115300000Y-27500000D03*
D90*
X125400000Y-44900000D03*
D89*
X105300000Y-27500000D03*
X172800000Y-145000000D03*
X202800000Y-37500000D03*
D90*
X140033124Y-121751932D03*
D89*
%TO.N,DISCHARGE_EN_LV*%
X131200000Y-115400000D03*
X159326551Y-59283499D03*
%TO.N,CHARGE_SAFE_LV*%
X158300000Y-59783500D03*
X190500000Y-112700000D03*
%TO.N,/MCU/SWO*%
X168600000Y-59100000D03*
X171600000Y-43300000D03*
%TO.N,/MCU/SWCLK*%
X165227084Y-62481884D03*
X168800000Y-51300000D03*
%TO.N,ISO_CAN1+*%
X166127000Y-98650000D03*
%TO.N,/MCU/TEST_LED*%
X161900000Y-56800000D03*
X169400000Y-37600000D03*
%TO.N,ISO_CAN1-*%
X165173000Y-98650000D03*
%TO.N,ISO_CAN2+*%
X155177000Y-98700000D03*
%TO.N,ISO_CAN2-*%
X154223000Y-98700000D03*
%TO.N,/MCU/SWDIO*%
X163500000Y-66600000D03*
X173800000Y-55400000D03*
%TO.N,/MCU/NRST*%
X172352750Y-53034626D03*
X181300000Y-52100000D03*
%TO.N,CHARGE_EN_LV*%
X106100000Y-117200000D03*
X160500000Y-58583500D03*
%TO.N,SPI1_NSS*%
X157252704Y-56447570D03*
X148700000Y-52400000D03*
%TO.N,CHARGE_PWR_LV_ISO*%
X151516500Y-60883500D03*
X140900000Y-65800000D03*
D90*
%TO.N,+5V*%
X130300000Y-33700000D03*
X150200000Y-83500000D03*
X100800000Y-106200000D03*
X145500000Y-83500000D03*
D89*
%TO.N,READY_PWR_LV_ISO*%
X157000000Y-60583500D03*
X142300000Y-72900000D03*
%TO.N,BQ_NFAULT*%
X144550000Y-64250000D03*
X145925000Y-60625000D03*
D90*
%TO.N,BQ_SPI_RDY*%
X154000000Y-53500000D03*
X150500000Y-54300000D03*
D89*
%TO.N,/MCU/SDIO_DET*%
X180700000Y-66600000D03*
X169300000Y-63300000D03*
%TO.N,FAN_EN_LV*%
X154216360Y-60883501D03*
X111200000Y-138100000D03*
%TO.N,ADC_IN*%
X161800000Y-55100000D03*
X159475000Y-29100000D03*
%TO.N,UART4_TX*%
X156500000Y-43900000D03*
X159100000Y-55400000D03*
%TD*%
D91*
%TO.N,GND*%
X188150000Y-99700000D02*
X186900000Y-99700000D01*
X135241000Y-100159000D02*
X135200000Y-100200000D01*
X135241000Y-98900000D02*
X135241000Y-100159000D01*
%TO.N,+3V3*%
X152800000Y-66200000D02*
X152800000Y-66100000D01*
X152800000Y-66100000D02*
X150900000Y-64200000D01*
X169250000Y-65700000D02*
X168800000Y-65700000D01*
X171550000Y-68000000D02*
X169250000Y-65700000D01*
X172586109Y-68000000D02*
X171550000Y-68000000D01*
X172586109Y-68000000D02*
X172586109Y-66413891D01*
X172586109Y-70886109D02*
X172586109Y-68000000D01*
X148300000Y-82200000D02*
X148300000Y-70900000D01*
X148300000Y-82200000D02*
X148300000Y-86400000D01*
X177600000Y-76900000D02*
X179381606Y-78681606D01*
X177600000Y-75100000D02*
X177600000Y-76900000D01*
%TO.N,+5V*%
X140912500Y-25750000D02*
X142462500Y-27300000D01*
X131650000Y-25750000D02*
X140912500Y-25750000D01*
X129900000Y-30550000D02*
X129900000Y-27500000D01*
X132050000Y-31437500D02*
X130787500Y-31437500D01*
X130787500Y-31437500D02*
X129900000Y-30550000D01*
X132050000Y-32500000D02*
X132050000Y-31437500D01*
X130850000Y-33700000D02*
X132050000Y-32500000D01*
X129900000Y-27500000D02*
X131650000Y-25750000D01*
X130300000Y-33700000D02*
X130850000Y-33700000D01*
%TO.N,+3V3*%
X177316855Y-53900000D02*
X178100000Y-53900000D01*
X181700000Y-75000000D02*
X181800000Y-75100000D01*
X152900000Y-56370000D02*
X152970000Y-56300000D01*
X181606688Y-59093312D02*
X181606688Y-59100000D01*
D92*
X152827460Y-59691940D02*
X153608060Y-59691940D01*
D91*
X166150000Y-65450000D02*
X165871613Y-65171613D01*
X148300000Y-70900000D02*
X148300000Y-69000000D01*
X168800000Y-65700000D02*
X168550000Y-65450000D01*
D92*
X179823606Y-77511042D02*
X179823606Y-78239606D01*
D91*
X152800000Y-66200000D02*
X152850000Y-66150000D01*
X152800000Y-66200000D02*
X154300000Y-64700000D01*
X179100000Y-68489723D02*
X180110277Y-69500000D01*
D92*
X167616500Y-55083500D02*
X167831714Y-54868286D01*
X196540612Y-80111042D02*
X196540612Y-79511042D01*
X196540612Y-79511042D02*
X194540612Y-77511042D01*
D91*
X179100000Y-66457145D02*
X179100000Y-68489723D01*
D92*
X164926000Y-51578897D02*
X164926000Y-53158500D01*
X176900000Y-49400000D02*
X177267550Y-49767550D01*
D91*
X152745000Y-86362650D02*
X151716294Y-86362650D01*
D92*
X164926000Y-64508500D02*
X165308500Y-64508500D01*
D91*
X181200000Y-65557145D02*
X180000000Y-65557145D01*
D92*
X153608060Y-59691940D02*
X153900000Y-59400000D01*
D91*
X168500000Y-101500000D02*
X173000000Y-97000000D01*
X164628784Y-49771216D02*
X164628784Y-50200000D01*
X159000000Y-46066625D02*
X159000000Y-39800000D01*
X151000000Y-68000000D02*
X152800000Y-66200000D01*
X147600000Y-51390000D02*
X147600000Y-50400000D01*
X139800000Y-81250000D02*
X135510900Y-76960900D01*
X172586109Y-70886109D02*
X176786109Y-70886109D01*
X161501925Y-86500000D02*
X161517357Y-86484568D01*
X181700000Y-67610000D02*
X181700000Y-69500000D01*
X160000000Y-38800000D02*
X168100000Y-38800000D01*
D92*
X151704596Y-86362650D02*
X151594178Y-86473068D01*
D91*
X172586109Y-66413891D02*
X173400000Y-65600000D01*
D92*
X152656125Y-86451525D02*
X152745000Y-86362650D01*
D91*
X148800000Y-53390000D02*
X149810000Y-53390000D01*
D92*
X166851000Y-55083500D02*
X167616500Y-55083500D01*
X164920603Y-51500000D02*
X164926000Y-51505397D01*
D91*
X169768286Y-54868286D02*
X173900000Y-59000000D01*
X183089029Y-57389029D02*
X183200000Y-57500000D01*
X149300000Y-68000000D02*
X151000000Y-68000000D01*
X169200000Y-47400000D02*
X167600000Y-49000000D01*
X160869670Y-84530330D02*
X159800000Y-85600000D01*
X168479451Y-54868286D02*
X169768286Y-54868286D01*
X148300000Y-70900000D02*
X148343620Y-70856380D01*
D92*
X149327183Y-58800000D02*
X150862264Y-58800000D01*
D91*
X168100000Y-38800000D02*
X169200000Y-39900000D01*
X160050000Y-72500000D02*
X160050000Y-71100000D01*
X159800000Y-86500000D02*
X161501925Y-86500000D01*
X176786109Y-70886109D02*
X177600000Y-71700000D01*
X160700000Y-70850000D02*
X159705329Y-70850000D01*
X173000000Y-88800000D02*
X175915500Y-85884500D01*
X169200000Y-39900000D02*
X169200000Y-47400000D01*
X161544671Y-70855329D02*
X161550000Y-70850000D01*
X160700000Y-70850000D02*
X161550000Y-70850000D01*
X154300000Y-63800000D02*
X154578492Y-63521508D01*
X187275000Y-74150000D02*
X184450000Y-74150000D01*
D92*
X155501000Y-62583500D02*
X155501000Y-63370866D01*
D91*
X147600000Y-50400000D02*
X147300000Y-50100000D01*
X180110277Y-69500000D02*
X181700000Y-69500000D01*
X154300000Y-64700000D02*
X154300000Y-63800000D01*
X148343620Y-70856380D02*
X151607935Y-70856380D01*
X149190000Y-51390000D02*
X145400000Y-51390000D01*
X151716294Y-86362650D02*
X151627419Y-86451525D01*
X142800000Y-81250000D02*
X139800000Y-81250000D01*
D92*
X165308500Y-64508500D02*
X165451080Y-64651080D01*
D91*
X153888564Y-56300000D02*
X153898564Y-56310000D01*
D92*
X165451080Y-64651080D02*
X165871613Y-64651080D01*
D91*
X148300000Y-86400000D02*
X148300000Y-97100000D01*
D92*
X153900000Y-59400000D02*
X153900000Y-59310000D01*
D91*
X152900000Y-56370000D02*
X152900000Y-55100000D01*
X160050000Y-71100000D02*
X159800000Y-70850000D01*
X161550000Y-70850000D02*
X162690000Y-70850000D01*
D92*
X177267550Y-49767550D02*
X177267550Y-53850695D01*
D91*
X168550000Y-65450000D02*
X166150000Y-65450000D01*
X168443713Y-70886109D02*
X172586109Y-70886109D01*
X152700000Y-101500000D02*
X168500000Y-101500000D01*
X181800000Y-75100000D02*
X179000000Y-75100000D01*
X177600000Y-71700000D02*
X177600000Y-75100000D01*
X148300000Y-97100000D02*
X152700000Y-101500000D01*
X152900000Y-55100000D02*
X150500000Y-52700000D01*
X150500000Y-52700000D02*
X149190000Y-51390000D01*
X178100000Y-53900000D02*
X181589029Y-57389029D01*
X161330330Y-84530330D02*
X160869670Y-84530330D01*
D92*
X150862264Y-58800000D02*
X150863272Y-58801008D01*
D91*
X159700000Y-70855329D02*
X161544671Y-70855329D01*
X154800000Y-49300000D02*
X156200000Y-49300000D01*
X156200000Y-48866625D02*
X159000000Y-46066625D01*
X156200000Y-49300000D02*
X157579865Y-49300000D01*
D92*
X154125064Y-56083500D02*
X153898564Y-56310000D01*
D91*
X184450000Y-74150000D02*
X183500000Y-75100000D01*
X181700000Y-69500000D02*
X181700000Y-75000000D01*
D92*
X179823606Y-78239606D02*
X179381606Y-78681606D01*
X194540612Y-77511042D02*
X179823606Y-77511042D01*
D91*
X163795000Y-86374150D02*
X162731596Y-86374150D01*
X180000000Y-65557145D02*
X179100000Y-66457145D01*
X167600000Y-49000000D02*
X165400000Y-49000000D01*
X165871613Y-65171613D02*
X165871613Y-64651080D01*
X173000000Y-97000000D02*
X173000000Y-88800000D01*
D92*
X167831714Y-54868286D02*
X168479451Y-54868286D01*
D91*
X157446187Y-70855329D02*
X159700000Y-70855329D01*
D92*
X177267550Y-53850695D02*
X177316855Y-53900000D01*
X196537559Y-91569968D02*
X196537559Y-80114095D01*
D91*
X159705329Y-70850000D02*
X159700000Y-70855329D01*
X149810000Y-53390000D02*
X150500000Y-52700000D01*
X181606688Y-59100000D02*
X181589029Y-59117659D01*
X162731596Y-86374150D02*
X162621178Y-86484568D01*
X159800000Y-85600000D02*
X159800000Y-86500000D01*
X159000000Y-39800000D02*
X160000000Y-38800000D01*
D92*
X150863272Y-59263272D02*
X150863272Y-58801008D01*
D91*
X143050000Y-81500000D02*
X142800000Y-81250000D01*
X175915500Y-85884500D02*
X179381606Y-85884500D01*
X157579865Y-49300000D02*
X157620728Y-49340863D01*
X165400000Y-49000000D02*
X164628784Y-49771216D01*
X179381606Y-78681606D02*
X179381606Y-80884500D01*
X135510900Y-76960900D02*
X132700400Y-76960900D01*
X148348131Y-86448131D02*
X148300000Y-86400000D01*
D92*
X152827460Y-59691940D02*
X151291940Y-59691940D01*
D91*
X181589029Y-57389029D02*
X181589029Y-59117659D01*
X150641141Y-86448131D02*
X148348131Y-86448131D01*
X179000000Y-75100000D02*
X177600000Y-75100000D01*
D92*
X151291940Y-59691940D02*
X150863272Y-59263272D01*
D91*
X183500000Y-75100000D02*
X181800000Y-75100000D01*
X152970000Y-56300000D02*
X153888564Y-56300000D01*
X156200000Y-49300000D02*
X156200000Y-48866625D01*
D92*
X155501000Y-56083500D02*
X154125064Y-56083500D01*
D91*
X148300000Y-69000000D02*
X149300000Y-68000000D01*
X181589029Y-57389029D02*
X183089029Y-57389029D01*
D92*
X155501000Y-63370866D02*
X155350358Y-63521508D01*
D91*
X154578492Y-63521508D02*
X155350358Y-63521508D01*
D92*
%TO.N,/MCU/CONN_SWO*%
X174357550Y-45957550D02*
X174361833Y-45957550D01*
X174000000Y-44500000D02*
X174000000Y-45600000D01*
X173492517Y-41588807D02*
X173492517Y-43192517D01*
X174000000Y-45600000D02*
X174357550Y-45957550D01*
X173500000Y-43200000D02*
X173500000Y-44000000D01*
X175262450Y-46860000D02*
X175630000Y-46860000D01*
X173492517Y-43192517D02*
X173500000Y-43200000D01*
X173500000Y-44000000D02*
X174000000Y-44500000D01*
X174361833Y-45957550D02*
X175262450Y-46858167D01*
X175262450Y-46858167D02*
X175262450Y-46860000D01*
%TO.N,/MCU/CONN_SWDIO*%
X175630000Y-49400000D02*
X175419700Y-49610300D01*
X175419700Y-49610300D02*
X175419700Y-53569700D01*
X175419700Y-53569700D02*
X175750000Y-53900000D01*
X175720000Y-55400000D02*
X175720000Y-53930000D01*
X175720000Y-53930000D02*
X175750000Y-53900000D01*
%TO.N,/MCU/CONN_SWCLK*%
X170400000Y-49350000D02*
X170717550Y-49032450D01*
X170717550Y-49032450D02*
X174727550Y-49032450D01*
X168737473Y-49347683D02*
X170397683Y-49347683D01*
X174727550Y-49032450D02*
X175630000Y-48130000D01*
X170397683Y-49347683D02*
X170400000Y-49350000D01*
%TO.N,/MCU/CONN_NRST*%
X181792662Y-49594082D02*
X181792662Y-48995494D01*
X176900000Y-48130000D02*
X177870000Y-49100000D01*
X180270230Y-49100000D02*
X181278487Y-50108257D01*
X181278487Y-50108257D02*
X181792662Y-49594082D01*
X177870000Y-49100000D02*
X180270230Y-49100000D01*
%TO.N,/MCU/SDIO_CMD*%
X184910497Y-60083500D02*
X166500000Y-60083500D01*
X184974142Y-60147145D02*
X184910497Y-60083500D01*
%TO.N,/MCU/SDIO_D0*%
X181947145Y-64547145D02*
X184974142Y-64547145D01*
X168613346Y-64523396D02*
X179486642Y-64523396D01*
X181660393Y-64523396D02*
X181674142Y-64537145D01*
X167473450Y-63383500D02*
X168613346Y-64523396D01*
X160426000Y-64508500D02*
X160426000Y-63630380D01*
X160672880Y-63383500D02*
X167473450Y-63383500D01*
X181937145Y-64537145D02*
X181947145Y-64547145D01*
X179486642Y-64523396D02*
X181660393Y-64523396D01*
X181674142Y-64537145D02*
X181937145Y-64537145D01*
X160426000Y-63630380D02*
X160672880Y-63383500D01*
%TO.N,/MCU/SDIO_CK_L*%
X184974142Y-62347145D02*
X181636256Y-62347145D01*
X181636256Y-62347145D02*
X181635501Y-62347900D01*
%TO.N,Net-(D502-A2)*%
X129113614Y-68297057D02*
X129113614Y-66047873D01*
X127320934Y-66045000D02*
X127300202Y-66024268D01*
X129113614Y-66047873D02*
X129110741Y-66045000D01*
X129110741Y-66045000D02*
X127320934Y-66045000D01*
D91*
%TO.N,+3.3VP*%
X193154142Y-63654142D02*
X193154142Y-69847145D01*
X193175000Y-71247145D02*
X194947145Y-71247145D01*
X190747145Y-61247145D02*
X193154142Y-63654142D01*
X194947145Y-71247145D02*
X194950000Y-71250000D01*
X184974142Y-61247145D02*
X190747145Y-61247145D01*
D92*
%TO.N,Net-(D301-A2)*%
X149620000Y-30400000D02*
X149620000Y-35677500D01*
X149620000Y-35677500D02*
X149642500Y-35700000D01*
D91*
%TO.N,GND*%
X195474142Y-67547145D02*
X195474142Y-66425858D01*
D92*
X181792662Y-46895494D02*
X181792662Y-45807338D01*
D91*
X156200000Y-64500000D02*
X155368850Y-64500000D01*
D92*
X159919975Y-32355025D02*
X159900000Y-32335050D01*
X150809970Y-71909970D02*
X150800000Y-71900000D01*
D93*
X132450000Y-117410000D02*
X132450000Y-118300000D01*
D91*
X170339850Y-57089850D02*
X170350000Y-57100000D01*
X158300000Y-88712500D02*
X158300000Y-89845371D01*
D92*
X143400000Y-55498817D02*
X143451183Y-55550000D01*
X165575000Y-33300000D02*
X167275000Y-31600000D01*
X140800000Y-75050000D02*
X140800000Y-76100000D01*
D91*
X199624142Y-66424142D02*
X199600000Y-66400000D01*
D92*
X151663769Y-71909970D02*
X150809970Y-71909970D01*
X109147500Y-118535000D02*
X109147500Y-119652500D01*
X179826381Y-58050000D02*
X179826381Y-57026381D01*
X182326706Y-50152279D02*
X183252279Y-50152279D01*
D94*
X166350000Y-121100000D02*
X164600000Y-121100000D01*
D91*
X135577118Y-68057064D02*
X135585496Y-68065442D01*
D92*
X177400000Y-66750000D02*
X177400000Y-67800000D01*
D94*
X175650000Y-121100000D02*
X177400000Y-121100000D01*
D92*
X181792662Y-45807338D02*
X181800000Y-45800000D01*
X131200000Y-59500000D02*
X132200000Y-59500000D01*
D91*
X164083500Y-46683500D02*
X163450000Y-46050000D01*
X143400000Y-63100000D02*
X143400000Y-64244036D01*
X169400000Y-88712500D02*
X169400000Y-89834390D01*
X166831613Y-64651080D02*
X167748920Y-64651080D01*
X147800000Y-62600000D02*
X147779674Y-62579674D01*
D92*
X167973906Y-55828286D02*
X168479451Y-55828286D01*
X147570000Y-33400000D02*
X146480000Y-33400000D01*
X198050000Y-71250000D02*
X198100000Y-71300000D01*
X132247057Y-68297057D02*
X132250000Y-68300000D01*
D91*
X135577118Y-60962220D02*
X135577118Y-60023820D01*
D92*
X159617444Y-52088936D02*
X159617444Y-51485605D01*
D91*
X169426566Y-57089850D02*
X170339850Y-57089850D01*
D92*
X166851000Y-55583500D02*
X167729120Y-55583500D01*
D91*
X169400000Y-89834390D02*
X169362192Y-89872198D01*
D92*
X161837212Y-71962788D02*
X161800000Y-72000000D01*
D91*
X155368850Y-64500000D02*
X155350358Y-64481508D01*
X135577118Y-67122220D02*
X135577118Y-68057064D01*
D92*
X156933500Y-55583500D02*
X156950000Y-55600000D01*
X131213614Y-68297057D02*
X132247057Y-68297057D01*
D93*
X134251500Y-117498500D02*
X134250000Y-117500000D01*
D92*
X114117500Y-140267500D02*
X114150000Y-140300000D01*
X167729120Y-55583500D02*
X167973906Y-55828286D01*
X151994975Y-58814975D02*
X151980000Y-58800000D01*
X152700000Y-58801008D02*
X151823272Y-58801008D01*
D91*
X166300000Y-66500000D02*
X167482500Y-66500000D01*
D92*
X132195697Y-46645697D02*
X132200000Y-46650000D01*
D91*
X195474142Y-66425858D02*
X195500000Y-66400000D01*
D92*
X169321379Y-72000000D02*
X169370000Y-72048621D01*
X155501000Y-55583500D02*
X154099974Y-55583500D01*
D91*
X166335000Y-79503819D02*
X166081181Y-79250000D01*
D92*
X135507530Y-47943697D02*
X135507530Y-47057530D01*
X130763697Y-50963697D02*
X130750000Y-50950000D01*
X190575000Y-115597000D02*
X189397000Y-115597000D01*
D91*
X164526000Y-46683500D02*
X164083500Y-46683500D01*
X200074142Y-55125858D02*
X199800000Y-55400000D01*
D92*
X157385180Y-71914575D02*
X158285425Y-71914575D01*
X162720000Y-71962788D02*
X161837212Y-71962788D01*
D91*
X155285000Y-80914350D02*
X155285000Y-79554888D01*
X150999064Y-62541186D02*
X150970505Y-62569745D01*
D92*
X173650000Y-53900000D02*
X172600000Y-53900000D01*
X155501000Y-55583500D02*
X156933500Y-55583500D01*
D91*
X143400000Y-64244036D02*
X143396178Y-64247858D01*
D92*
X131651940Y-50963697D02*
X130763697Y-50963697D01*
D91*
X166335000Y-80925850D02*
X166335000Y-79503819D01*
X152013582Y-55900023D02*
X152043582Y-55930023D01*
D92*
X189397000Y-115597000D02*
X189375000Y-115575000D01*
X165550000Y-34650000D02*
X165500000Y-34700000D01*
X133818470Y-33361530D02*
X133780000Y-33400000D01*
D91*
X189274142Y-66425858D02*
X189300000Y-66400000D01*
D92*
X131200000Y-46645697D02*
X132195697Y-46645697D01*
D91*
X167482500Y-66500000D02*
X167505000Y-66522500D01*
D92*
X109147500Y-119652500D02*
X109100000Y-119700000D01*
X143360893Y-33319107D02*
X143380000Y-33300000D01*
X130557780Y-63942220D02*
X130550000Y-63950000D01*
X170400000Y-51450000D02*
X170400000Y-52500000D01*
X166851000Y-55583500D02*
X165466500Y-55583500D01*
X158285425Y-71914575D02*
X158300000Y-71900000D01*
X112450000Y-140120000D02*
X112450000Y-141000000D01*
D91*
X200074142Y-54047145D02*
X200074142Y-55125858D01*
D92*
X107500000Y-119710000D02*
X107500000Y-120665000D01*
D91*
X151119582Y-55900023D02*
X152013582Y-55900023D01*
D92*
X175600000Y-43200000D02*
X176700000Y-43200000D01*
X168400000Y-72000000D02*
X169321379Y-72000000D01*
X135495847Y-54847479D02*
X135475000Y-54868326D01*
X183252279Y-50152279D02*
X183300000Y-50200000D01*
X165550000Y-33300000D02*
X165550000Y-34650000D01*
D91*
X155285000Y-79554888D02*
X155059591Y-79329479D01*
D92*
X154370000Y-33400000D02*
X155480000Y-33400000D01*
X179416855Y-53900000D02*
X180500000Y-53900000D01*
D93*
X134251500Y-116235000D02*
X134251500Y-117498500D01*
D91*
X177791500Y-97608500D02*
X177800000Y-97600000D01*
X167748920Y-64651080D02*
X167750000Y-64650000D01*
X152126055Y-62541186D02*
X150999064Y-62541186D01*
D92*
X159426000Y-53158500D02*
X159426000Y-52280380D01*
X131472487Y-63942220D02*
X130557780Y-63942220D01*
X135507530Y-47057530D02*
X135500000Y-47050000D01*
X159900000Y-32335050D02*
X159900000Y-31480000D01*
D91*
X133591000Y-110214500D02*
X133591000Y-109309000D01*
D92*
X167275000Y-31600000D02*
X167275000Y-30400000D01*
X197050000Y-71250000D02*
X198050000Y-71250000D01*
X165550000Y-33300000D02*
X165575000Y-33300000D01*
D91*
X184974142Y-56397145D02*
X186297145Y-56397145D01*
D92*
X179826381Y-57026381D02*
X179800000Y-57000000D01*
D91*
X135577118Y-60023820D02*
X135585496Y-60015442D01*
D92*
X143400000Y-54700000D02*
X143400000Y-55498817D01*
X188526470Y-113826470D02*
X188475000Y-113775000D01*
X140800000Y-76100000D02*
X140810050Y-76110050D01*
X176900000Y-46600000D02*
X176300000Y-46000000D01*
X165466500Y-55583500D02*
X165450000Y-55600000D01*
X131200000Y-55250000D02*
X132300000Y-55250000D01*
D91*
X147779674Y-62579674D02*
X147779674Y-61439141D01*
D92*
X154099974Y-55583500D02*
X153898564Y-55382090D01*
D91*
X199624142Y-67547145D02*
X199624142Y-66424142D01*
X158300000Y-89845371D02*
X158250053Y-89895318D01*
D92*
X159426000Y-52280380D02*
X159617444Y-52088936D01*
X114117500Y-139035000D02*
X114117500Y-140267500D01*
D91*
X189274142Y-67547145D02*
X189274142Y-66425858D01*
D92*
X134929595Y-33361530D02*
X133818470Y-33361530D01*
X189405441Y-113826470D02*
X188526470Y-113826470D01*
X140900000Y-68950000D02*
X140900000Y-70000000D01*
D91*
X186297145Y-56397145D02*
X186300000Y-56400000D01*
D92*
X176900000Y-46860000D02*
X176900000Y-46600000D01*
X135495847Y-53983697D02*
X135495847Y-54847479D01*
D91*
X176904606Y-97608500D02*
X177791500Y-97608500D01*
X166226000Y-44483500D02*
X166226000Y-43174000D01*
D92*
X173689303Y-34342642D02*
X174589303Y-34342642D01*
D91*
X166226000Y-43174000D02*
X166250000Y-43150000D01*
X133591000Y-109309000D02*
X133600000Y-109300000D01*
D92*
X142226469Y-33319107D02*
X143360893Y-33319107D01*
%TO.N,CAN2_RX*%
X152627935Y-73291309D02*
X152627028Y-73292216D01*
X157426000Y-66024000D02*
X152627935Y-70822065D01*
X152627935Y-70822065D02*
X152627935Y-70856380D01*
X157426000Y-64508500D02*
X157426000Y-66024000D01*
X152627935Y-70856380D02*
X152627935Y-73291309D01*
%TO.N,DISCHARGE_EN_LV*%
X132444495Y-115400000D02*
X132482526Y-115361969D01*
X159126552Y-59083500D02*
X155501000Y-59083500D01*
D93*
X132482526Y-115361969D02*
X132482526Y-116357474D01*
X132482526Y-116357474D02*
X132450000Y-116390000D01*
D92*
X131200000Y-115400000D02*
X132444495Y-115400000D01*
X159326551Y-59283499D02*
X159126552Y-59083500D01*
%TO.N,Net-(D503-A1)*%
X129114618Y-59514618D02*
X129100000Y-59500000D01*
X127265182Y-61772649D02*
X127257336Y-61780495D01*
X129114618Y-61772649D02*
X129114618Y-59514618D01*
X129114618Y-61772649D02*
X127265182Y-61772649D01*
%TO.N,Net-(D302-A2)*%
X137042500Y-30937500D02*
X137580000Y-30400000D01*
X137042500Y-35600000D02*
X137042500Y-30937500D01*
%TO.N,CHARGE_SAFE_LV*%
X156583500Y-59583500D02*
X155501000Y-59583500D01*
X190500000Y-113751911D02*
X190425441Y-113826470D01*
X158100000Y-59583500D02*
X155501000Y-59583500D01*
X190500000Y-112700000D02*
X190500000Y-113751911D01*
X158300000Y-59783500D02*
X158100000Y-59583500D01*
X190425441Y-113826470D02*
X191449530Y-113826470D01*
X156583500Y-59583500D02*
X156400000Y-59583500D01*
X191449530Y-113826470D02*
X191457000Y-113819000D01*
%TO.N,/MCU/SWO*%
X167729120Y-59583500D02*
X168200000Y-59112620D01*
X172138676Y-41588807D02*
X172472517Y-41588807D01*
X168200000Y-59100000D02*
X168600000Y-59100000D01*
X168200000Y-59112620D02*
X168200000Y-59100000D01*
X166851000Y-59583500D02*
X167729120Y-59583500D01*
X171600000Y-43300000D02*
X171600000Y-42127483D01*
X171600000Y-42127483D02*
X172138676Y-41588807D01*
%TO.N,/MCU/SWCLK*%
X165227084Y-62481884D02*
X165328700Y-62583500D01*
X165328700Y-62583500D02*
X166851000Y-62583500D01*
X168800000Y-51300000D02*
X168800000Y-50430210D01*
X168800000Y-50430210D02*
X168737473Y-50367683D01*
%TO.N,CAN2_TX*%
X156426187Y-67730919D02*
X156426187Y-70855329D01*
X157926000Y-64508500D02*
X157926000Y-66231106D01*
X156426187Y-73296055D02*
X156433509Y-73303377D01*
X156426187Y-70855329D02*
X156426187Y-73296055D01*
X157926000Y-66231106D02*
X156426187Y-67730919D01*
D95*
%TO.N,ISO_CAN1+*%
X165954501Y-98475499D02*
X165954501Y-98477501D01*
X165954501Y-98477501D02*
X166127000Y-98650000D01*
D92*
X166964000Y-91862500D02*
X168962500Y-91862500D01*
X167748500Y-96618500D02*
X167780000Y-96650000D01*
X167912500Y-96650000D02*
X167780000Y-96650000D01*
X170112500Y-93761000D02*
X170112500Y-94450000D01*
X170112500Y-93012500D02*
X170112500Y-94450000D01*
X170112500Y-94450000D02*
X167912500Y-96650000D01*
X168962500Y-91862500D02*
X170112500Y-93012500D01*
D95*
X167780000Y-96650000D02*
X165954501Y-98475499D01*
D92*
%TO.N,/MCU/TEST_LED*%
X170089303Y-35742642D02*
X171101803Y-35742642D01*
X161900000Y-56800000D02*
X160426000Y-55326000D01*
X160426000Y-55326000D02*
X160426000Y-53158500D01*
X169400000Y-36431945D02*
X170089303Y-35742642D01*
X169400000Y-37600000D02*
X169400000Y-36431945D01*
%TO.N,ISO_CAN1-*%
X161187500Y-93012500D02*
X161187500Y-94450000D01*
X161187500Y-94450000D02*
X163387500Y-96650000D01*
X164414000Y-91862500D02*
X162337500Y-91862500D01*
X161187500Y-93939000D02*
X161187500Y-94450000D01*
D95*
X165345499Y-98477501D02*
X165173000Y-98650000D01*
D92*
X162337500Y-91862500D02*
X161187500Y-93012500D01*
X163387500Y-96650000D02*
X163520000Y-96650000D01*
D95*
X165345499Y-98475499D02*
X165345499Y-98477501D01*
X163520000Y-96650000D02*
X165345499Y-98475499D01*
D92*
%TO.N,CAN1_RX*%
X163714000Y-73349000D02*
X163690000Y-73325000D01*
X163690000Y-68840000D02*
X162300000Y-67450000D01*
X162926000Y-65386620D02*
X162926000Y-64508500D01*
X163690000Y-73325000D02*
X163690000Y-68840000D01*
X162300000Y-66012620D02*
X162926000Y-65386620D01*
X162300000Y-67450000D02*
X162300000Y-66012620D01*
%TO.N,ISO_CAN2+*%
X159154500Y-94454500D02*
X159150000Y-94450000D01*
D95*
X155004501Y-98525499D02*
X155004501Y-98527501D01*
X156830000Y-96700000D02*
X155004501Y-98525499D01*
D92*
X156830000Y-96700000D02*
X156900000Y-96700000D01*
X158012500Y-91862500D02*
X159150000Y-93000000D01*
D95*
X155004501Y-98527501D02*
X155177000Y-98700000D01*
D92*
X159150000Y-93000000D02*
X159150000Y-94450000D01*
X156900000Y-96700000D02*
X159150000Y-94450000D01*
X155987000Y-91862500D02*
X158012500Y-91862500D01*
%TO.N,/MCU/HSE_OUT*%
X162426000Y-53158500D02*
X162426000Y-52276000D01*
X162426000Y-52276000D02*
X161756068Y-51606068D01*
X161756068Y-51606068D02*
X161756068Y-45481613D01*
%TO.N,ISO_CAN2-*%
X152475000Y-96700000D02*
X152570000Y-96700000D01*
X151387500Y-91862500D02*
X153437000Y-91862500D01*
X150225000Y-94450000D02*
X152475000Y-96700000D01*
X150225000Y-93025000D02*
X151387500Y-91862500D01*
D95*
X152570000Y-96700000D02*
X154395499Y-98525499D01*
D92*
X150225000Y-94450000D02*
X150225000Y-93025000D01*
D95*
X154395499Y-98525499D02*
X154395499Y-98527501D01*
X154395499Y-98527501D02*
X154223000Y-98700000D01*
D92*
%TO.N,/MCU/SWDIO*%
X163500000Y-66226832D02*
X163500000Y-66600000D01*
X163926000Y-65800832D02*
X163500000Y-66226832D01*
X163926000Y-64508500D02*
X163926000Y-65800832D01*
X173800000Y-55400000D02*
X174700000Y-55400000D01*
%TO.N,Net-(U201-VCAP_2)*%
X164426000Y-64508500D02*
X164426000Y-66176000D01*
X164426000Y-66176000D02*
X164750000Y-66500000D01*
X164520000Y-66527500D02*
X164501000Y-66508500D01*
%TO.N,/MCU/NRST*%
X182310728Y-51128257D02*
X182326706Y-51112279D01*
X171687376Y-53700000D02*
X166400000Y-53700000D01*
X172352750Y-53034626D02*
X171687376Y-53700000D01*
X161926000Y-54226000D02*
X161926000Y-53158500D01*
X162400000Y-54700000D02*
X161926000Y-54226000D01*
X165400000Y-54700000D02*
X162400000Y-54700000D01*
X181278487Y-51128257D02*
X182310728Y-51128257D01*
X181300000Y-51149770D02*
X181278487Y-51128257D01*
X166400000Y-53700000D02*
X165400000Y-54700000D01*
X181300000Y-52100000D02*
X181300000Y-51149770D01*
D91*
%TO.N,Net-(IC501-DVDD)*%
X149329674Y-60127491D02*
X149327183Y-60125000D01*
X149329674Y-61439141D02*
X149329674Y-60127491D01*
D92*
%TO.N,USART2_RX*%
X155501000Y-55083500D02*
X154817500Y-54400000D01*
X134500000Y-35600000D02*
X134117500Y-35600000D01*
X154817500Y-54400000D02*
X153300000Y-54400000D01*
X155501000Y-55083500D02*
X155383500Y-55083500D01*
X153300000Y-54400000D02*
X134500000Y-35600000D01*
%TO.N,/MCU/SDIO_CK*%
X180615501Y-62347900D02*
X169493520Y-62347900D01*
X167729120Y-60583500D02*
X166851000Y-60583500D01*
X169493520Y-62347900D02*
X167729120Y-60583500D01*
%TO.N,Net-(D202-K)*%
X172676803Y-34350142D02*
X172669303Y-34342642D01*
X172676803Y-35742642D02*
X172676803Y-34350142D01*
%TO.N,VDDA*%
X158926000Y-53158500D02*
X158926000Y-52176000D01*
X158657444Y-51907444D02*
X158657444Y-51485605D01*
X158926000Y-52176000D02*
X158657444Y-51907444D01*
%TO.N,CHARGE_EN_LV*%
X106100000Y-117300000D02*
X106500000Y-117700000D01*
X107495370Y-118685370D02*
X107500000Y-118690000D01*
X160500000Y-58583500D02*
X155501000Y-58583500D01*
X107494767Y-117700000D02*
X107495370Y-117699397D01*
X106500000Y-117700000D02*
X107494767Y-117700000D01*
X107495370Y-117699397D02*
X107495370Y-118685370D01*
X106100000Y-117200000D02*
X106100000Y-117300000D01*
%TO.N,USART2_TX*%
X144400000Y-36957500D02*
X143042500Y-35600000D01*
X153800000Y-52200000D02*
X144400000Y-42800000D01*
X156467500Y-52200000D02*
X153800000Y-52200000D01*
X144400000Y-42800000D02*
X144400000Y-36957500D01*
X157426000Y-53158500D02*
X156467500Y-52200000D01*
%TO.N,CAN1_TX*%
X164200000Y-68600000D02*
X166000000Y-68600000D01*
X163426000Y-65593726D02*
X162800000Y-66219726D01*
X166000000Y-68600000D02*
X167464000Y-70064000D01*
X163426000Y-64508500D02*
X163426000Y-65593726D01*
X167464000Y-70064000D02*
X167464000Y-73349000D01*
X162800000Y-67200000D02*
X164200000Y-68600000D01*
X162800000Y-66219726D02*
X162800000Y-67200000D01*
%TO.N,SPI1_NSS*%
X147610000Y-52400000D02*
X147600000Y-52410000D01*
X147600000Y-55510317D02*
X147600000Y-52410000D01*
X148289683Y-56200000D02*
X147600000Y-55510317D01*
X155501000Y-56583500D02*
X157116774Y-56583500D01*
X149327183Y-56200000D02*
X148289683Y-56200000D01*
X157116774Y-56583500D02*
X157252704Y-56447570D01*
X148700000Y-52400000D02*
X147610000Y-52400000D01*
%TO.N,CHARGE_PWR_LV_ISO*%
X167592544Y-116800000D02*
X177400000Y-116800000D01*
X98200000Y-99000000D02*
X125700000Y-71500000D01*
X153216500Y-60883500D02*
X153506449Y-60593551D01*
X163870000Y-123034000D02*
X163900000Y-123004000D01*
X183451650Y-126700000D02*
X200487699Y-126700000D01*
X139850000Y-66850000D02*
X140900000Y-66850000D01*
X178400000Y-148500000D02*
X105400000Y-148500000D01*
X182500000Y-125748350D02*
X183451650Y-126700000D01*
X163500000Y-122604000D02*
X163500000Y-120892544D01*
X138900000Y-67800000D02*
X139850000Y-66850000D01*
X125700000Y-71500000D02*
X137000000Y-71500000D01*
X151516500Y-60883500D02*
X153216500Y-60883500D01*
X154026411Y-60083500D02*
X155501000Y-60083500D01*
X177400000Y-116800000D02*
X182500000Y-121900000D01*
X137000000Y-71500000D02*
X138900000Y-69600000D01*
X163960000Y-124014000D02*
X163870000Y-124104000D01*
X203500000Y-129712301D02*
X203500000Y-136100000D01*
X199800000Y-139800000D02*
X187100000Y-139800000D01*
X182500000Y-121900000D02*
X182500000Y-125748350D01*
X163900000Y-123004000D02*
X163500000Y-122604000D01*
X153516360Y-60593551D02*
X154026411Y-60083500D01*
X98200000Y-141300000D02*
X98200000Y-99000000D01*
X203500000Y-136100000D02*
X199800000Y-139800000D01*
X138900000Y-69600000D02*
X138900000Y-67800000D01*
X140900000Y-65800000D02*
X140900000Y-66750000D01*
X163500000Y-120892544D02*
X167592544Y-116800000D01*
X164942000Y-124014000D02*
X163960000Y-124014000D01*
X200487699Y-126700000D02*
X203500000Y-129712301D01*
X105400000Y-148500000D02*
X98200000Y-141300000D01*
X163870000Y-124104000D02*
X163870000Y-123034000D01*
X153506449Y-60593551D02*
X153516360Y-60593551D01*
X187100000Y-139800000D02*
X178400000Y-148500000D01*
%TO.N,/MCU/BOOT0*%
X168400216Y-57083500D02*
X168406566Y-57089850D01*
X166851000Y-57083500D02*
X168400216Y-57083500D01*
%TO.N,SPI_MISO*%
X149327183Y-57500000D02*
X149402183Y-57575000D01*
X150414683Y-57583500D02*
X155501000Y-57583500D01*
X146500000Y-56400000D02*
X146500000Y-52410000D01*
X149402183Y-57575000D02*
X150406183Y-57575000D01*
X147600000Y-57500000D02*
X146500000Y-56400000D01*
X150406183Y-57575000D02*
X150414683Y-57583500D01*
X149327183Y-57500000D02*
X147600000Y-57500000D01*
%TO.N,Net-(U201-VCAP_1)*%
X154133741Y-62083500D02*
X155501000Y-62083500D01*
X153676055Y-62541186D02*
X154133741Y-62083500D01*
%TO.N,/MCU/HSE_IN*%
X162900000Y-47550000D02*
X162926000Y-47576000D01*
X163700000Y-47850000D02*
X165359500Y-47850000D01*
X166226000Y-46983500D02*
X166226000Y-46683500D01*
X162926000Y-47576000D02*
X162926000Y-53158500D01*
X163400000Y-47550000D02*
X163700000Y-47850000D01*
X162900000Y-47550000D02*
X163400000Y-47550000D01*
X165359500Y-47850000D02*
X166226000Y-46983500D01*
%TO.N,/PSU/BUCK_SW_3V3*%
X193793606Y-91074500D02*
X193793606Y-92204500D01*
X194413606Y-90454500D02*
X193793606Y-91074500D01*
X193793606Y-92204500D02*
X193243606Y-92754500D01*
%TO.N,/PSU/CBOOT_3V3*%
X195008022Y-91091978D02*
X195008022Y-91765093D01*
X195416606Y-90683394D02*
X195008022Y-91091978D01*
X195416606Y-90369500D02*
X195416606Y-90683394D01*
%TO.N,/PSU/BUCK_FB_3V3*%
X196530224Y-93656729D02*
X196521363Y-93665590D01*
X196530224Y-92649050D02*
X196530224Y-93656729D01*
X196520866Y-93665093D02*
X196521363Y-93665590D01*
X195008022Y-93665093D02*
X196520866Y-93665093D01*
%TO.N,/PSU/BUCK_FB_5V*%
X129441000Y-92087000D02*
X129441000Y-90674500D01*
X129491000Y-90624500D02*
X128572979Y-90624500D01*
X128572979Y-90624500D02*
X128569926Y-90627553D01*
X129441000Y-90674500D02*
X129491000Y-90624500D01*
%TO.N,/PSU/CBOOT_5V*%
X127098500Y-91644500D02*
X127541000Y-92087000D01*
X126191000Y-91644500D02*
X127098500Y-91644500D01*
%TO.N,/PSU/BUCK_SW_5V*%
X126811000Y-93224500D02*
X127941000Y-93224500D01*
X127941000Y-93224500D02*
X128491000Y-93774500D01*
X126191000Y-92604500D02*
X126811000Y-93224500D01*
X128491000Y-93774500D02*
X128491000Y-94362000D01*
%TO.N,/MCU/XTAL_IN*%
X161756068Y-44461613D02*
X164504113Y-44461613D01*
X164504113Y-44461613D02*
X164526000Y-44483500D01*
D91*
%TO.N,+5V*%
X165065000Y-81376700D02*
X165065000Y-80925850D01*
X146300000Y-82700000D02*
X146300000Y-63400000D01*
X116641000Y-107574500D02*
X116641000Y-109459000D01*
X152069000Y-83500000D02*
X150200000Y-83500000D01*
X154015000Y-79414070D02*
X154099591Y-79329479D01*
X144450000Y-61550000D02*
X143400000Y-61550000D01*
D92*
X113724500Y-107574500D02*
X116641000Y-107574500D01*
D91*
X118000000Y-84500000D02*
X106700000Y-95800000D01*
X115900000Y-110200000D02*
X112500000Y-110200000D01*
X152069000Y-83500000D02*
X162941700Y-83500000D01*
X106700000Y-106200000D02*
X103300000Y-106200000D01*
X143400000Y-61550000D02*
X143400000Y-60151183D01*
X162941700Y-83500000D02*
X165065000Y-81376700D01*
X165065000Y-80925850D02*
X165065000Y-79306181D01*
X144500000Y-84500000D02*
X118000000Y-84500000D01*
X165065000Y-79306181D02*
X165121181Y-79250000D01*
D92*
X113491000Y-107341000D02*
X113724500Y-107574500D01*
D91*
X112500000Y-110200000D02*
X108500000Y-106200000D01*
X145500000Y-83500000D02*
X146300000Y-82700000D01*
X154015000Y-81554000D02*
X152069000Y-83500000D01*
X154015000Y-80914350D02*
X154015000Y-81554000D01*
D92*
X116091000Y-90624500D02*
X115491000Y-90624500D01*
D91*
X116641000Y-109459000D02*
X115900000Y-110200000D01*
D92*
X127549926Y-90627553D02*
X116094053Y-90627553D01*
X115491000Y-90624500D02*
X113491000Y-92624500D01*
X116094053Y-90627553D02*
X116091000Y-90624500D01*
D91*
X103300000Y-106200000D02*
X100800000Y-106200000D01*
X145500000Y-83500000D02*
X144500000Y-84500000D01*
X108500000Y-106200000D02*
X106700000Y-106200000D01*
X154015000Y-80914350D02*
X154015000Y-79414070D01*
X146300000Y-63400000D02*
X144450000Y-61550000D01*
X106700000Y-95800000D02*
X106700000Y-106200000D01*
D92*
X113491000Y-92624500D02*
X113491000Y-107341000D01*
%TO.N,Net-(D403-A2)*%
X175988000Y-123010000D02*
X175486000Y-123512000D01*
D94*
X175486000Y-123512000D02*
X173578000Y-121604000D01*
D92*
X177284000Y-123010000D02*
X175988000Y-123010000D01*
D94*
X173578000Y-121604000D02*
X173578000Y-118400000D01*
D92*
%TO.N,Net-(D404-A2)*%
X166072000Y-122994000D02*
X166590000Y-123512000D01*
X164942000Y-122994000D02*
X166072000Y-122994000D01*
D94*
X166590000Y-123512000D02*
X168498000Y-121604000D01*
X168498000Y-121604000D02*
X168498000Y-118400000D01*
D92*
%TO.N,READY_PWR_LV_ISO*%
X178404000Y-122920000D02*
X178404000Y-123990000D01*
X202000000Y-130900000D02*
X202000000Y-135500000D01*
X195455456Y-128600000D02*
X199700000Y-128600000D01*
X178404000Y-122610001D02*
X179314001Y-121700000D01*
X181700000Y-122700000D02*
X181700000Y-125655456D01*
X185900000Y-138100000D02*
X177100000Y-146900000D01*
X178404000Y-122920000D02*
X178404000Y-122610001D01*
X99700000Y-99300000D02*
X126050000Y-72950000D01*
X126050000Y-72950000D02*
X140800000Y-72950000D01*
X177284000Y-124030000D02*
X178364000Y-124030000D01*
X178364000Y-124030000D02*
X178374000Y-124020000D01*
X199400000Y-138100000D02*
X185900000Y-138100000D01*
X194305456Y-127450000D02*
X195455456Y-128600000D01*
X99700000Y-140300000D02*
X99700000Y-99300000D01*
X142300000Y-72900000D02*
X140850000Y-72900000D01*
X202000000Y-135500000D02*
X199400000Y-138100000D01*
X199700000Y-128600000D02*
X202000000Y-130900000D01*
X157000000Y-60583500D02*
X155501000Y-60583500D01*
X177100000Y-146900000D02*
X106300000Y-146900000D01*
X180700000Y-121700000D02*
X181700000Y-122700000D01*
X181700000Y-125655456D02*
X183494544Y-127450000D01*
X183494544Y-127450000D02*
X194305456Y-127450000D01*
X106300000Y-146900000D02*
X99700000Y-140300000D01*
X179314001Y-121700000D02*
X180700000Y-121700000D01*
X140850000Y-72900000D02*
X140800000Y-72950000D01*
X178404000Y-123990000D02*
X178374000Y-124020000D01*
D94*
%TO.N,CHARGE_PWR*%
X169390000Y-123512000D02*
X169390000Y-125432500D01*
X169390000Y-125432500D02*
X167660000Y-127162500D01*
%TO.N,FAN_EN_HV*%
X148022500Y-129400000D02*
X150260000Y-127162500D01*
X132950000Y-137850000D02*
X141400000Y-129400000D01*
X141400000Y-129400000D02*
X148022500Y-129400000D01*
%TO.N,CHARGE_SAFE_HV*%
X184400000Y-136650000D02*
X186125000Y-134925000D01*
X160918642Y-129400000D02*
X160060000Y-128541358D01*
X185450000Y-129400000D02*
X160918642Y-129400000D01*
X160060000Y-128541358D02*
X160060000Y-127162500D01*
X186125000Y-130075000D02*
X185450000Y-129400000D01*
X184725000Y-136325000D02*
X186125000Y-134925000D01*
%TO.N,DISCHARGE_EN_HV*%
X157860000Y-126060000D02*
X157860000Y-127162500D01*
X152600000Y-120800000D02*
X157860000Y-126060000D01*
X152600000Y-120600000D02*
X152600000Y-120800000D01*
%TO.N,READY_PWR*%
X171660000Y-124538000D02*
X172686000Y-123512000D01*
X171660000Y-127162500D02*
X171660000Y-124538000D01*
%TO.N,CHARGE_EN_HV*%
X132900000Y-124800000D02*
X153466308Y-124800000D01*
X131000000Y-122900000D02*
X132900000Y-124800000D01*
X153466308Y-124800000D02*
X155660000Y-126993692D01*
X127900000Y-122900000D02*
X131000000Y-122900000D01*
X155660000Y-126993692D02*
X155660000Y-127162500D01*
D92*
%TO.N,BQ_NFAULT*%
X150500000Y-61100000D02*
X150983500Y-61583500D01*
X150339683Y-59450000D02*
X150500000Y-59610317D01*
X139300000Y-78250000D02*
X135300000Y-74250000D01*
X131300000Y-75250000D02*
X131300000Y-76425000D01*
X145050000Y-77250000D02*
X144050000Y-78250000D01*
X149327183Y-59450000D02*
X146850000Y-59450000D01*
X146850000Y-59450000D02*
X146450000Y-59450000D01*
X145400000Y-58400000D02*
X145400000Y-52410000D01*
X144550000Y-64250000D02*
X145050000Y-64750000D01*
X145925000Y-60625000D02*
X146450000Y-60100000D01*
X150500000Y-59610317D02*
X150500000Y-61100000D01*
X145050000Y-64750000D02*
X145050000Y-77250000D01*
X146450000Y-60100000D02*
X146450000Y-59450000D01*
X144050000Y-78250000D02*
X139300000Y-78250000D01*
X146450000Y-59450000D02*
X145400000Y-58400000D01*
X132300000Y-74250000D02*
X131300000Y-75250000D01*
X135300000Y-74250000D02*
X132300000Y-74250000D01*
X150983500Y-61583500D02*
X155501000Y-61583500D01*
X149327183Y-59450000D02*
X150339683Y-59450000D01*
%TO.N,SPI_MOSI*%
X149327183Y-58150000D02*
X149393683Y-58083500D01*
X149393683Y-58083500D02*
X155501000Y-58083500D01*
%TO.N,SPI_SCK*%
X154410241Y-57083500D02*
X154396741Y-57070000D01*
X155501000Y-57083500D02*
X154410241Y-57083500D01*
X150470000Y-57070000D02*
X150250000Y-56850000D01*
X154396741Y-57070000D02*
X150470000Y-57070000D01*
X150250000Y-56850000D02*
X149327183Y-56850000D01*
%TO.N,/BQ79600/COMHP*%
X135602118Y-64593575D02*
X135602118Y-64783886D01*
X135779797Y-64783886D02*
X135602118Y-64783886D01*
X142413683Y-58150000D02*
X135779797Y-64783886D01*
X134341004Y-66045000D02*
X135602118Y-64783886D01*
X135602118Y-64783886D02*
X135602118Y-66137220D01*
X143451183Y-58150000D02*
X142413683Y-58150000D01*
X135602118Y-66137220D02*
X135577118Y-66162220D01*
X132035741Y-66045000D02*
X134341004Y-66045000D01*
%TO.N,BQ_SPI_RDY*%
X150500000Y-54377183D02*
X149327183Y-55550000D01*
X161700000Y-58005025D02*
X160431373Y-56736398D01*
X160431373Y-56736398D02*
X159076348Y-56736398D01*
X150500000Y-54300000D02*
X150500000Y-54377183D01*
X149327183Y-55550000D02*
X148800000Y-55022817D01*
X148800000Y-55022817D02*
X148800000Y-54410000D01*
X161700000Y-60100000D02*
X161700000Y-58005025D01*
X158426000Y-64508500D02*
X158426000Y-63374000D01*
X159076348Y-56736398D02*
X155839950Y-53500000D01*
X155839950Y-53500000D02*
X154000000Y-53500000D01*
X158426000Y-63374000D02*
X161700000Y-60100000D01*
%TO.N,Net-(C502-Pad2)*%
X133403973Y-50171664D02*
X132611940Y-50963697D01*
X133823432Y-51745121D02*
X133393364Y-51745121D01*
X133827446Y-50171664D02*
X133403973Y-50171664D01*
X133393364Y-51745121D02*
X132611940Y-50963697D01*
%TO.N,/BQ79600/COMLP*%
X135458693Y-48854860D02*
X135507530Y-48903697D01*
X142413683Y-56200000D02*
X136385347Y-50171664D01*
X134160642Y-48854860D02*
X135477446Y-50171664D01*
X135477446Y-48933781D02*
X135507530Y-48903697D01*
X143451183Y-56200000D02*
X142413683Y-56200000D01*
X135477446Y-50171664D02*
X135477446Y-48933781D01*
X136385347Y-50171664D02*
X135477446Y-50171664D01*
X132033361Y-48854860D02*
X134160642Y-48854860D01*
%TO.N,/BQ79600/COMHN*%
X135602118Y-63242220D02*
X135602118Y-61947220D01*
X136368441Y-63242220D02*
X135602118Y-63242220D01*
X142110661Y-57500000D02*
X136368441Y-63242220D01*
X135602118Y-61947220D02*
X135577118Y-61922220D01*
X132039618Y-61772649D02*
X134132547Y-61772649D01*
X143451183Y-57500000D02*
X142110661Y-57500000D01*
X134132547Y-61772649D02*
X135602118Y-63242220D01*
%TO.N,/MCU/SDIO_DET*%
X184971287Y-66600000D02*
X184974142Y-66597145D01*
X166851000Y-62083500D02*
X168083500Y-62083500D01*
X180700000Y-66600000D02*
X184971287Y-66600000D01*
X168083500Y-62083500D02*
X169300000Y-63300000D01*
%TO.N,Net-(D303-A2)*%
X152160000Y-30400000D02*
X152160000Y-35542500D01*
X152160000Y-35542500D02*
X152317500Y-35700000D01*
%TO.N,FAN_EN_LV*%
X111200000Y-138100000D02*
X112443194Y-138100000D01*
X112453033Y-138109839D02*
X112453033Y-139096967D01*
X154216360Y-60883501D02*
X154416359Y-61083500D01*
X154416359Y-61083500D02*
X155501000Y-61083500D01*
X112443194Y-138100000D02*
X112453033Y-138109839D01*
X112453033Y-139096967D02*
X112450000Y-139100000D01*
%TO.N,Net-(D304-A2)*%
X140120000Y-35597500D02*
X140117500Y-35600000D01*
X140120000Y-30400000D02*
X140120000Y-35597500D01*
%TO.N,Net-(U601-TXD)*%
X167664000Y-75374000D02*
X167664000Y-80866850D01*
X167664000Y-80866850D02*
X167605000Y-80925850D01*
X167464000Y-75174000D02*
X167664000Y-75374000D01*
%TO.N,Net-(U601-STB)*%
X167605000Y-86374150D02*
X168886650Y-86374150D01*
X168886650Y-86374150D02*
X169400000Y-86887500D01*
%TO.N,Net-(U601-RXD)*%
X163714000Y-75174000D02*
X163714000Y-80844850D01*
X163814000Y-80906850D02*
X163795000Y-80925850D01*
X163714000Y-80844850D02*
X163795000Y-80925850D01*
%TO.N,Net-(U602-RXD)*%
X152727028Y-80896378D02*
X152745000Y-80914350D01*
X152745000Y-75235188D02*
X152627028Y-75117216D01*
X152745000Y-80914350D02*
X152745000Y-75235188D01*
%TO.N,Net-(U602-TXD)*%
X156555000Y-80914350D02*
X156637000Y-80832350D01*
X156637000Y-75331868D02*
X156433509Y-75128377D01*
X156637000Y-80832350D02*
X156637000Y-75331868D01*
%TO.N,Net-(U602-STB)*%
X157775150Y-86362650D02*
X158300000Y-86887500D01*
X156555000Y-86362650D02*
X157775150Y-86362650D01*
%TO.N,VBUS*%
X137400000Y-113890000D02*
X137400000Y-112000000D01*
X136400000Y-113000000D02*
X137800000Y-111600000D01*
X118100000Y-114700000D02*
X120000000Y-116600000D01*
X137400000Y-112000000D02*
X137800000Y-111600000D01*
X120000000Y-116600000D02*
X120000000Y-134939000D01*
X114000000Y-113000000D02*
X136400000Y-113000000D01*
X118100000Y-113000000D02*
X118100000Y-114700000D01*
X137800000Y-111600000D02*
X138800000Y-110600000D01*
X137800000Y-114290000D02*
X137400000Y-113890000D01*
X187600000Y-119700000D02*
X183200000Y-115300000D01*
X112835000Y-114165000D02*
X114000000Y-113000000D01*
X120000000Y-134939000D02*
X117849000Y-137090000D01*
X190490000Y-119700000D02*
X187600000Y-119700000D01*
X112835000Y-116590000D02*
X112835000Y-114165000D01*
%TO.N,ISO_COMHN*%
X104980309Y-63354222D02*
X101255216Y-63354222D01*
X105026087Y-63400000D02*
X104980309Y-63354222D01*
X105026087Y-63400000D02*
X105864618Y-62561469D01*
%TO.N,ISO_COMHP*%
X99933074Y-65061469D02*
X105864618Y-65061469D01*
X98255217Y-63383612D02*
X99933074Y-65061469D01*
X98255217Y-63354222D02*
X98255217Y-63383612D01*
%TO.N,Net-(C501-Pad2)*%
X133132487Y-63242220D02*
X132432487Y-63942220D01*
X133274153Y-64783886D02*
X132432487Y-63942220D01*
X133952118Y-63242220D02*
X133132487Y-63242220D01*
X133952118Y-64783886D02*
X133274153Y-64783886D01*
%TO.N,Net-(D501-A)*%
X132681300Y-78000000D02*
X132700400Y-77980900D01*
X131300000Y-78000000D02*
X132681300Y-78000000D01*
%TO.N,/BQ79600/COMLN*%
X143451183Y-56850000D02*
X142160661Y-56850000D01*
X137055782Y-51745121D02*
X135473432Y-51745121D01*
X135473432Y-51745121D02*
X135473432Y-53001282D01*
X135473432Y-53001282D02*
X135495847Y-53023697D01*
X134222856Y-52995697D02*
X135473432Y-51745121D01*
X132042440Y-52995697D02*
X134222856Y-52995697D01*
X142160661Y-56850000D02*
X137055782Y-51745121D01*
%TO.N,Net-(C509-Pad2)*%
X119677118Y-64200000D02*
X118977118Y-64900000D01*
X125475202Y-66024268D02*
X123650934Y-64200000D01*
X123650934Y-64200000D02*
X119677118Y-64200000D01*
%TO.N,Net-(C509-Pad1)*%
X115167118Y-65061469D02*
X114552118Y-64446469D01*
X113189618Y-67020718D02*
X113207869Y-67020718D01*
X117077118Y-65061469D02*
X115167118Y-65061469D01*
X113207869Y-67020718D02*
X115167118Y-65061469D01*
%TO.N,Net-(C510-Pad2)*%
X125432336Y-61780495D02*
X125432336Y-61944782D01*
X125432336Y-61944782D02*
X123677118Y-63700000D01*
X119677118Y-63700000D02*
X118977118Y-63000000D01*
X118977118Y-63000000D02*
X118977118Y-62700000D01*
X123677118Y-63700000D02*
X119677118Y-63700000D01*
%TO.N,Net-(C603-Pad1)*%
X166167500Y-95470000D02*
X167187500Y-94450000D01*
X165132500Y-95470000D02*
X164112500Y-94450000D01*
X165650000Y-95470000D02*
X165132500Y-95470000D01*
X165650000Y-95470000D02*
X166167500Y-95470000D01*
%TO.N,Net-(C510-Pad1)*%
X115167118Y-62561469D02*
X114552118Y-63176469D01*
X117077118Y-62700000D02*
X116977118Y-62600000D01*
X115167118Y-62523587D02*
X115167118Y-62561469D01*
X116977118Y-62600000D02*
X115128587Y-62600000D01*
X115128587Y-62600000D02*
X114552118Y-63176469D01*
X113264249Y-60620718D02*
X115167118Y-62523587D01*
D93*
%TO.N,Net-(Q702-B)*%
X132482526Y-114341969D02*
X134244531Y-114341969D01*
X134244531Y-114341969D02*
X134251500Y-114335000D01*
D92*
%TO.N,Net-(Q703-B)*%
X192477000Y-113819000D02*
X192477000Y-115595000D01*
X192477000Y-115595000D02*
X192475000Y-115597000D01*
%TO.N,Net-(Q703-C)*%
X191525000Y-123265000D02*
X191440000Y-123350000D01*
X191525000Y-117472000D02*
X191525000Y-123265000D01*
%TO.N,Net-(C511-Pad1)*%
X114710872Y-51910872D02*
X113058685Y-53563059D01*
X113058685Y-53563059D02*
X113058685Y-54018326D01*
X114710872Y-51910872D02*
X114200000Y-51400000D01*
X116807318Y-51910872D02*
X114710872Y-51910872D01*
%TO.N,Net-(C511-Pad2)*%
X123932800Y-50818326D02*
X119575000Y-50818326D01*
X125464601Y-52350127D02*
X123932800Y-50818326D01*
X125464601Y-52992327D02*
X125464601Y-52350127D01*
X118707318Y-51686008D02*
X118707318Y-51910872D01*
X119575000Y-50818326D02*
X118707318Y-51686008D01*
%TO.N,Net-(C512-Pad1)*%
X114829604Y-49500396D02*
X114740755Y-49500396D01*
X114740755Y-49500396D02*
X112858685Y-47618326D01*
X116818662Y-49500396D02*
X114829604Y-49500396D01*
X114829604Y-49500396D02*
X114200000Y-50130000D01*
%TO.N,Net-(C512-Pad2)*%
X123907019Y-50318326D02*
X119575000Y-50318326D01*
X125410413Y-48846951D02*
X125378394Y-48846951D01*
X118757070Y-49500396D02*
X118718662Y-49500396D01*
X125378394Y-48846951D02*
X123907019Y-50318326D01*
X119575000Y-50318326D02*
X118757070Y-49500396D01*
%TO.N,Net-(L501-Pad2)*%
X108304618Y-64446469D02*
X107689618Y-65061469D01*
X110002118Y-64446469D02*
X108304618Y-64446469D01*
X111364618Y-65808969D02*
X110002118Y-64446469D01*
X111364618Y-67020718D02*
X111364618Y-65808969D01*
%TO.N,Net-(L501-Pad1)*%
X111439249Y-60620718D02*
X111439249Y-61739338D01*
X111439249Y-61739338D02*
X110002118Y-63176469D01*
X108304618Y-63176469D02*
X107689618Y-62561469D01*
X110002118Y-63176469D02*
X108304618Y-63176469D01*
%TO.N,Net-(C604-Pad1)*%
X155205000Y-95470000D02*
X156225000Y-94450000D01*
X154170000Y-95470000D02*
X153150000Y-94450000D01*
X154730604Y-95470000D02*
X154170000Y-95470000D01*
X154730604Y-95470000D02*
X155205000Y-95470000D01*
D91*
%TO.N,Net-(D409-K)*%
X175886606Y-96110000D02*
X175886606Y-97606500D01*
X175886606Y-97606500D02*
X175884606Y-97608500D01*
%TO.N,Net-(D410-K)*%
X132078500Y-111224500D02*
X133581000Y-111224500D01*
X133581000Y-111224500D02*
X133591000Y-111234500D01*
D92*
%TO.N,/TCAN1462-Q1/CANL_2*%
X154000000Y-86377650D02*
X154015000Y-86362650D01*
X153437000Y-88937500D02*
X154000000Y-88374500D01*
X154000000Y-88374500D02*
X154000000Y-86377650D01*
%TO.N,/TCAN1462-Q1/CANH_2*%
X155300000Y-86377650D02*
X155285000Y-86362650D01*
X155300000Y-88250500D02*
X155300000Y-86377650D01*
X155987000Y-88937500D02*
X155300000Y-88250500D01*
%TO.N,/TCAN1462-Q1/CANH_1*%
X166400000Y-88373500D02*
X166964000Y-88937500D01*
X166400000Y-86439150D02*
X166400000Y-88373500D01*
X166335000Y-86374150D02*
X166400000Y-86439150D01*
%TO.N,/TCAN1462-Q1/CANL_1*%
X165000000Y-86439150D02*
X165000000Y-88351500D01*
X165065000Y-86374150D02*
X165000000Y-86439150D01*
X165000000Y-88351500D02*
X164414000Y-88937500D01*
%TO.N,Net-(D504-A2)*%
X129117440Y-52995697D02*
X127292971Y-52995697D01*
X129100000Y-53013137D02*
X129117440Y-52995697D01*
X127292971Y-52995697D02*
X127289601Y-52992327D01*
X129100000Y-55250000D02*
X129100000Y-53013137D01*
%TO.N,Net-(D505-A1)*%
X129108361Y-48854860D02*
X129108361Y-46654058D01*
X129108361Y-48854860D02*
X127243322Y-48854860D01*
X129108361Y-46654058D02*
X129100000Y-46645697D01*
X127243322Y-48854860D02*
X127235413Y-48846951D01*
%TO.N,Net-(L502-Pad2)*%
X111233685Y-54018326D02*
X111233685Y-52983685D01*
X107964511Y-51400000D02*
X107546185Y-51818326D01*
X109650000Y-51400000D02*
X107964511Y-51400000D01*
X111233685Y-52983685D02*
X109650000Y-51400000D01*
%TO.N,Net-(L502-Pad1)*%
X111033685Y-47618326D02*
X111033685Y-48746315D01*
X109650000Y-50130000D02*
X107857859Y-50130000D01*
X111033685Y-48746315D02*
X109650000Y-50130000D01*
X107857859Y-50130000D02*
X107546185Y-49818326D01*
%TO.N,Net-(Q701-C)*%
X111022500Y-117585000D02*
X116325000Y-117585000D01*
%TO.N,Net-(Q701-B)*%
X109068103Y-116714397D02*
X109147500Y-116635000D01*
X107395370Y-116714397D02*
X109068103Y-116714397D01*
D93*
%TO.N,Net-(Q702-C)*%
X136126500Y-115285000D02*
X141025000Y-115285000D01*
D92*
%TO.N,Net-(Q707-C)*%
X115992500Y-138085000D02*
X121375000Y-138085000D01*
%TO.N,Net-(Q707-B)*%
X114072339Y-137089839D02*
X114117500Y-137135000D01*
X112453033Y-137089839D02*
X114072339Y-137089839D01*
%TO.N,ISO_COMLP*%
X105721185Y-49818326D02*
X105346185Y-49818326D01*
X104852859Y-48950000D02*
X105721185Y-49818326D01*
X98271605Y-50418326D02*
X99739931Y-48950000D01*
X99739931Y-48950000D02*
X104852859Y-48950000D01*
%TO.N,ISO_COMLN*%
X102671604Y-51818326D02*
X101271604Y-50418326D01*
X105721185Y-51818326D02*
X102671604Y-51818326D01*
%TO.N,ADC_IN*%
X159875000Y-29500000D02*
X159875000Y-30495000D01*
X159475000Y-29100000D02*
X159875000Y-29500000D01*
X161800000Y-55100000D02*
X160926000Y-54226000D01*
X160926000Y-54226000D02*
X160926000Y-53158500D01*
X159900000Y-30520000D02*
X161582500Y-30520000D01*
X161582500Y-30520000D02*
X161600000Y-30537500D01*
X159875000Y-30495000D02*
X159900000Y-30520000D01*
%TO.N,UART4_TX*%
X159100000Y-55400000D02*
X158426000Y-54726000D01*
X155242500Y-42642500D02*
X155242500Y-35700000D01*
X158426000Y-54726000D02*
X158426000Y-53158500D01*
X155280000Y-35737500D02*
X155242500Y-35700000D01*
X156500000Y-43900000D02*
X155242500Y-42642500D01*
%TO.N,UART4_RX*%
X154100000Y-49589950D02*
X154100000Y-49400000D01*
X157045620Y-51400000D02*
X155910050Y-51400000D01*
X154100000Y-49400000D02*
X147500000Y-42800000D01*
X155910050Y-51400000D02*
X154100000Y-49589950D01*
X157926000Y-53158500D02*
X157926000Y-52280380D01*
X147500000Y-36482500D02*
X146717500Y-35700000D01*
X157926000Y-52280380D02*
X157045620Y-51400000D01*
X147500000Y-42800000D02*
X147500000Y-36482500D01*
%TO.N,Net-(D305-A2)*%
X161600000Y-33462500D02*
X161762500Y-33300000D01*
X161762500Y-33300000D02*
X163450000Y-33300000D01*
X163450000Y-33300000D02*
X163500000Y-33300000D01*
X163500000Y-33300000D02*
X164735000Y-32065000D01*
X164735000Y-32065000D02*
X164735000Y-30400000D01*
D91*
%TO.N,Net-(J301-Pin_4)*%
X147117500Y-30362500D02*
X147080000Y-30400000D01*
X146468629Y-27300000D02*
X147300000Y-28131371D01*
X144337500Y-27300000D02*
X146468629Y-27300000D01*
X147300000Y-30180000D02*
X147080000Y-30400000D01*
X147300000Y-28131371D02*
X147300000Y-30180000D01*
%TO.N,Net-(J302-Pin_4)*%
X135117500Y-30322500D02*
X135040000Y-30400000D01*
X134202500Y-29562500D02*
X135040000Y-30400000D01*
X132050000Y-29562500D02*
X134202500Y-29562500D01*
%TD*%
%TA.AperFunction,Conductor*%
%TO.N,+5V*%
G36*
X165279677Y-76331185D02*
G01*
X165300319Y-76347819D01*
X165377681Y-76425181D01*
X165411166Y-76486504D01*
X165414000Y-76512862D01*
X165414000Y-77411500D01*
X165457637Y-77542411D01*
X165464000Y-77581623D01*
X165464000Y-79423956D01*
X165444315Y-79490995D01*
X165443174Y-79492739D01*
X165400811Y-79556283D01*
X165347245Y-79601144D01*
X165297637Y-79611500D01*
X164930363Y-79611500D01*
X164863324Y-79591815D01*
X164827189Y-79556283D01*
X164784826Y-79492739D01*
X164764018Y-79426040D01*
X164764000Y-79423956D01*
X164764000Y-77861500D01*
X164300319Y-77397819D01*
X164266834Y-77336496D01*
X164264000Y-77310138D01*
X164264000Y-76512862D01*
X164283685Y-76445823D01*
X164300319Y-76425181D01*
X164377681Y-76347819D01*
X164439004Y-76314334D01*
X164465362Y-76311500D01*
X165212638Y-76311500D01*
X165279677Y-76331185D01*
G37*
%TD.AperFunction*%
%TD*%
%TA.AperFunction,Conductor*%
%TO.N,+5V*%
G36*
X154252677Y-76469685D02*
G01*
X154273319Y-76486319D01*
X154350681Y-76563681D01*
X154384166Y-76625004D01*
X154387000Y-76651362D01*
X154387000Y-77550000D01*
X154430637Y-77680911D01*
X154437000Y-77720123D01*
X154437000Y-79548638D01*
X154417315Y-79615677D01*
X154400681Y-79636319D01*
X154373319Y-79663681D01*
X154311996Y-79697166D01*
X154285638Y-79700000D01*
X153888362Y-79700000D01*
X153821323Y-79680315D01*
X153800681Y-79663681D01*
X153773319Y-79636319D01*
X153739834Y-79574996D01*
X153737000Y-79548638D01*
X153737000Y-78000000D01*
X153273319Y-77536319D01*
X153239834Y-77474996D01*
X153237000Y-77448638D01*
X153237000Y-76651362D01*
X153256685Y-76584323D01*
X153273319Y-76563681D01*
X153350681Y-76486319D01*
X153412004Y-76452834D01*
X153438362Y-76450000D01*
X154185638Y-76450000D01*
X154252677Y-76469685D01*
G37*
%TD.AperFunction*%
%TD*%
%TA.AperFunction,Conductor*%
%TO.N,GND*%
G36*
X156005039Y-96119685D02*
G01*
X156037200Y-96149600D01*
X156275200Y-96466933D01*
X156299676Y-96532375D01*
X156300000Y-96541333D01*
X156300000Y-96818012D01*
X156280315Y-96885051D01*
X156263681Y-96905693D01*
X155205693Y-97963681D01*
X155144370Y-97997166D01*
X155118012Y-98000000D01*
X154281986Y-98000000D01*
X154214947Y-97980315D01*
X154194305Y-97963681D01*
X153136319Y-96905694D01*
X153102834Y-96844371D01*
X153100000Y-96818013D01*
X153100000Y-96541333D01*
X153119685Y-96474294D01*
X153124800Y-96466933D01*
X153362800Y-96149600D01*
X153418771Y-96107779D01*
X153462000Y-96100000D01*
X155938000Y-96100000D01*
X156005039Y-96119685D01*
G37*
%TD.AperFunction*%
%TD*%
%TA.AperFunction,Conductor*%
%TO.N,+5V*%
G36*
X130606677Y-102144185D02*
G01*
X130627319Y-102160819D01*
X131054681Y-102588181D01*
X131088166Y-102649504D01*
X131091000Y-102675862D01*
X131091000Y-111873138D01*
X131071315Y-111940177D01*
X131054681Y-111960819D01*
X130702319Y-112313181D01*
X130640996Y-112346666D01*
X130614638Y-112349500D01*
X113935929Y-112349500D01*
X113810261Y-112374497D01*
X113810255Y-112374499D01*
X113712331Y-112415061D01*
X113664878Y-112424500D01*
X112542362Y-112424500D01*
X112475323Y-112404815D01*
X112454681Y-112388181D01*
X112027319Y-111960819D01*
X111993834Y-111899496D01*
X111991000Y-111873138D01*
X111991000Y-107575862D01*
X112010685Y-107508823D01*
X112027319Y-107488181D01*
X112454681Y-107060819D01*
X112516004Y-107027334D01*
X112542362Y-107024500D01*
X115903223Y-107024500D01*
X115920910Y-107025768D01*
X115950409Y-107030019D01*
X123257714Y-107032383D01*
X123309908Y-107025548D01*
X123326006Y-107024500D01*
X124390999Y-107024500D01*
X124391000Y-107024500D01*
X125341000Y-106024500D01*
X125341000Y-102775862D01*
X125360685Y-102708823D01*
X125377319Y-102688181D01*
X125904681Y-102160819D01*
X125966004Y-102127334D01*
X125992362Y-102124500D01*
X130539638Y-102124500D01*
X130606677Y-102144185D01*
G37*
%TD.AperFunction*%
%TD*%
%TA.AperFunction,Conductor*%
%TO.N,GND*%
G36*
X118852434Y-121330015D02*
G01*
X118873076Y-121346649D01*
X119300438Y-121774011D01*
X119333923Y-121835334D01*
X119336757Y-121861692D01*
X119336757Y-125258968D01*
X119317072Y-125326007D01*
X119300438Y-125346649D01*
X118873076Y-125774011D01*
X118811753Y-125807496D01*
X118785395Y-125810330D01*
X113888119Y-125810330D01*
X113821080Y-125790645D01*
X113800438Y-125774011D01*
X113373076Y-125346649D01*
X113339591Y-125285326D01*
X113336757Y-125258968D01*
X113336757Y-121861692D01*
X113356442Y-121794653D01*
X113373076Y-121774011D01*
X113800438Y-121346649D01*
X113861761Y-121313164D01*
X113888119Y-121310330D01*
X118785395Y-121310330D01*
X118852434Y-121330015D01*
G37*
%TD.AperFunction*%
%TD*%
%TA.AperFunction,Conductor*%
%TO.N,GND*%
G36*
X192952961Y-79730185D02*
G01*
X192981180Y-79755116D01*
X193415259Y-80276011D01*
X193443055Y-80340113D01*
X193444000Y-80355393D01*
X193444000Y-90010642D01*
X193443044Y-90847604D01*
X193426435Y-90909455D01*
X193420399Y-90919909D01*
X193420399Y-90919913D01*
X193393106Y-91021773D01*
X193393106Y-91987243D01*
X193373421Y-92054282D01*
X193356787Y-92074924D01*
X193303437Y-92128274D01*
X193242114Y-92161759D01*
X193215756Y-92164593D01*
X192189003Y-92164593D01*
X192135002Y-92173146D01*
X192065708Y-92164190D01*
X192012257Y-92119192D01*
X191991619Y-92052440D01*
X191991606Y-92050672D01*
X191991606Y-90060500D01*
X190491606Y-88210500D01*
X181015746Y-88210500D01*
X180948707Y-88190815D01*
X180908243Y-88148298D01*
X180558113Y-87539216D01*
X180541616Y-87477380D01*
X180543980Y-80170070D01*
X180563686Y-80103040D01*
X180590516Y-80073287D01*
X181010035Y-79737672D01*
X181074681Y-79711164D01*
X181087497Y-79710500D01*
X192885922Y-79710500D01*
X192952961Y-79730185D01*
G37*
%TD.AperFunction*%
%TD*%
%TA.AperFunction,Conductor*%
%TO.N,GND*%
G36*
X125865677Y-128919685D02*
G01*
X125886319Y-128936319D01*
X126013681Y-129063681D01*
X126047166Y-129125004D01*
X126050000Y-129151362D01*
X126050000Y-131648638D01*
X126030315Y-131715677D01*
X126013681Y-131736319D01*
X125886319Y-131863681D01*
X125824996Y-131897166D01*
X125798638Y-131900000D01*
X121701362Y-131900000D01*
X121634323Y-131880315D01*
X121613681Y-131863681D01*
X121486319Y-131736319D01*
X121452834Y-131674996D01*
X121450000Y-131648638D01*
X121450000Y-129151362D01*
X121469685Y-129084323D01*
X121486319Y-129063681D01*
X121613681Y-128936319D01*
X121675004Y-128902834D01*
X121701362Y-128900000D01*
X125798638Y-128900000D01*
X125865677Y-128919685D01*
G37*
%TD.AperFunction*%
%TD*%
%TA.AperFunction,Conductor*%
%TO.N,GND*%
G36*
X127725594Y-93626705D02*
G01*
X127792607Y-93646465D01*
X127813130Y-93663023D01*
X127904181Y-93754074D01*
X127937666Y-93815397D01*
X127940500Y-93841755D01*
X127940500Y-94906018D01*
X127944853Y-94933498D01*
X127935897Y-95002791D01*
X127890900Y-95056242D01*
X127824148Y-95076881D01*
X127822379Y-95076894D01*
X125841000Y-95076894D01*
X123991000Y-96576894D01*
X123991000Y-106052753D01*
X123971315Y-106119792D01*
X123928798Y-106160256D01*
X123319716Y-106510386D01*
X123257878Y-106526883D01*
X115950573Y-106524519D01*
X115883540Y-106504813D01*
X115853785Y-106477981D01*
X115518172Y-106058465D01*
X115491664Y-105993819D01*
X115491000Y-105981003D01*
X115491000Y-94182578D01*
X115510685Y-94115539D01*
X115535617Y-94087319D01*
X116056511Y-93653241D01*
X116120614Y-93625445D01*
X116135894Y-93624500D01*
X125791000Y-93624500D01*
X127725594Y-93626705D01*
G37*
%TD.AperFunction*%
%TD*%
%TA.AperFunction,Conductor*%
%TO.N,+3V3*%
G36*
X165015677Y-49669685D02*
G01*
X165036319Y-49686319D01*
X165113681Y-49763681D01*
X165147166Y-49825004D01*
X165150000Y-49851362D01*
X165150000Y-50899999D01*
X165234474Y-51097105D01*
X165244500Y-51145951D01*
X165244500Y-51762422D01*
X165244510Y-51764782D01*
X165244567Y-51771294D01*
X165243326Y-51771304D01*
X165230325Y-51834272D01*
X165181445Y-51884198D01*
X165120870Y-51900000D01*
X164716363Y-51900000D01*
X164649324Y-51880315D01*
X164613189Y-51844783D01*
X164570826Y-51781239D01*
X164550018Y-51714540D01*
X164550000Y-51712456D01*
X164550000Y-51250000D01*
X164147871Y-50937233D01*
X164107039Y-50880536D01*
X164100000Y-50839353D01*
X164100000Y-49891333D01*
X164119685Y-49824294D01*
X164124800Y-49816933D01*
X164212800Y-49699600D01*
X164268771Y-49657779D01*
X164312000Y-49650000D01*
X164948638Y-49650000D01*
X165015677Y-49669685D01*
G37*
%TD.AperFunction*%
%TD*%
%TA.AperFunction,Conductor*%
%TO.N,+3.3VP*%
G36*
X193415677Y-69519685D02*
G01*
X193436319Y-69536319D01*
X193463681Y-69563681D01*
X193497166Y-69625004D01*
X193500000Y-69651362D01*
X193500000Y-70100000D01*
X193736909Y-70573818D01*
X193750000Y-70629272D01*
X193750000Y-72100000D01*
X194118679Y-72514764D01*
X194148505Y-72577946D01*
X194150000Y-72597144D01*
X194150000Y-75860261D01*
X194130315Y-75927300D01*
X194126903Y-75932334D01*
X193937090Y-76198073D01*
X193882106Y-76241184D01*
X193836187Y-76250000D01*
X192613813Y-76250000D01*
X192546774Y-76230315D01*
X192512910Y-76198073D01*
X192323097Y-75932334D01*
X192300149Y-75866341D01*
X192300000Y-75860261D01*
X192300000Y-72631619D01*
X192315141Y-72572241D01*
X192600000Y-72050000D01*
X192600000Y-70712000D01*
X192619685Y-70644961D01*
X192649600Y-70612800D01*
X192800000Y-70500000D01*
X192800000Y-70335121D01*
X192801262Y-70317474D01*
X192805500Y-70287999D01*
X192805500Y-69645862D01*
X192825185Y-69578823D01*
X192841821Y-69558179D01*
X192863684Y-69536317D01*
X192925008Y-69502833D01*
X192951363Y-69500000D01*
X193348638Y-69500000D01*
X193415677Y-69519685D01*
G37*
%TD.AperFunction*%
%TD*%
%TA.AperFunction,Conductor*%
%TO.N,GND*%
G36*
X180729495Y-122519685D02*
G01*
X180731211Y-122520807D01*
X180794783Y-122563189D01*
X180839644Y-122616752D01*
X180850000Y-122666362D01*
X180850000Y-124233637D01*
X180830315Y-124300676D01*
X180794783Y-124336811D01*
X180731239Y-124379174D01*
X180664540Y-124399982D01*
X180662456Y-124400000D01*
X179201362Y-124400000D01*
X179134323Y-124380315D01*
X179113681Y-124363681D01*
X179086319Y-124336319D01*
X179052834Y-124274996D01*
X179050000Y-124248638D01*
X179050000Y-122651362D01*
X179069685Y-122584323D01*
X179086319Y-122563681D01*
X179113681Y-122536319D01*
X179175004Y-122502834D01*
X179201362Y-122500000D01*
X180662456Y-122500000D01*
X180729495Y-122519685D01*
G37*
%TD.AperFunction*%
%TD*%
%TA.AperFunction,Conductor*%
%TO.N,GND*%
G36*
X160679451Y-48917670D02*
G01*
X160790539Y-48984323D01*
X160839797Y-49013878D01*
X160887156Y-49065249D01*
X160900000Y-49120207D01*
X160900000Y-51529792D01*
X160880315Y-51596831D01*
X160839797Y-51636121D01*
X160679450Y-51732329D01*
X160615655Y-51750000D01*
X160050000Y-51750000D01*
X159876181Y-51836909D01*
X159820728Y-51850000D01*
X159401362Y-51850000D01*
X159334323Y-51830315D01*
X159313681Y-51813681D01*
X159286319Y-51786319D01*
X159252834Y-51724996D01*
X159250000Y-51698638D01*
X159250000Y-49051362D01*
X159269685Y-48984323D01*
X159286319Y-48963681D01*
X159313681Y-48936319D01*
X159375004Y-48902834D01*
X159401362Y-48900000D01*
X160615655Y-48900000D01*
X160679451Y-48917670D01*
G37*
%TD.AperFunction*%
%TD*%
%TA.AperFunction,Conductor*%
%TO.N,+3V3*%
G36*
X162929677Y-86081185D02*
G01*
X162950319Y-86097819D01*
X162977681Y-86125181D01*
X163011166Y-86186504D01*
X163014000Y-86212862D01*
X163014000Y-86682000D01*
X162994315Y-86749039D01*
X162941511Y-86794794D01*
X162890000Y-86806000D01*
X161315361Y-86806000D01*
X161288065Y-86807463D01*
X161288060Y-86807463D01*
X161288048Y-86807464D01*
X161288040Y-86807464D01*
X161288011Y-86807467D01*
X161255634Y-86810949D01*
X161255460Y-86809340D01*
X161193623Y-86804358D01*
X161138068Y-86761985D01*
X161114241Y-86696304D01*
X161114000Y-86688571D01*
X161114000Y-86212862D01*
X161133685Y-86145823D01*
X161150319Y-86125181D01*
X161177681Y-86097819D01*
X161239004Y-86064334D01*
X161265362Y-86061500D01*
X162862638Y-86061500D01*
X162929677Y-86081185D01*
G37*
%TD.AperFunction*%
%TD*%
%TA.AperFunction,Conductor*%
%TO.N,GND*%
G36*
X180715677Y-100519685D02*
G01*
X180736319Y-100536319D01*
X180863681Y-100663681D01*
X180897166Y-100725004D01*
X180900000Y-100751362D01*
X180900000Y-102842956D01*
X180880315Y-102909995D01*
X180856684Y-102937116D01*
X180738901Y-103038043D01*
X180675186Y-103066716D01*
X180658217Y-103067883D01*
X179648527Y-103067883D01*
X179581488Y-103048198D01*
X179569750Y-103039644D01*
X179445223Y-102937202D01*
X179405956Y-102879410D01*
X179400000Y-102841441D01*
X179400000Y-102600000D01*
X179200000Y-102400000D01*
X177051362Y-102400000D01*
X176984323Y-102380315D01*
X176963681Y-102363681D01*
X176836319Y-102236319D01*
X176802834Y-102174996D01*
X176800000Y-102148638D01*
X176800000Y-100751362D01*
X176819685Y-100684323D01*
X176836319Y-100663681D01*
X176963681Y-100536319D01*
X177025004Y-100502834D01*
X177051362Y-100500000D01*
X180648638Y-100500000D01*
X180715677Y-100519685D01*
G37*
%TD.AperFunction*%
%TD*%
%TA.AperFunction,Conductor*%
%TO.N,GND*%
G36*
X151913071Y-87108255D02*
G01*
X151966453Y-87153334D01*
X151986990Y-87220117D01*
X151987000Y-87221696D01*
X151987000Y-88329877D01*
X151980637Y-88369089D01*
X151915263Y-88565212D01*
X151875389Y-88622587D01*
X151810826Y-88649295D01*
X151797626Y-88650000D01*
X150363636Y-88650000D01*
X150296597Y-88630315D01*
X150252727Y-88581454D01*
X150150091Y-88376182D01*
X150137000Y-88320728D01*
X150137000Y-87228827D01*
X150156685Y-87161788D01*
X150209489Y-87116033D01*
X150269974Y-87107336D01*
X150270128Y-87105184D01*
X150274543Y-87105499D01*
X150274544Y-87105500D01*
X150274545Y-87105500D01*
X151799422Y-87105500D01*
X151799456Y-87105500D01*
X151801663Y-87105490D01*
X151801775Y-87105489D01*
X151801782Y-87105489D01*
X151802550Y-87105482D01*
X151803747Y-87105472D01*
X151843793Y-87099193D01*
X151913071Y-87108255D01*
G37*
%TD.AperFunction*%
%TD*%
%TA.AperFunction,Conductor*%
%TO.N,GND*%
G36*
X143565774Y-119098343D02*
G01*
X143586416Y-119114977D01*
X144013778Y-119542339D01*
X144047263Y-119603662D01*
X144050097Y-119630020D01*
X144050097Y-123027296D01*
X144030412Y-123094335D01*
X144013778Y-123114977D01*
X143586416Y-123542339D01*
X143525093Y-123575824D01*
X143498735Y-123578658D01*
X138601459Y-123578658D01*
X138534420Y-123558973D01*
X138513778Y-123542339D01*
X138086416Y-123114977D01*
X138052931Y-123053654D01*
X138050097Y-123027296D01*
X138050097Y-119630020D01*
X138069782Y-119562981D01*
X138086416Y-119542339D01*
X138513778Y-119114977D01*
X138575101Y-119081492D01*
X138601459Y-119078658D01*
X143498735Y-119078658D01*
X143565774Y-119098343D01*
G37*
%TD.AperFunction*%
%TD*%
%TA.AperFunction,Conductor*%
%TO.N,GND*%
G36*
X187240013Y-120405198D02*
G01*
X187260655Y-120421832D01*
X187688017Y-120849194D01*
X187721502Y-120910517D01*
X187724336Y-120936875D01*
X187724336Y-125834151D01*
X187704651Y-125901190D01*
X187688017Y-125921832D01*
X187296668Y-126313181D01*
X187235345Y-126346666D01*
X187208987Y-126349500D01*
X183739685Y-126349500D01*
X183672646Y-126329815D01*
X183652004Y-126313181D01*
X183260655Y-125921832D01*
X183227170Y-125860509D01*
X183224336Y-125834151D01*
X183224336Y-120936875D01*
X183244021Y-120869836D01*
X183260655Y-120849194D01*
X183688017Y-120421832D01*
X183749340Y-120388347D01*
X183775698Y-120385513D01*
X187172974Y-120385513D01*
X187240013Y-120405198D01*
G37*
%TD.AperFunction*%
%TD*%
%TA.AperFunction,Conductor*%
%TO.N,GND*%
G36*
X199952961Y-94430185D02*
G01*
X199981180Y-94455116D01*
X200415259Y-94976011D01*
X200443055Y-95040113D01*
X200444000Y-95055393D01*
X200444000Y-110859138D01*
X200424315Y-110926177D01*
X200407681Y-110946819D01*
X199980319Y-111374181D01*
X199918996Y-111407666D01*
X199892638Y-111410500D01*
X194795362Y-111410500D01*
X194728323Y-111390815D01*
X194707681Y-111374181D01*
X194280319Y-110946819D01*
X194246834Y-110885496D01*
X194244000Y-110859138D01*
X194244000Y-95055393D01*
X194263685Y-94988354D01*
X194272736Y-94976016D01*
X194706819Y-94455116D01*
X194764858Y-94416218D01*
X194802078Y-94410500D01*
X199885922Y-94410500D01*
X199952961Y-94430185D01*
G37*
%TD.AperFunction*%
%TD*%
%TA.AperFunction,Conductor*%
%TO.N,CHARGE_SAFE_HV*%
G36*
X196290677Y-130494685D02*
G01*
X196311319Y-130511319D01*
X196438681Y-130638681D01*
X196472166Y-130700004D01*
X196475000Y-130726362D01*
X196475000Y-134923638D01*
X196455315Y-134990677D01*
X196438681Y-135011319D01*
X196311319Y-135138681D01*
X196249996Y-135172166D01*
X196223638Y-135175000D01*
X194126362Y-135175000D01*
X194059323Y-135155315D01*
X194038681Y-135138681D01*
X193911319Y-135011319D01*
X193877834Y-134949996D01*
X193875000Y-134923638D01*
X193875000Y-130812544D01*
X193894685Y-130745505D01*
X193895826Y-130743761D01*
X194038189Y-130530217D01*
X194091754Y-130485356D01*
X194141363Y-130475000D01*
X196223638Y-130475000D01*
X196290677Y-130494685D01*
G37*
%TD.AperFunction*%
%TD*%
%TA.AperFunction,Conductor*%
%TO.N,GND*%
G36*
X166798673Y-76324420D02*
G01*
X166824631Y-76346713D01*
X166932998Y-76469584D01*
X166962579Y-76532882D01*
X166964000Y-76551604D01*
X166964000Y-77561500D01*
X167221155Y-77786510D01*
X167258644Y-77845469D01*
X167263500Y-77879829D01*
X167263500Y-79387171D01*
X167243815Y-79454210D01*
X167218883Y-79482430D01*
X167098786Y-79582511D01*
X167034683Y-79610307D01*
X167018719Y-79611250D01*
X165888569Y-79605016D01*
X165821639Y-79584962D01*
X165801572Y-79568699D01*
X165773927Y-79541054D01*
X165740442Y-79479731D01*
X165737608Y-79453373D01*
X165737608Y-77624858D01*
X165743971Y-77585646D01*
X165787608Y-77454735D01*
X165787608Y-76546068D01*
X165807293Y-76479029D01*
X165812408Y-76471668D01*
X165900408Y-76354335D01*
X165956379Y-76312514D01*
X165999608Y-76304735D01*
X166731634Y-76304735D01*
X166798673Y-76324420D01*
G37*
%TD.AperFunction*%
%TD*%
%TA.AperFunction,Conductor*%
%TO.N,/PSU/BUCK_SW_3V3*%
G36*
X191305751Y-89630185D02*
G01*
X191335027Y-89656401D01*
X191708425Y-90116925D01*
X191735355Y-90181393D01*
X191736106Y-90195018D01*
X191736106Y-92050672D01*
X191736113Y-92052551D01*
X191736125Y-92054217D01*
X191736126Y-92054324D01*
X191747518Y-92127903D01*
X191747521Y-92127918D01*
X191768151Y-92194645D01*
X191768152Y-92194649D01*
X191785437Y-92236805D01*
X191847705Y-92314647D01*
X191847706Y-92314647D01*
X191847709Y-92314651D01*
X191882885Y-92344264D01*
X191901158Y-92359648D01*
X191938482Y-92385761D01*
X192032958Y-92417582D01*
X192102252Y-92426538D01*
X192102254Y-92426537D01*
X192102255Y-92426538D01*
X192145883Y-92425915D01*
X192174971Y-92425500D01*
X192199469Y-92421619D01*
X192218866Y-92420093D01*
X193215757Y-92420093D01*
X193217193Y-92420015D01*
X193243070Y-92418629D01*
X193269428Y-92415795D01*
X193282943Y-92411562D01*
X193352801Y-92410313D01*
X193412246Y-92447030D01*
X193442403Y-92510057D01*
X193444000Y-92529896D01*
X193444000Y-92909138D01*
X193424315Y-92976177D01*
X193407681Y-92996819D01*
X193380319Y-93024181D01*
X193318996Y-93057666D01*
X193292638Y-93060500D01*
X191544000Y-93060500D01*
X190844000Y-93860500D01*
X190844000Y-93860501D01*
X190844000Y-94859138D01*
X190824315Y-94926177D01*
X190807681Y-94946819D01*
X190380319Y-95374181D01*
X190318996Y-95407666D01*
X190292638Y-95410500D01*
X187195362Y-95410500D01*
X187128323Y-95390815D01*
X187107681Y-95374181D01*
X186680319Y-94946819D01*
X186646834Y-94885496D01*
X186644000Y-94859138D01*
X186644000Y-90161862D01*
X186663685Y-90094823D01*
X186680319Y-90074181D01*
X187107681Y-89646819D01*
X187169004Y-89613334D01*
X187195362Y-89610500D01*
X191238712Y-89610500D01*
X191305751Y-89630185D01*
G37*
%TD.AperFunction*%
%TD*%
%TA.AperFunction,Conductor*%
%TO.N,GND*%
G36*
X200290677Y-130494685D02*
G01*
X200311319Y-130511319D01*
X200438681Y-130638681D01*
X200472166Y-130700004D01*
X200475000Y-130726362D01*
X200475000Y-134823638D01*
X200455315Y-134890677D01*
X200438681Y-134911319D01*
X200311319Y-135038681D01*
X200249996Y-135072166D01*
X200223638Y-135075000D01*
X197726362Y-135075000D01*
X197659323Y-135055315D01*
X197638681Y-135038681D01*
X197511319Y-134911319D01*
X197477834Y-134849996D01*
X197475000Y-134823638D01*
X197475000Y-130726362D01*
X197494685Y-130659323D01*
X197511319Y-130638681D01*
X197638681Y-130511319D01*
X197700004Y-130477834D01*
X197726362Y-130475000D01*
X200223638Y-130475000D01*
X200290677Y-130494685D01*
G37*
%TD.AperFunction*%
%TD*%
%TA.AperFunction,Conductor*%
%TO.N,GND*%
G36*
X167005039Y-96119685D02*
G01*
X167037200Y-96149600D01*
X167274700Y-96466266D01*
X167299176Y-96531708D01*
X167299500Y-96540666D01*
X167299500Y-96718512D01*
X167279815Y-96785551D01*
X167263181Y-96806193D01*
X166105693Y-97963681D01*
X166044370Y-97997166D01*
X166018012Y-98000000D01*
X165281986Y-98000000D01*
X165214947Y-97980315D01*
X165194305Y-97963681D01*
X164136319Y-96905694D01*
X164102834Y-96844371D01*
X164100000Y-96818013D01*
X164100000Y-96541333D01*
X164119685Y-96474294D01*
X164124800Y-96466933D01*
X164362800Y-96149600D01*
X164418771Y-96107779D01*
X164462000Y-96100000D01*
X166938000Y-96100000D01*
X167005039Y-96119685D01*
G37*
%TD.AperFunction*%
%TD*%
%TA.AperFunction,Conductor*%
%TO.N,GND*%
G36*
X163165677Y-45069685D02*
G01*
X163186319Y-45086319D01*
X163297070Y-45197070D01*
X163302708Y-45203096D01*
X163619319Y-45564937D01*
X163648651Y-45628352D01*
X163650000Y-45646592D01*
X163650000Y-46398638D01*
X163630315Y-46465677D01*
X163613681Y-46486319D01*
X163186319Y-46913681D01*
X163124996Y-46947166D01*
X163098638Y-46950000D01*
X162701362Y-46950000D01*
X162634323Y-46930315D01*
X162613681Y-46913681D01*
X162536319Y-46836319D01*
X162502834Y-46774996D01*
X162500000Y-46748638D01*
X162500000Y-45251362D01*
X162519685Y-45184323D01*
X162536319Y-45163681D01*
X162613681Y-45086319D01*
X162675004Y-45052834D01*
X162701362Y-45050000D01*
X163098638Y-45050000D01*
X163165677Y-45069685D01*
G37*
%TD.AperFunction*%
%TD*%
%TA.AperFunction,Conductor*%
%TO.N,/PSU/BUCK_SW_5V*%
G36*
X128756677Y-93644185D02*
G01*
X128777319Y-93660819D01*
X128804681Y-93688181D01*
X128838166Y-93749504D01*
X128841000Y-93775862D01*
X128841000Y-95524500D01*
X129641000Y-96224500D01*
X130639638Y-96224500D01*
X130706677Y-96244185D01*
X130727319Y-96260819D01*
X131154681Y-96688181D01*
X131188166Y-96749504D01*
X131191000Y-96775862D01*
X131191000Y-99873138D01*
X131171315Y-99940177D01*
X131154681Y-99960819D01*
X130727319Y-100388181D01*
X130665996Y-100421666D01*
X130639638Y-100424500D01*
X125942362Y-100424500D01*
X125875323Y-100404815D01*
X125854681Y-100388181D01*
X125427319Y-99960819D01*
X125393834Y-99899496D01*
X125391000Y-99873138D01*
X125391000Y-95829787D01*
X125410685Y-95762748D01*
X125436900Y-95733473D01*
X125897425Y-95360076D01*
X125961895Y-95333145D01*
X125975520Y-95332394D01*
X127822391Y-95332394D01*
X127822535Y-95332393D01*
X127824257Y-95332387D01*
X127826026Y-95332374D01*
X127899621Y-95320980D01*
X127966373Y-95300341D01*
X128008513Y-95283062D01*
X128086361Y-95220788D01*
X128131358Y-95167337D01*
X128157468Y-95130018D01*
X128189289Y-95035542D01*
X128198245Y-94966249D01*
X128197207Y-94893524D01*
X128196828Y-94889109D01*
X128197019Y-94889092D01*
X128196000Y-94876144D01*
X128196000Y-93841753D01*
X128195845Y-93838879D01*
X128194536Y-93814441D01*
X128191702Y-93788083D01*
X128191702Y-93788082D01*
X128191701Y-93788078D01*
X128190909Y-93785548D01*
X128190884Y-93784153D01*
X128190460Y-93782116D01*
X128190846Y-93782035D01*
X128189665Y-93715690D01*
X128226386Y-93656248D01*
X128289415Y-93626096D01*
X128309245Y-93624500D01*
X128689638Y-93624500D01*
X128756677Y-93644185D01*
G37*
%TD.AperFunction*%
%TD*%
%TA.AperFunction,Conductor*%
%TO.N,GND*%
G36*
X186615677Y-63019685D02*
G01*
X186636319Y-63036319D01*
X186763681Y-63163681D01*
X186797166Y-63225004D01*
X186800000Y-63251362D01*
X186800000Y-64848638D01*
X186780315Y-64915677D01*
X186763681Y-64936319D01*
X186636319Y-65063681D01*
X186574996Y-65097166D01*
X186548638Y-65100000D01*
X186151362Y-65100000D01*
X186084323Y-65080315D01*
X186063681Y-65063681D01*
X185936319Y-64936319D01*
X185902834Y-64874996D01*
X185900000Y-64848638D01*
X185900000Y-64000000D01*
X185800000Y-63900000D01*
X184451362Y-63900000D01*
X184384323Y-63880315D01*
X184363681Y-63863681D01*
X184336319Y-63836319D01*
X184302834Y-63774996D01*
X184300000Y-63748638D01*
X184300000Y-63151362D01*
X184319685Y-63084323D01*
X184336319Y-63063681D01*
X184363681Y-63036319D01*
X184425004Y-63002834D01*
X184451362Y-63000000D01*
X186548638Y-63000000D01*
X186615677Y-63019685D01*
G37*
%TD.AperFunction*%
%TD*%
%TA.AperFunction,Conductor*%
%TO.N,GND*%
G36*
X146706677Y-86644185D02*
G01*
X146727319Y-86660819D01*
X147154681Y-87088181D01*
X147188166Y-87149504D01*
X147191000Y-87175862D01*
X147191000Y-92273138D01*
X147171315Y-92340177D01*
X147154681Y-92360819D01*
X146727319Y-92788181D01*
X146665996Y-92821666D01*
X146639638Y-92824500D01*
X130835894Y-92824500D01*
X130768855Y-92804815D01*
X130756511Y-92795759D01*
X130235617Y-92361680D01*
X130196718Y-92303641D01*
X130191000Y-92266421D01*
X130191000Y-87182578D01*
X130210685Y-87115539D01*
X130235617Y-87087319D01*
X130756511Y-86653241D01*
X130820614Y-86625445D01*
X130835894Y-86624500D01*
X146639638Y-86624500D01*
X146706677Y-86644185D01*
G37*
%TD.AperFunction*%
%TD*%
%TA.AperFunction,Conductor*%
%TO.N,+5V*%
G36*
X142648192Y-58617381D02*
G01*
X142689007Y-58625500D01*
X142689009Y-58625500D01*
X144213354Y-58625500D01*
X144213357Y-58625500D01*
X144213359Y-58625499D01*
X144213831Y-58625453D01*
X144214079Y-58625500D01*
X144219449Y-58625500D01*
X144219449Y-58626517D01*
X144282479Y-58638463D01*
X144333195Y-58686522D01*
X144350000Y-58748854D01*
X144350000Y-60320767D01*
X144330315Y-60387806D01*
X144294783Y-60423941D01*
X144231239Y-60466304D01*
X144164540Y-60487112D01*
X144162456Y-60487130D01*
X142687544Y-60487130D01*
X142620505Y-60467445D01*
X142618761Y-60466304D01*
X142555217Y-60423941D01*
X142510356Y-60370375D01*
X142500000Y-60320767D01*
X142500000Y-60175090D01*
X142508057Y-60131122D01*
X142536237Y-60056818D01*
X142555278Y-59900000D01*
X142536237Y-59743182D01*
X142508058Y-59668879D01*
X142500000Y-59624908D01*
X142500000Y-58738998D01*
X142519685Y-58671959D01*
X142572489Y-58626204D01*
X142641647Y-58616260D01*
X142648192Y-58617381D01*
G37*
%TD.AperFunction*%
%TD*%
%TA.AperFunction,Conductor*%
%TO.N,VBUS*%
G36*
X160444603Y-103380940D02*
G01*
X165399979Y-103400000D01*
X165400000Y-103400000D01*
X182955106Y-103400000D01*
X183022145Y-103419685D01*
X183034489Y-103428741D01*
X183555434Y-103862862D01*
X183594333Y-103920901D01*
X183600051Y-103958010D01*
X183610295Y-115448104D01*
X183590670Y-115515161D01*
X183573411Y-115536457D01*
X182836219Y-116264242D01*
X182774683Y-116297333D01*
X182749103Y-116300000D01*
X165761057Y-116300000D01*
X165694018Y-116280315D01*
X165662772Y-116251604D01*
X165096277Y-115515161D01*
X161700000Y-111100000D01*
X139239652Y-111100000D01*
X139172613Y-111080315D01*
X139167706Y-111076994D01*
X138690559Y-110737082D01*
X138647379Y-110682152D01*
X138638505Y-110636088D01*
X138638505Y-103960164D01*
X138658190Y-103893125D01*
X138685762Y-103862765D01*
X139236607Y-103428741D01*
X139366030Y-103326765D01*
X139430870Y-103300738D01*
X139443242Y-103300166D01*
X160444603Y-103380940D01*
G37*
%TD.AperFunction*%
%TD*%
%TA.AperFunction,Conductor*%
%TO.N,+3V3*%
G36*
X179559677Y-76230185D02*
G01*
X179580319Y-76246819D01*
X180007681Y-76674181D01*
X180041166Y-76735504D01*
X180044000Y-76761862D01*
X180044000Y-80122712D01*
X180042732Y-80140399D01*
X180038479Y-80169905D01*
X180038479Y-80169909D01*
X180036116Y-87477216D01*
X180042951Y-87529417D01*
X180044000Y-87545515D01*
X180044000Y-88610500D01*
X181044000Y-89560500D01*
X184292638Y-89560500D01*
X184359677Y-89580185D01*
X184380319Y-89596819D01*
X184907681Y-90124181D01*
X184941166Y-90185504D01*
X184944000Y-90211862D01*
X184944000Y-94759138D01*
X184924315Y-94826177D01*
X184907681Y-94846819D01*
X184480319Y-95274181D01*
X184418996Y-95307666D01*
X184392638Y-95310500D01*
X176606542Y-95310500D01*
X176541445Y-95292038D01*
X176448893Y-95234951D01*
X176289291Y-95182064D01*
X176289289Y-95182063D01*
X176190787Y-95172000D01*
X176190780Y-95172000D01*
X175582432Y-95172000D01*
X175582424Y-95172000D01*
X175483922Y-95182063D01*
X175483921Y-95182064D01*
X175324319Y-95234951D01*
X175249512Y-95281092D01*
X175182121Y-95299533D01*
X175115458Y-95278611D01*
X175096735Y-95263235D01*
X174680319Y-94846819D01*
X174646834Y-94785496D01*
X174644000Y-94759138D01*
X174644000Y-76761862D01*
X174663685Y-76694823D01*
X174680319Y-76674181D01*
X175107681Y-76246819D01*
X175169004Y-76213334D01*
X175195362Y-76210500D01*
X179492638Y-76210500D01*
X179559677Y-76230185D01*
G37*
%TD.AperFunction*%
%TD*%
%TA.AperFunction,Conductor*%
%TO.N,GND*%
G36*
X138209996Y-106319685D02*
G01*
X138237117Y-106343316D01*
X138338043Y-106461099D01*
X138366716Y-106524814D01*
X138367883Y-106541783D01*
X138367883Y-107551473D01*
X138348198Y-107618512D01*
X138339644Y-107630250D01*
X138237202Y-107754777D01*
X138179410Y-107794044D01*
X138141441Y-107800000D01*
X137899999Y-107800000D01*
X137700000Y-107999999D01*
X137700000Y-110148638D01*
X137680315Y-110215677D01*
X137663681Y-110236319D01*
X137536319Y-110363681D01*
X137474996Y-110397166D01*
X137448638Y-110400000D01*
X136051362Y-110400000D01*
X135984323Y-110380315D01*
X135963681Y-110363681D01*
X135836319Y-110236319D01*
X135802834Y-110174996D01*
X135800000Y-110148638D01*
X135800000Y-106551362D01*
X135819685Y-106484323D01*
X135836319Y-106463681D01*
X135963681Y-106336319D01*
X136025004Y-106302834D01*
X136051362Y-106300000D01*
X138142957Y-106300000D01*
X138209996Y-106319685D01*
G37*
%TD.AperFunction*%
%TD*%
%TA.AperFunction,Conductor*%
%TO.N,Net-(D407-A2)*%
G36*
X195700122Y-92312069D02*
G01*
X195737907Y-92337906D01*
X195813681Y-92413680D01*
X195847166Y-92475003D01*
X195850000Y-92501361D01*
X195850000Y-92898637D01*
X195830315Y-92965676D01*
X195813681Y-92986318D01*
X195736319Y-93063680D01*
X195674996Y-93097165D01*
X195648638Y-93099999D01*
X194150000Y-93099999D01*
X193999999Y-93299998D01*
X193999999Y-93299999D01*
X193850432Y-110849256D01*
X193830177Y-110916125D01*
X193814118Y-110935880D01*
X193386318Y-111363680D01*
X193324995Y-111397165D01*
X193298637Y-111399999D01*
X185201326Y-111399999D01*
X185134287Y-111380314D01*
X185113688Y-111363724D01*
X184685866Y-110936328D01*
X184652351Y-110875021D01*
X184649504Y-110848595D01*
X184649996Y-103551789D01*
X184669685Y-103484753D01*
X184686835Y-103463600D01*
X185035385Y-103119182D01*
X185096904Y-103086067D01*
X185138725Y-103084449D01*
X185143235Y-103085042D01*
X185143238Y-103085044D01*
X185300000Y-103105682D01*
X185300001Y-103105682D01*
X185352254Y-103098802D01*
X185456762Y-103085044D01*
X185602841Y-103024536D01*
X185602845Y-103024532D01*
X185609876Y-103020474D01*
X185610763Y-103022011D01*
X185666600Y-103000428D01*
X185676911Y-102999999D01*
X187423089Y-102999999D01*
X187490128Y-103019684D01*
X187496434Y-103024117D01*
X187497157Y-103024534D01*
X187497159Y-103024536D01*
X187497160Y-103024536D01*
X187497163Y-103024538D01*
X187570198Y-103054790D01*
X187643238Y-103085044D01*
X187721619Y-103095363D01*
X187799999Y-103105682D01*
X187800000Y-103105682D01*
X187800001Y-103105682D01*
X187852254Y-103098802D01*
X187956762Y-103085044D01*
X188102841Y-103024536D01*
X188102845Y-103024532D01*
X188109876Y-103020474D01*
X188110763Y-103022011D01*
X188166600Y-103000428D01*
X188176911Y-102999999D01*
X189923089Y-102999999D01*
X189990128Y-103019684D01*
X189996434Y-103024117D01*
X189997157Y-103024534D01*
X189997159Y-103024536D01*
X189997160Y-103024536D01*
X189997163Y-103024538D01*
X190070198Y-103054790D01*
X190143238Y-103085044D01*
X190221619Y-103095363D01*
X190299999Y-103105682D01*
X190300000Y-103105682D01*
X190300001Y-103105682D01*
X190352254Y-103098802D01*
X190456762Y-103085044D01*
X190602841Y-103024536D01*
X190602845Y-103024532D01*
X190609876Y-103020474D01*
X190610763Y-103022011D01*
X190666600Y-103000428D01*
X190676911Y-102999999D01*
X190749500Y-102999999D01*
X190749501Y-102999999D01*
X191300000Y-102499999D01*
X191300000Y-101191973D01*
X191300000Y-101191972D01*
X191299999Y-101191971D01*
X190636826Y-100536403D01*
X190602988Y-100475274D01*
X190600000Y-100448218D01*
X190600000Y-98948666D01*
X190619685Y-98881627D01*
X190633101Y-98864325D01*
X191249501Y-98200000D01*
X191249501Y-93897938D01*
X191269186Y-93830899D01*
X191281749Y-93814526D01*
X191698057Y-93356588D01*
X191757718Y-93320225D01*
X191789809Y-93316000D01*
X193292639Y-93316000D01*
X193294075Y-93315922D01*
X193319952Y-93314536D01*
X193346310Y-93311702D01*
X193365590Y-93305664D01*
X193402644Y-93299999D01*
X193550000Y-93299999D01*
X193830000Y-92949999D01*
X194306718Y-92354100D01*
X194363969Y-92314049D01*
X194422944Y-92309090D01*
X194464003Y-92315593D01*
X195552040Y-92315592D01*
X195552044Y-92315592D01*
X195608468Y-92306655D01*
X195630828Y-92303114D01*
X195700122Y-92312069D01*
G37*
%TD.AperFunction*%
%TD*%
%TA.AperFunction,Conductor*%
%TO.N,FAN_EN_HV*%
G36*
X132629495Y-133219685D02*
G01*
X132631239Y-133220826D01*
X132844784Y-133363189D01*
X132889644Y-133416753D01*
X132900000Y-133466362D01*
X132900000Y-135548638D01*
X132880315Y-135615677D01*
X132863681Y-135636319D01*
X132736319Y-135763681D01*
X132674996Y-135797166D01*
X132648638Y-135800000D01*
X128451362Y-135800000D01*
X128384323Y-135780315D01*
X128363681Y-135763681D01*
X128236319Y-135636319D01*
X128202834Y-135574996D01*
X128200000Y-135548638D01*
X128200000Y-133451362D01*
X128219685Y-133384323D01*
X128236319Y-133363681D01*
X128363681Y-133236319D01*
X128425004Y-133202834D01*
X128451362Y-133200000D01*
X132562456Y-133200000D01*
X132629495Y-133219685D01*
G37*
%TD.AperFunction*%
%TD*%
%TA.AperFunction,Conductor*%
%TO.N,+3V3*%
G36*
X151902677Y-86069685D02*
G01*
X151923319Y-86086319D01*
X151950681Y-86113681D01*
X151984166Y-86175004D01*
X151987000Y-86201362D01*
X151987000Y-86683637D01*
X151967315Y-86750676D01*
X151931783Y-86786811D01*
X151868239Y-86829174D01*
X151801540Y-86849982D01*
X151799456Y-86850000D01*
X150274544Y-86850000D01*
X150207505Y-86830315D01*
X150205761Y-86829174D01*
X150142217Y-86786811D01*
X150097356Y-86733245D01*
X150087000Y-86683637D01*
X150087000Y-86201362D01*
X150106685Y-86134323D01*
X150123319Y-86113681D01*
X150150681Y-86086319D01*
X150212004Y-86052834D01*
X150238362Y-86050000D01*
X151835638Y-86050000D01*
X151902677Y-86069685D01*
G37*
%TD.AperFunction*%
%TD*%
%TA.AperFunction,Conductor*%
%TO.N,GND*%
G36*
X155782052Y-76512920D02*
G01*
X155795342Y-76522772D01*
X155893329Y-76606098D01*
X155931648Y-76664523D01*
X155937000Y-76700561D01*
X155937000Y-77700000D01*
X156194155Y-77925010D01*
X156231644Y-77983969D01*
X156236500Y-78018329D01*
X156236500Y-79550637D01*
X156216815Y-79617676D01*
X156181282Y-79653812D01*
X156068548Y-79728967D01*
X156001849Y-79749775D01*
X155999082Y-79749790D01*
X154861569Y-79743516D01*
X154794639Y-79723462D01*
X154774572Y-79707199D01*
X154746927Y-79679554D01*
X154713442Y-79618231D01*
X154710608Y-79591873D01*
X154710608Y-77763358D01*
X154716971Y-77724146D01*
X154760608Y-77593235D01*
X154760608Y-76694597D01*
X154780293Y-76627558D01*
X154796927Y-76606916D01*
X154874289Y-76529554D01*
X154935612Y-76496069D01*
X154961970Y-76493235D01*
X155715013Y-76493235D01*
X155782052Y-76512920D01*
G37*
%TD.AperFunction*%
%TD*%
%TA.AperFunction,Conductor*%
%TO.N,GND*%
G36*
X162954403Y-87081185D02*
G01*
X162998273Y-87130046D01*
X163000909Y-87135318D01*
X163014000Y-87190772D01*
X163014000Y-88344133D01*
X163009229Y-88378198D01*
X162939696Y-88621565D01*
X162902352Y-88680618D01*
X162839010Y-88710106D01*
X162820467Y-88711500D01*
X161395765Y-88711500D01*
X161328726Y-88691815D01*
X161282971Y-88639011D01*
X161281791Y-88636346D01*
X161174026Y-88384894D01*
X161164000Y-88336048D01*
X161164000Y-87212862D01*
X161183685Y-87145823D01*
X161200319Y-87125181D01*
X161227681Y-87097819D01*
X161289004Y-87064334D01*
X161315362Y-87061500D01*
X162887364Y-87061500D01*
X162954403Y-87081185D01*
G37*
%TD.AperFunction*%
%TD*%
%TA.AperFunction,Conductor*%
%TO.N,GND*%
G36*
X163107955Y-122619685D02*
G01*
X163153710Y-122672489D01*
X163160689Y-122691902D01*
X163173386Y-122739288D01*
X163173387Y-122739289D01*
X163173387Y-122739290D01*
X163219526Y-122819206D01*
X163219528Y-122819208D01*
X163219530Y-122819212D01*
X163219532Y-122819214D01*
X163224372Y-122825520D01*
X163249569Y-122890688D01*
X163250000Y-122901012D01*
X163250000Y-124348638D01*
X163230315Y-124415677D01*
X163213681Y-124436319D01*
X163186319Y-124463681D01*
X163124996Y-124497166D01*
X163098638Y-124500000D01*
X161637544Y-124500000D01*
X161570505Y-124480315D01*
X161568761Y-124479174D01*
X161505217Y-124436811D01*
X161460356Y-124383245D01*
X161450000Y-124333637D01*
X161450000Y-122766362D01*
X161469685Y-122699323D01*
X161505215Y-122663189D01*
X161568762Y-122620824D01*
X161635461Y-122600017D01*
X161637544Y-122600000D01*
X163040916Y-122600000D01*
X163107955Y-122619685D01*
G37*
%TD.AperFunction*%
%TD*%
%TA.AperFunction,Conductor*%
%TO.N,Net-(D408-A2)*%
G36*
X128756677Y-91244185D02*
G01*
X128777319Y-91260819D01*
X128854681Y-91338181D01*
X128888166Y-91399504D01*
X128891000Y-91425862D01*
X128891000Y-91531752D01*
X128890618Y-91541475D01*
X128890500Y-91542975D01*
X128890500Y-92631018D01*
X128890617Y-92632491D01*
X128891000Y-92642227D01*
X128891000Y-92924500D01*
X128890999Y-92924500D01*
X129090999Y-93074500D01*
X129368092Y-93076861D01*
X146640258Y-93224067D01*
X146707126Y-93244322D01*
X146726881Y-93260381D01*
X147154736Y-93688236D01*
X147188221Y-93749559D01*
X147191055Y-93775784D01*
X147197706Y-99965997D01*
X147196646Y-99982309D01*
X147194318Y-99999998D01*
X147196719Y-100018239D01*
X147197779Y-100034288D01*
X147199937Y-102041913D01*
X147180324Y-102108973D01*
X147155412Y-102137229D01*
X146725516Y-102496178D01*
X146661440Y-102524035D01*
X146646033Y-102524995D01*
X139336534Y-102524503D01*
X139269496Y-102504814D01*
X139256292Y-102495033D01*
X139011973Y-102287606D01*
X138834746Y-102137140D01*
X138796381Y-102078746D01*
X138791000Y-102042613D01*
X138791000Y-96324999D01*
X138291000Y-95824999D01*
X136799999Y-95799999D01*
X136085731Y-96466651D01*
X136023291Y-96498003D01*
X136001124Y-96500000D01*
X134597583Y-96500000D01*
X134530544Y-96480315D01*
X134514631Y-96468168D01*
X134512945Y-96466651D01*
X134355555Y-96324999D01*
X133800001Y-95824999D01*
X133800000Y-95824999D01*
X129688939Y-95824999D01*
X129621900Y-95805314D01*
X129605528Y-95792752D01*
X129137089Y-95366898D01*
X129100725Y-95307237D01*
X129096500Y-95275145D01*
X129096500Y-93775860D01*
X129096345Y-93772986D01*
X129095036Y-93748548D01*
X129092202Y-93722190D01*
X129091711Y-93717622D01*
X129091000Y-93704365D01*
X129091000Y-93524500D01*
X128137538Y-92761730D01*
X128097486Y-92704479D01*
X128091000Y-92664902D01*
X128091000Y-92642242D01*
X128091383Y-92632508D01*
X128091498Y-92631028D01*
X128091500Y-92631019D01*
X128091499Y-91542982D01*
X128091499Y-91542981D01*
X128091499Y-91542977D01*
X128091382Y-91541490D01*
X128091000Y-91531767D01*
X128091000Y-91425862D01*
X128110685Y-91358823D01*
X128127319Y-91338181D01*
X128204681Y-91260819D01*
X128266004Y-91227334D01*
X128292362Y-91224500D01*
X128689638Y-91224500D01*
X128756677Y-91244185D01*
G37*
%TD.AperFunction*%
%TD*%
%TA.AperFunction,Conductor*%
%TO.N,DISCHARGE_EN_HV*%
G36*
X157015677Y-116719685D02*
G01*
X157036319Y-116736319D01*
X157163681Y-116863681D01*
X157197166Y-116925004D01*
X157200000Y-116951362D01*
X157200000Y-121148638D01*
X157180315Y-121215677D01*
X157163681Y-121236319D01*
X157036319Y-121363681D01*
X156974996Y-121397166D01*
X156948638Y-121400000D01*
X154851362Y-121400000D01*
X154784323Y-121380315D01*
X154763681Y-121363681D01*
X154636319Y-121236319D01*
X154602834Y-121174996D01*
X154600000Y-121148638D01*
X154600000Y-117037544D01*
X154619685Y-116970505D01*
X154620826Y-116968761D01*
X154763189Y-116755217D01*
X154816754Y-116710356D01*
X154866363Y-116700000D01*
X156948638Y-116700000D01*
X157015677Y-116719685D01*
G37*
%TD.AperFunction*%
%TD*%
%TA.AperFunction,Conductor*%
%TO.N,CHARGE_EN_HV*%
G36*
X125965677Y-124919685D02*
G01*
X125986319Y-124936319D01*
X126113681Y-125063681D01*
X126147166Y-125125004D01*
X126150000Y-125151362D01*
X126150000Y-127248638D01*
X126130315Y-127315677D01*
X126113681Y-127336319D01*
X125986319Y-127463681D01*
X125924996Y-127497166D01*
X125898638Y-127500000D01*
X121787544Y-127500000D01*
X121720505Y-127480315D01*
X121718761Y-127479174D01*
X121505217Y-127336811D01*
X121460356Y-127283246D01*
X121450000Y-127233637D01*
X121450000Y-125151362D01*
X121469685Y-125084323D01*
X121486319Y-125063681D01*
X121613681Y-124936319D01*
X121675004Y-124902834D01*
X121701362Y-124900000D01*
X125898638Y-124900000D01*
X125965677Y-124919685D01*
G37*
%TD.AperFunction*%
%TD*%
%TA.AperFunction,Conductor*%
%TO.N,GND*%
G36*
X123920601Y-141764761D02*
G01*
X123941243Y-141781395D01*
X124368605Y-142208757D01*
X124402090Y-142270080D01*
X124404924Y-142296438D01*
X124404924Y-145693714D01*
X124385239Y-145760753D01*
X124368605Y-145781395D01*
X123941243Y-146208757D01*
X123879920Y-146242242D01*
X123853562Y-146245076D01*
X118956286Y-146245076D01*
X118889247Y-146225391D01*
X118868605Y-146208757D01*
X118441243Y-145781395D01*
X118407758Y-145720072D01*
X118404924Y-145693714D01*
X118404924Y-142296438D01*
X118424609Y-142229399D01*
X118441243Y-142208757D01*
X118868605Y-141781395D01*
X118929928Y-141747910D01*
X118956286Y-141745076D01*
X123853562Y-141745076D01*
X123920601Y-141764761D01*
G37*
%TD.AperFunction*%
%TD*%
%TA.AperFunction,Conductor*%
%TO.N,+3V3*%
G36*
X158864806Y-48903702D02*
G01*
X158889533Y-48909883D01*
X158901897Y-48912974D01*
X158962161Y-48948329D01*
X158993745Y-49010653D01*
X158994484Y-49046922D01*
X158994816Y-49046946D01*
X158994558Y-49050542D01*
X158994566Y-49050897D01*
X158994500Y-49051349D01*
X158994500Y-49554138D01*
X158974815Y-49621177D01*
X158958181Y-49641819D01*
X158936319Y-49663681D01*
X158874996Y-49697166D01*
X158848638Y-49700000D01*
X157351362Y-49700000D01*
X157284323Y-49680315D01*
X157263681Y-49663681D01*
X157186319Y-49586319D01*
X157152834Y-49524996D01*
X157150000Y-49498638D01*
X157150000Y-49026636D01*
X157169685Y-48959597D01*
X157218546Y-48915727D01*
X157223818Y-48913091D01*
X157279272Y-48900000D01*
X158834734Y-48900000D01*
X158864806Y-48903702D01*
G37*
%TD.AperFunction*%
%TD*%
%TA.AperFunction,Conductor*%
%TO.N,GND*%
G36*
X192465677Y-69469685D02*
G01*
X192486319Y-69486319D01*
X192513681Y-69513681D01*
X192547166Y-69575004D01*
X192550000Y-69601362D01*
X192550000Y-70287999D01*
X192530315Y-70355038D01*
X192500400Y-70387199D01*
X192150000Y-70649999D01*
X192150000Y-71633637D01*
X192130315Y-71700676D01*
X192094783Y-71736811D01*
X192031239Y-71779174D01*
X191964540Y-71799982D01*
X191962456Y-71800000D01*
X190697145Y-71800000D01*
X190630106Y-71780315D01*
X190614764Y-71768679D01*
X190466619Y-71636994D01*
X190429591Y-71577742D01*
X190425000Y-71544315D01*
X190425000Y-69747583D01*
X190444685Y-69680544D01*
X190456832Y-69664631D01*
X190613057Y-69491048D01*
X190672535Y-69454387D01*
X190705225Y-69450000D01*
X192398638Y-69450000D01*
X192465677Y-69469685D01*
G37*
%TD.AperFunction*%
%TD*%
%TA.AperFunction,Conductor*%
%TO.N,VDDA*%
G36*
X157351362Y-49955500D02*
G01*
X157351367Y-49955500D01*
X158054138Y-49955500D01*
X158121177Y-49975185D01*
X158141819Y-49991819D01*
X158150000Y-50000000D01*
X158848638Y-50000000D01*
X158915677Y-50019685D01*
X158936319Y-50036319D01*
X158958181Y-50058181D01*
X158991666Y-50119504D01*
X158994500Y-50145862D01*
X158994500Y-51698639D01*
X158995611Y-51719362D01*
X158979544Y-51787359D01*
X158929265Y-51835875D01*
X158871789Y-51850000D01*
X158400000Y-51850000D01*
X158266363Y-51850000D01*
X158199324Y-51830315D01*
X158163189Y-51794783D01*
X158120826Y-51731239D01*
X158100018Y-51664540D01*
X158100000Y-51662456D01*
X158100000Y-51000000D01*
X158099998Y-50999998D01*
X157900001Y-50900000D01*
X157900000Y-50900000D01*
X157551362Y-50900000D01*
X157484323Y-50880315D01*
X157463681Y-50863681D01*
X157236319Y-50636319D01*
X157202834Y-50574996D01*
X157200000Y-50548638D01*
X157200000Y-50076840D01*
X157219685Y-50009801D01*
X157272489Y-49964046D01*
X157341642Y-49954102D01*
X157351362Y-49955500D01*
G37*
%TD.AperFunction*%
%TD*%
%TA.AperFunction,Conductor*%
%TO.N,GND*%
G36*
X132615677Y-129019685D02*
G01*
X132636319Y-129036319D01*
X132763681Y-129163681D01*
X132797166Y-129225004D01*
X132800000Y-129251362D01*
X132800000Y-131748638D01*
X132780315Y-131815677D01*
X132763681Y-131836319D01*
X132636319Y-131963681D01*
X132574996Y-131997166D01*
X132548638Y-132000000D01*
X131700000Y-132000000D01*
X128451362Y-132000000D01*
X128384323Y-131980315D01*
X128363681Y-131963681D01*
X128236319Y-131836319D01*
X128202834Y-131774996D01*
X128200000Y-131748638D01*
X128200000Y-129251362D01*
X128219685Y-129184323D01*
X128236319Y-129163681D01*
X128363681Y-129036319D01*
X128425004Y-129002834D01*
X128451362Y-129000000D01*
X132548638Y-129000000D01*
X132615677Y-129019685D01*
G37*
%TD.AperFunction*%
%TD*%
%TA.AperFunction,Conductor*%
%TO.N,GND*%
G36*
X161015677Y-116719685D02*
G01*
X161036319Y-116736319D01*
X161163681Y-116863681D01*
X161197166Y-116925004D01*
X161200000Y-116951362D01*
X161200000Y-121048638D01*
X161180315Y-121115677D01*
X161163681Y-121136319D01*
X161036319Y-121263681D01*
X160974996Y-121297166D01*
X160948638Y-121300000D01*
X158451362Y-121300000D01*
X158384323Y-121280315D01*
X158363681Y-121263681D01*
X158236319Y-121136319D01*
X158202834Y-121074996D01*
X158200000Y-121048638D01*
X158200000Y-116951362D01*
X158219685Y-116884323D01*
X158236319Y-116863681D01*
X158363681Y-116736319D01*
X158425004Y-116702834D01*
X158451362Y-116700000D01*
X160948638Y-116700000D01*
X161015677Y-116719685D01*
G37*
%TD.AperFunction*%
%TD*%
%TA.AperFunction,Conductor*%
%TO.N,GND*%
G36*
X167465677Y-49619685D02*
G01*
X167486319Y-49636319D01*
X167563681Y-49713681D01*
X167597166Y-49775004D01*
X167600000Y-49801362D01*
X167600000Y-51748638D01*
X167580315Y-51815677D01*
X167563681Y-51836319D01*
X167486319Y-51913681D01*
X167424996Y-51947166D01*
X167398638Y-51950000D01*
X165666363Y-51950000D01*
X165599324Y-51930315D01*
X165563189Y-51894783D01*
X165520826Y-51831239D01*
X165500018Y-51764540D01*
X165500000Y-51762456D01*
X165500000Y-51091333D01*
X165519685Y-51024294D01*
X165524800Y-51016933D01*
X165650000Y-50850000D01*
X165650000Y-50200000D01*
X165650000Y-49801362D01*
X165669685Y-49734323D01*
X165686319Y-49713681D01*
X165763681Y-49636319D01*
X165825004Y-49602834D01*
X165851362Y-49600000D01*
X167398638Y-49600000D01*
X167465677Y-49619685D01*
G37*
%TD.AperFunction*%
%TD*%
M02*
