%TF.GenerationSoftware,KiCad,Pcbnew,8.0.3*%
%TF.CreationDate,2025-02-03T16:29:30-06:00*%
%TF.ProjectId,FSAE_BMS,46534145-5f42-44d5-932e-6b696361645f,rev?*%
%TF.SameCoordinates,Original*%
%TF.FileFunction,Copper,L4,Bot*%
%TF.FilePolarity,Positive*%
%FSLAX46Y46*%
G04 Gerber Fmt 4.6, Leading zero omitted, Abs format (unit mm)*
G04 Created by KiCad (PCBNEW 8.0.3) date 2025-02-03 16:29:30*
%MOMM*%
%LPD*%
G01*
G04 APERTURE LIST*
%TA.AperFunction,ComponentPad*%
%ADD10C,1.950000*%
%TD*%
%TA.AperFunction,ComponentPad*%
%ADD11C,5.400000*%
%TD*%
%TA.AperFunction,ComponentPad*%
%ADD12R,1.520000X1.520000*%
%TD*%
%TA.AperFunction,ComponentPad*%
%ADD13C,1.520000*%
%TD*%
%TA.AperFunction,ComponentPad*%
%ADD14R,1.700000X1.700000*%
%TD*%
%TA.AperFunction,ComponentPad*%
%ADD15O,1.700000X1.700000*%
%TD*%
%TA.AperFunction,ViaPad*%
%ADD16C,0.700000*%
%TD*%
%TA.AperFunction,ViaPad*%
%ADD17C,0.800000*%
%TD*%
%TA.AperFunction,Conductor*%
%ADD18C,0.500000*%
%TD*%
%TA.AperFunction,Conductor*%
%ADD19C,0.300000*%
%TD*%
%TA.AperFunction,Conductor*%
%ADD20C,0.109000*%
%TD*%
G04 APERTURE END LIST*
D10*
%TO.P,J303,1,1*%
%TO.N,unconnected-(J303-Pad1)*%
X175660000Y-127162500D03*
%TO.P,J303,2,2*%
%TO.N,READY_PWR*%
X171660000Y-127162500D03*
%TO.P,J303,3,3*%
%TO.N,CHARGE_PWR*%
X167660000Y-127162500D03*
%TO.P,J303,4,4*%
%TO.N,unconnected-(J303-Pad4)*%
X164460000Y-127162500D03*
%TO.P,J303,5,5*%
%TO.N,unconnected-(J303-Pad5)*%
X162260000Y-127162500D03*
%TO.P,J303,6,6*%
%TO.N,CHARGE_SAFE_HV*%
X160060000Y-127162500D03*
%TO.P,J303,7,7*%
%TO.N,DISCHARGE_EN_HV*%
X157860000Y-127162500D03*
%TO.P,J303,8,8*%
%TO.N,CHARGE_EN_HV*%
X155660000Y-127162500D03*
%TO.P,J303,9,9*%
%TO.N,unconnected-(J303-Pad9)*%
X153460000Y-127162500D03*
%TO.P,J303,10,10*%
%TO.N,FAN_EN_HV*%
X150260000Y-127162500D03*
%TO.P,J303,11,11*%
%TO.N,unconnected-(J303-Pad11)*%
X146260000Y-127162500D03*
%TO.P,J303,12,12*%
%TO.N,GND*%
X142260000Y-127162500D03*
%TO.P,J303,13,13*%
%TO.N,unconnected-(J303-Pad13)*%
X175460000Y-131662500D03*
%TO.P,J303,14,14*%
%TO.N,unconnected-(J303-Pad14)*%
X173260000Y-131662500D03*
%TO.P,J303,15,15*%
%TO.N,unconnected-(J303-Pad15)*%
X171060000Y-131662500D03*
%TO.P,J303,16,16*%
%TO.N,unconnected-(J303-Pad16)*%
X168860000Y-131662500D03*
%TO.P,J303,17,17*%
%TO.N,unconnected-(J303-Pad17)*%
X166660000Y-131662500D03*
%TO.P,J303,18,18*%
%TO.N,ISO_CAN1+*%
X164460000Y-131662500D03*
%TO.P,J303,19,19*%
%TO.N,ISO_CAN1-*%
X162260000Y-131662500D03*
%TO.P,J303,20,20*%
%TO.N,ISO_CAN2+*%
X155660000Y-131662500D03*
%TO.P,J303,21,21*%
%TO.N,ISO_CAN2-*%
X153460000Y-131662500D03*
%TO.P,J303,22,22*%
%TO.N,unconnected-(J303-Pad22)*%
X151260000Y-131662500D03*
%TO.P,J303,23,23*%
%TO.N,unconnected-(J303-Pad23)*%
X149060000Y-131662500D03*
%TO.P,J303,24,24*%
%TO.N,unconnected-(J303-Pad24)*%
X146860000Y-131662500D03*
%TO.P,J303,25,25*%
%TO.N,unconnected-(J303-Pad25)*%
X144660000Y-131662500D03*
%TO.P,J303,26,26*%
%TO.N,unconnected-(J303-Pad26)*%
X142460000Y-131662500D03*
D11*
%TO.P,J303,MH1,MH1*%
%TO.N,unconnected-(J303-PadMH1)*%
X175610000Y-137612500D03*
%TO.P,J303,MH2,MH2*%
%TO.N,unconnected-(J303-PadMH2)*%
X142260000Y-137612500D03*
%TD*%
D12*
%TO.P,J305,1,1*%
%TO.N,ISO_COMLP*%
X98271605Y-50418326D03*
D13*
%TO.P,J305,2,2*%
%TO.N,ISO_COMLN*%
X101271604Y-50418326D03*
%TD*%
D14*
%TO.P,J301,1,Pin_1*%
%TO.N,GND*%
X154700000Y-30400000D03*
D15*
%TO.P,J301,2,Pin_2*%
%TO.N,Net-(D303-A2)*%
X152160000Y-30400000D03*
%TO.P,J301,3,Pin_3*%
%TO.N,Net-(D301-A2)*%
X149620000Y-30400000D03*
%TO.P,J301,4,Pin_4*%
%TO.N,Net-(J301-Pin_4)*%
X147080000Y-30400000D03*
%TD*%
D14*
%TO.P,J302,1,Pin_1*%
%TO.N,GND*%
X142660000Y-30400000D03*
D15*
%TO.P,J302,2,Pin_2*%
%TO.N,Net-(D304-A2)*%
X140120000Y-30400000D03*
%TO.P,J302,3,Pin_3*%
%TO.N,Net-(D302-A2)*%
X137580000Y-30400000D03*
%TO.P,J302,4,Pin_4*%
%TO.N,Net-(J302-Pin_4)*%
X135040000Y-30400000D03*
%TD*%
D14*
%TO.P,J306,1,Pin_1*%
%TO.N,GND*%
X167275000Y-30400000D03*
D15*
%TO.P,J306,2,Pin_2*%
%TO.N,Net-(D305-A2)*%
X164735000Y-30400000D03*
%TD*%
D12*
%TO.P,J304,1,1*%
%TO.N,ISO_COMHP*%
X98255217Y-63354222D03*
D13*
%TO.P,J304,2,2*%
%TO.N,ISO_COMHN*%
X101255216Y-63354222D03*
%TD*%
D16*
%TO.N,GND*%
X186900000Y-99700000D03*
X135200000Y-100200000D03*
X127800000Y-88750000D03*
X125300000Y-88750000D03*
X122800000Y-88750000D03*
X120300000Y-88750000D03*
X117800000Y-88750000D03*
X100300000Y-95000000D03*
X100300000Y-92500000D03*
X100300000Y-90000000D03*
X97800000Y-82500000D03*
X95300000Y-85000000D03*
X95300000Y-87500000D03*
X97800000Y-80000000D03*
X100300000Y-80000000D03*
X107841341Y-77526095D03*
X110450922Y-77526095D03*
X105304851Y-77536491D03*
X112804851Y-77536491D03*
X97804851Y-77536491D03*
X100304851Y-77536491D03*
X115852754Y-77526095D03*
X102804851Y-77536491D03*
X117804851Y-77536491D03*
%TO.N,+3V3*%
X154800000Y-49300000D03*
D17*
X181200000Y-65557145D03*
D16*
X173900000Y-59000000D03*
D17*
X160050000Y-72500000D03*
X159800000Y-86500000D03*
X183200000Y-57500000D03*
D16*
X147300000Y-50100000D03*
X143050000Y-81500000D03*
X150900000Y-64200000D03*
X152827460Y-59691940D03*
X173400000Y-65600000D03*
X152900000Y-56370000D03*
D17*
X168800000Y-65700000D03*
X161330330Y-84530330D03*
D16*
%TO.N,GND*%
X146480000Y-33400000D03*
X170300000Y-82500000D03*
X109100000Y-119700000D03*
X107800000Y-127500000D03*
X187800000Y-35000000D03*
D17*
X123750000Y-131400000D03*
X105400000Y-43900000D03*
D16*
X95300000Y-125000000D03*
D17*
X145691000Y-87624500D03*
D16*
X160300000Y-47500000D03*
D17*
X185951606Y-86908500D03*
X93389438Y-70900968D03*
X115319784Y-123983604D03*
X143033124Y-121751932D03*
D16*
X177800000Y-27500000D03*
X172800000Y-85000000D03*
X95300000Y-77500000D03*
X162800000Y-142500000D03*
X143400000Y-54700000D03*
X110300000Y-105000000D03*
X157800000Y-45000000D03*
X202800000Y-77500000D03*
X190850000Y-70425000D03*
X160300000Y-140000000D03*
X162154189Y-85003364D03*
X117800000Y-132500000D03*
X112800000Y-127500000D03*
X160075000Y-28400000D03*
D17*
X122387951Y-144418350D03*
D16*
X117800000Y-92500000D03*
X202760856Y-104981646D03*
X170300000Y-40000000D03*
D17*
X129400000Y-44900000D03*
D16*
X197800000Y-45000000D03*
D17*
X142033124Y-122751932D03*
X197984606Y-97100500D03*
X115389438Y-69900968D03*
X138400000Y-54150000D03*
X182400000Y-86900000D03*
D16*
X175300000Y-70000000D03*
X200300000Y-115000000D03*
X187800000Y-57500000D03*
X137800000Y-102500000D03*
X160300000Y-115000000D03*
X147800000Y-145000000D03*
X202800000Y-92500000D03*
X172800000Y-27500000D03*
X162800000Y-137500000D03*
X195300000Y-115000000D03*
X110300000Y-112500000D03*
X182800000Y-40000000D03*
X180300000Y-32500000D03*
X195300000Y-57500000D03*
D17*
X95400000Y-57150000D03*
X140685000Y-88482500D03*
X184051062Y-124368540D03*
D16*
X177800000Y-30000000D03*
X105300000Y-132500000D03*
X140300000Y-45000000D03*
X127800000Y-30000000D03*
X172800000Y-140000000D03*
D17*
X124491000Y-94724500D03*
D16*
X202800000Y-117500000D03*
X95300000Y-92500000D03*
X187800000Y-47500000D03*
X102800000Y-127500000D03*
X100300000Y-37500000D03*
D17*
X121387951Y-144418350D03*
D16*
X189300000Y-66400000D03*
X180300000Y-101800000D03*
X202800000Y-75000000D03*
X202800000Y-115000000D03*
X187800000Y-30000000D03*
X180300000Y-27500000D03*
X95300000Y-115000000D03*
X190300000Y-97500000D03*
X187800000Y-55000000D03*
D17*
X185051062Y-122368540D03*
D16*
X167800000Y-37500000D03*
X120300000Y-30000000D03*
D17*
X182400000Y-82900000D03*
D16*
X115300000Y-130000000D03*
X155937000Y-78350000D03*
X158000000Y-33500000D03*
X167800000Y-140000000D03*
X200300000Y-40000000D03*
D17*
X141691000Y-87624500D03*
D16*
X151250213Y-54882825D03*
X127800000Y-77500000D03*
X112450000Y-141000000D03*
D17*
X117400000Y-44900000D03*
D16*
X177400000Y-67800000D03*
X190300000Y-27500000D03*
X127800000Y-32500000D03*
D17*
X135150000Y-69900000D03*
D16*
X158000000Y-35100000D03*
D17*
X116691000Y-99124500D03*
X123400000Y-44900000D03*
D16*
X147800000Y-102500000D03*
D17*
X187951606Y-84908500D03*
D16*
X190300000Y-62500000D03*
X187800000Y-32500000D03*
X190300000Y-40000000D03*
D17*
X105389438Y-70900968D03*
D16*
X172800000Y-37500000D03*
X157300000Y-38500000D03*
D17*
X125400000Y-57150000D03*
X135097000Y-89117500D03*
D16*
X150300000Y-77500000D03*
X187800000Y-50000000D03*
X115847903Y-74989604D03*
X95300000Y-37500000D03*
X190300000Y-50000000D03*
D17*
X121389438Y-69900968D03*
D16*
X187800000Y-70000000D03*
X187800000Y-27500000D03*
X202800000Y-80000000D03*
X160300000Y-100000000D03*
X162800000Y-115000000D03*
D17*
X114319784Y-123983604D03*
D16*
X97800000Y-37500000D03*
X97800000Y-90000000D03*
X166250000Y-43150000D03*
D17*
X141900000Y-59900000D03*
D16*
X132800000Y-127500000D03*
X152043582Y-55930023D03*
X115300000Y-135000000D03*
D17*
X116319784Y-124983604D03*
X97400000Y-57150000D03*
D16*
X100300000Y-32500000D03*
X127800000Y-27500000D03*
X175300000Y-30000000D03*
X97800000Y-75000000D03*
D17*
X136150000Y-45900000D03*
D16*
X200300000Y-80000000D03*
X175300000Y-145000000D03*
X150300000Y-142500000D03*
D17*
X138150000Y-50650000D03*
D16*
X161714000Y-88311500D03*
X131200000Y-114500000D03*
X112800000Y-75000000D03*
X167505000Y-66522500D03*
X112800000Y-132500000D03*
D17*
X118691000Y-103124500D03*
X198619606Y-105228500D03*
D16*
X140300000Y-145000000D03*
X202800000Y-72500000D03*
D17*
X137150000Y-64650000D03*
D16*
X143396178Y-64247858D03*
D17*
X141033124Y-121751932D03*
D16*
X146209605Y-61478818D03*
D17*
X119400000Y-57150000D03*
D16*
X177800000Y-40000000D03*
X130550000Y-63950000D03*
X150703500Y-84305600D03*
D17*
X123387951Y-145418350D03*
X137400000Y-57150000D03*
D16*
X135300000Y-40000000D03*
X157300000Y-41500000D03*
D17*
X141150000Y-60650000D03*
X111400000Y-57150000D03*
X120387951Y-145418350D03*
X99389438Y-70900968D03*
X198746606Y-98370500D03*
X199975000Y-134075000D03*
X142033124Y-121751932D03*
X117319784Y-123983604D03*
D16*
X137800000Y-105000000D03*
X185300000Y-102500000D03*
X175300000Y-142500000D03*
X202800000Y-70000000D03*
X166750000Y-51500000D03*
X197800000Y-112500000D03*
X197800000Y-57500000D03*
X145300000Y-145000000D03*
X169362192Y-89872198D03*
D17*
X122700000Y-104600000D03*
D16*
X170300000Y-37500000D03*
X112800000Y-145000000D03*
X100300000Y-75000000D03*
X160500000Y-50450000D03*
D17*
X137891000Y-90514500D03*
D16*
X180300000Y-97500000D03*
X155300000Y-135000000D03*
X197800000Y-117500000D03*
X200300000Y-42500000D03*
X102800000Y-32500000D03*
X105300000Y-40000000D03*
D17*
X189951606Y-84908500D03*
X115400000Y-44900000D03*
D16*
X150300000Y-40000000D03*
X152800000Y-140000000D03*
X195300000Y-122500000D03*
D17*
X184051062Y-123368540D03*
D16*
X130300000Y-40000000D03*
X156200000Y-64500000D03*
D17*
X191951606Y-82908500D03*
D16*
X172800000Y-30000000D03*
X127800000Y-75000000D03*
D17*
X127400000Y-57150000D03*
D16*
X117800000Y-75000000D03*
X185300000Y-27500000D03*
X185287800Y-69913013D03*
X107800000Y-30000000D03*
D17*
X199975000Y-132775000D03*
D16*
X197800000Y-125000000D03*
D17*
X133400000Y-69900000D03*
X121400000Y-57150000D03*
D16*
X195300000Y-112500000D03*
X167200000Y-50350000D03*
X152800000Y-42500000D03*
D17*
X136494000Y-89879500D03*
D16*
X175300000Y-59000000D03*
X177300000Y-57000000D03*
X202800000Y-82500000D03*
D17*
X117400000Y-57150000D03*
D16*
X110300000Y-145000000D03*
X105300000Y-140000000D03*
X190300000Y-32500000D03*
D17*
X109400000Y-57150000D03*
D16*
X190300000Y-30000000D03*
X147747916Y-140036491D03*
D17*
X160600000Y-119000000D03*
D16*
X112800000Y-135000000D03*
X187800000Y-37500000D03*
X182800000Y-70000000D03*
X107800000Y-145000000D03*
X170300000Y-102500000D03*
D17*
X125150000Y-131400000D03*
D16*
X95300000Y-95000000D03*
D17*
X139400000Y-55150000D03*
D16*
X95300000Y-97500000D03*
D17*
X103400000Y-43900000D03*
X191951606Y-80908500D03*
D16*
X167800000Y-35000000D03*
X95300000Y-130000000D03*
D17*
X139400000Y-59150000D03*
X139150000Y-62650000D03*
X139691000Y-87624500D03*
D16*
X190300000Y-102500000D03*
X112800000Y-130000000D03*
X107800000Y-142500000D03*
D17*
X182400000Y-80900000D03*
D16*
X195300000Y-45000000D03*
X172800000Y-87500000D03*
X157800000Y-115000000D03*
X135475000Y-54868326D03*
D17*
X97389438Y-70900968D03*
D16*
X131900000Y-27600000D03*
X155823261Y-99326378D03*
X110300000Y-142500000D03*
X190300000Y-45000000D03*
X102800000Y-147500000D03*
X140221928Y-142473904D03*
D17*
X141150000Y-53650000D03*
D16*
X129828667Y-34524833D03*
X95300000Y-40000000D03*
X174589303Y-34342642D03*
X165300000Y-97400000D03*
D17*
X137150000Y-46900000D03*
X140150000Y-61650000D03*
D16*
X197800000Y-42500000D03*
X170300000Y-140000000D03*
X142300000Y-73800000D03*
X200316795Y-124987198D03*
X157800000Y-135000000D03*
X95300000Y-105000000D03*
X192800000Y-47500000D03*
X182800000Y-97500000D03*
X162800000Y-120000000D03*
X187800000Y-65000000D03*
X150300000Y-145000000D03*
X159000001Y-85668630D03*
X167800000Y-40000000D03*
D17*
X138150000Y-63650000D03*
D16*
X158300000Y-71900000D03*
D17*
X136494000Y-88355500D03*
D16*
X165300000Y-140000000D03*
D17*
X135097000Y-90514500D03*
D16*
X195300000Y-55000000D03*
X157800000Y-102500000D03*
X195300000Y-50000000D03*
X172800000Y-72500000D03*
X160300000Y-42500000D03*
D17*
X137400000Y-61150000D03*
D16*
X180300000Y-117500000D03*
X110305197Y-122423409D03*
D17*
X160600000Y-117600000D03*
D16*
X198100000Y-71300000D03*
X175300000Y-61000000D03*
D17*
X199508606Y-97100500D03*
D16*
X132800000Y-107500000D03*
X182800000Y-35000000D03*
X135300000Y-105000000D03*
D17*
X135150000Y-44900000D03*
D16*
X102800000Y-30000000D03*
X170300000Y-145000000D03*
X135300000Y-120000000D03*
X132200000Y-59500000D03*
D17*
X95389438Y-70900968D03*
D16*
X137800000Y-130000000D03*
X152700000Y-58801008D03*
D17*
X177400000Y-121100000D03*
X197222606Y-101037500D03*
X125400000Y-69900000D03*
D16*
X105300000Y-137500000D03*
X100300000Y-40000000D03*
X172800000Y-80000000D03*
X195300000Y-40000000D03*
X158250053Y-89895318D03*
X202800000Y-125000000D03*
D17*
X116691000Y-95124500D03*
D16*
X122800000Y-32500000D03*
D17*
X182400000Y-84900000D03*
X116319784Y-123983604D03*
D16*
X202800000Y-90000000D03*
D17*
X131400000Y-69900000D03*
X135097000Y-87593500D03*
D16*
X172800000Y-142500000D03*
D17*
X117319784Y-124983604D03*
D16*
X114150000Y-140300000D03*
X157800000Y-142500000D03*
X177800000Y-145000000D03*
X166100000Y-97400000D03*
X150800000Y-71900000D03*
X107800000Y-140000000D03*
X160300000Y-137500000D03*
X95300000Y-90000000D03*
D17*
X103389438Y-70900968D03*
X144749000Y-88482500D03*
X109389438Y-69900968D03*
X118691000Y-99124500D03*
D16*
X189375000Y-115575000D03*
D17*
X131150000Y-91500000D03*
X120691000Y-103124500D03*
D16*
X117800000Y-27500000D03*
X185300000Y-32500000D03*
X158000000Y-31700000D03*
D17*
X187951606Y-86908500D03*
D16*
X195300000Y-42500000D03*
X102747808Y-89963509D03*
D17*
X137150000Y-49650000D03*
D16*
X117800000Y-130000000D03*
X95300000Y-132500000D03*
X200300000Y-90000000D03*
X105300000Y-32500000D03*
X125300000Y-37500000D03*
X165300000Y-137500000D03*
X140900000Y-70000000D03*
D17*
X142150000Y-54650000D03*
X131500000Y-90650000D03*
D16*
X105300000Y-30000000D03*
X130750000Y-50950000D03*
X165450000Y-55600000D03*
X100300000Y-145000000D03*
X187800000Y-97500000D03*
X132800000Y-102500000D03*
X150537000Y-88250000D03*
X143380000Y-33300000D03*
D17*
X184051062Y-125368540D03*
D16*
X95300000Y-137500000D03*
D17*
X135400000Y-57150000D03*
D16*
X155300000Y-145000000D03*
D17*
X139033124Y-121751932D03*
D16*
X95300000Y-82500000D03*
X165300000Y-37500000D03*
X202800000Y-122500000D03*
D17*
X187951606Y-80908500D03*
D16*
X165300000Y-142500000D03*
D17*
X113389438Y-69900968D03*
D16*
X195300000Y-60000000D03*
X158000000Y-29600000D03*
D17*
X197222606Y-98370500D03*
D16*
X115300000Y-132500000D03*
X152800000Y-137500000D03*
X157800000Y-112500000D03*
X177800000Y-97600000D03*
X195300000Y-37500000D03*
D17*
X196587606Y-102434500D03*
D16*
X158300000Y-48000000D03*
X167800000Y-137500000D03*
X190300000Y-65000000D03*
X199600000Y-66400000D03*
X177800000Y-70000000D03*
X200300000Y-85000000D03*
X140300000Y-47500000D03*
D17*
X180350000Y-123000000D03*
D16*
X186300000Y-56400000D03*
D17*
X123400000Y-57150000D03*
D16*
X200300000Y-45000000D03*
X170400000Y-52500000D03*
X125300000Y-32500000D03*
D17*
X118319784Y-123983604D03*
D16*
X105300000Y-142500000D03*
D17*
X140400000Y-56150000D03*
D16*
X115300000Y-127500000D03*
X107800000Y-135000000D03*
X102800000Y-75000000D03*
D17*
X111400000Y-44900000D03*
D16*
X134802483Y-27465205D03*
X202800000Y-47500000D03*
D17*
X115400000Y-57150000D03*
D16*
X149673034Y-84300000D03*
X182800000Y-37500000D03*
X162564000Y-88311500D03*
X200300000Y-77500000D03*
X95300000Y-110000000D03*
X92779209Y-77468706D03*
X145300000Y-140000000D03*
X165300000Y-27500000D03*
X180300000Y-37500000D03*
X180500000Y-53900000D03*
X177300000Y-61000000D03*
D17*
X113400000Y-57150000D03*
D16*
X200300000Y-50000000D03*
X185300000Y-42500000D03*
X155300000Y-47500000D03*
X147800000Y-135000000D03*
X111200000Y-139000000D03*
X122800000Y-37500000D03*
D17*
X187951606Y-82908500D03*
D16*
X162141047Y-55932881D03*
X97800000Y-97500000D03*
X135500000Y-47050000D03*
X102800000Y-40000000D03*
X197800000Y-47500000D03*
X133600000Y-109300000D03*
X135300000Y-130000000D03*
D17*
X119400000Y-44900000D03*
D16*
X202800000Y-102500000D03*
D17*
X199508606Y-99640500D03*
D16*
X195300000Y-62500000D03*
X161800000Y-72000000D03*
X110300000Y-100000000D03*
D17*
X118700000Y-104600000D03*
X131800000Y-129500000D03*
X109139438Y-44649032D03*
X185951606Y-80908500D03*
X120691000Y-95124500D03*
D16*
X192800000Y-42500000D03*
X132800000Y-120000000D03*
D17*
X191951606Y-84908500D03*
X120387951Y-144418350D03*
D16*
X202800000Y-45000000D03*
X137800000Y-127500000D03*
D17*
X160600000Y-120300000D03*
D16*
X102800000Y-140000000D03*
D17*
X184051062Y-122368540D03*
D16*
X120300000Y-27500000D03*
X182800000Y-102500000D03*
X132450000Y-118300000D03*
X192800000Y-60000000D03*
X95300000Y-107500000D03*
D17*
X120691000Y-101124500D03*
X137400000Y-53150001D03*
X118691000Y-97124500D03*
X127400000Y-44900000D03*
X118691000Y-95124500D03*
D16*
X200300000Y-87500000D03*
X187800000Y-45000000D03*
X147800000Y-142500000D03*
X160300000Y-112500000D03*
X132800000Y-122500000D03*
X97800000Y-92500000D03*
X165300000Y-135000000D03*
X154623495Y-48417475D03*
X135300000Y-132500000D03*
X155300000Y-137500000D03*
D17*
X122691000Y-101124500D03*
D16*
X169370000Y-72048621D03*
X195300000Y-65000000D03*
D17*
X103400000Y-57150000D03*
D16*
X191350000Y-69875000D03*
X202800000Y-120000000D03*
X183200000Y-56500000D03*
D17*
X183951606Y-86908500D03*
X121400000Y-44900000D03*
D16*
X142800000Y-145000000D03*
X115300000Y-145000000D03*
X185300000Y-30000000D03*
X162800000Y-102500000D03*
X155100000Y-97400000D03*
D17*
X120700000Y-104600000D03*
D16*
X157800000Y-140000000D03*
X152800000Y-27500000D03*
X160300000Y-92500000D03*
X120545149Y-74963509D03*
X106100000Y-116299997D03*
X133780000Y-33400000D03*
X202800000Y-112500000D03*
X182800000Y-117500000D03*
X155298411Y-27476803D03*
X102800000Y-137500000D03*
X150300000Y-140000000D03*
X185300000Y-72500000D03*
X127800000Y-37500000D03*
X200300000Y-122500000D03*
X160300000Y-35000000D03*
X182210773Y-65677743D03*
D17*
X122691000Y-95124500D03*
D16*
X175300000Y-75000000D03*
X187800000Y-60000000D03*
X167800000Y-42500000D03*
X102800000Y-132500000D03*
D17*
X131400000Y-57150000D03*
D16*
X137800000Y-100000000D03*
X130300000Y-127500000D03*
D17*
X122691000Y-97124500D03*
D16*
X192800000Y-45000000D03*
D17*
X197984606Y-99640500D03*
X183951606Y-82908500D03*
D16*
X92800000Y-75000000D03*
X157800000Y-132500000D03*
D17*
X123387951Y-144418350D03*
D16*
X155937000Y-79300000D03*
X110300000Y-102500000D03*
X143690138Y-80867365D03*
X102800000Y-125000000D03*
X95300000Y-120000000D03*
D17*
X137891000Y-87593500D03*
D16*
X197800000Y-65000000D03*
X156950000Y-55600000D03*
D17*
X117389438Y-69900968D03*
D16*
X167800000Y-145000000D03*
X140242610Y-37468706D03*
D17*
X93400000Y-57150000D03*
D16*
X105300000Y-37500000D03*
X160300000Y-135000000D03*
D17*
X183951606Y-84908500D03*
D16*
X95300000Y-135000000D03*
X176700000Y-43200000D03*
X199800000Y-55400000D03*
D17*
X191951606Y-86908500D03*
X132557000Y-89117500D03*
D16*
X202800000Y-42500000D03*
X157800000Y-97500000D03*
D17*
X185051062Y-125368540D03*
D16*
X140300000Y-132500000D03*
X172600000Y-53900000D03*
D17*
X121387951Y-145418350D03*
X101400000Y-57150000D03*
D16*
X185300000Y-47500000D03*
X172800000Y-77500000D03*
X167744415Y-102511598D03*
X197800000Y-40000000D03*
X202800000Y-40000000D03*
D17*
X196500000Y-95600000D03*
X132557000Y-90514500D03*
D16*
X160300000Y-102500000D03*
X185451377Y-97494802D03*
D17*
X119387951Y-145418350D03*
D16*
X162800000Y-135000000D03*
X125300000Y-30000000D03*
D17*
X133827000Y-89879500D03*
D16*
X182800000Y-100000000D03*
D17*
X95400000Y-43900000D03*
D16*
X155300000Y-142500000D03*
X95300000Y-112500000D03*
X157300000Y-40000000D03*
X132800000Y-100000000D03*
D17*
X118691000Y-101124500D03*
D16*
X170300000Y-63047900D03*
X102800000Y-130000000D03*
X162800000Y-145000000D03*
X162800000Y-100000000D03*
X136300000Y-107400000D03*
D17*
X107650000Y-70650000D03*
X120691000Y-97124500D03*
D16*
X188475000Y-113775000D03*
X170300000Y-142500000D03*
X125300000Y-77500000D03*
D17*
X189951606Y-80908500D03*
D16*
X187800000Y-115000000D03*
X160300000Y-45000000D03*
X165300000Y-40000000D03*
X164667638Y-61776884D03*
D17*
X185051062Y-124368540D03*
D16*
X197800000Y-55000000D03*
X163450000Y-46050000D03*
X102800000Y-27500000D03*
X153597752Y-99347355D03*
X200300000Y-120000000D03*
X200300000Y-75000000D03*
X150970505Y-62569745D03*
X167800000Y-135000000D03*
X192800000Y-30000000D03*
X159800000Y-57883500D03*
X95300000Y-75000000D03*
X170300000Y-85000000D03*
X105300000Y-75000000D03*
X160300000Y-90000000D03*
X202800000Y-95000000D03*
D17*
X101400000Y-43900000D03*
D16*
X110446071Y-74989604D03*
X135585496Y-60015442D03*
X160500000Y-51350000D03*
D17*
X107400000Y-43900000D03*
D16*
X182800000Y-30000000D03*
X155300000Y-45000000D03*
X162800000Y-97500000D03*
X195300000Y-120000000D03*
X147800000Y-62600000D03*
D17*
X119387951Y-144418350D03*
D16*
X117800000Y-120000000D03*
X179800000Y-101000000D03*
D17*
X122450000Y-131400000D03*
D16*
X170300000Y-137500000D03*
D17*
X114319784Y-124983604D03*
X120691000Y-99124500D03*
D16*
X175300000Y-72500000D03*
X172800000Y-40000000D03*
X192800000Y-40000000D03*
X152800000Y-45000000D03*
X150300000Y-27500000D03*
X107800000Y-137500000D03*
X157800000Y-100000000D03*
X167800000Y-142500000D03*
X115300000Y-142500000D03*
D17*
X140033124Y-122751932D03*
D16*
X162747916Y-140036491D03*
D17*
X139033124Y-122751932D03*
D16*
X200300000Y-47500000D03*
D17*
X118319784Y-124983604D03*
D16*
X202800000Y-100000000D03*
X180200768Y-67348843D03*
X166964000Y-78211500D03*
X200300000Y-117500000D03*
X172800000Y-100000000D03*
X162800000Y-27500000D03*
D17*
X136200000Y-68900000D03*
D16*
X155480000Y-33400000D03*
X160300000Y-27500000D03*
X202800000Y-110000000D03*
X95300000Y-117500000D03*
X147800000Y-100000000D03*
X187800000Y-62500000D03*
D17*
X116691000Y-103124500D03*
D16*
X170300000Y-75000000D03*
X160300000Y-142500000D03*
X125300000Y-40000000D03*
X159919975Y-32355025D03*
X171300000Y-61000000D03*
X176300000Y-46000000D03*
X167800000Y-27500000D03*
D17*
X137150000Y-67900000D03*
D16*
X162800000Y-90000000D03*
X182800000Y-72500000D03*
X158296210Y-60683495D03*
X140300000Y-127500000D03*
X117800000Y-30000000D03*
D17*
X105400000Y-57150000D03*
D16*
X110300000Y-97500000D03*
D17*
X192751606Y-90308500D03*
D16*
X147800000Y-137500000D03*
X162800000Y-117500000D03*
D17*
X184051062Y-121368540D03*
X192351606Y-88708500D03*
D16*
X135182568Y-102437305D03*
X92800000Y-140000000D03*
X105174718Y-89937413D03*
D17*
X122691000Y-99124500D03*
X164600000Y-121100000D03*
D16*
X182800000Y-42500000D03*
X127800000Y-40000000D03*
X122800000Y-92500000D03*
X180300000Y-72500000D03*
D17*
X139400000Y-57150000D03*
D16*
X132800000Y-40000000D03*
X163982886Y-67384997D03*
X170300000Y-77500000D03*
X181800000Y-45800000D03*
X150300000Y-75000000D03*
D17*
X197984606Y-102434500D03*
D16*
X172232920Y-63389216D03*
X197800000Y-37500000D03*
X192800000Y-35000000D03*
D17*
X143033124Y-122751932D03*
D16*
X159800000Y-87450003D03*
X177800000Y-37500000D03*
X180300000Y-40000000D03*
X145605368Y-84526003D03*
D17*
X137150000Y-48300000D03*
D16*
X125300000Y-27500000D03*
X102800000Y-135000000D03*
X115300000Y-120000000D03*
X175300000Y-40000000D03*
X112800000Y-142500000D03*
D17*
X116700000Y-104600000D03*
D16*
X150300000Y-135000000D03*
X200300000Y-37500000D03*
X200300000Y-112500000D03*
X142800000Y-142500000D03*
D17*
X199477606Y-110234500D03*
D16*
X160300000Y-145000000D03*
X190300000Y-42500000D03*
X140300000Y-27500000D03*
X132300000Y-55250000D03*
D17*
X180350000Y-123850000D03*
D16*
X160300000Y-40000000D03*
X175300000Y-37500000D03*
X107836490Y-74989604D03*
X150300000Y-137500000D03*
X197800000Y-120000000D03*
D17*
X185051062Y-121368540D03*
X161950000Y-123150000D03*
D16*
X166900000Y-99300000D03*
D17*
X139150000Y-51650000D03*
X119389438Y-69900968D03*
D16*
X185300000Y-50000000D03*
X110300000Y-95000000D03*
X167750000Y-64650000D03*
X122800000Y-40000000D03*
X164500000Y-99300000D03*
X186300000Y-63500000D03*
X182800000Y-27500000D03*
X155300000Y-140000000D03*
X150300000Y-102482602D03*
X140300000Y-50000000D03*
X150300000Y-42500000D03*
X152800000Y-142500000D03*
D17*
X137150000Y-66300000D03*
D16*
X195300000Y-117500000D03*
X155300000Y-102500000D03*
X95300000Y-80000000D03*
X132200000Y-46650000D03*
D17*
X99400000Y-57150000D03*
D16*
X197800000Y-50000000D03*
D17*
X195600000Y-95450000D03*
D16*
X152800000Y-135000000D03*
X202800000Y-87500000D03*
X95300000Y-127500000D03*
X192800000Y-37500000D03*
X176300000Y-69000000D03*
X137100000Y-106900000D03*
X120300000Y-40000000D03*
X168300000Y-33000000D03*
D17*
X199477606Y-104234500D03*
D16*
X162800000Y-35000000D03*
X158300000Y-27500000D03*
D17*
X107410562Y-57149032D03*
X185951606Y-84908500D03*
D16*
X120300000Y-32500000D03*
X95299999Y-122473687D03*
X192800000Y-50000000D03*
X197800000Y-60000000D03*
D17*
X123400000Y-69900000D03*
D16*
X100300000Y-147500000D03*
D17*
X129400000Y-57150000D03*
D16*
X152800000Y-145000000D03*
D17*
X126091000Y-94324500D03*
D16*
X197800000Y-122500000D03*
X162800000Y-40000000D03*
X187800000Y-117500000D03*
D17*
X140150000Y-52650000D03*
X93389438Y-43899032D03*
D16*
X102800000Y-37500000D03*
X132250000Y-68300000D03*
D17*
X133400000Y-44900000D03*
D16*
X134250000Y-117500000D03*
X135300000Y-122500000D03*
X107500000Y-120665000D03*
D17*
X189951606Y-86908500D03*
D16*
X120346994Y-92484299D03*
D17*
X97400000Y-43900000D03*
X122387951Y-145418350D03*
X185051062Y-123368540D03*
D16*
X165300000Y-145000000D03*
X160300000Y-132500000D03*
X195300000Y-125000000D03*
X105300000Y-130000000D03*
X142800000Y-37500000D03*
D17*
X138400000Y-60150000D03*
X113400000Y-44900000D03*
D16*
X160500000Y-49500000D03*
X120300000Y-37500000D03*
X175375989Y-102511598D03*
X185300000Y-37500000D03*
X185300000Y-115000000D03*
X142800000Y-47500000D03*
X174300000Y-68000000D03*
X183300000Y-50200000D03*
X185300000Y-40000000D03*
X152800000Y-37500000D03*
D17*
X138907000Y-88482500D03*
D16*
X170050000Y-68500000D03*
X146495013Y-49697507D03*
X187800000Y-102500000D03*
X107763509Y-129947916D03*
D17*
X133827000Y-88355500D03*
D16*
X172743212Y-102488401D03*
X117800000Y-127500000D03*
X102800000Y-122500000D03*
X144692224Y-83000000D03*
X135585496Y-68065442D03*
X186400000Y-64500000D03*
X202800000Y-50000000D03*
X95300000Y-102500000D03*
D17*
X185951606Y-82908500D03*
D16*
X177300000Y-59000000D03*
X202800000Y-85000000D03*
D17*
X143691000Y-87624500D03*
X132557000Y-87593500D03*
D16*
X130771333Y-34524833D03*
X177800000Y-35000000D03*
X191400000Y-112700000D03*
X182800000Y-32500000D03*
D17*
X129100000Y-129500000D03*
D16*
X172800000Y-82500000D03*
D17*
X196587606Y-97100500D03*
D16*
X180300000Y-35000000D03*
X102800000Y-92500000D03*
X122800000Y-30000000D03*
X197800000Y-62500000D03*
X165300000Y-42500000D03*
D17*
X199477606Y-106234500D03*
D16*
X190300000Y-35000000D03*
X168952192Y-52187041D03*
D17*
X199508606Y-102434500D03*
X115319784Y-124983604D03*
D16*
X107800000Y-110000000D03*
X197800000Y-115000000D03*
D17*
X111389438Y-69900968D03*
X133400000Y-57150000D03*
D16*
X107800000Y-112500000D03*
X190300000Y-57500000D03*
X137800000Y-42500000D03*
X142800000Y-50000000D03*
X160300000Y-97500000D03*
X157800000Y-145000000D03*
X135300000Y-127500000D03*
X180300000Y-30000000D03*
X192800000Y-27500000D03*
X165500000Y-34700000D03*
D17*
X131400000Y-44900000D03*
D16*
X202800000Y-107500000D03*
X173900000Y-56300000D03*
D17*
X140400000Y-58150000D03*
D16*
X181600000Y-53000000D03*
X166964000Y-79111500D03*
X150300000Y-90000000D03*
X105300000Y-127500000D03*
X145300000Y-142500000D03*
X162800000Y-42500000D03*
X185300000Y-100000000D03*
D17*
X129400000Y-69900000D03*
D16*
X172800000Y-75000000D03*
X177800000Y-32500000D03*
D17*
X101389438Y-70900968D03*
X196587606Y-99640500D03*
D16*
X177800000Y-142500000D03*
D17*
X198619606Y-109292500D03*
D16*
X187800000Y-40000000D03*
X105300000Y-135000000D03*
X151487000Y-88250000D03*
X110300000Y-27500000D03*
X142800000Y-40000000D03*
X202800000Y-97500000D03*
X192826203Y-57494910D03*
X107800000Y-132500000D03*
X195300000Y-47500000D03*
X137800000Y-27500000D03*
X175300000Y-57000000D03*
X159736398Y-56036398D03*
X157800000Y-43000000D03*
X157800000Y-137500000D03*
D17*
X122691000Y-103124500D03*
X116691000Y-97124500D03*
D16*
X187800000Y-42500000D03*
D17*
X183951606Y-80908500D03*
D16*
X97800000Y-40000000D03*
X107800000Y-27500000D03*
X92800000Y-80000000D03*
X105300000Y-125000000D03*
X175300000Y-27500000D03*
X190300000Y-37500000D03*
X185300000Y-35000000D03*
X170300000Y-135000000D03*
X185300000Y-45000000D03*
X192800000Y-32500000D03*
X170350000Y-57100000D03*
X140810050Y-76110050D03*
X177305171Y-63265502D03*
D17*
X141033124Y-122751932D03*
D16*
X179800000Y-57000000D03*
D17*
X130500000Y-129500000D03*
D16*
X117800000Y-135000000D03*
X157800000Y-130000000D03*
D17*
X199975000Y-131375000D03*
D16*
X195500000Y-66400000D03*
X152800000Y-40000000D03*
X154300000Y-97400000D03*
X153226951Y-52800000D03*
X140263602Y-65163602D03*
D17*
X161950000Y-124000000D03*
D16*
X122800000Y-27500000D03*
X190300000Y-60000000D03*
X175325756Y-63265502D03*
X140300000Y-40000000D03*
D17*
X137891000Y-89117500D03*
X99400000Y-43900000D03*
X127400000Y-69900000D03*
D16*
X200300000Y-82500000D03*
D17*
X199477606Y-108234500D03*
D16*
X97800000Y-95000000D03*
X132800000Y-105000000D03*
D17*
X198746606Y-101037500D03*
D16*
X200300000Y-92500000D03*
X192800000Y-55000000D03*
D17*
X189951606Y-82908500D03*
D16*
X190300000Y-47500000D03*
D17*
X198619606Y-103450500D03*
D16*
X190300000Y-55000000D03*
D17*
X116691000Y-101124500D03*
D16*
X142800000Y-42500000D03*
X115300000Y-27500000D03*
D17*
X125400000Y-44900000D03*
D16*
X105300000Y-27500000D03*
X172800000Y-145000000D03*
X202800000Y-37500000D03*
D17*
X140033124Y-121751932D03*
D16*
%TO.N,DISCHARGE_EN_LV*%
X131200000Y-115400000D03*
X159326551Y-59283499D03*
%TO.N,CHARGE_SAFE_LV*%
X158300000Y-59783500D03*
X190500000Y-112700000D03*
%TO.N,/MCU/SWO*%
X168600000Y-59100000D03*
X171600000Y-43300000D03*
%TO.N,/MCU/SWCLK*%
X165227084Y-62481884D03*
X168800000Y-51300000D03*
%TO.N,ISO_CAN1+*%
X166127000Y-98650000D03*
%TO.N,/MCU/TEST_LED*%
X161900000Y-56800000D03*
X169400000Y-37600000D03*
%TO.N,ISO_CAN1-*%
X165173000Y-98650000D03*
%TO.N,ISO_CAN2+*%
X155177000Y-98700000D03*
%TO.N,ISO_CAN2-*%
X154223000Y-98700000D03*
%TO.N,/MCU/SWDIO*%
X163500000Y-66600000D03*
X173800000Y-55400000D03*
%TO.N,/MCU/NRST*%
X172352750Y-53034626D03*
X181300000Y-52100000D03*
%TO.N,CHARGE_EN_LV*%
X106100000Y-117200000D03*
X160500000Y-58583500D03*
%TO.N,SPI1_NSS*%
X157252704Y-56447570D03*
X148700000Y-52400000D03*
%TO.N,CHARGE_PWR_LV_ISO*%
X151516500Y-60883500D03*
X140900000Y-65800000D03*
D17*
%TO.N,+5V*%
X130300000Y-33700000D03*
X150200000Y-83500000D03*
X100800000Y-106200000D03*
X145500000Y-83500000D03*
D16*
%TO.N,READY_PWR_LV_ISO*%
X157000000Y-60583500D03*
X142300000Y-72900000D03*
%TO.N,BQ_NFAULT*%
X144550000Y-64250000D03*
X145925000Y-60625000D03*
D17*
%TO.N,BQ_SPI_RDY*%
X154000000Y-53500000D03*
X150500000Y-54300000D03*
D16*
%TO.N,/MCU/SDIO_DET*%
X180700000Y-66600000D03*
X169300000Y-63300000D03*
%TO.N,FAN_EN_LV*%
X154216360Y-60883501D03*
X111200000Y-138100000D03*
%TO.N,ADC_IN*%
X161800000Y-55100000D03*
X159475000Y-29100000D03*
%TO.N,UART4_TX*%
X156500000Y-43900000D03*
X159100000Y-55400000D03*
%TD*%
D18*
%TO.N,+3V3*%
X160050000Y-73250000D02*
X161300000Y-74500000D01*
D19*
X152827460Y-59691940D02*
X152827460Y-60115985D01*
D18*
X152827460Y-61844161D02*
X150900000Y-63771621D01*
X148100000Y-49300000D02*
X154800000Y-49300000D01*
X173900000Y-65100000D02*
X173900000Y-59000000D01*
X154400000Y-82200000D02*
X158700000Y-86500000D01*
X153900000Y-57370000D02*
X152900000Y-56370000D01*
X152918392Y-59601008D02*
X153031371Y-59601008D01*
X147300000Y-50100000D02*
X148100000Y-49300000D01*
X173400000Y-65600000D02*
X173900000Y-65100000D01*
D19*
X150955025Y-63955025D02*
X150900000Y-64010050D01*
D18*
X168800000Y-67000000D02*
X168800000Y-65700000D01*
X153031371Y-59601008D02*
X153900000Y-58732379D01*
X158700000Y-86500000D02*
X159800000Y-86500000D01*
X153900000Y-58732379D02*
X153900000Y-57370000D01*
D19*
X150900000Y-64010050D02*
X150900000Y-64200000D01*
D18*
X150900000Y-63771621D02*
X150900000Y-64200000D01*
X152827460Y-59691940D02*
X152918392Y-59601008D01*
X143750000Y-82200000D02*
X154400000Y-82200000D01*
X183200000Y-63557145D02*
X183200000Y-57500000D01*
X181200000Y-65557145D02*
X183200000Y-63557145D01*
X161300000Y-74500000D02*
X168800000Y-67000000D01*
X152827460Y-59691940D02*
X152827460Y-61844161D01*
X160050000Y-72500000D02*
X160050000Y-73250000D01*
X143050000Y-81500000D02*
X143750000Y-82200000D01*
X161330330Y-84530330D02*
X161300000Y-84500000D01*
X161300000Y-84500000D02*
X161300000Y-74500000D01*
D19*
%TO.N,DISCHARGE_EN_LV*%
X105100000Y-118600000D02*
X128000000Y-118600000D01*
X159100000Y-59510050D02*
X159100000Y-61300000D01*
X156600000Y-63800000D02*
X155910050Y-63800000D01*
X103300000Y-95800000D02*
X103300000Y-116800000D01*
X139110050Y-80600000D02*
X118500000Y-80600000D01*
X128000000Y-118600000D02*
X131200000Y-115400000D01*
X103300000Y-116800000D02*
X105100000Y-118600000D01*
X118500000Y-80600000D02*
X103300000Y-95800000D01*
X159326551Y-59283499D02*
X159100000Y-59510050D01*
X159100000Y-61300000D02*
X156600000Y-63800000D01*
X155910050Y-63800000D02*
X139110050Y-80600000D01*
%TO.N,CHARGE_SAFE_LV*%
X158300000Y-58022314D02*
X159222314Y-57100000D01*
X159300000Y-64200000D02*
X159300000Y-83900000D01*
X160301246Y-57100000D02*
X161600000Y-58398754D01*
X159222314Y-57100000D02*
X160301246Y-57100000D01*
X161600000Y-58398754D02*
X161600000Y-61900000D01*
X161600000Y-61900000D02*
X159300000Y-64200000D01*
X188100000Y-112700000D02*
X190500000Y-112700000D01*
X158300000Y-59783500D02*
X158300000Y-58022314D01*
X159300000Y-83900000D02*
X188100000Y-112700000D01*
%TO.N,/MCU/SWO*%
X169900000Y-59100000D02*
X171600000Y-57400000D01*
X171600000Y-57400000D02*
X171600000Y-43300000D01*
X168600000Y-59100000D02*
X169900000Y-59100000D01*
%TO.N,/MCU/SWCLK*%
X168400000Y-51300000D02*
X168800000Y-51300000D01*
X164400000Y-56600000D02*
X164400000Y-55300000D01*
X163100000Y-57900000D02*
X164400000Y-56600000D01*
X164400000Y-55300000D02*
X168400000Y-51300000D01*
X165222084Y-62476884D02*
X163977286Y-62476884D01*
X163100000Y-61599598D02*
X163100000Y-57900000D01*
X163977286Y-62476884D02*
X163100000Y-61599598D01*
X165227084Y-62481884D02*
X165222084Y-62476884D01*
D20*
%TO.N,ISO_CAN1+*%
X166298480Y-128485277D02*
X164460000Y-130323757D01*
X164460000Y-130323757D02*
X164460000Y-131662500D01*
X165954501Y-98822499D02*
X165954501Y-126056997D01*
X166298480Y-126400976D02*
X166298480Y-128485277D01*
X166127000Y-98650000D02*
X165954501Y-98822499D01*
X165954501Y-126056997D02*
X166298480Y-126400976D01*
D19*
%TO.N,/MCU/TEST_LED*%
X161900000Y-56800000D02*
X162500000Y-56800000D01*
X162500000Y-56800000D02*
X163400000Y-55900000D01*
X169400000Y-42900000D02*
X169400000Y-37600000D01*
X163400000Y-55900000D02*
X163400000Y-48900000D01*
X163400000Y-48900000D02*
X169400000Y-42900000D01*
D20*
%TO.N,ISO_CAN1-*%
X165345499Y-98822499D02*
X165345499Y-126309223D01*
X165689500Y-126653224D02*
X165689500Y-128233000D01*
X165173000Y-98650000D02*
X165345499Y-98822499D01*
X165345499Y-126309223D02*
X165689500Y-126653224D01*
X165689500Y-128233000D02*
X162260000Y-131662500D01*
%TO.N,ISO_CAN2+*%
X155177000Y-98700000D02*
X155177000Y-99523000D01*
X152230500Y-127671776D02*
X153700000Y-129141276D01*
X153700000Y-129141276D02*
X153700000Y-129702500D01*
X155177000Y-99523000D02*
X152230500Y-102469500D01*
X153700000Y-129702500D02*
X155660000Y-131662500D01*
X152230500Y-102469500D02*
X152230500Y-127671776D01*
%TO.N,ISO_CAN2-*%
X154500000Y-99300000D02*
X151621520Y-102178480D01*
X154223000Y-98700000D02*
X154500000Y-98977000D01*
X151621520Y-127924024D02*
X152750000Y-129052504D01*
X151621520Y-102178480D02*
X151621520Y-127924024D01*
X152750000Y-130952500D02*
X153460000Y-131662500D01*
X152750000Y-129052504D02*
X152750000Y-130952500D01*
X154500000Y-98977000D02*
X154500000Y-99300000D01*
D19*
%TO.N,/MCU/SWDIO*%
X173200000Y-57500000D02*
X173200000Y-56000000D01*
X164100000Y-66600000D02*
X173200000Y-57500000D01*
X163500000Y-66600000D02*
X164100000Y-66600000D01*
X173200000Y-56000000D02*
X173800000Y-55400000D01*
%TO.N,/MCU/NRST*%
X172352750Y-53034626D02*
X172518124Y-53200000D01*
X180200000Y-53200000D02*
X181300000Y-52100000D01*
X172518124Y-53200000D02*
X180200000Y-53200000D01*
%TO.N,CHARGE_EN_LV*%
X139510050Y-82200000D02*
X119300000Y-82200000D01*
X104800000Y-116200000D02*
X105800000Y-117200000D01*
X160500000Y-61210050D02*
X139510050Y-82200000D01*
X160500000Y-58583500D02*
X160500000Y-61210050D01*
X105800000Y-117200000D02*
X106100000Y-117200000D01*
X119300000Y-82200000D02*
X104800000Y-96700000D01*
X104800000Y-96700000D02*
X104800000Y-116200000D01*
%TO.N,SPI1_NSS*%
X149100000Y-52000000D02*
X148700000Y-52400000D01*
X157650000Y-56050274D02*
X157650000Y-55269975D01*
X157252704Y-56447570D02*
X157650000Y-56050274D01*
X157650000Y-55269975D02*
X154380025Y-52000000D01*
X154380025Y-52000000D02*
X149100000Y-52000000D01*
%TO.N,CHARGE_PWR_LV_ISO*%
X141600000Y-65100000D02*
X140900000Y-65800000D01*
X151516500Y-60883500D02*
X147300000Y-65100000D01*
X147300000Y-65100000D02*
X141600000Y-65100000D01*
D18*
%TO.N,+5V*%
X128222129Y-35000000D02*
X96300000Y-35000000D01*
X91300000Y-40000000D02*
X91300000Y-96700000D01*
X150200000Y-83500000D02*
X145500000Y-83500000D01*
X130300000Y-33700000D02*
X129522129Y-33700000D01*
X129522129Y-33700000D02*
X128222129Y-35000000D01*
X91300000Y-96700000D02*
X100800000Y-106200000D01*
X96300000Y-35000000D02*
X91300000Y-40000000D01*
D19*
%TO.N,READY_PWR_LV_ISO*%
X145100000Y-72900000D02*
X142300000Y-72900000D01*
X157000000Y-60583500D02*
X157000000Y-61000000D01*
X157000000Y-61000000D02*
X145100000Y-72900000D01*
%TO.N,BQ_NFAULT*%
X144550000Y-64250000D02*
X144550000Y-62000000D01*
X144550000Y-62000000D02*
X145925000Y-60625000D01*
%TO.N,BQ_SPI_RDY*%
X150500000Y-54300000D02*
X151300000Y-53500000D01*
X151300000Y-53500000D02*
X154000000Y-53500000D01*
%TO.N,/MCU/SDIO_DET*%
X172600000Y-66600000D02*
X169300000Y-63300000D01*
X180700000Y-66600000D02*
X172600000Y-66600000D01*
%TO.N,FAN_EN_LV*%
X154216360Y-60883501D02*
X154216360Y-62083640D01*
X101800000Y-117300000D02*
X110900000Y-126400000D01*
X110900000Y-126400000D02*
X110900000Y-137800000D01*
X125500000Y-71600000D02*
X101800000Y-95300000D01*
X101800000Y-95300000D02*
X101800000Y-117300000D01*
X154216360Y-62083640D02*
X144700000Y-71600000D01*
X144700000Y-71600000D02*
X125500000Y-71600000D01*
X110900000Y-137800000D02*
X111200000Y-138100000D01*
%TO.N,ADC_IN*%
X161800000Y-55100000D02*
X159100000Y-52400000D01*
X159100000Y-41500000D02*
X158800000Y-41200000D01*
X159100000Y-52400000D02*
X159100000Y-41500000D01*
X158800000Y-29775000D02*
X159475000Y-29100000D01*
X158800000Y-41200000D02*
X158800000Y-29775000D01*
%TO.N,UART4_TX*%
X156500000Y-52800000D02*
X156500000Y-43900000D01*
X159100000Y-55400000D02*
X156500000Y-52800000D01*
%TD*%
M02*
